<svg xmlns="http://www.w3.org/2000/svg" width="1030" height="280" viewBox="0 0 1030 280">
  <g id="Grupo_76120" data-name="Grupo 76120" transform="translate(5170 -7931.815)">
    <path id="Trazado_148316" data-name="Trazado 148316" d="M0,0H505V280H0Z" transform="translate(-5170 7931.815)" fill="#fff"/>
    <path id="Trazado_148303" data-name="Trazado 148303" d="M0,0H505V280H0Z" transform="translate(-4645 7931.815)" fill="#fff"/>
    <path id="Trazado_146095" data-name="Trazado 146095" d="M1934.466-277.007a120.645,120.645,0,0,0-35.447,85.578,120.645,120.645,0,0,0,35.447,85.578l85.578-85.578Z" transform="translate(-6943.655 8262.745)" fill="#00bcd4"/>
    <path id="Trazado_146096" data-name="Trazado 146096" d="M2146.292-315.807a120.647,120.647,0,0,0-85.578-35.447,120.646,120.646,0,0,0-85.577,35.447l85.577,85.578Z" transform="translate(-6979.095 8297.314)" fill="#00bcd4"/>
    <path id="Trazado_146097" data-name="Trazado 146097" d="M1975.136-21.5a120.646,120.646,0,0,0,85.577,35.447A120.647,120.647,0,0,0,2146.292-21.5l-85.578-85.578Z" transform="translate(-6979.095 8183.628)" fill="#00bcd4"/>
    <path id="Trazado_146098" data-name="Trazado 146098" d="M2233.934-277.007l-85.578,85.578,85.578,85.578a120.649,120.649,0,0,0,35.447-85.578A120.649,120.649,0,0,0,2233.934-277.007Z" transform="translate(-7059.746 8262.745)" fill="#00bcd4"/>
    <path id="Trazado_148317" data-name="Trazado 148317" d="M77.267,0A77.267,77.267,0,1,1,0,77.267,77.267,77.267,0,0,1,77.267,0Z" transform="translate(-4995.648 7995.233)" fill="#fff" opacity="0.6"/>
    <path id="Trazado_148318" data-name="Trazado 148318" d="M41.112,0A41.112,41.112,0,1,1,0,41.112,41.112,41.112,0,0,1,41.112,0Z" transform="translate(-4960.987 8031.389)" fill="#7e5ee3"/>
    <path id="Trazado_146095-2" data-name="Trazado 146095" d="M1934.466-277.007a120.645,120.645,0,0,0-35.447,85.578,120.645,120.645,0,0,0,35.447,85.578l85.578-85.578Z" transform="translate(-6432.811 8262.745)" fill="#00bcd4"/>
    <path id="Trazado_146096-2" data-name="Trazado 146096" d="M2146.292-315.807a120.647,120.647,0,0,0-85.578-35.447,120.646,120.646,0,0,0-85.577,35.447l85.577,85.578Z" transform="translate(-6468.251 8297.314)" fill="#00bcd4"/>
    <path id="Trazado_146097-2" data-name="Trazado 146097" d="M1975.136-21.5a120.646,120.646,0,0,0,85.577,35.447A120.647,120.647,0,0,0,2146.292-21.5l-85.578-85.578Z" transform="translate(-6468.251 8183.628)" fill="#00bcd4"/>
    <path id="Trazado_146098-2" data-name="Trazado 146098" d="M2233.934-277.007l-85.578,85.578,85.578,85.578a120.649,120.649,0,0,0,35.447-85.578A120.649,120.649,0,0,0,2233.934-277.007Z" transform="translate(-6548.902 8262.745)" fill="#00bcd4"/>
    <path id="Trazado_148304" data-name="Trazado 148304" d="M86.763,0A86.763,86.763,0,1,1,0,86.763,86.763,86.763,0,0,1,86.763,0Z" transform="translate(-4494.3 7985.738)" fill="#fff" opacity="0.6"/>
    <path id="Trazado_148305" data-name="Trazado 148305" d="M41.112,0A41.112,41.112,0,1,1,0,41.112,41.112,41.112,0,0,1,41.112,0Z" transform="translate(-4450.143 8031.389)" fill="#7e5ee3"/>
    <path id="Trazado_148306" data-name="Trazado 148306" d="M19.1,9.1a2.543,2.543,0,0,1-1.118.735,4.683,4.683,0,0,1-1.6.261,3.173,3.173,0,0,1-1.619-.4,2.687,2.687,0,0,1-1.074-1.169,4.116,4.116,0,0,1-.388-1.8V6.24A4.371,4.371,0,0,1,13.66,4.4,2.655,2.655,0,0,1,14.7,3.206a2.982,2.982,0,0,1,1.584-.413,2.969,2.969,0,0,1,1.978.6A2.577,2.577,0,0,1,19.1,5.151H17.676a1.418,1.418,0,0,0-.432-.894,1.38,1.38,0,0,0-.92-.283,1.3,1.3,0,0,0-1.138.562,2.953,2.953,0,0,0-.4,1.67V6.66a2.811,2.811,0,0,0,.425,1.689,1.455,1.455,0,0,0,1.245.571,1.625,1.625,0,0,0,1.177-.352V7.344H16.3V6.265h2.8Zm5.464-2.183H21.753v1.9h3.3V10H20.289V2.891h4.756V4.077H21.753V5.771h2.813Zm3.979.479H27.378V10H25.914V2.891h2.642a2.986,2.986,0,0,1,1.943.562,1.938,1.938,0,0,1,.684,1.587,2.187,2.187,0,0,1-.315,1.213,2.148,2.148,0,0,1-.955.774l1.538,2.905V10H29.878ZM27.378,6.211H28.56a1.21,1.21,0,0,0,.854-.281,1,1,0,0,0,.3-.774,1.074,1.074,0,0,0-.286-.791,1.187,1.187,0,0,0-.876-.288H27.378Zm9.194.708H33.76v1.9h3.3V10H32.3V2.891h4.756V4.077H33.76V5.771h2.813ZM43.7,10H42.237L39.385,5.322V10H37.92V2.891h1.465l2.856,4.688V2.891H43.7Zm6.631-5.923H48.155V10H46.69V4.077H44.542V2.891h5.791Zm5.112,2.842H52.632v1.9h3.3V10H51.167V2.891h4.756V4.077H52.632V5.771h2.813ZM18.936,23.1a2.543,2.543,0,0,1-1.118.735,4.683,4.683,0,0,1-1.6.261,3.173,3.173,0,0,1-1.619-.4,2.687,2.687,0,0,1-1.074-1.169,4.116,4.116,0,0,1-.388-1.8V20.24a4.371,4.371,0,0,1,.359-1.843,2.655,2.655,0,0,1,1.035-1.191,2.982,2.982,0,0,1,1.584-.413,2.969,2.969,0,0,1,1.978.6,2.577,2.577,0,0,1,.845,1.755H17.51a1.418,1.418,0,0,0-.432-.894,1.38,1.38,0,0,0-.92-.283,1.3,1.3,0,0,0-1.138.562,2.953,2.953,0,0,0-.4,1.67v.454a2.811,2.811,0,0,0,.425,1.689,1.455,1.455,0,0,0,1.245.571,1.625,1.625,0,0,0,1.177-.352V21.344H16.138V20.265h2.8ZM24.4,20.919H21.587v1.9h3.3V24H20.123V16.891h4.756v1.187H21.587v1.694H24.4ZM31.529,24H30.064l-2.852-4.678V24H25.748V16.891h1.465l2.856,4.688V16.891h1.46Zm5.557-3.081H34.273v1.9h3.3V24H32.808V16.891h4.756v1.187H34.273v1.694h2.813Zm3.979.479H39.9V24H38.433V16.891h2.642a2.986,2.986,0,0,1,1.943.562,1.938,1.938,0,0,1,.684,1.587,2.187,2.187,0,0,1-.315,1.213,2.148,2.148,0,0,1-.955.774l1.538,2.905V24H42.4ZM39.9,20.211H41.08a1.21,1.21,0,0,0,.854-.281,1,1,0,0,0,.3-.774,1.074,1.074,0,0,0-.286-.791,1.187,1.187,0,0,0-.876-.288H39.9Zm8.931,2.324H46.26L45.772,24H44.214l2.646-7.109h1.357L50.879,24H49.322Zm-2.173-1.187h1.777l-.894-2.661Zm6.353,1.475h3.11V24H51.543V16.891h1.465Z" transform="translate(-4441.156 8060.815)" fill="#fff"/>
    <path id="Trazado_148307" data-name="Trazado 148307" d="M28.931,9.067a2.166,2.166,0,0,1-1.008.774,4.073,4.073,0,0,1-1.506.256,2.921,2.921,0,0,1-1.543-.408,2.716,2.716,0,0,1-1.042-1.16,4.005,4.005,0,0,1-.378-1.743v-.62a3.739,3.739,0,0,1,.75-2.49,2.612,2.612,0,0,1,2.107-.884,2.7,2.7,0,0,1,1.792.569,2.478,2.478,0,0,1,.83,1.614h-.937a1.55,1.55,0,0,0-1.68-1.416,1.66,1.66,0,0,0-1.428.662A3.233,3.233,0,0,0,24.4,6.14v.582a3.03,3.03,0,0,0,.547,1.9,1.773,1.773,0,0,0,1.479.706,3.268,3.268,0,0,0,.923-.117A1.427,1.427,0,0,0,28,8.82V7.227H26.353V6.46h2.578Zm3.613,1.03A2.308,2.308,0,0,1,30.8,9.392,2.619,2.619,0,0,1,30.123,7.5V7.339a3.17,3.17,0,0,1,.3-1.4,2.343,2.343,0,0,1,.84-.967,2.112,2.112,0,0,1,1.169-.349,1.979,1.979,0,0,1,1.6.679A2.939,2.939,0,0,1,34.6,7.241v.376H31.026a1.878,1.878,0,0,0,.457,1.262,1.435,1.435,0,0,0,1.111.481,1.573,1.573,0,0,0,.811-.2,2.037,2.037,0,0,0,.581-.518l.552.43A2.219,2.219,0,0,1,32.544,10.1Zm-.112-4.736a1.2,1.2,0,0,0-.918.4,1.934,1.934,0,0,0-.459,1.116H33.7V6.807a1.721,1.721,0,0,0-.371-1.067A1.134,1.134,0,0,0,32.432,5.361Zm5.771.166a2.707,2.707,0,0,0-.444-.034,1.19,1.19,0,0,0-1.206.757V10h-.9V4.717h.879l.015.61a1.407,1.407,0,0,1,1.26-.708.923.923,0,0,1,.4.068Zm3.022,4.57a2.308,2.308,0,0,1-1.748-.706A2.619,2.619,0,0,1,38.8,7.5V7.339a3.17,3.17,0,0,1,.3-1.4,2.343,2.343,0,0,1,.84-.967,2.112,2.112,0,0,1,1.169-.349,1.979,1.979,0,0,1,1.6.679,2.939,2.939,0,0,1,.571,1.943v.376H39.708a1.878,1.878,0,0,0,.457,1.262,1.435,1.435,0,0,0,1.111.481,1.573,1.573,0,0,0,.811-.2,2.037,2.037,0,0,0,.581-.518l.552.43A2.219,2.219,0,0,1,41.226,10.1Zm-.112-4.736a1.2,1.2,0,0,0-.918.4,1.934,1.934,0,0,0-.459,1.116h2.646V6.807a1.721,1.721,0,0,0-.371-1.067A1.134,1.134,0,0,0,41.114,5.361Zm4.072-.645.029.664A1.925,1.925,0,0,1,46.8,4.619q1.675,0,1.689,1.89V10h-.9V6.5a1.216,1.216,0,0,0-.261-.845,1.047,1.047,0,0,0-.8-.273,1.3,1.3,0,0,0-.771.234,1.592,1.592,0,0,0-.518.615V10h-.9V4.717Zm5.889-1.279V4.717h.986v.7h-.986V8.7a.733.733,0,0,0,.132.477.555.555,0,0,0,.449.159,2.187,2.187,0,0,0,.43-.059V10a2.634,2.634,0,0,1-.693.1,1.125,1.125,0,0,1-.913-.366,1.573,1.573,0,0,1-.308-1.04V5.415h-.962v-.7h.962V3.438Zm4.233,6.66a2.308,2.308,0,0,1-1.748-.706A2.619,2.619,0,0,1,52.886,7.5V7.339a3.17,3.17,0,0,1,.3-1.4,2.343,2.343,0,0,1,.84-.967A2.112,2.112,0,0,1,55.2,4.619a1.979,1.979,0,0,1,1.6.679,2.939,2.939,0,0,1,.571,1.943v.376H53.79a1.878,1.878,0,0,0,.457,1.262,1.435,1.435,0,0,0,1.111.481,1.573,1.573,0,0,0,.811-.2,2.037,2.037,0,0,0,.581-.518l.552.43A2.219,2.219,0,0,1,55.308,10.1ZM55.2,5.361a1.2,1.2,0,0,0-.918.4,1.934,1.934,0,0,0-.459,1.116h2.646V6.807a1.721,1.721,0,0,0-.371-1.067A1.134,1.134,0,0,0,55.2,5.361Zm5.474,1.953a3.1,3.1,0,0,1,.576-1.956,1.96,1.96,0,0,1,2.979-.1V2.5h.9V10H64.3l-.044-.566a1.84,1.84,0,0,1-1.509.664,1.8,1.8,0,0,1-1.5-.752,3.13,3.13,0,0,1-.579-1.963Zm.9.1a2.343,2.343,0,0,0,.371,1.406,1.2,1.2,0,0,0,1.025.508,1.318,1.318,0,0,0,1.255-.771V6.133a1.328,1.328,0,0,0-1.245-.747,1.205,1.205,0,0,0-1.035.513A2.58,2.58,0,0,0,61.573,7.417ZM68.721,10.1a2.308,2.308,0,0,1-1.748-.706A2.619,2.619,0,0,1,66.3,7.5V7.339a3.17,3.17,0,0,1,.3-1.4,2.342,2.342,0,0,1,.84-.967,2.112,2.112,0,0,1,1.169-.349,1.979,1.979,0,0,1,1.6.679,2.939,2.939,0,0,1,.571,1.943v.376H67.2a1.878,1.878,0,0,0,.457,1.262,1.435,1.435,0,0,0,1.111.481,1.573,1.573,0,0,0,.811-.2,2.037,2.037,0,0,0,.581-.518l.552.43A2.219,2.219,0,0,1,68.721,10.1Zm-.112-4.736a1.2,1.2,0,0,0-.918.4,1.934,1.934,0,0,0-.459,1.116h2.646V6.807a1.721,1.721,0,0,0-.371-1.067A1.134,1.134,0,0,0,68.609,5.361ZM28.707,22.6a.665.665,0,0,0-.276-.569,2.655,2.655,0,0,0-.962-.349,4.548,4.548,0,0,1-1.089-.352,1.549,1.549,0,0,1-.6-.488,1.168,1.168,0,0,1-.193-.674,1.37,1.37,0,0,1,.549-1.1,2.145,2.145,0,0,1,1.4-.449A2.208,2.208,0,0,1,29,19.083a1.473,1.473,0,0,1,.559,1.187h-.908a.815.815,0,0,0-.315-.64,1.18,1.18,0,0,0-.793-.269,1.235,1.235,0,0,0-.771.215.676.676,0,0,0-.278.562.548.548,0,0,0,.259.493,3.184,3.184,0,0,0,.935.317,4.872,4.872,0,0,1,1.1.361,1.6,1.6,0,0,1,.623.505,1.243,1.243,0,0,1,.2.72,1.352,1.352,0,0,1-.566,1.135,2.376,2.376,0,0,1-1.47.427,2.66,2.66,0,0,1-1.123-.225,1.827,1.827,0,0,1-.764-.627,1.512,1.512,0,0,1-.276-.872h.9a.935.935,0,0,0,.364.72,1.411,1.411,0,0,0,.9.266,1.457,1.457,0,0,0,.823-.208A.638.638,0,0,0,28.707,22.6Zm4.272,1.5a2.308,2.308,0,0,1-1.748-.706,2.619,2.619,0,0,1-.674-1.887v-.166a3.17,3.17,0,0,1,.3-1.4,2.343,2.343,0,0,1,.84-.967,2.112,2.112,0,0,1,1.169-.349,1.979,1.979,0,0,1,1.6.679,2.939,2.939,0,0,1,.571,1.943v.376H31.46a1.878,1.878,0,0,0,.457,1.262,1.435,1.435,0,0,0,1.111.481,1.573,1.573,0,0,0,.811-.2,2.037,2.037,0,0,0,.581-.518l.552.43A2.219,2.219,0,0,1,32.979,24.1Zm-.112-4.736a1.2,1.2,0,0,0-.918.4,1.934,1.934,0,0,0-.459,1.116h2.646v-.068a1.721,1.721,0,0,0-.371-1.067A1.134,1.134,0,0,0,32.867,19.361Zm3,1.953a3.105,3.105,0,0,1,.571-1.965,1.97,1.97,0,0,1,3.022-.046l.044-.586h.825v5.156a2.149,2.149,0,0,1-.608,1.616,2.243,2.243,0,0,1-1.633.591,2.717,2.717,0,0,1-1.118-.244,1.925,1.925,0,0,1-.835-.669l.469-.542a1.766,1.766,0,0,0,1.421.718,1.384,1.384,0,0,0,1.028-.371,1.418,1.418,0,0,0,.369-1.045v-.454a1.857,1.857,0,0,1-1.479.625,1.8,1.8,0,0,1-1.5-.747A3.265,3.265,0,0,1,35.87,21.314Zm.908.1a2.369,2.369,0,0,0,.366,1.4,1.19,1.19,0,0,0,1.025.51,1.323,1.323,0,0,0,1.255-.776V20.143a1.339,1.339,0,0,0-1.245-.757,1.2,1.2,0,0,0-1.03.513A2.58,2.58,0,0,0,36.778,21.417Zm8.179,2.061a1.919,1.919,0,0,1-1.548.62,1.642,1.642,0,0,1-1.287-.491,2.124,2.124,0,0,1-.447-1.453V18.717h.9V22.13q0,1.2.977,1.2a1.352,1.352,0,0,0,1.377-.771V18.717h.9V24h-.859Zm4.8-3.95a2.707,2.707,0,0,0-.444-.034,1.19,1.19,0,0,0-1.206.757V24h-.9V18.717h.879l.015.61a1.407,1.407,0,0,1,1.26-.708.923.923,0,0,1,.4.068ZM51.573,24h-.9V18.717h.9ZM50.6,17.315a.539.539,0,0,1,.134-.371.5.5,0,0,1,.4-.151.512.512,0,0,1,.4.151.534.534,0,0,1,.137.371.516.516,0,0,1-.137.366.521.521,0,0,1-.4.146.513.513,0,0,1-.4-.146A.521.521,0,0,1,50.6,17.315Zm2.2,4a3.1,3.1,0,0,1,.576-1.956,1.96,1.96,0,0,1,2.979-.1V16.5h.9V24h-.83l-.044-.566a1.84,1.84,0,0,1-1.509.664,1.8,1.8,0,0,1-1.5-.752,3.13,3.13,0,0,1-.579-1.963Zm.9.1a2.343,2.343,0,0,0,.371,1.406,1.2,1.2,0,0,0,1.025.508,1.318,1.318,0,0,0,1.255-.771V20.133a1.328,1.328,0,0,0-1.245-.747,1.205,1.205,0,0,0-1.035.513A2.58,2.58,0,0,0,53.7,21.417ZM61.919,24a1.9,1.9,0,0,1-.127-.557,2.015,2.015,0,0,1-1.5.654,1.865,1.865,0,0,1-1.282-.442,1.43,1.43,0,0,1-.5-1.121,1.494,1.494,0,0,1,.627-1.282A2.958,2.958,0,0,1,60.9,20.8h.879v-.415a1.015,1.015,0,0,0-.283-.754,1.138,1.138,0,0,0-.835-.281,1.317,1.317,0,0,0-.811.244.719.719,0,0,0-.327.591h-.908a1.247,1.247,0,0,1,.281-.764,1.916,1.916,0,0,1,.762-.583,2.563,2.563,0,0,1,1.057-.215,2.089,2.089,0,0,1,1.431.457,1.647,1.647,0,0,1,.537,1.257v2.432a2.973,2.973,0,0,0,.186,1.157V24Zm-1.5-.688a1.588,1.588,0,0,0,.806-.22,1.329,1.329,0,0,0,.552-.571V21.437H61.07q-1.66,0-1.66.972a.822.822,0,0,0,.283.664A1.089,1.089,0,0,0,60.42,23.312Zm3.457-2a3.1,3.1,0,0,1,.576-1.956,1.96,1.96,0,0,1,2.979-.1V16.5h.9V24h-.83l-.044-.566a1.84,1.84,0,0,1-1.509.664,1.8,1.8,0,0,1-1.5-.752,3.13,3.13,0,0,1-.579-1.963Zm.9.1a2.343,2.343,0,0,0,.371,1.406,1.2,1.2,0,0,0,1.025.508,1.318,1.318,0,0,0,1.255-.771V20.133a1.328,1.328,0,0,0-1.245-.747,1.205,1.205,0,0,0-1.035.513A2.58,2.58,0,0,0,64.781,21.417Z" transform="translate(-4454.156 7998.815)" fill="#12263f"/>
    <path id="Trazado_148308" data-name="Trazado 148308" d="M15.946,3.657H13.661V10h-.933V3.657h-2.28V2.891h5.5Zm3.105,6.44A2.308,2.308,0,0,1,17.3,9.392,2.619,2.619,0,0,1,16.629,7.5V7.339a3.17,3.17,0,0,1,.3-1.4,2.343,2.343,0,0,1,.84-.967,2.112,2.112,0,0,1,1.169-.349,1.979,1.979,0,0,1,1.6.679,2.939,2.939,0,0,1,.571,1.943v.376H17.533a1.878,1.878,0,0,0,.457,1.262A1.435,1.435,0,0,0,19.1,9.36a1.573,1.573,0,0,0,.811-.2,2.037,2.037,0,0,0,.581-.518l.552.43A2.219,2.219,0,0,1,19.051,10.1Zm-.112-4.736a1.2,1.2,0,0,0-.918.4,1.934,1.934,0,0,0-.459,1.116h2.646V6.807a1.721,1.721,0,0,0-.371-1.067A1.134,1.134,0,0,0,18.939,5.361ZM19.378,2.5h1.094L19.164,3.936l-.728,0Zm4.9,6.86a1.3,1.3,0,0,0,.845-.293,1.031,1.031,0,0,0,.4-.732h.854a1.638,1.638,0,0,1-.312.864,2.058,2.058,0,0,1-.769.654,2.219,2.219,0,0,1-1.018.244,2.176,2.176,0,0,1-1.716-.72,2.869,2.869,0,0,1-.637-1.97V7.256a3.181,3.181,0,0,1,.283-1.372,2.157,2.157,0,0,1,.813-.933,2.309,2.309,0,0,1,1.252-.332,2.119,2.119,0,0,1,1.477.532,1.9,1.9,0,0,1,.627,1.382h-.854a1.245,1.245,0,0,0-.388-.842,1.208,1.208,0,0,0-.862-.33,1.264,1.264,0,0,0-1.067.5,2.328,2.328,0,0,0-.378,1.433v.171A2.281,2.281,0,0,0,23.2,8.867,1.27,1.27,0,0,0,24.276,9.36Zm3.97-4.644.029.664a1.925,1.925,0,0,1,1.582-.762q1.675,0,1.689,1.89V10h-.9V6.5a1.216,1.216,0,0,0-.261-.845,1.047,1.047,0,0,0-.8-.273,1.3,1.3,0,0,0-.771.234,1.592,1.592,0,0,0-.518.615V10h-.9V4.717ZM33.89,10h-.9V4.717h.9Zm-.977-6.685a.539.539,0,0,1,.134-.371.5.5,0,0,1,.4-.151.512.512,0,0,1,.4.151.534.534,0,0,1,.137.371.516.516,0,0,1-.137.366.521.521,0,0,1-.4.146.513.513,0,0,1-.4-.146A.521.521,0,0,1,32.914,3.315ZM37.455,9.36a1.3,1.3,0,0,0,.845-.293,1.031,1.031,0,0,0,.4-.732h.854a1.638,1.638,0,0,1-.312.864,2.058,2.058,0,0,1-.769.654,2.219,2.219,0,0,1-1.018.244,2.176,2.176,0,0,1-1.716-.72,2.869,2.869,0,0,1-.637-1.97V7.256a3.181,3.181,0,0,1,.283-1.372,2.157,2.157,0,0,1,.813-.933,2.309,2.309,0,0,1,1.252-.332,2.119,2.119,0,0,1,1.477.532,1.9,1.9,0,0,1,.627,1.382H38.7a1.245,1.245,0,0,0-.388-.842,1.208,1.208,0,0,0-.862-.33,1.264,1.264,0,0,0-1.067.5A2.328,2.328,0,0,0,36,7.29v.171a2.281,2.281,0,0,0,.376,1.406A1.27,1.27,0,0,0,37.455,9.36ZM40.331,7.31a3.121,3.121,0,0,1,.305-1.4,2.277,2.277,0,0,1,.85-.957,2.313,2.313,0,0,1,1.243-.337,2.228,2.228,0,0,1,1.746.747,2.874,2.874,0,0,1,.667,1.987v.063a3.148,3.148,0,0,1-.3,1.384A2.243,2.243,0,0,1,44,9.756a2.339,2.339,0,0,1-1.262.342A2.222,2.222,0,0,1,41,9.351a2.86,2.86,0,0,1-.667-1.978Zm.908.107a2.26,2.26,0,0,0,.408,1.411,1.382,1.382,0,0,0,2.185-.007,2.472,2.472,0,0,0,.405-1.511A2.256,2.256,0,0,0,43.824,5.9a1.312,1.312,0,0,0-1.1-.54,1.3,1.3,0,0,0-1.079.532A2.453,2.453,0,0,0,41.239,7.417Zm7.29-.1A3.1,3.1,0,0,1,49.1,5.359a1.96,1.96,0,0,1,2.979-.1V2.5h.9V10h-.83l-.044-.566A1.84,1.84,0,0,1,50.6,10.1a1.8,1.8,0,0,1-1.5-.752,3.13,3.13,0,0,1-.579-1.963Zm.9.1A2.343,2.343,0,0,0,49.8,8.823a1.2,1.2,0,0,0,1.025.508,1.318,1.318,0,0,0,1.255-.771V6.133a1.328,1.328,0,0,0-1.245-.747A1.205,1.205,0,0,0,49.8,5.9,2.58,2.58,0,0,0,49.432,7.417ZM56.581,10.1a2.308,2.308,0,0,1-1.748-.706A2.619,2.619,0,0,1,54.159,7.5V7.339a3.17,3.17,0,0,1,.3-1.4,2.343,2.343,0,0,1,.84-.967,2.112,2.112,0,0,1,1.169-.349,1.979,1.979,0,0,1,1.6.679,2.939,2.939,0,0,1,.571,1.943v.376H55.062a1.878,1.878,0,0,0,.457,1.262,1.435,1.435,0,0,0,1.111.481,1.573,1.573,0,0,0,.811-.2,2.037,2.037,0,0,0,.581-.518l.552.43A2.219,2.219,0,0,1,56.581,10.1Zm-.112-4.736a1.2,1.2,0,0,0-.918.4,1.934,1.934,0,0,0-.459,1.116h2.646V6.807a1.721,1.721,0,0,0-.371-1.067A1.134,1.134,0,0,0,56.468,5.361ZM65.238,8.6a.665.665,0,0,0-.276-.569A2.655,2.655,0,0,0,64,7.681a4.548,4.548,0,0,1-1.089-.352,1.549,1.549,0,0,1-.6-.488,1.168,1.168,0,0,1-.193-.674,1.37,1.37,0,0,1,.549-1.1,2.145,2.145,0,0,1,1.4-.449,2.208,2.208,0,0,1,1.458.464,1.473,1.473,0,0,1,.559,1.187h-.908a.815.815,0,0,0-.315-.64,1.18,1.18,0,0,0-.793-.269,1.235,1.235,0,0,0-.771.215.676.676,0,0,0-.278.562.548.548,0,0,0,.259.493,3.184,3.184,0,0,0,.935.317,4.872,4.872,0,0,1,1.1.361,1.6,1.6,0,0,1,.623.505,1.243,1.243,0,0,1,.2.72,1.352,1.352,0,0,1-.566,1.135,2.376,2.376,0,0,1-1.47.427,2.66,2.66,0,0,1-1.123-.225,1.827,1.827,0,0,1-.764-.627,1.512,1.512,0,0,1-.276-.872h.9a.935.935,0,0,0,.364.72,1.411,1.411,0,0,0,.9.266,1.457,1.457,0,0,0,.823-.208A.638.638,0,0,0,65.238,8.6Zm4.272,1.5a2.308,2.308,0,0,1-1.748-.706A2.619,2.619,0,0,1,67.088,7.5V7.339a3.17,3.17,0,0,1,.3-1.4,2.342,2.342,0,0,1,.84-.967A2.112,2.112,0,0,1,69.4,4.619,1.979,1.979,0,0,1,71,5.3a2.939,2.939,0,0,1,.571,1.943v.376H67.992a1.878,1.878,0,0,0,.457,1.262,1.435,1.435,0,0,0,1.111.481,1.573,1.573,0,0,0,.811-.2,2.037,2.037,0,0,0,.581-.518l.552.43A2.219,2.219,0,0,1,69.51,10.1ZM69.4,5.361a1.2,1.2,0,0,0-.918.4,1.934,1.934,0,0,0-.459,1.116h2.646V6.807A1.721,1.721,0,0,0,70.3,5.74,1.134,1.134,0,0,0,69.4,5.361Zm3,1.953a3.105,3.105,0,0,1,.571-1.965A1.97,1.97,0,0,1,75.995,5.3l.044-.586h.825V9.873a2.149,2.149,0,0,1-.608,1.616,2.243,2.243,0,0,1-1.633.591,2.717,2.717,0,0,1-1.118-.244,1.925,1.925,0,0,1-.835-.669l.469-.542a1.766,1.766,0,0,0,1.421.718,1.384,1.384,0,0,0,1.028-.371,1.418,1.418,0,0,0,.369-1.045V9.473a1.857,1.857,0,0,1-1.479.625,1.8,1.8,0,0,1-1.5-.747A3.265,3.265,0,0,1,72.4,7.314Zm.908.1a2.369,2.369,0,0,0,.366,1.4,1.19,1.19,0,0,0,1.025.51,1.323,1.323,0,0,0,1.255-.776V6.143a1.339,1.339,0,0,0-1.245-.757,1.2,1.2,0,0,0-1.03.513A2.58,2.58,0,0,0,73.309,7.417Zm8.179,2.061a1.919,1.919,0,0,1-1.548.62,1.642,1.642,0,0,1-1.287-.491,2.124,2.124,0,0,1-.447-1.453V4.717h.9V8.13q0,1.2.977,1.2a1.352,1.352,0,0,0,1.377-.771V4.717h.9V10h-.859Zm4.8-3.95a2.707,2.707,0,0,0-.444-.034,1.19,1.19,0,0,0-1.206.757V10h-.9V4.717h.879l.015.61a1.407,1.407,0,0,1,1.26-.708.923.923,0,0,1,.4.068ZM88.1,10h-.9V4.717h.9Zm-.977-6.685a.539.539,0,0,1,.134-.371.5.5,0,0,1,.4-.151.512.512,0,0,1,.4.151.534.534,0,0,1,.137.371.516.516,0,0,1-.137.366.521.521,0,0,1-.4.146.513.513,0,0,1-.4-.146A.521.521,0,0,1,87.127,3.315Zm2.2,4a3.1,3.1,0,0,1,.576-1.956,1.96,1.96,0,0,1,2.979-.1V2.5h.9V10h-.83l-.044-.566A1.84,1.84,0,0,1,91.4,10.1a1.8,1.8,0,0,1-1.5-.752,3.13,3.13,0,0,1-.579-1.963Zm.9.1A2.343,2.343,0,0,0,90.6,8.823a1.2,1.2,0,0,0,1.025.508,1.318,1.318,0,0,0,1.255-.771V6.133a1.328,1.328,0,0,0-1.245-.747A1.205,1.205,0,0,0,90.6,5.9,2.58,2.58,0,0,0,90.233,7.417ZM98.451,10a1.9,1.9,0,0,1-.127-.557,2.016,2.016,0,0,1-1.5.654,1.865,1.865,0,0,1-1.282-.442,1.43,1.43,0,0,1-.5-1.121,1.494,1.494,0,0,1,.627-1.282A2.958,2.958,0,0,1,97.43,6.8h.879V6.382a1.015,1.015,0,0,0-.283-.754,1.138,1.138,0,0,0-.835-.281,1.317,1.317,0,0,0-.811.244.719.719,0,0,0-.327.591h-.908a1.247,1.247,0,0,1,.281-.764,1.916,1.916,0,0,1,.762-.583,2.563,2.563,0,0,1,1.057-.215,2.089,2.089,0,0,1,1.431.457,1.647,1.647,0,0,1,.537,1.257V8.765A2.973,2.973,0,0,0,99.4,9.922V10Zm-1.5-.688a1.588,1.588,0,0,0,.806-.22,1.329,1.329,0,0,0,.552-.571V7.437H97.6q-1.66,0-1.66.972a.822.822,0,0,0,.283.664A1.089,1.089,0,0,0,96.952,9.312Zm3.457-2a3.1,3.1,0,0,1,.576-1.956,1.96,1.96,0,0,1,2.979-.1V2.5h.9V10h-.83l-.044-.566a1.84,1.84,0,0,1-1.509.664,1.8,1.8,0,0,1-1.5-.752,3.13,3.13,0,0,1-.579-1.963Zm.9.1a2.343,2.343,0,0,0,.371,1.406,1.2,1.2,0,0,0,1.025.508,1.318,1.318,0,0,0,1.255-.771V6.133a1.328,1.328,0,0,0-1.245-.747,1.205,1.205,0,0,0-1.035.513A2.58,2.58,0,0,0,101.312,7.417Zm9.16,1.26,1.23-3.96h.967l-2.124,6.1q-.493,1.318-1.567,1.318l-.171-.015-.337-.063v-.732l.244.02a1.2,1.2,0,0,0,.715-.186,1.343,1.343,0,0,0,.422-.679l.2-.537-1.885-5.225h.986ZM36.817,22.6a.665.665,0,0,0-.276-.569,2.655,2.655,0,0,0-.962-.349,4.548,4.548,0,0,1-1.089-.352,1.549,1.549,0,0,1-.6-.488,1.168,1.168,0,0,1-.193-.674,1.37,1.37,0,0,1,.549-1.1,2.145,2.145,0,0,1,1.4-.449,2.208,2.208,0,0,1,1.458.464,1.473,1.473,0,0,1,.559,1.187h-.908a.815.815,0,0,0-.315-.64,1.18,1.18,0,0,0-.793-.269,1.235,1.235,0,0,0-.771.215.676.676,0,0,0-.278.562.548.548,0,0,0,.259.493,3.184,3.184,0,0,0,.935.317,4.872,4.872,0,0,1,1.1.361,1.6,1.6,0,0,1,.623.505,1.243,1.243,0,0,1,.2.72,1.352,1.352,0,0,1-.566,1.135,2.376,2.376,0,0,1-1.47.427,2.66,2.66,0,0,1-1.123-.225,1.827,1.827,0,0,1-.764-.627,1.512,1.512,0,0,1-.276-.872h.9a.935.935,0,0,0,.364.72,1.411,1.411,0,0,0,.9.266,1.457,1.457,0,0,0,.823-.208A.638.638,0,0,0,36.817,22.6ZM42.159,24a1.9,1.9,0,0,1-.127-.557,2.015,2.015,0,0,1-1.5.654,1.865,1.865,0,0,1-1.282-.442,1.43,1.43,0,0,1-.5-1.121,1.494,1.494,0,0,1,.627-1.282,2.958,2.958,0,0,1,1.765-.457h.879v-.415a1.015,1.015,0,0,0-.283-.754,1.138,1.138,0,0,0-.835-.281,1.317,1.317,0,0,0-.811.244.719.719,0,0,0-.327.591h-.908a1.247,1.247,0,0,1,.281-.764,1.916,1.916,0,0,1,.762-.583,2.563,2.563,0,0,1,1.057-.215,2.089,2.089,0,0,1,1.431.457,1.647,1.647,0,0,1,.537,1.257v2.432a2.973,2.973,0,0,0,.186,1.157V24Zm-1.5-.688a1.588,1.588,0,0,0,.806-.22,1.329,1.329,0,0,0,.552-.571V21.437H41.31q-1.66,0-1.66.972a.822.822,0,0,0,.283.664A1.089,1.089,0,0,0,40.66,23.312ZM45.318,24h-.9V16.5h.9Zm4.707-.522a1.919,1.919,0,0,1-1.548.62,1.642,1.642,0,0,1-1.287-.491,2.124,2.124,0,0,1-.447-1.453V18.717h.9V22.13q0,1.2.977,1.2A1.352,1.352,0,0,0,50,22.56V18.717h.9V24h-.859Zm2.031-2.163a3.1,3.1,0,0,1,.576-1.956,1.96,1.96,0,0,1,2.979-.1V16.5h.9V24h-.83l-.044-.566a1.84,1.84,0,0,1-1.509.664,1.8,1.8,0,0,1-1.5-.752,3.13,3.13,0,0,1-.579-1.963Zm.9.1a2.343,2.343,0,0,0,.371,1.406,1.2,1.2,0,0,0,1.025.508,1.318,1.318,0,0,0,1.255-.771V20.133a1.328,1.328,0,0,0-1.245-.747,1.205,1.205,0,0,0-1.035.513A2.58,2.58,0,0,0,52.96,21.417ZM61.373,24h-.9V16.5h.9Zm4.707,0a1.9,1.9,0,0,1-.127-.557,2.016,2.016,0,0,1-1.5.654,1.865,1.865,0,0,1-1.282-.442,1.43,1.43,0,0,1-.5-1.121,1.494,1.494,0,0,1,.627-1.282A2.958,2.958,0,0,1,65.06,20.8h.879v-.415a1.015,1.015,0,0,0-.283-.754,1.138,1.138,0,0,0-.835-.281,1.317,1.317,0,0,0-.811.244.719.719,0,0,0-.327.591h-.908a1.247,1.247,0,0,1,.281-.764,1.916,1.916,0,0,1,.762-.583,2.563,2.563,0,0,1,1.057-.215,2.089,2.089,0,0,1,1.431.457,1.647,1.647,0,0,1,.537,1.257v2.432a2.973,2.973,0,0,0,.186,1.157V24Zm-1.5-.688a1.588,1.588,0,0,0,.806-.22,1.329,1.329,0,0,0,.552-.571V21.437H65.23q-1.66,0-1.66.972a.822.822,0,0,0,.283.664A1.089,1.089,0,0,0,64.581,23.312Zm8.149-1.895a3.141,3.141,0,0,1-.557,1.946,1.779,1.779,0,0,1-1.494.735,1.842,1.842,0,0,1-1.548-.708l-.044.61h-.83V16.5h.9v2.8a1.831,1.831,0,0,1,1.509-.679,1.789,1.789,0,0,1,1.511.728,3.236,3.236,0,0,1,.549,1.992Zm-.9-.1a2.441,2.441,0,0,0-.356-1.426,1.18,1.18,0,0,0-1.025-.5,1.326,1.326,0,0,0-1.284.83V22.5a1.363,1.363,0,0,0,1.294.83,1.173,1.173,0,0,0,1.011-.5A2.6,2.6,0,0,0,71.827,21.314Zm1.8,0a3.121,3.121,0,0,1,.305-1.4,2.277,2.277,0,0,1,.85-.957,2.313,2.313,0,0,1,1.243-.337,2.228,2.228,0,0,1,1.746.747,2.874,2.874,0,0,1,.667,1.987v.063a3.148,3.148,0,0,1-.3,1.384,2.243,2.243,0,0,1-.845.955,2.339,2.339,0,0,1-1.262.342,2.222,2.222,0,0,1-1.741-.747,2.86,2.86,0,0,1-.667-1.978Zm.908.107a2.26,2.26,0,0,0,.408,1.411,1.382,1.382,0,0,0,2.185-.007,2.472,2.472,0,0,0,.405-1.511,2.256,2.256,0,0,0-.413-1.409,1.312,1.312,0,0,0-1.1-.54,1.3,1.3,0,0,0-1.079.532A2.453,2.453,0,0,0,74.537,21.417Zm7.588-1.89a2.707,2.707,0,0,0-.444-.034,1.19,1.19,0,0,0-1.206.757V24h-.9V18.717h.879l.015.61a1.407,1.407,0,0,1,1.26-.708.923.923,0,0,1,.4.068ZM86.021,24a1.9,1.9,0,0,1-.127-.557,2.016,2.016,0,0,1-1.5.654,1.865,1.865,0,0,1-1.282-.442,1.43,1.43,0,0,1-.5-1.121,1.494,1.494,0,0,1,.627-1.282A2.958,2.958,0,0,1,85,20.8h.879v-.415a1.015,1.015,0,0,0-.283-.754,1.138,1.138,0,0,0-.835-.281,1.317,1.317,0,0,0-.811.244.719.719,0,0,0-.327.591h-.908A1.247,1.247,0,0,1,83,19.417a1.916,1.916,0,0,1,.762-.583,2.563,2.563,0,0,1,1.057-.215,2.089,2.089,0,0,1,1.431.457,1.647,1.647,0,0,1,.537,1.257v2.432a2.973,2.973,0,0,0,.186,1.157V24Zm-1.5-.688a1.588,1.588,0,0,0,.806-.22,1.329,1.329,0,0,0,.552-.571V21.437h-.708q-1.66,0-1.66.972a.822.822,0,0,0,.283.664A1.089,1.089,0,0,0,84.522,23.312ZM89.181,24h-.9V16.5h.9Z" transform="translate(-4468.156 7957.815)" fill="#12263f"/>
    <path id="Trazado_148309" data-name="Trazado 148309" d="M48.153,8.14H45.174L44.505,10h-.967l2.715-7.109h.82L49.793,10h-.962Zm-2.7-.767h2.417L46.664,4.048Zm6.006-2.656.029.664a1.925,1.925,0,0,1,1.582-.762q1.675,0,1.689,1.89V10h-.9V6.5a1.216,1.216,0,0,0-.261-.845,1.047,1.047,0,0,0-.8-.273,1.3,1.3,0,0,0-.771.234,1.592,1.592,0,0,0-.518.615V10h-.9V4.717ZM59.388,10a1.9,1.9,0,0,1-.127-.557,2.015,2.015,0,0,1-1.5.654,1.865,1.865,0,0,1-1.282-.442,1.43,1.43,0,0,1-.5-1.121A1.494,1.494,0,0,1,56.6,7.253,2.958,2.958,0,0,1,58.368,6.8h.879V6.382a1.015,1.015,0,0,0-.283-.754,1.138,1.138,0,0,0-.835-.281,1.317,1.317,0,0,0-.811.244.719.719,0,0,0-.327.591h-.908a1.247,1.247,0,0,1,.281-.764,1.916,1.916,0,0,1,.762-.583,2.563,2.563,0,0,1,1.057-.215,2.089,2.089,0,0,1,1.431.457,1.647,1.647,0,0,1,.537,1.257V8.765a2.973,2.973,0,0,0,.186,1.157V10Zm-1.5-.688a1.588,1.588,0,0,0,.806-.22,1.329,1.329,0,0,0,.552-.571V7.437h-.708q-1.66,0-1.66.972a.822.822,0,0,0,.283.664A1.089,1.089,0,0,0,57.889,9.312ZM62.547,10h-.9V2.5h.9Zm2.427,0h-.9V4.717h.9ZM64,3.315a.539.539,0,0,1,.134-.371.5.5,0,0,1,.4-.151.512.512,0,0,1,.4.151.534.534,0,0,1,.137.371.516.516,0,0,1-.137.366.521.521,0,0,1-.4.146.513.513,0,0,1-.4-.146A.521.521,0,0,1,64,3.315ZM69.5,8.6a.665.665,0,0,0-.276-.569,2.655,2.655,0,0,0-.962-.349,4.548,4.548,0,0,1-1.089-.352,1.549,1.549,0,0,1-.6-.488,1.168,1.168,0,0,1-.193-.674,1.37,1.37,0,0,1,.549-1.1,2.145,2.145,0,0,1,1.4-.449,2.208,2.208,0,0,1,1.458.464A1.473,1.473,0,0,1,70.35,6.27h-.908a.815.815,0,0,0-.315-.64,1.18,1.18,0,0,0-.793-.269,1.235,1.235,0,0,0-.771.215.676.676,0,0,0-.278.562.548.548,0,0,0,.259.493,3.184,3.184,0,0,0,.935.317,4.872,4.872,0,0,1,1.1.361,1.6,1.6,0,0,1,.623.505,1.243,1.243,0,0,1,.2.72,1.352,1.352,0,0,1-.566,1.135,2.376,2.376,0,0,1-1.47.427,2.66,2.66,0,0,1-1.123-.225,1.827,1.827,0,0,1-.764-.627,1.512,1.512,0,0,1-.276-.872h.9a.935.935,0,0,0,.364.72,1.411,1.411,0,0,0,.9.266,1.457,1.457,0,0,0,.823-.208A.638.638,0,0,0,69.5,8.6ZM72.8,3.438V4.717h.986v.7H72.8V8.7a.733.733,0,0,0,.132.477.555.555,0,0,0,.449.159,2.187,2.187,0,0,0,.43-.059V10a2.634,2.634,0,0,1-.693.1,1.125,1.125,0,0,1-.913-.366,1.573,1.573,0,0,1-.308-1.04V5.415h-.962v-.7H71.9V3.438ZM78.1,10a1.9,1.9,0,0,1-.127-.557,2.016,2.016,0,0,1-1.5.654,1.865,1.865,0,0,1-1.282-.442,1.43,1.43,0,0,1-.5-1.121,1.494,1.494,0,0,1,.627-1.282A2.958,2.958,0,0,1,77.083,6.8h.879V6.382a1.015,1.015,0,0,0-.283-.754,1.138,1.138,0,0,0-.835-.281,1.317,1.317,0,0,0-.811.244.719.719,0,0,0-.327.591H74.8a1.247,1.247,0,0,1,.281-.764,1.916,1.916,0,0,1,.762-.583A2.563,2.563,0,0,1,76.9,4.619a2.089,2.089,0,0,1,1.431.457,1.647,1.647,0,0,1,.537,1.257V8.765a2.973,2.973,0,0,0,.186,1.157V10Zm-1.5-.688a1.588,1.588,0,0,0,.806-.22,1.329,1.329,0,0,0,.552-.571V7.437h-.708q-1.66,0-1.66.972a.822.822,0,0,0,.283.664A1.089,1.089,0,0,0,76.6,9.312ZM40.03,21.744a2.616,2.616,0,0,1-.833,1.741,2.728,2.728,0,0,1-1.863.613,2.505,2.505,0,0,1-2.019-.9,3.634,3.634,0,0,1-.759-2.417v-.684a4.051,4.051,0,0,1,.354-1.743,2.644,2.644,0,0,1,1-1.155,2.794,2.794,0,0,1,1.5-.4,2.569,2.569,0,0,1,1.816.632,2.647,2.647,0,0,1,.8,1.75h-.942a2.043,2.043,0,0,0-.53-1.234,1.6,1.6,0,0,0-1.14-.382,1.677,1.677,0,0,0-1.409.665,3.051,3.051,0,0,0-.51,1.891V20.8a3.136,3.136,0,0,0,.483,1.842,1.562,1.562,0,0,0,1.353.684,1.8,1.8,0,0,0,1.2-.354,1.964,1.964,0,0,0,.554-1.233Zm.9-.435a3.121,3.121,0,0,1,.305-1.4,2.277,2.277,0,0,1,.85-.957,2.313,2.313,0,0,1,1.243-.337,2.228,2.228,0,0,1,1.746.747,2.874,2.874,0,0,1,.667,1.987v.063a3.148,3.148,0,0,1-.3,1.384,2.243,2.243,0,0,1-.845.955,2.339,2.339,0,0,1-1.262.342,2.222,2.222,0,0,1-1.741-.747,2.86,2.86,0,0,1-.667-1.978Zm.908.107a2.26,2.26,0,0,0,.408,1.411,1.382,1.382,0,0,0,2.185-.007,2.472,2.472,0,0,0,.405-1.511,2.256,2.256,0,0,0-.413-1.409,1.312,1.312,0,0,0-1.1-.54,1.3,1.3,0,0,0-1.079.532A2.453,2.453,0,0,0,41.837,21.417Zm4.795-.107a3.121,3.121,0,0,1,.305-1.4,2.277,2.277,0,0,1,.85-.957,2.313,2.313,0,0,1,1.243-.337,2.228,2.228,0,0,1,1.746.747,2.874,2.874,0,0,1,.667,1.987v.063a3.148,3.148,0,0,1-.3,1.384,2.243,2.243,0,0,1-.845.955,2.339,2.339,0,0,1-1.262.342,2.222,2.222,0,0,1-1.741-.747,2.86,2.86,0,0,1-.667-1.978Zm.908.107a2.26,2.26,0,0,0,.408,1.411,1.382,1.382,0,0,0,2.185-.007,2.472,2.472,0,0,0,.405-1.511,2.256,2.256,0,0,0-.413-1.409,1.312,1.312,0,0,0-1.1-.54,1.3,1.3,0,0,0-1.079.532A2.453,2.453,0,0,0,47.54,21.417Zm7.588-1.89a2.707,2.707,0,0,0-.444-.034,1.19,1.19,0,0,0-1.206.757V24h-.9V18.717h.879l.015.61a1.407,1.407,0,0,1,1.26-.708.923.923,0,0,1,.4.068Zm.61,1.787a3.1,3.1,0,0,1,.576-1.956,1.96,1.96,0,0,1,2.979-.1V16.5h.9V24h-.83l-.044-.566a1.84,1.84,0,0,1-1.509.664,1.8,1.8,0,0,1-1.5-.752,3.13,3.13,0,0,1-.579-1.963Zm.9.1a2.343,2.343,0,0,0,.371,1.406,1.2,1.2,0,0,0,1.025.508,1.318,1.318,0,0,0,1.255-.771V20.133a1.328,1.328,0,0,0-1.245-.747,1.205,1.205,0,0,0-1.035.513A2.58,2.58,0,0,0,56.642,21.417ZM62.579,24h-.9V18.717h.9ZM61.6,17.315a.539.539,0,0,1,.134-.371.5.5,0,0,1,.4-.151.512.512,0,0,1,.4.151.534.534,0,0,1,.137.371.516.516,0,0,1-.137.366.521.521,0,0,1-.4.146.513.513,0,0,1-.4-.146A.521.521,0,0,1,61.6,17.315Zm3.276,1.4.029.664a1.925,1.925,0,0,1,1.582-.762q1.675,0,1.689,1.89V24h-.9V20.5a1.216,1.216,0,0,0-.261-.845,1.047,1.047,0,0,0-.8-.273,1.3,1.3,0,0,0-.771.234,1.592,1.592,0,0,0-.518.615V24h-.9V18.717ZM72.8,24a1.9,1.9,0,0,1-.127-.557,2.016,2.016,0,0,1-1.5.654,1.865,1.865,0,0,1-1.282-.442,1.43,1.43,0,0,1-.5-1.121,1.494,1.494,0,0,1,.627-1.282,2.958,2.958,0,0,1,1.765-.457h.879v-.415a1.015,1.015,0,0,0-.283-.754,1.138,1.138,0,0,0-.835-.281,1.317,1.317,0,0,0-.811.244.719.719,0,0,0-.327.591H69.5a1.247,1.247,0,0,1,.281-.764,1.916,1.916,0,0,1,.762-.583,2.563,2.563,0,0,1,1.057-.215,2.089,2.089,0,0,1,1.431.457,1.647,1.647,0,0,1,.537,1.257v2.432a2.973,2.973,0,0,0,.186,1.157V24Zm-1.5-.688a1.588,1.588,0,0,0,.806-.22,1.329,1.329,0,0,0,.552-.571V21.437h-.708q-1.66,0-1.66.972a.822.822,0,0,0,.283.664A1.089,1.089,0,0,0,71.3,23.312Zm3.457-2a3.1,3.1,0,0,1,.576-1.956,1.96,1.96,0,0,1,2.979-.1V16.5h.9V24h-.83l-.044-.566a1.84,1.84,0,0,1-1.509.664,1.8,1.8,0,0,1-1.5-.752,3.13,3.13,0,0,1-.579-1.963Zm.9.1a2.343,2.343,0,0,0,.371,1.406,1.2,1.2,0,0,0,1.025.508,1.318,1.318,0,0,0,1.255-.771V20.133a1.328,1.328,0,0,0-1.245-.747,1.205,1.205,0,0,0-1.035.513A2.58,2.58,0,0,0,75.665,21.417Zm4.717-.107a3.121,3.121,0,0,1,.305-1.4,2.277,2.277,0,0,1,.85-.957,2.313,2.313,0,0,1,1.243-.337,2.228,2.228,0,0,1,1.746.747,2.874,2.874,0,0,1,.667,1.987v.063a3.148,3.148,0,0,1-.3,1.384,2.243,2.243,0,0,1-.845.955,2.339,2.339,0,0,1-1.262.342,2.222,2.222,0,0,1-1.741-.747,2.86,2.86,0,0,1-.667-1.978Zm.908.107a2.26,2.26,0,0,0,.408,1.411,1.382,1.382,0,0,0,2.185-.007,2.472,2.472,0,0,0,.405-1.511,2.256,2.256,0,0,0-.413-1.409,1.312,1.312,0,0,0-1.1-.54,1.3,1.3,0,0,0-1.079.532A2.453,2.453,0,0,0,81.29,21.417Zm7.588-1.89a2.707,2.707,0,0,0-.444-.034,1.19,1.19,0,0,0-1.206.757V24h-.9V18.717H87.2l.015.61a1.407,1.407,0,0,1,1.26-.708.923.923,0,0,1,.4.068Z" transform="translate(-4468.156 8162.815)" fill="#12263f"/>
    <path id="Trazado_148310" data-name="Trazado 148310" d="M12.75,6.831A4.408,4.408,0,0,1,11,5.979a1.628,1.628,0,0,1-.549-1.248,1.72,1.72,0,0,1,.671-1.389,2.668,2.668,0,0,1,1.746-.549,2.913,2.913,0,0,1,1.306.283,2.148,2.148,0,0,1,.889.781,2,2,0,0,1,.315,1.089H14.43a1.3,1.3,0,0,0-.41-1.017,1.668,1.668,0,0,0-1.157-.37,1.708,1.708,0,0,0-1.082.306,1.02,1.02,0,0,0-.388.849.918.918,0,0,0,.369.736A3.616,3.616,0,0,0,13.017,6a5.823,5.823,0,0,1,1.387.55,2.1,2.1,0,0,1,.742.7,1.788,1.788,0,0,1,.242.942,1.661,1.661,0,0,1-.674,1.384,2.873,2.873,0,0,1-1.8.52,3.342,3.342,0,0,1-1.367-.281,2.3,2.3,0,0,1-.979-.769,1.877,1.877,0,0,1-.344-1.108h.942a1.224,1.224,0,0,0,.476,1.018,2,2,0,0,0,1.272.374,1.843,1.843,0,0,0,1.138-.3.983.983,0,0,0,.4-.825.965.965,0,0,0-.366-.808A4.222,4.222,0,0,0,12.75,6.831Zm6.958,2.646a1.919,1.919,0,0,1-1.548.62,1.642,1.642,0,0,1-1.287-.491,2.124,2.124,0,0,1-.447-1.453V4.717h.9V8.13q0,1.2.977,1.2a1.352,1.352,0,0,0,1.377-.771V4.717h.9V10h-.859Zm6.714-2.061a3.163,3.163,0,0,1-.552,1.943,1.768,1.768,0,0,1-1.494.737,1.938,1.938,0,0,1-1.514-.61v2.544h-.9V4.717h.825l.044.586a1.861,1.861,0,0,1,1.533-.684,1.8,1.8,0,0,1,1.506.718,3.2,3.2,0,0,1,.554,2Zm-.9-.1A2.334,2.334,0,0,0,25.138,5.9a1.227,1.227,0,0,0-1.045-.518,1.328,1.328,0,0,0-1.23.728V8.638a1.33,1.33,0,0,0,1.24.723,1.221,1.221,0,0,0,1.033-.515A2.548,2.548,0,0,0,25.519,7.314ZM29.762,10.1a2.308,2.308,0,0,1-1.748-.706A2.619,2.619,0,0,1,27.34,7.5V7.339a3.17,3.17,0,0,1,.3-1.4,2.343,2.343,0,0,1,.84-.967,2.112,2.112,0,0,1,1.169-.349,1.979,1.979,0,0,1,1.6.679,2.939,2.939,0,0,1,.571,1.943v.376H28.244A1.878,1.878,0,0,0,28.7,8.879a1.435,1.435,0,0,0,1.111.481,1.573,1.573,0,0,0,.811-.2,2.037,2.037,0,0,0,.581-.518l.552.43A2.219,2.219,0,0,1,29.762,10.1ZM29.65,5.361a1.2,1.2,0,0,0-.918.4,1.934,1.934,0,0,0-.459,1.116h2.646V6.807a1.721,1.721,0,0,0-.371-1.067A1.134,1.134,0,0,0,29.65,5.361Zm5.771.166a2.707,2.707,0,0,0-.444-.034,1.19,1.19,0,0,0-1.206.757V10h-.9V4.717h.879l.015.61a1.407,1.407,0,0,1,1.26-.708.923.923,0,0,1,.4.068Zm2.661,3.247,1.309-4.058h.923L38.419,10h-.688L35.817,4.717h.923ZM42.165,10h-.9V4.717h.9Zm-.977-6.685a.539.539,0,0,1,.134-.371.5.5,0,0,1,.4-.151.512.512,0,0,1,.4.151.534.534,0,0,1,.137.371.516.516,0,0,1-.137.366.521.521,0,0,1-.4.146.513.513,0,0,1-.4-.146A.521.521,0,0,1,41.188,3.315Zm5.5,5.283a.665.665,0,0,0-.276-.569,2.655,2.655,0,0,0-.962-.349,4.548,4.548,0,0,1-1.089-.352,1.549,1.549,0,0,1-.6-.488,1.168,1.168,0,0,1-.193-.674,1.37,1.37,0,0,1,.549-1.1,2.145,2.145,0,0,1,1.4-.449,2.208,2.208,0,0,1,1.458.464,1.473,1.473,0,0,1,.559,1.187h-.908a.815.815,0,0,0-.315-.64,1.18,1.18,0,0,0-.793-.269,1.235,1.235,0,0,0-.771.215.676.676,0,0,0-.278.562.548.548,0,0,0,.259.493,3.184,3.184,0,0,0,.935.317,4.872,4.872,0,0,1,1.1.361,1.6,1.6,0,0,1,.623.505,1.243,1.243,0,0,1,.2.72,1.352,1.352,0,0,1-.566,1.135,2.376,2.376,0,0,1-1.47.427,2.66,2.66,0,0,1-1.123-.225,1.827,1.827,0,0,1-.764-.627,1.512,1.512,0,0,1-.276-.872h.9a.935.935,0,0,0,.364.72,1.411,1.411,0,0,0,.9.266,1.457,1.457,0,0,0,.823-.208A.638.638,0,0,0,46.686,8.6ZM48.527,7.31a3.121,3.121,0,0,1,.305-1.4,2.277,2.277,0,0,1,.85-.957,2.313,2.313,0,0,1,1.243-.337,2.228,2.228,0,0,1,1.746.747,2.874,2.874,0,0,1,.667,1.987v.063a3.148,3.148,0,0,1-.3,1.384,2.243,2.243,0,0,1-.845.955,2.339,2.339,0,0,1-1.262.342,2.222,2.222,0,0,1-1.741-.747,2.86,2.86,0,0,1-.667-1.978Zm.908.107a2.26,2.26,0,0,0,.408,1.411,1.382,1.382,0,0,0,2.185-.007,2.472,2.472,0,0,0,.405-1.511A2.256,2.256,0,0,0,52.021,5.9a1.312,1.312,0,0,0-1.1-.54,1.3,1.3,0,0,0-1.079.532A2.453,2.453,0,0,0,49.435,7.417Zm7.588-1.89a2.707,2.707,0,0,0-.444-.034,1.19,1.19,0,0,0-1.206.757V10h-.9V4.717h.879l.015.61a1.407,1.407,0,0,1,1.26-.708.923.923,0,0,1,.4.068ZM14.645,21.314a3.1,3.1,0,0,1,.576-1.956,1.96,1.96,0,0,1,2.979-.1V16.5h.9V24h-.83l-.044-.566a1.84,1.84,0,0,1-1.509.664,1.8,1.8,0,0,1-1.5-.752,3.13,3.13,0,0,1-.579-1.963Zm.9.1a2.343,2.343,0,0,0,.371,1.406,1.2,1.2,0,0,0,1.025.508A1.318,1.318,0,0,0,18.2,22.56V20.133a1.328,1.328,0,0,0-1.245-.747,1.205,1.205,0,0,0-1.035.513A2.58,2.58,0,0,0,15.548,21.417ZM22.7,24.1a2.308,2.308,0,0,1-1.748-.706,2.619,2.619,0,0,1-.674-1.887v-.166a3.17,3.17,0,0,1,.3-1.4,2.343,2.343,0,0,1,.84-.967,2.112,2.112,0,0,1,1.169-.349,1.979,1.979,0,0,1,1.6.679,2.939,2.939,0,0,1,.571,1.943v.376H21.178a1.878,1.878,0,0,0,.457,1.262,1.435,1.435,0,0,0,1.111.481,1.573,1.573,0,0,0,.811-.2,2.037,2.037,0,0,0,.581-.518l.552.43A2.219,2.219,0,0,1,22.7,24.1Zm-.112-4.736a1.2,1.2,0,0,0-.918.4,1.934,1.934,0,0,0-.459,1.116h2.646v-.068a1.721,1.721,0,0,0-.371-1.067A1.134,1.134,0,0,0,22.584,19.361Zm10.156,2.056a3.163,3.163,0,0,1-.552,1.943,1.768,1.768,0,0,1-1.494.737,1.938,1.938,0,0,1-1.514-.61v2.544h-.9V18.717H29.1l.044.586a1.861,1.861,0,0,1,1.533-.684,1.8,1.8,0,0,1,1.506.718,3.2,3.2,0,0,1,.554,2Zm-.9-.1a2.334,2.334,0,0,0-.381-1.411,1.227,1.227,0,0,0-1.045-.518,1.328,1.328,0,0,0-1.23.728v2.524a1.33,1.33,0,0,0,1.24.723,1.221,1.221,0,0,0,1.033-.515A2.548,2.548,0,0,0,31.837,21.314ZM34.87,24h-.9V16.5h.9Zm4.707,0a1.9,1.9,0,0,1-.127-.557,2.015,2.015,0,0,1-1.5.654,1.865,1.865,0,0,1-1.282-.442,1.43,1.43,0,0,1-.5-1.121,1.494,1.494,0,0,1,.627-1.282,2.958,2.958,0,0,1,1.765-.457h.879v-.415a1.015,1.015,0,0,0-.283-.754,1.138,1.138,0,0,0-.835-.281,1.317,1.317,0,0,0-.811.244.719.719,0,0,0-.327.591h-.908a1.247,1.247,0,0,1,.281-.764,1.916,1.916,0,0,1,.762-.583,2.563,2.563,0,0,1,1.057-.215,2.089,2.089,0,0,1,1.431.457,1.647,1.647,0,0,1,.537,1.257v2.432a2.973,2.973,0,0,0,.186,1.157V24Zm-1.5-.688a1.588,1.588,0,0,0,.806-.22,1.329,1.329,0,0,0,.552-.571V21.437h-.708q-1.66,0-1.66.972a.822.822,0,0,0,.283.664A1.089,1.089,0,0,0,38.078,23.312Zm4.531-4.595.029.664a1.925,1.925,0,0,1,1.582-.762q1.675,0,1.689,1.89V24h-.9V20.5a1.216,1.216,0,0,0-.261-.845,1.047,1.047,0,0,0-.8-.273,1.3,1.3,0,0,0-.771.234,1.592,1.592,0,0,0-.518.615V24h-.9V18.717ZM48.5,17.438v1.279h.986v.7H48.5V22.7a.733.733,0,0,0,.132.477.555.555,0,0,0,.449.159,2.187,2.187,0,0,0,.43-.059V24a2.634,2.634,0,0,1-.693.1,1.125,1.125,0,0,1-.913-.366,1.573,1.573,0,0,1-.308-1.04V19.415h-.962v-.7h.962V17.438ZM53.8,24a1.9,1.9,0,0,1-.127-.557,2.015,2.015,0,0,1-1.5.654,1.865,1.865,0,0,1-1.282-.442,1.43,1.43,0,0,1-.5-1.121,1.494,1.494,0,0,1,.627-1.282A2.958,2.958,0,0,1,52.78,20.8h.879v-.415a1.015,1.015,0,0,0-.283-.754,1.138,1.138,0,0,0-.835-.281,1.317,1.317,0,0,0-.811.244.719.719,0,0,0-.327.591h-.908a1.247,1.247,0,0,1,.281-.764,1.916,1.916,0,0,1,.762-.583,2.563,2.563,0,0,1,1.057-.215,2.089,2.089,0,0,1,1.431.457,1.647,1.647,0,0,1,.537,1.257v2.432a2.973,2.973,0,0,0,.186,1.157V24Zm-1.5-.688a1.588,1.588,0,0,0,.806-.22,1.329,1.329,0,0,0,.552-.571V21.437h-.708q-1.66,0-1.66.972a.822.822,0,0,0,.283.664A1.089,1.089,0,0,0,52.3,23.312Z" transform="matrix(0.454, 0.891, -0.891, 0.454, -4308.625, 7992.66)" fill="#12263f"/>
    <path id="Trazado_148311" data-name="Trazado 148311" d="M15.063,8.14H12.084L11.415,10h-.967l2.715-7.109h.82L16.7,10h-.962Zm-2.7-.767h2.417L13.574,4.048ZM20.6,8.6a.665.665,0,0,0-.276-.569,2.655,2.655,0,0,0-.962-.349,4.548,4.548,0,0,1-1.089-.352,1.549,1.549,0,0,1-.6-.488,1.168,1.168,0,0,1-.193-.674,1.37,1.37,0,0,1,.549-1.1,2.145,2.145,0,0,1,1.4-.449,2.208,2.208,0,0,1,1.458.464A1.473,1.473,0,0,1,21.45,6.27h-.908a.815.815,0,0,0-.315-.64,1.18,1.18,0,0,0-.793-.269,1.235,1.235,0,0,0-.771.215.676.676,0,0,0-.278.562.548.548,0,0,0,.259.493,3.184,3.184,0,0,0,.935.317,4.872,4.872,0,0,1,1.1.361,1.6,1.6,0,0,1,.623.505,1.243,1.243,0,0,1,.2.72,1.352,1.352,0,0,1-.566,1.135,2.376,2.376,0,0,1-1.47.427,2.66,2.66,0,0,1-1.123-.225,1.827,1.827,0,0,1-.764-.627,1.512,1.512,0,0,1-.276-.872h.9a.935.935,0,0,0,.364.72,1.411,1.411,0,0,0,.9.266,1.457,1.457,0,0,0,.823-.208A.638.638,0,0,0,20.6,8.6ZM23.657,10h-.9V4.717h.9ZM22.68,3.315a.539.539,0,0,1,.134-.371.5.5,0,0,1,.4-.151.512.512,0,0,1,.4.151.534.534,0,0,1,.137.371.516.516,0,0,1-.137.366.521.521,0,0,1-.4.146.513.513,0,0,1-.4-.146A.521.521,0,0,1,22.68,3.315Zm5.5,5.283A.665.665,0,0,0,27.9,8.03a2.655,2.655,0,0,0-.962-.349,4.548,4.548,0,0,1-1.089-.352,1.549,1.549,0,0,1-.6-.488,1.168,1.168,0,0,1-.193-.674,1.37,1.37,0,0,1,.549-1.1,2.145,2.145,0,0,1,1.4-.449,2.208,2.208,0,0,1,1.458.464,1.473,1.473,0,0,1,.559,1.187h-.908a.815.815,0,0,0-.315-.64,1.18,1.18,0,0,0-.793-.269,1.235,1.235,0,0,0-.771.215.676.676,0,0,0-.278.562.548.548,0,0,0,.259.493,3.184,3.184,0,0,0,.935.317,4.872,4.872,0,0,1,1.1.361,1.6,1.6,0,0,1,.623.505,1.243,1.243,0,0,1,.2.72,1.352,1.352,0,0,1-.566,1.135,2.376,2.376,0,0,1-1.47.427,2.66,2.66,0,0,1-1.123-.225,1.827,1.827,0,0,1-.764-.627,1.512,1.512,0,0,1-.276-.872h.9a.935.935,0,0,0,.364.72,1.411,1.411,0,0,0,.9.266,1.457,1.457,0,0,0,.823-.208A.638.638,0,0,0,28.178,8.6Zm3.306-5.161V4.717h.986v.7h-.986V8.7a.733.733,0,0,0,.132.477.555.555,0,0,0,.449.159,2.187,2.187,0,0,0,.43-.059V10a2.634,2.634,0,0,1-.693.1,1.125,1.125,0,0,1-.913-.366,1.573,1.573,0,0,1-.308-1.04V5.415h-.962v-.7h.962V3.438Zm4.233,6.66a2.308,2.308,0,0,1-1.748-.706A2.619,2.619,0,0,1,33.3,7.5V7.339a3.17,3.17,0,0,1,.3-1.4,2.343,2.343,0,0,1,.84-.967A2.112,2.112,0,0,1,35.6,4.619a1.979,1.979,0,0,1,1.6.679,2.939,2.939,0,0,1,.571,1.943v.376H34.2a1.878,1.878,0,0,0,.457,1.262,1.435,1.435,0,0,0,1.111.481,1.573,1.573,0,0,0,.811-.2,2.037,2.037,0,0,0,.581-.518l.552.43A2.219,2.219,0,0,1,35.717,10.1ZM35.6,5.361a1.2,1.2,0,0,0-.918.4,1.934,1.934,0,0,0-.459,1.116h2.646V6.807A1.721,1.721,0,0,0,36.5,5.74,1.134,1.134,0,0,0,35.6,5.361Zm4.072-.645.029.664a1.925,1.925,0,0,1,1.582-.762q1.675,0,1.689,1.89V10h-.9V6.5a1.216,1.216,0,0,0-.261-.845,1.047,1.047,0,0,0-.8-.273,1.3,1.3,0,0,0-.771.234,1.592,1.592,0,0,0-.518.615V10h-.9V4.717Zm5.889-1.279V4.717h.986v.7h-.986V8.7a.733.733,0,0,0,.132.477.555.555,0,0,0,.449.159,2.187,2.187,0,0,0,.43-.059V10a2.634,2.634,0,0,1-.693.1,1.125,1.125,0,0,1-.913-.366,1.573,1.573,0,0,1-.308-1.04V5.415H43.7v-.7h.962V3.438ZM49.8,10.1a2.308,2.308,0,0,1-1.748-.706A2.619,2.619,0,0,1,47.377,7.5V7.339a3.17,3.17,0,0,1,.3-1.4,2.343,2.343,0,0,1,.84-.967,2.112,2.112,0,0,1,1.169-.349,1.979,1.979,0,0,1,1.6.679,2.939,2.939,0,0,1,.571,1.943v.376H48.281a1.878,1.878,0,0,0,.457,1.262,1.435,1.435,0,0,0,1.111.481,1.573,1.573,0,0,0,.811-.2,2.037,2.037,0,0,0,.581-.518l.552.43A2.219,2.219,0,0,1,49.8,10.1Zm-.112-4.736a1.2,1.2,0,0,0-.918.4,1.934,1.934,0,0,0-.459,1.116h2.646V6.807a1.721,1.721,0,0,0-.371-1.067A1.134,1.134,0,0,0,49.687,5.361ZM55.16,7.314a3.1,3.1,0,0,1,.576-1.956,1.96,1.96,0,0,1,2.979-.1V2.5h.9V10h-.83l-.044-.566a1.84,1.84,0,0,1-1.509.664,1.8,1.8,0,0,1-1.5-.752,3.13,3.13,0,0,1-.579-1.963Zm.9.1a2.343,2.343,0,0,0,.371,1.406,1.2,1.2,0,0,0,1.025.508,1.318,1.318,0,0,0,1.255-.771V6.133a1.328,1.328,0,0,0-1.245-.747,1.205,1.205,0,0,0-1.035.513A2.58,2.58,0,0,0,56.064,7.417ZM63.212,10.1a2.308,2.308,0,0,1-1.748-.706A2.619,2.619,0,0,1,60.79,7.5V7.339a3.17,3.17,0,0,1,.3-1.4,2.343,2.343,0,0,1,.84-.967A2.112,2.112,0,0,1,63.1,4.619a1.979,1.979,0,0,1,1.6.679,2.939,2.939,0,0,1,.571,1.943v.376H61.694a1.878,1.878,0,0,0,.457,1.262,1.435,1.435,0,0,0,1.111.481,1.573,1.573,0,0,0,.811-.2,2.037,2.037,0,0,0,.581-.518l.552.43A2.219,2.219,0,0,1,63.212,10.1ZM63.1,5.361a1.2,1.2,0,0,0-.918.4,1.934,1.934,0,0,0-.459,1.116h2.646V6.807A1.72,1.72,0,0,0,64,5.74,1.134,1.134,0,0,0,63.1,5.361ZM5.952,18.717l.024.586a1.951,1.951,0,0,1,1.567-.684,1.51,1.51,0,0,1,1.509.85,2,2,0,0,1,.686-.615,2.026,2.026,0,0,1,1-.234q1.738,0,1.768,1.841V24h-.9V20.514a1.213,1.213,0,0,0-.259-.847,1.14,1.14,0,0,0-.869-.281,1.2,1.2,0,0,0-.835.3,1.218,1.218,0,0,0-.386.808V24H8.344V20.538a1.008,1.008,0,0,0-1.128-1.152A1.209,1.209,0,0,0,6,20.143V24H5.1V18.717ZM17.128,24A1.9,1.9,0,0,1,17,23.443a2.016,2.016,0,0,1-1.5.654,1.865,1.865,0,0,1-1.282-.442,1.43,1.43,0,0,1-.5-1.121,1.494,1.494,0,0,1,.627-1.282,2.958,2.958,0,0,1,1.765-.457h.879v-.415a1.015,1.015,0,0,0-.283-.754,1.138,1.138,0,0,0-.835-.281,1.317,1.317,0,0,0-.811.244.719.719,0,0,0-.327.591h-.908a1.247,1.247,0,0,1,.281-.764,1.916,1.916,0,0,1,.762-.583,2.563,2.563,0,0,1,1.057-.215,2.089,2.089,0,0,1,1.431.457,1.647,1.647,0,0,1,.537,1.257v2.432a2.973,2.973,0,0,0,.186,1.157V24Zm-1.5-.688a1.588,1.588,0,0,0,.806-.22,1.329,1.329,0,0,0,.552-.571V21.437h-.708q-1.66,0-1.66.972a.822.822,0,0,0,.283.664A1.089,1.089,0,0,0,15.629,23.312Zm4.531-4.595.029.664a1.925,1.925,0,0,1,1.582-.762q1.675,0,1.689,1.89V24h-.9V20.5a1.216,1.216,0,0,0-.261-.845,1.047,1.047,0,0,0-.8-.273,1.3,1.3,0,0,0-.771.234,1.592,1.592,0,0,0-.518.615V24h-.9V18.717Zm5.889-1.279v1.279h.986v.7h-.986V22.7a.733.733,0,0,0,.132.477.555.555,0,0,0,.449.159,2.187,2.187,0,0,0,.43-.059V24a2.634,2.634,0,0,1-.693.1,1.125,1.125,0,0,1-.913-.366,1.573,1.573,0,0,1-.308-1.04V19.415h-.962v-.7h.962V17.438Zm4.233,6.66a2.308,2.308,0,0,1-1.748-.706,2.619,2.619,0,0,1-.674-1.887v-.166a3.17,3.17,0,0,1,.3-1.4,2.343,2.343,0,0,1,.84-.967,2.112,2.112,0,0,1,1.169-.349,1.979,1.979,0,0,1,1.6.679,2.939,2.939,0,0,1,.571,1.943v.376H28.764a1.878,1.878,0,0,0,.457,1.262,1.435,1.435,0,0,0,1.111.481,1.573,1.573,0,0,0,.811-.2,2.037,2.037,0,0,0,.581-.518l.552.43A2.219,2.219,0,0,1,30.283,24.1Zm-.112-4.736a1.2,1.2,0,0,0-.918.4,1.934,1.934,0,0,0-.459,1.116H31.44v-.068a1.721,1.721,0,0,0-.371-1.067A1.134,1.134,0,0,0,30.17,19.361Zm4.072-.645.029.664a1.925,1.925,0,0,1,1.582-.762q1.675,0,1.689,1.89V24h-.9V20.5a1.216,1.216,0,0,0-.261-.845,1.047,1.047,0,0,0-.8-.273,1.3,1.3,0,0,0-.771.234,1.592,1.592,0,0,0-.518.615V24h-.9V18.717ZM39.887,24h-.9V18.717h.9Zm-.977-6.685a.539.539,0,0,1,.134-.371.5.5,0,0,1,.4-.151.512.512,0,0,1,.4.151.534.534,0,0,1,.137.371.516.516,0,0,1-.137.366.521.521,0,0,1-.4.146.513.513,0,0,1-.4-.146A.521.521,0,0,1,38.91,17.315Zm3.271,1.4.024.586a1.951,1.951,0,0,1,1.567-.684,1.51,1.51,0,0,1,1.509.85,2,2,0,0,1,.686-.615,2.026,2.026,0,0,1,1-.234q1.738,0,1.768,1.841V24h-.9V20.514a1.213,1.213,0,0,0-.259-.847,1.14,1.14,0,0,0-.869-.281,1.2,1.2,0,0,0-.835.3,1.218,1.218,0,0,0-.386.808V24h-.908V20.538a1.008,1.008,0,0,0-1.128-1.152,1.209,1.209,0,0,0-1.216.757V24h-.9V18.717ZM51.078,24h-.9V18.717h.9ZM50.1,17.315a.539.539,0,0,1,.134-.371.5.5,0,0,1,.4-.151.512.512,0,0,1,.4.151.534.534,0,0,1,.137.371.516.516,0,0,1-.137.366.521.521,0,0,1-.4.146.513.513,0,0,1-.4-.146A.521.521,0,0,1,50.1,17.315ZM54.716,24.1a2.308,2.308,0,0,1-1.748-.706,2.619,2.619,0,0,1-.674-1.887v-.166a3.17,3.17,0,0,1,.3-1.4,2.343,2.343,0,0,1,.84-.967,2.112,2.112,0,0,1,1.169-.349,1.979,1.979,0,0,1,1.6.679,2.939,2.939,0,0,1,.571,1.943v.376H53.2a1.878,1.878,0,0,0,.457,1.262,1.435,1.435,0,0,0,1.111.481,1.573,1.573,0,0,0,.811-.2,2.037,2.037,0,0,0,.581-.518l.552.43A2.219,2.219,0,0,1,54.716,24.1ZM54.6,19.361a1.2,1.2,0,0,0-.918.4,1.934,1.934,0,0,0-.459,1.116h2.646v-.068A1.721,1.721,0,0,0,55.5,19.74,1.134,1.134,0,0,0,54.6,19.361Zm4.072-.645.029.664a1.925,1.925,0,0,1,1.582-.762q1.675,0,1.689,1.89V24h-.9V20.5a1.216,1.216,0,0,0-.261-.845,1.047,1.047,0,0,0-.8-.273,1.3,1.3,0,0,0-.771.234,1.592,1.592,0,0,0-.518.615V24h-.9V18.717Zm5.889-1.279v1.279h.986v.7h-.986V22.7a.733.733,0,0,0,.132.477.555.555,0,0,0,.449.159,2.187,2.187,0,0,0,.43-.059V24a2.634,2.634,0,0,1-.693.1,1.125,1.125,0,0,1-.913-.366,1.573,1.573,0,0,1-.308-1.04V19.415H62.7v-.7h.962V17.438Zm1.7,3.872a3.121,3.121,0,0,1,.305-1.4,2.277,2.277,0,0,1,.85-.957,2.313,2.313,0,0,1,1.243-.337,2.228,2.228,0,0,1,1.746.747,2.874,2.874,0,0,1,.667,1.987v.063a3.148,3.148,0,0,1-.3,1.384,2.243,2.243,0,0,1-.845.955,2.339,2.339,0,0,1-1.262.342,2.222,2.222,0,0,1-1.741-.747,2.86,2.86,0,0,1-.667-1.978Zm.908.107a2.26,2.26,0,0,0,.408,1.411,1.382,1.382,0,0,0,2.185-.007,2.472,2.472,0,0,0,.405-1.511,2.256,2.256,0,0,0-.413-1.409,1.312,1.312,0,0,0-1.1-.54,1.3,1.3,0,0,0-1.079.532A2.453,2.453,0,0,0,67.177,21.417Z" transform="matrix(-0.391, 0.921, -0.921, -0.391, -4281.656, 8077.309)" fill="#12263f"/>
    <path id="Trazado_148312" data-name="Trazado 148312" d="M6.625,9.067a2.166,2.166,0,0,1-1.008.774A4.073,4.073,0,0,1,4.11,10.1,2.921,2.921,0,0,1,2.567,9.69,2.716,2.716,0,0,1,1.524,8.53a4.005,4.005,0,0,1-.378-1.743v-.62a3.739,3.739,0,0,1,.75-2.49A2.612,2.612,0,0,1,4,2.793a2.7,2.7,0,0,1,1.792.569,2.478,2.478,0,0,1,.83,1.614H5.687A1.55,1.55,0,0,0,4.007,3.56a1.66,1.66,0,0,0-1.428.662A3.233,3.233,0,0,0,2.088,6.14v.582a3.03,3.03,0,0,0,.547,1.9,1.773,1.773,0,0,0,1.479.706,3.268,3.268,0,0,0,.923-.117,1.427,1.427,0,0,0,.654-.395V7.227H4.046V6.46H6.625Zm3.613,1.03A2.308,2.308,0,0,1,8.49,9.392,2.619,2.619,0,0,1,7.816,7.5V7.339a3.17,3.17,0,0,1,.3-1.4,2.343,2.343,0,0,1,.84-.967,2.112,2.112,0,0,1,1.169-.349,1.979,1.979,0,0,1,1.6.679A2.939,2.939,0,0,1,12.3,7.241v.376H8.719a1.878,1.878,0,0,0,.457,1.262,1.435,1.435,0,0,0,1.111.481,1.573,1.573,0,0,0,.811-.2,2.037,2.037,0,0,0,.581-.518l.552.43A2.219,2.219,0,0,1,10.238,10.1Zm-.112-4.736a1.2,1.2,0,0,0-.918.4,1.934,1.934,0,0,0-.459,1.116H11.4V6.807a1.721,1.721,0,0,0-.371-1.067A1.134,1.134,0,0,0,10.125,5.361Zm5.771.166a2.707,2.707,0,0,0-.444-.034,1.19,1.19,0,0,0-1.206.757V10h-.9V4.717h.879l.015.61a1.407,1.407,0,0,1,1.26-.708.923.923,0,0,1,.4.068Zm3.022,4.57a2.308,2.308,0,0,1-1.748-.706A2.619,2.619,0,0,1,16.5,7.5V7.339a3.17,3.17,0,0,1,.3-1.4,2.343,2.343,0,0,1,.84-.967,2.112,2.112,0,0,1,1.169-.349,1.979,1.979,0,0,1,1.6.679,2.939,2.939,0,0,1,.571,1.943v.376H17.4a1.878,1.878,0,0,0,.457,1.262,1.435,1.435,0,0,0,1.111.481,1.573,1.573,0,0,0,.811-.2,2.037,2.037,0,0,0,.581-.518l.552.43A2.219,2.219,0,0,1,18.919,10.1Zm-.112-4.736a1.2,1.2,0,0,0-.918.4,1.934,1.934,0,0,0-.459,1.116h2.646V6.807a1.721,1.721,0,0,0-.371-1.067A1.134,1.134,0,0,0,18.807,5.361Zm4.072-.645.029.664a1.925,1.925,0,0,1,1.582-.762q1.675,0,1.689,1.89V10h-.9V6.5a1.216,1.216,0,0,0-.261-.845,1.047,1.047,0,0,0-.8-.273,1.3,1.3,0,0,0-.771.234,1.592,1.592,0,0,0-.518.615V10h-.9V4.717Zm5.889-1.279V4.717h.986v.7h-.986V8.7a.733.733,0,0,0,.132.477.555.555,0,0,0,.449.159,2.187,2.187,0,0,0,.43-.059V10a2.634,2.634,0,0,1-.693.1,1.125,1.125,0,0,1-.913-.366,1.573,1.573,0,0,1-.308-1.04V5.415H26.9v-.7h.962V3.438ZM33,10.1a2.308,2.308,0,0,1-1.748-.706A2.619,2.619,0,0,1,30.58,7.5V7.339a3.17,3.17,0,0,1,.3-1.4,2.343,2.343,0,0,1,.84-.967,2.112,2.112,0,0,1,1.169-.349,1.979,1.979,0,0,1,1.6.679,2.939,2.939,0,0,1,.571,1.943v.376H31.483a1.878,1.878,0,0,0,.457,1.262,1.435,1.435,0,0,0,1.111.481,1.573,1.573,0,0,0,.811-.2,2.037,2.037,0,0,0,.581-.518l.552.43A2.219,2.219,0,0,1,33,10.1Zm-.112-4.736a1.2,1.2,0,0,0-.918.4,1.934,1.934,0,0,0-.459,1.116h2.646V6.807a1.721,1.721,0,0,0-.371-1.067A1.134,1.134,0,0,0,32.889,5.361Zm5.474,1.953a3.1,3.1,0,0,1,.576-1.956,1.96,1.96,0,0,1,2.979-.1V2.5h.9V10h-.83l-.044-.566a1.84,1.84,0,0,1-1.509.664,1.8,1.8,0,0,1-1.5-.752,3.13,3.13,0,0,1-.579-1.963Zm.9.1a2.343,2.343,0,0,0,.371,1.406,1.2,1.2,0,0,0,1.025.508,1.318,1.318,0,0,0,1.255-.771V6.133a1.328,1.328,0,0,0-1.245-.747,1.205,1.205,0,0,0-1.035.513A2.58,2.58,0,0,0,39.266,7.417ZM46.415,10.1a2.308,2.308,0,0,1-1.748-.706A2.619,2.619,0,0,1,43.993,7.5V7.339a3.17,3.17,0,0,1,.3-1.4,2.343,2.343,0,0,1,.84-.967A2.112,2.112,0,0,1,46.3,4.619a1.979,1.979,0,0,1,1.6.679,2.939,2.939,0,0,1,.571,1.943v.376H44.9a1.878,1.878,0,0,0,.457,1.262,1.435,1.435,0,0,0,1.111.481,1.573,1.573,0,0,0,.811-.2,2.037,2.037,0,0,0,.581-.518l.552.43A2.219,2.219,0,0,1,46.415,10.1ZM46.3,5.361a1.2,1.2,0,0,0-.918.4,1.934,1.934,0,0,0-.459,1.116h2.646V6.807A1.721,1.721,0,0,0,47.2,5.74,1.134,1.134,0,0,0,46.3,5.361Zm7.813,4a1.3,1.3,0,0,0,.845-.293,1.031,1.031,0,0,0,.4-.732h.854A1.638,1.638,0,0,1,55.9,9.2a2.058,2.058,0,0,1-.769.654,2.219,2.219,0,0,1-1.018.244,2.176,2.176,0,0,1-1.716-.72,2.869,2.869,0,0,1-.637-1.97V7.256a3.181,3.181,0,0,1,.283-1.372,2.157,2.157,0,0,1,.813-.933,2.309,2.309,0,0,1,1.252-.332,2.119,2.119,0,0,1,1.477.532,1.9,1.9,0,0,1,.627,1.382H55.36a1.245,1.245,0,0,0-.388-.842,1.208,1.208,0,0,0-.862-.33,1.264,1.264,0,0,0-1.067.5,2.328,2.328,0,0,0-.378,1.433v.171a2.281,2.281,0,0,0,.376,1.406A1.27,1.27,0,0,0,54.115,9.36ZM56.991,7.31a3.121,3.121,0,0,1,.305-1.4,2.277,2.277,0,0,1,.85-.957,2.313,2.313,0,0,1,1.243-.337,2.228,2.228,0,0,1,1.746.747A2.874,2.874,0,0,1,61.8,7.354v.063A3.148,3.148,0,0,1,61.5,8.8a2.243,2.243,0,0,1-.845.955A2.339,2.339,0,0,1,59.4,10.1a2.222,2.222,0,0,1-1.741-.747,2.86,2.86,0,0,1-.667-1.978Zm.908.107a2.26,2.26,0,0,0,.408,1.411,1.382,1.382,0,0,0,2.185-.007A2.472,2.472,0,0,0,60.9,7.31,2.256,2.256,0,0,0,60.484,5.9a1.312,1.312,0,0,0-1.1-.54,1.3,1.3,0,0,0-1.079.532A2.453,2.453,0,0,0,57.9,7.417Zm5.889-2.7.029.664A1.925,1.925,0,0,1,65.4,4.619q1.675,0,1.689,1.89V10h-.9V6.5a1.216,1.216,0,0,0-.261-.845,1.047,1.047,0,0,0-.8-.273,1.3,1.3,0,0,0-.771.234,1.592,1.592,0,0,0-.518.615V10h-.9V4.717Zm5.889-1.279V4.717h.986v.7h-.986V8.7a.733.733,0,0,0,.132.477.555.555,0,0,0,.449.159,2.187,2.187,0,0,0,.43-.059V10a2.634,2.634,0,0,1-.693.1,1.125,1.125,0,0,1-.913-.366,1.573,1.573,0,0,1-.308-1.04V5.415h-.962v-.7h.962V3.438Zm4.595,2.09a2.707,2.707,0,0,0-.444-.034,1.19,1.19,0,0,0-1.206.757V10h-.9V4.717H72.6l.015.61a1.407,1.407,0,0,1,1.26-.708.923.923,0,0,1,.4.068Zm.493,1.782a3.121,3.121,0,0,1,.305-1.4,2.277,2.277,0,0,1,.85-.957,2.313,2.313,0,0,1,1.243-.337,2.228,2.228,0,0,1,1.746.747,2.874,2.874,0,0,1,.667,1.987v.063a3.148,3.148,0,0,1-.3,1.384,2.243,2.243,0,0,1-.845.955,2.339,2.339,0,0,1-1.262.342,2.222,2.222,0,0,1-1.741-.747,2.86,2.86,0,0,1-.667-1.978Zm.908.107a2.26,2.26,0,0,0,.408,1.411,1.382,1.382,0,0,0,2.185-.007A2.472,2.472,0,0,0,78.67,7.31,2.256,2.256,0,0,0,78.258,5.9a1.312,1.312,0,0,0-1.1-.54,1.3,1.3,0,0,0-1.079.532A2.453,2.453,0,0,0,75.672,7.417ZM81.688,10h-.9V2.5h.9ZM19.134,21.314a3.1,3.1,0,0,1,.576-1.956,1.96,1.96,0,0,1,2.979-.1V16.5h.9V24h-.83l-.044-.566a1.84,1.84,0,0,1-1.509.664,1.8,1.8,0,0,1-1.5-.752,3.13,3.13,0,0,1-.579-1.963Zm.9.1a2.343,2.343,0,0,0,.371,1.406,1.2,1.2,0,0,0,1.025.508,1.318,1.318,0,0,0,1.255-.771V20.133a1.328,1.328,0,0,0-1.245-.747,1.205,1.205,0,0,0-1.035.513A2.58,2.58,0,0,0,20.038,21.417ZM27.186,24.1a2.308,2.308,0,0,1-1.748-.706,2.619,2.619,0,0,1-.674-1.887v-.166a3.17,3.17,0,0,1,.3-1.4,2.343,2.343,0,0,1,.84-.967,2.112,2.112,0,0,1,1.169-.349,1.979,1.979,0,0,1,1.6.679,2.939,2.939,0,0,1,.571,1.943v.376H25.667a1.878,1.878,0,0,0,.457,1.262,1.435,1.435,0,0,0,1.111.481,1.573,1.573,0,0,0,.811-.2,2.037,2.037,0,0,0,.581-.518l.552.43A2.219,2.219,0,0,1,27.186,24.1Zm-.112-4.736a1.2,1.2,0,0,0-.918.4,1.934,1.934,0,0,0-.459,1.116h2.646v-.068a1.721,1.721,0,0,0-.371-1.067A1.134,1.134,0,0,0,27.074,19.361Zm7.813,4a1.3,1.3,0,0,0,.845-.293,1.031,1.031,0,0,0,.4-.732h.854a1.638,1.638,0,0,1-.312.864,2.058,2.058,0,0,1-.769.654,2.219,2.219,0,0,1-1.018.244,2.176,2.176,0,0,1-1.716-.72,2.869,2.869,0,0,1-.637-1.97v-.151a3.181,3.181,0,0,1,.283-1.372,2.157,2.157,0,0,1,.813-.933,2.309,2.309,0,0,1,1.252-.332,2.119,2.119,0,0,1,1.477.532,1.9,1.9,0,0,1,.627,1.382h-.854a1.245,1.245,0,0,0-.388-.842,1.208,1.208,0,0,0-.862-.33,1.264,1.264,0,0,0-1.067.5,2.328,2.328,0,0,0-.378,1.433v.171a2.281,2.281,0,0,0,.376,1.406A1.27,1.27,0,0,0,34.886,23.36Zm6.377.64a1.9,1.9,0,0,1-.127-.557,2.015,2.015,0,0,1-1.5.654,1.865,1.865,0,0,1-1.282-.442,1.43,1.43,0,0,1-.5-1.121,1.494,1.494,0,0,1,.627-1.282,2.958,2.958,0,0,1,1.765-.457h.879v-.415a1.015,1.015,0,0,0-.283-.754A1.138,1.138,0,0,0,40,19.347a1.317,1.317,0,0,0-.811.244.719.719,0,0,0-.327.591h-.908a1.247,1.247,0,0,1,.281-.764A1.916,1.916,0,0,1,39,18.834a2.563,2.563,0,0,1,1.057-.215,2.089,2.089,0,0,1,1.431.457,1.647,1.647,0,0,1,.537,1.257v2.432a2.973,2.973,0,0,0,.186,1.157V24Zm-1.5-.688a1.588,1.588,0,0,0,.806-.22,1.329,1.329,0,0,0,.552-.571V21.437h-.708q-1.66,0-1.66.972a.822.822,0,0,0,.283.664A1.089,1.089,0,0,0,39.764,23.312ZM44.422,24h-.9V16.5h.9Zm2.427,0h-.9V18.717h.9Zm-.977-6.685a.539.539,0,0,1,.134-.371.5.5,0,0,1,.4-.151.512.512,0,0,1,.4.151.534.534,0,0,1,.137.371.516.516,0,0,1-.137.366.521.521,0,0,1-.4.146.513.513,0,0,1-.4-.146A.521.521,0,0,1,45.873,17.315Zm2.2,4a3.1,3.1,0,0,1,.576-1.956,1.96,1.96,0,0,1,2.979-.1V16.5h.9V24H51.7l-.044-.566a1.84,1.84,0,0,1-1.509.664,1.8,1.8,0,0,1-1.5-.752,3.13,3.13,0,0,1-.579-1.963Zm.9.1a2.343,2.343,0,0,0,.371,1.406,1.2,1.2,0,0,0,1.025.508,1.318,1.318,0,0,0,1.255-.771V20.133a1.328,1.328,0,0,0-1.245-.747,1.205,1.205,0,0,0-1.035.513A2.58,2.58,0,0,0,48.978,21.417ZM57.2,24a1.9,1.9,0,0,1-.127-.557,2.015,2.015,0,0,1-1.5.654,1.865,1.865,0,0,1-1.282-.442,1.43,1.43,0,0,1-.5-1.121,1.494,1.494,0,0,1,.627-1.282,2.958,2.958,0,0,1,1.765-.457h.879v-.415a1.015,1.015,0,0,0-.283-.754,1.138,1.138,0,0,0-.835-.281,1.317,1.317,0,0,0-.811.244.719.719,0,0,0-.327.591H53.89a1.247,1.247,0,0,1,.281-.764,1.916,1.916,0,0,1,.762-.583,2.563,2.563,0,0,1,1.057-.215,2.089,2.089,0,0,1,1.431.457,1.647,1.647,0,0,1,.537,1.257v2.432a2.973,2.973,0,0,0,.186,1.157V24Zm-1.5-.688a1.588,1.588,0,0,0,.806-.22,1.329,1.329,0,0,0,.552-.571V21.437h-.708q-1.66,0-1.66.972a.822.822,0,0,0,.283.664A1.089,1.089,0,0,0,55.7,23.312Zm3.457-2a3.1,3.1,0,0,1,.576-1.956,1.96,1.96,0,0,1,2.979-.1V16.5h.9V24h-.83l-.044-.566a1.84,1.84,0,0,1-1.509.664,1.8,1.8,0,0,1-1.5-.752,3.13,3.13,0,0,1-.579-1.963Zm.9.1a2.343,2.343,0,0,0,.371,1.406,1.2,1.2,0,0,0,1.025.508,1.318,1.318,0,0,0,1.255-.771V20.133a1.328,1.328,0,0,0-1.245-.747,1.205,1.205,0,0,0-1.035.513A2.58,2.58,0,0,0,60.057,21.417Z" transform="translate(-4448.156 8118.815)" fill="#12263f"/>
    <path id="Trazado_148313" data-name="Trazado 148313" d="M18.681,9.067a2.166,2.166,0,0,1-1.008.774,4.073,4.073,0,0,1-1.506.256,2.921,2.921,0,0,1-1.543-.408,2.716,2.716,0,0,1-1.042-1.16A4.005,4.005,0,0,1,13.2,6.787v-.62a3.739,3.739,0,0,1,.75-2.49,2.612,2.612,0,0,1,2.107-.884,2.7,2.7,0,0,1,1.792.569,2.478,2.478,0,0,1,.83,1.614h-.937a1.55,1.55,0,0,0-1.68-1.416,1.66,1.66,0,0,0-1.428.662,3.233,3.233,0,0,0-.491,1.918v.582a3.03,3.03,0,0,0,.547,1.9,1.773,1.773,0,0,0,1.479.706,3.268,3.268,0,0,0,.923-.117,1.427,1.427,0,0,0,.654-.395V7.227H16.1V6.46h2.578Zm3.613,1.03a2.308,2.308,0,0,1-1.748-.706A2.619,2.619,0,0,1,19.873,7.5V7.339a3.17,3.17,0,0,1,.3-1.4,2.343,2.343,0,0,1,.84-.967,2.112,2.112,0,0,1,1.169-.349,1.979,1.979,0,0,1,1.6.679,2.939,2.939,0,0,1,.571,1.943v.376H20.776a1.878,1.878,0,0,0,.457,1.262,1.435,1.435,0,0,0,1.111.481,1.573,1.573,0,0,0,.811-.2,2.037,2.037,0,0,0,.581-.518l.552.43A2.219,2.219,0,0,1,22.294,10.1Zm-.112-4.736a1.2,1.2,0,0,0-.918.4,1.934,1.934,0,0,0-.459,1.116h2.646V6.807a1.721,1.721,0,0,0-.371-1.067A1.134,1.134,0,0,0,22.182,5.361Zm5.771.166a2.707,2.707,0,0,0-.444-.034A1.19,1.19,0,0,0,26.3,6.25V10h-.9V4.717h.879l.015.61a1.407,1.407,0,0,1,1.26-.708.923.923,0,0,1,.4.068Zm3.022,4.57a2.308,2.308,0,0,1-1.748-.706A2.619,2.619,0,0,1,28.554,7.5V7.339a3.17,3.17,0,0,1,.3-1.4,2.343,2.343,0,0,1,.84-.967,2.112,2.112,0,0,1,1.169-.349,1.979,1.979,0,0,1,1.6.679,2.939,2.939,0,0,1,.571,1.943v.376H29.458a1.878,1.878,0,0,0,.457,1.262,1.435,1.435,0,0,0,1.111.481,1.573,1.573,0,0,0,.811-.2,2.037,2.037,0,0,0,.581-.518l.552.43A2.219,2.219,0,0,1,30.976,10.1Zm-.112-4.736a1.2,1.2,0,0,0-.918.4,1.934,1.934,0,0,0-.459,1.116h2.646V6.807a1.721,1.721,0,0,0-.371-1.067A1.134,1.134,0,0,0,30.864,5.361Zm4.072-.645.029.664a1.925,1.925,0,0,1,1.582-.762q1.675,0,1.689,1.89V10h-.9V6.5a1.216,1.216,0,0,0-.261-.845,1.047,1.047,0,0,0-.8-.273,1.3,1.3,0,0,0-.771.234,1.592,1.592,0,0,0-.518.615V10h-.9V4.717Zm5.889-1.279V4.717h.986v.7h-.986V8.7a.733.733,0,0,0,.132.477.555.555,0,0,0,.449.159,2.187,2.187,0,0,0,.43-.059V10a2.634,2.634,0,0,1-.693.1,1.125,1.125,0,0,1-.913-.366,1.573,1.573,0,0,1-.308-1.04V5.415h-.962v-.7h.962V3.438Zm4.233,6.66a2.308,2.308,0,0,1-1.748-.706A2.619,2.619,0,0,1,42.636,7.5V7.339a3.17,3.17,0,0,1,.3-1.4,2.343,2.343,0,0,1,.84-.967,2.112,2.112,0,0,1,1.169-.349,1.979,1.979,0,0,1,1.6.679,2.939,2.939,0,0,1,.571,1.943v.376H43.54A1.878,1.878,0,0,0,44,8.879a1.435,1.435,0,0,0,1.111.481,1.573,1.573,0,0,0,.811-.2,2.037,2.037,0,0,0,.581-.518l.552.43A2.219,2.219,0,0,1,45.058,10.1Zm-.112-4.736a1.2,1.2,0,0,0-.918.4,1.934,1.934,0,0,0-.459,1.116h2.646V6.807a1.721,1.721,0,0,0-.371-1.067A1.134,1.134,0,0,0,44.946,5.361Zm5.474,1.953A3.1,3.1,0,0,1,51,5.359a1.96,1.96,0,0,1,2.979-.1V2.5h.9V10h-.83L54,9.434a1.84,1.84,0,0,1-1.509.664A1.8,1.8,0,0,1,51,9.346a3.13,3.13,0,0,1-.579-1.963Zm.9.1a2.343,2.343,0,0,0,.371,1.406,1.2,1.2,0,0,0,1.025.508,1.318,1.318,0,0,0,1.255-.771V6.133a1.328,1.328,0,0,0-1.245-.747,1.205,1.205,0,0,0-1.035.513A2.58,2.58,0,0,0,51.323,7.417ZM58.471,10.1a2.308,2.308,0,0,1-1.748-.706A2.619,2.619,0,0,1,56.049,7.5V7.339a3.17,3.17,0,0,1,.3-1.4,2.343,2.343,0,0,1,.84-.967,2.112,2.112,0,0,1,1.169-.349,1.979,1.979,0,0,1,1.6.679,2.939,2.939,0,0,1,.571,1.943v.376H56.953a1.878,1.878,0,0,0,.457,1.262,1.435,1.435,0,0,0,1.111.481,1.573,1.573,0,0,0,.811-.2,2.037,2.037,0,0,0,.581-.518l.552.43A2.219,2.219,0,0,1,58.471,10.1Zm-.112-4.736a1.2,1.2,0,0,0-.918.4,1.934,1.934,0,0,0-.459,1.116h2.646V6.807a1.721,1.721,0,0,0-.371-1.067A1.134,1.134,0,0,0,58.359,5.361ZM28.046,21.417a3.163,3.163,0,0,1-.552,1.943A1.768,1.768,0,0,1,26,24.1a1.938,1.938,0,0,1-1.514-.61v2.544h-.9V18.717h.825l.044.586a1.861,1.861,0,0,1,1.533-.684,1.8,1.8,0,0,1,1.506.718,3.2,3.2,0,0,1,.554,2Zm-.9-.1a2.334,2.334,0,0,0-.381-1.411,1.227,1.227,0,0,0-1.045-.518,1.328,1.328,0,0,0-1.23.728v2.524a1.33,1.33,0,0,0,1.24.723,1.221,1.221,0,0,0,1.033-.515A2.548,2.548,0,0,0,27.143,21.314ZM30.175,24h-.9V16.5h.9Zm4.707,0a1.9,1.9,0,0,1-.127-.557,2.015,2.015,0,0,1-1.5.654,1.865,1.865,0,0,1-1.282-.442,1.43,1.43,0,0,1-.5-1.121,1.494,1.494,0,0,1,.627-1.282,2.958,2.958,0,0,1,1.765-.457h.879v-.415a1.015,1.015,0,0,0-.283-.754,1.138,1.138,0,0,0-.835-.281,1.317,1.317,0,0,0-.811.244.719.719,0,0,0-.327.591h-.908a1.247,1.247,0,0,1,.281-.764,1.916,1.916,0,0,1,.762-.583,2.563,2.563,0,0,1,1.057-.215,2.089,2.089,0,0,1,1.431.457,1.647,1.647,0,0,1,.537,1.257v2.432a2.973,2.973,0,0,0,.186,1.157V24Zm-1.5-.688a1.588,1.588,0,0,0,.806-.22,1.329,1.329,0,0,0,.552-.571V21.437h-.708q-1.66,0-1.66.972a.822.822,0,0,0,.283.664A1.089,1.089,0,0,0,33.383,23.312Zm4.531-4.595.029.664a1.925,1.925,0,0,1,1.582-.762q1.675,0,1.689,1.89V24h-.9V20.5a1.216,1.216,0,0,0-.261-.845,1.047,1.047,0,0,0-.8-.273,1.3,1.3,0,0,0-.771.234,1.592,1.592,0,0,0-.518.615V24h-.9V18.717ZM43.8,17.438v1.279h.986v.7H43.8V22.7a.733.733,0,0,0,.132.477.555.555,0,0,0,.449.159,2.187,2.187,0,0,0,.43-.059V24a2.634,2.634,0,0,1-.693.1,1.125,1.125,0,0,1-.913-.366,1.573,1.573,0,0,1-.308-1.04V19.415h-.962v-.7H42.9V17.438ZM49.106,24a1.9,1.9,0,0,1-.127-.557,2.015,2.015,0,0,1-1.5.654,1.865,1.865,0,0,1-1.282-.442,1.43,1.43,0,0,1-.5-1.121,1.494,1.494,0,0,1,.627-1.282,2.958,2.958,0,0,1,1.765-.457h.879v-.415a1.015,1.015,0,0,0-.283-.754,1.138,1.138,0,0,0-.835-.281,1.317,1.317,0,0,0-.811.244.719.719,0,0,0-.327.591H45.8a1.247,1.247,0,0,1,.281-.764,1.916,1.916,0,0,1,.762-.583,2.563,2.563,0,0,1,1.057-.215,2.089,2.089,0,0,1,1.431.457,1.647,1.647,0,0,1,.537,1.257v2.432a2.973,2.973,0,0,0,.186,1.157V24Zm-1.5-.688a1.588,1.588,0,0,0,.806-.22,1.329,1.329,0,0,0,.552-.571V21.437h-.708q-1.66,0-1.66.972a.822.822,0,0,0,.283.664A1.089,1.089,0,0,0,47.607,23.312Z" transform="translate(-4333.656 8031.815) rotate(90)" fill="#12263f"/>
    <path id="Trazado_148314" data-name="Trazado 148314" d="M18.864,9.067a2.166,2.166,0,0,1-1.008.774,4.073,4.073,0,0,1-1.506.256,2.921,2.921,0,0,1-1.543-.408,2.716,2.716,0,0,1-1.042-1.16,4.005,4.005,0,0,1-.378-1.743v-.62a3.739,3.739,0,0,1,.75-2.49,2.612,2.612,0,0,1,2.107-.884,2.7,2.7,0,0,1,1.792.569,2.478,2.478,0,0,1,.83,1.614h-.937a1.55,1.55,0,0,0-1.68-1.416,1.66,1.66,0,0,0-1.428.662,3.233,3.233,0,0,0-.491,1.918v.582a3.03,3.03,0,0,0,.547,1.9,1.773,1.773,0,0,0,1.479.706,3.268,3.268,0,0,0,.923-.117,1.427,1.427,0,0,0,.654-.395V7.227H16.286V6.46h2.578Zm3.613,1.03a2.308,2.308,0,0,1-1.748-.706A2.619,2.619,0,0,1,20.055,7.5V7.339a3.17,3.17,0,0,1,.3-1.4,2.343,2.343,0,0,1,.84-.967,2.112,2.112,0,0,1,1.169-.349,1.979,1.979,0,0,1,1.6.679,2.939,2.939,0,0,1,.571,1.943v.376H20.959a1.878,1.878,0,0,0,.457,1.262,1.435,1.435,0,0,0,1.111.481,1.573,1.573,0,0,0,.811-.2,2.037,2.037,0,0,0,.581-.518l.552.43A2.219,2.219,0,0,1,22.477,10.1Zm-.112-4.736a1.2,1.2,0,0,0-.918.4,1.934,1.934,0,0,0-.459,1.116h2.646V6.807a1.721,1.721,0,0,0-.371-1.067A1.134,1.134,0,0,0,22.365,5.361Zm5.771.166a2.707,2.707,0,0,0-.444-.034,1.19,1.19,0,0,0-1.206.757V10h-.9V4.717h.879l.015.61a1.407,1.407,0,0,1,1.26-.708.923.923,0,0,1,.4.068Zm3.022,4.57a2.308,2.308,0,0,1-1.748-.706A2.619,2.619,0,0,1,28.737,7.5V7.339a3.17,3.17,0,0,1,.3-1.4,2.343,2.343,0,0,1,.84-.967,2.112,2.112,0,0,1,1.169-.349,1.979,1.979,0,0,1,1.6.679,2.939,2.939,0,0,1,.571,1.943v.376H29.64A1.878,1.878,0,0,0,30.1,8.879a1.435,1.435,0,0,0,1.111.481,1.573,1.573,0,0,0,.811-.2,2.037,2.037,0,0,0,.581-.518l.552.43A2.219,2.219,0,0,1,31.159,10.1Zm-.112-4.736a1.2,1.2,0,0,0-.918.4,1.934,1.934,0,0,0-.459,1.116h2.646V6.807a1.721,1.721,0,0,0-.371-1.067A1.134,1.134,0,0,0,31.047,5.361Zm4.072-.645.029.664a1.925,1.925,0,0,1,1.582-.762q1.675,0,1.689,1.89V10h-.9V6.5a1.216,1.216,0,0,0-.261-.845,1.047,1.047,0,0,0-.8-.273,1.3,1.3,0,0,0-.771.234,1.592,1.592,0,0,0-.518.615V10h-.9V4.717Zm5.889-1.279V4.717h.986v.7h-.986V8.7a.733.733,0,0,0,.132.477.555.555,0,0,0,.449.159,2.187,2.187,0,0,0,.43-.059V10a2.634,2.634,0,0,1-.693.1,1.125,1.125,0,0,1-.913-.366,1.573,1.573,0,0,1-.308-1.04V5.415h-.962v-.7H40.1V3.438Zm4.233,6.66a2.308,2.308,0,0,1-1.748-.706A2.619,2.619,0,0,1,42.819,7.5V7.339a3.17,3.17,0,0,1,.3-1.4,2.343,2.343,0,0,1,.84-.967,2.112,2.112,0,0,1,1.169-.349,1.979,1.979,0,0,1,1.6.679A2.939,2.939,0,0,1,47.3,7.241v.376H43.722a1.878,1.878,0,0,0,.457,1.262,1.435,1.435,0,0,0,1.111.481,1.573,1.573,0,0,0,.811-.2,2.037,2.037,0,0,0,.581-.518l.552.43A2.219,2.219,0,0,1,45.241,10.1Zm-.112-4.736a1.2,1.2,0,0,0-.918.4,1.934,1.934,0,0,0-.459,1.116H46.4V6.807a1.721,1.721,0,0,0-.371-1.067A1.134,1.134,0,0,0,45.129,5.361ZM50.6,7.314a3.1,3.1,0,0,1,.576-1.956,1.96,1.96,0,0,1,2.979-.1V2.5h.9V10h-.83l-.044-.566a1.84,1.84,0,0,1-1.509.664,1.8,1.8,0,0,1-1.5-.752A3.13,3.13,0,0,1,50.6,7.383Zm.9.1a2.343,2.343,0,0,0,.371,1.406,1.2,1.2,0,0,0,1.025.508,1.318,1.318,0,0,0,1.255-.771V6.133a1.328,1.328,0,0,0-1.245-.747,1.205,1.205,0,0,0-1.035.513A2.58,2.58,0,0,0,51.506,7.417ZM58.654,10.1a2.308,2.308,0,0,1-1.748-.706A2.619,2.619,0,0,1,56.232,7.5V7.339a3.17,3.17,0,0,1,.3-1.4,2.343,2.343,0,0,1,.84-.967,2.112,2.112,0,0,1,1.169-.349,1.979,1.979,0,0,1,1.6.679,2.939,2.939,0,0,1,.571,1.943v.376H57.135a1.878,1.878,0,0,0,.457,1.262A1.435,1.435,0,0,0,58.7,9.36a1.573,1.573,0,0,0,.811-.2,2.037,2.037,0,0,0,.581-.518l.552.43A2.219,2.219,0,0,1,58.654,10.1Zm-.112-4.736a1.2,1.2,0,0,0-.918.4,1.934,1.934,0,0,0-.459,1.116h2.646V6.807A1.721,1.721,0,0,0,59.44,5.74,1.134,1.134,0,0,0,58.542,5.361ZM24.448,21.124h-1.67V24h-.942V16.891h2.354a2.786,2.786,0,0,1,1.848.547,1.968,1.968,0,0,1,.647,1.592,1.914,1.914,0,0,1-.359,1.157,2.142,2.142,0,0,1-1,.737L27,23.941V24H25.99Zm-1.67-.767h1.44A1.625,1.625,0,0,0,25.329,20a1.224,1.224,0,0,0,.413-.969,1.289,1.289,0,0,0-.393-1.013,1.664,1.664,0,0,0-1.135-.357H22.778Zm7.827.767h-1.67V24h-.942V16.891h2.354a2.786,2.786,0,0,1,1.848.547,1.968,1.968,0,0,1,.647,1.592,1.914,1.914,0,0,1-.359,1.157,2.142,2.142,0,0,1-1,.737l1.67,3.018V24H32.148Zm-1.67-.767h1.44A1.625,1.625,0,0,0,31.486,20a1.224,1.224,0,0,0,.413-.969,1.289,1.289,0,0,0-.393-1.013,1.664,1.664,0,0,0-1.135-.357H28.935Zm5.1,3.169a.566.566,0,0,1,.139-.391.53.53,0,0,1,.417-.156.546.546,0,0,1,.422.156.554.554,0,0,1,.144.391.524.524,0,0,1-.144.376.556.556,0,0,1-.422.151.5.5,0,0,1-.557-.527ZM42.25,24h-.942V20.714H37.724V24h-.937V16.891h.938v3.057h3.584V16.891h.942Zm7.129,0h-.942V20.714H44.853V24h-.937V16.891h.938v3.057h3.584V16.891h.942Zm1.543-.474a.566.566,0,0,1,.139-.391.53.53,0,0,1,.417-.156.546.546,0,0,1,.422.156.554.554,0,0,1,.144.391.524.524,0,0,1-.144.376.556.556,0,0,1-.422.151.5.5,0,0,1-.557-.527Z" transform="translate(-4484.656 8108.749) rotate(-90)" fill="#12263f"/>
    <path id="Trazado_148315" data-name="Trazado 148315" d="M16.879,8.14H13.9L13.232,10h-.967L14.98,2.891h.82L18.52,10h-.962Zm-2.7-.767H16.6L15.39,4.048ZM20.19,4.717l.029.664A1.925,1.925,0,0,1,21.8,4.619q1.675,0,1.689,1.89V10h-.9V6.5a1.216,1.216,0,0,0-.261-.845,1.047,1.047,0,0,0-.8-.273,1.3,1.3,0,0,0-.771.234,1.592,1.592,0,0,0-.518.615V10h-.9V4.717ZM28.115,10a1.9,1.9,0,0,1-.127-.557,2.015,2.015,0,0,1-1.5.654A1.865,1.865,0,0,1,25.2,9.656a1.43,1.43,0,0,1-.5-1.121,1.494,1.494,0,0,1,.627-1.282A2.958,2.958,0,0,1,27.094,6.8h.879V6.382a1.015,1.015,0,0,0-.283-.754,1.138,1.138,0,0,0-.835-.281,1.317,1.317,0,0,0-.811.244.719.719,0,0,0-.327.591h-.908a1.247,1.247,0,0,1,.281-.764,1.916,1.916,0,0,1,.762-.583,2.563,2.563,0,0,1,1.057-.215,2.089,2.089,0,0,1,1.431.457,1.647,1.647,0,0,1,.537,1.257V8.765a2.973,2.973,0,0,0,.186,1.157V10Zm-1.5-.688a1.588,1.588,0,0,0,.806-.22,1.329,1.329,0,0,0,.552-.571V7.437h-.708q-1.66,0-1.66.972a.822.822,0,0,0,.283.664A1.089,1.089,0,0,0,26.615,9.312ZM31.274,10h-.9V2.5h.9ZM33.7,10h-.9V4.717h.9Zm-.977-6.685a.539.539,0,0,1,.134-.371.5.5,0,0,1,.4-.151.512.512,0,0,1,.4.151.534.534,0,0,1,.137.371.516.516,0,0,1-.137.366.521.521,0,0,1-.4.146.513.513,0,0,1-.4-.146A.521.521,0,0,1,32.724,3.315Zm5.5,5.283a.665.665,0,0,0-.276-.569,2.655,2.655,0,0,0-.962-.349A4.548,4.548,0,0,1,35.9,7.329a1.549,1.549,0,0,1-.6-.488,1.168,1.168,0,0,1-.193-.674,1.37,1.37,0,0,1,.549-1.1,2.145,2.145,0,0,1,1.4-.449,2.208,2.208,0,0,1,1.458.464,1.473,1.473,0,0,1,.559,1.187h-.908a.815.815,0,0,0-.315-.64,1.18,1.18,0,0,0-.793-.269,1.235,1.235,0,0,0-.771.215.676.676,0,0,0-.278.562.548.548,0,0,0,.259.493,3.184,3.184,0,0,0,.935.317,4.872,4.872,0,0,1,1.1.361,1.6,1.6,0,0,1,.623.505,1.243,1.243,0,0,1,.2.72,1.352,1.352,0,0,1-.566,1.135,2.376,2.376,0,0,1-1.47.427,2.66,2.66,0,0,1-1.123-.225,1.827,1.827,0,0,1-.764-.627,1.512,1.512,0,0,1-.276-.872h.9a.935.935,0,0,0,.364.72,1.411,1.411,0,0,0,.9.266,1.457,1.457,0,0,0,.823-.208A.638.638,0,0,0,38.222,8.6Zm3.306-5.161V4.717h.986v.7h-.986V8.7a.733.733,0,0,0,.132.477.555.555,0,0,0,.449.159,2.187,2.187,0,0,0,.43-.059V10a2.634,2.634,0,0,1-.693.1,1.125,1.125,0,0,1-.913-.366,1.573,1.573,0,0,1-.308-1.04V5.415h-.962v-.7h.962V3.438ZM46.83,10a1.9,1.9,0,0,1-.127-.557,2.015,2.015,0,0,1-1.5.654,1.865,1.865,0,0,1-1.282-.442,1.43,1.43,0,0,1-.5-1.121,1.494,1.494,0,0,1,.627-1.282A2.958,2.958,0,0,1,45.81,6.8h.879V6.382a1.015,1.015,0,0,0-.283-.754,1.138,1.138,0,0,0-.835-.281,1.317,1.317,0,0,0-.811.244.719.719,0,0,0-.327.591h-.908a1.247,1.247,0,0,1,.281-.764,1.916,1.916,0,0,1,.762-.583,2.563,2.563,0,0,1,1.057-.215,2.089,2.089,0,0,1,1.431.457,1.647,1.647,0,0,1,.537,1.257V8.765a2.973,2.973,0,0,0,.186,1.157V10Zm-1.5-.688a1.588,1.588,0,0,0,.806-.22,1.329,1.329,0,0,0,.552-.571V7.437h-.708q-1.66,0-1.66.972a.822.822,0,0,0,.283.664A1.089,1.089,0,0,0,45.331,9.312Zm5.933-2a3.1,3.1,0,0,1,.576-1.956,1.96,1.96,0,0,1,2.979-.1V2.5h.9V10h-.83l-.044-.566a1.84,1.84,0,0,1-1.509.664,1.8,1.8,0,0,1-1.5-.752,3.13,3.13,0,0,1-.579-1.963Zm.9.1a2.343,2.343,0,0,0,.371,1.406,1.2,1.2,0,0,0,1.025.508,1.318,1.318,0,0,0,1.255-.771V6.133a1.328,1.328,0,0,0-1.245-.747,1.205,1.205,0,0,0-1.035.513A2.58,2.58,0,0,0,52.167,7.417ZM59.316,10.1a2.308,2.308,0,0,1-1.748-.706A2.619,2.619,0,0,1,56.894,7.5V7.339a3.17,3.17,0,0,1,.3-1.4,2.343,2.343,0,0,1,.84-.967A2.112,2.112,0,0,1,59.2,4.619a1.979,1.979,0,0,1,1.6.679,2.939,2.939,0,0,1,.571,1.943v.376H57.8a1.878,1.878,0,0,0,.457,1.262,1.435,1.435,0,0,0,1.111.481,1.573,1.573,0,0,0,.811-.2,2.037,2.037,0,0,0,.581-.518l.552.43A2.219,2.219,0,0,1,59.316,10.1ZM59.2,5.361a1.2,1.2,0,0,0-.918.4,1.934,1.934,0,0,0-.459,1.116h2.646V6.807A1.721,1.721,0,0,0,60.1,5.74,1.134,1.134,0,0,0,59.2,5.361ZM24.448,21.124h-1.67V24h-.942V16.891h2.354a2.786,2.786,0,0,1,1.848.547,1.968,1.968,0,0,1,.647,1.592,1.914,1.914,0,0,1-.359,1.157,2.142,2.142,0,0,1-1,.737L27,23.941V24H25.99Zm-1.67-.767h1.44A1.625,1.625,0,0,0,25.329,20a1.224,1.224,0,0,0,.413-.969,1.289,1.289,0,0,0-.393-1.013,1.664,1.664,0,0,0-1.135-.357H22.778Zm7.827.767h-1.67V24h-.942V16.891h2.354a2.786,2.786,0,0,1,1.848.547,1.968,1.968,0,0,1,.647,1.592,1.914,1.914,0,0,1-.359,1.157,2.142,2.142,0,0,1-1,.737l1.67,3.018V24H32.148Zm-1.67-.767h1.44A1.625,1.625,0,0,0,31.486,20a1.224,1.224,0,0,0,.413-.969,1.289,1.289,0,0,0-.393-1.013,1.664,1.664,0,0,0-1.135-.357H28.935Zm5.1,3.169a.566.566,0,0,1,.139-.391.53.53,0,0,1,.417-.156.546.546,0,0,1,.422.156.554.554,0,0,1,.144.391.524.524,0,0,1-.144.376.556.556,0,0,1-.422.151.5.5,0,0,1-.557-.527ZM42.25,24h-.942V20.714H37.724V24h-.937V16.891h.938v3.057h3.584V16.891h.942Zm7.129,0h-.942V20.714H44.853V24h-.937V16.891h.938v3.057h3.584V16.891h.942Zm1.543-.474a.566.566,0,0,1,.139-.391.53.53,0,0,1,.417-.156.546.546,0,0,1,.422.156.554.554,0,0,1,.144.391.524.524,0,0,1-.144.376.556.556,0,0,1-.422.151.5.5,0,0,1-.557-.527Z" transform="translate(-4525.656 8108.749) rotate(-90)" fill="#12263f"/>
  </g>
</svg>
