<svg xmlns="http://www.w3.org/2000/svg" width="1050.333" height="619.688" viewBox="0 0 1050.333 619.688">
  <g id="Grupo_76110" data-name="Grupo 76110" transform="translate(5170 -973.838)">
    <rect id="Rectángulo_31191" data-name="Rectángulo 31191" width="365.159" height="365.159" transform="translate(-4484.826 973.838)" fill="#f2eefc"/>
    <rect id="Rectángulo_31193" data-name="Rectángulo 31193" width="365.159" height="365.159" transform="translate(-5170 1228.367)" fill="#f2eefc"/>
    <rect id="Rectángulo_33234" data-name="Rectángulo 33234" width="983" height="547" transform="translate(-5135 1012.815)" fill="#fff"/>
    <path id="Trazado_146075" data-name="Trazado 146075" d="M-3552.834-9750.442v-16.5h528.544v20.009" transform="translate(-1359.435 11129.65)" fill="none" stroke="#707070" stroke-width="1"/>
    <line id="Línea_178" data-name="Línea 178" y2="172.211" transform="translate(-4656.894 1190.057)" fill="none" stroke="#707070" stroke-width="1"/>
    <line id="Línea_179" data-name="Línea 179" x1="21.48" transform="translate(-4678.374 1318.938)" fill="none" stroke="#707070" stroke-width="1"/>
    <line id="Línea_180" data-name="Línea 180" y2="19.69" transform="translate(-4740.129 1362.793)" fill="none" stroke="#707070" stroke-width="1"/>
    <line id="Línea_181" data-name="Línea 181" y2="29.535" transform="translate(-4542.332 1362.793)" fill="none" stroke="#707070" stroke-width="1"/>
    <rect id="Rectángulo_32556" data-name="Rectángulo 32556" width="134" height="59" rx="13" transform="translate(-4724 1129.814)" fill="#81d4fa"/>
    <rect id="Rectángulo_32688" data-name="Rectángulo 32688" width="134" height="61" rx="13" transform="translate(-4724 1205.814)" fill="#81d4fa"/>
    <rect id="Rectángulo_32689" data-name="Rectángulo 32689" width="134" height="61" rx="13" transform="translate(-4814 1288.814)" fill="#81d4fa"/>
    <rect id="Rectángulo_32690" data-name="Rectángulo 32690" width="134" height="59" rx="13" transform="translate(-4962 1384.814)" fill="#81d4fa"/>
    <rect id="Rectángulo_32691" data-name="Rectángulo 32691" width="134" height="59" rx="13" transform="translate(-4804 1384.814)" fill="#81d4fa"/>
    <rect id="Rectángulo_32692" data-name="Rectángulo 32692" width="135" height="59" rx="13" transform="translate(-4610 1384.814)" fill="#81d4fa"/>
    <rect id="Rectángulo_32693" data-name="Rectángulo 32693" width="134" height="59" rx="13" transform="translate(-4451 1384.814)" fill="#81d4fa"/>
    <text id="Gerente" transform="translate(-4684 1151.814)" fill="#12263f" font-size="14" font-family="Roboto-Regular, Roboto"><tspan x="0" y="15">Gerente</tspan></text>
    <text id="Presidente" transform="translate(-4657 1240.814)" fill="#12263f" font-size="14" font-family="Roboto-Regular, Roboto"><tspan x="-33.315" y="0">Presidente</tspan></text>
    <text id="Secretaria" transform="translate(-4755 1322.814)" fill="#12263f" font-size="14" font-family="Roboto-Regular, Roboto"><tspan x="-31.572" y="0">Secretaria</tspan></text>
    <text id="RR.HH." transform="translate(-4538 1419.814)" fill="#12263f" font-size="14" font-family="Roboto-Regular, Roboto"><tspan x="-22.285" y="0">RR.HH.</tspan></text>
    <text id="Marketing" transform="translate(-4738 1418.814)" fill="#12263f" font-size="14" font-family="Roboto-Regular, Roboto"><tspan x="-31.319" y="0">Marketing</tspan></text>
    <text id="Finanzas" transform="translate(-4385 1418.814)" fill="#12263f" font-size="14" font-family="Roboto-Regular, Roboto"><tspan x="-27.986" y="0">Finanzas</tspan></text>
    <text id="Producción" transform="translate(-4889 1416.814)" fill="#12263f" font-size="14" font-family="Roboto-Regular, Roboto"><tspan x="-35.396" y="0">Producción</tspan></text>
  </g>
</svg>
