<svg xmlns="http://www.w3.org/2000/svg" width="1050.333" height="619.688" viewBox="0 0 1050.333 619.688">
  <g id="Grupo_76136" data-name="Grupo 76136" transform="translate(5126 13055.978)">
    <path id="Trazado_148262" data-name="Trazado 148262" d="M0,0H365.159V365.159H0Z" transform="translate(-4440.826 -13055.978)" fill="#f2eefc"/>
    <path id="Trazado_148263" data-name="Trazado 148263" d="M0,0H365.159V365.159H0Z" transform="translate(-5126 -12801.449)" fill="#f2eefc"/>
    <path id="Trazado_148261" data-name="Trazado 148261" d="M0,0H983V547H0Z" transform="translate(-5091 -13017)" fill="#fff"/>
    <path id="Trazado_146075" data-name="Trazado 146075" d="M-3552.834-9750.442v-16.5h528.544v20.009" transform="translate(-1315.435 -2900.164)" fill="none" stroke="#707070" stroke-width="1"/>
    <path id="Trazado_148264" data-name="Trazado 148264" d="M0,0V172.211" transform="translate(-4612.894 -12839.758)" fill="none" stroke="#707070" stroke-width="1"/>
    <path id="Trazado_148265" data-name="Trazado 148265" d="M21.48,0H0" transform="translate(-4634.374 -12710.876)" fill="none" stroke="#707070" stroke-width="1"/>
    <path id="Trazado_148266" data-name="Trazado 148266" d="M0,0V19.69" transform="translate(-4696.129 -12667.021)" fill="none" stroke="#707070" stroke-width="1"/>
    <path id="Trazado_148267" data-name="Trazado 148267" d="M0,0V29.535" transform="translate(-4498.332 -12667.021)" fill="none" stroke="#707070" stroke-width="1"/>
    <path id="Trazado_148268" data-name="Trazado 148268" d="M13,0H121a13,13,0,0,1,13,13V46a13,13,0,0,1-13,13H13A13,13,0,0,1,0,46V13A13,13,0,0,1,13,0Z" transform="translate(-4680 -12900)" fill="#81d4fa"/>
    <path id="Trazado_148269" data-name="Trazado 148269" d="M13,0H121a13,13,0,0,1,13,13V48a13,13,0,0,1-13,13H13A13,13,0,0,1,0,48V13A13,13,0,0,1,13,0Z" transform="translate(-4680 -12824)" fill="#81d4fa"/>
    <path id="Trazado_148270" data-name="Trazado 148270" d="M13,0H121a13,13,0,0,1,13,13V48a13,13,0,0,1-13,13H13A13,13,0,0,1,0,48V13A13,13,0,0,1,13,0Z" transform="translate(-4770 -12741)" fill="#81d4fa"/>
    <path id="Trazado_148271" data-name="Trazado 148271" d="M13,0H121a13,13,0,0,1,13,13V46a13,13,0,0,1-13,13H13A13,13,0,0,1,0,46V13A13,13,0,0,1,13,0Z" transform="translate(-4918 -12645)" fill="#81d4fa"/>
    <path id="Trazado_148272" data-name="Trazado 148272" d="M13,0H121a13,13,0,0,1,13,13V46a13,13,0,0,1-13,13H13A13,13,0,0,1,0,46V13A13,13,0,0,1,13,0Z" transform="translate(-4760 -12645)" fill="#81d4fa"/>
    <path id="Trazado_148273" data-name="Trazado 148273" d="M13,0H122a13,13,0,0,1,13,13V46a13,13,0,0,1-13,13H13A13,13,0,0,1,0,46V13A13,13,0,0,1,13,0Z" transform="translate(-4566 -12645)" fill="#81d4fa"/>
    <path id="Trazado_148274" data-name="Trazado 148274" d="M13,0H121a13,13,0,0,1,13,13V46a13,13,0,0,1-13,13H13A13,13,0,0,1,0,46V13A13,13,0,0,1,13,0Z" transform="translate(-4407 -12645)" fill="#81d4fa"/>
    <path id="Trazado_148275" data-name="Trazado 148275" d="M8.5,13.694a3.032,3.032,0,0,1-1.412,1.083,5.7,5.7,0,0,1-2.109.359,4.09,4.09,0,0,1-2.16-.571,3.8,3.8,0,0,1-1.459-1.624,5.607,5.607,0,0,1-.53-2.44V9.634A5.234,5.234,0,0,1,1.883,6.147,3.656,3.656,0,0,1,4.833,4.91a3.777,3.777,0,0,1,2.509.8A3.469,3.469,0,0,1,8.5,7.966H7.191A2.17,2.17,0,0,0,4.84,5.983a2.323,2.323,0,0,0-2,.927A4.526,4.526,0,0,0,2.153,9.6v.814a4.242,4.242,0,0,0,.766,2.665,2.482,2.482,0,0,0,2.071.989A4.575,4.575,0,0,0,6.282,13.9a2,2,0,0,0,.916-.552v-2.23h-2.3V10.044H8.5Zm5.059,1.442a3.232,3.232,0,0,1-2.447-.988,3.666,3.666,0,0,1-.943-2.642v-.232a4.438,4.438,0,0,1,.42-1.965,3.28,3.28,0,0,1,1.176-1.354,2.956,2.956,0,0,1,1.637-.489,2.77,2.77,0,0,1,2.242.95,4.114,4.114,0,0,1,.8,2.721v.526H11.437a2.629,2.629,0,0,0,.639,1.767,2.009,2.009,0,0,0,1.555.673,2.2,2.2,0,0,0,1.135-.273,2.851,2.851,0,0,0,.813-.725l.772.6A3.106,3.106,0,0,1,13.563,15.137Zm-.157-6.631a1.687,1.687,0,0,0-1.285.557,2.708,2.708,0,0,0-.643,1.562h3.705v-.1a2.409,2.409,0,0,0-.52-1.494A1.588,1.588,0,0,0,13.405,8.506Zm8.08.232a3.79,3.79,0,0,0-.622-.048,1.667,1.667,0,0,0-1.688,1.06V15H17.91V7.6h1.23l.021.854a1.969,1.969,0,0,1,1.764-.991,1.292,1.292,0,0,1,.561.1Zm4.231,6.4a3.232,3.232,0,0,1-2.447-.988,3.666,3.666,0,0,1-.943-2.642v-.232a4.438,4.438,0,0,1,.42-1.965,3.28,3.28,0,0,1,1.176-1.354,2.956,2.956,0,0,1,1.637-.489,2.77,2.77,0,0,1,2.242.95,4.114,4.114,0,0,1,.8,2.721v.526H23.591a2.629,2.629,0,0,0,.639,1.767,2.009,2.009,0,0,0,1.555.673,2.2,2.2,0,0,0,1.135-.273,2.851,2.851,0,0,0,.813-.725l.772.6A3.106,3.106,0,0,1,25.717,15.137ZM25.56,8.506a1.687,1.687,0,0,0-1.285.557,2.708,2.708,0,0,0-.643,1.562h3.705v-.1a2.409,2.409,0,0,0-.52-1.494A1.588,1.588,0,0,0,25.56,8.506Zm5.7-.9.041.93a2.7,2.7,0,0,1,2.215-1.066q2.345,0,2.365,2.646V15H34.617V10.105a1.7,1.7,0,0,0-.366-1.183,1.466,1.466,0,0,0-1.118-.383,1.825,1.825,0,0,0-1.08.328,2.228,2.228,0,0,0-.725.861V15H30.064V7.6ZM39.5,5.813V7.6h1.381v.978H39.5v4.593a1.027,1.027,0,0,0,.185.667.777.777,0,0,0,.629.222,3.062,3.062,0,0,0,.6-.082V15a3.688,3.688,0,0,1-.971.136,1.575,1.575,0,0,1-1.278-.513,2.2,2.2,0,0,1-.431-1.456V8.581H36.894V7.6H38.24V5.813Zm5.927,9.324a3.232,3.232,0,0,1-2.447-.988,3.666,3.666,0,0,1-.943-2.642v-.232a4.438,4.438,0,0,1,.42-1.965,3.28,3.28,0,0,1,1.176-1.354,2.956,2.956,0,0,1,1.637-.489,2.77,2.77,0,0,1,2.242.95,4.114,4.114,0,0,1,.8,2.721v.526H43.306a2.629,2.629,0,0,0,.639,1.767A2.009,2.009,0,0,0,45.5,14.1a2.2,2.2,0,0,0,1.135-.273,2.851,2.851,0,0,0,.813-.725l.772.6A3.106,3.106,0,0,1,45.432,15.137Zm-.157-6.631a1.687,1.687,0,0,0-1.285.557,2.708,2.708,0,0,0-.643,1.562h3.705v-.1a2.409,2.409,0,0,0-.52-1.494A1.588,1.588,0,0,0,45.274,8.506Z" transform="translate(-4640 -12878)" fill="#12263f"/>
    <path id="Trazado_148276" data-name="Trazado 148276" d="M-30.847-3.9V0H-32.16V-9.953h3.671a3.688,3.688,0,0,1,2.56.834A2.827,2.827,0,0,1-25-6.911a2.79,2.79,0,0,1-.906,2.232A3.853,3.853,0,0,1-28.5-3.9Zm0-1.073h2.358a2.358,2.358,0,0,0,1.613-.5A1.815,1.815,0,0,0-26.315-6.9a1.876,1.876,0,0,0-.561-1.424,2.209,2.209,0,0,0-1.538-.555h-2.434Zm10.9-1.292a3.79,3.79,0,0,0-.622-.048,1.667,1.667,0,0,0-1.688,1.06V0h-1.265V-7.4h1.23l.021.854a1.969,1.969,0,0,1,1.764-.991,1.292,1.292,0,0,1,.561.1Zm4.231,6.4a3.232,3.232,0,0,1-2.447-.988,3.666,3.666,0,0,1-.943-2.642v-.232a4.438,4.438,0,0,1,.42-1.965,3.28,3.28,0,0,1,1.176-1.354,2.956,2.956,0,0,1,1.637-.489,2.77,2.77,0,0,1,2.242.95,4.114,4.114,0,0,1,.8,2.721v.526h-5.011a2.629,2.629,0,0,0,.639,1.767A2.009,2.009,0,0,0-15.651-.9a2.2,2.2,0,0,0,1.135-.273,2.851,2.851,0,0,0,.813-.725l.772.6A3.106,3.106,0,0,1-15.719.137Zm-.157-6.631a1.687,1.687,0,0,0-1.285.557A2.708,2.708,0,0,0-17.8-4.375H-14.1v-.1a2.409,2.409,0,0,0-.52-1.494A1.588,1.588,0,0,0-15.876-6.494Zm8.812,4.532a.931.931,0,0,0-.386-.8A3.718,3.718,0,0,0-8.8-3.247a6.367,6.367,0,0,1-1.524-.492,2.169,2.169,0,0,1-.834-.684,1.635,1.635,0,0,1-.27-.943A1.919,1.919,0,0,1-10.657-6.9a3,3,0,0,1,1.965-.629,3.091,3.091,0,0,1,2.041.649,2.063,2.063,0,0,1,.783,1.661H-7.14a1.142,1.142,0,0,0-.441-.9,1.652,1.652,0,0,0-1.111-.376,1.729,1.729,0,0,0-1.08.3.947.947,0,0,0-.39.786.767.767,0,0,0,.362.69,4.458,4.458,0,0,0,1.309.444,6.821,6.821,0,0,1,1.535.506,2.239,2.239,0,0,1,.872.708A1.74,1.74,0,0,1-5.8-2.051,1.893,1.893,0,0,1-6.593-.461a3.326,3.326,0,0,1-2.058.6,3.725,3.725,0,0,1-1.572-.314,2.557,2.557,0,0,1-1.07-.878,2.117,2.117,0,0,1-.386-1.22h1.265a1.309,1.309,0,0,0,.509,1.008A1.976,1.976,0,0,0-8.651-.9,2.039,2.039,0,0,0-7.5-1.186.893.893,0,0,0-7.065-1.962ZM-2.779,0H-4.043V-7.4h1.265ZM-4.146-9.358a.755.755,0,0,1,.188-.52A.706.706,0,0,1-3.4-10.09a.717.717,0,0,1,.561.212.747.747,0,0,1,.191.52.722.722,0,0,1-.191.513.73.73,0,0,1-.561.205.718.718,0,0,1-.557-.205A.73.73,0,0,1-4.146-9.358Zm3.083,5.6A4.333,4.333,0,0,1-.256-6.5,2.551,2.551,0,0,1,1.856-7.533a2.565,2.565,0,0,1,2.058.889V-10.5H5.178V0H4.016L3.955-.793a2.575,2.575,0,0,1-2.112.93A2.526,2.526,0,0,1-.253-.916a4.382,4.382,0,0,1-.81-2.748ZM.2-3.616a3.281,3.281,0,0,0,.52,1.969,1.68,1.68,0,0,0,1.436.711,1.845,1.845,0,0,0,1.757-1.08v-3.4A1.859,1.859,0,0,0,2.17-6.46a1.687,1.687,0,0,0-1.449.718A3.612,3.612,0,0,0,.2-3.616ZM10.209.137A3.232,3.232,0,0,1,7.762-.851a3.666,3.666,0,0,1-.943-2.642v-.232a4.438,4.438,0,0,1,.42-1.965A3.28,3.28,0,0,1,8.415-7.044a2.956,2.956,0,0,1,1.637-.489,2.77,2.77,0,0,1,2.242.95,4.114,4.114,0,0,1,.8,2.721v.526H8.083a2.629,2.629,0,0,0,.639,1.767A2.009,2.009,0,0,0,10.278-.9a2.2,2.2,0,0,0,1.135-.273,2.851,2.851,0,0,0,.813-.725l.772.6A3.106,3.106,0,0,1,10.209.137Zm-.157-6.631a1.687,1.687,0,0,0-1.285.557,2.708,2.708,0,0,0-.643,1.562H11.83v-.1a2.409,2.409,0,0,0-.52-1.494A1.588,1.588,0,0,0,10.052-6.494Zm5.7-.9.041.93a2.7,2.7,0,0,1,2.215-1.066q2.345,0,2.365,2.646V0H19.11V-4.895a1.7,1.7,0,0,0-.366-1.183,1.466,1.466,0,0,0-1.118-.383,1.825,1.825,0,0,0-1.08.328,2.228,2.228,0,0,0-.725.861V0H14.557V-7.4ZM24-9.187V-7.4h1.381v.978H24v4.593a1.027,1.027,0,0,0,.185.667.777.777,0,0,0,.629.222,3.062,3.062,0,0,0,.6-.082V0a3.688,3.688,0,0,1-.971.136,1.575,1.575,0,0,1-1.278-.513,2.2,2.2,0,0,1-.431-1.456V-6.419H21.386V-7.4h1.347V-9.187ZM29.924.137a3.232,3.232,0,0,1-2.447-.988,3.666,3.666,0,0,1-.943-2.642v-.232a4.438,4.438,0,0,1,.42-1.965A3.28,3.28,0,0,1,28.13-7.044a2.956,2.956,0,0,1,1.637-.489,2.77,2.77,0,0,1,2.242.95,4.114,4.114,0,0,1,.8,2.721v.526H27.8a2.629,2.629,0,0,0,.639,1.767A2.009,2.009,0,0,0,29.993-.9a2.2,2.2,0,0,0,1.135-.273,2.851,2.851,0,0,0,.813-.725l.772.6A3.106,3.106,0,0,1,29.924.137Zm-.157-6.631a1.687,1.687,0,0,0-1.285.557,2.708,2.708,0,0,0-.643,1.562h3.705v-.1a2.409,2.409,0,0,0-.52-1.494A1.588,1.588,0,0,0,29.767-6.494Z" transform="translate(-4613 -12789)" fill="#12263f"/>
    <path id="Trazado_148277" data-name="Trazado 148277" d="M-27.484-4.437a6.172,6.172,0,0,1-2.458-1.193,2.279,2.279,0,0,1-.769-1.747,2.408,2.408,0,0,1,.94-1.945,3.736,3.736,0,0,1,2.444-.769,4.078,4.078,0,0,1,1.829.4A3.007,3.007,0,0,1-24.254-8.6a2.8,2.8,0,0,1,.441,1.524h-1.319A1.82,1.82,0,0,0-25.707-8.5a2.335,2.335,0,0,0-1.62-.518,2.391,2.391,0,0,0-1.514.428A1.428,1.428,0,0,0-29.384-7.4a1.285,1.285,0,0,0,.516,1.031,5.062,5.062,0,0,0,1.757.77,8.152,8.152,0,0,1,1.941.77,2.946,2.946,0,0,1,1.039.981,2.5,2.5,0,0,1,.338,1.319,2.326,2.326,0,0,1-.943,1.938,4.022,4.022,0,0,1-2.522.728,4.678,4.678,0,0,1-1.914-.393,3.221,3.221,0,0,1-1.371-1.077,2.627,2.627,0,0,1-.482-1.552h1.319a1.714,1.714,0,0,0,.667,1.425,2.806,2.806,0,0,0,1.781.523,2.58,2.58,0,0,0,1.593-.424,1.377,1.377,0,0,0,.554-1.155,1.351,1.351,0,0,0-.513-1.131A5.911,5.911,0,0,0-27.484-4.437ZM-19.24.137a3.232,3.232,0,0,1-2.447-.988,3.666,3.666,0,0,1-.943-2.642v-.232a4.438,4.438,0,0,1,.42-1.965,3.28,3.28,0,0,1,1.176-1.354A2.956,2.956,0,0,1-19.4-7.533a2.77,2.77,0,0,1,2.242.95,4.114,4.114,0,0,1,.8,2.721v.526h-5.011a2.629,2.629,0,0,0,.639,1.767A2.009,2.009,0,0,0-19.171-.9a2.2,2.2,0,0,0,1.135-.273,2.851,2.851,0,0,0,.813-.725l.772.6A3.106,3.106,0,0,1-19.24.137ZM-19.4-6.494a1.687,1.687,0,0,0-1.285.557,2.708,2.708,0,0,0-.643,1.562h3.705v-.1a2.409,2.409,0,0,0-.52-1.494A1.588,1.588,0,0,0-19.4-6.494Zm7.472,5.6a1.822,1.822,0,0,0,1.183-.41,1.443,1.443,0,0,0,.561-1.025h1.2a2.293,2.293,0,0,1-.437,1.21A2.881,2.881,0,0,1-10.5-.205a3.107,3.107,0,0,1-1.425.342,3.047,3.047,0,0,1-2.4-1.008A4.016,4.016,0,0,1-15.22-3.63v-.212a4.453,4.453,0,0,1,.4-1.921,3.02,3.02,0,0,1,1.138-1.306,3.233,3.233,0,0,1,1.753-.465,2.966,2.966,0,0,1,2.068.745,2.663,2.663,0,0,1,.878,1.935h-1.2a1.743,1.743,0,0,0-.543-1.179,1.691,1.691,0,0,0-1.207-.461,1.77,1.77,0,0,0-1.494.694,3.259,3.259,0,0,0-.53,2.006v.239a3.194,3.194,0,0,0,.526,1.969A1.779,1.779,0,0,0-11.925-.9Zm7.937-5.366a3.79,3.79,0,0,0-.622-.048A1.667,1.667,0,0,0-6.3-5.25V0H-7.564V-7.4h1.23l.021.854a1.969,1.969,0,0,1,1.764-.991,1.292,1.292,0,0,1,.561.1ZM.243.137A3.232,3.232,0,0,1-2.2-.851a3.666,3.666,0,0,1-.943-2.642v-.232a4.438,4.438,0,0,1,.42-1.965A3.28,3.28,0,0,1-1.552-7.044,2.956,2.956,0,0,1,.085-7.533a2.77,2.77,0,0,1,2.242.95,4.114,4.114,0,0,1,.8,2.721v.526H-1.883a2.629,2.629,0,0,0,.639,1.767A2.009,2.009,0,0,0,.311-.9a2.2,2.2,0,0,0,1.135-.273,2.851,2.851,0,0,0,.813-.725l.772.6A3.106,3.106,0,0,1,.243.137ZM.085-6.494A1.687,1.687,0,0,0-1.2-5.937a2.708,2.708,0,0,0-.643,1.562H1.863v-.1a2.409,2.409,0,0,0-.52-1.494A1.588,1.588,0,0,0,.085-6.494ZM6.306-9.187V-7.4H7.687v.978H6.306v4.593a1.027,1.027,0,0,0,.185.667.777.777,0,0,0,.629.222,3.062,3.062,0,0,0,.6-.082V0A3.688,3.688,0,0,1,6.75.137,1.575,1.575,0,0,1,5.472-.376a2.2,2.2,0,0,1-.431-1.456V-6.419H3.695V-7.4H5.042V-9.187ZM13.73,0a2.657,2.657,0,0,1-.178-.779,2.822,2.822,0,0,1-2.105.916A2.611,2.611,0,0,1,9.652-.482a2,2,0,0,1-.7-1.569A2.091,2.091,0,0,1,9.83-3.845,4.142,4.142,0,0,1,12.3-4.484h1.23v-.581a1.42,1.42,0,0,0-.4-1.056,1.593,1.593,0,0,0-1.169-.393,1.844,1.844,0,0,0-1.135.342,1.007,1.007,0,0,0-.458.827H9.1A1.745,1.745,0,0,1,9.5-6.416a2.683,2.683,0,0,1,1.066-.817,3.588,3.588,0,0,1,1.48-.3,2.924,2.924,0,0,1,2,.639,2.306,2.306,0,0,1,.752,1.76v3.4a4.162,4.162,0,0,0,.26,1.62V0Zm-2.1-.964a2.223,2.223,0,0,0,1.128-.308,1.861,1.861,0,0,0,.772-.8V-3.589h-.991q-2.324,0-2.324,1.36a1.151,1.151,0,0,0,.4.93A1.524,1.524,0,0,0,11.631-.964Zm8.723-5.3a3.79,3.79,0,0,0-.622-.048,1.667,1.667,0,0,0-1.688,1.06V0H16.779V-7.4h1.23l.021.854a1.969,1.969,0,0,1,1.764-.991,1.292,1.292,0,0,1,.561.1ZM22.89,0H21.625V-7.4H22.89ZM21.523-9.358a.755.755,0,0,1,.188-.52.706.706,0,0,1,.557-.212.717.717,0,0,1,.561.212.747.747,0,0,1,.191.52.722.722,0,0,1-.191.513.73.73,0,0,1-.561.205.718.718,0,0,1-.557-.205A.73.73,0,0,1,21.523-9.358ZM29.48,0A2.657,2.657,0,0,1,29.3-.779,2.822,2.822,0,0,1,27.2.137,2.611,2.611,0,0,1,25.4-.482a2,2,0,0,1-.7-1.569,2.091,2.091,0,0,1,.878-1.794,4.142,4.142,0,0,1,2.471-.639h1.23v-.581a1.42,1.42,0,0,0-.4-1.056,1.593,1.593,0,0,0-1.169-.393,1.844,1.844,0,0,0-1.135.342,1.007,1.007,0,0,0-.458.827H24.852a1.745,1.745,0,0,1,.393-1.07,2.683,2.683,0,0,1,1.066-.817,3.588,3.588,0,0,1,1.48-.3,2.924,2.924,0,0,1,2,.639,2.306,2.306,0,0,1,.752,1.76v3.4a4.162,4.162,0,0,0,.26,1.62V0Zm-2.1-.964a2.223,2.223,0,0,0,1.128-.308,1.861,1.861,0,0,0,.772-.8V-3.589h-.991q-2.324,0-2.324,1.36a1.151,1.151,0,0,0,.4.93A1.524,1.524,0,0,0,27.381-.964Z" transform="translate(-4711 -12707)" fill="#12263f"/>
    <path id="Trazado_148278" data-name="Trazado 148278" d="M-17.479-4.026h-2.338V0h-1.319V-9.953h3.295a3.9,3.9,0,0,1,2.587.766,2.755,2.755,0,0,1,.906,2.229,2.68,2.68,0,0,1-.5,1.62,3,3,0,0,1-1.4,1.032l2.338,4.225V0h-1.408ZM-19.817-5.1H-17.8a2.275,2.275,0,0,0,1.555-.507,1.714,1.714,0,0,0,.578-1.356,1.8,1.8,0,0,0-.55-1.418,2.33,2.33,0,0,0-1.589-.5h-2.01ZM-8.859-4.026H-11.2V0h-1.319V-9.953h3.295a3.9,3.9,0,0,1,2.587.766,2.755,2.755,0,0,1,.906,2.229,2.68,2.68,0,0,1-.5,1.62,3,3,0,0,1-1.4,1.032L-5.291-.082V0H-6.7ZM-11.2-5.1h2.017a2.275,2.275,0,0,0,1.555-.507,1.714,1.714,0,0,0,.578-1.356A1.8,1.8,0,0,0-7.6-8.38a2.33,2.33,0,0,0-1.589-.5H-11.2ZM-4.061-.663a.792.792,0,0,1,.195-.547.742.742,0,0,1,.584-.219.765.765,0,0,1,.591.219.776.776,0,0,1,.2.547.734.734,0,0,1-.2.526.778.778,0,0,1-.591.212.755.755,0,0,1-.584-.212A.748.748,0,0,1-4.061-.663ZM7.444,0H6.125V-4.6H1.107V0H-.205V-9.953H1.107v4.279H6.125V-9.953H7.444Zm9.98,0H16.105V-4.6H11.088V0H9.775V-9.953h1.313v4.279h5.018V-9.953h1.319Zm2.16-.663a.792.792,0,0,1,.195-.547.742.742,0,0,1,.584-.219.765.765,0,0,1,.591.219.776.776,0,0,1,.2.547.734.734,0,0,1-.2.526.778.778,0,0,1-.591.212.755.755,0,0,1-.584-.212A.748.748,0,0,1,19.585-.663Z" transform="translate(-4494 -12610)" fill="#12263f"/>
    <path id="Trazado_148279" data-name="Trazado 148279" d="M-28.468-9.953l3.254,8.121,3.254-8.121h1.7V0h-1.312V-3.876l.123-4.184L-24.715,0h-1l-3.261-8.039.13,4.163V0h-1.312V-9.953ZM-13.573,0a2.657,2.657,0,0,1-.178-.779,2.822,2.822,0,0,1-2.105.916A2.611,2.611,0,0,1-17.65-.482a2,2,0,0,1-.7-1.569,2.091,2.091,0,0,1,.878-1.794A4.142,4.142,0,0,1-15-4.484h1.23v-.581a1.42,1.42,0,0,0-.4-1.056,1.593,1.593,0,0,0-1.169-.393,1.844,1.844,0,0,0-1.135.342,1.007,1.007,0,0,0-.458.827H-18.2a1.745,1.745,0,0,1,.393-1.07,2.683,2.683,0,0,1,1.066-.817,3.588,3.588,0,0,1,1.48-.3,2.924,2.924,0,0,1,2,.639,2.306,2.306,0,0,1,.752,1.76v3.4a4.162,4.162,0,0,0,.26,1.62V0Zm-2.1-.964a2.223,2.223,0,0,0,1.128-.308,1.861,1.861,0,0,0,.772-.8V-3.589h-.991q-2.324,0-2.324,1.36a1.151,1.151,0,0,0,.4.93A1.524,1.524,0,0,0-15.671-.964Zm8.723-5.3a3.79,3.79,0,0,0-.622-.048A1.667,1.667,0,0,0-9.259-5.25V0h-1.265V-7.4h1.23l.021.854a1.969,1.969,0,0,1,1.764-.991,1.292,1.292,0,0,1,.561.1Zm3.227,2.837-.793.827V0H-5.78V-10.5h1.265v6.351l.677-.813,2.3-2.434H0l-2.878,3.09L.338,0H-1.145ZM4.378.137A3.232,3.232,0,0,1,1.931-.851,3.666,3.666,0,0,1,.988-3.493v-.232a4.438,4.438,0,0,1,.42-1.965A3.28,3.28,0,0,1,2.584-7.044a2.956,2.956,0,0,1,1.637-.489,2.77,2.77,0,0,1,2.242.95,4.114,4.114,0,0,1,.8,2.721v.526H2.252a2.629,2.629,0,0,0,.639,1.767A2.009,2.009,0,0,0,4.447-.9a2.2,2.2,0,0,0,1.135-.273A2.851,2.851,0,0,0,6.4-1.894l.772.6A3.106,3.106,0,0,1,4.378.137ZM4.221-6.494a1.687,1.687,0,0,0-1.285.557,2.708,2.708,0,0,0-.643,1.562H6v-.1a2.409,2.409,0,0,0-.52-1.494A1.588,1.588,0,0,0,4.221-6.494Zm6.221-2.693V-7.4h1.381v.978H10.442v4.593a1.027,1.027,0,0,0,.185.667.777.777,0,0,0,.629.222,3.062,3.062,0,0,0,.6-.082V0a3.688,3.688,0,0,1-.971.136A1.575,1.575,0,0,1,9.608-.376a2.2,2.2,0,0,1-.431-1.456V-6.419H7.831V-7.4H9.177V-9.187ZM14.673,0H13.409V-7.4h1.265ZM13.306-9.358a.755.755,0,0,1,.188-.52.706.706,0,0,1,.557-.212.717.717,0,0,1,.561.212.747.747,0,0,1,.191.52.722.722,0,0,1-.191.513.73.73,0,0,1-.561.205.718.718,0,0,1-.557-.205A.73.73,0,0,1,13.306-9.358ZM17.893-7.4l.041.93a2.7,2.7,0,0,1,2.215-1.066q2.345,0,2.365,2.646V0H21.25V-4.895a1.7,1.7,0,0,0-.366-1.183,1.466,1.466,0,0,0-1.118-.383,1.825,1.825,0,0,0-1.08.328,2.228,2.228,0,0,0-.725.861V0H16.7V-7.4ZM24.121-3.76a4.347,4.347,0,0,1,.8-2.751A2.558,2.558,0,0,1,27.04-7.533a2.544,2.544,0,0,1,2.112.957l.062-.82h1.155V-.178a3.009,3.009,0,0,1-.851,2.263,3.141,3.141,0,0,1-2.287.827,3.8,3.8,0,0,1-1.565-.342A2.7,2.7,0,0,1,24.5,1.634l.656-.759a2.473,2.473,0,0,0,1.989,1,1.938,1.938,0,0,0,1.439-.52A1.986,1.986,0,0,0,29.1-.1V-.738a2.6,2.6,0,0,1-2.071.875,2.527,2.527,0,0,1-2.1-1.046A4.571,4.571,0,0,1,24.121-3.76Zm1.271.144A3.316,3.316,0,0,0,25.9-1.651a1.666,1.666,0,0,0,1.436.714A1.852,1.852,0,0,0,29.1-2.023V-5.4a1.874,1.874,0,0,0-1.743-1.06,1.681,1.681,0,0,0-1.442.718A3.612,3.612,0,0,0,25.392-3.616Z" transform="translate(-4694 -12611)" fill="#12263f"/>
    <path id="Trazado_148280" data-name="Trazado 148280" d="M-21.342-4.4h-4.177V0h-1.312V-9.953h6.166V-8.88h-4.854v3.411h4.177ZM-17.917,0h-1.265V-7.4h1.265Zm-1.367-9.358a.755.755,0,0,1,.188-.52.706.706,0,0,1,.557-.212.717.717,0,0,1,.561.212.747.747,0,0,1,.191.52.722.722,0,0,1-.191.513.73.73,0,0,1-.561.205.718.718,0,0,1-.557-.205A.73.73,0,0,1-19.284-9.358ZM-14.7-7.4l.041.93a2.7,2.7,0,0,1,2.215-1.066q2.345,0,2.365,2.646V0h-1.265V-4.895a1.7,1.7,0,0,0-.366-1.183,1.466,1.466,0,0,0-1.118-.383,1.825,1.825,0,0,0-1.08.328,2.228,2.228,0,0,0-.725.861V0h-1.265V-7.4ZM-3.6,0A2.657,2.657,0,0,1-3.78-.779,2.822,2.822,0,0,1-5.886.137,2.611,2.611,0,0,1-7.68-.482a2,2,0,0,1-.7-1.569A2.091,2.091,0,0,1-7.5-3.845a4.142,4.142,0,0,1,2.471-.639H-3.8v-.581a1.42,1.42,0,0,0-.4-1.056,1.593,1.593,0,0,0-1.169-.393A1.844,1.844,0,0,0-6.5-6.173a1.007,1.007,0,0,0-.458.827H-8.23a1.745,1.745,0,0,1,.393-1.07,2.683,2.683,0,0,1,1.066-.817,3.588,3.588,0,0,1,1.48-.3,2.924,2.924,0,0,1,2,.639,2.306,2.306,0,0,1,.752,1.76v3.4a4.162,4.162,0,0,0,.26,1.62V0ZM-5.7-.964a2.223,2.223,0,0,0,1.128-.308,1.861,1.861,0,0,0,.772-.8V-3.589h-.991q-2.324,0-2.324,1.36a1.151,1.151,0,0,0,.4.93A1.524,1.524,0,0,0-5.7-.964ZM.643-7.4l.041.93A2.7,2.7,0,0,1,2.9-7.533q2.345,0,2.365,2.646V0H4V-4.895a1.7,1.7,0,0,0-.366-1.183A1.466,1.466,0,0,0,2.516-6.46a1.825,1.825,0,0,0-1.08.328,2.228,2.228,0,0,0-.725.861V0H-.554V-7.4ZM8.36-1.032h4.327V0H6.815V-.93L10.9-6.351H6.877V-7.4h5.605v.9ZM18.676,0A2.657,2.657,0,0,1,18.5-.779a2.822,2.822,0,0,1-2.105.916A2.611,2.611,0,0,1,14.6-.482a2,2,0,0,1-.7-1.569,2.091,2.091,0,0,1,.878-1.794,4.142,4.142,0,0,1,2.471-.639h1.23v-.581a1.42,1.42,0,0,0-.4-1.056,1.593,1.593,0,0,0-1.169-.393,1.844,1.844,0,0,0-1.135.342,1.007,1.007,0,0,0-.458.827H14.048a1.745,1.745,0,0,1,.393-1.07,2.683,2.683,0,0,1,1.066-.817,3.588,3.588,0,0,1,1.48-.3,2.924,2.924,0,0,1,2,.639,2.306,2.306,0,0,1,.752,1.76v3.4A4.162,4.162,0,0,0,20-.109V0Zm-2.1-.964a2.223,2.223,0,0,0,1.128-.308,1.861,1.861,0,0,0,.772-.8V-3.589h-.991q-2.324,0-2.324,1.36a1.151,1.151,0,0,0,.4.93A1.524,1.524,0,0,0,16.577-.964Zm9.454-1a.931.931,0,0,0-.386-.8A3.718,3.718,0,0,0,24.3-3.247a6.367,6.367,0,0,1-1.524-.492,2.169,2.169,0,0,1-.834-.684,1.635,1.635,0,0,1-.27-.943A1.919,1.919,0,0,1,22.439-6.9,3,3,0,0,1,24.4-7.533a3.091,3.091,0,0,1,2.041.649,2.063,2.063,0,0,1,.783,1.661H25.956a1.142,1.142,0,0,0-.441-.9A1.652,1.652,0,0,0,24.4-6.494a1.729,1.729,0,0,0-1.08.3.947.947,0,0,0-.39.786.767.767,0,0,0,.362.69,4.458,4.458,0,0,0,1.309.444,6.821,6.821,0,0,1,1.535.506,2.239,2.239,0,0,1,.872.708A1.74,1.74,0,0,1,27.3-2.051,1.893,1.893,0,0,1,26.5-.461a3.326,3.326,0,0,1-2.058.6,3.725,3.725,0,0,1-1.572-.314,2.557,2.557,0,0,1-1.07-.878,2.117,2.117,0,0,1-.386-1.22h1.265a1.309,1.309,0,0,0,.509,1.008A1.976,1.976,0,0,0,24.445-.9,2.039,2.039,0,0,0,25.6-1.186.893.893,0,0,0,26.031-1.962Z" transform="translate(-4341 -12611)" fill="#12263f"/>
    <path id="Trazado_148281" data-name="Trazado 148281" d="M-32.929-3.9V0h-1.312V-9.953h3.671a3.688,3.688,0,0,1,2.56.834,2.827,2.827,0,0,1,.926,2.208,2.79,2.79,0,0,1-.906,2.232,3.853,3.853,0,0,1-2.594.783Zm0-1.073h2.358a2.358,2.358,0,0,0,1.613-.5A1.815,1.815,0,0,0-28.4-6.9a1.876,1.876,0,0,0-.561-1.424A2.209,2.209,0,0,0-30.5-8.88h-2.434Zm10.9-1.292a3.79,3.79,0,0,0-.622-.048,1.667,1.667,0,0,0-1.688,1.06V0h-1.265V-7.4h1.23l.021.854a1.969,1.969,0,0,1,1.764-.991,1.292,1.292,0,0,1,.561.1Zm.69,2.5a4.369,4.369,0,0,1,.427-1.955,3.187,3.187,0,0,1,1.189-1.34,3.238,3.238,0,0,1,1.74-.472,3.119,3.119,0,0,1,2.444,1.046,4.024,4.024,0,0,1,.933,2.782v.089a4.407,4.407,0,0,1-.414,1.938A3.14,3.14,0,0,1-16.2-.342a3.275,3.275,0,0,1-1.767.479A3.111,3.111,0,0,1-20.409-.909a4,4,0,0,1-.933-2.769Zm1.271.15A3.164,3.164,0,0,0-19.5-1.641,1.827,1.827,0,0,0-17.972-.9a1.816,1.816,0,0,0,1.531-.755,3.46,3.46,0,0,0,.567-2.116,3.159,3.159,0,0,0-.578-1.972,1.836,1.836,0,0,0-1.535-.755,1.816,1.816,0,0,0-1.511.745A3.434,3.434,0,0,0-20.07-3.616Zm6.74-.144A4.333,4.333,0,0,1-12.523-6.5a2.551,2.551,0,0,1,2.112-1.036,2.565,2.565,0,0,1,2.058.889V-10.5h1.265V0H-8.251l-.062-.793a2.575,2.575,0,0,1-2.112.93,2.526,2.526,0,0,1-2.1-1.053,4.382,4.382,0,0,1-.81-2.748Zm1.265.144a3.281,3.281,0,0,0,.52,1.969,1.68,1.68,0,0,0,1.436.711,1.845,1.845,0,0,0,1.757-1.08v-3.4A1.859,1.859,0,0,0-10.1-6.46a1.687,1.687,0,0,0-1.449.718A3.612,3.612,0,0,0-12.065-3.616ZM-.561-.731A2.686,2.686,0,0,1-2.728.137a2.3,2.3,0,0,1-1.8-.687,2.974,2.974,0,0,1-.625-2.034V-7.4H-3.89v4.778q0,1.682,1.367,1.682A1.893,1.893,0,0,0-.595-2.017V-7.4H.67V0h-1.2ZM5.558-.9a1.822,1.822,0,0,0,1.183-.41A1.443,1.443,0,0,0,7.3-2.331H8.5a2.293,2.293,0,0,1-.437,1.21,2.881,2.881,0,0,1-1.077.916A3.107,3.107,0,0,1,5.558.137a3.047,3.047,0,0,1-2.4-1.008A4.016,4.016,0,0,1,2.263-3.63v-.212a4.453,4.453,0,0,1,.4-1.921A3.02,3.02,0,0,1,3.8-7.068a3.233,3.233,0,0,1,1.753-.465,2.966,2.966,0,0,1,2.068.745A2.663,2.663,0,0,1,8.5-4.854H7.3a1.743,1.743,0,0,0-.543-1.179,1.691,1.691,0,0,0-1.207-.461A1.77,1.77,0,0,0,4.057-5.8a3.259,3.259,0,0,0-.53,2.006v.239a3.194,3.194,0,0,0,.526,1.969A1.779,1.779,0,0,0,5.558-.9Zm7.328,0a1.822,1.822,0,0,0,1.183-.41,1.443,1.443,0,0,0,.561-1.025h1.2a2.293,2.293,0,0,1-.437,1.21,2.881,2.881,0,0,1-1.077.916,3.107,3.107,0,0,1-1.425.342,3.047,3.047,0,0,1-2.4-1.008A4.016,4.016,0,0,1,9.591-3.63v-.212a4.453,4.453,0,0,1,.4-1.921,3.02,3.02,0,0,1,1.138-1.306,3.233,3.233,0,0,1,1.753-.465,2.966,2.966,0,0,1,2.068.745,2.663,2.663,0,0,1,.878,1.935h-1.2a1.743,1.743,0,0,0-.543-1.179,1.691,1.691,0,0,0-1.207-.461,1.77,1.77,0,0,0-1.494.694,3.259,3.259,0,0,0-.53,2.006v.239a3.194,3.194,0,0,0,.526,1.969A1.779,1.779,0,0,0,12.886-.9Zm5.735.9H17.356V-7.4h1.265ZM17.254-9.358a.755.755,0,0,1,.188-.52A.706.706,0,0,1,18-10.09a.717.717,0,0,1,.561.212.747.747,0,0,1,.191.52.722.722,0,0,1-.191.513A.73.73,0,0,1,18-8.641a.718.718,0,0,1-.557-.205A.73.73,0,0,1,17.254-9.358ZM20.31-3.767a4.369,4.369,0,0,1,.427-1.955,3.187,3.187,0,0,1,1.189-1.34,3.238,3.238,0,0,1,1.74-.472A3.119,3.119,0,0,1,26.11-6.487a4.024,4.024,0,0,1,.933,2.782v.089a4.407,4.407,0,0,1-.414,1.938A3.14,3.14,0,0,1,25.447-.342,3.275,3.275,0,0,1,23.68.137,3.111,3.111,0,0,1,21.243-.909a4,4,0,0,1-.933-2.769Zm1.271.15a3.164,3.164,0,0,0,.571,1.976A1.827,1.827,0,0,0,23.68-.9a1.816,1.816,0,0,0,1.531-.755,3.46,3.46,0,0,0,.567-2.116A3.159,3.159,0,0,0,25.2-5.739a1.836,1.836,0,0,0-1.535-.755,1.816,1.816,0,0,0-1.511.745A3.434,3.434,0,0,0,21.581-3.616ZM24.24-10.5h1.531L23.939-8.49l-1.019,0Zm5.585,3.1.041.93a2.7,2.7,0,0,1,2.215-1.066q2.345,0,2.365,2.646V0H33.182V-4.895a1.7,1.7,0,0,0-.366-1.183A1.466,1.466,0,0,0,31.7-6.46a1.825,1.825,0,0,0-1.08.328,2.228,2.228,0,0,0-.725.861V0H28.629V-7.4Z" transform="translate(-4845 -12613)" fill="#12263f"/>
  </g>
</svg>
