<svg xmlns="http://www.w3.org/2000/svg" width="559" height="516" viewBox="0 0 559 516">
  <g id="Grupo_76076" data-name="Grupo 76076" transform="translate(3653.447 10018.803)">
    <path id="Trazado_146075" data-name="Trazado 146075" d="M-3552.834-9753.487v-13.457h431.017v16.316" transform="translate(-27.059 -62)" fill="none" stroke="#707070" stroke-width="1"/>
    <path id="Trazado_146076" data-name="Trazado 146076" d="M-3552.834-9672.074v-94.868h431.017v125.384" transform="translate(-27.059 11.42)" fill="none" stroke="#707070" stroke-width="1"/>
    <line id="Línea_178" data-name="Línea 178" y2="214.579" transform="translate(-3371.639 -9969.737)" fill="none" stroke="#707070" stroke-width="1"/>
    <line id="Línea_179" data-name="Línea 179" x1="17.517" transform="translate(-3389.156 -9864.637)" fill="none" stroke="#707070" stroke-width="1"/>
    <line id="Línea_180" data-name="Línea 180" y2="16.057" transform="translate(-3439.516 -9828.874)" fill="none" stroke="#707070" stroke-width="1"/>
    <line id="Línea_181" data-name="Línea 181" y2="24.085" transform="translate(-3278.217 -9828.874)" fill="none" stroke="#707070" stroke-width="1"/>
    <line id="Línea_182" data-name="Línea 182" y2="138.673" transform="translate(-3439.516 -9755.158)" fill="none" stroke="#707070" stroke-width="1"/>
    <line id="Línea_183" data-name="Línea 183" y2="94.152" transform="translate(-3278.217 -9755.158)" fill="none" stroke="#707070" stroke-width="1"/>
    <path id="Trazado_146077" data-name="Trazado 146077" d="M-3621-9545.951v-13.277h112.32v18.261" transform="translate(-8.644 -119.146)" fill="none" stroke="#707070" stroke-width="1"/>
    <path id="Trazado_146078" data-name="Trazado 146078" d="M-3393-9438.605v-28.656h54.739v28.656" transform="translate(-70.237 -149.049)" fill="none" stroke="#707070" stroke-width="1"/>
    <path id="Trazado_146079" data-name="Trazado 146079" d="M-3215-9533.933v-17.98h113.9v17.98" transform="translate(-118.321 -126.181)" fill="none" stroke="#707070" stroke-width="1"/>
    <path id="Trazado_146080" data-name="Trazado 146080" d="M-2998-9451.935v-33.416h58.713v39.324" transform="translate(-176.942 -144.162)" fill="none" stroke="#707070" stroke-width="1"/>
    <path id="Trazado_146081" data-name="Trazado 146081" d="M-2998-9417.9v46.235h66.512v-50.589" transform="translate(-181.04 -161.207)" fill="none" stroke="#707070" stroke-width="1"/>
    <rect id="Rectángulo_32556" data-name="Rectángulo 32556" width="109" height="48" rx="13" transform="translate(-3426.447 -10018.803)" fill="#81d4fa"/>
    <rect id="Rectángulo_32688" data-name="Rectángulo 32688" width="109" height="50" rx="13" transform="translate(-3426.447 -9956.803)" fill="#81d4fa"/>
    <rect id="Rectángulo_32689" data-name="Rectángulo 32689" width="109" height="49" rx="13" transform="translate(-3499.447 -9888.803)" fill="#81d4fa"/>
    <rect id="Rectángulo_32690" data-name="Rectángulo 32690" width="109" height="48" rx="13" transform="translate(-3620.447 -9810.803)" fill="#81d4fa"/>
    <rect id="Rectángulo_32694" data-name="Rectángulo 32694" width="109" height="50" rx="13" transform="translate(-3620.447 -9736.803)" fill="#81d4fa"/>
    <rect id="Rectángulo_32691" data-name="Rectángulo 32691" width="109" height="48" rx="13" transform="translate(-3491.447 -9810.803)" fill="#81d4fa"/>
    <rect id="Rectángulo_32695" data-name="Rectángulo 32695" width="109" height="50" rx="13" transform="translate(-3491.447 -9736.803)" fill="#81d4fa"/>
    <rect id="Rectángulo_32692" data-name="Rectángulo 32692" width="110" height="48" rx="13" transform="translate(-3333.447 -9810.803)" fill="#81d4fa"/>
    <rect id="Rectángulo_32696" data-name="Rectángulo 32696" width="110" height="50" rx="13" transform="translate(-3333.447 -9736.803)" fill="#81d4fa"/>
    <rect id="Rectángulo_32693" data-name="Rectángulo 32693" width="109" height="48" rx="13" transform="translate(-3203.447 -9810.803)" fill="#81d4fa"/>
    <rect id="Rectángulo_32697" data-name="Rectángulo 32697" width="109" height="50" rx="13" transform="translate(-3203.447 -9736.803)" fill="#81d4fa"/>
    <rect id="Rectángulo_32698" data-name="Rectángulo 32698" width="48" height="47" transform="translate(-3653.447 -9666.803)" fill="#e7eef7"/>
    <rect id="Rectángulo_32703" data-name="Rectángulo 32703" width="46" height="47" transform="translate(-3356.447 -9666.803)" fill="#e7eef7"/>
    <rect id="Rectángulo_32699" data-name="Rectángulo 32699" width="46" height="47" transform="translate(-3597.447 -9666.803)" fill="#e7eef7"/>
    <rect id="Rectángulo_32704" data-name="Rectángulo 32704" width="48" height="47" transform="translate(-3302.447 -9666.803)" fill="#e7eef7"/>
    <rect id="Rectángulo_32701" data-name="Rectángulo 32701" width="45" height="47" transform="translate(-3486.447 -9600.803)" fill="#e7eef7"/>
    <rect id="Rectángulo_32706" data-name="Rectángulo 32706" width="45" height="45" transform="translate(-3194.447 -9609.803)" fill="#e7eef7"/>
    <rect id="Rectángulo_32700" data-name="Rectángulo 32700" width="47" height="47" transform="translate(-3543.447 -9666.803)" fill="#e7eef7"/>
    <rect id="Rectángulo_32705" data-name="Rectángulo 32705" width="46" height="47" transform="translate(-3246.447 -9666.803)" fill="#e7eef7"/>
    <rect id="Rectángulo_32702" data-name="Rectángulo 32702" width="46" height="47" transform="translate(-3431.447 -9600.803)" fill="#e7eef7"/>
    <rect id="Rectángulo_32707" data-name="Rectángulo 32707" width="47" height="45" transform="translate(-3141.447 -9609.803)" fill="#e7eef7"/>
    <rect id="Rectángulo_32708" data-name="Rectángulo 32708" width="47" height="47" transform="translate(-3167.447 -9549.803)" fill="#e7eef7"/>
    <text id="Gerente" transform="translate(-3393.447 -10000.803)" fill="#12263f" font-size="12" font-family="Roboto-Regular, Roboto"><tspan x="0" y="13">Gerente</tspan></text>
    <text id="Presidente" transform="translate(-3375.447 -9930.803)" fill="#12263f" font-size="12" font-family="Roboto-Regular, Roboto"><tspan x="-28.556" y="0">Presidente</tspan></text>
    <text id="Secretaria" transform="translate(-3450.447 -9860.803)" fill="#12263f" font-size="12" font-family="Roboto-Regular, Roboto"><tspan x="-27.062" y="0">Secretaria</tspan></text>
    <text id="RR.HH." transform="translate(-3570.447 -9781.803)" fill="#12263f" font-size="12" font-family="Roboto-Regular, Roboto"><tspan x="-19.102" y="0">RR.HH.</tspan></text>
    <text id="Contabilidad" transform="translate(-3443.447 -9782.803)" fill="#12263f" font-size="12" font-family="Roboto-Regular, Roboto"><tspan x="-33.627" y="0">Contabilidad</tspan></text>
    <text id="Marketing" transform="translate(-3283.447 -9782.803)" fill="#12263f" font-size="12" font-family="Roboto-Regular, Roboto"><tspan x="-26.845" y="0">Marketing</tspan></text>
    <text id="Logística" transform="translate(-3148.447 -9782.803)" fill="#12263f" font-size="12" font-family="Roboto-Regular, Roboto"><tspan x="-24.413" y="0">Logística</tspan></text>
    <text id="Ventas" transform="translate(-3572.447 -9706.803)" fill="#12263f" font-size="12" font-family="Roboto-Regular, Roboto"><tspan x="-18.624" y="0">Ventas</tspan></text>
    <text id="Tesorería" transform="translate(-3442.447 -9706.803)" fill="#12263f" font-size="12" font-family="Roboto-Regular, Roboto"><tspan x="-25.26" y="0">Tesorería</tspan></text>
    <text id="Administrativo" transform="translate(-3279.447 -9706.803)" fill="#12263f" font-size="12" font-family="Roboto-Regular, Roboto"><tspan x="-38.71" y="0">Administrativo</tspan></text>
    <text id="Producción" transform="translate(-3154.447 -9706.803)" fill="#12263f" font-size="12" font-family="Roboto-Regular, Roboto"><tspan x="-30.34" y="0">Producción</tspan></text>
  </g>
</svg>
