<svg xmlns="http://www.w3.org/2000/svg" width="1050.333" height="619.688" viewBox="0 0 1050.333 619.688">
  <g id="Grupo_76117" data-name="Grupo 76117" transform="translate(5170 -5446.838)">
    <g id="Grupo_76116" data-name="Grupo 76116">
      <rect id="Rectángulo_31191" data-name="Rectángulo 31191" width="365.159" height="365.159" transform="translate(-4484.826 5446.838)" fill="#f2eefc"/>
      <rect id="Rectángulo_31193" data-name="Rectángulo 31193" width="365.159" height="365.159" transform="translate(-5170 5701.367)" fill="#f2eefc"/>
      <rect id="Rectángulo_33244" data-name="Rectángulo 33244" width="983" height="547" transform="translate(-5135 5485.815)" fill="#fff"/>
      <path id="Trazado_146088" data-name="Trazado 146088" d="M-3452.524-4917.461v-39.033h414.1v39.033" transform="translate(-1402.529 10706.298)" fill="none" stroke="#707070" stroke-width="1"/>
      <line id="Línea_207" data-name="Línea 207" y2="61.134" transform="translate(-4643.5 5727.788)" fill="none" stroke="#707070" stroke-width="1"/>
      <rect id="Rectángulo_32750" data-name="Rectángulo 32750" width="182" height="81" rx="13" transform="translate(-4733 5653.815)" fill="#81d4fa"/>
      <rect id="Rectángulo_32751" data-name="Rectángulo 32751" width="182" height="80" rx="13" transform="translate(-4940 5778.815)" fill="#81d4fa"/>
      <rect id="Rectángulo_32752" data-name="Rectángulo 32752" width="183" height="80" rx="13" transform="translate(-4735 5778.815)" fill="#81d4fa"/>
      <rect id="Rectángulo_32753" data-name="Rectángulo 32753" width="182" height="80" rx="13" transform="translate(-4529 5778.815)" fill="#81d4fa"/>
      <text id="Director" transform="translate(-4726 5680.815)" fill="#12263f" font-size="14" font-family="Roboto-Regular, Roboto"><tspan x="59.891" y="15">Director</tspan></text>
      <text id="Trabajador" transform="translate(-4933 5805.815)" fill="#12263f" font-size="14" font-family="Roboto-Regular, Roboto"><tspan x="51.018" y="15">Trabajador</tspan></text>
      <text id="Trabajador-2" data-name="Trabajador" transform="translate(-4727 5805.815)" fill="#12263f" font-size="14" font-family="Roboto-Regular, Roboto"><tspan x="51.018" y="15">Trabajador</tspan></text>
      <text id="Trabajador-3" data-name="Trabajador" transform="translate(-4522 5805.815)" fill="#12263f" font-size="14" font-family="Roboto-Regular, Roboto"><tspan x="51.018" y="15">Trabajador</tspan></text>
    </g>
  </g>
</svg>
