<svg xmlns="http://www.w3.org/2000/svg" xmlns:xlink="http://www.w3.org/1999/xlink" width="466.33" height="322.91" viewBox="0 0 466.33 322.91">
  <defs>
    <clipPath id="clip-path">
      <rect id="Rectángulo_33113" data-name="Rectángulo 33113" width="279.304" height="268.368" rx="22.816" fill="none"/>
    </clipPath>
  </defs>
  <g id="Grupo_76135" data-name="Grupo 76135" transform="translate(-7027.241 3329.391)">
    <g id="Grupo_75788" data-name="Grupo 75788" transform="translate(7086.748 -3259.758)">
      <path id="Trazado_147801" data-name="Trazado 147801" d="M1208.037,258.136c-6.221-83.311-83.635-146.575-170.25-143.062-67.326,2.73-138.6,44.442-146.75,115.466-2.712,23.643-10.226,49.833-31.522,62.226-9.108,5.3-19.988,7.145-29.493,11.774-22.871,11.138-34.311,39.668-25.316,62.513l370.857-.02C1199.135,342.163,1210.878,296.187,1208.037,258.136Z" transform="translate(-801.632 -114.935)" fill="#dcdff7"/>
    </g>
    <g id="Grupo_75800" data-name="Grupo 75800" transform="translate(7357.67 -3202.499)">
      <g id="Grupo_75795" data-name="Grupo 75795" transform="translate(0)">
        <g id="Grupo_75790" data-name="Grupo 75790">
          <path id="Trazado_147802" data-name="Trazado 147802" d="M1166.386,327.477c29.927-24.8,43.488-50.581,54.96-87.72,2.5-8.1,4.507-16.548,3.694-24.985s-4.86-16.935-12.128-21.3c-11.526-6.913-27.274-1.032-35.719,9.422s-11.4,24.174-14.1,37.339c-7,34.129-12.7,53.491-7.191,87.892Z" transform="translate(-1152.565 -189.364)" fill="#fff"/>
          <g id="Grupo_75789" data-name="Grupo 75789">
            <path id="Trazado_147803" data-name="Trazado 147803" d="M1166.873,327.967a166.848,166.848,0,0,0,22.065-21.848,147.506,147.506,0,0,0,15.987-23.681,200.026,200.026,0,0,0,12.02-27.176c1.829-5.031,3.51-10.114,5.094-15.227a80.769,80.769,0,0,0,3.93-18.994c.631-10.648-2.812-22.43-12.186-28.509-8.384-5.437-19.179-4.011-27.544.679-9.474,5.313-15.318,14.6-18.962,24.588a124.749,124.749,0,0,0-4.514,16.45c-1.318,6.1-2.546,12.215-3.833,18.319-2.28,10.817-4.557,21.66-5.783,32.657a151.367,151.367,0,0,0,.026,33.48c.349,3.144.782,6.279,1.279,9.4.234,1.469,2.468.845,2.236-.617a158.285,158.285,0,0,1-1.92-34.107,222.082,222.082,0,0,1,4.5-31.058c1.171-5.785,2.415-11.555,3.622-17.332,1.179-5.641,2.265-11.307,3.686-16.893,2.6-10.211,6.479-20.917,14.412-28.238,6.73-6.212,16.7-10.26,25.864-7.87,9.923,2.588,15.649,12.467,16.668,22.159,1.253,11.923-3.055,23.786-6.841,34.9a218.693,218.693,0,0,1-11.13,27.174,150.008,150.008,0,0,1-14.532,23.565,154.1,154.1,0,0,1-19.839,21.406q-2.917,2.628-5.943,5.132c-1.149.954.5,2.586,1.639,1.639Z" transform="translate(-1152.232 -189.033)" fill="#b8b9f1"/>
          </g>
        </g>
        <g id="Grupo_75791" data-name="Grupo 75791" transform="translate(16.934 88.836)">
          <path id="Trazado_147804" data-name="Trazado 147804" d="M1177.162,320.53a1.158,1.158,0,0,1-1.147-1.009l-1.858-14.215a1.159,1.159,0,0,1,2.3-.3l1.858,14.215a1.158,1.158,0,0,1-1,1.3A1.114,1.114,0,0,1,1177.162,320.53Z" transform="translate(-1174.146 -303.996)" fill="#b8b9f1"/>
        </g>
        <g id="Grupo_75792" data-name="Grupo 75792" transform="translate(32.981 38.501)">
          <path id="Trazado_147805" data-name="Trazado 147805" d="M1199.467,260.586a1.16,1.16,0,0,1-1.141-.961l-3.4-19.41a1.159,1.159,0,0,1,2.284-.4l3.4,19.41a1.159,1.159,0,0,1-.942,1.341A1.188,1.188,0,0,1,1199.467,260.586Z" transform="translate(-1194.913 -238.858)" fill="#b8b9f1"/>
        </g>
        <g id="Grupo_75793" data-name="Grupo 75793" transform="translate(31.169 57.724)">
          <path id="Trazado_147806" data-name="Trazado 147806" d="M1193.728,280.811a1.159,1.159,0,0,1-.758-2.036l17.084-14.759a1.159,1.159,0,0,1,1.515,1.755l-17.084,14.759A1.154,1.154,0,0,1,1193.728,280.811Z" transform="translate(-1192.569 -263.733)" fill="#b8b9f1"/>
        </g>
        <g id="Grupo_75794" data-name="Grupo 75794" transform="translate(6.49 23.367)">
          <path id="Trazado_147807" data-name="Trazado 147807" d="M1161.79,326.779a1.159,1.159,0,0,1-.96-1.808c16.871-24.977,40.355-104.072,40.59-104.868a1.159,1.159,0,1,1,2.223.657c-.964,3.264-23.82,80.235-40.893,105.51A1.158,1.158,0,0,1,1161.79,326.779Z" transform="translate(-1160.631 -219.272)" fill="#b8b9f1"/>
        </g>
      </g>
      <g id="Grupo_75799" data-name="Grupo 75799" transform="translate(13.161 35.471)">
        <path id="Trazado_147808" data-name="Trazado 147808" d="M1170.118,337.579c18.24-6.147,45.36-13.239,61.938-23.021s31.423-23.526,39.162-41.151c3.986-9.074,5.785-20.235.28-28.477-4.1-6.145-11.6-9.394-18.971-9.911-15.653-1.1-30.4,8.854-39.488,21.648s-13.6,28.175-18.237,43.167-14.224,15.45-24.185,27.575Z" transform="translate(-1169.458 -234.937)" fill="#f7c45d"/>
        <g id="Grupo_75796" data-name="Grupo 75796" transform="translate(0 22.144)">
          <path id="Trazado_147809" data-name="Trazado 147809" d="M1178.09,338.968a11.564,11.564,0,0,1-1.413-.085,10.157,10.157,0,0,1-7.246-4.36,1.159,1.159,0,0,1,1.984-1.2,7.82,7.82,0,0,0,5.592,3.265c4.626.542,10.484-2.566,16.921-8.979,15.5-15.442,54.925-60.972,57.045-63.586a1.159,1.159,0,1,1,1.8,1.46c-2.126,2.621-41.662,48.278-57.21,63.767C1189.085,335.706,1183.215,338.968,1178.09,338.968Z" transform="translate(-1169.264 -263.594)" fill="#fff"/>
        </g>
        <g id="Grupo_75797" data-name="Grupo 75797" transform="translate(61.781 23.863)">
          <path id="Trazado_147810" data-name="Trazado 147810" d="M1250.375,287.387a1.163,1.163,0,0,1-1.16-1.179l.346-19.25a1.159,1.159,0,0,1,2.318.041l-.346,19.25A1.159,1.159,0,0,1,1250.375,287.387Z" transform="translate(-1249.215 -265.818)" fill="#fff"/>
        </g>
        <g id="Grupo_75798" data-name="Grupo 75798" transform="translate(50.783 53.346)">
          <path id="Trazado_147811" data-name="Trazado 147811" d="M1236.141,312.158a1.159,1.159,0,0,1-.367-2.259l17.558-5.868a1.159,1.159,0,0,1,.735,2.2l-17.558,5.868A1.152,1.152,0,0,1,1236.141,312.158Z" transform="translate(-1234.982 -303.972)" fill="#fff"/>
        </g>
      </g>
    </g>
    <g id="Grupo_75801" data-name="Grupo 75801" transform="translate(7208.823 -3249.754)">
      <rect id="Rectángulo_33109" data-name="Rectángulo 33109" width="168.305" height="232.455" rx="16.316" transform="translate(5.023 5.023)" fill="#b8b9f1"/>
      <path id="Trazado_147812" data-name="Trazado 147812" d="M1120.329,137.926a7.594,7.594,0,0,1,7.585,7.586V352.749a7.594,7.594,0,0,1-7.585,7.586H977.241a7.6,7.6,0,0,1-7.586-7.586V145.512a7.6,7.6,0,0,1,7.586-7.586Zm0-10.046H977.241a17.632,17.632,0,0,0-17.632,17.632V352.749a17.632,17.632,0,0,0,17.632,17.632h143.089a17.631,17.631,0,0,0,17.631-17.632V145.512a17.631,17.631,0,0,0-17.631-17.632Z" transform="translate(-959.609 -127.88)" fill="#7089e5"/>
    </g>
    <g id="Grupo_75812" data-name="Grupo 75812" transform="translate(7366.138 -3120.622)">
      <path id="Trazado_147813" data-name="Trazado 147813" d="M1241.73,383.1l.011-45.714a26.834,26.834,0,0,0-23.709-26.653L1218,300.252l-32.278.1.031,10.534a26.84,26.84,0,0,0-22.552,26.484l-.01,45.714a26.833,26.833,0,0,0,26.828,26.84l24.87.006A26.834,26.834,0,0,0,1241.73,383.1Z" transform="translate(-1163.191 -296.186)" fill="#fff" opacity="0.8"/>
      <path id="Trazado_147814" data-name="Trazado 147814" d="M1216.575,411.045H1189.9c-12.526-.079-22.616-12.473-22.522-27.474l.243-38.465c.058-9.13,4.826-14.768,12.45-14.719l45.978.124c7.625.048,13.676,5.921,13.618,15.051l-.243,38.465C1239.334,399.029,1229.1,411.125,1216.575,411.045Z" transform="translate(-1164.143 -303.034)" fill="#f698b3"/>
      <rect id="Rectángulo_33110" data-name="Rectángulo 33110" width="78.513" height="48.337" transform="translate(0 39.756)" fill="#fef0e5"/>
      <g id="Grupo_75809" data-name="Grupo 75809" transform="translate(26.635 53.952)">
        <path id="Trazado_147815" data-name="Trazado 147815" d="M1218.422,381.583a7.071,7.071,0,1,1-5.306-8.476A7.071,7.071,0,0,1,1218.422,381.583Z" transform="translate(-1199.204 -366.654)" fill="#f7b75d"/>
        <g id="Grupo_75802" data-name="Grupo 75802" transform="translate(7.562 2.521)">
          <path id="Trazado_147816" data-name="Trazado 147816" d="M1210.559,374.733l-3.115-6.66Z" transform="translate(-1207.444 -368.073)" fill="#f7b75d"/>
          <path id="Trazado_147817" data-name="Trazado 147817" d="M1209.159,375.388l-1.715-7.315,4.515,6.006Z" transform="translate(-1207.444 -368.073)" fill="#f7b75d"/>
        </g>
        <g id="Grupo_75803" data-name="Grupo 75803" transform="translate(11.442 0.718)">
          <path id="Trazado_147818" data-name="Trazado 147818" d="M1215.406,372.944l1.467-7.205Z" transform="translate(-1213.134 -365.739)" fill="#f7b75d"/>
          <path id="Trazado_147819" data-name="Trazado 147819" d="M1212.466,372.482l3.738-6.743.8,7.668Z" transform="translate(-1212.466 -365.739)" fill="#f7b75d"/>
        </g>
        <path id="Trazado_147820" data-name="Trazado 147820" d="M1205.649,380.658l-6.616-3.746,7.6.011Z" transform="translate(-1197.971 -367.56)" fill="#f7b75d"/>
        <g id="Grupo_75804" data-name="Grupo 75804" transform="translate(1.954 13.883)">
          <path id="Trazado_147821" data-name="Trazado 147821" d="M1206.943,384.18l-6.755,2.545Z" transform="translate(-1200.188 -383.095)" fill="#f7b75d"/>
          <path id="Trazado_147822" data-name="Trazado 147822" d="M1207.351,384.945l-7.163,1.46,6.346-3.63Z" transform="translate(-1200.188 -382.776)" fill="#f7b75d"/>
        </g>
        <circle id="Elipse_4611" data-name="Elipse 4611" cx="0.798" cy="0.798" r="0.798" transform="translate(14.436)" fill="#f7b75d"/>
        <g id="Grupo_75805" data-name="Grupo 75805" transform="translate(9.331 16.639)">
          <path id="Trazado_147823" data-name="Trazado 147823" d="M1212.1,387.089l-1.83,7.122Z" transform="translate(-1209.855 -386.512)" fill="#f7b75d"/>
          <path id="Trazado_147824" data-name="Trazado 147824" d="M1214.224,387.5l-4.075,6.545-.416-7.7Z" transform="translate(-1209.733 -386.342)" fill="#f7b75d"/>
        </g>
        <path id="Trazado_147825" data-name="Trazado 147825" d="M1207.987,368.017a.8.8,0,1,1-.6-.956A.8.8,0,0,1,1207.987,368.017Z" transform="translate(-1199.648 -365.317)" fill="#f7b75d"/>
        <g id="Grupo_75806" data-name="Grupo 75806" transform="translate(0 8.67)">
          <path id="Trazado_147826" data-name="Trazado 147826" d="M1199.507,377.154a.8.8,0,1,1-.6-.956A.8.8,0,0,1,1199.507,377.154Z" transform="translate(-1197.721 -376.063)" fill="#f7b75d"/>
          <path id="Trazado_147827" data-name="Trazado 147827" d="M1199.821,377.207a1.138,1.138,0,0,1-1.4.794,1.043,1.043,0,0,1-.722-1.282.946.946,0,0,1,1.166-.649.847.847,0,0,1,.576,1.05Zm-.376-.087a.75.75,0,0,0-.62-.862.653.653,0,0,0-.746.547.556.556,0,0,0,.475.631.459.459,0,0,0,.515-.4Z" transform="translate(-1197.659 -376.029)" fill="#f7b75d"/>
        </g>
        <circle id="Elipse_4612" data-name="Elipse 4612" cx="0.798" cy="0.798" r="0.798" transform="translate(8.949 23.54)" fill="#f7b75d"/>
        <path id="Trazado_147828" data-name="Trazado 147828" d="M1200.731,387.417a.8.8,0,1,1-.6-.956A.8.8,0,0,1,1200.731,387.417Z" transform="translate(-1197.999 -369.726)" fill="#f7b75d"/>
        <g id="Grupo_75807" data-name="Grupo 75807" transform="translate(15.772 5.949)">
          <path id="Trazado_147829" data-name="Trazado 147829" d="M1219.328,377.137l5.713-4.629Z" transform="translate(-1218.355 -372.508)" fill="#f7b75d"/>
          <path id="Trazado_147830" data-name="Trazado 147830" d="M1218.069,375.937l6.686-3.429-4.74,5.83Z" transform="translate(-1218.069 -372.508)" fill="#f7b75d"/>
        </g>
        <g id="Grupo_75808" data-name="Grupo 75808" transform="translate(17.806 11.998)">
          <path id="Trazado_147831" data-name="Trazado 147831" d="M1221.086,382.3l7.216,1.417Z" transform="translate(-1220.788 -380.783)" fill="#f7b75d"/>
          <path id="Trazado_147832" data-name="Trazado 147832" d="M1221.3,380.337l6.917,2.934-7.513.1Z" transform="translate(-1220.701 -380.337)" fill="#f7b75d"/>
        </g>
        <path id="Trazado_147833" data-name="Trazado 147833" d="M1219.336,384.627l3.561,6.569-6.366-3.913Z" transform="translate(-1201.948 -369.313)" fill="#f7b75d"/>
        <circle id="Elipse_4613" data-name="Elipse 4613" cx="0.798" cy="0.798" r="0.798" transform="translate(21.66 5.151)" fill="#f7b75d"/>
        <path id="Trazado_147834" data-name="Trazado 147834" d="M1229.343,384.018a.8.8,0,1,0,.956-.6A.8.8,0,0,0,1229.343,384.018Z" transform="translate(-1204.855 -369.034)" fill="#f7b75d"/>
        <path id="Trazado_147835" data-name="Trazado 147835" d="M1223.757,392.715a.8.8,0,1,0,.957-.6A.8.8,0,0,0,1223.757,392.715Z" transform="translate(-1203.585 -371.011)" fill="#f7b75d"/>
        <path id="Trazado_147836" data-name="Trazado 147836" d="M1211.036,377.146a.5.5,0,1,1-.378-.6A.5.5,0,0,1,1211.036,377.146Z" transform="translate(-1200.473 -367.473)" fill="#fef0e5"/>
        <path id="Trazado_147837" data-name="Trazado 147837" d="M1211.179,386.639a.5.5,0,1,1-.378-.6A.5.5,0,0,1,1211.179,386.639Z" transform="translate(-1200.505 -369.631)" fill="#fef0e5"/>
        <path id="Trazado_147838" data-name="Trazado 147838" d="M1218.144,378.113a.5.5,0,1,1-.378-.6A.5.5,0,0,1,1218.144,378.113Z" transform="translate(-1202.088 -367.693)" fill="#fef0e5"/>
        <path id="Trazado_147839" data-name="Trazado 147839" d="M1208.313,382.492a.739.739,0,1,1-.555-.886A.739.739,0,0,1,1208.313,382.492Z" transform="translate(-1199.748 -368.623)" fill="#fef0e5"/>
        <path id="Trazado_147840" data-name="Trazado 147840" d="M1214.233,381.223a.739.739,0,1,1-.555-.886A.74.74,0,0,1,1214.233,381.223Z" transform="translate(-1201.093 -368.334)" fill="#fef0e5"/>
        <path id="Trazado_147841" data-name="Trazado 147841" d="M1217.259,386.91a.739.739,0,1,1-.555-.886A.739.739,0,0,1,1217.259,386.91Z" transform="translate(-1201.781 -369.627)" fill="#fef0e5"/>
      </g>
      <g id="Grupo_75810" data-name="Grupo 75810" transform="translate(21.294 48.504)">
        <path id="Trazado_147842" data-name="Trazado 147842" d="M1208.824,393.9a18.07,18.07,0,1,1,17.608-14.02A18.059,18.059,0,0,1,1208.824,393.9Zm0-33.051a14.985,14.985,0,1,0,3.359.383A15,15,0,0,0,1208.822,360.852Z" transform="translate(-1190.747 -357.759)" fill="#566cd2"/>
      </g>
      <g id="Grupo_75811" data-name="Grupo 75811" transform="translate(28.446 52.55)">
        <rect id="Rectángulo_33111" data-name="Rectángulo 33111" width="32.387" height="3.091" transform="translate(0 26.554) rotate(-55.073)" fill="#566cd2"/>
      </g>
      <rect id="Rectángulo_33112" data-name="Rectángulo 33112" width="36.685" height="7.354" rx="2.129" transform="translate(19.984 0.761) rotate(-1.189)" fill="#f698b3"/>
    </g>
    <g id="Grupo_75838" data-name="Grupo 75838" transform="translate(7105.545 -3285.717)">
      <g id="Grupo_75837" data-name="Grupo 75837" clip-path="url(#clip-path)">
        <g id="Grupo_75814" data-name="Grupo 75814" transform="translate(204.429 153.018)">
          <path id="Trazado_147843" data-name="Trazado 147843" d="M1136.827,538.873l.132,5.3h-18.225s5.973-5.372,8.96-5.372Z" transform="translate(-1096.923 -338.323)" fill="#121f54"/>
          <path id="Trazado_147844" data-name="Trazado 147844" d="M1090.509,280.021l28.724-.659s2.769,8.35,7.927,22.312c5.643,15.275,2.252,31.906,2.917,45,1.005,19.811-7.133,34.835-9.885,39.967a3.02,3.02,0,0,0,.385,3.617c11.235,10.334,14.388,27.437,9.921,89.652l-8.621-.069c-.389-1.629-23.436-82.258-24-87.715-3.274-31.508-3.278-60.36-2.615-71.051C1096.824,295.794,1090.509,280.021,1090.509,280.021Z" transform="translate(-1090.509 -279.362)" fill="#121f54"/>
          <path id="Trazado_147845" data-name="Trazado 147845" d="M1128.519,375.149c.036-.277,2.781-.046,2.848-.316-6.258.171-20.307.538-21.056.408,0,0,.856-8.72-2.057-27.044s-6.119-54.521-6.119-54.521l-3.308.146s3.068,30.692,3.954,38,4.021,39.486,4.266,42.707a22.571,22.571,0,0,1-.065,3.687s13.062.852,20.594-.325A18.485,18.485,0,0,1,1128.519,375.149Z" transform="translate(-1092.399 -282.615)" fill="#322366" opacity="0.5" style="mix-blend-mode: multiply;isolation: isolate"/>
          <g id="Grupo_75813" data-name="Grupo 75813" transform="translate(2.168 43.77)">
            <path id="Trazado_147846" data-name="Trazado 147846" d="M1098.509,405.58a.58.58,0,0,1-.577-.533c-.046-.574-4.616-57.553-4.616-68.462a.58.58,0,0,1,1.159,0c0,10.863,4.567,67.8,4.613,68.37a.58.58,0,0,1-.531.624C1098.54,405.58,1098.525,405.58,1098.509,405.58Z" transform="translate(-1093.315 -336.005)" fill="#fff"/>
          </g>
        </g>
        <g id="Grupo_75815" data-name="Grupo 75815" transform="translate(173.981 150.953)">
          <path id="Trazado_147847" data-name="Trazado 147847" d="M1074.119,538.795l.132,5.3h-18.225s5.973-5.373,8.96-5.373Z" transform="translate(-1052.225 -336.24)" fill="#121f54"/>
          <path id="Trazado_147848" data-name="Trazado 147848" d="M1073,479.244h-8.752c-5.382-39.686-13.7-84.638-13.113-88.467,3.772-24.626,11-43.306,16.369-68.3,3.367-15.69.667-45.784.667-45.784l37.129,3s2.616,17.047,3.061,21.95c6.163,48.342-22.087,77.88-35.665,90.431a1.982,1.982,0,0,0,.162,2.9C1088.962,411.6,1075.58,464.071,1073,479.244Z" transform="translate(-1051.107 -276.689)" fill="#121f54"/>
        </g>
        <g id="Grupo_75816" data-name="Grupo 75816" transform="translate(152.842 97.034)">
          <path id="Trazado_147849" data-name="Trazado 147849" d="M1069.642,206.913s-8.236,1.6-13.6,14.594c-4.052,9.821-6.295,16.447-6.295,16.447s-8.376-.387-26,8.137l3.786,4.48s28.75,4.209,35.086-4.844S1079.172,209.336,1069.642,206.913Z" transform="translate(-1023.75 -206.913)" fill="#fff"/>
        </g>
        <g id="Grupo_75823" data-name="Grupo 75823" transform="translate(173.982 93.507)">
          <g id="Grupo_75817" data-name="Grupo 75817" transform="translate(11.525 2.704)">
            <path id="Trazado_147850" data-name="Trazado 147850" d="M1113.515,269.871s.74-10.988,1.756-20.44c1.729-16.086,6.131-36.765.016-40.315-6.648-3.86-11.174-3.627-33.282-2.684-6.829.291-9.888,4.344-11.625,10.532a32,32,0,0,0-.988,5.6c-1.212,8.239-6.63,8.288-.5,21.376,4.575,9.775,4.62,27.687,4.62,27.687,10.052,3.5,18.626,2.608,28.995.572Z" transform="translate(-1066.022 -205.847)" fill="#b8b9f1"/>
            <path id="Trazado_147851" data-name="Trazado 147851" d="M1094.742,238.828s3.706-11.52,3.015-9.7-8.994,15.238-24.9,19.943l4.451,22.063,19.473,9.6.328-25.171Z" transform="translate(-1067.576 -211.093)" fill="#b8b9f1" opacity="0.5" style="mix-blend-mode: multiply;isolation: isolate"/>
          </g>
          <g id="Grupo_75819" data-name="Grupo 75819" transform="translate(37.59)">
            <path id="Trazado_147852" data-name="Trazado 147852" d="M1108.214,202.348s-9.247,24.635-8.408,39.871,8.4,86.01,9.792,96.748.527,15.558.527,15.558,24.532.468,27.167-1.19c0,0,1.119-23.2-.216-38.557-2.846-32.753-13.192-38.891-14.389-51.288-.44-4.568,2.729-18.979,4.167-27.224,1.947-11.162.5-26.955-6.173-29.713A99.614,99.614,0,0,0,1108.214,202.348Z" transform="translate(-1099.752 -202.348)" fill="#fff"/>
            <g id="Grupo_75818" data-name="Grupo 75818" transform="translate(1.887 1.052)">
              <path id="Trazado_147853" data-name="Trazado 147853" d="M1102.774,245.8a.561.561,0,0,1-.072,0,.579.579,0,0,1-.5-.647c.515-4.113,5.862-24.25,6.536-26.779l-2.314-4.038,4.85-2.928-1.049-7.03a.58.58,0,0,1,1.147-.172l1.162,7.795-4.541,2.741,1.988,3.469-.062.23c-.061.226-6.04,22.636-6.568,26.855A.58.58,0,0,1,1102.774,245.8Z" transform="translate(-1102.194 -203.71)" fill="#b8b9f1"/>
            </g>
          </g>
          <g id="Grupo_75822" data-name="Grupo 75822" transform="translate(0 3.615)">
            <path id="Trazado_147854" data-name="Trazado 147854" d="M1076.437,207.026s-8.116,17.088-4.244,49.152c2.967,24.557-11.331,91.182-10.372,99.471h-10.713s8.22-41.045,12.821-62.769,5.56-37.437,2.4-45.693c-2.056-5.37-4.01-9.431-3.734-13.455.238-3.465,2.473-6.685,2.773-8.485C1067.419,212.923,1067.752,209.181,1076.437,207.026Z" transform="translate(-1051.107 -207.026)" fill="#fff"/>
            <g id="Grupo_75820" data-name="Grupo 75820" transform="translate(17.884 0.899)">
              <path id="Trazado_147855" data-name="Trazado 147855" d="M1076.88,243.973a.578.578,0,0,1-.56-.437c-2.09-8.226-2.07-22.489-2.069-23.093v-.207l2.543-3.086-1.882-2.257,4.15-6.438a.58.58,0,1,1,.974.628l-3.689,5.722,1.953,2.341-2.891,3.507c.005,1.81.113,15.041,2.032,22.6a.58.58,0,0,1-.419.7A.609.609,0,0,1,1076.88,243.973Z" transform="translate(-1074.251 -208.189)" fill="#b8b9f1"/>
            </g>
            <g id="Grupo_75821" data-name="Grupo 75821" transform="translate(10.663 14.252)" style="mix-blend-mode: multiply;isolation: isolate">
              <path id="Trazado_147856" data-name="Trazado 147856" d="M1070.938,258.366a.581.581,0,0,1-.563-.444c-.024-.1-2.436-10.081-4.219-13.668-1.928-3.88-1.442-6.733.211-10.953a34.463,34.463,0,0,0,2.2-7.831l.581.036.572.1a36.047,36.047,0,0,1-2.27,8.122c-1.561,3.987-2,6.5-.251,10.014,1.84,3.7,4.208,13.5,4.308,13.913a.58.58,0,0,1-.427.7A.6.6,0,0,1,1070.938,258.366Z" transform="translate(-1064.906 -225.47)" fill="#b8b9f1"/>
            </g>
          </g>
        </g>
        <g id="Grupo_75827" data-name="Grupo 75827" transform="translate(181.331 53.045)">
          <path id="Trazado_147857" data-name="Trazado 147857" d="M1066.792,161.421s-6.494,4.034-6.162,10.835c.155,3.155,4.714,12.021,9.454,11.3S1080.68,156.881,1066.792,161.421Z" transform="translate(-1060.618 -152.465)" fill="#121f54"/>
          <g id="Grupo_75826" data-name="Grupo 75826" transform="translate(12.759 17.792)">
            <path id="Trazado_147858" data-name="Trazado 147858" d="M1092.656,182.643s4.469,9.647,7.267,12.04c0,0-3.318,6.715-10.991,7.774-6.421.886-6.339-3.284-6.339-3.284l-4.962-20.088C1075.226,178.392,1081.657,163.723,1092.656,182.643Z" transform="translate(-1077.129 -173.012)" fill="#ea759c"/>
            <g id="Grupo_75824" data-name="Grupo 75824" transform="translate(11.417 20.934)">
              <path id="Trazado_147859" data-name="Trazado 147859" d="M1103.039,200.6s-6.029,7.41-10.635,8.126l3.612,4.1,12.7-10.041Z" transform="translate(-1092.018 -200.215)" fill="#b8b9f1"/>
              <path id="Trazado_147860" data-name="Trazado 147860" d="M1095.9,213.1a.385.385,0,0,1-.29-.131l-3.612-4.1a.387.387,0,0,1,.23-.637c4.406-.685,10.335-7.915,10.395-7.988a.388.388,0,0,1,.439-.117l5.68,2.187a.388.388,0,0,1,.243.3.384.384,0,0,1-.143.361l-12.7,10.041A.38.38,0,0,1,1095.9,213.1Zm-2.887-4.251,2.935,3.334,11.885-9.394-4.789-1.844C1102.041,202.144,1097.186,207.716,1093.015,208.852Z" transform="translate(-1091.905 -200.102)" fill="#fff"/>
            </g>
            <g id="Grupo_75825" data-name="Grupo 75825" transform="translate(2.687 25.898)">
              <path id="Trazado_147861" data-name="Trazado 147861" d="M1089.837,210.187a6.057,6.057,0,0,1-6.582-3.161l-2.147,1.8,2.8,6.424Z" transform="translate(-1080.721 -206.64)" fill="#b8b9f1"/>
              <path id="Trazado_147862" data-name="Trazado 147862" d="M1083.793,215.522a.367.367,0,0,1-.087-.01.385.385,0,0,1-.267-.222l-2.8-6.424a.386.386,0,0,1,.106-.451l2.147-1.8a.387.387,0,0,1,.579.1c2.389,3.94,6,3.03,6.15,2.988a.386.386,0,0,1,.352.667l-5.929,5.061A.381.381,0,0,1,1083.793,215.522Zm-2.33-6.7,2.476,5.681,4.6-3.926a6.5,6.5,0,0,1-5.486-3.086Z" transform="translate(-1080.607 -206.527)" fill="#fff"/>
            </g>
          </g>
          <path id="Trazado_147863" data-name="Trazado 147863" d="M1091.638,182.268c-1.473,5.445-7.722,10.852-11.683,11.831-2.192.542-4.372.47-5.819-.869-5.359-4.961-7.376-20.066-5.964-25.138s6.654-14.521,15.6-10.862S1094.3,169.4,1093.4,176.6C1093.089,179.075,1092.089,180.6,1091.638,182.268Z" transform="translate(-1062.236 -151.446)" fill="#f698b3"/>
          <path id="Trazado_147864" data-name="Trazado 147864" d="M1094.4,150.153c-4.487-1.219-8.173,4.67-8.173,4.67l.6.054s-.421,8.693,6.449,7.711S1098.884,151.372,1094.4,150.153Z" transform="translate(-1066.438 -149.987)" fill="#121f54"/>
          <path id="Trazado_147865" data-name="Trazado 147865" d="M1066.957,157.6a9.847,9.847,0,0,0-1.011,11.59c1.3,1.97,3.976,4.031,15.377,4.739,6.485.4,10.473,8.319,10.473,8.319l2.709-7.233a16.039,16.039,0,0,0-11.089-21.232C1077.719,152.391,1071.581,152.7,1066.957,157.6Z" transform="translate(-1061.504 -150.686)" fill="#121f54"/>
          <path id="Trazado_147866" data-name="Trazado 147866" d="M1090.294,183.112s.714-3.8,2.389-4.168,3.332,1.6,2.682,4.16-1.169,5.017-3.582,4.415C1090.568,187.216,1090.294,183.112,1090.294,183.112Z" transform="translate(-1067.362 -156.558)" fill="#f698b3"/>
        </g>
        <g id="Grupo_75834" data-name="Grupo 75834" transform="translate(37.928 13.181)">
          <path id="Trazado_147867" data-name="Trazado 147867" d="M1099.886,296.688l-5.35,5.385a2.91,2.91,0,0,1-3.707,0l-94.811-71.9a2.112,2.112,0,0,1-.517-3.207l5.35-5.385a2.91,2.91,0,0,1,3.707,0l94.812,71.9A2.113,2.113,0,0,1,1099.886,296.688Z" transform="translate(-902.295 -126.243)" fill="#2748b3"/>
          <g id="Grupo_75833" data-name="Grupo 75833">
            <ellipse id="Elipse_4614" data-name="Elipse 4614" cx="55.863" cy="56.792" rx="55.863" ry="56.792" transform="translate(0 111.514) rotate(-86.465)" fill="#fff" opacity="0.4"/>
            <g id="Grupo_75831" data-name="Grupo 75831" transform="translate(3.034 3.111)">
              <g id="Grupo_75830" data-name="Grupo 75830">
                <g id="Grupo_75828" data-name="Grupo 75828" transform="translate(86.224 8.032)">
                  <path id="Trazado_147868" data-name="Trazado 147868" d="M992.946,114.584l-1.992-1.246c.561.335,1.1.689,1.649,1.039Z" transform="translate(-990.641 -112.936)" fill="#566cd2"/>
                  <path id="Trazado_147869" data-name="Trazado 147869" d="M992.962,114.867l-.768-.467-.3-.192-.192-.12c-.314-.2-.548-.343-.72-.456l-.27-.164c-.216-.192-.183-.251-.1-.391l.145-.26.256.153c.406.243.8.495,1.2.749.235.148.416.262.554.353l.24.143c.215.193.182.251.1.391Z" transform="translate(-990.549 -112.818)" fill="#b8b9f1"/>
                </g>
                <g id="Grupo_75829" data-name="Grupo 75829">
                  <path id="Trazado_147870" data-name="Trazado 147870" d="M986.225,185.1a55.4,55.4,0,0,0-18.986-73.12c-.424-.254-1.026-.617-1.664-1l.015-.042-.018.04c-1.038-.619-2.144-1.273-2.646-1.538-27.657-14.6-62.067-4.412-76.857,22.768a55.438,55.438,0,0,0,20.638,74.16q1.3.777,2.661,1.5C937.026,222.468,971.436,212.275,986.225,185.1Zm-37.81,13.391a42.657,42.657,0,0,1-32.209-3.191c-.672-.355-1.342-.732-1.992-1.12a41.25,41.25,0,0,1-15.357-55.215c11-20.206,36.669-27.811,57.23-16.953.568.3,2.97,1.762,4.1,2.444,18.816,11.573,23.766,34.568,13.251,53.892A41.748,41.748,0,0,1,948.415,198.487Z" transform="translate(-879.053 -102.504)" fill="#2748b3"/>
                  <path id="Trazado_147871" data-name="Trazado 147871" d="M936.08,214.721a57.546,57.546,0,0,1-26.934-6.68c-.9-.478-1.8-.983-2.674-1.5a55.693,55.693,0,0,1-20.743-74.547c14.842-27.275,49.5-37.54,77.247-22.885.416.219,1.286.725,2.659,1.545l-.126.211s.129-.209.129-.209l1.664,1a56.19,56.19,0,0,1,24.017,32.983,55.123,55.123,0,0,1-4.925,40.523l-.254-.138.254.138A57.142,57.142,0,0,1,936.08,214.721ZM936.04,103a56.559,56.559,0,0,0-49.8,29.264,55.118,55.118,0,0,0,20.532,73.773c.862.515,1.753,1.016,2.647,1.488a57.025,57.025,0,0,0,76.468-22.65c13.684-25.148,5.388-57.1-18.889-72.737l-1.861-1.114c-1.248-.745-2.044-1.206-2.43-1.41A56.985,56.985,0,0,0,936.04,103Zm.051,97.479a42.958,42.958,0,0,1-20.105-5.009c-.671-.354-1.346-.733-2.007-1.127a41.539,41.539,0,0,1-15.461-55.6c11.07-20.345,36.921-28,57.618-17.071.508.267,2.406,1.418,3.663,2.18l.45.272c18.622,11.454,24.238,34.28,13.355,54.278a42.03,42.03,0,0,1-25.194,20.283A43.329,43.329,0,0,1,936.091,200.481Zm-.046-83.214a42.037,42.037,0,0,0-37.018,21.752,40.962,40.962,0,0,0,15.25,54.829c.651.388,1.318.763,1.98,1.112a42.364,42.364,0,0,0,31.99,3.169,41.456,41.456,0,0,0,24.85-20c10.73-19.717,5.2-42.22-13.148-53.506l-.448-.271c-1.175-.712-3.14-1.9-3.633-2.163A42.362,42.362,0,0,0,936.044,117.268Z" transform="translate(-878.967 -102.424)" fill="#b8b9f1"/>
                </g>
              </g>
            </g>
            <g id="Grupo_75832" data-name="Grupo 75832" transform="translate(70.801 31.796)" opacity="0.5">
              <path id="Trazado_147872" data-name="Trazado 147872" d="M987.363,179.371a2.379,2.379,0,0,1-.433-.04,2.319,2.319,0,0,1-1.846-2.71c4.341-22.9-16.162-32.248-17.037-32.634a2.318,2.318,0,0,1,1.862-4.246c.249.109,24.769,11.163,19.73,37.744A2.318,2.318,0,0,1,987.363,179.371Z" transform="translate(-966.663 -139.546)" fill="#b8b9f1"/>
            </g>
          </g>
        </g>
        <path id="Trazado_147873" data-name="Trazado 147873" d="M1022.739,255.436c-.24-.09-.4,1.662.723,2.7a4.089,4.089,0,0,1,.622,1.286,1.637,1.637,0,0,0,1.044,1.055c-.291.3.842,1.431,1.318,1.4a3.252,3.252,0,0,0,1.34.751,4.788,4.788,0,0,0,1.556-.166,4.538,4.538,0,0,0,2.03-.882c.719-.566,1.43-1.576.931-1.964s-1.58.349-1.58.349,1.737-1.64,1.22-2.354-2.288.642-2.288.642,2.083-1.7,1.936-2.428-2.429.191-3.256,1.132c0,0,1.991-1.612,1.634-2.293s-1.615-.127-2.435.537S1023.6,255.76,1022.739,255.436Z" transform="translate(-870.639 -120.658)" fill="#f698b3"/>
        <g id="Grupo_75836" data-name="Grupo 75836" transform="translate(163.351 98.024)">
          <path id="Trazado_147874" data-name="Trazado 147874" d="M1054.427,264.271s-5.442-1.41-5.831-1.123c-1.436,1.06-2.146,2.715-3.994,3.15a28.739,28.739,0,0,1-5.587.865c-2.9.195-1.614,1.985.832,1.977,0,0-2.056.207-1.031,1.631a11.75,11.75,0,0,0,2.153.867s-1.3.854,1.9,1.74c0,0-.112.326,1.552.991a7.391,7.391,0,0,0,5.319.134c2.025-.753,6.673-2.7,6.673-2.7Z" transform="translate(-1037.35 -220.674)" fill="#f698b3"/>
          <path id="Trazado_147875" data-name="Trazado 147875" d="M1118.175,252.019a11.81,11.81,0,0,1-17.763,4.1c-2.742-2.19-3.5-4.93-.614-10.983.411-.863,4.963-12.8,4.963-12.8,1.67-5.257,2.941-10.029,5.286-15.022,2.579-5.493,6.295-10.536,10-8.761,9.733,4.66,7.008,14.778,1.5,33.626A59.991,59.991,0,0,1,1118.175,252.019Z" transform="translate(-1051.125 -208.193)" fill="#fff"/>
          <path id="Trazado_147876" data-name="Trazado 147876" d="M1099.3,270.851a205.192,205.192,0,0,1-39.693-.038L1058.4,260.8s20.207-4.914,31.556-7.767c4.52-1.137,10.794-2.087,14.91.1,3.319,1.763,4.347,2.443,4.718,4.759A11.434,11.434,0,0,1,1099.3,270.851Z" transform="translate(-1042.134 -218.107)" fill="#fff"/>
          <path id="Trazado_147877" data-name="Trazado 147877" d="M1046.482,258.076c-.62-.173-2.207-.04-1.619,1.056.792,1.477,3.475,2.945,4.038,4.908.241.84,2.41-1.1,2.41-1.1l2.848-.075c-.461-.8-2.871-3.153-4.109-3.291Z" transform="translate(-1039.028 -219.515)" fill="#f698b3"/>
          <g id="Grupo_75835" data-name="Grupo 75835" transform="translate(15.63 8.544)">
            <path id="Trazado_147878" data-name="Trazado 147878" d="M1084.274,265.079c-10.858,0-24.109-1.027-24.9-1.089l-.473-.037-1.323-10.994.5-.124c1.229-.306,29.336-7.313,32.9-8.088a30,30,0,0,0,1.171-3.047c1.163-3.341,8.107-21.886,8.176-22.073a.58.58,0,0,1,1.086.406c-.07.187-7.009,18.72-8.168,22.048-1.25,3.59-1.464,3.752-1.85,3.763-2.342.471-28.586,7.006-32.543,7.992l1.087,9.034c3.7.275,27.9,1.985,35.685.328,11.567-2.466,12.048-4.151,15.79-17.268l.4-1.395a.579.579,0,1,1,1.114.319l-.4,1.394c-3.827,13.41-4.415,15.472-16.663,18.082A64.247,64.247,0,0,1,1084.274,265.079Z" transform="translate(-1057.577 -219.25)" fill="#b8b9f1"/>
          </g>
        </g>
      </g>
    </g>
    <g id="Grupo_75850" data-name="Grupo 75850" transform="translate(7085.975 -3153.134)">
      <g id="Grupo_75839" data-name="Grupo 75839" transform="translate(62.696 25.171)">
        <path id="Trazado_147879" data-name="Trazado 147879" d="M896.2,309.559c-3.913,2.774-4.614,7.364-.977,10.493a2.661,2.661,0,0,0,.977.647c4.916,1.135,14.647-14.357,16.58-20.922s-.6-4.435-.6-4.435S902.2,305.3,896.2,309.559Z" transform="translate(-884.284 -287.653)" fill="#f698b3"/>
        <path id="Trazado_147880" data-name="Trazado 147880" d="M887.978,288.483s3.873,1.086,7.375,14.349c1.756,6.649,2.6,10.145,3.007,11.98a3.662,3.662,0,0,1-2.275,4.276c-1.628.562-3.863-.027-6.291-4.625C884.939,305.267,881.773,289.937,887.978,288.483Z" transform="translate(-882.397 -286.17)" fill="#f698b3"/>
        <path id="Trazado_147881" data-name="Trazado 147881" d="M894.1,299.724s-5.407,2.637-6.911,4.253c-1.26,1.354-3.562-.676-3.913-.58s-4.235-12.535,2.038-14.678S894.1,299.724,894.1,299.724Z" transform="translate(-881.767 -286.17)" fill="#f7e3d5"/>
        <path id="Trazado_147882" data-name="Trazado 147882" d="M917.13,300.3a14.792,14.792,0,0,1,2.535-5.011c1.178-1.294,2.453-2.074,3.314-3.719a9.3,9.3,0,0,0,1.014-4.381c0-.611.138-1.935-.751-1.658-.529.165-1.246,1.579-1.423,2.084-.511,1.461-.386,2.657-2.117,3.112.018-.932.607-1.481-.314-2.271-.989-.85-1.38,2.466-1.868,3.48a6.882,6.882,0,0,0-.1,6.789Z" transform="translate(-889.677 -285.489)" fill="#f698b3"/>
      </g>
      <g id="Grupo_75841" data-name="Grupo 75841" transform="translate(0 63.57)">
        <path id="Trazado_147883" data-name="Trazado 147883" d="M888.311,335.182c.542,4.175,1.787,6.163,2.739,13.827a262.379,262.379,0,0,1,1.816,31.7,10.685,10.685,0,0,1-.359,2.733c-1.743,11.693-2.047,16.163-3.087,30.707h-5.338c-1.273-10.648-4.043-21.4-3.154-29.425a12.56,12.56,0,0,0-.182-4.015c-.583-2.994-6.959-18.907-7.237-20.638-1.984-12.365,2.049-9.9,2.089-23.328Z" transform="translate(-817.07 -335.182)" fill="#f698b3"/>
        <g id="Grupo_75840" data-name="Grupo 75840" transform="translate(0 81.538)">
          <path id="Trazado_147884" data-name="Trazado 147884" d="M1188.427,442.246H801.4a.773.773,0,0,1,0-1.545h387.022a.773.773,0,1,1,0,1.545Z" transform="translate(-800.632 -440.7)" fill="#b8b9f1"/>
        </g>
        <path id="Trazado_147885" data-name="Trazado 147885" d="M887.3,437.372l-.073,3.188h10.286s-3.371-3.188-5.057-3.188Z" transform="translate(-820.311 -358.406)" fill="#2748b3"/>
      </g>
      <g id="Grupo_75842" data-name="Grupo 75842" transform="translate(43.239 63.247)">
        <path id="Trazado_147886" data-name="Trazado 147886" d="M865.079,437.372l-.073,3.188h10.286s-3.371-3.188-5.057-3.188Z" transform="translate(-858.501 -358.083)" fill="#2748b3"/>
        <path id="Trazado_147887" data-name="Trazado 147887" d="M874.813,336.647c.206,16.96-1.222,21.2-.394,30.811a71.421,71.421,0,0,1-.554,14.766,52.686,52.686,0,0,0-.9,5.585c-2.113,12.807-3.144,16.567-4.354,26.245h-5.444c-.081-8.025-3.038-17.64-2.185-27.979.476-5.762,1.1-2.664,1.177-6.363.007-.326-5.49-18.6-5.568-26.136-.086-8.311,2.459-12.262,4.918-18.812Z" transform="translate(-856.587 -334.764)" fill="#f698b3"/>
      </g>
      <g id="Grupo_75844" data-name="Grupo 75844" transform="translate(42.677 26.306)">
        <path id="Trazado_147888" data-name="Trazado 147888" d="M884.425,324.223c-.419.383-7.822,1.412-7.822,1.412-6.039.532-14.308-1.412-15.809-2.51-.98-3.465-1.022-9.947-2.186-13.667-2.284-7.295-3.1-15.7-2.609-17.178,1.479-4.455,6.05-5.486,12.566-5.3,9.078.258,8.625-.3,12.9,1.158,3.881,1.325,3.65,16.579,3.143,29.757C884.584,318.425,884.476,323.77,884.425,324.223Z" transform="translate(-855.861 -286.958)" fill="#f7e3d5"/>
        <g id="Grupo_75843" data-name="Grupo 75843" transform="translate(5.096 7.364)">
          <path id="Trazado_147889" data-name="Trazado 147889" d="M874.391,328.335a34.632,34.632,0,0,1-11.68-1.906.387.387,0,0,1,.261-.728c10.03,3.609,20.569.96,22.517.412-.457-3.286.09-11.687.5-16.279a85.725,85.725,0,0,0-.378-12.919.386.386,0,1,1,.768-.081,86.636,86.636,0,0,1,.379,13.069c-.422,4.723-.991,13.5-.454,16.415a.387.387,0,0,1-.264.438A42.975,42.975,0,0,1,874.391,328.335Z" transform="translate(-862.455 -296.488)" fill="#fff"/>
        </g>
        <path id="Trazado_147890" data-name="Trazado 147890" d="M859.836,311.121s1.339,4.362,2.231,4.622,11.042,6.948,12.579,6.869c0,0,.632,3.963-4.6,4.241s-8.643.765-8.643.765l-2.8-16.5Z" transform="translate(-856.483 -292.449)" fill="#fef0e5" opacity="0.5" style="mix-blend-mode: multiply;isolation: isolate"/>
      </g>
      <path id="Trazado_147891" data-name="Trazado 147891" d="M861.066,335.182s-7.1,11.2-6.442,19.325-1.058,14.984-.886,16.608,1.78-1.383,3.776,0,5.747,2.322,6.993,1.7,7.458-.6,8.324.194,3.422,2.436,5.811,1.353S884.387,374,886.4,374s5.331-2.467,5.331-2.467-1.985-28.793-7.772-35.941C883.958,335.6,871.131,339.252,861.066,335.182Z" transform="translate(-812.698 -271.612)" fill="#121f54"/>
      <g id="Grupo_75846" data-name="Grupo 75846" transform="translate(46.733)">
        <g id="Grupo_75845" data-name="Grupo 75845" transform="translate(6.065 6.625)">
          <path id="Trazado_147892" data-name="Trazado 147892" d="M879.173,270.679s-.328,7.605.644,10.861a1.318,1.318,0,0,1-.595,1.528,10.82,10.82,0,0,1-7.765,1.039c-3.266-.681-2.394-3.016-2.394-3.016l.339-15.208C867.884,264.787,875.886,254.107,879.173,270.679Z" transform="translate(-868.957 -261.489)" fill="#ea759c"/>
        </g>
        <path id="Trazado_147893" data-name="Trazado 147893" d="M881.375,267.161c.923,4.161-.318,9.153-1.966,11.244-.931,1.182-3.446,1.248-4.844.94-5.517-1.216-12.412-11.158-12.589-15.019s3.077-10.372,10.1-9.883S880.912,265.072,881.375,267.161Z" transform="translate(-861.304 -253.257)" fill="#f698b3"/>
        <path id="Trazado_147894" data-name="Trazado 147894" d="M870.167,254.576c-.151,2.083,4.621,6.452,6.2,7.446,1.62,1.017,2.988.317,4.514,1.872,1.4,1.424,1.828.366,2.569,4.463a15.676,15.676,0,0,1-.487,6.057c1.491-3.426,1.654-4.476,1.321-8.41a23.441,23.441,0,0,0-1.026-5.11c-.983-3-3.057-5.908-5.364-7.187s-6.652-1.022-7.73.869Z" transform="translate(-863.167 -252.916)" fill="#121f54"/>
        <path id="Trazado_147895" data-name="Trazado 147895" d="M861.839,268.235c-.739-3.073-1.286-6.88.258-9.577s5.266-6.085,7.678-3.041c1.578,1.447,8.911,3.344,8.611,5.516-.567,4.085-9.494,7.526-10.082,9.664-.489,1.779-.5.423-.789,2.035-.244,1.386,2.484,3.246,2.091,6.513C868.161,276.452,862.888,272.591,861.839,268.235Z" transform="translate(-861.109 -253.257)" fill="#121f54"/>
        <path id="Trazado_147896" data-name="Trazado 147896" d="M869.767,274.138s-.785-1.606-1.953-1.322-.863,3.325,1.185,3.882S869.767,274.138,869.767,274.138Z" transform="translate(-862.479 -257.431)" fill="#f698b3"/>
      </g>
      <g id="Grupo_75849" data-name="Grupo 75849" transform="translate(34.578 27.126)">
        <path id="Trazado_147897" data-name="Trazado 147897" d="M858.961,290.259c-.894-1.317-.913-1.766-1.875-1.665-3.858.4-6.293,2.563-9.451,12.666-2.865,9.165-3.236,14.232.269,16.428,4.212,2.64,5.138-1.312,8.929-11.69C860.2,296.774,860.3,292.23,858.961,290.259Z" transform="translate(-845.379 -288.147)" fill="#f698b3"/>
        <g id="Grupo_75847" data-name="Grupo 75847" transform="translate(25.452 24.164)">
          <path id="Trazado_147898" data-name="Trazado 147898" d="M890.483,328.348a3.492,3.492,0,1,1-3.472-3.87A3.688,3.688,0,0,1,890.483,328.348Z" transform="translate(-879.504 -320.469)" fill="#f25e77"/>
          <path id="Trazado_147899" data-name="Trazado 147899" d="M886.341,323.195a4.688,4.688,0,0,1,4.555,4.578,4.57,4.57,0,0,1-4.284,4.891l-.153,0a4.688,4.688,0,0,1-4.555-4.578,4.57,4.57,0,0,1,4.284-4.892l.153,0Zm0-.58c-.058,0-.115,0-.173,0a4.9,4.9,0,0,0-3.443,1.595,5.349,5.349,0,0,0-1.4,3.9,5.245,5.245,0,0,0,5.134,5.132c.058,0,.115,0,.173,0a4.891,4.891,0,0,0,3.443-1.595,5.346,5.346,0,0,0,1.4-3.9,5.245,5.245,0,0,0-5.134-5.132Z" transform="translate(-878.999 -320.046)" fill="#f25e77"/>
          <path id="Trazado_147900" data-name="Trazado 147900" d="M890.65,321.1a1.114,1.114,0,0,1,.305-.107,7.366,7.366,0,0,0-4.7-1.7c-.085,0-.171,0-.257,0a7.243,7.243,0,0,0-5.062,2.325c-.125.134-.239.277-.354.42.2.056.411.092.614.155a1.416,1.416,0,0,1,.391.2,6.245,6.245,0,0,1,4.447-2.112c.074,0,.148,0,.221,0a6.317,6.317,0,0,1,3.9,1.392A1.429,1.429,0,0,1,890.65,321.1Z" transform="translate(-878.831 -319.29)" fill="#f25e77"/>
          <path id="Trazado_147901" data-name="Trazado 147901" d="M896.392,329.389a1.109,1.109,0,0,1-.309-.154,6.9,6.9,0,0,1-1.2,4.148,1.347,1.347,0,0,1,.649.178l.271.206c.012.011.013.026.024.037a8.04,8.04,0,0,0,1.251-4.445A1.464,1.464,0,0,1,896.392,329.389Z" transform="translate(-882.082 -321.55)" fill="#f25e77"/>
          <path id="Trazado_147902" data-name="Trazado 147902" d="M888.761,337.3a6.1,6.1,0,0,1-1.944.42c-.074,0-.148,0-.221,0a6.4,6.4,0,0,1-4.507-1.894.721.721,0,0,1-.123.081c-.047.022-.089.053-.133.079a5.645,5.645,0,0,0-.5.519,7.4,7.4,0,0,0,5.26,2.207c.085,0,.171,0,.256,0a7.17,7.17,0,0,0,2.481-.558Q889.056,337.727,888.761,337.3Z" transform="translate(-879.003 -323.05)" fill="#f25e77"/>
          <path id="Trazado_147903" data-name="Trazado 147903" d="M879.913,331.392a7.169,7.169,0,0,1-.584-2.527,7.091,7.091,0,0,1,.389-2.673c-.319-.094-.641-.175-.964-.254a8.1,8.1,0,0,0-.43,2.971,8.205,8.205,0,0,0,.765,3.113A2.622,2.622,0,0,1,879.913,331.392Z" transform="translate(-878.317 -320.801)" fill="#f25e77"/>
        </g>
        <path id="Trazado_147904" data-name="Trazado 147904" d="M869.084,322.557c1.059.54,2.137,1,2.667,1.221a6.656,6.656,0,0,0,1.538-.08,8.209,8.209,0,0,1,4.254,1.066c2.2,1.158,4.88.677,4.364,2.015s-3.347,2.4-5.479,1.866a22.515,22.515,0,0,0-4.531-.472,27.822,27.822,0,0,0-3.938-.471,74.9,74.9,0,0,1-13.778-1.261c-4.646-1.005-7.244-3.227-8.082-5.072a3.408,3.408,0,0,1,.787-3.719C852.631,313.89,861.026,318.447,869.084,322.557Z" transform="translate(-845.488 -294.435)" fill="#f698b3"/>
        <path id="Trazado_147905" data-name="Trazado 147905" d="M858.252,303.768a21.785,21.785,0,0,0-6.034-2.9c-1.8-.423-4.187-1.073-5.558-1.447,0,0,6.928-13.778,13.028-11.047S858.252,303.768,858.252,303.768Z" transform="translate(-845.67 -288.019)" fill="#f7e3d5"/>
        <g id="Grupo_75848" data-name="Grupo 75848" transform="translate(0.603 9.673)">
          <path id="Trazado_147906" data-name="Trazado 147906" d="M858.137,307a.384.384,0,0,1-.272-.112c-1.347-1.335-8.7-3.516-11.419-4.244a.386.386,0,1,1,.2-.746c.384.1,8.934,2.4,11.388,4.135a22.427,22.427,0,0,0,2.391-5.176.386.386,0,1,1,.76.139c-.355,1.947-2.622,5.663-2.718,5.82a.389.389,0,0,1-.284.182Z" transform="translate(-846.16 -300.538)" fill="#fff"/>
        </g>
        <path id="Trazado_147907" data-name="Trazado 147907" d="M879.4,325.841a7.027,7.027,0,0,1,2.489-.885c1.293-.151,3.829-.674,3.6-.272s-.838.626-1.263.965-1.32,1.054-1.32,1.054Z" transform="translate(-853.11 -296.318)" fill="#f698b3"/>
      </g>
    </g>
    <g id="Grupo_75860" data-name="Grupo 75860" transform="translate(7181.728 -3290.367)">
      <g id="Grupo_75854" data-name="Grupo 75854" transform="translate(0 172.815)">
        <g id="Grupo_75851" data-name="Grupo 75851" transform="translate(0 0.119)">
          <path id="Trazado_147908" data-name="Trazado 147908" d="M1006.176,299.967c-17.262-.062-59.641-.1-59.641-.1-6.456,0-11.69,5.6-11.69,12.5v5.459l-9.549-7.263L934.845,327v19c0,9.039,9.359,14.3,9.359,14.3h12.272s34.4-.037,49.7-.1a7.473,7.473,0,0,0,7.182-7.713V307.682A7.474,7.474,0,0,0,1006.176,299.967Z" transform="translate(-924.716 -299.287)" fill="#fff"/>
          <path id="Trazado_147909" data-name="Trazado 147909" d="M956.306,360.715H944.034a.584.584,0,0,1-.284-.075c-.394-.221-9.655-5.534-9.655-14.8V326.989l-9.471-16.3a.58.58,0,0,1,.852-.753l8.618,6.555V312.2c0-7.214,5.5-13.083,12.27-13.083.424,0,42.577.039,59.643.1a8.069,8.069,0,0,1,7.761,8.294v44.813a8.07,8.07,0,0,1-7.758,8.294C990.886,360.676,956.65,360.714,956.306,360.715Zm-12.114-1.159H956.3c.344,0,34.578-.039,49.7-.1a6.911,6.911,0,0,0,6.6-7.135V307.511a6.91,6.91,0,0,0-6.606-7.135c-17.064-.061-59.215-.1-59.639-.1-6.126,0-11.11,5.349-11.11,11.924v5.459a.58.58,0,0,1-.93.461l-7.239-5.507,8.091,13.927a.586.586,0,0,1,.078.291v19C935.254,353.876,943.1,358.895,944.192,359.556Z" transform="translate(-924.546 -299.117)" fill="#b8b9f1"/>
        </g>
        <g id="Grupo_75852" data-name="Grupo 75852" transform="translate(21.309 0)">
          <path id="Trazado_147910" data-name="Trazado 147910" d="M961.257,360.776h-8.875l-.077-.49c-.022-.144-2.108-14.349,8.319-18.271a47.889,47.889,0,0,1,7.769-2.07c5.755-1.162,9.229-1.865,10.411-10,.42-2.894.845-5.262,1.186-7.166.939-5.239,1.29-7.2-.268-8.791a20.431,20.431,0,0,1-1.827-2.047,43.736,43.736,0,0,1-6.3-12.174l-.3-.8,9.964.263.164.271c1.4,2.321,5.166,8.383,6.541,9.948,1.789-.3,10.431-1.431,16.722,3.367,3.854,2.939,6.025,7.518,6.452,13.61.909,12.96-3.215,20.02-6.835,23.661a18.625,18.625,0,0,1-14.61,5.465,22.421,22.421,0,0,1-11.647-4.094c-2.824-1.769-5.258-3.293-9.8-3.148-4.714.155-6.467,2.073-6.467,7.08a19.7,19.7,0,0,1-.4,4.98Zm-7.864-1.159h6.965a26.154,26.154,0,0,0,.26-4.231c0-5.675,2.2-8.062,7.588-8.238,4.893-.163,7.6,1.532,10.457,3.324a21.155,21.155,0,0,0,11.106,3.92,17.483,17.483,0,0,0,13.715-5.126c3.45-3.47,7.38-10.237,6.5-22.762-.4-5.743-2.419-10.038-5.993-12.766-6.479-4.946-16.02-3.116-16.118-3.1l-.3.059-.219-.21c-1.384-1.334-5.83-8.591-6.76-10.121l-7.617-.2a41.423,41.423,0,0,0,5.846,11.08,19.324,19.324,0,0,0,1.724,1.928c1.977,2.018,1.569,4.3.582,9.806-.339,1.9-.763,4.253-1.18,7.129-1.3,8.945-5.507,9.794-11.329,10.971a46.94,46.94,0,0,0-7.591,2.02C952.539,346.294,953.143,357.17,953.393,359.617Z" transform="translate(-952.122 -298.963)" fill="#b8b9f1"/>
        </g>
        <g id="Grupo_75853" data-name="Grupo 75853" transform="translate(27.616 15.693)">
          <path id="Trazado_147911" data-name="Trazado 147911" d="M975.077,344.929a7.994,7.994,0,0,1-3.382-11.047,8.618,8.618,0,0,1,11.464-3.259,7.994,7.994,0,0,1,3.381,11.047A8.617,8.617,0,0,1,975.077,344.929Z" transform="translate(-962.643 -321.625)" fill="#f25e77"/>
          <path id="Trazado_147912" data-name="Trazado 147912" d="M978.419,326.426a11.413,11.413,0,0,1,4.764,1.034,10.07,10.07,0,0,1,4.88,13.993,11.584,11.584,0,0,1-14.908,4.92,10.069,10.069,0,0,1-4.88-13.992,11.473,11.473,0,0,1,10.144-5.955Zm0-.58a12.122,12.122,0,0,0-10.655,6.262,10.53,10.53,0,0,0-.713,8.39,10.861,10.861,0,0,0,5.863,6.4,11.931,11.931,0,0,0,5.006,1.086,12.121,12.121,0,0,0,10.655-6.262,10.529,10.529,0,0,0,.713-8.39,10.863,10.863,0,0,0-5.863-6.4,11.93,11.93,0,0,0-5.006-1.086Z" transform="translate(-961.695 -320.765)" fill="#f25e77"/>
          <path id="Trazado_147913" data-name="Trazado 147913" d="M991,352.867a15.911,15.911,0,0,0,8.17-6.98q.133-.236.259-.479a14.745,14.745,0,0,0,.828-11.7c-.127-.366-.284-.721-.437-1.076a15.222,15.222,0,0,1-1.736,1.495,12.71,12.71,0,0,1-.593,10.345q-.108.209-.223.412a13.629,13.629,0,0,1-6.745,5.813A5.31,5.31,0,0,1,991,352.867Z" transform="translate(-967.155 -322.308)" fill="#f25e77"/>
          <path id="Trazado_147914" data-name="Trazado 147914" d="M971.252,353.633a14.8,14.8,0,0,1-6.705-6.385,8.036,8.036,0,0,1-1.794,1.322,17.261,17.261,0,0,0,7.219,6.784A14.9,14.9,0,0,1,971.252,353.633Z" transform="translate(-960.845 -325.629)" fill="#f25e77"/>
          <path id="Trazado_147915" data-name="Trazado 147915" d="M962.521,333.01a12.512,12.512,0,0,1,1.223-4.017c.072-.139.147-.277.223-.412a13.887,13.887,0,0,1,8.337-6.423,20.477,20.477,0,0,0-.517-2.076,16.073,16.073,0,0,0-9.724,7.5c-.089.157-.175.317-.259.478a14.671,14.671,0,0,0-1.521,5.146Q961.4,333.129,962.521,333.01Z" transform="translate(-960.284 -319.456)" fill="#f25e77"/>
          <path id="Trazado_147916" data-name="Trazado 147916" d="M983.2,321.427a16.117,16.117,0,0,1,5.456,1.462,15.472,15.472,0,0,1,4.72,3.409c.513-.5,1-1.008,1.492-1.525a17.648,17.648,0,0,0-5.248-3.783,18.457,18.457,0,0,0-6.768-1.719Z" transform="translate(-965.412 -319.271)" fill="#f25e77"/>
        </g>
      </g>
      <g id="Grupo_75859" data-name="Grupo 75859" transform="translate(149.343)">
        <g id="Grupo_75855" data-name="Grupo 75855">
          <path id="Trazado_147917" data-name="Trazado 147917" d="M1205.464,76.073h-81.431c-3.022,0-5.472,2.827-5.472,6.315v39.3c0,26.311,10.015,24.17,10.015,24.17l-3.595,14.864,16.727-14.864h63.934c3.03,0,5.483-2.841,5.473-6.337l-.178-57.156C1210.925,78.887,1208.478,76.073,1205.464,76.073Z" transform="translate(-1117.981 -75.493)" fill="#fff"/>
          <path id="Trazado_147918" data-name="Trazado 147918" d="M1123.811,162.215l3.849-15.91a6.318,6.318,0,0,1-3.7-1.5c-2.807-2.27-6.153-8.154-6.153-23.285v-39.3c0-3.8,2.715-6.894,6.052-6.894h81.431c3.325,0,6.041,3.082,6.052,6.87l.178,57.157a7.351,7.351,0,0,1-2.053,5.2,5.643,5.643,0,0,1-4,1.717h-63.713Zm5.366-17.269-.209.879-3.161,13.065,15.509-13.781h64.154a4.489,4.489,0,0,0,3.178-1.376,6.185,6.185,0,0,0,1.715-4.379l-.178-57.157c-.01-3.15-2.2-5.714-4.893-5.714h-81.431c-2.7,0-4.893,2.573-4.893,5.735v39.3c0,14.612,3.089,20.219,5.68,22.349a4.673,4.673,0,0,0,3.64,1.253Z" transform="translate(-1117.81 -75.323)" fill="#b8b9f1"/>
        </g>
        <g id="Grupo_75858" data-name="Grupo 75858" transform="translate(25.543 8.356)">
          <rect id="Rectángulo_33114" data-name="Rectángulo 33114" width="39.201" height="45.242" rx="8.346" transform="translate(0 6.793)" fill="#b8b9f1" opacity="0.5"/>
          <rect id="Rectángulo_33115" data-name="Rectángulo 33115" width="22.131" height="6.793" rx="1.11" transform="translate(8.535)" fill="#566cd2"/>
          <rect id="Rectángulo_33116" data-name="Rectángulo 33116" width="39.201" height="23.504" transform="translate(0 17.662)" fill="#566cd2" opacity="0.6"/>
          <rect id="Rectángulo_33117" data-name="Rectángulo 33117" width="18.011" height="6.114" rx="2.928" transform="translate(19.071 46.872)" fill="#f698b3"/>
          <path id="Trazado_147919" data-name="Trazado 147919" d="M1184.363,146.794h-6.317a2.715,2.715,0,0,0-2.5,2.887v.339a2.715,2.715,0,0,0,2.5,2.887h6.317Z" transform="translate(-1156.474 -99.922)" fill="#566cd2"/>
          <path id="Trazado_147920" data-name="Trazado 147920" d="M1200.6,152l-11.7-7.75a2.84,2.84,0,0,1-.835-3.565l.385-.774a2.108,2.108,0,0,1,3.089-.964l11.7,7.751a2.84,2.84,0,0,1,.835,3.565l-.385.774A2.107,2.107,0,0,1,1200.6,152Z" transform="translate(-1159.251 -98.06)" fill="#f698b3"/>
          <path id="Trazado_147921" data-name="Trazado 147921" d="M1197.25,142.746l-5.479-3.63a2.33,2.33,0,0,0-3.415,1.066l-.147.294a3.139,3.139,0,0,0,.924,3.941l5.479,3.631Z" transform="translate(-1159.276 -98.09)" fill="#566cd2"/>
          <g id="Grupo_75856" data-name="Grupo 75856" transform="translate(35.412 49.689)" opacity="0.5" style="mix-blend-mode: multiply;isolation: isolate">
            <path id="Trazado_147922" data-name="Trazado 147922" d="M1202.619,154.542a.194.194,0,0,1-.108-.034l-1.634-1.113-4.095-2.6a.191.191,0,0,1-.06-.266.193.193,0,0,1,.266-.059l4.1,2.6,1.639,1.117a.193.193,0,0,1-.109.353Z" transform="translate(-1196.691 -150.44)" fill="#f698b3"/>
          </g>
          <g id="Grupo_75857" data-name="Grupo 75857" transform="translate(3.629 23.571)">
            <rect id="Rectángulo_33118" data-name="Rectángulo 33118" width="8.369" height="1.61" fill="#fff"/>
            <rect id="Rectángulo_33119" data-name="Rectángulo 33119" width="8.369" height="1.61" transform="translate(23.574 3.81)" fill="#fff"/>
            <rect id="Rectángulo_33120" data-name="Rectángulo 33120" width="13.499" height="1.61" transform="translate(0 7.62)" fill="#fff"/>
            <rect id="Rectángulo_33121" data-name="Rectángulo 33121" width="21.528" height="1.61" transform="translate(10.415)" fill="#fff"/>
            <rect id="Rectángulo_33122" data-name="Rectángulo 33122" width="21.528" height="1.61" transform="translate(0 3.81)" fill="#fff"/>
            <rect id="Rectángulo_33123" data-name="Rectángulo 33123" width="16.759" height="1.61" transform="translate(15.184 7.62)" fill="#fff"/>
          </g>
        </g>
      </g>
    </g>
    <g id="Grupo_75888" data-name="Grupo 75888" transform="translate(7027.241 -3329.391)">
      <g id="Grupo_75885" data-name="Grupo 75885" transform="translate(2.099)" opacity="0.42">
        <g id="Grupo_75862" data-name="Grupo 75862" transform="translate(50.818 32.855)">
          <path id="Trazado_147923" data-name="Trazado 147923" d="M793.692,86.4c2.29-4.531,3.735-8.863,6.993-12.339.843-1.831,1.443-4.332,2.771-6.156Z" transform="translate(-793.238 -67.469)" fill="#fff"/>
          <g id="Grupo_75861" data-name="Grupo 75861" transform="translate(0 0)">
            <path id="Trazado_147924" data-name="Trazado 147924" d="M793.959,86.509c1.6-3.194,2.889-6.578,4.848-9.582a19.424,19.424,0,0,1,1.657-2.205,5.434,5.434,0,0,0,1.008-1.8,22.2,22.2,0,0,1,2.25-4.9c.343-.49-.461-.954-.8-.468a19.359,19.359,0,0,0-2.088,4.448,7.714,7.714,0,0,1-1.324,2.423,21.732,21.732,0,0,0-1.5,2.043c-1.958,3-3.244,6.387-4.847,9.581-.267.532.532,1,.8.468Z" transform="translate(-793.104 -67.34)" fill="#b8b9f1"/>
          </g>
        </g>
        <g id="Grupo_75864" data-name="Grupo 75864" transform="translate(53.514 31.669)">
          <path id="Trazado_147925" data-name="Trazado 147925" d="M797.205,90.64c1.419-4.23,2.266-9.11,5.506-12.382,3.452-3.487,4.613-7.791,7.172-11.867Z" transform="translate(-796.732 -65.938)" fill="#fff"/>
          <g id="Grupo_75863" data-name="Grupo 75863">
            <path id="Trazado_147926" data-name="Trazado 147926" d="M797.513,90.63c1.4-4.22,2.218-8.843,5.386-12.178,3.291-3.463,4.77-7.964,7.245-11.96.315-.509-.487-.975-.8-.468-1.28,2.068-2.272,4.284-3.4,6.436a28.229,28.229,0,0,1-1.875,3.143c-.727,1.035-1.617,1.895-2.432,2.854-2.855,3.362-3.671,7.854-5.021,11.926-.189.568.707.811.894.247Z" transform="translate(-796.593 -65.805)" fill="#566cd2"/>
          </g>
        </g>
        <g id="Grupo_75866" data-name="Grupo 75866" transform="translate(56.413 32.028)">
          <path id="Trazado_147927" data-name="Trazado 147927" d="M800.948,94.786c-.213-2.592,2.349-3.8,3.205-5.877,1.028-2.5,1.22-5.343,2.549-7.713,2.789-4.975,6.864-8.969,9.016-14.368Z" transform="translate(-800.48 -66.397)" fill="#fff"/>
          <g id="Grupo_75865" data-name="Grupo 75865">
            <path id="Trazado_147928" data-name="Trazado 147928" d="M801.278,94.66c-.113-2.395,2.261-3.638,3.142-5.643,1.141-2.6,1.284-5.5,2.708-7.994,2.783-4.871,6.766-8.948,8.9-14.2.225-.553-.671-.793-.894-.247a37.509,37.509,0,0,1-4.5,7.622,48.858,48.858,0,0,0-4.766,7.214,21,21,0,0,0-1.258,3.818,13.683,13.683,0,0,1-1.433,4.134c-1.152,1.76-2.938,2.973-2.829,5.295.028.594.955.6.927,0Z" transform="translate(-800.346 -66.27)" fill="#b8b9f1"/>
          </g>
        </g>
        <g id="Grupo_75868" data-name="Grupo 75868" transform="translate(13.942 11.157)">
          <path id="Trazado_147929" data-name="Trazado 147929" d="M746,55.539c3.1-4.85,4.966-10.1,7.1-15.714Z" transform="translate(-745.523 -39.389)" fill="#fff"/>
          <g id="Grupo_75867" data-name="Grupo 75867">
            <path id="Trazado_147930" data-name="Trazado 147930" d="M746.258,55.645c3.119-4.918,5.091-10.41,7.148-15.825.213-.559-.684-.8-.894-.247-2.03,5.343-3.977,10.751-7.055,15.6-.321.505.482.971.8.468Z" transform="translate(-745.383 -39.261)" fill="#b8b9f1"/>
          </g>
        </g>
        <g id="Grupo_75870" data-name="Grupo 75870" transform="translate(9.765 5.992)">
          <path id="Trazado_147931" data-name="Trazado 147931" d="M740.6,54A30.791,30.791,0,0,0,745.5,43.433c.9-3.565,2.943-6.7,3.836-10.272Z" transform="translate(-740.12 -32.709)" fill="#fff"/>
          <g id="Grupo_75869" data-name="Grupo 75869">
            <path id="Trazado_147932" data-name="Trazado 147932" d="M740.861,54.1a32.625,32.625,0,0,0,4.723-9.865,42.261,42.261,0,0,1,2.021-5.681,36.588,36.588,0,0,0,2.031-5.405.464.464,0,0,0-.894-.247c-.969,3.715-2.97,7.048-3.964,10.763a31.921,31.921,0,0,1-4.718,9.967c-.341.492.463.956.8.468Z" transform="translate(-739.978 -32.576)" fill="#566cd2"/>
          </g>
        </g>
        <g id="Grupo_75872" data-name="Grupo 75872" transform="translate(4.791 1.664)">
          <path id="Trazado_147933" data-name="Trazado 147933" d="M734.123,51.794c2.02-4.368,5.156-7.719,6.4-12.44,1.062-4.047,1.549-8.4,4.268-11.747Z" transform="translate(-733.674 -27.119)" fill="#fff"/>
          <g id="Grupo_75871" data-name="Grupo 75871">
            <path id="Trazado_147934" data-name="Trazado 147934" d="M734.391,51.884c1.826-3.881,4.657-7.241,6.069-11.322,1.488-4.3,1.586-9.056,4.522-12.77.365-.464-.286-1.124-.656-.656-2.826,3.576-3.268,8.021-4.473,12.264-1.248,4.4-4.34,7.928-6.263,12.016-.253.537.546,1.008.8.468Z" transform="translate(-733.542 -26.975)" fill="#b8b9f1"/>
          </g>
        </g>
        <g id="Grupo_75874" data-name="Grupo 75874" transform="translate(25.381 17.849)">
          <path id="Trazado_147935" data-name="Trazado 147935" d="M760.8,64.713c2.12-6,5.557-11.066,8.879-16.212Z" transform="translate(-760.327 -48.052)" fill="#fff"/>
          <g id="Grupo_75873" data-name="Grupo 75873">
            <path id="Trazado_147936" data-name="Trazado 147936" d="M761.11,64.7c2.078-5.813,5.5-10.949,8.832-16.1.325-.5-.478-.967-.8-.468-3.375,5.224-6.819,10.43-8.926,16.323-.2.563.695.805.894.246Z" transform="translate(-760.187 -47.92)" fill="#b8b9f1"/>
          </g>
        </g>
        <g id="Grupo_75876" data-name="Grupo 75876" transform="translate(40.345 26.224)">
          <path id="Trazado_147937" data-name="Trazado 147937" d="M780.154,75.27c1.5-5.666,5.6-10.972,8.8-15.932Z" transform="translate(-779.689 -58.89)" fill="#fff"/>
          <g id="Grupo_75875" data-name="Grupo 75875">
            <path id="Trazado_147938" data-name="Trazado 147938" d="M780.465,75.261c1.6-5.879,5.5-10.788,8.754-15.821.325-.5-.478-.967-.8-.468-3.3,5.1-7.227,10.078-8.847,16.043a.464.464,0,0,0,.894.246Z" transform="translate(-779.552 -58.758)" fill="#b8b9f1"/>
          </g>
        </g>
        <g id="Grupo_75878" data-name="Grupo 75878" transform="translate(28.047 17.771)">
          <path id="Trazado_147939" data-name="Trazado 147939" d="M764.232,68.964c1.77-8.071,8.107-13.437,11.373-20.532Z" transform="translate(-763.772 -47.958)" fill="#fff"/>
          <g id="Grupo_75877" data-name="Grupo 75877">
            <path id="Trazado_147940" data-name="Trazado 147940" d="M764.544,68.948c1.78-7.831,8.011-13.325,11.326-20.421.25-.538-.549-1.009-.8-.468C771.718,55.233,765.45,60.78,763.65,68.7c-.132.581.761.829.894.247Z" transform="translate(-763.637 -47.819)" fill="#566cd2"/>
          </g>
        </g>
        <g id="Grupo_75880" data-name="Grupo 75880" transform="translate(35.041 21.954)">
          <path id="Trazado_147941" data-name="Trazado 147941" d="M773.294,75.5c2.508-8.617,7.938-14.411,11.866-21.671Z" transform="translate(-772.826 -53.368)" fill="#fff"/>
          <g id="Grupo_75879" data-name="Grupo 75879">
            <path id="Trazado_147942" data-name="Trazado 147942" d="M773.6,75.49c2.379-8.026,7.876-14.326,11.819-21.56.286-.524-.515-.993-.8-.468-3.984,7.309-9.509,13.671-11.913,21.782a.464.464,0,0,0,.894.246Z" transform="translate(-772.688 -53.232)" fill="#566cd2"/>
          </g>
        </g>
        <g id="Grupo_75882" data-name="Grupo 75882" transform="translate(31.375 18.857)">
          <path id="Trazado_147943" data-name="Trazado 147943" d="M768.552,72.628c2.545-8.364,8.4-15.073,12.535-22.8Z" transform="translate(-768.082 -49.362)" fill="#fff"/>
          <g id="Grupo_75881" data-name="Grupo 75881">
            <path id="Trazado_147944" data-name="Trazado 147944" d="M768.86,72.615c2.588-8.35,8.393-15.1,12.489-22.691.284-.525-.517-.994-.8-.468-4.137,7.673-9.968,14.478-12.582,22.913-.177.571.718.815.894.246Z" transform="translate(-767.943 -49.225)" fill="#b8b9f1"/>
          </g>
        </g>
        <g id="Grupo_75883" data-name="Grupo 75883" transform="translate(9.395)">
          <path id="Trazado_147945" data-name="Trazado 147945" d="M740.615,27.143c6.044.345,9.878,6.463,11.227,11.77,1.777,6.986,1.224,14.325,3.5,21.226a16.336,16.336,0,0,0,3.77,6.69,10.343,10.343,0,0,0,7.143,2.925c3.259-.007,6.315-1.74,9.015-3.389a76.217,76.217,0,0,1,8.7-4.667c3.026-1.352,6.016-2.967,9.311-3.531a25.112,25.112,0,0,1,10.965.558,1.16,1.16,0,0,0,.617-2.236,27.381,27.381,0,0,0-9.867-.86,24.251,24.251,0,0,0-4.3.737,27.426,27.426,0,0,0-3.889,1.562c-3.1,1.388-6.266,2.659-9.233,4.319-2.881,1.611-5.547,3.722-8.729,4.732a8.013,8.013,0,0,1-7.59-1.331,13.323,13.323,0,0,1-3.758-6.377c-2.228-6.984-1.61-14.425-3.543-21.455-1.712-6.224-6.4-12.6-13.336-12.991-1.49-.085-1.485,2.233,0,2.318Z" transform="translate(-739.499 -24.822)" fill="#566cd2"/>
        </g>
        <g id="Grupo_75884" data-name="Grupo 75884" transform="translate(0 16.99)">
          <path id="Trazado_147946" data-name="Trazado 147946" d="M788.048,91.7a20.624,20.624,0,0,1-6.122-6.132,20.436,20.436,0,0,1-2.219-7.053c-1.2-7.23-.363-14.691-2.145-21.845a14.392,14.392,0,0,0-3.633-7,10.2,10.2,0,0,0-7.747-2.828c-3.44.291-6.582,1.945-9.638,3.426a73.182,73.182,0,0,1-9.74,3.579,37.618,37.618,0,0,1-8.8,2.135c-2.872.207-6.337.079-8.644-1.884-1.13-.962-2.777.67-1.639,1.639,4.16,3.541,10.77,3.022,15.7,1.644,3.127-.875,6.252-1.961,9.312-3.045,3.246-1.15,6.217-2.86,9.417-4.1,2.988-1.161,6.07-1.641,8.924.128,2.2,1.366,3.371,3.772,4.055,6.187,2.008,7.076,1.134,14.607,2.221,21.824a23.442,23.442,0,0,0,2.52,8.276,23.185,23.185,0,0,0,7.008,7.06c1.219.866,2.378-1.144,1.17-2Z" transform="translate(-727.341 -46.809)" fill="#b8b9f1"/>
        </g>
      </g>
      <g id="Grupo_75887" data-name="Grupo 75887" transform="translate(0 106.185)">
        <circle id="Elipse_4615" data-name="Elipse 4615" cx="41.055" cy="41.055" r="41.055" transform="translate(0 2.808)" fill="#d4dafc"/>
        <g id="Grupo_75886" data-name="Grupo 75886" transform="translate(1.848)">
          <circle id="Elipse_4616" data-name="Elipse 4616" cx="39.509" cy="39.509" r="39.509" transform="translate(1.546 1.545)" fill="#fff"/>
          <path id="Trazado_147947" data-name="Trazado 147947" d="M768.072,165.327a37.964,37.964,0,1,1-37.965,37.964,38.007,38.007,0,0,1,37.965-37.964Zm0-3.091a41.055,41.055,0,1,0,41.055,41.055,41.055,41.055,0,0,0-41.055-41.055Z" transform="translate(-727.016 -162.236)" fill="#b8b9f1"/>
        </g>
        <path id="Trazado_147948" data-name="Trazado 147948" d="M757.526,224.385c1.115-2.172,3.27-2.232,5.043-1.628s3.581,1.673,5.352,1.056c.777-.27,1.493-.854,2.26-1.182,3.842-1.638,7.639,3.362,11.628,3.164A11.391,11.391,0,0,0,786.4,224a4.9,4.9,0,0,1,2.422-.808,5.026,5.026,0,0,1,4.246,3.46,15.5,15.5,0,0,1-.74,7.941c-.937,2.113-3.138,2.109-4.774,2.691a13.525,13.525,0,0,1-5.017.49l-16.405-.464c-1.616-.046-4.874-.046-6.428-.715s-2.572-1.08-3.374-3.2c-.894-2.366.332-6.282.555-8.988Z" transform="translate(-731.757 -175.887)" fill="#566cd2"/>
        <path id="Trazado_147949" data-name="Trazado 147949" d="M778.9,189.282v18.785l1.166.3a16.453,16.453,0,0,1,12.419,15.972,4.559,4.559,0,0,1-4.554,4.554H761.033a4.559,4.559,0,0,1-4.554-4.554A16.453,16.453,0,0,1,768.9,208.364l1.166-.3V189.282Zm1.545-1.545H768.52v19.128a18.027,18.027,0,0,0-13.586,17.47,6.1,6.1,0,0,0,6.1,6.1h26.894a6.1,6.1,0,0,0,6.1-6.1,18.027,18.027,0,0,0-13.586-17.47V187.737Z" transform="translate(-731.513 -168.031)" fill="#b8b9f1"/>
        <rect id="Rectángulo_33124" data-name="Rectángulo 33124" width="13.586" height="3.327" rx="1.664" transform="translate(36.175 18.966)" fill="#566cd2"/>
      </g>
    </g>
  </g>
</svg>
