<svg xmlns="http://www.w3.org/2000/svg" width="835.318" height="440.506" viewBox="0 0 835.318 440.506">
  <g id="Grupo_76113" data-name="Grupo 76113" transform="translate(-10592.406 2902.188)">
    <rect id="Rectángulo_32530" data-name="Rectángulo 32530" width="820" height="171" transform="translate(10592.406 -2632.682)" fill="#f8f0e4"/>
    <path id="Polígono_17" data-name="Polígono 17" d="M37.5,0,75,44H0Z" transform="translate(11149.406 -2676.682)" fill="#f8f0e4"/>
    <text id="Clientes_insatisfechos:_son_clientes_que_no_quedan_satisfechos_o_con_la_atención_o_con_el_producto_por_lo_que_rompen_relaciones_comerciales_con_el_establecimiento." data-name="Clientes insatisfechos: son clientes que no quedan satisfechos, o con la atención o con el producto, por lo que rompen relaciones comerciales con el establecimiento." transform="translate(10657.406 -2569.383)" fill="#12263f" font-size="16" font-family="Roboto-Bold, Roboto" font-weight="700"><tspan x="0" y="17">Clientes insatisfechos: </tspan><tspan y="17" font-family="Roboto-Regular, Roboto" font-weight="400">son clientes que no quedan satisfechos, o con la atención o con el </tspan><tspan x="0" y="41" font-family="Roboto-Regular, Roboto" font-weight="400">producto, por lo que rompen relaciones comerciales con el establecimiento.</tspan></text>
    <circle id="Elipse_4455" data-name="Elipse 4455" cx="71.73" cy="71.73" r="71.73" transform="matrix(0.987, -0.161, 0.161, 0.987, 11263.008, -2855.957)" fill="#b3b3b3"/>
    <circle id="Elipse_4456" data-name="Elipse 4456" cx="64.229" cy="64.229" r="64.229" transform="translate(11281.137 -2860.961)" fill="#ccc"/>
    <path id="Trazado_144108" data-name="Trazado 144108" d="M1052.694,1610.311a56.4,56.4,0,1,1,56.4-56.4A56.464,56.464,0,0,1,1052.694,1610.311Zm0-106.033a49.633,49.633,0,1,0,49.636,49.634A49.69,49.69,0,0,0,1052.694,1504.278Z" transform="translate(10292.671 -4350.643)" fill="#3a4466"/>
    <path id="Trazado_144109" data-name="Trazado 144109" d="M1058.112,1543.239a3.368,3.368,0,0,1-1.774-.5l-12.393-7.648a3.383,3.383,0,0,1-.02-5.745l12.723-7.978a3.383,3.383,0,1,1,3.6,5.732l-8.117,5.089,7.765,4.792a3.383,3.383,0,0,1-1.781,6.263Z" transform="translate(10323.75 -4334.892)" fill="#3a4466"/>
    <path id="Trazado_144110" data-name="Trazado 144110" d="M1009.675,1543.239a3.384,3.384,0,0,1-1.779-6.263l7.765-4.792-8.117-5.089a3.383,3.383,0,0,1,3.595-5.732l12.725,7.978a3.383,3.383,0,0,1-.02,5.745l-12.4,7.648A3.36,3.36,0,0,1,1009.675,1543.239Z" transform="translate(10299.193 -4334.892)" fill="#3a4466"/>
    <path id="Trazado_144111" data-name="Trazado 144111" d="M1070.933,1553.814a30.956,30.956,0,0,0-58.4,0Z" transform="translate(10303.633 -4326.596)" fill="#3a4466"/>
    <path id="Trazado_144112" data-name="Trazado 144112" d="M1072.3,1558.562h-58.4a3.384,3.384,0,0,1-3.189-4.512,34.338,34.338,0,0,1,64.778,0,3.382,3.382,0,0,1-3.189,4.512Zm-53.14-6.767h47.882a27.555,27.555,0,0,0-47.882,0Z" transform="translate(10302.27 -4327.96)" fill="#3a4466"/>
    <circle id="Elipse_4461" data-name="Elipse 4461" cx="71.73" cy="71.73" r="71.73" transform="translate(10599.087 -2842.181) rotate(-18.383)" fill="#b3b3b3"/>
    <circle id="Elipse_4462" data-name="Elipse 4462" cx="64.229" cy="64.229" r="64.229" transform="translate(10625.549 -2860.961)" fill="#ccc"/>
    <path id="Trazado_144142" data-name="Trazado 144142" d="M662.114,1610.311a56.4,56.4,0,1,1,56.4-56.4A56.464,56.464,0,0,1,662.114,1610.311Zm0-106.033a49.633,49.633,0,1,0,49.634,49.634A49.69,49.69,0,0,0,662.114,1504.278Z" transform="translate(10027.663 -4350.643)" fill="#3a4466"/>
    <path id="Trazado_144143" data-name="Trazado 144143" d="M680.353,1538.164a30.955,30.955,0,0,1-58.4,0Z" transform="translate(10038.625 -4323.202)" fill="#3a4466"/>
    <path id="Trazado_144144" data-name="Trazado 144144" d="M652.516,1563.591a34.435,34.435,0,0,1-32.388-22.934,3.385,3.385,0,0,1,3.189-4.512h58.4a3.385,3.385,0,0,1,3.189,4.512A34.435,34.435,0,0,1,652.516,1563.591Zm-23.939-20.678a27.556,27.556,0,0,0,47.88,0Z" transform="translate(10037.261 -4324.565)" fill="#3a4466"/>
    <path id="Trazado_144145" data-name="Trazado 144145" d="M651.453,1535.2a3.383,3.383,0,0,1-2.392-5.775A20.72,20.72,0,0,1,672.6,1525.4a3.383,3.383,0,1,1-2.915,6.107,13.947,13.947,0,0,0-15.841,2.7A3.372,3.372,0,0,1,651.453,1535.2Z" transform="translate(10056.253 -4333.18)" fill="#3a4466"/>
    <path id="Trazado_144146" data-name="Trazado 144146" d="M637.981,1535.2a3.378,3.378,0,0,1-2.394-.99,13.936,13.936,0,0,0-15.839-2.7,3.383,3.383,0,0,1-2.915-6.107,20.715,20.715,0,0,1,23.539,4.025,3.383,3.383,0,0,1-2.392,5.775Z" transform="translate(10033.868 -4333.18)" fill="#3a4466"/>
    <circle id="Elipse_4465" data-name="Elipse 4465" cx="71.73" cy="71.73" r="71.73" transform="matrix(0.95, -0.311, 0.311, 0.95, 10762.843, -2842.377)" fill="#b3b3b3"/>
    <circle id="Elipse_4466" data-name="Elipse 4466" cx="64.229" cy="64.229" r="64.229" transform="translate(10789.105 -2860.762)" fill="#ccc"/>
    <path id="Trazado_144120" data-name="Trazado 144120" d="M759.759,1610.311a56.4,56.4,0,1,1,56.4-56.4A56.464,56.464,0,0,1,759.759,1610.311Zm0-106.033a49.633,49.633,0,1,0,49.634,49.634A49.69,49.69,0,0,0,759.759,1504.278Z" transform="translate(10093.574 -4350.443)" fill="#3a4466"/>
    <path id="Trazado_144121" data-name="Trazado 144121" d="M728.57,1530a6.117,6.117,0,1,1-6.117-6.117A6.117,6.117,0,0,1,728.57,1530Zm44.86,0a6.118,6.118,0,1,0,6.119-6.117A6.118,6.118,0,0,0,773.43,1530Z" transform="translate(10102.334 -4332.646)" fill="#3a4466"/>
    <path id="Trazado_144122" data-name="Trazado 144122" d="M750.161,1563.95a34.435,34.435,0,0,1-32.388-22.934,3.383,3.383,0,1,1,6.378-2.258,27.572,27.572,0,0,0,52.021,0,3.383,3.383,0,1,1,6.378,2.258A34.437,34.437,0,0,1,750.161,1563.95Z" transform="translate(10103.173 -4324.125)" fill="#3a4466"/>
    <circle id="Elipse_4469" data-name="Elipse 4469" cx="90.01" cy="90.01" r="90.01" transform="matrix(0.981, -0.192, 0.192, 0.981, 11076.156, -2867.534)" fill="#f99716"/>
    <circle id="Elipse_4470" data-name="Elipse 4470" cx="80.598" cy="80.598" r="80.598" transform="translate(11101.212 -2877.132)" fill="#fbb03b"/>
    <path id="Trazado_144154" data-name="Trazado 144154" d="M969.422,1424.107a70.773,70.773,0,1,1,70.775-70.772A70.853,70.853,0,0,1,969.422,1424.107Zm0-133.055a62.282,62.282,0,1,0,62.283,62.283A62.353,62.353,0,0,0,969.422,1291.052Z" transform="translate(10212.386 -4149.867)" fill="#181425"/>
    <path id="Trazado_144155" data-name="Trazado 144155" d="M917.115,1350.608a4.252,4.252,0,0,1-4-5.665,43.088,43.088,0,0,1,81.286,0,4.245,4.245,0,0,1-8,2.833,34.6,34.6,0,0,0-65.278,0A4.246,4.246,0,0,1,917.115,1350.608Z" transform="translate(10228.054 -4112.84)" fill="#181425"/>
    <path id="Trazado_144156" data-name="Trazado 144156" d="M963.392,1326.364a4.218,4.218,0,0,1-2.224-.633l-15.554-9.6a4.244,4.244,0,1,1,4.458-7.224l15.552,9.595a4.245,4.245,0,0,1-2.232,7.859Z" transform="translate(10261.913 -4121.531)" fill="#181425"/>
    <path id="Trazado_144157" data-name="Trazado 144157" d="M913.856,1326.364a4.246,4.246,0,0,1-2.232-7.859l15.554-9.595a4.244,4.244,0,1,1,4.456,7.224l-15.552,9.6A4.23,4.23,0,0,1,913.856,1326.364Z" transform="translate(10224.458 -4121.53)" fill="#181425"/>
    <circle id="Elipse_4471" data-name="Elipse 4471" cx="71.73" cy="71.73" r="71.73" transform="matrix(0.274, -0.962, 0.962, 0.274, 10929.612, -2749.455)" fill="#b3b3b3"/>
    <circle id="Elipse_4472" data-name="Elipse 4472" cx="64.229" cy="64.229" r="64.229" transform="translate(10954.023 -2863.012)" fill="#ccc"/>
    <path id="Trazado_144158" data-name="Trazado 144158" d="M857.4,1610.311a56.4,56.4,0,1,1,56.4-56.4A56.464,56.464,0,0,1,857.4,1610.311Zm0-106.033a49.633,49.633,0,1,0,49.634,49.634A49.69,49.69,0,0,0,857.4,1504.278Z" transform="translate(10160.849 -4352.694)" fill="#3a4466"/>
    <path id="Trazado_144159" data-name="Trazado 144159" d="M826.217,1530a6.118,6.118,0,1,1-6.117-6.117A6.118,6.118,0,0,1,826.217,1530Zm44.859,0a6.118,6.118,0,1,0,6.119-6.117A6.118,6.118,0,0,0,871.076,1530Z" transform="translate(10169.607 -4334.896)" fill="#3a4466"/>
    <path id="Trazado_144160" data-name="Trazado 144160" d="M877.007,1546.187h-58.4a3.383,3.383,0,1,1,0-6.765h58.4a3.383,3.383,0,1,1,0,6.765Z" transform="translate(10170.446 -4324.404)" fill="#3a4466"/>
  </g>
</svg>
