<svg xmlns="http://www.w3.org/2000/svg" width="362.231" height="378.012" viewBox="0 0 362.231 378.012">
  <g id="Grupo_76116" data-name="Grupo 76116" transform="translate(-11289.174 -544.179)">
    <g id="Grupo_76085" data-name="Grupo 76085" transform="translate(10373.931 -819.957)">
      <rect id="Rectángulo_32526" data-name="Rectángulo 32526" width="362.232" height="378.012" transform="translate(915.243 1364.136)" fill="none"/>
      <g id="freepik--background-complete--inject-8" transform="translate(931.874 1373.051)">
        <g id="Grupo_74934" data-name="Grupo 74934" transform="translate(5.139 89.43)">
          <path id="Trazado_145134" data-name="Trazado 145134" d="M633.956,142.306c-4.535,11.339-11.779,29.668-15.115,38.089a4.843,4.843,0,0,0,2.719,6.275l30.978,12.34a4.833,4.833,0,0,0,6.28-2.695l.005-.013,15.027-37.781a10.744,10.744,0,0,0-5.993-13.963l-.018-.007h0l2.2-5.5L649.764,131l-2.092,5.218h-.077A10.745,10.745,0,0,0,633.956,142.306Z" transform="translate(-618.503 -123.315)" fill="#f5f5f5"/>
          <path id="Trazado_145135" data-name="Trazado 145135" d="M646.742,131.61l-1,2.521,19.991,8.807,1.3-3.247Z" transform="translate(-615.757 -123.253)" fill="#e0e0e0"/>
          <path id="Trazado_145136" data-name="Trazado 145136" d="M650.933,124.251l18.909,7.532a3.3,3.3,0,0,1,1.846,4.29l-2,5.032a2.125,2.125,0,0,1-2.76,1.188l-21.088-8.4a2.125,2.125,0,0,1-1.188-2.76l2-5.032a3.3,3.3,0,0,1,4.29-1.846Z" transform="translate(-615.882 -124.019)" fill="#ebebeb"/>
          <path id="Trazado_145137" data-name="Trazado 145137" d="M646.84,134.348a25.969,25.969,0,0,1,1.728-5.108,26.427,26.427,0,0,1,2.268-4.91,26.263,26.263,0,0,1-1.728,5.141A24.519,24.519,0,0,1,646.84,134.348Z" transform="translate(-615.646 -123.987)" fill="#e0e0e0"/>
          <path id="Trazado_145138" data-name="Trazado 145138" d="M649.27,135.318A26.235,26.235,0,0,1,651,130.2a24.568,24.568,0,0,1,2.268-4.9,26.239,26.239,0,0,1-1.728,5.119A24.577,24.577,0,0,1,649.27,135.318Z" transform="translate(-615.401 -123.89)" fill="#e0e0e0"/>
          <path id="Trazado_145139" data-name="Trazado 145139" d="M651.7,136.289a25.918,25.918,0,0,1,1.728-5.119,24.808,24.808,0,0,1,2.268-4.91,25.757,25.757,0,0,1-1.728,5.119A26.429,26.429,0,0,1,651.7,136.289Z" transform="translate(-615.156 -123.793)" fill="#e0e0e0"/>
          <path id="Trazado_145140" data-name="Trazado 145140" d="M654.13,137.259a24.916,24.916,0,0,1,1.728-5.119,24.815,24.815,0,0,1,2.268-4.91,25.865,25.865,0,0,1-1.739,5.119A26.418,26.418,0,0,1,654.13,137.259Z" transform="translate(-614.911 -123.696)" fill="#e0e0e0"/>
          <path id="Trazado_145141" data-name="Trazado 145141" d="M656.56,138.218a25.3,25.3,0,0,1,1.728-5.119,25.674,25.674,0,0,1,2.2-4.9,25.3,25.3,0,0,1-1.728,5.119A25.685,25.685,0,0,1,656.56,138.218Z" transform="translate(-614.665 -123.597)" fill="#e0e0e0"/>
          <path id="Trazado_145142" data-name="Trazado 145142" d="M659,139.189a25.86,25.86,0,0,1,1.739-5.119A26.415,26.415,0,0,1,663,129.16a24.919,24.919,0,0,1-1.728,5.119A24.818,24.818,0,0,1,659,139.189Z" transform="translate(-614.419 -123.501)" fill="#e0e0e0"/>
          <path id="Trazado_145143" data-name="Trazado 145143" d="M661.41,140.159a25.764,25.764,0,0,1,1.728-5.119,26.435,26.435,0,0,1,2.268-4.91,25.925,25.925,0,0,1-1.728,5.119A24.81,24.81,0,0,1,661.41,140.159Z" transform="translate(-614.176 -123.403)" fill="#e0e0e0"/>
          <path id="Trazado_145144" data-name="Trazado 145144" d="M663.84,141.118a25.973,25.973,0,0,1,1.728-5.108,24.816,24.816,0,0,1,2.268-4.91,26.247,26.247,0,0,1-1.728,5.119A25.363,25.363,0,0,1,663.84,141.118Z" transform="translate(-613.931 -123.305)" fill="#e0e0e0"/>
          <path id="Trazado_145145" data-name="Trazado 145145" d="M656.22,176.837a3.143,3.143,0,0,1,.11-.33l.33-.9,1.288-3.4c1.1-2.939,2.752-7.089,4.712-12.109l.121.3-25.5-10.095c-.077,0,.7-.3.374-.154h0v.066l-.055.143-.11.275-.22.55-.44,1.1c-.3.727-.584,1.453-.87,2.2-.572,1.442-1.1,2.862-1.706,4.26l-3.214,8.025-.143-.341,18.23,7.4,5.24,2.2,1.409.594a5.065,5.065,0,0,1,.5.231l-.462-.154-1.376-.517-5.24-2L630.7,166.94l-.242-.088.1-.253c1.013-2.554,2.07-5.24,3.182-8.036.55-1.4,1.1-2.818,1.7-4.26.286-.727.573-1.453.87-2.2l.429-1.1.231-.55.11-.275.055-.143v-.066h0l.385-.165,25.462,10.128.209.088-.088.209c-2.07,5.064-3.776,9.225-4.976,12.186l-1.387,3.3-.363.848C656.286,176.76,656.234,176.851,656.22,176.837Z" transform="translate(-617.298 -121.419)" fill="#e0e0e0"/>
          <path id="Trazado_145146" data-name="Trazado 145146" d="M655.95,163.311a77.147,77.147,0,0,1-8.807-3.181,76,76,0,0,1-8.554-3.71A75.082,75.082,0,0,1,647.4,159.6,76.5,76.5,0,0,1,655.95,163.311Z" transform="translate(-616.478 -120.751)" fill="#e0e0e0"/>
          <path id="Trazado_145147" data-name="Trazado 145147" d="M654.89,165.981a74.352,74.352,0,0,1-8.807-3.181,78.23,78.23,0,0,1-8.553-3.71,75.963,75.963,0,0,1,8.807,3.181A77.3,77.3,0,0,1,654.89,165.981Z" transform="translate(-616.585 -120.482)" fill="#e0e0e0"/>
          <path id="Trazado_145148" data-name="Trazado 145148" d="M653.87,168.551a73.568,73.568,0,0,1-8.807-3.181,77.285,77.285,0,0,1-8.554-3.71,74.336,74.336,0,0,1,8.807,3.181A78.229,78.229,0,0,1,653.87,168.551Z" transform="translate(-616.687 -120.223)" fill="#e0e0e0"/>
          <path id="Trazado_145149" data-name="Trazado 145149" d="M664.061,143.459a89.605,89.605,0,0,1-9.544-3.49,91.725,91.725,0,0,1-9.346-4.029,87.1,87.1,0,0,1,9.555,3.49A90.481,90.481,0,0,1,664.061,143.459Z" transform="translate(-615.814 -122.817)" fill="#e0e0e0"/>
          <path id="Trazado_145150" data-name="Trazado 145150" d="M621.12,178.221a12.708,12.708,0,0,1,.616-1.827c.473-1.244,1.1-2.9,1.871-4.9,1.6-4.128,3.842-9.809,6.363-16.072,1.266-3.126,2.466-6.11,3.578-8.807a18.929,18.929,0,0,1,4.018-6.693,8.443,8.443,0,0,1,4.679-2.389,6.319,6.319,0,0,1,1.442,0,1.883,1.883,0,0,1,.484.121,12.662,12.662,0,0,0-1.893.11,8.579,8.579,0,0,0-4.4,2.455,18.962,18.962,0,0,0-3.82,6.605c-1.1,2.73-2.279,5.713-3.534,8.807-2.51,6.264-4.822,11.933-6.517,16.017l-2.037,4.822A11.342,11.342,0,0,1,621.12,178.221Z" transform="translate(-618.239 -122.66)" fill="#fff"/>
          <path id="Trazado_145151" data-name="Trazado 145151" d="M656.042,193.9a7.553,7.553,0,0,1-1.211-.98c-.374-.341-.848-.738-1.409-1.178s-1.167-.98-1.9-1.5a53.706,53.706,0,0,0-5.251-3.479,56.331,56.331,0,0,0-6.924-3.3A56.958,56.958,0,0,0,632,181.143a53.474,53.474,0,0,0-6.2-1.1c-.892-.132-1.706-.165-2.411-.231s-1.332-.088-1.827-.1A9.408,9.408,0,0,1,620,179.59a7.67,7.67,0,0,1,1.563-.11H623.4a14.784,14.784,0,0,1,2.433.143,48.46,48.46,0,0,1,6.286.969,54.613,54.613,0,0,1,7.442,2.3,53.415,53.415,0,0,1,6.979,3.446,49.351,49.351,0,0,1,5.229,3.611c.716.539,1.321,1.1,1.86,1.574a17.844,17.844,0,0,1,1.343,1.255A8.372,8.372,0,0,1,656.042,193.9Z" transform="translate(-618.352 -118.427)" fill="#fff"/>
        </g>
        <rect id="Rectángulo_32486" data-name="Rectángulo 32486" width="99.901" height="137.242" rx="2.41" transform="translate(0 233.289) rotate(-25.7)" fill="#e0e0e0"/>
        <rect id="Rectángulo_32487" data-name="Rectángulo 32487" width="88.75" height="127.742" transform="translate(6.3 233.504) rotate(-25.7)" fill="#fafafa"/>
        <path id="Trazado_145152" data-name="Trazado 145152" d="M107.2,201.407a10.854,10.854,0,0,0-11.372-1.189l-2.455-4.833a7.453,7.453,0,0,0-9.908-3.49h0a7.464,7.464,0,0,0-3.5,9.959l.007.014,2.455,5.1-1.706.859a10.886,10.886,0,0,0-6,9.577v2.532l34.82-16.755Zm-18.582.793a4.084,4.084,0,1,1,.013-.007Z" transform="translate(-43.819 6.765)" fill="#ebebeb"/>
        <path id="Trazado_145153" data-name="Trazado 145153" d="M88.42,225.331c.077.143-4.723,2.6-10.711,5.5s-10.9,5.1-11.008,4.954,4.723-2.6,10.711-5.5A115.055,115.055,0,0,1,88.42,225.331Z" transform="translate(-44.629 10.209)" fill="#e0e0e0"/>
        <path id="Trazado_145154" data-name="Trazado 145154" d="M78.787,233.56a29.324,29.324,0,0,1-5.1,2.774,29.192,29.192,0,0,1-5.35,2.2,29.743,29.743,0,0,1,5.13-2.719A30.742,30.742,0,0,1,78.787,233.56Z" transform="translate(-44.464 11.039)" fill="#e0e0e0"/>
        <path id="Trazado_145155" data-name="Trazado 145155" d="M134.088,220.55c.066.132-13.386,6.759-30.053,14.773s-30.229,14.41-30.3,14.311,13.386-6.8,30.009-14.828S134.022,220.407,134.088,220.55Z" transform="translate(-43.919 9.727)" fill="#e0e0e0"/>
        <path id="Trazado_145156" data-name="Trazado 145156" d="M136.608,225.77c.066.143-13.386,6.759-30.053,14.784s-30.229,14.41-30.3,14.311,13.375-6.759,30.053-14.784S136.52,225.627,136.608,225.77Z" transform="translate(-43.665 10.254)" fill="#e0e0e0"/>
        <path id="Trazado_145157" data-name="Trazado 145157" d="M139.118,231c.077.143-13.386,6.759-30.042,14.784S78.847,260.195,78.77,260.1s13.386-6.759,30.053-14.784S139.052,230.857,139.118,231Z" transform="translate(-43.412 10.781)" fill="#e0e0e0"/>
        <path id="Trazado_145158" data-name="Trazado 145158" d="M141.638,236.23c.066.143-13.386,6.759-30.053,14.784s-30.229,14.4-30.3,14.311,13.386-6.759,30.053-14.773S141.572,236.087,141.638,236.23Z" transform="translate(-43.158 11.308)" fill="#e0e0e0"/>
        <path id="Trazado_145159" data-name="Trazado 145159" d="M144.158,241.45c.066.143-13.386,6.77-30.053,14.784s-30.229,14.41-30.3,14.311,13.419-6.8,30.042-14.828S144.081,241.318,144.158,241.45Z" transform="translate(-42.904 11.835)" fill="#e0e0e0"/>
        <path id="Trazado_145160" data-name="Trazado 145160" d="M146.668,246.68c.066.143-13.386,6.759-30.042,14.784s-30.24,14.41-30.306,14.311,13.386-6.759,30.053-14.784S146.6,246.537,146.668,246.68Z" transform="translate(-42.651 12.362)" fill="#e0e0e0"/>
        <path id="Trazado_145161" data-name="Trazado 145161" d="M118.764,264.59a5.6,5.6,0,0,1-1.1.672l-3.192,1.64c-2.708,1.354-6.473,3.2-10.634,5.207s-7.959,3.8-10.711,5.064l-3.3,1.475a5.322,5.322,0,0,1-1.233.462,6.889,6.889,0,0,1,1.1-.672l3.192-1.629c2.708-1.365,6.473-3.215,10.634-5.218s7.959-3.787,10.711-5.053l3.3-1.475A5.837,5.837,0,0,1,118.764,264.59Z" transform="translate(-42.422 14.169)" fill="#e0e0e0"/>
        <path id="Trazado_145162" data-name="Trazado 145162" d="M125.535,206.35a25.457,25.457,0,0,1-4.712,2.587,25.07,25.07,0,0,1-4.954,2.07,25.454,25.454,0,0,1,4.712-2.587A25.068,25.068,0,0,1,125.535,206.35Z" transform="translate(-39.671 8.295)" fill="#e0e0e0"/>
        <path id="Trazado_145163" data-name="Trazado 145163" d="M110.435,282a64.709,64.709,0,0,1-7.706,4.029,66.449,66.449,0,0,1-7.959,3.512,64.71,64.71,0,0,1,7.706-4.029A66.451,66.451,0,0,1,110.435,282Z" transform="translate(-41.798 15.924)" fill="#e0e0e0"/>
        <path id="Trazado_145164" data-name="Trazado 145164" d="M113.239,286.5a66.841,66.841,0,0,1-7.838,4.084,67.586,67.586,0,0,1-8.091,3.578,69.1,69.1,0,0,1,7.838-4.1A68.652,68.652,0,0,1,113.239,286.5Z" transform="translate(-41.542 16.378)" fill="#e0e0e0"/>
        <path id="Trazado_145165" data-name="Trazado 145165" d="M150.694,261.39a15.076,15.076,0,0,1-3.655,2.081,15.433,15.433,0,0,1-3.919,1.563,16.044,16.044,0,0,1,3.666-2.081A15.884,15.884,0,0,1,150.694,261.39Z" transform="translate(-36.923 13.846)" fill="#e0e0e0"/>
        <path id="Trazado_145166" data-name="Trazado 145166" d="M152.964,265.55a16.044,16.044,0,0,1-3.666,2.081,15.884,15.884,0,0,1-3.908,1.563,15.075,15.075,0,0,1,3.655-2.081A15.433,15.433,0,0,1,152.964,265.55Z" transform="translate(-36.694 14.265)" fill="#e0e0e0"/>
        <path id="Trazado_145167" data-name="Trazado 145167" d="M108.211,294.68a14.768,14.768,0,0,1-3.534,2.015,14.9,14.9,0,0,1-3.787,1.508,14.98,14.98,0,0,1,3.534-2.07A14.7,14.7,0,0,1,108.211,294.68Z" transform="translate(-41.181 17.203)" fill="#e0e0e0"/>
        <path id="Trazado_145168" data-name="Trazado 145168" d="M155.4,270.42a8.168,8.168,0,0,1-2.609,1.574,8.817,8.817,0,0,1-2.873,1.1,8.2,8.2,0,0,1,2.62-1.585A8.342,8.342,0,0,1,155.4,270.42Z" transform="translate(-36.237 14.756)" fill="#e0e0e0"/>
        <path id="Trazado_145169" data-name="Trazado 145169" d="M105.87,310.377a1.907,1.907,0,0,1,.308-.231l.925-.616,3.556-2.279,12.781-8.025.253-.165.11.275a7.25,7.25,0,0,1,.143,4.855A5.923,5.923,0,0,1,120.423,308a5.857,5.857,0,0,1-5.5-.605,5.12,5.12,0,0,1-1.816-5.361,4.741,4.741,0,0,1,1.1-2,3.653,3.653,0,0,1,.418-.4,2.218,2.218,0,0,1,.5-.341.836.836,0,0,1,.771,0,1.339,1.339,0,0,1,.44.506,9.6,9.6,0,0,1,1.1,4.073,9.48,9.48,0,0,1-.627,4.018,6.086,6.086,0,0,1-2.367,3.137,3.51,3.51,0,0,1-3.721-.077,5.347,5.347,0,0,1-2.2-2.763,12.868,12.868,0,0,1,0-6.22l.066-.418.286.319a8.687,8.687,0,0,1,2.1,4.745,9.322,9.322,0,0,1-.374,3.908,8.283,8.283,0,0,1-1.1,2.2c-.176.231-.319.385-.418.5s-.143.165-.154.154a10.258,10.258,0,0,0,1.464-2.928,9.413,9.413,0,0,0,.264-3.8,8.316,8.316,0,0,0-2.081-4.513l.352-.1a12.385,12.385,0,0,0,0,5.989,4.839,4.839,0,0,0,2.015,2.488,2.993,2.993,0,0,0,3.181.055,5.645,5.645,0,0,0,2.136-2.873,9.224,9.224,0,0,0,.572-3.809,9.077,9.077,0,0,0-1.1-3.82.682.682,0,0,0-.231-.3.244.244,0,0,0-.242,0,2.713,2.713,0,0,0-.716.594,4.141,4.141,0,0,0-.925,1.75,4.558,4.558,0,0,0,1.607,4.767,5.318,5.318,0,0,0,4.91.55,5.393,5.393,0,0,0,3.214-3.457,6.7,6.7,0,0,0-.1-4.5l.363.121-12.891,7.849-3.633,2.2-.958.55A1.411,1.411,0,0,1,105.87,310.377Z" transform="translate(-40.679 17.645)" fill="#e0e0e0"/>
        <path id="Trazado_145170" data-name="Trazado 145170" d="M159.023,284.647a3.31,3.31,0,0,1-.176,1.035,4.383,4.383,0,0,1-.506,1.167,2.463,2.463,0,0,1-1.376,1.1,1.713,1.713,0,0,1-1.1,0,2.206,2.206,0,0,1-.925-.716,20.879,20.879,0,0,1-1.233-2.092l-2.7-5.042.5-.11c-.088,2.521-.176,5.273-.286,8.157a17.8,17.8,0,0,1-.077,2.037v1.1l-.5-1.024c-1.508-3.093-2.906-5.989-4.139-8.5h.462a29.336,29.336,0,0,0-1.1,7.706c0,1.882.121,2.95.066,2.961a2.531,2.531,0,0,1-.165-.771,21.984,21.984,0,0,1-.187-2.2,26.843,26.843,0,0,1,.859-7.8l.165-.639.286.594,4.216,8.465-.55.11a18.288,18.288,0,0,1,.077-2.037c.121-2.884.231-5.636.33-8.157V279l.451.87c.969,1.816,1.86,3.512,2.664,5.031a22.028,22.028,0,0,0,1.156,2.081,1.474,1.474,0,0,0,1.6.671,2.82,2.82,0,0,0,1.794-1.96A8.445,8.445,0,0,1,159.023,284.647Z" transform="translate(-36.676 15.622)" fill="#e0e0e0"/>
        <path id="Trazado_145171" data-name="Trazado 145171" d="M159.579,280.39c.088.121-4.458,3.369-10.15,7.244s-10.381,6.9-10.469,6.77,4.4-3.369,10.15-7.243S159.491,280.258,159.579,280.39Z" transform="translate(-37.342 15.762)" fill="#e0e0e0"/>
        <path id="Trazado_145172" data-name="Trazado 145172" d="M164.158,281.26a87,87,0,0,1-7.442,6.77,87.6,87.6,0,0,1-7.816,6.341,89.136,89.136,0,0,1,7.442-6.77A87.6,87.6,0,0,1,164.158,281.26Z" transform="translate(-36.34 15.85)" fill="#e0e0e0"/>
        <g id="Grupo_74935" data-name="Grupo 74935" transform="translate(120.189 0)">
          <path id="Trazado_145173" data-name="Trazado 145173" d="M202.921,67.971h-4.635L188.236,53.847V44.6s-7.166-.44-6.319,11.669-.066,9.016-.066,9.016-15.2.066-16.513,1.387c-.925.958-1.332,16.061-1.5,24.219a8.874,8.874,0,0,0,6.286,8.928,6.377,6.377,0,0,0,1.6.264c3.787,0,23.118-3.082,23.118-3.082h8Z" transform="translate(-163.83 -44.598)" fill="#f5f5f5"/>
          <path id="Trazado_145174" data-name="Trazado 145174" d="M212.378,63.52,209.527,95.2H201.59V64.158Z" transform="translate(-160.022 -42.69)" fill="#f5f5f5"/>
        </g>
      </g>
      <g id="freepik--Icons--inject-8" transform="translate(999.239 1372.825)">
        <path id="Trazado_145176" data-name="Trazado 145176" d="M527.477,85.817a1.409,1.409,0,0,1-.319,0l-.936-.066-3.6-.3-13.21-1.211.242-.143c-1.6,4.15-3.457,9.016-5.5,14.311l-.33.859-.22-.9c-1.684-6.957-3.556-14.762-5.5-22.986-.605-2.543-1.211-5.053-1.794-7.5l.561.11L486.779,81.865l-.1.132h-.165l-23.206-2.422-6.605-.727-1.739-.22a2.331,2.331,0,0,1-.594-.11,3.09,3.09,0,0,1,.605,0l1.739.121,6.605.572,23.228,2.2-.253.11,10.04-13.893.4-.561.154.672c.594,2.444,1.189,4.943,1.805,7.5l5.5,23h-.55c2.081-5.317,3.985-10.172,5.614-14.311l.055-.165h.176l13.21,1.409,3.578.418.936.121A1.091,1.091,0,0,1,527.477,85.817Z" transform="translate(-260.831 -67.07)" fill="#fafafa"/>
        <rect id="Rectángulo_32488" data-name="Rectángulo 32488" width="7.266" height="32.574" transform="translate(23.866 61.625)" fill="#7e5ee3"/>
        <rect id="Rectángulo_32489" data-name="Rectángulo 32489" width="32.574" height="7.266" transform="translate(11.207 74.274)" fill="#7e5ee3"/>
        <path id="Trazado_145177" data-name="Trazado 145177" d="M333.107,140.427a3.721,3.721,0,0,1-.055-.44c0-.319-.055-.749-.088-1.288a4.842,4.842,0,0,0-.066-.947c-.066-.341-.11-.727-.176-1.1a19.531,19.531,0,0,0-.573-2.8,25.869,25.869,0,0,0-3.016-7.177A26.893,26.893,0,0,0,296.8,115.2a27.364,27.364,0,0,0-3.512,1.541,28.326,28.326,0,0,0-3.3,2.125,30.505,30.505,0,0,0-3.049,2.587,31.291,31.291,0,0,0-2.631,3.115,26.258,26.258,0,0,0-3.842,7.4,26.627,26.627,0,0,0,0,16.964,26.114,26.114,0,0,0,3.842,7.4,29,29,0,0,0,2.631,3.115,29.318,29.318,0,0,0,3.049,2.6,28.326,28.326,0,0,0,3.3,2.125A29.121,29.121,0,0,0,296.8,165.7a26.982,26.982,0,0,0,32.332-11.471,25.776,25.776,0,0,0,3.016-7.189,19.058,19.058,0,0,0,.573-2.785c.066-.418.143-.793.176-1.1a8.721,8.721,0,0,1,.066-.947c0-.55.066-.969.088-1.288a3.318,3.318,0,0,1,.055-.44,2.665,2.665,0,0,1,0,.44v2.246a10.071,10.071,0,0,1-.143,1.1,20.4,20.4,0,0,1-.528,2.818,25.934,25.934,0,0,1-2.961,7.3,27.356,27.356,0,0,1-32.816,11.79,26.645,26.645,0,0,1-10.062-6.363,29.757,29.757,0,0,1-2.686-3.17,26.276,26.276,0,0,1-3.93-7.563,29.21,29.21,0,0,1-1.42-8.664,29.539,29.539,0,0,1,1.42-8.653,26.508,26.508,0,0,1,3.93-7.552,31.116,31.116,0,0,1,2.686-3.181,31.726,31.726,0,0,1,3.115-2.631,27.193,27.193,0,0,1,39.652,8.08,26.013,26.013,0,0,1,2.961,7.288,20.751,20.751,0,0,1,.528,2.829c0,.407.121.793.143,1.1v2.246A2.7,2.7,0,0,1,333.107,140.427Z" transform="translate(-278.56 -62.432)" fill="#7e5ee3"/>
      </g>
      <g id="freepik--character-1--inject-8" transform="translate(988.535 1379.663)">
        <path id="Trazado_145250" data-name="Trazado 145250" d="M259.3,155.4c.132-4.8-4.293-8.5-8.807-10.26s-9.423-2.422-13.408-5.1c-3.523-2.378-5.89-6.077-8.873-9.093a29.536,29.536,0,0,0-49.67,13.551c-1.706,6.825-.539,14.894,4.844,19.441,6.253,5.262,15.511,4.1,23.514,2.455s17.074-3.3,23.756,1.442c4.029,2.84,6.341,7.453,8.807,11.724s5.5,8.62,10.216,10.227,11.008-1.167,11.174-6.088" transform="translate(-46.952 -122.165)" fill="#263238"/>
        <path id="Trazado_145251" data-name="Trazado 145251" d="M260.368,156.715c-.528,4.018,2.378,7.618,5.273,10.458s6.165,5.845,6.682,9.908c.595,4.7-2.84,9.324-1.838,13.959.628,2.939,2.917,5.2,4.3,7.871a16.777,16.777,0,0,1,.848,12.318c-1.189,4.051-3.093,13.089-5.912,16.237-7.783,8.7-20.167,16.2-31.539,18.813s-23.195,2.631-34.842,1.915c-9.533-.583-20.509-.143-28.457-13.265-4.117-6.8-6.154-15.83-8.333-23.47-1.893-6.605-3.523-13.617-1.563-20.178,1.1-3.809,3.446-7.211,4.568-11.008,1.409-4.778.892-9.908,1.453-14.828a34.026,34.026,0,0,1,48.437-26.872" transform="translate(-48.335 -120.844)" fill="#263238"/>
        <path id="Trazado_145252" data-name="Trazado 145252" d="M174.617,172.384c.892-13.683,10-30.46,23.635-28.985l42.559,10.854a8.047,8.047,0,0,1,7.166,8.157L243.189,265.1l.3.055s-9.7,28.963-37.847,20.123c-5.581-1.761-8.135-7.86-9.236-14.146h-.286v-2.2a67.391,67.391,0,0,1-.165-14.1h0c-.077-8.289-.066-11.68-.077-11.6s-17.481-2.95-21.048-25.771C173.01,206.19,173.627,187.586,174.617,172.384Z" transform="translate(-47.371 -120.033)" fill="#ffbe9d"/>
        <path id="Trazado_145253" data-name="Trazado 145253" d="M180.76,182.452a2.917,2.917,0,0,0,2.807,2.961,2.806,2.806,0,0,0,3.023-2.573l0-.058a2.928,2.928,0,0,0-2.818-2.961,2.8,2.8,0,0,0-3.012,2.563Z" transform="translate(-46.655 -116.351)" fill="#263238"/>
        <path id="Trazado_145254" data-name="Trazado 145254" d="M178.174,178.8c.363.385,2.587-1.255,5.735-1.244s5.5,1.6,5.8,1.211c.165-.165-.209-.859-1.211-1.585a7.93,7.93,0,0,0-4.635-1.442,7.711,7.711,0,0,0-4.568,1.453C178.329,177.942,177.987,178.624,178.174,178.8Z" transform="translate(-46.921 -116.762)" fill="#263238"/>
        <path id="Trazado_145255" data-name="Trazado 145255" d="M208.87,182.452a2.928,2.928,0,0,0,2.818,2.961,2.8,2.8,0,0,0,3.012-2.563l0-.068a2.917,2.917,0,0,0-2.807-2.961,2.8,2.8,0,0,0-3.022,2.551C208.873,182.4,208.871,182.426,208.87,182.452Z" transform="translate(-43.821 -116.352)" fill="#263238"/>
        <path id="Trazado_145256" data-name="Trazado 145256" d="M206.294,179.39c.363.385,2.587-1.244,5.735-1.233s5.449,1.6,5.79,1.211c.165-.176-.2-.859-1.211-1.6a8.073,8.073,0,0,0-4.635-1.442,7.707,7.707,0,0,0-4.557,1.464C206.448,178.532,206.118,179.269,206.294,179.39Z" transform="translate(-44.085 -116.703)" fill="#263238"/>
        <path id="Trazado_145257" data-name="Trazado 145257" d="M196.587,202.7c0-.176-1.937-.517-5.108-.936-.8-.077-1.563-.242-1.706-.793a4.07,4.07,0,0,1,.55-2.378l2.389-6.121c3.3-8.708,5.724-15.874,5.372-16s-3.3,6.814-6.605,15.533q-1.21,3.215-2.29,6.154a4.622,4.622,0,0,0-.429,3.148,2.026,2.026,0,0,0,1.321,1.178,5.609,5.609,0,0,0,1.365.2C194.594,202.867,196.576,202.889,196.587,202.7Z" transform="translate(-45.859 -116.688)" fill="#263238"/>
        <path id="Trazado_145258" data-name="Trazado 145258" d="M193.81,234.891a57.993,57.993,0,0,0,30.57-8.091s-7.706,15.775-30.548,13.6Z" transform="translate(-45.339 -111.613)" fill="#eb996e"/>
        <path id="Trazado_145259" data-name="Trazado 145259" d="M197.089,207.4a5.647,5.647,0,0,1,5.086-2.092,5.151,5.151,0,0,1,3.578,1.926,3.3,3.3,0,0,1,.231,3.743,3.764,3.764,0,0,1-4.128,1.035,11.964,11.964,0,0,1-4.018-2.411,3.244,3.244,0,0,1-.892-.925,1.1,1.1,0,0,1,0-1.178" transform="translate(-45.04 -113.785)" fill="#eb996e"/>
        <path id="Trazado_145260" data-name="Trazado 145260" d="M205.192,202.3c-.506,0-.517,3.391-3.457,5.8s-6.605,2.037-6.605,2.521c0,.209.815.661,2.345.7a8.489,8.489,0,0,0,5.5-1.9,7.409,7.409,0,0,0,2.675-4.866C205.808,203.126,205.434,202.278,205.192,202.3Z" transform="translate(-45.206 -114.084)" fill="#263238"/>
        <path id="Trazado_145261" data-name="Trazado 145261" d="M205,174.315c.308.859,3.457.462,7.144.914s6.682,1.464,7.177.7c.22-.363-.3-1.178-1.508-2a11.756,11.756,0,0,0-5.306-1.871,11.95,11.95,0,0,0-5.592.639C205.563,173.247,204.88,173.908,205,174.315Z" transform="translate(-44.212 -117.143)" fill="#263238"/>
        <path id="Trazado_145262" data-name="Trazado 145262" d="M179.248,170.534c.561.716,2.73,0,5.339,0s4.811.484,5.328-.253c.22-.363-.132-1.1-1.1-1.761a7.706,7.706,0,0,0-8.587.242C179.314,169.455,178.984,170.192,179.248,170.534Z" transform="translate(-46.817 -117.61)" fill="#263238"/>
        <path id="Trazado_145263" data-name="Trazado 145263" d="M254.971,229.765a20.256,20.256,0,0,1-24.1-22.4c.7-5.6,3.732-11.306,1.783-16.612-2.565-7.012-12.4-9.17-15-16.171-1.519-4.062-.154-8.807-1.871-12.8-1.618-3.754-5.559-5.912-9.4-7.3s-7.948-2.345-11.174-4.844-5.229-7.233-3.148-10.744A215.765,215.765,0,0,1,241.9,151c3.732,1.387,7.64,3.06,9.842,6.374,2.334,3.5,2.2,8.025,2.026,12.23L250.9,231.053" transform="translate(-45.602 -120.478)" fill="#263238"/>
        <path id="Trazado_145264" data-name="Trazado 145264" d="M253.674,238.664a2.6,2.6,0,0,0,.374-.231l1.013-.771c.881-.694,2.2-1.717,3.776-3.137a39,39,0,0,0,5.361-5.636,21.047,21.047,0,0,0,4.271-9.4,14.311,14.311,0,0,0-2.939-12,45.888,45.888,0,0,0-5.317-4.535,12.341,12.341,0,0,1-4.15-5.636c-1.684-4.646-.936-10.029-1.585-15.533A30.892,30.892,0,0,0,248,166.064a21.243,21.243,0,0,0-6.759-5.5,41.309,41.309,0,0,0-7.981-2.686,18.609,18.609,0,0,1-7.012-3.457,27.8,27.8,0,0,1-5.086-5.6c-2.862-4.073-4.987-8.41-7.706-12.032a25.785,25.785,0,0,0-4.491-4.767,17.241,17.241,0,0,0-5.328-2.906,11.384,11.384,0,0,0-10.139,1.013,9.346,9.346,0,0,0-3.6,6.825,6.847,6.847,0,0,0,1.376,4.7,4.384,4.384,0,0,0,.925.892,1.582,1.582,0,0,0,.374.242,2.488,2.488,0,0,0-.308-.319,5.062,5.062,0,0,1-.826-.936,6.715,6.715,0,0,1-1.1-4.546,8.951,8.951,0,0,1,3.534-6.407,10.788,10.788,0,0,1,9.577-.793,16.522,16.522,0,0,1,5.075,2.829,26.216,26.216,0,0,1,4.315,4.668c2.642,3.556,4.723,7.893,7.629,12.109a28.323,28.323,0,0,0,5.24,5.823,19.321,19.321,0,0,0,7.233,3.578,40.509,40.509,0,0,1,7.8,2.642,20.346,20.346,0,0,1,6.451,5.284,29.931,29.931,0,0,1,6.3,15.192c.672,5.317-.1,10.788,1.7,15.731a13.355,13.355,0,0,0,4.4,6.022,46.537,46.537,0,0,1,5.251,4.4A13.572,13.572,0,0,1,267.71,219.4a20.624,20.624,0,0,1-4.007,9.17,42.208,42.208,0,0,1-5.185,5.691c-1.552,1.453-2.807,2.521-3.644,3.3A13.513,13.513,0,0,0,253.674,238.664Z" transform="translate(-45.736 -121.54)" fill="#455a64"/>
        <path id="Trazado_145265" data-name="Trazado 145265" d="M252.754,231.322c4.69-4.535,12.693-.594,16.634,4.6s6.726,11.911,12.7,14.531,13.739.363,18.714,4.524c6.913,5.746,3.027,19.056,10.513,24.053,2.961,1.982,6.88,1.915,10.051,3.545,7.475,3.853,7.387,14.4,6.231,22.732-1.574,11.724-3.358,23.833-9.808,33.741s-19.012,16.832-30.174,13.023c-10.733-3.666-16.248-15.247-20.619-25.716q-9.049-21.775-18.12-43.45c-3.49-8.377-7.023-16.887-8.157-25.892s.385-18.714,6.121-25.782" transform="translate(-40.644 -111.358)" fill="#263238"/>
        <path id="Trazado_145266" data-name="Trazado 145266" d="M255.49,222.065c3.4-.407,6.011,3.765,5.108,7.078s-4.073,5.5-7.321,6.605a10.918,10.918,0,0,1-5.647.649,5.506,5.506,0,0,1-4.282-3.446,3.237,3.237,0,0,1,1.563-4.282c2.2-1.4,3.556-2.5,5.328-3.479,2.708-1.486,2.543-1.684,5.251-3.181" transform="translate(-40.374 -112.096)" fill="#7e5ee3"/>
        <path id="Trazado_145267" data-name="Trazado 145267" d="M183.843,256.621l13.232-10.029,49.879-3.192,2,6.693L232.731,351.327l12.8,120.784H175.95Z" transform="translate(-47.14 -109.939)" fill="#7e5ee3"/>
        <g id="Grupo_73246" data-name="Grupo 73246" transform="translate(131.903 312.832)" opacity="0.3">
          <path id="Trazado_145268" data-name="Trazado 145268" d="M236.962,412.835c-1.6-1.706-4.205-4.04-6.528-4.1-16.667-.363-33.675-2.026-50.342-2.4L178.76,455.7c3.985-7.023,7.761-14.311,8.807-22.347.462-3.5,1.1-7.706,4.238-9.181,1.805-.848,3.93-.517,5.879-.121,6.022,1.189,12,2.741,18.12,3.126s12.539-.517,17.68-3.864a10.841,10.841,0,0,0,4.227-4.569A5.6,5.6,0,0,0,236.962,412.835Z" transform="translate(-178.76 -406.34)"/>
        </g>
        <path id="Trazado_145269" data-name="Trazado 145269" d="M193.092,259.441l-1.552-14.476a4.6,4.6,0,0,1,4.1-5.057l.066-.007,45.905-4.15a2.2,2.2,0,0,1,2.362,2.028l0,.064.517,17.228-13.3,22.556-13.661,4.348H200.82l-9.61-10.26Z" transform="translate(-45.602 -110.711)" fill="#7e5ee3"/>
        <path id="Trazado_145270" data-name="Trazado 145270" d="M237.638,248.341a15.6,15.6,0,0,1-1.838-.187,33.078,33.078,0,0,0-5-.088,48.489,48.489,0,0,0-7.354,1.1c-2.741.572-5.724,1.376-8.884,2.147a57.723,57.723,0,0,1-9.038,1.607,23.358,23.358,0,0,1-7.5-.506,15.561,15.561,0,0,1-4.668-1.937,11.189,11.189,0,0,1-1.1-.815c-.242-.2-.363-.319-.341-.33s.539.363,1.574.947a17.086,17.086,0,0,0,4.657,1.739,23.732,23.732,0,0,0,7.354.374,60.834,60.834,0,0,0,8.95-1.64c3.148-.76,6.143-1.552,8.906-2.1a44.322,44.322,0,0,1,7.442-.947,26.663,26.663,0,0,1,5.053.264q.892.154,1.354.264C237.484,248.275,237.649,248.319,237.638,248.341Z" transform="translate(-45.53 -109.508)" fill="#263238"/>
        <g id="Grupo_73247" data-name="Grupo 73247" transform="translate(147.761 138.411)" opacity="0.3">
          <path id="Trazado_145271" data-name="Trazado 145271" d="M193.985,250.6c-1.233,3.38-1.266,7.563,1.233,10.15,2.026,2.114,5.3,2.642,8.168,2.07a25.757,25.757,0,0,0,7.981-3.589c6.319-3.754,12.748-7.651,19.925-9.247a2.548,2.548,0,0,0,1.288-.539.847.847,0,0,0,.046-1.2q-.023-.025-.046-.046a1.2,1.2,0,0,0-.594-.165c-6.352-.638-12.66,1.1-18.879,2.554s-12.88,2.389-18.879.22" transform="translate(-193.165 -247.897)"/>
        </g>
        <path id="Trazado_145272" data-name="Trazado 145272" d="M202.136,239.1a4.228,4.228,0,0,0-1.574,1.5c-.727,1.167-.683,3.148-.627,5.284.121,4.282.826,7.706.66,7.706a7.483,7.483,0,0,1-.627-2.2,34.736,34.736,0,0,1-.605-5.5,25.525,25.525,0,0,1,.066-3.071,5.3,5.3,0,0,1,.793-2.433,3.177,3.177,0,0,1,1.288-1.156C201.894,239.069,202.125,239.069,202.136,239.1Z" transform="translate(-44.781 -110.374)" fill="#263238"/>
        <path id="Trazado_145273" data-name="Trazado 145273" d="M213.081,251.8a66.371,66.371,0,0,0-.33-7c-.528-3.842-1.805-6.759-1.629-6.825a6.039,6.039,0,0,1,.936,1.86,22.755,22.755,0,0,1,1.266,4.877,22.326,22.326,0,0,1,.143,5.042A6.17,6.17,0,0,1,213.081,251.8Z" transform="translate(-43.595 -110.487)" fill="#263238"/>
        <path id="Trazado_145274" data-name="Trazado 145274" d="M226.407,236.86a4.525,4.525,0,0,1,.87,1.706,12.053,12.053,0,0,1,.605,4.59,11.861,11.861,0,0,1-1.211,4.48,4.4,4.4,0,0,1-1.1,1.574,15.191,15.191,0,0,0,.826-12.351Z" transform="translate(-42.137 -110.599)" fill="#263238"/>
        <path id="Trazado_145275" data-name="Trazado 145275" d="M172.2,261.33s-15.654,10.48-19.815,29.415c-3.236,14.883-12.109,93.506-12.109,93.506L124.76,414.435l10.128,24.086h0a37.032,37.032,0,0,0,24.329-6.946l6.814-4.954,12.495-18.527Z" transform="translate(-52.303 -108.131)" fill="#ebebeb"/>
        <path id="Trazado_145276" data-name="Trazado 145276" d="M196.191,248.71,169.661,262.6,163.4,283.177l-5.581,59.655,10.5,69.937-18.428,58.6,31.781.231.76-34.346,3.17-111.185,3.115-70.828Z" transform="translate(-49.768 -109.404)" fill="#ebebeb"/>
        <path id="Trazado_145277" data-name="Trazado 145277" d="M181.131,340.835a6.038,6.038,0,0,1-.5-.837l-1.321-2.433c-.55-1.1-1.1-2.444-1.772-4.007-.319-.793-.594-1.662-.914-2.576s-.672-1.882-.947-2.917c-2.5-8.245-4.15-20.145-3.8-33.267,0-1.013.077-2.014.143-3.016v-.176l.165-.066,4.646-1.959-.066.484-4.646-3.732-.1-.077v-.11a40.159,40.159,0,0,1,2.114-13.265c1.167-3.886,2.444-7.233,3.567-9.985s2.1-4.9,2.8-6.352c.352-.738.627-1.3.815-1.662a3.762,3.762,0,0,1,.319-.561,2.675,2.675,0,0,1-.231.594l-.738,1.706c-.639,1.475-1.563,3.644-2.642,6.407s-2.312,6.11-3.435,9.985a40.28,40.28,0,0,0-2.015,13.089l-.11-.187,4.657,3.71.363.3-.429.187-4.646,1.959.176-.242c-.066.98-.11,1.982-.143,2.994-.341,13.067,1.233,24.912,3.622,33.124.253,1.046.594,2,.892,2.917s.561,1.794.881,2.587c.65,1.563,1.1,2.939,1.673,4.018l1.211,2.477A7.321,7.321,0,0,1,181.131,340.835Z" transform="translate(-47.555 -108.838)" fill="#263238"/>
        <path id="Trazado_145278" data-name="Trazado 145278" d="M161.863,378.879a8.065,8.065,0,0,1-.253-.859q-.231-.936-.627-2.51c-.275-1.1-.583-2.422-.892-3.974s-.716-3.3-1.024-5.317-.727-4.139-1.024-6.473-.594-4.844-.87-7.475c-.484-5.284-.8-11.107-.8-17.228s.363-11.944.859-17.217c.3-2.631.55-5.141.914-7.475s.683-4.5,1.035-6.473.727-3.743,1.1-5.306.638-2.9.914-3.974.473-1.882.638-2.5a6.443,6.443,0,0,1,.253-.87,5.1,5.1,0,0,1-.143.892l-.528,2.521c-.242,1.1-.539,2.433-.815,4s-.672,3.3-.969,5.317-.682,4.128-.958,6.462-.583,4.833-.859,7.453c-.462,5.273-.793,11.075-.815,17.184s.308,11.9.749,17.173c.275,2.62.5,5.13.826,7.453s.627,4.5.947,6.473.661,3.754.936,5.317.561,2.906.8,4,.4,1.893.517,2.521A4.252,4.252,0,0,1,161.863,378.879Z" transform="translate(-49.115 -105.116)" fill="#263238"/>
        <path id="Trazado_145279" data-name="Trazado 145279" d="M169.043,419.63a11.333,11.333,0,0,1-1.288,2.675,43.2,43.2,0,0,1-4.062,5.889,42.545,42.545,0,0,1-4.976,5.141,11.926,11.926,0,0,1-2.367,1.794,21.081,21.081,0,0,1,2.092-2.092,60,60,0,0,0,8.972-10.942A21.218,21.218,0,0,1,169.043,419.63Z" transform="translate(-49.117 -92.168)" fill="#263238"/>
        <path id="Trazado_145280" data-name="Trazado 145280" d="M285.407,259.931a36.515,36.515,0,0,1,22.391,25.98c8.686,38.265,23.536,89.168,23.778,105.6.286,20.916-8.807,35.227-20.795,37.869-9.445,2.092-95.025-2.6-95.025-2.6l-4.007-31.924,69.353-10.2-9.489-52.928L281,258.28Z" transform="translate(-43.53 -108.439)" fill="#ebebeb"/>
        <path id="Trazado_145281" data-name="Trazado 145281" d="M279.6,260.032l-19.166-7.827-20.2-11.845-.121,3.468h0a20.325,20.325,0,0,1,2.433,14.047L225.7,345.568l3.809,64.08,7.827,62.748h60.778L270.207,406.73l9.853-88.5Z" transform="translate(-42.123 -110.246)" fill="#ebebeb"/>
        <path id="Trazado_145282" data-name="Trazado 145282" d="M298.779,418.4l-.418.055-1.222.121c-1.1.11-2.675.1-4.745.154-4.117,0-10.106-.088-17.558-.33-14.894-.5-35.623-1.5-59.038-2.851h-.231v-.242c-.473-3.8-.98-7.8-1.486-11.867-.87-6.88-1.706-13.6-2.51-20.013v-.275h.264l52.929-7.706,15.544-2.2,4.172-.561,1.1-.143h.374l-.363.077-1.1.187-4.161.661-15.511,2.367-52.84,7.893.231-.319c.815,6.429,1.662,13.133,2.521,20.013.517,4.073,1.013,8.08,1.486,11.878l-.264-.242c23.4,1.365,44.144,2.433,59.027,3.038,7.442.286,13.419.451,17.536.506,2.059,0,3.666,0,4.734-.066l1.222-.066Z" transform="translate(-43.548 -96.916)" fill="#263238"/>
        <path id="Trazado_145283" data-name="Trazado 145283" d="M265.625,320.08a2.262,2.262,0,0,1,.154.594c.088.451.2,1,.33,1.7.286,1.552.672,3.677,1.1,6.264.936,5.372,2.2,12.649,3.611,20.7s2.554,15.346,3.457,20.729c.407,2.6.738,4.723.98,6.286.1.694.176,1.266.242,1.717a2.53,2.53,0,0,1,0,.605,2.117,2.117,0,0,1-.165-.583c-.088-.451-.2-1.013-.341-1.7-.286-1.563-.682-3.677-1.167-6.264-.958-5.3-2.2-12.6-3.611-20.7s-2.6-15.412-3.446-20.729c-.4-2.6-.727-4.734-.969-6.3q-.132-1.035-.231-1.717A2.792,2.792,0,0,1,265.625,320.08Z" transform="translate(-38.103 -102.207)" fill="#263238"/>
        <path id="Trazado_145284" data-name="Trazado 145284" d="M248.875,246a.531.531,0,0,0,.077.22l.176.638c.143.572.385,1.4.616,2.5a80.047,80.047,0,0,1,1.453,9.434,105.492,105.492,0,0,1,.363,14.4c-.187,5.5-.76,11.526-1.585,17.944v.2h-.2L243.47,292.5l.209-.385c.363.969.727,2,1.013,3.071a39.033,39.033,0,0,1-.716,21.257,66.547,66.547,0,0,1-7.354,15.852c-2.62,4.249-4.976,7.508-6.605,9.765l-1.9,2.576c-.2.275-.374.484-.506.66a.9.9,0,0,1-.187.22s0-.088.143-.253l.462-.694c.44-.638,1.1-1.519,1.805-2.642,1.574-2.29,3.886-5.581,6.44-9.842a67.928,67.928,0,0,0,7.2-15.786c1.816-6.242,2.675-13.661.672-20.916a31.153,31.153,0,0,0-.991-3.016l-.121-.319.341-.066,6.264-1.156-.231.242c.837-6.4,1.442-12.428,1.651-17.889a110.682,110.682,0,0,0-.231-14.311,87.778,87.778,0,0,0-1.288-9.434c-.2-1.1-.418-1.937-.517-2.51-.055-.264-.1-.473-.132-.649A.725.725,0,0,1,248.875,246Z" transform="translate(-41.95 -109.677)" fill="#263238"/>
        <path id="Trazado_145285" data-name="Trazado 145285" d="M247.387,329.228v-13.97s.176-3.446-2.73-2.719-2.367,6.176-2.367,6.176-.539,21.257.727,21.081,1.761-1.816,1.761-1.816V329.8Z" transform="translate(-40.462 -102.977)" fill="#7e5ee3"/>
        <path id="Trazado_145286" data-name="Trazado 145286" d="M259.264,328.509a48.318,48.318,0,0,1-7.5.286,48.317,48.317,0,0,1-7.5-.286,50.006,50.006,0,0,1,7.5-.286A50.007,50.007,0,0,1,259.264,328.509Z" transform="translate(-40.251 -101.389)" fill="#263238"/>
        <path id="Trazado_145287" data-name="Trazado 145287" d="M285.023,267.32a10.265,10.265,0,0,1-1.563.583A35.286,35.286,0,0,0,279.3,269.7a32.362,32.362,0,0,0-11.251,9.588,23.976,23.976,0,0,0-2.2,3.6,23.3,23.3,0,0,0-1.321,3.7,36.474,36.474,0,0,0-1.1,6.605c-.154,1.9-.187,3.468-.2,4.535a14.131,14.131,0,0,1,0,1.673,6.771,6.771,0,0,1-.22-1.607,40.027,40.027,0,0,1,0-4.568,34,34,0,0,1,1-6.715,23.211,23.211,0,0,1,1.332-3.809A24.545,24.545,0,0,1,267.6,279a31.089,31.089,0,0,1,11.537-9.61,28.653,28.653,0,0,1,4.26-1.651A8.242,8.242,0,0,1,285.023,267.32Z" transform="translate(-38.368 -107.527)" fill="#263238"/>
        <path id="Trazado_145288" data-name="Trazado 145288" d="M58.94,372.99l100.122,37.076,84.4,12.9L143.11,374.047Z" transform="translate(-58.94 -96.871)" fill="#263238"/>
        <path id="Trazado_145289" data-name="Trazado 145289" d="M98.489,411.309a42.625,42.625,0,0,0-5.35-15.17,11.021,11.021,0,0,1-1.365-2.851,3.239,3.239,0,0,1,.561-2.983c1.288-1.4,3.633-.782,5.218.275a18.337,18.337,0,0,1,6.737,9.445,54.8,54.8,0,0,1,2.2,11.57" transform="translate(-55.644 -95.207)" fill="#ffbe9d"/>
        <path id="Trazado_145290" data-name="Trazado 145290" d="M137.275,402.276H132.3a9.752,9.752,0,0,0-4.4-2.51,3.458,3.458,0,0,0-3.3,1.288c2.2-3.666,4.624-7.706,5.086-8.807.892-2.147-1.1-3.754-4.3-3.754s-17.382,20.068-17.382,20.068,8.807-16.149,9.654-18.615c2.136-6.165-4.613-6.605-7.056-3.644-3.038,3.688-15.313,22.259-15.313,22.259s-2.334,3.765-.727,7.343,6.275,2.2,6.275,2.2a6.01,6.01,0,0,0,3.3,4.976c3.589,2,8.322-.319,8.322-.319L130.8,426.88l6.605-.66a20.343,20.343,0,0,0,18.1-17.261h0Z" transform="translate(-55.406 -95.707)" fill="#ffbe9d"/>
        <path id="Trazado_145291" data-name="Trazado 145291" d="M123.143,399.28c.209.132-2.2,3.963-5.394,8.565-1.585,2.3-3.049,4.4-4.139,5.834a14.545,14.545,0,0,1-1.849,2.312,14.919,14.919,0,0,1,1.519-2.543c1-1.53,2.411-3.633,4-5.934s3.038-4.4,4.1-5.857l1.277-1.75A4.466,4.466,0,0,1,123.143,399.28Z" transform="translate(-53.613 -94.22)" fill="#eb996e"/>
        <path id="Trazado_145292" data-name="Trazado 145292" d="M121.1,419.686a18.118,18.118,0,0,1,1.629-2.994c1.1-1.805,2.62-4.26,4.315-6.99.848-1.354,1.662-2.653,2.323-3.853a4.459,4.459,0,0,0,.407-3.4,8.459,8.459,0,0,0-1.563-2.917,2.957,2.957,0,0,1,.7.594,5.694,5.694,0,0,1,1.244,2.2,4.764,4.764,0,0,1-.319,3.754c-.66,1.244-1.464,2.554-2.3,3.919-1.706,2.73-3.3,5.152-4.469,6.9A24,24,0,0,1,121.1,419.686Z" transform="translate(-52.672 -94.195)" fill="#eb996e"/>
        <path id="Trazado_145293" data-name="Trazado 145293" d="M130.065,420.859a10.27,10.27,0,0,1,.98-2.851l1.31-2.994a24.409,24.409,0,0,0,1.343-3.688,4.336,4.336,0,0,0-.583-3.578,3.376,3.376,0,0,0-1.31-.936,3.632,3.632,0,0,0-1.365-.385,5.519,5.519,0,0,0-1.971.694,2.345,2.345,0,0,1-.749.308,5.041,5.041,0,0,1,.638-.506,9.2,9.2,0,0,1,.826-.5,3.251,3.251,0,0,1,1.255-.407,4.052,4.052,0,0,1,1.563.352,3.721,3.721,0,0,1,1.519,1.035,4.723,4.723,0,0,1,.727,4.04,21.144,21.144,0,0,1-1.42,3.787c-.517,1.1-1.013,2.1-1.42,2.939A28.416,28.416,0,0,1,130.065,420.859Z" transform="translate(-52.004 -93.54)" fill="#eb996e"/>
        <path id="Trazado_145294" data-name="Trazado 145294" d="M132.92,403.76a1.956,1.956,0,0,1,.771.231,9,9,0,0,1,1.915,1.1,10.437,10.437,0,0,1,2.961,13.276,9,9,0,0,1-1.244,1.838c-.352.385-.583.561-.605.539a16.045,16.045,0,0,0,1.486-2.554,10.612,10.612,0,0,0-2.851-12.781A26.384,26.384,0,0,0,132.92,403.76Z" transform="translate(-51.48 -93.768)" fill="#eb996e"/>
        <path id="Trazado_145295" data-name="Trazado 145295" d="M104.423,394.19a53.809,53.809,0,0,1-4.15,6.605,52.956,52.956,0,0,1-4.613,6.4,52.907,52.907,0,0,1,4.139-6.605A53.583,53.583,0,0,1,104.423,394.19Z" transform="translate(-55.237 -94.733)" fill="#eb996e"/>
        <path id="Trazado_145296" data-name="Trazado 145296" d="M217.674,384.952l-11.449-2.587-11.008-10.359a7.868,7.868,0,0,0-4.91-2.114l-20-1.1a7.769,7.769,0,0,0-5.5,1.827L150.49,382.728l62.429,30.328,8.565.76Z" transform="translate(-49.708 -97.296)" fill="#ffbe9d"/>
        <path id="Trazado_145297" data-name="Trazado 145297" d="M182.916,378.727c0,.088-1.475-.176-3.853-.484a16.155,16.155,0,0,0-9.06.947,23.406,23.406,0,0,0-4.315,2.7c-1.266.947-2.4,1.827-3.4,2.5a18.226,18.226,0,0,1-2.477,1.442,3.586,3.586,0,0,1-.98.363c0-.088,1.31-.694,3.225-2.136.958-.7,2.059-1.618,3.3-2.6a22.676,22.676,0,0,1,4.4-2.8,12.959,12.959,0,0,1,5.108-1.1,22.783,22.783,0,0,1,4.238.33,26.538,26.538,0,0,1,2.8.573A3.082,3.082,0,0,1,182.916,378.727Z" transform="translate(-48.867 -96.41)" fill="#eb996e"/>
        <path id="Trazado_145298" data-name="Trazado 145298" d="M185.723,388.825c0,.088-.815-.275-2.2-.407a11.388,11.388,0,0,0-5.141.716,26.486,26.486,0,0,0-4.712,2.411,9.82,9.82,0,0,1-1.948,1.1,8.018,8.018,0,0,1,1.717-1.431,20.311,20.311,0,0,1,4.745-2.609,10.517,10.517,0,0,1,5.394-.583A4.088,4.088,0,0,1,185.723,388.825Z" transform="translate(-47.567 -95.367)" fill="#eb996e"/>
        <path id="Trazado_145299" data-name="Trazado 145299" d="M208.536,391.367c-.143.088-1.75-2.312-3.875-5.152a62.708,62.708,0,0,1-3.831-5.185,25.66,25.66,0,0,1,4.282,4.844A25.256,25.256,0,0,1,208.536,391.367Z" transform="translate(-44.632 -96.06)" fill="#eb996e"/>
        <path id="Trazado_145300" data-name="Trazado 145300" d="M179.913,372.368l25.319-23.613a2.422,2.422,0,0,0,.128-3.422,2.491,2.491,0,0,0-.3-.276h0a2.421,2.421,0,0,0-3.093.121L172.24,371.839" transform="translate(-47.515 -99.738)" fill="#7e5ee3"/>
        <g id="Grupo_73248" data-name="Grupo 73248" transform="translate(124.725 244.817)" opacity="0.3">
          <path id="Trazado_145301" data-name="Trazado 145301" d="M179.913,372.368l25.319-23.613a2.422,2.422,0,0,0,.128-3.422,2.491,2.491,0,0,0-.3-.276h0a2.421,2.421,0,0,0-3.093.121L172.24,371.839" transform="translate(-172.24 -344.556)"/>
        </g>
      </g>
    </g>
  </g>
</svg>
