<svg xmlns="http://www.w3.org/2000/svg" xmlns:xlink="http://www.w3.org/1999/xlink" width="179" height="179" viewBox="0 0 179 179">
  <defs>
    <filter id="Elipse_4062" x="0" y="0" width="179" height="179" filterUnits="userSpaceOnUse">
      <feOffset dy="3" input="SourceAlpha"/>
      <feGaussianBlur stdDeviation="3" result="blur"/>
      <feFlood flood-opacity="0.161"/>
      <feComposite operator="in" in2="blur"/>
      <feComposite in="SourceGraphic"/>
    </filter>
  </defs>
  <g id="Grupo_76122" data-name="Grupo 76122" transform="translate(-10694.406 -4717.855)">
    <g transform="matrix(1, 0, 0, 1, 10694.41, 4717.86)" filter="url(#Elipse_4062)">
      <circle id="Elipse_4062-2" data-name="Elipse 4062" cx="80.5" cy="80.5" r="80.5" transform="translate(9 6)" fill="#fff"/>
    </g>
    <circle id="Elipse_4063" data-name="Elipse 4063" cx="62" cy="62" r="62" transform="translate(10720.406 4742.855)" fill="#7e5ee3"/>
    <path id="Trazado_148014" data-name="Trazado 148014" d="M293.46,139.757h-4.39a1.058,1.058,0,0,1-1.057-1.059V117.56a1.058,1.058,0,1,1,2.116,0v20.08H292.4V121.053a1.058,1.058,0,1,1,2.116,0V138.7A1.058,1.058,0,0,1,293.46,139.757Z" transform="translate(10487.342 4689.064)" fill="#fff"/>
    <path id="Trazado_148015" data-name="Trazado 148015" d="M300.887,127.545a2.9,2.9,0,0,1-2.894-2.9v-7.121a1.058,1.058,0,1,1,2.116,0v7.121a.778.778,0,1,0,1.556,0v-9.181a3.965,3.965,0,0,0-3.541-3.937l-2.713,2.714a1.09,1.09,0,0,1-1.5,0l-2.713-2.714a3.963,3.963,0,0,0-3.541,3.937v9.181a.778.778,0,1,0,1.556,0v-7.121a1.058,1.058,0,1,1,2.116,0v7.121a2.895,2.895,0,1,1-5.79,0v-9.181a6.082,6.082,0,0,1,6.075-6.075,1.058,1.058,0,0,1,.748.311l2.3,2.3,2.3-2.3a1.053,1.053,0,0,1,.748-.311,6.081,6.081,0,0,1,6.074,6.075v9.181A2.9,2.9,0,0,1,300.887,127.545Z" transform="translate(10486.138 4685.601)" fill="#fff"/>
    <path id="Trazado_148016" data-name="Trazado 148016" d="M296.411,139.757h-4.389a1.059,1.059,0,0,1-1.059-1.059V121.053a1.058,1.058,0,1,1,2.116,0V137.64h2.273V117.56a1.058,1.058,0,1,1,2.116,0V138.7A1.058,1.058,0,0,1,296.411,139.757Z" transform="translate(10488.779 4689.064)" fill="#fff"/>
    <path id="Trazado_148017" data-name="Trazado 148017" d="M293.211,112.1a4.686,4.686,0,1,1,4.685-4.686A4.692,4.692,0,0,1,293.211,112.1Zm0-7.255a2.569,2.569,0,1,0,2.568,2.568A2.572,2.572,0,0,0,293.211,104.842Z" transform="translate(10487.59 4682.352)" fill="#fff"/>
    <path id="Trazado_148018" data-name="Trazado 148018" d="M307.956,159.094h-17.8a2,2,0,0,1-2-2V151.97a39.78,39.78,0,0,0-7.54-22.879,22.341,22.341,0,0,1-4.073-13.65,22.673,22.673,0,0,1,21.078-21.765,22.339,22.339,0,0,1,16.861,6.063,22.614,22.614,0,0,1,7.1,16.419,22.369,22.369,0,0,1-4.054,12.888,40.039,40.039,0,0,0-7.571,22.925v5.122A2,2,0,0,1,307.956,159.094Zm-17.686-2.116h17.568v-5.006a42.152,42.152,0,0,1,7.954-24.139,20.409,20.409,0,0,0-18.044-32.045,20.541,20.541,0,0,0-19.093,19.719,20.232,20.232,0,0,0,3.688,12.366,41.88,41.88,0,0,1,7.927,24.1Z" transform="translate(10481.746 4677.921)" fill="#fff"/>
    <path id="Trazado_148019" data-name="Trazado 148019" d="M280.554,116.6a1.066,1.066,0,0,1-1.057-1.092,19.306,19.306,0,0,1,17.946-18.532,1.059,1.059,0,0,1,.132,2.113,17.175,17.175,0,0,0-15.964,16.486A1.057,1.057,0,0,1,280.554,116.6Z" transform="translate(10483.192 4679.55)" fill="#fff"/>
    <path id="Trazado_148020" data-name="Trazado 148020" d="M305.855,146.712H286.467a4,4,0,0,1,0-8.007h19.389a4,4,0,0,1,0,8.007Zm-19.389-5.891a1.887,1.887,0,0,0,0,3.775h19.389a1.887,1.887,0,0,0,0-3.775Z" transform="translate(10484.64 4699.882)" fill="#fff"/>
    <path id="Trazado_148021" data-name="Trazado 148021" d="M300.394,132.831H287.781a1.058,1.058,0,1,1,0-2.116h12.613a1.058,1.058,0,1,1,0,2.116Z" transform="translate(10486.713 4695.989)" fill="#fff"/>
    <path id="Trazado_148022" data-name="Trazado 148022" d="M292.022,95.21a1.058,1.058,0,0,1-1.059-1.057V86.92a1.058,1.058,0,1,1,2.116,0v7.232A1.057,1.057,0,0,1,292.022,95.21Z" transform="translate(10488.779 4674.136)" fill="#fff"/>
    <path id="Trazado_148023" data-name="Trazado 148023" d="M300.644,97.2a1.058,1.058,0,0,1-.916-1.587l3.617-6.264a1.059,1.059,0,1,1,1.834,1.059l-3.617,6.263A1.056,1.056,0,0,1,300.644,97.2Z" transform="translate(10492.98 4675.579)" fill="#fff"/>
    <path id="Trazado_148024" data-name="Trazado 148024" d="M306.958,102.65a1.058,1.058,0,0,1-.529-1.975l6.264-3.617a1.058,1.058,0,0,1,1.057,1.834l-6.264,3.617A1.061,1.061,0,0,1,306.958,102.65Z" transform="translate(10496.056 4679.521)" fill="#fff"/>
    <path id="Trazado_148025" data-name="Trazado 148025" d="M316.5,110.087h-7.234a1.058,1.058,0,1,1,0-2.116H316.5a1.058,1.058,0,0,1,0,2.116Z" transform="translate(10497.182 4684.908)" fill="#fff"/>
    <path id="Trazado_148026" data-name="Trazado 148026" d="M313.221,122.327a1.046,1.046,0,0,1-.528-.141l-6.264-3.615a1.058,1.058,0,1,1,1.057-1.834l6.264,3.615a1.058,1.058,0,0,1-.529,1.975Z" transform="translate(10496.056 4689.109)" fill="#fff"/>
    <path id="Trazado_148027" data-name="Trazado 148027" d="M272.874,122.327a1.058,1.058,0,0,1-.529-1.975l6.263-3.615a1.059,1.059,0,1,1,1.059,1.834l-6.264,3.615A1.046,1.046,0,0,1,272.874,122.327Z" transform="translate(10479.45 4689.109)" fill="#fff"/>
    <path id="Trazado_148028" data-name="Trazado 148028" d="M277.144,110.087H269.91a1.058,1.058,0,0,1,0-2.116h7.234a1.058,1.058,0,0,1,0,2.116Z" transform="translate(10478.007 4684.908)" fill="#fff"/>
    <path id="Trazado_148029" data-name="Trazado 148029" d="M279.137,102.65a1.071,1.071,0,0,1-.529-.141l-6.263-3.617a1.058,1.058,0,0,1,1.057-1.834l6.264,3.617a1.058,1.058,0,0,1-.529,1.975Z" transform="translate(10479.45 4679.521)" fill="#fff"/>
    <path id="Trazado_148030" data-name="Trazado 148030" d="M284.584,97.2a1.056,1.056,0,0,1-.918-.529l-3.617-6.263a1.059,1.059,0,1,1,1.834-1.059l3.617,6.264a1.058,1.058,0,0,1-.916,1.587Z" transform="translate(10483.393 4675.579)" fill="#fff"/>
  </g>
</svg>
