<svg xmlns="http://www.w3.org/2000/svg" xmlns:xlink="http://www.w3.org/1999/xlink" width="589.538" height="460.034" viewBox="0 0 589.538 460.034">
  <defs>
    <linearGradient id="linear-gradient" y1="0.5" x2="1" y2="0.5" gradientUnits="objectBoundingBox">
      <stop offset="0.25" stop-color="#00bcd4" stop-opacity="0.102"/>
      <stop offset="1" stop-color="#81d4fa" stop-opacity="0.2"/>
    </linearGradient>
  </defs>
  <g id="Grupo_73417" data-name="Grupo 73417" transform="translate(165.067 981.833)">
    <path id="Trazado_145580" data-name="Trazado 145580" d="M-100.706-884.414s71.6-89.636,134.084-64.837,69.926,20.032,111.184,2.526,78.917-31.005,115.806.794S285.8-880.7,344.651-849.9s97.2,56.48,71.894,95.958-60.093-11.9-65.965,71.233S325.947-523.513,225.106-524.217s-126.259,6.156-183.863-.543-89.9,10.234-104.735-71.46-71.169-100.955-89.026-143.71,30.984-109.191,51.812-144.484Z" fill-rule="evenodd" fill="url(#linear-gradient)"/>
    <path id="Trazado_145581" data-name="Trazado 145581" d="M-72.63-734.337s1.878,30.1,8.6,37.9,23.656,8.007,24.955-9.222.491-26.185.491-26.185l-34.042-2.495Z" fill="#5f4534" fill-rule="evenodd"/>
    <path id="Trazado_145582" data-name="Trazado 145582" d="M-64.611-721.858c.033.007,11.723,2.128,21.887-2.551l1.456,3.347c-11.175,5.145-23.923,2.831-23.96,2.825l.617-3.621Zm0,11.285c.033.006,11.723,2.128,21.887-2.551l1.456,3.346c-11.175,5.145-23.923,2.831-23.96,2.825l.617-3.62Zm0-5.642c.033.006,11.723,2.128,21.887-2.552l1.456,3.347c-11.175,5.145-23.923,2.831-23.96,2.825l.617-3.62Z" fill="#fbd7c7"/>
    <path id="Trazado_145583" data-name="Trazado 145583" d="M47.248-769.13s9.493,28.544,6.2,38.39-18.869,16.681-26.5,1.272-10.221-24-10.221-24L47.248-769.13Z" fill="#5f4534" fill-rule="evenodd"/>
    <path id="Trazado_145584" data-name="Trazado 145584" d="M24.618-746.013c.033-.007,11.625-2.634,19.27-10.946l2.6,2.521c-8.407,9.139-21.048,12-21.084,12.012l-.781-3.587Zm4.21,10.426c.033-.007,11.624-2.634,19.27-10.946l2.594,2.521c-8.407,9.139-21.047,12-21.083,12.012l-.781-3.587Zm-2.1-5.213c.033-.007,11.624-2.634,19.27-10.946l2.594,2.521c-8.406,9.139-21.048,12-21.083,12.012l-.781-3.587Z" fill="#fbd7c7"/>
    <path id="Trazado_145585" data-name="Trazado 145585" d="M41.224-799.687a153.276,153.276,0,0,0,3.829,14.881c2.668,8.716,4.546,6.587,4.644,8.412s5.5,3.5,0,8.918-3.161,7.751-12.054,10.159-9.189,2.1-12.944,4.637-5.632,8.208-13.636,6.384S3.95-748.551.393-757.317s-1.779-12.186-6.917-12.9-12.153-2.708-16.006.71-10.277,2.892-10.672,5.168,1.68,4.763,0,9.526-1.289,4.967-.051,8.868,2.38,12.819-3.012,15.15-25.634,3.4-30.63,5.6-8.453,2.277-11.627-4.346-7.269-26.891-10.814-30.742-6.213-12.466-6.213-12.466,49.342,6.762,136.773-26.942Z" fill="#3979a3" fill-rule="evenodd"/>
    <path id="Trazado_145586" data-name="Trazado 145586" d="M-123.773-893.269c-13.933,19.21-27.265,52.489-32.007,62.42s-9.287,11.553-9.287,11.553,8.892,6.992,12.745,6.586,2.57,3.648,21.54,8.31,26.283,3.446,26.283,3.446l2.767-3.952s-1.549,3.689.526,9.668,1.745,7.56,1.548,10.4-2.47,9.425-2.47,9.425a41.053,41.053,0,0,0,17.1,11.959C-73.77-759.2-49.867-765.889-38-767.308s7.312-7.9,18.773-8.918A45.511,45.511,0,0,0,.533-782.914a76.45,76.45,0,0,1,18.379-4.054c11.264-1.216,24.5-9.525,27.073-10.742s7.9-9.323,7.9-9.323-11.856-12.161-16.8-26.551-1.976-22.5-1.976-22.5,2.986,1.166,14.055-4.1,17.763-9.678,22.7-10.083,9.881-1.216,9.881-1.216A347.752,347.752,0,0,0,50.336-912.3C32.748-931.578,9.805-935.405-2.051-936.4c-27.561-2.305-107.789,23.918-121.722,43.128Z" fill="#62a1cc" fill-rule="evenodd"/>
    <path id="Trazado_145587" data-name="Trazado 145587" d="M-123.773-893.269c-13.933,19.21-27.265,52.489-32.007,62.42s-9.287,11.553-9.287,11.553,1.57,1.235,3.676,2.636a46.207,46.207,0,0,0,14.335-11.2c22.829-27.983,23.708-104.233,74.1-55.13,7.905,7.7,20.553,2.432,20.553,2.432s24.5-.608,34.384-17.228,3.557-38.1,45.648-25.943c17.107,4.185,38.325,30.322,46.335,40.9A330.027,330.027,0,0,0,50.336-912.3C32.748-931.578,9.805-935.405-2.051-936.4c-27.561-2.305-107.789,23.918-121.722,43.128Z" fill="#4d8db8" fill-rule="evenodd"/>
    <path id="Trazado_145588" data-name="Trazado 145588" d="M-20.755-935.169c-2.6.4-5.311.892-8.12,1.456l-4.181,34.008-11.326,42.629,4.841,6.436,18.786-84.529Z" fill="#ddedfd" fill-rule="evenodd"/>
    <path id="Trazado_145589" data-name="Trazado 145589" d="M-92.25-923.092s-6-1.509-6,7.975,10.05,18.506,15.531,14.594c-5.339-5.416-9.536-22.569-9.536-22.569Z" fill="#b8886c" fill-rule="evenodd"/>
    <path id="Trazado_145590" data-name="Trazado 145590" d="M-33.208-944.4s5.286-3.59,9.108,5.045-3.724,26.937-6.345,20.763c-1.282-22.289-2.763-25.808-2.763-25.808Z" fill="#b8886c" fill-rule="evenodd"/>
    <path id="Trazado_145591" data-name="Trazado 145591" d="M-39.541-850.641l-1.111,7.075-50.363-68.563,21.17,21.515,30.3,39.973Z" fill="#c6dffe" fill-rule="evenodd"/>
    <path id="Trazado_145592" data-name="Trazado 145592" d="M-144.144-757.013l66.1-.3,6.621,36.788h-66.893l-5.83-36.484Z" fill="#ddedfd" fill-rule="evenodd"/>
    <path id="Trazado_145593" data-name="Trazado 145593" d="M-74.954-749.994l-6.743-1.444,3.8,26.247,6-4.51-3.064-20.293Z" fill="#ccc" fill-rule="evenodd"/>
    <path id="Trazado_145594" data-name="Trazado 145594" d="M-98.245-966.216c-13.036,15.824.76,50.171,14.2,64.475,3.47,3.693,52.8-20.158,52.8-20.158,3.093-12.779.59-24.179-1.02-33.088-6.577-36.385-49.459-31.292-65.986-11.229Z" fill="#4d352f" fill-rule="evenodd"/>
    <path id="Trazado_145595" data-name="Trazado 145595" d="M-69.845-890.613l25.463,33.537,10.14-38.457-35.6,4.92Z" fill="#b8886c" fill-rule="evenodd"/>
    <path id="Trazado_145596" data-name="Trazado 145596" d="M-71.345-885.35c15.623,14.918,31.862,4.917,38.185-3.594,8.324-11.206,5.423-39.31-2.112-53.1-2.591-4.743-.975-3.891-10.641-10.5-39.8,19.034-43.646,19.11-45.1,19.541,1.588,20.1,4.048,32.739,19.671,47.657Z" fill="#d7ad95" fill-rule="evenodd"/>
    <path id="Trazado_145597" data-name="Trazado 145597" d="M-74.4-926.152c2.042-.709,4.477,1.078,5.439,3.993s.087,5.85-1.954,6.56-4.477-1.079-5.439-3.993-.087-5.85,1.954-6.56Z" fill="#4d352f" fill-rule="evenodd"/>
    <path id="Trazado_145598" data-name="Trazado 145598" d="M-84.813-925.628c.018-.035,6.4-12.618,17.98-5.461l-1.388,2.353c-9.13-5.642-14.209,4.372-14.223,4.4l-2.369-1.292Z" fill="#4d352f"/>
    <path id="Trazado_145599" data-name="Trazado 145599" d="M-72.785-924.711a1.068,1.068,0,0,1,1.362.69,1.109,1.109,0,0,1-.673,1.4,1.068,1.068,0,0,1-1.363-.69,1.109,1.109,0,0,1,.674-1.4Z" fill="#fbfcfc" fill-rule="evenodd"/>
    <path id="Trazado_145600" data-name="Trazado 145600" d="M-49.806-934.505c2.083-.57,4.4,1.378,5.171,4.351s-.289,5.844-2.371,6.413-4.4-1.378-5.171-4.35.288-5.844,2.371-6.414Z" fill="#4d352f" fill-rule="evenodd"/>
    <path id="Trazado_145601" data-name="Trazado 145601" d="M-48.292-932.959a1.072,1.072,0,0,1,1.315.781,1.106,1.106,0,0,1-.761,1.349,1.072,1.072,0,0,1-1.315-.781,1.106,1.106,0,0,1,.761-1.349Z" fill="#fbfcfc" fill-rule="evenodd"/>
    <path id="Trazado_145602" data-name="Trazado 145602" d="M-59.01-934.289c.018-.035,6.4-12.619,17.98-5.462l-1.388,2.353c-9.13-5.642-14.209,4.373-14.223,4.4l-2.369-1.292Z" fill="#4d352f"/>
    <path id="Trazado_145603" data-name="Trazado 145603" d="M-62.189-923.843l2.547,23.186c1.587.283,7.124.809,12.895-4.1l.856,1.061c-7.355,6.262-14.505,4.284-14.526,4.279l-.454-.116-2.654-24.152,1.336-.154Z" fill="#b8886c"/>
    <path id="Trazado_145604" data-name="Trazado 145604" d="M-65.335-893.626c.045.012,15.754,4.26,24.518-8.914l1.843,1.3c-9.653,14.508-26.861,9.854-26.91,9.841l.549-2.223Z" fill="#b8886c"/>
    <path id="Trazado_145605" data-name="Trazado 145605" d="M-102.052-803.753a16.284,16.284,0,0,0,.846,8.515c2.075,5.979,1.745,7.56,1.549,10.4s-2.471,9.425-2.471,9.425a41.053,41.053,0,0,0,17.1,11.959C-73.77-759.2-49.867-765.889-38-767.308s7.312-7.9,18.773-8.918A45.511,45.511,0,0,0,.533-782.914a76.45,76.45,0,0,1,18.379-4.054c11.264-1.216,24.5-9.525,27.073-10.742s7.9-9.323,7.9-9.323-11.856-12.161-16.8-26.552-1.976-22.5-1.976-22.5a62.426,62.426,0,0,0-3.293,29.75C34-809.387,45.808-808.217,41.5-801.766s-11.655,3.669-18.176,7.647S13.657-791.65-.19-788.962c-2.814.546-5.474,1.189-8.006,1.9-3.388-5.122-5.649-19.422-7.581-15.288-1.658,3.546-.335,12.1-.867,18.036-2.016.745-3.951,1.519-5.818,2.3-3.9-6.008-8.67-19.135-10.106-27.059-2.086-11.507-5.487-5.345-3.029,11.507,1.617,11.085.043,18.306-1.224,21.95-10.511,4.559-20.077,7.4-33.024,3.4-9.185-2.838-18.064.811-23.285-2.229s-2.607-14.518-3.7-19.356,4.947-10.54,3.465-14.7-3.465-11.654-3.465-9.514-3.649,10.933-3.649,10.933l-1.572,3.323Z" fill="#4d8db8" fill-rule="evenodd"/>
    <path id="Trazado_145606" data-name="Trazado 145606" d="M-88.784-790.861a34.576,34.576,0,0,0,3.885.573c.039,0,1.253-.165,1.741-.229s11.767-1.577,11.767-1.577l4.27-.534,1.842-.243,9.931-1.307,2.977-.416,3.3-.455c-3.167-.5-14.636-2.1-18.863.134-4.927,2.6-11.645,3.092-14.016,2.939s-6.835,1.115-6.835,1.115Z" fill="#4d8db8" fill-rule="evenodd"/>
    <path id="Trazado_145607" data-name="Trazado 145607" d="M-48.8-792.851c0,.027-1.683,9.47-2.879,12.884a29.2,29.2,0,0,1-2.006,4.766l-.11.185-.246.02c-.05,0-17.569,1.492-24.365-.01-7-1.547-9.7-14.366-9.712-14.4l.878-.135c.008.035,2.623,12.392,9.062,13.816,6.18,1.365,21.642.184,23.8.01a32.991,32.991,0,0,0,1.844-4.456c1.175-3.351,2.847-12.761,2.852-12.788l.885.111Z" fill="#4d8db8"/>
    <path id="Trazado_145608" data-name="Trazado 145608" d="M9.093-809.611s2.906-5.04,12.944-6.08c4.657-.482,30.494,9.2,15.611,9.932-10.142.5-17.087,0-22.824,0s-5.731-3.852-5.731-3.852Z" fill="#3979a3" fill-rule="evenodd"/>
    <path id="Trazado_145609" data-name="Trazado 145609" d="M9.539-807.138c0,.023.679,8.467,4.475,9.743a21.56,21.56,0,0,0,7.706.672,61.207,61.207,0,0,0,10.95-1.755c7.5-1.849,8.75-5.767,8.759-5.787l.451.729c-.009.02-1.019,3.76-8.937,5.713a62.378,62.378,0,0,1-11.161,1.787,22.632,22.632,0,0,1-8.125-.728c-4.3-1.448-5.008-10.3-5.011-10.329l.893-.045Z" fill="#4d8db8"/>
    <path id="Trazado_145610" data-name="Trazado 145610" d="M-88.009-876.553c.017.114,5.851,39.474,37.929,60.079l-.709,1.164c-32.6-20.942-38.526-60.912-38.544-61.028l1.324-.215Zm-29.739-9.494c.038.031,13.368,10.83,16.117,23.9,2.7,12.861,5.459,38.5,5.467,38.577l-1.334.151c-.008-.074-2.755-25.642-5.446-38.442-2.647-12.589-15.6-23.086-15.639-23.117l.835-1.071Zm-34.6,60.383a76.972,76.972,0,0,0,44.059,14.307v1.378a78.419,78.419,0,0,1-44.867-14.586l.808-1.1Zm26.01-38.006c.046.054,16.2,18.881,24.674,42.167l-1.255.479c-8.385-23.046-24.381-41.688-24.427-41.742l1.008-.9Zm-10.945,30.978c.06.005,20.875,1.6,35.422,14.158l-.861,1.051c-14.209-12.266-34.612-13.831-34.671-13.836l.11-1.373Zm41.572-16.853c.059.094,20.662,33.041,43.805,38.2l-.283,1.346c-23.687-5.284-44.585-38.706-44.646-38.8l1.124-.748Z" fill="#3979a3"/>
    <path id="Trazado_145611" data-name="Trazado 145611" d="M2.736-923.66c-.008.038-2.8,13.281,4.949,25.406,7.92,12.392,20.463,38.1,20.5,38.171l-1.2.62c-.035-.074-12.538-25.7-20.425-38.037-8.058-12.6-5.146-26.407-5.138-26.446l1.313.286Zm31.245,65.867c-.012-.058-4.34-19.979.443-30.732l1.218.571c-4.592,10.325-.36,29.814-.348,29.87l-1.313.291Zm-4-5.3c-.016-.094-5.938-32.878,8.969-43.679l.771,1.126c-14.2,10.291-8.437,42.219-8.421,42.31l-1.319.243Zm-6.074-11.433c-.039-.066-13.907-22.874-5.92-39.208l1.2.615c-7.649,15.641,5.828,37.812,5.866,37.876l-1.144.717ZM-13.758-886.3c.015.125,5.09,43.494-3.065,68.229l-1.27-.441c8.057-24.437,3.015-67.508,3-67.631l1.333-.157Zm40.81,41.918c-.016.061-5.581,21.221-15.553,29.912l-.866-1.051c9.654-8.415,15.112-29.162,15.127-29.222l1.292.361ZM19.451-857c-.01.086-3.383,29.961-14.391,42.893l-1.008-.905c10.729-12.6,14.056-42.059,14.065-42.144l1.334.156ZM2.235-896.143c.014.118,5.188,40.99-11.039,78.134l-1.223-.56C6.043-855.354.915-895.859.9-895.976l1.334-.167Z" fill="#3979a3"/>
    <path id="Trazado_145612" data-name="Trazado 145612" d="M73.984-870.464s2.307,6.1-2.535,15.34-31.815,44.466-33.1,46.054-6.2,1.588-10.166,1.791-12.676-.193-12.676-1.791,4.162-6.722,8.119-10.471,9.227-14.147,11.234-22.624,1.414-13.845,1.414-13.845c20.383-6.936,33.337-16.1,37.709-14.454Z" fill="#d7ad95" fill-rule="evenodd"/>
    <path id="Trazado_145613" data-name="Trazado 145613" d="M73.984-870.464a15.622,15.622,0,0,1,.171,7.832c-11.372,4.862-29.434,9.867-37.944,12.113a31.857,31.857,0,0,0,.064-5.491c20.383-6.936,33.337-16.1,37.709-14.454Z" fill="#b8886c" fill-rule="evenodd"/>
    <path id="Trazado_145614" data-name="Trazado 145614" d="M-142.39-808.038s2.938,25.005,8.076,30.515,14.425,16.05,16.3,18.279.1,5.169,2.866,10.844,5.237,7.4,8.2,8.411,10.375-.911,11.165-2.837.593,1.978,4.644,3.117-1.878-6.664-1.976-7.982,2.667-2.837,1.383-4.965-3.459-7.854-7.608-10.641-4.743-2.837-6.225-6.283-5.336-12.238-5.336-14.188,4.551-17.055,4.551-17.055a124.33,124.33,0,0,1-36.043-7.215Z" fill="#d7ad95" fill-rule="evenodd"/>
    <path id="Trazado_145615" data-name="Trazado 145615" d="M-142.39-808.038s.294,2.5.858,6.093c7.069,3.362,19.319,7.836,33.413,7.155.947-3.3,1.772-6.033,1.772-6.033a124.33,124.33,0,0,1-36.043-7.215Z" fill="#b8886c" fill-rule="evenodd"/>
    <path id="Trazado_145616" data-name="Trazado 145616" d="M-38.054-748.6c-.027.023-9.132,7.852-17.286,10.719a20.386,20.386,0,0,1-9.067,1.232,7.59,7.59,0,0,1-3.381-1.175,3.365,3.365,0,0,1-1.522-2.525,4.517,4.517,0,0,1,.444-2.208c1.186-2.641,6.957-3.907,12.95-5.22,6.027-1.321,12.288-2.693,13.878-5.366l.764.478c-1.791,3.01-8.244,4.424-14.457,5.786-5.769,1.264-11.325,2.483-12.323,4.707a3.6,3.6,0,0,0-.364,1.748,2.487,2.487,0,0,0,1.137,1.847,6.715,6.715,0,0,0,2.986,1.019,19.509,19.509,0,0,0,8.665-1.191c8-2.814,16.979-10.533,17.005-10.555l.571.7Zm-43.535-11.534c.067.017,23.237,6.042,40.181.308l.281.873c-17.192,5.817-40.611-.272-40.679-.29l.217-.891Z" fill="#4d8db8"/>
    <path id="Trazado_145617" data-name="Trazado 145617" d="M46.412-774.8c.009.018,3.192,6.28-7.54,8.1a59.623,59.623,0,0,0-12.682,3.509,51.77,51.77,0,0,0-9.22,4.936,17.4,17.4,0,0,1-6.143,2.8,4.144,4.144,0,0,1-2.353-.167A2.386,2.386,0,0,1,7.1-757.3,6.062,6.062,0,0,1,7.19-760.1c.965-4.262,3.793-5.505,7.494-7.131a44.013,44.013,0,0,0,4.678-2.3l.44.8a44.441,44.441,0,0,1-4.767,2.343c-3.464,1.522-6.111,2.685-6.972,6.492a5.177,5.177,0,0,0-.1,2.367,1.513,1.513,0,0,0,.863,1.074,3.32,3.32,0,0,0,1.856.106,16.529,16.529,0,0,0,5.8-2.665,52.715,52.715,0,0,1,9.378-5.02A60.469,60.469,0,0,1,38.728-767.6c9.522-1.62,6.893-6.777,6.886-6.792l.8-.409Zm-7-14.772c-.04.041-14.041,14.3-24.08,15.433a35.346,35.346,0,0,1-13.01-1.048c-1.979-.469-3.32-.787-3.986-.342l-.487-.769c.986-.657,2.475-.3,4.672.217a34.621,34.621,0,0,0,12.716,1.03c9.721-1.1,23.506-15.134,23.545-15.174l.63.653Z" fill="#4d8db8"/>
    <path id="Trazado_145618" data-name="Trazado 145618" d="M-52.623-794.537a9.721,9.721,0,0,0-8.047-8.111,12.182,12.182,0,0,0-5.014.088,12.466,12.466,0,0,0-4.694,2.148,10.932,10.932,0,0,0-3.149,3.612,8.96,8.96,0,0,0-1.033,5.151l2.73-.36a7.551,7.551,0,0,1,.871-4.3,8.717,8.717,0,0,1,2.5-2.89,9.009,9.009,0,0,1,3.381-1.566,8.367,8.367,0,0,1,3.439-.054,7.814,7.814,0,0,1,6.29,6.637l2.725-.359Z" fill="#384b5e"/>
    <path id="Trazado_145619" data-name="Trazado 145619" d="M-68.28-797.754c-.015-.039-5.124-13.472-12.409-14.993-7.059-1.475-10.469,2.658-10.479,2.669l-.967-.258c.011-.013,3.919-4.748,11.916-3.078,7.772,1.623,13,15.376,13.019,15.415l-1.08.245Z" fill="#b2babb"/>
    <path id="Trazado_145620" data-name="Trazado 145620" d="M-89.8-810.331c-.094-.113-2.376-.947-2.376-.947-3.79,2.258-.194,4.2,2.376.947Z" fill="#f2f3f4" fill-rule="evenodd"/>
    <path id="Trazado_145621" data-name="Trazado 145621" d="M-86.175-792.584c-.017-.038-5.945-13.624-.752-18.328,5.34-4.836,12.077-2.633,12.1-2.627l-.6.633a11.428,11.428,0,0,0-10.618,2.341c-4.864,4.405.925,17.679.942,17.717l-1.071.264Z" fill="#b2babb"/>
    <path id="Trazado_145622" data-name="Trazado 145622" d="M-76.7-812.523a14.768,14.768,0,0,1,.7-1.862c4.848-.368,4.291,2.8-.7,1.862Z" fill="#f2f3f4" fill-rule="evenodd"/>
    <path id="Trazado_145623" data-name="Trazado 145623" d="M-67.076-794.687a21.87,21.87,0,0,0-1.583-3.249l1.467-.473a18.186,18.186,0,0,1,1.728,3.33,3.419,3.419,0,0,1,.185,2.208l-1.842.243a2.477,2.477,0,0,0,.045-2.059Zm-17.822,4.4a21.319,21.319,0,0,1-1.58-2.39l1.468-.472a22.648,22.648,0,0,0,1.867,2.631l-1.755.231Z" fill="#2c3b4a"/>
    <path id="Trazado_145624" data-name="Trazado 145624" d="M-97.109-922.444l14.233,15.564-1.941,1.188-12.435-14.7.143-2.056Z" fill="#e6e6e6"/>
    <path id="Trazado_145625" data-name="Trazado 145625" d="M-29.546-945.036l-1.929,20.582-2.048-.2,2.783-21.642,1.194,1.259Z" fill="#e6e6e6"/>
    <path id="Trazado_145626" data-name="Trazado 145626" d="M-86.262-905.658s23.156-12.2,24.656-12.877,31.984-7.871,31.984-7.871,2.7,13.441,1.256,25.486S-38.8-880.319-46.835-878.3s-23.963,3.889-39.427-27.361Z" fill="#fbfcfc" fill-rule="evenodd"/>
    <path id="Trazado_145627" data-name="Trazado 145627" d="M-61.085-918.708c4.311-1.285,31.463-7.7,31.463-7.7s2.7,13.441,1.256,25.486a27.438,27.438,0,0,1-15.4,21.551l-17.32-39.339Z" fill="#e6e6e6" fill-rule="evenodd"/>
    <path id="Trazado_145628" data-name="Trazado 145628" d="M-67.5-887.737c.032-.021,11.258-7.62,16.56-9.253,5.27-1.624,19.261-2.36,19.3-2.362l.088,1.756c-.04,0-13.813.727-18.9,2.294-5.054,1.558-16.064,9.011-16.1,9.033l-.954-1.468Zm-7.918-17.017c.032-.022,11.257-7.619,16.559-9.253,5.268-1.624,26.687-2.867,26.749-2.871l.094,1.757c-.061,0-21.264,1.234-26.353,2.8-5.054,1.558-16.064,9.012-16.095,9.033l-.954-1.468Zm3.544,8.468c.032-.022,11.258-7.62,16.559-9.254,5.271-1.623,23.981-2.7,24.035-2.7l.094,1.757c-.053,0-18.553,1.064-23.638,2.63-5.055,1.558-16.065,9.011-16.1,9.033l-.954-1.467Z" fill="#e6e6e6"/>
    <path id="Trazado_145629" data-name="Trazado 145629" d="M-51.448-896.822c.174-.062.344-.118.508-.168,5.27-1.624,19.261-2.36,19.3-2.362l.088,1.756c-.04,0-13.813.727-18.9,2.294-.094.029-.19.061-.288.094l-.71-1.614Zm-3.128-7.1-.714-1.622c5.3-1.619,23.956-2.688,24.01-2.692l.094,1.757c-.052,0-17.978,1.032-23.39,2.557Zm-3.707-8.419L-59-913.963l.137-.044c5.268-1.624,26.687-2.867,26.749-2.871l.094,1.757c-.06,0-21.036,1.221-26.267,2.777Z" fill="#ccc"/>
    <path id="Trazado_145630" data-name="Trazado 145630" d="M187.92-931.327s28.248,6.683,36.27,14.261,16.171,35.633,16.668,47.627-3.2,39.3-5.936,46.807-3.256,14.826-5.468,14.861-10.71.966-13.966-3.2-3.591-8.038-1.841-17.69-6.108-23.2-8.68-26.549,1.307,4.153,1.4,10.1-3.7,26.292-3.714,35.7,10.9,31.453,7.983,36.69-7.375,13.9-23.526,12.539-15.18-12.247-37.289-9.3-34.6,2.984-44.147-.757-8.92-29.026-8.7-45.573-5.557-37.942-7.047-40.827-1.607,2.486-1.548,6.387,4.331,28.48,3.406,29.954S67.735-800.26,65.144-804.287,51.423-833.279,50.26-847.372s19.646-59.97,25.206-68.741,47.944-30.226,112.454-15.214Z" fill="#f2f3f4" fill-rule="evenodd"/>
    <path id="Trazado_145631" data-name="Trazado 145631" d="M187.92-931.327s28.248,6.683,36.27,14.261c2.9,2.741,5.82,8.165,8.389,14.539a29.432,29.432,0,0,1-5.7-4.756c-8.582-9.23-24.129-8.258-30.164-4.248s-66.369-3.448-70.811-2.935S100.6-920.41,90.392-918.78c-5.864.937-14.713,8.476-21.181,14.72a133.1,133.1,0,0,1,6.255-12.053c5.56-8.771,47.944-30.226,112.454-15.214Z" fill="#e6e6e6" fill-rule="evenodd"/>
    <path id="Trazado_145632" data-name="Trazado 145632" d="M96.95-814l.025-1.808a90.32,90.32,0,0,0-.445-9.727A40.307,40.307,0,0,0,100.6-816.4L96.95-814Zm-3.162-28.8c-1.523-7.073-3.163-12.486-3.86-13.837-1.489-2.887-1.607,2.485-1.548,6.387s4.331,28.48,3.406,29.952a49.867,49.867,0,0,1-5.725,4.909c-.6-1.366-1.306-2.92-2.127-4.646-3.414-7.181-1.337-7.331-3.987-14.809S81.9-845.782,79.142-851s-21.251-3.987-17.767-6.74,17.889,3.335,17.9-1.536-16.848-8.847-9.964-10.5,10,6.557,11.027-.04S94.63-853.687,94.63-853.687a63.938,63.938,0,0,0-.842,10.887Z" fill="#e6e6e6" fill-rule="evenodd"/>
    <path id="Trazado_145633" data-name="Trazado 145633" d="M75.448-911.038l1-.827c4.713,6.154,8.17,15.876,9.86,23.255a75.27,75.27,0,0,1,1.613,20.515,70.915,70.915,0,0,1-1.138,10.021l0,.022,0,.023a54.357,54.357,0,0,0-.121,8.944l-1.225.649a55.177,55.177,0,0,1,.061-9.738l.016-.1a77.192,77.192,0,0,0-.459-30.038,71.583,71.583,0,0,0-6.214-17.234,38.983,38.983,0,0,0-3.386-5.49Zm8.413,49.779-1.267.254a29.236,29.236,0,0,0-3.318-8.084c-3.234-5.387-7.942-9.025-14.04-10.158l.2-1.313c6.475,1.2,11.461,5.03,14.9,10.745a30.973,30.973,0,0,1,3.524,8.556Zm-.1,5.754-1.131.647a25.176,25.176,0,0,0-5.913-6.77A17.788,17.788,0,0,0,59.2-864.554l-.423-1.247a18.9,18.9,0,0,1,18.687,3.085,27,27,0,0,1,6.3,7.211Zm-1.453,3.591-.912.94a27.277,27.277,0,0,0-5.95-4.265c-4.259-2.247-9.026-3.115-13.565-1.289l-.505-1.215c4.879-1.979,9.947-1.109,14.544,1.285a28.763,28.763,0,0,1,6.388,4.544ZM58.392-848.4l1.194-.514c4.1,9.752,12.619,24.523,22.043,29.471l-.559,1.19c-4.2-2.2-7.881-6-10.806-9.717a87.587,87.587,0,0,1-8.738-13.849c-1.091-2.107-2.214-4.367-3.134-6.581Z" fill="#ccc" fill-rule="evenodd"/>
    <path id="Trazado_145634" data-name="Trazado 145634" d="M234.631-843.706c-2.967,3.347-8.541,8.244-13.266,7.625l-.092-.012-.227.966.114.016c5.052.7,11.008-4.359,14.2-7.944l.071-.08-.729-.648-.067.077Zm-13.584-71.762a27.231,27.231,0,0,0-4.222,4.794,44.147,44.147,0,0,0-7.106,17.116,75.3,75.3,0,0,0-.942,21.121,69.911,69.911,0,0,0,1.25,8.72l.023.1.939-.227-.022-.1a68.436,68.436,0,0,1-1.231-8.6,74.3,74.3,0,0,1,.936-20.821,43.3,43.3,0,0,1,6.829-16.6,25.932,25.932,0,0,1,4.123-4.714l.076-.064-.569-.793-.084.073Zm2.157,22.183a60.312,60.312,0,0,0-2.934,7.359,107.319,107.319,0,0,0-4.747,21.943l-.013.106.959.11.012-.1a106.3,106.3,0,0,1,4.659-21.619,57.2,57.2,0,0,1,2.914-7.332l.045-.093-.848-.466-.047.1Zm9.105,11.731c-7,6.717-13.954,16.905-16.539,26.435l-.028.1.933.246.028-.1a54.348,54.348,0,0,1,9.664-18.464,63.19,63.19,0,0,1,6.589-7.486l.075-.071-.645-.739-.077.075Zm2.2,18.58c-1.906,6.972-6.4,18.357-12.106,22.822l-.078.061.54.823.088-.069c5.937-4.627,10.445-16.156,12.482-23.375l.029-.1-.928-.26-.027.1Z" fill="#ccc" fill-rule="evenodd"/>
    <path id="Trazado_145635" data-name="Trazado 145635" d="M229.764-810.671c1.078,10.85-17.171,11.308-15.911,4.023.435-2.52.987-3.055-.114-3.768s-.175-4.863,2.5-5.676.883,6.028,13.525,5.421Z" fill="#f9bfb3" fill-rule="evenodd"/>
    <path id="Trazado_145636" data-name="Trazado 145636" d="M229.764-810.671a7.354,7.354,0,0,1-1.254,5.132,27.1,27.1,0,0,1-5.842-.022c-3.858-.463-7.047-3.034-9.374-6.351.107-1.51,1.116-3.625,2.945-4.179,2.677-.814.883,6.027,13.525,5.42Z" fill="#e09889" fill-rule="evenodd"/>
    <path id="Trazado_145637" data-name="Trazado 145637" d="M185.236-770.348s-6.424,23.046-12.929,27.94-19.69,2.112-17.856-11.492,3.939-20.419,3.939-20.419l26.846,3.971Z" fill="#534d8c" fill-rule="evenodd"/>
    <path id="Trazado_145638" data-name="Trazado 145638" d="M173.516-761.664c-.02,0-6.66-.269-11.676-4.071l-1.186,1.652c5.515,4.181,12.758,4.474,12.778,4.475l.084-2.056Zm-1.312,6.173c-.019,0-6.659-.269-11.676-4.072l-1.186,1.653c5.516,4.181,12.758,4.473,12.779,4.475l.083-2.056Zm.656-3.086c-.019,0-6.66-.27-11.676-4.072L160-761c5.515,4.181,12.758,4.474,12.778,4.475l.084-2.055Z" fill="#fff"/>
    <path id="Trazado_145639" data-name="Trazado 145639" d="M117.342-773.114s3.994,23.617,9.954,29.193,19.359,4.251,18.948-9.476-1.8-20.733-1.8-20.733l-27.105,1.016Z" fill="#534d8c" fill-rule="evenodd"/>
    <path id="Trazado_145640" data-name="Trazado 145640" d="M126.923-763.536c.019,0,6.649.459,12.032-2.773l1.007,1.772c-5.918,3.555-13.15,3.055-13.17,3.054l.131-2.053Zm.663,6.28c.019,0,6.649.46,12.032-2.772l1.008,1.772c-5.919,3.555-13.15,3.055-13.171,3.053l.131-2.053Zm-.332-3.141c.019,0,6.65.46,12.032-2.773l1.008,1.773c-5.918,3.555-13.15,3.055-13.17,3.055l.13-2.055Z" fill="#fff"/>
    <path id="Trazado_145641" data-name="Trazado 145641" d="M91.064-829.9c.657,4.975,1.081,9.03.722,9.6-.925,1.476-24.051,20.038-26.642,16.011a72.333,72.333,0,0,1-3.765-7.58L91.064-829.9Z" fill="#e6e6e6" fill-rule="evenodd"/>
    <path id="Trazado_145642" data-name="Trazado 145642" d="M160.126-846.856s8.4-7.984,13.244-11.386,14.547-8.636,16.042-10.968-3.272-7.982-3.272-7.982l12.732,1.442s3.245-.924-2.269-16.2-12.193,3.2-18.71,8.846-17.767,36.25-17.767,36.25Z" fill="#e6e6e6" fill-rule="evenodd"/>
    <path id="Trazado_145643" data-name="Trazado 145643" d="M231.964-811.857c-.693,2.468-1.358,4.07-2.391,4.086-2.213.036-10.709.967-13.964-3.2s-3.591-8.038-1.84-17.69-6.111-23.2-8.683-26.549c-1.11-1.446-2.308-1.008-3.3.433-3.272-13.249-7.516-24.786-7.516-24.786s9.173,13.631,14.985,21.944a42.372,42.372,0,0,1,7.507,24.383c.113,7.535-1.226,17.745,3.949,17.662,3.427-.055,8.331,2.19,11.257,3.715Z" fill="#e6e6e6" fill-rule="evenodd"/>
    <path id="Trazado_145644" data-name="Trazado 145644" d="M108.775-885.928s17.376,1.957,14.358,6.694-7.593,9.508-6.739,13.574,32.963,11.4,37.109,17.6-25.56-59.971-25.56-59.971-31.481,3.979-19.168,22.107Z" fill="#e6e6e6" fill-rule="evenodd"/>
    <path id="Trazado_145645" data-name="Trazado 145645" d="M207.466-790.321c2.473,7.651,4.681,14.887,3.167,17.6-2.92,5.237-7.375,13.9-23.526,12.54s-15.18-12.248-37.289-9.3-34.6,2.984-44.147-.757c-5.126-2.008-7.923-9.9-9.38-19.341,4.125.633,9.5,2.126,16.543,4.029,19.624,5.3,18.034,3.951,30.626-.486s12.6-4.652,16.933-.271,11.27,5.808,24.567,7.01c8.836.8,17.611-6.223,22.506-11.025Z" fill="#e6e6e6" fill-rule="evenodd"/>
    <path id="Trazado_145646" data-name="Trazado 145646" d="M98.314-827.156,46.21-794.52l-.585-.8-2.589,2.049a23.722,23.722,0,0,0,.041,2.571,6.536,6.536,0,0,0,2.117,3.268q9.979,8.061,19.96,16.121l19.96,16.123c3.954,3.283,5.752,2.108,8.035.321l48.9-37.266c.862-.555,1.24-.993,1.291-1.4h0a.738.738,0,0,0,0-.215l-.022-1.678-1.877-1.911s-.348.346-.825.825l-37.619-30.708c-2.541-2.077-1.779-1.749-4.678.066Z" fill="#ccc" fill-rule="evenodd"/>
    <path id="Trazado_145647" data-name="Trazado 145647" d="M183.04-906.255s-21.67,55.117-24.995,61.434-23.724-50.607-24.169-51.7,3.585-8.09,49.164-9.737Z" fill="#bfd2fc" fill-rule="evenodd"/>
    <path id="Trazado_145648" data-name="Trazado 145648" d="M166.676-865.212c-3.991,9.833-7.456,18.159-8.63,20.391-1.615,3.069-7.259-8.785-12.688-21.912,4.981.621,11.5,6.611,15.637,3.882a15.55,15.55,0,0,1,5.681-2.361Z" fill="#b6beed" fill-rule="evenodd"/>
    <path id="Trazado_145649" data-name="Trazado 145649" d="M183.04-906.255s-5.737,14.3-11.664,28.794c-6.959,4.006-16.228,5.885-28.4,2.636-4.836-10.985-8.908-21.221-9.1-21.692-.445-1.089,3.585-8.091,49.164-9.738Z" fill="#e8a597" fill-rule="evenodd"/>
    <path id="Trazado_145650" data-name="Trazado 145650" d="M183.04-906.255s-4.243,10.577-9.2,22.754c-6.232,4.7-18.753,10.312-35.276-1.6-2.683-6.387-4.559-11.1-4.688-11.417-.445-1.089,3.585-8.091,49.164-9.738Z" fill="#e09889" fill-rule="evenodd"/>
    <path id="Trazado_145651" data-name="Trazado 145651" d="M121.214-932s-7.141,40.047-7.271,42,14.392,7.88,14.392,7.88-6.926,13.984-6.908,15.18S148.4-854.394,153.5-848.065s5.139,9.086,5.139,9.086.735-6.338-5.29-19.054-23.92-69.428-21.822-74.135-10.316.164-10.316.164Z" fill="#fbfcfc" fill-rule="evenodd"/>
    <path id="Trazado_145652" data-name="Trazado 145652" d="M185.025-931.981s-10,45.057-18.3,61.57-8.774,25.142-8.774,25.142l-.3,3.4S169.671-860.8,177.8-866.648s8.122-6.015,8.122-6.015l-5.109-8.515s17.11,2.055,17.838-2.069-3.656-43.608-4.954-45.505-8.671-3.229-8.671-3.229Z" fill="#fbfcfc" fill-rule="evenodd"/>
    <path id="Trazado_145653" data-name="Trazado 145653" d="M149.469-979.335s7.224-2.889,18.094.994,24.146,19.075,26.469,34.308a197.209,197.209,0,0,0,3.91,19.419,199.459,199.459,0,0,1,14.129,55.775c.99,10.734.8,21.252-1.107,30.647-.686,9.3-2.913,18.422-7.85,25.578l-.666-.481c3.784-5.485,5.947-12.155,7.037-19.175a50.462,50.462,0,0,1-4.609,10.818,40,40,0,0,1-2.783,5.5,66.268,66.268,0,0,1-4.265,10.338l-.717-.394a62.236,62.236,0,0,0,3.243-7.393c-2.327,3.067-6.149,4.154-8.571,7.085-.837,1.013-1.414-6.314-.3-13.69-.97,4.416-2.1,8-3.409,10.118l-.689-.448c1.545-2.5,5.974-18.273,4.809-19.028-.924-.6-2.483,8.135-6.293,8.954,4.3-9.754,5.624-27.449,3.77-42.772q-.357-2.946-.763-5.652c.99,14.658.733,34.506-5.136,51.166l-.766-.283c7.121-20.216,5.913-45.2,4.3-59.7-6.067-27.491-19.2-32.611-53.65-31.727,0,0-3.012,2.835-8.293,11.026-2.2,3.405-4.662,7.714-7.01,12.331a399.823,399.823,0,0,0-14.958,58.881l-.8-.15a408.931,408.931,0,0,1,13.031-53.1,104.7,104.7,0,0,0-5.4,14.016c-3.094,10.667-12.926,50.874-13.247,50.573-2.488-2.343-10.213-9.029-7.744-34.055.849-8.6,1.714-16.282,2.874-23.244a119.65,119.65,0,0,0-2.894,49.958l-.8.125a119.88,119.88,0,0,1,5.033-57.116c2.184-10.116,5.324-18.672,10.487-26.469,9.629-14.543,3.853-29.61,15.387-50.565s23.424-23.3,30.155-22.159ZM210.3-849.7a99.06,99.06,0,0,1-.129,11.3,60.341,60.341,0,0,1-3.071,10.475,99.644,99.644,0,0,0,3.2-21.778Zm.9,4.741a121.672,121.672,0,0,0-.753-13.25,146.558,146.558,0,0,0-1.406-19.344c-2.887-19.081-6.13-29.146-9.173-39.91a197.285,197.285,0,0,1,11.384,48.7,116.128,116.128,0,0,1-.052,23.8Z" fill="#5f4534" fill-rule="evenodd"/>
    <path id="Trazado_145654" data-name="Trazado 145654" d="M180.874-925.22s3.006-6.087,5.78-2.113,1.49,11.477-2.233,15.939-4.452,1.624-4.452,1.624l.9-15.45Z" fill="#e09889" fill-rule="evenodd"/>
    <path id="Trazado_145655" data-name="Trazado 145655" d="M130.4-928.416s-4.373-2.865-6.3.627.189,12.564,3.386,15.3,4.988-.079,4.988-.079L130.4-928.416Z" fill="#e09889" fill-rule="evenodd"/>
    <path id="Trazado_145656" data-name="Trazado 145656" d="M182.57-937.411c.095,7.791.418,24.808-3.368,36.8s-13.867,19.154-24.322,17.612-22.134-12.174-24.112-28.375-1.244-19.728-.541-21.726c6.021-6.507,13.64-16.451,23.339-18.25,0,0,20.808,4.43,29,13.935Z" fill="#f9bfb3" fill-rule="evenodd"/>
    <path id="Trazado_145657" data-name="Trazado 145657" d="M171.537-926.292c-1.724-.255-3.393,1.473-3.728,3.859s.793,4.526,2.517,4.779,3.394-1.473,3.728-3.858-.793-4.526-2.517-4.78Z" fill="#4d352f" fill-rule="evenodd"/>
    <path id="Trazado_145658" data-name="Trazado 145658" d="M143.955-927.273c-1.725-.255-3.393,1.473-3.727,3.858s.792,4.527,2.517,4.78,3.393-1.474,3.727-3.859-.792-4.525-2.517-4.779Z" fill="#4d352f" fill-rule="evenodd"/>
    <path id="Trazado_145659" data-name="Trazado 145659" d="M161.929-908c-.006.008-1.92,3.144-8.976-.3l-.7,1.51c8.346,4.067,11.027-.29,11.035-.3l-1.36-.913Z" fill="#e09889"/>
    <path id="Trazado_145660" data-name="Trazado 145660" d="M167.341-900.587c-.028.024-9.248,7.61-21.149,0l-.9,1.4c12.888,8.28,23.02-.054,23.051-.078l-1-1.32Z" fill="#e09889"/>
    <path id="Trazado_145661" data-name="Trazado 145661" d="M177.708-929.252c-.023-.022-7.794-7.719-12.885.3l2.049,1.362c3.47-5.466,9.133.137,9.15.153l1.686-1.814Z" fill="#5f4534"/>
    <path id="Trazado_145662" data-name="Trazado 145662" d="M137.891-927.9c.016-.016,5.681-5.623,9.152-.159l2.05-1.366c-5.094-8.017-12.861-.321-12.884-.3l1.682,1.822Z" fill="#5f4534"/>
    <path id="Trazado_145663" data-name="Trazado 145663" d="M98.287-829.026l-52.692,33c-1.61.846-2.455,1.763-2.567,2.811-.117,1.124.606,2.4,2.138,3.91l19.96,16.121,19.96,16.121c3.954,3.283,5.751,2.11,8.035.322L142.019-794c2.289-1.469,1.162-2.132-.406-3.539l-38.649-31.55c-2.542-2.077-1.779-1.749-4.677.066Z" fill="#fff" fill-rule="evenodd"/>
    <path id="Trazado_145664" data-name="Trazado 145664" d="M100.7-826.443c.042.036.083.071.125.1l37.6,30.691L91.039-759.534a6.712,6.712,0,0,1-1.524,1.007c-.472.134-1.983-1.032-2.293-1.285-9.011-7.353-31.519-25.431-40.445-32.863,17.706-11.262,35.617-22.273,53.3-33.348.208-.13.418-.273.629-.42Z" fill="#342d6e" fill-rule="evenodd"/>
    <path id="Trazado_145665" data-name="Trazado 145665" d="M126.55-787.905c-3.474-.8-7.121,12.438-3.451,12.271,2.721-.125,6.4-11.486,3.451-12.271Z" fill="#f9bfb3" fill-rule="evenodd"/>
    <path id="Trazado_145666" data-name="Trazado 145666" d="M120.578-784.363c-3.99-.742-7.119,12.439-3.452,12.27,2.723-.124,6.036-11.121,3.452-12.27Z" fill="#f9bfb3" fill-rule="evenodd"/>
    <path id="Trazado_145667" data-name="Trazado 145667" d="M113.388-781.32c-4.012.424-3.64,13.933-.147,12.771,2.592-.863,3.3-12.693.147-12.771Z" fill="#f9bfb3" fill-rule="evenodd"/>
    <path id="Trazado_145668" data-name="Trazado 145668" d="M106.032-779.449c-4.073.957.564,15.964,3.893,13.569,2.47-1.777-.44-13.926-3.893-13.569Z" fill="#f9bfb3" fill-rule="evenodd"/>
    <path id="Trazado_145669" data-name="Trazado 145669" d="M157.4-835.713c.008.015,3.118,4.943.295,23.171-2.859,18.457-1.125,39.128-1.12,39.188l.813-.075c-.005-.058-1.732-20.629,1.109-38.967,2.877-18.57-.4-23.783-.415-23.8l-.682.48Z" fill="#ccc"/>
    <path id="Trazado_145670" data-name="Trazado 145670" d="M182.9-855.662l1.144.125c-.355,3.268-.9,6.582-1.5,9.8a122.992,122.992,0,0,1-5.859,21.409q-.431,1.119-.9,2.253l-1.071-.371c.415-.989.805-1.974,1.17-2.945a123.372,123.372,0,0,0,5.583-20.795c.573-3.1,1.1-6.322,1.439-9.476Zm-63.059-3.757,1.144-.079A79.939,79.939,0,0,0,124.03-843.7c2.906,9.913,7.857,19.816,15.855,26.394l-.707.929c-8.16-6.708-13.227-16.8-16.209-26.9a81.615,81.615,0,0,1-3.128-16.136Zm-10.557,11.768,1.114-.271a58.583,58.583,0,0,0,3.6,9.834c3.061,6.65,7.33,12.994,12.965,17.618l-.706.929c-5.77-4.731-10.142-11.232-13.28-18.037a60.071,60.071,0,0,1-3.694-10.073Z" fill="#ccc" fill-rule="evenodd"/>
    <path id="Trazado_145671" data-name="Trazado 145671" d="M197.27-801.884a32.768,32.768,0,0,0-12.669-1.177c-7.344.684-19.663,1.691-21.56,1.721s3.9,1.641,9.363,2.2a60.467,60.467,0,0,0,8.663.1c6.465-.722,9.447-1.238,10.289-1.272.375-.015,1.329-.016,2.269-.014a9.126,9.126,0,0,1,3.645-1.565Z" fill="#bdbdbd" fill-rule="evenodd"/>
    <path id="Trazado_145672" data-name="Trazado 145672" d="M162.015-798.585c.006.018,1.922,6.275,4.5,9.026,1.34,1.427,4.366,2.992,7.586,4.123a23.434,23.434,0,0,0,8.718,1.6c.5-.047,1.066-.086,1.606-.124,3.633-.254,6.317-.445,8.849-4.3,2.749-4.181,4.724-10.882,4.729-10.9l-1.393-.252c-.005.019-1.933,6.558-4.594,10.605-2.16,3.287-4.515,3.454-7.7,3.678-.5.034-1.023.071-1.647.128a21.794,21.794,0,0,1-8-1.519c-3.022-1.061-5.829-2.492-7.019-3.76-2.4-2.558-4.245-8.583-4.249-8.6l-1.392.288Z" fill="#e6e6e6"/>
    <path id="Trazado_145673" data-name="Trazado 145673" d="M171.81-924.908a.935.935,0,0,0-.908.96.936.936,0,0,0,.937.932.935.935,0,0,0,.906-.962.931.931,0,0,0-.935-.93Z" fill="#fff" fill-rule="evenodd"/>
    <path id="Trazado_145674" data-name="Trazado 145674" d="M142.793-926.338a.936.936,0,0,0-.909.96.934.934,0,0,0,.937.931.935.935,0,0,0,.908-.96.934.934,0,0,0-.936-.931Z" fill="#fff" fill-rule="evenodd"/>
    <path id="Trazado_145675" data-name="Trazado 145675" d="M149.143-977.712c.012.045,3.989,15.738,3.543,24.346l1.628.086c.46-8.861-3.583-24.81-3.6-24.857l-1.576.425Z" fill="#8c6850"/>
    <path id="Trazado_145676" data-name="Trazado 145676" d="M193.471-917.746c.059.137,21.044,47.445,4.582,93.684l.766.286c16.575-46.56-4.543-94.172-4.6-94.311l-.744.341Zm-74.559-.735c-.066.087-23.122,30.2-26.481,76.959l.812.062c3.341-46.5,26.249-76.424,26.315-76.512l-.646-.509Zm4.642,9.432A147.864,147.864,0,0,0,102.408-863.6c-7.194,26.743-5.688,32.076-5.683,32.092l.786-.222c-.005-.015-1.45-5.125,5.684-31.648A146.946,146.946,0,0,1,124.2-908.545l-.649-.5Zm61.735,3.461c.043.1,15.254,33.16,7.427,65.2l.79.2c7.9-32.328-7.435-65.657-7.478-65.753l-.739.353Z" fill="#8c6850"/>
    <path id="Trazado_145677" data-name="Trazado 145677" d="M154.108-976.181c.051.005,17.933,1.1,29.5,16.039,8.034,10.379,8.524,21.39,8.858,28.9.149,3.361.268,6.034,1.02,7.719l.74-.346c-.684-1.533-.8-4.136-.946-7.41-.339-7.614-.836-18.784-9.036-29.377-11.792-15.234-30.022-16.349-30.074-16.353l-.061.833Zm3.128,17.3c.055.007,19.505,1.882,25.182,14.774l.742-.342c-5.873-13.34-25.784-15.258-25.841-15.263l-.083.831Zm-1.706-11.774c28.181,8.688,29.514,19.673,31.481,35.9l.074.607.809-.1-.074-.608c-2.007-16.551-3.365-27.756-32.056-36.6l-.234.8Z" fill="#8c6850"/>
    <path id="Trazado_145678" data-name="Trazado 145678" d="M145.705-975.02c-.049.016-17.258,5.121-25.332,22.306-5.342,11.367-3.888,21.749-2.626,29.1l-.8.182c-1.282-7.461-2.773-18.017,2.69-29.644,8.233-17.522,25.776-22.727,25.827-22.742l.238.8Zm.662,17.58c-.053.019-18.624,6.239-21.4,20.1l-.8-.166c2.867-14.339,21.877-20.705,21.932-20.724l.26.793Zm-.865-11.87c-25.624,14.836-24.566,25.853-23,42.128l.059.61-.812.084-.058-.61c-1.6-16.6-2.675-27.835,23.415-42.941l.4.729Z" fill="#8c6850"/>
    <path id="Trazado_145679" data-name="Trazado 145679" d="M192.2-800.318a8.081,8.081,0,0,0-5.113-7.324,9.767,9.767,0,0,0-3.8-.812,9.12,9.12,0,0,0-3.8.774,7.509,7.509,0,0,0-2.809,2.13c-1.1,1.378-1.414,4.061-1.052,6.131a11.093,11.093,0,0,0,1.791-.165,7.163,7.163,0,0,1,1.142-5.15,5.977,5.977,0,0,1,2.233-1.707,6.585,6.585,0,0,1,2.742-.571,6.673,6.673,0,0,1,2.6.562,6.538,6.538,0,0,1,3.964,6.283c.609-.08,1.017-.128,1.255-.138.175-.007.476-.011.843-.013Z" fill="#384b5e"/>
    <path id="Trazado_145680" data-name="Trazado 145680" d="M180.755-805.341c-.007-.031-2.268-10.894-7.592-13.3-5.158-2.328-8.226.142-8.235.148l-.7-.36c.01-.008,3.526-2.839,9.37-.2,5.678,2.565,7.995,13.687,8,13.719l-.845-.008Z" fill="#b2babb"/>
    <path id="Trazado_145681" data-name="Trazado 145681" d="M165.993-818.44c-.057-.1-1.682-1.119-1.682-1.119-3.132,1.013-.647,3.087,1.682,1.119Z" fill="#d9d9d9" fill-rule="evenodd"/>
    <path id="Trazado_145682" data-name="Trazado 145682" d="M166.619-804.634c-.007-.032-2.87-11.152,1.613-13.734,4.61-2.656,9.437.158,9.451.166l-.526.365c-.012-.007-4.229-2.466-8.3-.12-4.2,2.418-1.4,13.283-1.4,13.314l-.841.009Z" fill="#b2babb"/>
    <path id="Trazado_145683" data-name="Trazado 145683" d="M176.147-817.776a10.3,10.3,0,0,1,.753-1.258c3.706.574,2.909,2.83-.753,1.258Z" fill="#d9d9d9" fill-rule="evenodd"/>
    <path id="Trazado_145684" data-name="Trazado 145684" d="M181.3-802.854a17.768,17.768,0,0,0-.81-2.688l1.165-.094a14.775,14.775,0,0,1,.909,2.773c.479,1.946-1.1,3.313-3.4,3.981a46.214,46.214,0,0,1-8.28-.415,6.171,6.171,0,0,1-3-2.388,18.063,18.063,0,0,1-1.481-3.072l1.165-.093a20,20,0,0,0,1.507,2.984c2.311,3.836,13.187,2.912,12.226-.988Z" fill="#2c3b4a"/>
    <path id="Trazado_145685" data-name="Trazado 145685" d="M129.582-929.8l3.675,13.414-2.019.3-3.386-13.346,1.73-.365Z" fill="#e6e6e6"/>
    <path id="Trazado_145686" data-name="Trazado 145686" d="M183.563-928.388l-1.423,15.145-1.651-.836,2.128-16,.946,1.7Z" fill="#e6e6e6"/>
    <path id="Trazado_145687" data-name="Trazado 145687" d="M130.015-916.542s23.1-1.976,24.561-2.01,28.987,4.379,28.987,4.379-2.139,11.527-7.249,20.575S161-880.761,153.7-881.827s-21.065-4.869-23.683-34.715Z" fill="#fbfcfc" fill-rule="evenodd"/>
    <path id="Trazado_145688" data-name="Trazado 145688" d="M155.062-918.517c3.98.413,28.5,4.344,28.5,4.344s-2.139,11.527-7.249,20.575a23.832,23.832,0,0,1-19.731,11.941l-1.521-36.86Z" fill="#e6e6e6" fill-rule="evenodd"/>
    <path id="Trazado_145689" data-name="Trazado 145689" d="M139.832-896.145c.034-.007,11.95-2.295,16.933-1.829,4.954.463,16.924,4.519,16.958,4.531l-.506,1.418c-.034-.011-11.818-4.005-16.6-4.451-4.751-.444-16.438,1.8-16.472,1.808l-.315-1.477Zm-1.025-16.086c.034-.007,11.95-2.295,16.933-1.829,4.951.462,23.316,6.581,23.369,6.6l-.5,1.421c-.052-.018-18.232-6.074-23.014-6.521-4.751-.444-16.438,1.8-16.471,1.808l-.316-1.477Zm.178,7.873c.034-.007,11.95-2.3,16.933-1.829,4.954.463,20.991,5.818,21.036,5.834l-.5,1.42c-.045-.015-15.9-5.31-20.682-5.756-4.751-.444-16.438,1.8-16.471,1.808l-.316-1.477Z" fill="#e6e6e6"/>
    <path id="Trazado_145690" data-name="Trazado 145690" d="M155.909-898.009c.164.009.322.02.474.035,4.884.463,16.683,4.519,16.717,4.531l-.5,1.418c-.034-.011-11.65-4.005-16.362-4.451-.087-.009-.177-.015-.268-.022l-.062-1.511Zm-.275-6.656-.063-1.52c4.909.478,20.669,5.816,20.714,5.832l-.493,1.42c-.044-.015-15.19-5.145-20.158-5.732Zm-.326-7.889-.062-1.517.127.011c4.881.462,22.983,6.581,23.036,6.6l-.494,1.421c-.051-.018-17.778-6.009-22.607-6.513Z" fill="#ccc"/>
    <path id="Trazado_145691" data-name="Trazado 145691" d="M357.443-868.653c10.2,4.608,21.635,18.63,23.018,30.506s14.956,55.939,16.857,57.889-3.975,5.849-16.246,6.2-34.609-7.134-34.609-7.134-1.936,10.89-10.709,17.637-90.8-14.906-93.46-24.645.932-25.717-2.049-25.628-26.985-7.557-32.861-12.165-7.6-4.787-7.6-4.787,3.284-1.418,12.962-17.016,14.832-17.461,21.4-24.29c34.665-36.041,92.444-10.517,123.3,3.429Z" fill="#7fb3d5" fill-rule="evenodd"/>
    <path id="Trazado_145692" data-name="Trazado 145692" d="M215.544-821.717a40.417,40.417,0,0,1-8.16-4.272c-.817-.641-1.554-1.2-2.217-1.677a19.147,19.147,0,0,0,5.042-6.953c2.646-6.584,5.675-12.82,5.675-12.82s.72,16.744-.34,25.722Z" fill="#62a1cc" fill-rule="evenodd"/>
    <path id="Trazado_145693" data-name="Trazado 145693" d="M357.443-868.653c9.333,4.218,19.705,16.323,22.455,27.45a102.57,102.57,0,0,1-11.31-12c-6.383-8.137-10.679-7.024-21.956-5.53s-35.688-12.564-54.616-16.221-32.875-1.334-32.875-1.334-10.139-2.371-18.9,4.208c-3.28,2.462-7.944,4.433-12.495,5.933,2.121-1.892,4.176-3.63,6.392-5.933,34.664-36.042,92.443-10.518,123.3,3.428Z" fill="#62a1cc" fill-rule="evenodd"/>
    <path id="Trazado_145694" data-name="Trazado 145694" d="M241.458-806.565c.112-3.458.1-6.116-.607-6.969h0s1.372-2.173,3.784-14.974-6.13-24.7-6.13-24.7c6.812,7.848,8.563,15.332,8.087,21.728s-.234,11.825-1.275,21.8,1.041,11.565,1.041,11.565-3.784-5.433-4.9-8.449Z" fill="#62a1cc" fill-rule="evenodd"/>
    <path id="Trazado_145695" data-name="Trazado 145695" d="M345.771-778.537a34.57,34.57,0,0,1-1.944,4.86L324.193-775.2s13.876-5.511,16.652-17.578,6.9-26.527,12.9-35.964,9.344-9.048,9.344-9.048-12.5,19.208-14.278,30.882c-1.592,10.454-2.809,25.369-3.045,28.373Z" fill="#62a1cc" fill-rule="evenodd"/>
    <path id="Trazado_145696" data-name="Trazado 145696" d="M321.227-792.406s-7.5-13.457-19.065-16.848-22-2.607-25.261-13.533-11.256-13.452-12-5.036-1.49,20.711-7.443,23.15,23.066,15.329,39.027,19.032,32.086,7.362,24.741-6.765Z" fill="#62a1cc" fill-rule="evenodd"/>
    <path id="Trazado_145697" data-name="Trazado 145697" d="M345.495-777.7a30.324,30.324,0,0,1-9.741,14.146c-8.772,6.747-90.8-14.906-93.46-24.645-2.076-7.615-.336-19.043-.9-23.624,1.431.228,2.273,6.791,4.732,10.5s5.4,3.278,9.791,10.328,60.86,14.179,60.86,14.179,14.756-1.546,20.115-1.546a82.116,82.116,0,0,1,8.606.661Z" fill="#62a1cc" fill-rule="evenodd"/>
    <path id="Trazado_145698" data-name="Trazado 145698" d="M262.177-850.012c.006.119,2.025,41.34,18.263,57.324l.813-.866c-15.9-15.653-17.9-56.4-17.9-56.52l-1.171.062Zm85.747,8.733c-.086.025-29.588,8.909-41.657,27.959l.983.654c11.829-18.672,40.925-27.434,41.009-27.459l-.335-1.154Zm1.213,11.868c.007.073,2.929,25.078-27.951,45.769l.643,1.008c31.484-21.1,28.482-46.824,28.474-46.9l-1.166.122Z" fill="#62a1cc" fill-rule="evenodd"/>
    <path id="Trazado_145699" data-name="Trazado 145699" d="M242.256-875.427c.023.072,8.263,25.013,8.092,35.426l-.025,1.612c-.137,9.005-.183,11.988-3.759,14.266-4.34,2.764-4.341,8.4-4.341,8.415H243.4c0-.014,0-4.984,3.785-7.394,4.117-2.622,4.165-5.768,4.31-15.268l.026-1.613c.174-10.626-8.129-35.758-8.153-35.83l-1.111.386Zm1.084,53.785c-.026-.055-8.974-19.486-26.457-19.306l.009,1.2c16.732-.173,25.366,18.573,25.391,18.627l1.057-.523Zm-5.714-47.5c.026.05,6.454,12.485,8.7,24.8l1.084-.509c-2.336-12.456-8.72-24.8-8.746-24.851l-1.038.556ZM232.79-862.3a55.228,55.228,0,0,1,4.07,6.1l1.1-.452a56.856,56.856,0,0,0-4.253-6.406l-.914.754Z" fill="#62a1cc"/>
    <path id="Trazado_145700" data-name="Trazado 145700" d="M278.17-868.094s10.864,24.966,22.172,33.475c16.754-9.926,8.05-7.031,22.394-20.235s-29.367-30.47-44.566-13.24Z" fill="#e8a597" fill-rule="evenodd"/>
    <path id="Trazado_145701" data-name="Trazado 145701" d="M324.193-864.574c-6.068-9.093-30.539-15.586-43.261-6.054,2.74,8.357,7.452,15.83,13.842,19.073,12.362,6.274,23.079-3.465,29.419-13.019Z" fill="#e09889" fill-rule="evenodd"/>
    <path id="Trazado_145702" data-name="Trazado 145702" d="M331.543-852.969l-32.465,24.225-2.161-3.463,27.4-25.389,7.226,4.627Z" fill="#ddedfd" fill-rule="evenodd"/>
    <path id="Trazado_145703" data-name="Trazado 145703" d="M274-863.536l22.915,31.329,3.425-3.173-19.5-32.5L274-863.536Z" fill="#c6dffe" fill-rule="evenodd"/>
    <path id="Trazado_145704" data-name="Trazado 145704" d="M322.215-734.83s-2.325,10.407-9.09,15.105-17.192,1.951-18.743-5.131,0-16.767,0-16.767l27.833,6.793Z" fill="#00202b" fill-rule="evenodd"/>
    <path id="Trazado_145705" data-name="Trazado 145705" d="M238.893-763.406s-4.029,9.845-1.206,17.707,12.856,11.87,18.143,7.044,9.535-13.62,9.535-13.62l-26.472-11.131Z" fill="#00202b" fill-rule="evenodd"/>
    <path id="Trazado_145706" data-name="Trazado 145706" d="M240.245-813.824s-2.552,14.566-.5,17.9,17.069,18.353,42.2,22.568,28.383,5.188,33,2.594,12.046-3.08,17.578-3.242,8.146.648,11.161-.325,6.5-.81,7.428.812-1.044,3.079-1.044,3.079,2.766.163,3.556,2.027-2.512,3.4-2.512,3.4,2.634.324,2.634,1.946-12.669,14.266-40.338,10.051S220.2-762.737,213.036-785.27s-3.488-39.362-3.488-39.362c10.233,3.6,17.2,7.981,30.7,10.808Z" fill="#f9bfb3" fill-rule="evenodd"/>
    <path id="Trazado_145707" data-name="Trazado 145707" d="M240.245-813.824s-.3,1.735-.618,4.144c-7.786-1.567-21.775-4.512-30.935-7.194a51.62,51.62,0,0,1,.856-7.758c10.232,3.6,17.2,7.981,30.7,10.808Z" fill="#e8a597" fill-rule="evenodd"/>
    <path id="Trazado_145708" data-name="Trazado 145708" d="M246.289-789.3a75.307,75.307,0,0,0,21.738,12.272c22.156,26.242,55.262,19.684,85.713,13.8a1.347,1.347,0,0,1,.01.17c0,1.621-12.669,14.266-40.338,10.051S220.2-762.737,213.036-785.27c-.062-.2-.121-.387-.181-.58,1.764-3.728,7.265-1.392,12.764,1.735,37.815,21.5,18.318,5.647,20.67-5.187Z" fill="#e8a597" fill-rule="evenodd"/>
    <path id="Trazado_145709" data-name="Trazado 145709" d="M380.461-774.043c-1.219,7.124-10.362,25.315-14.489,32.42s-28.77,16.82-51.023,10.012-42.526-16.094-52.858-18.318-15.547-2.594-28.982-13.293-17.7-17.752-15.806-18.967c2.164-1.387,35.123,21.345,38.171,12.726.937-2.651-2.45-7.214-3.082-9.484s-4.425-5.836-4.189-7.944,3.948-1.822,7.35,2.026,7.113,8.836,10.195,10.943,8.93,9.646,9.958,10.943,33.311,8.066,42.438,8.714c22.3,1.583,22.949-3.606,28.319-26.923,11.981,3.116,27.619,7.217,34,7.145Z" fill="#f9bfb3" fill-rule="evenodd"/>
    <path id="Trazado_145710" data-name="Trazado 145710" d="M380.461-774.043a31.5,31.5,0,0,1-1.365,4.824c-14.342.18-27.6-5.768-33.367-8.776l.734-3.193c11.981,3.116,27.619,7.217,34,7.145Z" fill="#e8a597" fill-rule="evenodd"/>
    <path id="Trazado_145711" data-name="Trazado 145711" d="M379.413-790.553c-.039-.018-13.333-6.381-21.571,2.07l.831.852c7.659-7.855,20.217-1.847,20.253-1.83l.487-1.092Zm-.611-38.919c-.057.047-19.758,16.226-26.327,32.5l1.084.457c6.452-15.984,25.922-31.975,25.978-32.02l-.735-.938Zm5.9,24.861c-.057,0-19.823-.36-30.371,14.246l.941.716c10.19-14.109,29.371-13.76,29.426-13.76l0-1.2Z" fill="#62a1cc"/>
    <path id="Trazado_145712" data-name="Trazado 145712" d="M326.575-880.154c20.256,8.666,24.86,37.056,20.412,56.638-2.914,12.822-7.818,26.465-11.833,30.8l1.909,1.863c4.556-4.917,10.136-16.776,13.258-30.509,2.152-9.478,3.177-19.944,1.94-29.758-1.266-10.037-4.886-19.387-12.04-26.359a39.032,39.032,0,0,0-15.8-9.207,18.954,18.954,0,0,0,2.153,6.536Z" fill="#566573"/>
    <path id="Trazado_145713" data-name="Trazado 145713" d="M331.543-796.176a7.626,7.626,0,0,0-7.528,7.72,7.626,7.626,0,0,0,7.528,7.721,7.625,7.625,0,0,0,7.527-7.721,7.626,7.626,0,0,0-7.527-7.72Z" fill="#b2babb" fill-rule="evenodd"/>
    <path id="Trazado_145714" data-name="Trazado 145714" d="M331.543-795.2a6.663,6.663,0,0,0-6.578,6.746,6.664,6.664,0,0,0,6.578,6.747,6.665,6.665,0,0,0,6.578-6.747,6.664,6.664,0,0,0-6.578-6.746Z" fill="#f2f3f4" fill-rule="evenodd"/>
    <path id="Trazado_145715" data-name="Trazado 145715" d="M331.543-792.62a4.114,4.114,0,0,0-4.061,4.164,4.114,4.114,0,0,0,4.061,4.165,4.114,4.114,0,0,0,4.06-4.165,4.114,4.114,0,0,0-4.06-4.164Z" fill="#b2babb" fill-rule="evenodd"/>
    <path id="Trazado_145716" data-name="Trazado 145716" d="M282.376-896.44c-12.466,3.2-32.908,16.3-28.276,68.338l3.306-1.544c-1.992-10.669-2.2-55.522,24.1-60.888a56.92,56.92,0,0,0,.867-5.906Z" fill="#566573"/>
    <path id="Trazado_145717" data-name="Trazado 145717" d="M265.168-813.96c.009.043,1.575,8.342,2.792,16.8l1.273-.507c-1.213-8.422-2.74-16.515-2.748-16.558l-1.317.265Z" fill="#e5e7e9"/>
    <path id="Trazado_145718" data-name="Trazado 145718" d="M252.25-809.187a136.759,136.759,0,0,0,7.007,15.492l1.263-.5a135.12,135.12,0,0,1-7-15.465l-1.265.476Z" fill="#e5e7e9"/>
    <path id="Trazado_145719" data-name="Trazado 145719" d="M267.5-813.169c0-.021.089-7.461-3.012-12.748-1.847-3.147-4.167-4.807-6.447-5.253l-.007,0a6.524,6.524,0,0,0-4.033.489,7.767,7.767,0,0,0-3.149,2.758c-1.642,2.438-2.389,6.1-1.421,10.49a95.514,95.514,0,0,0,2.923,9.863l2.514-.992a92.124,92.124,0,0,1-2.818-9.483c-.785-3.557-.235-6.446,1.016-8.3a5.1,5.1,0,0,1,2.046-1.822,3.914,3.914,0,0,1,2.425-.286c1.575.311,3.238,1.562,4.653,3.972,2.7,4.6,2.624,11.336,2.624,11.354l2.686-.035Z" fill="#566573"/>
    <path id="Trazado_145720" data-name="Trazado 145720" d="M332.6-936.661c.1.02.205.045.307.067,4.046.106,13.986,2.357,15.677,21.619a89.269,89.269,0,0,1,2.765,24c.6,17.415-2.521,43.484-26.627,43.532v-.876c17.584-.035,23.643-14.492,25.308-28.935-2.816,15.374-10.192,27.683-23.044,27.683-10.174,0-1.4-3.4-4.377-12.126-6.658-8.138-30.729-11.324-36.153-8.852-6.221,2.836-8.439,7.268-8.439,11.167,0,10.325-6.238,4.537-10.872-8.245,1.763,5.906,4.711,11.673,9.6,15.505l-.519.7c-7.911-6.2-10.874-17.238-11.932-26.016-2.547-11.351-3.27-25.329.9-38.366-5.242,13.418-6.363,33.011,5.429,60.653l-.784.35c-15.564-36.483-8.835-59.141.38-72.154,4.726-7.873,11.87-14.919,22.278-20.166,21.513-10.843,40.959,2.3,40.1,10.458Zm4.252,1.724c4.287,2.713,7.714,8.1,10.159,14.9-1.944-9.756-6.467-13.5-10.159-14.9Z" fill="#513b2d" fill-rule="evenodd"/>
    <path id="Trazado_145721" data-name="Trazado 145721" d="M324.344-920.855c.022.031,3.823,2.809,7.306,9.809,4.785,9.617,2.543,21.205-1.288,31.027-3.9,9.993-17.638,30.932-34.4,22.423-15.714-7.975-21.281-41.524-12.317-50.915,2.661-1.1,7.582-2.054,16.662-1.646,15.516.7,21.8-6.925,23.849-10.416.063-.094.129-.185.19-.282Zm-37.068,9.635c8.233-4.333,20.749-1.705,29.494-4.29-3.518,2.2-8.748,3.944-16.391,3.6a55.642,55.642,0,0,0-13.1.69Z" fill="#f9bfb3" fill-rule="evenodd"/>
    <path id="Trazado_145722" data-name="Trazado 145722" d="M317.346-897.78c-1.619-.111-3.053,1.69-3.2,4.023s1.038,4.312,2.657,4.422,3.054-1.691,3.2-4.023-1.039-4.312-2.658-4.422Z" fill="#513b2d" fill-rule="evenodd"/>
    <path id="Trazado_145723" data-name="Trazado 145723" d="M316.8-896.783a1.079,1.079,0,0,0-1.138,1.022,1.086,1.086,0,0,0,1,1.166,1.08,1.08,0,0,0,1.138-1.021,1.088,1.088,0,0,0-1-1.167Z" fill="#f2f3f4" fill-rule="evenodd"/>
    <path id="Trazado_145724" data-name="Trazado 145724" d="M295.577-900.867c-1.619-.111-3.053,1.69-3.2,4.023s1.039,4.312,2.658,4.422,3.054-1.691,3.2-4.023-1.039-4.312-2.658-4.422Z" fill="#513b2d" fill-rule="evenodd"/>
    <path id="Trazado_145725" data-name="Trazado 145725" d="M295.033-899.87a1.079,1.079,0,0,0-1.138,1.022,1.086,1.086,0,0,0,1,1.166,1.077,1.077,0,0,0,1.137-1.021,1.087,1.087,0,0,0-1-1.167Z" fill="#f2f3f4" fill-rule="evenodd"/>
    <path id="Trazado_145726" data-name="Trazado 145726" d="M311.02-900.954c.022-.02,8.113-7.533,14.132,1.021l-1.269.939c-4.993-7.095-11.811-.768-11.831-.75l-1.032-1.21Zm-22.4-2.163c.023-.02,8.113-7.533,14.133,1.021l-1.27.939c-4.993-7.1-11.811-.768-11.831-.75l-1.032-1.21Z" fill="#513b2d" fill-rule="evenodd"/>
    <path id="Trazado_145727" data-name="Trazado 145727" d="M313.259-872.561c-.033.023-11.759,8.327-22.3-3.509l-1.158,1.081c11.457,12.868,24.287,3.784,24.323,3.759l-.869-1.331Z" fill="#d18c84"/>
    <path id="Trazado_145728" data-name="Trazado 145728" d="M374.035-842.3c-.032.042-10.929,14.768-17.354,30.44-1.979,4.827-3.4,8.084-4.412,10.407-2.3,5.268-2.549,5.846-2.549,9.147v7.445H350.9v-7.445c0-3.054.241-3.608,2.443-8.657,1.012-2.321,2.431-5.574,4.421-10.431,6.364-15.523,17.18-30.139,17.211-30.181l-.936-.725Z" fill="#62a1cc"/>
    <path id="Trazado_145729" data-name="Trazado 145729" d="M305.234-895.913c-.01.046-3.549,15.5-3.885,17.079.113.049.458.188,1.018.446a14.8,14.8,0,0,0,3.435,1.068c.171.032.346.061.524.087l-.309.944-.3-.052a16.243,16.243,0,0,1-3.769-1.176,4.08,4.08,0,0,1-1.755-1.235.491.491,0,0,1-.016-.165c.019-.226,3.918-17.268,3.929-17.317l1.129.321Z" fill="#d18c84"/>
    <path id="Trazado_145730" data-name="Trazado 145730" d="M350.492-770.526c-2.077-.166-13.57,2.034-13.6,2.04l.14.789c.032-.005,11.427-2.185,13.4-2.027l.061-.8Z" fill="#e09889"/>
    <path id="Trazado_145731" data-name="Trazado 145731" d="M351.446-766.378c-.024,0-8.669,1.074-14.557,2.205l.144.788c5.831-1.12,14.484-2.193,14.508-2.2l-.095-.8Z" fill="#e09889"/>
    <path id="Trazado_145732" data-name="Trazado 145732" d="M347.028-785.031c-.008-.028-2.926-9.912,3.9-28.343,6.868-18.533,8.817-20.866,8.822-20.873l-.918-.744c-.005.007-2.068,2.486-9,21.193-6.971,18.81-3.945,29.067-3.937,29.1l1.13-.329Z" fill="#62a1cc" fill-rule="evenodd"/>
    <path id="Trazado_145733" data-name="Trazado 145733" d="M313.566-770.084c3.505-7.262,8.564-17.981,7.878-17.981-1.037,0-63.34-14.66-63.34-14.66l-1.162,19.468c.592.7,1.189,1.41,1.787,2.122a77.984,77.984,0,0,0,23.22,7.78c22.59,3.789,27.5,4.957,31.617,3.271Z" fill="#fbfcfc" fill-rule="evenodd"/>
    <path id="Trazado_145734" data-name="Trazado 145734" d="M313.566-770.084c1-2.071,2.126-4.424,3.208-6.728a46.38,46.38,0,0,1-13.308.069c-9.3-1.538-36.451-6.153-46.213-11.713l-.311,5.2c.592.7,1.189,1.41,1.787,2.122a78.012,78.012,0,0,0,23.22,7.78c22.59,3.789,27.5,4.957,31.617,3.271Z" fill="#d7dbdd" fill-rule="evenodd"/>
    <path id="Trazado_145735" data-name="Trazado 145735" d="M321.507-790.671l-2.828,5.229-59.538-13.826v-5.761l62.366,14.358Z" fill="#566573" fill-rule="evenodd"/>
    <path id="Trazado_145736" data-name="Trazado 145736" d="M340.248-772.721a37.94,37.94,0,0,1,5.5-1.009,12.166,12.166,0,0,1,3.5.078c.861.185,1.484.543,1.635,1.158a1.274,1.274,0,0,1,.036.206c.12,1.344-.716,1.662-.719,1.663l-2.573.99,2.743-.141c.007,0,2.516-.13,2.61,1.356.1,1.544-1.754,1.989-1.759,1.99l-1.651.452,1.663.4c.005,0,2.192.553,1.922,1.883-.147.72-1.386,1.357-3.582,1.8a39.907,39.907,0,0,1-9.068.475l-.033.876a40.636,40.636,0,0,0,9.265-.489c2.561-.513,4.036-1.4,4.256-2.48a2.344,2.344,0,0,0-1.525-2.507,2.585,2.585,0,0,0,1.367-2.454c-.094-1.473-1.444-1.955-2.441-2.109a2.738,2.738,0,0,0,.376-1.782,2.315,2.315,0,0,0-.055-.341,2.649,2.649,0,0,0-2.293-1.8,12.941,12.941,0,0,0-3.752-.09,38.548,38.548,0,0,0-5.628,1.028l.207.853Z" fill="#e09889"/>
    <path id="Trazado_145737" data-name="Trazado 145737" d="M321.724-927c-.024.023-8.065,7.965-25.708,8.638-7.848.3-13.112,3.089-16.561,7.082-4.5,5.21-5.881,12.446-5.881,18.861,0,11.3,6.981,22,7,22.029l.714-.481c-.019-.03-6.858-10.513-6.858-21.548,0-6.24,1.332-13.264,5.664-18.279,3.3-3.825,8.37-6.5,15.951-6.787,17.968-.686,26.24-8.855,26.264-8.878l-.586-.637Zm6.5.9c.039.046,13.757,15.664,9.761,36.686-3.974,20.9-9.458,21.1-9.473,21.1l.063.876c.017,0,6.151-.237,10.251-21.806,4.077-21.449-9.923-37.386-9.963-37.432l-.639.58Zm6.5,67.365c.081-.125,28.585-43.355-2.9-71.742l-.567.66c30.917,27.875,2.832,70.474,2.751,70.6l.714.485Zm-10.761-77.934c-.069-.026-23.907-9.41-42.548,10.488l.617.609c18.245-19.477,41.565-10.3,41.632-10.272l.3-.825Zm4.542-.185c-.088-.08-30.824-28.757-58.689,20.452l.74.44c27.336-48.272,57.3-20.314,57.383-20.235l.566-.657Zm-6.722,2.073a56.333,56.333,0,0,1-21.5,7.666c-6.631.991-12.752,2.464-17.971,5.542-5.239,3.092-9.55,7.79-12.521,15.218-5.938,14.847,7.216,40.773,7.254,40.847l.761-.4c-.037-.073-13.01-25.644-7.224-40.111,2.892-7.229,7.076-11.794,12.156-14.792,5.1-3.009,11.127-4.456,17.665-5.433a57.292,57.292,0,0,0,21.85-7.8l-.469-.736Z" fill="#d7ad95"/>
    <path id="Trazado_145738" data-name="Trazado 145738" d="M279.061-901.369,282.5-890.7l-2.039.032-2.064-8.3.661-2.406Z" fill="#e6e6e6"/>
    <path id="Trazado_145739" data-name="Trazado 145739" d="M334.9-889.625l-4.285,7.772-1.535-.979,5.739-9.759.081,2.966Z" fill="#e6e6e6"/>
    <path id="Trazado_145740" data-name="Trazado 145740" d="M279.307-891.236s23.493.995,24.965,1.143,28.636,7.64,28.636,7.64-3.564,10.479-9.816,18.283-16.988,10.081-24.2,8.192-20.6-7.124-19.581-35.258Z" fill="#fbfcfc" fill-rule="evenodd"/>
    <path id="Trazado_145741" data-name="Trazado 145741" d="M304.757-890c3.955.874,28.151,7.548,28.151,7.548s-3.564,10.479-9.816,18.283c-5.463,6.82-14.35,9.419-21.32,8.7L304.757-890Z" fill="#e6e6e6" fill-rule="evenodd"/>
    <path id="Trazado_145742" data-name="Trazado 145742" d="M286.547-871.041c.035,0,12.136-.691,17.023.346,4.858,1.031,16.236,6.26,16.269,6.275l-.676,1.261c-.033-.015-11.234-5.163-15.922-6.158-4.658-.989-16.528-.311-16.562-.309l-.132-1.415Zm.954-15.114c.035,0,12.136-.691,17.023.346,4.855,1.03,22.325,8.955,22.375,8.977l-.671,1.264c-.049-.023-17.343-7.868-22.032-8.863-4.66-.989-16.529-.312-16.563-.309l-.132-1.415Zm-.788,7.358c.035,0,12.137-.692,17.023.346,4.858,1.031,20.111,7.963,20.155,7.983l-.67,1.263c-.044-.019-15.126-6.873-19.813-7.868-4.659-.989-16.528-.312-16.563-.309l-.132-1.415Z" fill="#e6e6e6"/>
    <path id="Trazado_145743" data-name="Trazado 145743" d="M303.1-870.787c.165.029.323.059.474.092,4.858,1.031,16.236,6.26,16.269,6.275l-.676,1.261c-.033-.015-11.234-5.163-15.922-6.158-.086-.018-.176-.036-.267-.053l.122-1.417Zm.539-6.235.123-1.424c4.882,1.047,20.089,7.958,20.133,7.978l-.67,1.263c-.043-.019-14.658-6.66-19.586-7.817Zm.639-7.391.123-1.422.127.026c4.855,1.03,22.325,8.955,22.375,8.977l-.671,1.264c-.049-.023-17.156-7.783-21.954-8.845Z" fill="#ccc"/>
    <path id="Trazado_145744" data-name="Trazado 145744" d="M64.152-568.959s-.878,12.946,2.432,19.445,9.458,15.521,17.4,13.484,8.607-12.222,9.269-19.789.19-15.505-1.229-18.723-27.875,5.583-27.875,5.583Z" fill="#301d4a" fill-rule="evenodd"/>
    <path id="Trazado_145745" data-name="Trazado 145745" d="M8.584-565.2s4.142,26.065,0,35.378-11.8,9.7-20.316.68-10.236-31.967-10.236-31.967S8.584-555.493,8.584-565.2Z" fill="#301d4a" fill-rule="evenodd"/>
    <path id="Trazado_145746" data-name="Trazado 145746" d="M19.576-585.212s-3.5,1.274-4.067,7.453-1.608,6.177-1.608,9.573-2.364,7.179-5.58,11.059-9.742,4.657-13.147,4.365-14.662-2.909-16.127-5.529-.8-3.152-1.372-5.82-2.317-2.765-2.554-5.675-.568-6.112-1.088-6.742-1.087-6.063-1.087-6.063,13.857,3.151,46.63-2.621Z" fill="#3b347a" fill-rule="evenodd"/>
    <path id="Trazado_145747" data-name="Trazado 145747" d="M53.626-592.489s5.487,6.112,5.865,9.41-2.391,3.1,1.135,7.275,2.322,8.537,3.526,9.313,7.067,2.469,15.769,0,11.133-3.2,12.661-5.917,0-3.852,0-6.436a10.73,10.73,0,0,1,1.9-6.368c1.418-2.426.752-3.523,2.365-7.277a55.419,55.419,0,0,0,2.364-6.5s-9.648,5.626-45.59,6.5Z" fill="#3b347a" fill-rule="evenodd"/>
    <path id="Trazado_145748" data-name="Trazado 145748" d="M-37.5-591.177s6.465,10.507,8.828,13.418,21.317.357,31.187-1.971c49.319-11.631,23.654-13.893,42.6-6.823,3.6,1.341,11.508-6.532,22.133-3.266s27.145,2.857,29.6-2.67,10.51-16.04,10.51-16.04S19.829-634.637-37.5-591.177Z" fill="#e6e6e6" fill-rule="evenodd"/>
    <path id="Trazado_145749" data-name="Trazado 145749" d="M-5.124-733.234s-40.1,21.221-45.778,24.64-7.378,17.462-6.432,26.192-3.141,21.535-.246,33.176-.321,19.3,1.57,33.513,3.867,27.6,14,29.543,32.523,1.164,49.082-4.462,17.694-8.15,26.963-12.806,6.917-6.014,11.35-5.82,29.887,7.373,48.048,6.79,25.159-12.8,24.591-27.162,4.73-67.937-11.159-82.456-62.993-21.148-62.993-21.148Z" fill="#f2f3f4" fill-rule="evenodd"/>
    <path id="Trazado_145750" data-name="Trazado 145750" d="M35.78-604.348c6.178-3.352,5.8-4.692,8.129-4.9l-5.237-.254-26.389-3.2-1.045-2.534s-8.05-3.274-8.941-3.45-35.2-1.205-21.525-36.312c0,0-10.676.506-10.059,9.409s-3.215,11.42-3.594,15.619S-29.315-617.7-19.228-613.6s17.711,3.109,22.761,3.109c4.843,0,19.617,5.278,32.247,6.141Zm10.864-4.767.007,0h-.007Z" fill="#dbdbdb" fill-rule="evenodd"/>
    <path id="Trazado_145751" data-name="Trazado 145751" d="M-6.1-728.5a47.007,47.007,0,0,0-5.557,28.7c2.2,16.256.24,28.884,11.16,45.379s15.76,14.629,15.76,14.629l19.8-1.625s10.9-38.391,15.833-48.322,7.13-19.319,4.934-26.774a58.579,58.579,0,0,0-7.223-14.62L-6.1-728.5Z" fill="#7fb3d5" fill-rule="evenodd"/>
    <path id="Trazado_145752" data-name="Trazado 145752" d="M-9.152-676.008A54.579,54.579,0,0,0-.5-654.421c10.92,16.495,15.76,14.629,15.76,14.629l19.8-1.625s4.966-17.491,9.712-31.915c1.672-10.574,3.021-19.233,2.9-18.9-.316.833-8.746,20.637-11.475,29.077s-3.7,6.5-6.289,8.16-2.508,6-5.25,10.158-3.454-1.231-5.974-4.155-4.026,2.037-10.091-4.446-17.6-33.547-17.6-33.547a65.552,65.552,0,0,0-.131,10.98Z" fill="#62a1cc" fill-rule="evenodd"/>
    <path id="Trazado_145753" data-name="Trazado 145753" d="M45.867-738.325c12.619,1.685,19.783,8.182,23.577,16.45a41.979,41.979,0,0,1,3.452,14.2,69.9,69.9,0,0,1-.436,14.159A74.978,74.978,0,0,1,67.1-674.306c-1.011,2.238-4.851-.181-2.771-2.849,2.2-2.82,3.889-10.089,4.744-16.82a66.316,66.316,0,0,0,.409-13.429,38.5,38.5,0,0,0-3.128-12.974v-.006c-3.327-7.253-9.673-12.96-20.926-14.462l.443-3.479Z" fill="#b3b3b3"/>
    <path id="Trazado_145754" data-name="Trazado 145754" d="M-6.06-717.385a4.034,4.034,0,0,1-.043-.679c.013-1.761.87-6.482,9.312-8.541,10.485-2.557,44.549-9.155,44.738,2.507s-26.483,48.859-26.483,48.859-24.781-17.7-27.524-42.146Z" fill="#e8a597" fill-rule="evenodd"/>
    <path id="Trazado_145755" data-name="Trazado 145755" d="M-5.711-720.215c.762-2.133,2.934-4.931,8.92-6.39,10.368-2.528,43.785-9.005,44.714,2.125-3.549,7-12.508,21.831-25.613,24.054C5.126-697.51-5.434-713.768-5.512-713.889q-.232-1.158-.4-2.339a13.393,13.393,0,0,1,.2-3.987Z" fill="#e09889" fill-rule="evenodd"/>
    <path id="Trazado_145756" data-name="Trazado 145756" d="M-50.076-672.978c.012.1,3.923,33.124,26.2,39.026l-.321,1.273c-23.124-6.126-27.136-40.036-27.148-40.133l1.271-.166Zm17.8-31.88c-.022.042-8.064,14.529,1.82,36.047l-1.162.563c-10.167-22.136-1.808-37.2-1.784-37.244l1.126.634Zm-8.714,11.993c0,.1-.935,33.816,17.341,48.161l-.779,1.047c-18.8-14.756-17.846-49.135-17.844-49.234l1.282.026Z" fill="#ccc"/>
    <path id="Trazado_145757" data-name="Trazado 145757" d="M-11.736-606.015c.011-.02,3.774-7.318,18.153-7.318v1.32c-13.616,0-17.022,6.62-17.031,6.638l-1.122-.64Zm-33.091-.287c.029-.048,9.669-16.6,39.395-13.311l-.136,1.309c-28.914-3.2-38.136,12.642-38.163,12.687l-1.1-.685Zm11.432,10.3c.027-.048,9.139-16.633,31.578-20.357l.2,1.3c-21.825,3.622-30.642,19.671-30.667,19.717l-1.112-.66Z" fill="#ccc"/>
    <path id="Trazado_145758" data-name="Trazado 145758" d="M94.376-704.858c-.028.053-9.959,18.484-10.894,32.009a144.143,144.143,0,0,1-2.175,16.424c15.594-.51,25.032-12.487,25.06-12.522l1,.835c-.029.037-9.945,12.617-26.31,13.007-1.018,5.172-1.939,8.56-1.944,8.579l-1.236-.35A152.5,152.5,0,0,0,82.2-672.941c.955-13.818,11.021-32.5,11.049-32.551l1.127.634Zm8.007,18.148c-.008.038-2.714,13.415-18.9,20.82l-.522-1.2c15.591-7.132,18.166-19.867,18.174-19.9l1.251.284ZM80.264-647.3c.045-.02,15.594-7.171,27.066,5.194l-.93.907c-10.844-11.688-25.575-4.913-25.617-4.894l-.519-1.207Z" fill="#ccc"/>
    <path id="Trazado_145759" data-name="Trazado 145759" d="M23.427-624.157c.072.049,24.575,17.508,68.968,10.832l.187,1.3c-44.892,6.751-69.806-11-69.879-11.049l.724-1.087Zm.181-9.506c.023.039,7.844,13.644,56.89,11.526l.051,1.315c-49.793,2.15-58-12.1-58.028-12.145l1.087-.7Z" fill="#ccc"/>
    <path id="Trazado_145760" data-name="Trazado 145760" d="M-1.236-716.759c1.726,15.188,15.826,28.46,22.7,41.52,2.45,4.655-9.5-4.028-14.393-1.358a15.384,15.384,0,0,1,.489-7.712c-5.313-1.217-7.254,10.947-10.074,5.917-7.579-13.519-7.8-39.832-4.412-48.619l5.69,10.252Z" fill="#ddedfd" fill-rule="evenodd"/>
    <path id="Trazado_145761" data-name="Trazado 145761" d="M42.936-734.093s7.661,2.2,7.945,11.42-7.662,38.61-7.662,38.61-1.874-8.634-6.431-7.179-14.522,17.608-15.324,20.76-1.322,5.336-1.322,5.336c-4.3-12.494,18.351-37.548,22.8-50.444,2.931-8.508,0-18.5,0-18.5Z" fill="#ddedfd" fill-rule="evenodd"/>
    <path id="Trazado_145762" data-name="Trazado 145762" d="M38.917-641.067a65.548,65.548,0,0,1,9.031-12.053c5.771-6.1,7.957-4.365,7.957-4.365a15.96,15.96,0,0,1,6.988-4.851c4.162-1.261,3.121,3.113,3.121,3.113s3.5-2.346,5.865-1.173,0,6.112,0,6.112,4.82-3.487,5.993-.485-4.351,10.913-4.351,10.913-15.97,1.168-34.6,2.789Z" fill="#f9bfb3" fill-rule="evenodd"/>
    <path id="Trazado_145763" data-name="Trazado 145763" d="M65.576-657.878c-.023.027-8.022,9.382-9.916,14.264l-1.191-.484c1.982-5.11,10.113-14.619,10.136-14.645l.971.865Zm5.714,5.293a42.935,42.935,0,0,0-5.622,8.033l-1.156-.577a44.314,44.314,0,0,1,5.823-8.332l.955.876Zm-15.755-3c-.024.026-8.4,9.189-9.911,12.673l-1.171-.536c1.606-3.694,10.117-13.007,10.141-13.035l.941.9Z" fill="#e8a597"/>
    <path id="Trazado_145764" data-name="Trazado 145764" d="M53.277-731.621s8.47,20.436,10.875,26.129c-1.242,3.074-8.9,12.7-8.9,12.7l4.618,6.985s-18.437,29.74-20.523,37.639-2.144,7.9-2.144,7.9l-4.716.385S43.245-680.8,47.948-692.99s-5.012-41.1-5.012-41.1l10.341,2.472Z" fill="#fbfcfc" fill-rule="evenodd"/>
    <path id="Trazado_145765" data-name="Trazado 145765" d="M-7.84-729.162S-17.1-705.994-20.373-695.9s-3.276,14.357-3.276,14.357H-14.4l-5.976,15.193s17.463,20.415,22.89,23.441a61.181,61.181,0,0,1,7.853,4.983h7.592S-.637-656.906-6.1-675.239-7.385-724.1-7.385-724.1l-.455-5.064Z" fill="#fbfcfc" fill-rule="evenodd"/>
    <path id="Trazado_145766" data-name="Trazado 145766" d="M65.386-683.644a9.017,9.017,0,0,1,8.9,9.129,9.017,9.017,0,0,1-8.9,9.128,9.017,9.017,0,0,1-8.9-9.128,9.017,9.017,0,0,1,8.9-9.129Z" fill="#fbfcfc" fill-rule="evenodd"/>
    <path id="Trazado_145767" data-name="Trazado 145767" d="M65.386-679.835a5.254,5.254,0,0,1,5.186,5.32,5.254,5.254,0,0,1-5.186,5.32,5.255,5.255,0,0,1-5.187-5.32,5.255,5.255,0,0,1,5.187-5.32Z" fill="#d7dbdd" fill-rule="evenodd"/>
    <path id="Trazado_145768" data-name="Trazado 145768" d="M21.511-662.3c0,.01-1.512,3.572.037,10.334a34.083,34.083,0,0,1,.9,11.741l-1.267-.216a32.653,32.653,0,0,0-.889-11.226c-1.647-7.187.033-11.153.038-11.164l1.176.531Z" fill="#62a1cc"/>
    <path id="Trazado_145769" data-name="Trazado 145769" d="M46.351-797.094c-1.135-9.119-38.521-18.113-55.736-.653s-7.172,38.315-5.186,44.574a50.583,50.583,0,0,1,1.8,14.051l59.681-7.631c12.549-1.6,13.065-43.891-.56-50.341Z" fill="#513b2d" fill-rule="evenodd"/>
    <path id="Trazado_145770" data-name="Trazado 145770" d="M-12.467-754.823s-2.837-4.559-6.054-2.522-2.269,13.387,3.027,18.626,5.3,2.134,5.3,2.134l-2.27-18.238Z" fill="#e8a597" fill-rule="evenodd"/>
    <path id="Trazado_145771" data-name="Trazado 145771" d="M47.915-754.823s2.838-4.559,6.054-2.522,2.27,13.387-3.027,18.626-5.3,2.134-5.3,2.134l2.269-18.238Z" fill="#e8a597" fill-rule="evenodd"/>
    <path id="Trazado_145772" data-name="Trazado 145772" d="M-12.467-754.823c.5,12.36,2.016,28.933,13.587,41.276s27.159,8.617,34.125-.726,12.4-20.21,14.571-38.651c-.92-6.152-9.451-19.795-9.451-19.795s-13.147,4.074-25.537,3.783a121.934,121.934,0,0,1-21.186-2.231c-3.681,4.461-4.159,10.559-6.109,16.344Z" fill="#f9bfb3" fill-rule="evenodd"/>
    <path id="Trazado_145773" data-name="Trazado 145773" d="M7.071-754.434c1.646,0,2.979,1.954,2.979,4.365S8.717-745.7,7.071-745.7s-2.979-1.954-2.979-4.366,1.333-4.365,2.979-4.365Z" fill="#513b2d" fill-rule="evenodd"/>
    <path id="Trazado_145774" data-name="Trazado 145774" d="M29.251-754.434c1.645,0,2.979,1.954,2.979,4.365S30.9-745.7,29.251-745.7s-2.979-1.954-2.979-4.366,1.334-4.365,2.979-4.365Z" fill="#513b2d" fill-rule="evenodd"/>
    <path id="Trazado_145775" data-name="Trazado 145775" d="M7.945-753.173a.886.886,0,0,1,.875.9.885.885,0,0,1-.875.9.885.885,0,0,1-.874-.9.886.886,0,0,1,.874-.9Z" fill="#fbfcfc" fill-rule="evenodd"/>
    <path id="Trazado_145776" data-name="Trazado 145776" d="M29.862-753.173a.887.887,0,0,1,.875.9.887.887,0,0,1-.875.9.886.886,0,0,1-.875-.9.887.887,0,0,1,.875-.9Z" fill="#fbfcfc" fill-rule="evenodd"/>
    <path id="Trazado_145777" data-name="Trazado 145777" d="M7.54-726.08c.037.025,12.711,8.831,22.6-1.151l1.2,1.251c-10.888,10.995-24.7,1.4-24.734,1.371l.938-1.471Z" fill="#d18c84"/>
    <path id="Trazado_145778" data-name="Trazado 145778" d="M16.981-754.359c-.007.064-2.41,21.443-2.627,23.615.129.037.522.138,1.166.343a12.957,12.957,0,0,0,3.89.579,14.04,14.04,0,0,0,4.49-.741l.4,1.252a15.271,15.271,0,0,1-4.888.809,14.205,14.205,0,0,1-4.269-.641,3.819,3.819,0,0,1-2.055-1.21.743.743,0,0,1-.035-.214c0-.3,2.646-23.874,2.654-23.942l1.276.15Z" fill="#d18c84"/>
    <path id="Trazado_145779" data-name="Trazado 145779" d="M-1.817-758.647c.023-.024,8.131-8.6,16.278.013l-1.533,1.53c-6.609-6.988-13.21-.007-13.229.013l-1.516-1.556Zm23.54,0c.023-.024,8.131-8.6,16.278.013l-1.533,1.53c-6.609-6.988-13.21-.007-13.229.013l-1.516-1.556Z" fill="#513b2d"/>
    <path id="Trazado_145780" data-name="Trazado 145780" d="M-10.237-659.519c.043.082,14.787,28.927,15.25,35.648.4,5.856-2.708,5.187-2.716,5.185l-.229,1.573c.013,0,5.033,1.031,4.488-6.872-.486-7.041-15.385-36.189-15.427-36.273l-1.366.739Z" fill="#e5e7e9"/>
    <path id="Trazado_145781" data-name="Trazado 145781" d="M11.682-634.839s-8.107-.581-12.122-4.85-5.727-8.891-8.8-13.776-13.714-4.884-13.714-4.884-2.7,1.476-3.164,6.117,1.7,5.364,0,11.379.273,15.757,4.014,18.113S-5-613.665.27-615.266s8.087-1.242,8.087-1.242-1.083-15.934,3.325-18.331Z" fill="#f9bfb3" fill-rule="evenodd"/>
    <path id="Trazado_145782" data-name="Trazado 145782" d="M14.649-637.907l-8.559-.038a27.9,27.9,0,0,0-3.547,14.332c.379,7.9,1.325,9.145,1.325,9.145l8.083.87s-2.208-13.087,2.7-24.309Z" fill="#7fb3d5" fill-rule="evenodd"/>
    <path id="Trazado_145783" data-name="Trazado 145783" d="M-8.413-731.491c-6.679,8.023-21.358,28.535-16.633,55.711a7.684,7.684,0,0,1,1.4-.282h.008c2.656-.281,5.747.761,8.8,3.6,5.122,4.772,7.422,13,7.429,13.023l-2.947.95c-.006-.021-2.094-7.466-6.553-11.619-2.336-2.176-4.572-2.989-6.407-2.8a4.54,4.54,0,0,0-2.579,1.139,5.971,5.971,0,0,0-1.666,2.7c-.781,2.472-.455,5.841,1.558,9.494.481.874,1.014,1.774,1.559,2.657a8.681,8.681,0,0,0-1.486,3.474c-.939-1.45-1.921-3.043-2.762-4.569-2.48-4.505-2.839-8.8-1.817-12.038A9.235,9.235,0,0,1-28.2-673.9c-5.981-31.237,12-54.093,18.629-61.525q.508,1.973,1.159,3.936Z" fill="#b3b3b3"/>
    <path id="Trazado_145784" data-name="Trazado 145784" d="M78.757-642.255c.034.016,12.251,5.507,11.913,22.881l-1.282-.026c.322-16.5-11.132-21.644-11.164-21.659l.533-1.2Zm-39.1,33.726c-.06-.006-20.854-1.97-27.512-3.5l-.413-.1-.077-.43c-3.073-17.255,3.1-26.9,3.115-26.931l.172-.277.321-.027c.175-.014,61.181-5.048,63.231-5.048a32.634,32.634,0,0,1,11.485,2.679,45.167,45.167,0,0,1,11.042,6.582l-.789,1.036a43.942,43.942,0,0,0-10.731-6.4,31.3,31.3,0,0,0-11.007-2.582c-1.933,0-58.049,4.624-62.8,5.016-.924,1.632-5.373,10.459-2.85,25.282,6.994,1.5,26.871,3.379,26.93,3.384l-.116,1.31Z" fill="#ccc"/>
    <path id="Trazado_145785" data-name="Trazado 145785" d="M42.238-782.478c.011.008,4.076,2.943,9.054,17.671l-.807.285c-4.889-14.463-8.746-17.243-8.757-17.252l.51-.7Zm-56.809-3.346c.108-.049,37.342-17.4,52.884-.483l-.624.6c-15.12-16.456-51.806.633-51.911.681l-.349-.8Zm52.611,9.86c-.087.008-30.148,3.017-46.065-4.8l.369-.79c15.7,7.71,45.532,4.724,45.618,4.716l.078.873Zm3.648-18.651c-.039-.038-13.44-13.577-43.346-1.267l-.319-.815c30.421-12.522,44.215,1.41,44.255,1.45l-.59.632Zm3.971,5.328c.02.013,7.177,4.686,10.572,15.761l-.817.261c-3.3-10.773-10.205-15.277-10.224-15.291l.469-.731Z" fill="#8c6850"/>
    <path id="Trazado_145786" data-name="Trazado 145786" d="M-19-571.85a16.975,16.975,0,0,0,15.98.471c9.346-4.31,13.431-4.31,13.442-4.31v.88c-.011,0-3.92,0-13.094,4.231a17.855,17.855,0,0,1-16.79-.532l.462-.74Zm85.338,1.035c.038-.013,13.5-4.4,20.448-3.02l-.161.863c-6.733-1.337-19.995,2.983-20.032,2.995l-.255-.838Zm-3.868-14.8c.024.01,8.7,3.822,16.341,4.109l2.585.091c4.265.144,6.759.23,7.561.843.513.394.538.879.079,1.512-.585.806-4.279.586-8.652.325-6.372-.38-14.265-.851-14.833,1.1l-.821-.251c.762-2.617,9.028-2.125,15.7-1.726,4.123.246,7.607.453,7.917.027.114-.155.144-.247.1-.283-.592-.452-2.984-.533-7.076-.671l-2.589-.091c-7.8-.293-16.618-4.168-16.643-4.179l.333-.807Zm-79.712,19.987c.011,0,3.878-.964,13.03,3.764,8.634,4.46,14.606-7.268,14.623-7.3l.758.413c-.019.035-6.375,12.524-15.766,7.672-8.873-4.584-12.443-3.694-12.454-3.692l-.191-.856Z" fill="#5b50ab"/>
    <path id="Trazado_145787" data-name="Trazado 145787" d="M-11.664-757.472l3.735,15.5-2.229.313-2.634-13.622,1.128-2.186Z" fill="#e6e6e6"/>
    <path id="Trazado_145788" data-name="Trazado 145788" d="M49.373-756.537l-3.346,17.871-1.823-.88,3.824-18.887,1.345,1.9Z" fill="#e6e6e6"/>
    <path id="Trazado_145789" data-name="Trazado 145789" d="M-11.507-742.141s25.868-2.081,27.5-2.117,32.458,4.612,32.458,4.612-2.394,12.141-8.117,21.672-17.151,13.521-25.324,12.4S-8.576-710.7-11.507-742.141Z" fill="#fbfcfc" fill-rule="evenodd"/>
    <path id="Trazado_145790" data-name="Trazado 145790" d="M16.539-744.22c4.456.434,31.913,4.574,31.913,4.574s-2.394,12.141-8.117,21.672c-5,8.329-14.358,12.426-22.093,12.578l-1.7-38.824Z" fill="#e6e6e6" fill-rule="evenodd"/>
    <path id="Trazado_145791" data-name="Trazado 145791" d="M-.672-720.657c.037-.007,13.19-2.417,18.69-1.926,5.468.488,18.68,4.76,18.718,4.772l-.559,1.494c-.037-.012-13.044-4.218-18.32-4.689-5.244-.467-18.144,1.9-18.181,1.9l-.348-1.556ZM-1.8-737.6c.037-.007,13.19-2.417,18.69-1.926,5.465.487,25.735,6.931,25.794,6.95l-.553,1.5c-.057-.018-20.124-6.4-25.4-6.868-5.245-.468-18.144,1.9-18.181,1.9L-1.8-737.6Zm.2,8.292c.038-.007,13.19-2.416,18.69-1.926,5.468.488,23.169,6.129,23.22,6.145l-.552,1.5c-.051-.016-17.553-5.592-22.829-6.063-5.244-.468-18.144,1.9-18.18,1.9l-.349-1.556Z" fill="#e6e6e6"/>
    <path id="Trazado_145792" data-name="Trazado 145792" d="M17.486-722.62c.184.009.362.022.532.037,5.468.488,18.68,4.76,18.718,4.772l-.559,1.494c-.037-.012-13.044-4.218-18.32-4.689l-.3-.022-.07-1.592Zm-.307-7.01-.07-1.6c5.5.5,23.143,6.126,23.194,6.142l-.552,1.5c-.05-.015-17.01-5.419-22.572-6.037Zm-.365-8.309-.07-1.6.143.012c5.465.487,25.735,6.931,25.794,6.95l-.553,1.5c-.057-.018-19.907-6.329-25.314-6.859Z" fill="#ccc"/>
    <path id="Trazado_145793" data-name="Trazado 145793" d="M141.855-592.387a12.429,12.429,0,0,1,1.455,6.379c0,4.146.581,8.892,2.617,11.958s4.782,3.881,8.889,2.761,4.072-5.806,6.157-6.01,3.079-4.658,1.539-8.251-6.7-10.236-6.7-10.236-2.731,6.644-13.954,3.4Z" fill="#e8a597" fill-rule="evenodd"/>
    <path id="Trazado_145794" data-name="Trazado 145794" d="M207.2-579c-.58,3.848-3.8,22.613-11.817,25.536-8.938,3.259-15.008-6.738-12.91-27.3.039-.382.087-.745.141-1.1,5.236,2.56,14.612,5.809,24.586,2.861Z" fill="#513b2d" fill-rule="evenodd"/>
    <path id="Trazado_145795" data-name="Trazado 145795" d="M253.364-586.356c1.793,3.432,10.91,20.034,19.416,20.061,9.486.03,11.974-11.468,3.337-30.146-.161-.347-.324-.673-.488-.989-4.111,4.2-11.9,10.457-22.265,11.074Z" fill="#513b2d" fill-rule="evenodd"/>
    <path id="Trazado_145796" data-name="Trazado 145796" d="M170.9-596.653s.8,4.507,2.086,6.009a4.21,4.21,0,0,1,1.39,3.769c0,1.935,1.489,4.38,2.482,5.7s6.058,2.139,11.62,5.093,12.115,2.444,16.187,0,6.554-2.75,7.448-4.889,5.279-5.067,5.279-6.621,2.964-2.954,6.738-4.991,7.447-2.037,10.526-2.241,5.164-2.342,8.045,1.121a20.569,20.569,0,0,0,6.951,5.7,11.128,11.128,0,0,1,4.454,4.075c1.6,2.139,7.946,3.455,15.31-1.43s8.076-5.395,8.076-8.348-.712-2.75-.712-4.788,2.477-7.15,2.477-7.15l-1.3-5.026s-69.522-1.778-107.061,14.01Z" fill="#62a1cc" fill-rule="evenodd"/>
    <path id="Trazado_145797" data-name="Trazado 145797" d="M171.7-593.385a8.456,8.456,0,0,0,1.285,2.741,4.21,4.21,0,0,1,1.39,3.769,7.641,7.641,0,0,0,.941,3.227,141.226,141.226,0,0,0,25.548-4.428c15.237-4.311,20.734-5.321,28.392-6.245h.007a47.989,47.989,0,0,1,5.392-.5c2.756-.182,4.716-1.914,7.162.207,3.61.209,7.228.622,10.81,1.128,6.982.987,13.392,4.081,24.747-1.954-.2-1.257-.6-1.532-.6-3.048,0-2.037,2.477-7.15,2.477-7.15l-1.3-5.026s-67.665-1.729-105.53,13.385l-.73,3.893Z" fill="#4d8db8" fill-rule="evenodd"/>
    <path id="Trazado_145798" data-name="Trazado 145798" d="M187.375-723.463s-33.963,1.934-51.838,23.12-14.9,34.427-11.322,44.816,4.767,14.057,5.164,20.983a95.71,95.71,0,0,0,3.377,19.963c1.39,4.278,1.191,9.371,2.582,13.853a102.706,102.706,0,0,0,3.774,9.778,22.337,22.337,0,0,0,10.724,1.732,11.538,11.538,0,0,0,8.839-5.4s-2.781-1.019-1.59-7.13,1.391-5.908,1.888-9.167a46.581,46.581,0,0,0,.1-8.352s3.477,14.159,7.449,18.64,2.377,11.483,2.377,11.483,24.951-1.492,39.415-4.343c11.136-2.194,3.459.866,11.626-4.362h11.133s7.347.2,17.762,0,10.613,1.028,18.557.417,13.149-9.016,13.149-9.016,42.745,18.417,53.868-1.343-19.122-66.4-23.292-83.4c-1.3-5.3-4.474-10.25-8.634-14.633-9.178-9.671-28.368-20.827-37.661-22.767-13.506-2.819-77.446,5.122-77.446,5.122Z" fill="#f2f3f4" fill-rule="evenodd"/>
    <path id="Trazado_145799" data-name="Trazado 145799" d="M268.71-708.785c.068-.008,23.828-2.986,40.3,19.96l-1.087.818c-16-22.294-38.994-19.41-39.061-19.4l-.147-1.375Z" fill="#ccc" fill-rule="evenodd"/>
    <path id="Trazado_145800" data-name="Trazado 145800" d="M270.348-598.03c6.253-2.057,10.192-8.416,10.192-8.416s16.269-19.367,17.961-18.762c-.01-.023-24.706-.563-28.18-1.519,0,0,0,7.528,1.521,12.568s3.037,4.853,1.518,9.472a38.981,38.981,0,0,1-3.012,6.657Z" fill="#ccc" fill-rule="evenodd"/>
    <path id="Trazado_145801" data-name="Trazado 145801" d="M336.388-605.607c4.651-13.277-4.223-40.523-13.479-59.2-8.515-11.091-19.493-22.328-25.18-24.015-8.243-2.445-18.472-6.519-18.472-6.519,4.816,25.42,44.557,76.239,57.131,89.733Z" fill="#e6e6e6" fill-rule="evenodd"/>
    <path id="Trazado_145802" data-name="Trazado 145802" d="M238.415-617.072c0,.045.859,15.829,5.115,15.829,1.073,0,2.789.209,4.773.449,5.191.629,12.194,1.477,14.8-.532l1.22-.93c2.433-1.842,2.68-2.028,2.952-4.208.29-2.322,1.743-15.122,1.746-15.159l-.82-.112c0,.037-1.462,12.9-1.744,15.145-.221,1.775-.44,1.94-2.6,3.573l-1.225.933c-2.352,1.814-9.183.987-14.245.373-2.018-.244-3.761-.456-4.86-.456-3.476,0-4.289-14.917-4.292-14.959l-.823.054Zm30.369-5.727a65.653,65.653,0,0,1-10.353,3.667c-7.113,2.033-12.584.819-15.684,1.426s-3.92,0-3.92,0,6.424-2.611,10.726-2.611a28.359,28.359,0,0,0,11.31-2.278c2.446-1.222,7.921-.2,7.921-.2Z" fill="#ccc" fill-rule="evenodd"/>
    <path id="Trazado_145803" data-name="Trazado 145803" d="M251.359-732.96c.047.059,16.58,20.262,12.938,46.277-2.044,14.6-15.2,29.174-26.375,39.171l-1.738-3.294c10.59-9.54,22.683-23.079,24.55-36.414,3.413-24.376-12.1-43.336-12.146-43.391l2.771-2.349Z" fill="#b3b3b3"/>
    <path id="Trazado_145804" data-name="Trazado 145804" d="M179.856-705.168s-8.391,17.566,10.167,49.932,28.216,37.494,28.216,37.494,20.814-23.072,28.27-49.675a179.5,179.5,0,0,0,6.119-51.681s-54.658-4.128-72.772,13.93Z" fill="#7fb3d5" fill-rule="evenodd"/>
    <path id="Trazado_145805" data-name="Trazado 145805" d="M191.891-652.021c17.338,29.492,26.348,34.279,26.348,34.279a156.476,156.476,0,0,0,22.441-34.24c-5.828,1.2-12.593,2.608-15.061,3.182-4.667,1.087-2.383,5.2-11.377,5.2s-21-10.406-21-10.406c-.471.669-.92,1.329-1.353,1.982Z" fill="#62a1cc" fill-rule="evenodd"/>
    <path id="Trazado_145806" data-name="Trazado 145806" d="M182.054-710.574s-.806,28.855,9.509,43.775,37.541,12.608,46.724,0,9.136-35.251,7.15-43.775-63.383,0-63.383,0Z" fill="#e8a597" fill-rule="evenodd"/>
    <path id="Trazado_145807" data-name="Trazado 145807" d="M182.054-710.574a124.208,124.208,0,0,0,1.679,21.758c2.174,6.681,12.285,22.437,21.6,25.753,19.938,7.094,32.146-5.191,39.525-23.117a27.533,27.533,0,0,0,1.142-3.637c.949-8.452.441-16.427-.568-20.757-1.986-8.524-63.383,0-63.383,0Z" fill="#e09889" fill-rule="evenodd"/>
    <path id="Trazado_145808" data-name="Trazado 145808" d="M142.326-693.547c-1.417,12-1.123,19.6.685,25.535,1.8,5.908,5.128,10.233,9.778,15.679l-1.013.909c-4.764-5.58-8.18-10.023-10.054-16.177-1.866-6.128-2.179-13.9-.736-26.109l1.34.163Zm-7.85,63.824c.022.036,7.793,12.531,23.125,9.07l.289,1.354c-16.247,3.668-24.52-9.634-24.544-9.672l1.13-.752Zm1.465,10.974c.011.056,3.747,19.773,13.356,24.431l-.383.833c-10.025-4.859-13.844-25.026-13.856-25.084l.883-.18ZM129-666.8c.022.085,7.338,29.6,29.921,32.592l-.169,1.369c-23.5-3.116-31.033-33.527-31.055-33.614l1.3-.347Zm2.556,22.016c.012.029,3.873,9.931,17.822,16.334l-.548,1.261c-14.452-6.634-18.513-17.045-18.525-17.075l1.251-.52Zm23.8-2.743c.006,0,2.316.715,4.413,7.059,1.927,5.833,1.842,7.529,1.568,12.933l-.044.871-1.346-.07L160-627.6c.264-5.2.346-6.835-1.5-12.419-1.875-5.674-3.527-6.181-3.532-6.182l.4-1.321Z" fill="#ccc"/>
    <path id="Trazado_145809" data-name="Trazado 145809" d="M179.648-726.283s-9.183,27.232-11.367,40.873,0,20.975,0,20.975h16.168l-4.8,12.557a159.477,159.477,0,0,1,22.229,21.1c11.385,13.038,15.515,13.038,15.515,13.038s-6.241-20.347-14.5-29.941-13.639-17.656-18.44-29.179,0-42.236,0-42.236l-4.8-7.185Z" fill="#fbfcfc" fill-rule="evenodd"/>
    <path id="Trazado_145810" data-name="Trazado 145810" d="M251.372-725.952s10.334,26.9,12.519,40.542,0,20.975,0,20.975H247.722l4.8,12.557a159.441,159.441,0,0,0-22.228,21.1c-11.386,13.038-14.193,18.029-14.193,18.029s4.918-25.338,13.181-34.932,13.638-17.656,18.439-29.179,0-42.236,0-42.236l3.65-6.854Z" fill="#fbfcfc" fill-rule="evenodd"/>
    <path id="Trazado_145811" data-name="Trazado 145811" d="M178.841-726.5c-12.522,4.78-18.355,13.161-20.334,22.539a44.26,44.26,0,0,0-.263,15.359,73.046,73.046,0,0,0,3.706,14.38,77.841,77.841,0,0,0,9.911,18.359c1.55,2.044,4.92-1.36,2.179-3.586-2.9-2.353-6.3-9.38-8.725-16.059a69.26,69.26,0,0,1-3.511-13.64,40.57,40.57,0,0,1,.213-14.03v-.007c1.734-8.225,6.913-15.6,18.079-19.864l-1.254-3.451Z" fill="#b3b3b3"/>
    <path id="Trazado_145812" data-name="Trazado 145812" d="M172.115-662.93a6.612,6.612,0,0,0-4.827,7.922,6.438,6.438,0,0,0,7.724,4.951,6.612,6.612,0,0,0,4.827-7.922,6.438,6.438,0,0,0-7.724-4.951Z" fill="#fbfcfc" fill-rule="evenodd"/>
    <path id="Trazado_145813" data-name="Trazado 145813" d="M172.719-660.244a3.853,3.853,0,0,0-2.813,4.616,3.751,3.751,0,0,0,4.5,2.885,3.852,3.852,0,0,0,2.813-4.616,3.751,3.751,0,0,0-4.5-2.885Z" fill="#d7dbdd" fill-rule="evenodd"/>
    <path id="Trazado_145814" data-name="Trazado 145814" d="M253.364-628.777c6.08,3.282,12.222,5.073,24.636,5.375a29.454,29.454,0,0,0,6.947-.617c-2.125-1.915-5.995-3.489-6.947-5.8-1.3-3.158-8.68-1.528-17.518-1.019-4.09.236-6.119,1.148-7.118,2.06Z" fill="#e8a597" fill-rule="evenodd"/>
    <path id="Trazado_145815" data-name="Trazado 145815" d="M202.108-612.679c0,.045-.86,15.83-5.116,15.83-1.073,0-2.788.208-4.772.448-5.191.629-12.2,1.477-14.8-.532l-1.219-.93c-2.434-1.841-2.68-2.028-2.953-4.208-.289-2.322-1.742-15.122-1.746-15.159l.821-.111c0,.037,1.462,12.9,1.743,15.144.221,1.775.44,1.94,2.6,3.573l1.225.934c2.353,1.814,9.183.986,14.246.373,2.017-.245,3.761-.456,4.859-.456,3.476,0,4.29-14.918,4.292-14.96l.824.054Zm-30.369-5.726a65.682,65.682,0,0,0,10.353,3.666c7.112,2.033,12.583.819,15.683,1.426s3.921,0,3.921,0-6.424-2.611-10.726-2.611a28.354,28.354,0,0,1-11.31-2.278c-2.446-1.222-7.921-.2-7.921-.2Z" fill="#ccc"/>
    <path id="Trazado_145816" data-name="Trazado 145816" d="M173.994-643.725c.012.041,3.779,14.18,32.92,22.319l-.235.892c-29.631-8.277-33.535-22.913-33.547-22.955l.862-.256Z" fill="#ccc"/>
    <path id="Trazado_145817" data-name="Trazado 145817" d="M219.087-603.481l-1.192-9.575.851-.292,1.192,9.575-.852.292Z" fill="#ccc"/>
    <path id="Trazado_145818" data-name="Trazado 145818" d="M247.622-592.849a11.821,11.821,0,0,1,2.563.765c2.93,1.047,7.88,2.813,12.1,2.482a27.8,27.8,0,0,0,10.642-3.189l.432.809a28.788,28.788,0,0,1-11.007,3.3c-4.4.346-9.466-1.462-12.463-2.532a13.093,13.093,0,0,0-2.268-.71v-.925Zm6.011,4.405c.019.015,6.655,5.146,12.862,2.078l.391.829c-6.7,3.312-13.772-2.155-13.791-2.171l.538-.736Zm-72.521,6.183c.024.015,8.686,5.312,18.558,3.5a22.687,22.687,0,0,0,12.4-6.56,6.074,6.074,0,0,0,1.034-1.534c.134-.318.169-.546.1-.649-.051-.071-.192-.111-.432-.111-1.077,0-2.669.853-4.573,1.876-3.69,1.981-8.5,4.564-13.678,3.184l.225-.892c4.841,1.292,9.481-1.2,13.038-3.108,2.013-1.081,3.7-1.985,4.988-1.985a1.334,1.334,0,0,1,1.157.491,1.577,1.577,0,0,1,0,1.559,7,7,0,0,1-1.192,1.783,23.628,23.628,0,0,1-12.9,6.855c-10.2,1.871-19.142-3.6-19.168-3.613l.451-.8Z" fill="#4d8db8"/>
    <path id="Trazado_145819" data-name="Trazado 145819" d="M246.882-635.62c-.024.038-8.661,13.253-19.688,18.3l-.366-.841c10.791-4.936,19.284-17.933,19.308-17.97l.746.513Z" fill="#ccc"/>
    <path id="Trazado_145820" data-name="Trazado 145820" d="M317.6-659.446s-5.253-8.113-15.084-2.027-40.229,19.8-28.937,40.128c0,0,18.647,14.23,32.016,2.818S317.6-659.446,317.6-659.446Z" fill="#b3b3b3" fill-rule="evenodd"/>
    <path id="Trazado_145821" data-name="Trazado 145821" d="M291.454-681.045c-4.216-4.491-6.046-6.424-8.032-10.905s-4.966-21.8-4.966-26.686-10.527-6.525-11.917,3.963,2.482,29.263,2.482,29.263-10.483-1.6-18.519,2.269c-7.6,3.661-7.722,9.082-5.017,15.737-2.628,4.266-4.805,7.9,1.291,15.585-3.653,6.691.106,10.963,4.072,12.731,0,0-3.872,6.825,2.285,10.186,8.775,4.79,23.17,5.8,25.652,6.67,2.987,6.154,7.9,21.922,12.669,25.047s47.231-23.239,44.34-30.905-19.571-23.6-31.105-32.254c-3.559-2.669-9.02-16.21-13.235-20.7Z" fill="#f9bfb3" fill-rule="evenodd"/>
    <path id="Trazado_145822" data-name="Trazado 145822" d="M291.454-681.045c-4.216-4.491-6.046-6.424-8.032-10.905s-4.966-21.8-4.966-26.686a3.245,3.245,0,0,0-.516-1.761,14.648,14.648,0,0,0-2.588,8.706c.6,11,4.245,19.684,3.266,23.306a9.177,9.177,0,0,0-.086,3.481c-2.287.328-4.4.869-5.172,1.763-1.947,2.268,1.293,8.595,2.088,14.67s-1.382,9.619.894,14.468,3.659,8.464,2.276,11.776.846,17.624.478,19.577,2.89-2.75,8.268-4.9,18.759-21.68,21.908-29.193c-1.584-1.295-3.125-2.505-4.583-3.6-3.559-2.669-9.02-16.21-13.235-20.7Z" fill="#e8a597" fill-rule="evenodd"/>
    <path id="Trazado_145823" data-name="Trazado 145823" d="M278.618-622.285c.06.018.117.035.167.053,1.184,2.438,2.669,6.386,4.328,10.458,11.533-4.274,25.669-9.97,40.126-16.026a79.933,79.933,0,0,0,5.574-10.359,177.012,177.012,0,0,0-22.08-20.617c-1.791,9.489-8.944,21.863-28.115,36.491Z" fill="#e8a597" fill-rule="evenodd"/>
    <path id="Trazado_145824" data-name="Trazado 145824" d="M317.584-659.507c-2.722,26.613-21.759,38.483-44.007,38.162,0,0,6.073,24.53,28.318,31.049,37.247,10.914,42.924-19.491,30.945-47.908-3.78-8.965-8.935-17.361-15.256-21.3Z" fill="#f2f3f4" fill-rule="evenodd"/>
    <path id="Trazado_145825" data-name="Trazado 145825" d="M281.048-618.891c.048.064,16.431,22.586,40.941,17.378l.269,1.353c-25.344,5.385-42.232-17.831-42.281-17.9l1.071-.833Zm9.656,3.267c.065.044,22.938,15.513,44.262,2.071l.7,1.179c-22.05,13.9-45.627-2.047-45.7-2.093l.731-1.157Z" fill="#ccc"/>
    <path id="Trazado_145826" data-name="Trazado 145826" d="M182.039-716.176s-4.728-2.547-6.516,3.463,6.14,21.793,8.284,18.688-1.768-22.151-1.768-22.151Z" fill="#e09889" fill-rule="evenodd"/>
    <path id="Trazado_145827" data-name="Trazado 145827" d="M246.012-716.176s4.728-2.547,6.516,3.463-6.14,21.793-8.284,18.688,1.768-22.151,1.768-22.151Z" fill="#e09889" fill-rule="evenodd"/>
    <path id="Trazado_145828" data-name="Trazado 145828" d="M243.221-763.812s-7.549-8.76-22.246-9.472-33.992.916-41.327,16.7c-8.446,18.178-4.833,33.741,1.5,51.606l66.042-1.3c2.183-11.055,13.451-47.375-3.971-57.537Z" fill="#d66d50" fill-rule="evenodd"/>
    <path id="Trazado_145829" data-name="Trazado 145829" d="M247.47-716.964c-.037,9.636-1.727,19.254-3.407,23.335-7.379,17.925-19.587,30.211-39.525,23.117C194.806-673.975,184.21-691,182.69-697.1a140.518,140.518,0,0,1-3.042-18.222c1.54-11.294,8.007-23.335,8.007-23.335s5.86,1.731,20.955-.306l.728-.1a89.971,89.971,0,0,1-20.379,4.554s2.6,1.545,15.481,0c8.911-1.069,22.744-6.851,30.423-10.313,2.767-.817,4.433-1.373,4.433-1.373,4.873,10.142,6.372,18.162,8.174,29.227Z" fill="#f9bfb3" fill-rule="evenodd"/>
    <path id="Trazado_145830" data-name="Trazado 145830" d="M191.563-723.531c.03-.019,10.472-6.852,17.129,1.09l-2.048,1.8c-5.124-6.114-13.632-.554-13.656-.539l-1.425-2.349Z" fill="#d66d50"/>
    <path id="Trazado_145831" data-name="Trazado 145831" d="M236.183-723.531c-.03-.019-10.471-6.852-17.129,1.09l2.048,1.8c5.124-6.114,13.632-.554,13.656-.539l1.425-2.349Z" fill="#d66d50"/>
    <path id="Trazado_145832" data-name="Trazado 145832" d="M200.865-719.1c1.975,0,3.575,2.463,3.575,5.5s-1.6,5.5-3.575,5.5-3.575-2.462-3.575-5.5,1.6-5.5,3.575-5.5Z" fill="#513b2d" fill-rule="evenodd"/>
    <path id="Trazado_145833" data-name="Trazado 145833" d="M201.877-717.213a1.025,1.025,0,0,1,1.012,1.037,1.026,1.026,0,0,1-1.012,1.038,1.025,1.025,0,0,1-1.012-1.038,1.024,1.024,0,0,1,1.012-1.037Z" fill="#fff" fill-rule="evenodd"/>
    <path id="Trazado_145834" data-name="Trazado 145834" d="M227.619-719.1c1.974,0,3.575,2.463,3.575,5.5s-1.6,5.5-3.575,5.5-3.575-2.462-3.575-5.5,1.6-5.5,3.575-5.5Z" fill="#513b2d" fill-rule="evenodd"/>
    <path id="Trazado_145835" data-name="Trazado 145835" d="M228.631-717.213a1.024,1.024,0,0,1,1.011,1.037,1.025,1.025,0,0,1-1.011,1.038,1.025,1.025,0,0,1-1.012-1.038,1.024,1.024,0,0,1,1.012-1.037Z" fill="#fff" fill-rule="evenodd"/>
    <path id="Trazado_145836" data-name="Trazado 145836" d="M212.122-717.113c-.008.052-2.7,18.518-3.825,20.324a.975.975,0,0,0-.152.476,1.109,1.109,0,0,0,.376.827,3.827,3.827,0,0,0,1.811.874c1.718.421,4.454.453,8.6-.325l.243,1.359c-4.349.816-7.276.769-9.154.308a5.142,5.142,0,0,1-2.44-1.225,2.465,2.465,0,0,1-.782-1.872,2.4,2.4,0,0,1,.363-1.164c.964-1.554,3.618-19.731,3.625-19.783l1.335.2Z" fill="#d18c84"/>
    <path id="Trazado_145837" data-name="Trazado 145837" d="M202.156-688.606c-1.148-1.49,12.183,5.027,25.463-5.023,2.781-1.519-8.516,20.353-25.463,5.023Z" fill="#fbfcfc" fill-rule="evenodd"/>
    <path id="Trazado_145838" data-name="Trazado 145838" d="M248.325-669.163H271.1v1.385H248.325v-1.385Zm5.176,28.89,20.213,4.321-.274,1.354-20.214-4.322.275-1.353Zm-5.121-13.06,25.252,2.17-.111,1.38-25.251-2.169.11-1.381Z" fill="#d18c84"/>
    <path id="Trazado_145839" data-name="Trazado 145839" d="M241.99-750.092c.015.007,5.485,2.734,6.652,13.807l-.894.1c-1.114-10.569-6.144-13.074-6.159-13.081l.4-.823Zm-54.419-5.4c.064-.032,22-11.02,45.987-4.821l-.218.9c-23.676-6.119-45.315,4.723-45.378,4.754l-.391-.829Zm48.811-1.718c-.057.029-19.863,10.241-54.378,7.38l.07-.92c34.27,2.841,53.854-7.259,53.911-7.287l.4.827Zm-.422-6.126c-.064-.038-22.453-13.518-51.284,3.868l-.454-.793c29.283-17.659,52.119-3.911,52.185-3.873l-.447.8Zm.391,13.473c-.073.03-25.093,10.61-51.953,7.365l.1-.917c26.633,3.218,51.445-7.274,51.516-7.3l.335.855ZM243.108-758A20.921,20.921,0,0,1,250.951-743l-.9.079a19.943,19.943,0,0,0-7.46-14.33l.514-.754Z" fill="#ed986b"/>
    <path id="Trazado_145840" data-name="Trazado 145840" d="M176.518-720.207l8.033,13.376-2.512.344-4.522-9.483-1-4.238Z" fill="#e6e6e6"/>
    <path id="Trazado_145841" data-name="Trazado 145841" d="M249.509-716.513l-4.6,13.33-2.007-.97,7.2-15.095-.591,2.735Z" fill="#e6e6e6"/>
    <path id="Trazado_145842" data-name="Trazado 145842" d="M180.545-707.011s29.094-2.3,30.926-2.334,36.2,5.083,36.2,5.083-3.2,13.381-10.014,23.886-19.8,14.9-28.918,13.664-26.231-5.653-28.2-40.3Z" fill="#fbfcfc" fill-rule="evenodd"/>
    <path id="Trazado_145843" data-name="Trazado 145843" d="M212.081-709.3c4.978.479,35.591,5.042,35.591,5.042s-3.2,13.381-10.014,23.886c-5.958,9.179-16.623,13.694-25.3,13.861l-.275-42.789Z" fill="#e6e6e6" fill-rule="evenodd"/>
    <path id="Trazado_145844" data-name="Trazado 145844" d="M191.79-683.334c.042-.007,14.892-2.663,21.038-2.123,6.111.538,20.746,5.247,20.788,5.26l-.69,1.647c-.041-.014-14.449-4.65-20.345-5.168-5.86-.515-20.424,2.091-20.466,2.1l-.325-1.715Zm-.555-18.673c.043-.008,14.892-2.663,21.038-2.123,6.108.536,28.565,7.639,28.63,7.66l-.682,1.649c-.064-.021-22.3-7.052-28.195-7.57-5.86-.515-20.424,2.091-20.465,2.1l-.326-1.714Zm-.129,9.139c.043-.008,14.892-2.664,21.038-2.123,6.111.538,25.721,6.755,25.778,6.773l-.683,1.649c-.055-.018-19.446-6.164-25.342-6.683-5.86-.516-20.424,2.091-20.465,2.1l-.326-1.714Z" fill="#e6e6e6"/>
    <path id="Trazado_145845" data-name="Trazado 145845" d="M212.234-685.5c.206.011.4.024.594.041,6.111.538,20.746,5.247,20.788,5.26l-.69,1.647c-.041-.014-14.449-4.65-20.345-5.168-.109-.01-.221-.017-.336-.025l-.011-1.755Zm-.05-7.726-.011-1.765c6.142.555,25.692,6.753,25.749,6.771l-.683,1.649c-.054-.018-18.844-5.973-25.055-6.655Zm-.059-9.158-.011-1.761.159.013c6.108.536,28.565,7.639,28.63,7.66l-.682,1.649c-.064-.021-22.056-6.976-28.1-7.561Z" fill="#ccc"/>
  </g>
</svg>
