<svg xmlns="http://www.w3.org/2000/svg" width="925" height="619" viewBox="0 0 925 619">
  <g id="Grupo_76107" data-name="Grupo 76107" transform="translate(10043 5390)">
    <path id="Trazado_148149" data-name="Trazado 148149" d="M0,0H295V295H0Z" transform="translate(-10043 -5390)" fill="#cdedfc"/>
    <path id="Trazado_148155" data-name="Trazado 148155" d="M0,0H295V295H0Z" transform="translate(-9728 -5390)" fill="#cdedfc"/>
    <path id="Trazado_148151" data-name="Trazado 148151" d="M0,0H295V295H0Z" transform="translate(-9938 -5066)" fill="#cdedfc"/>
    <path id="Trazado_148163" data-name="Trazado 148163" d="M0,0H295V295H0Z" transform="translate(-9413 -5390)" fill="#cdedfc"/>
    <path id="Trazado_148159" data-name="Trazado 148159" d="M0,0H295V295H0Z" transform="translate(-9623 -5066)" fill="#cdedfc"/>
    <path id="Trazado_148152" data-name="Trazado 148152" d="M32.105,21V6.781h4.58a6.737,6.737,0,0,1,3.389.854,6.006,6.006,0,0,1,2.349,2.412,7.283,7.283,0,0,1,.854,3.491v.654a7.325,7.325,0,0,1-.825,3.5,6.032,6.032,0,0,1-2.324,2.422A6.589,6.589,0,0,1,36.783,21ZM35.533,9.428v8.936h1.191a2.666,2.666,0,0,0,2.266-1.05,5.145,5.145,0,0,0,.791-3.12v-.615a5.1,5.1,0,0,0-.791-3.105,2.713,2.713,0,0,0-2.3-1.045ZM50,21.2a5.432,5.432,0,0,1-3.936-1.45,5.008,5.008,0,0,1-1.5-3.774V15.7a6.489,6.489,0,0,1,.6-2.861,4.395,4.395,0,0,1,1.753-1.919,5.292,5.292,0,0,1,2.734-.679A4.574,4.574,0,0,1,53.16,11.62a5.43,5.43,0,0,1,1.289,3.853v1.279H47.906a2.372,2.372,0,0,0,.771,1.4,2.3,2.3,0,0,0,1.543.508,2.958,2.958,0,0,0,2.441-1.094l1.5,1.777a4.2,4.2,0,0,1-1.743,1.353A5.891,5.891,0,0,1,50,21.2Zm-.371-8.418q-1.445,0-1.719,1.914h3.32v-.254a1.63,1.63,0,0,0-.4-1.226A1.593,1.593,0,0,0,49.625,12.777ZM65.582,15.8A6.44,6.44,0,0,1,64.508,19.8a3.6,3.6,0,0,1-3.027,1.4,3.122,3.122,0,0,1-2.6-1.279L58.746,21H55.8V6h3.291v5.283a3.013,3.013,0,0,1,2.373-1.045,3.6,3.6,0,0,1,3.047,1.416,6.473,6.473,0,0,1,1.074,3.984Zm-3.3-.21a4.3,4.3,0,0,0-.405-2.169,1.366,1.366,0,0,0-1.245-.648,1.576,1.576,0,0,0-1.543.848v4.192a1.585,1.585,0,0,0,1.563.838,1.4,1.4,0,0,0,1.475-1.131A8.121,8.121,0,0,0,62.281,15.595Zm9.863,5.6a5.432,5.432,0,0,1-3.936-1.45,5.008,5.008,0,0,1-1.5-3.774V15.7a6.489,6.489,0,0,1,.6-2.861,4.395,4.395,0,0,1,1.753-1.919,5.292,5.292,0,0,1,2.734-.679,4.574,4.574,0,0,1,3.516,1.382A5.43,5.43,0,0,1,76.6,15.473v1.279H70.055a2.372,2.372,0,0,0,.771,1.4,2.3,2.3,0,0,0,1.543.508,2.958,2.958,0,0,0,2.441-1.094l1.5,1.777a4.2,4.2,0,0,1-1.743,1.353A5.891,5.891,0,0,1,72.145,21.2Zm-.371-8.418q-1.445,0-1.719,1.914h3.32v-.254a1.63,1.63,0,0,0-.4-1.226A1.593,1.593,0,0,0,71.773,12.777Zm9.17-2.344.107,1.24a3.583,3.583,0,0,1,3.018-1.436,3.015,3.015,0,0,1,2.466.986,4.7,4.7,0,0,1,.845,2.969V21h-3.3V14.33a1.783,1.783,0,0,0-.322-1.177,1.491,1.491,0,0,0-1.172-.376,1.569,1.569,0,0,0-1.436.762V21H77.857V10.434Zm18.77,7.6a.76.76,0,0,0-.439-.674,6.684,6.684,0,0,0-1.67-.527,7.615,7.615,0,0,1-2.031-.718,3.4,3.4,0,0,1-1.221-1.079,2.577,2.577,0,0,1-.42-1.455,2.92,2.92,0,0,1,1.2-2.4,4.948,4.948,0,0,1,3.145-.942,5.482,5.482,0,0,1,3.359.947,2.962,2.962,0,0,1,1.27,2.49h-3.3q0-1.27-1.338-1.27a1.326,1.326,0,0,0-.869.288.892.892,0,0,0-.352.718.819.819,0,0,0,.43.713,4.06,4.06,0,0,0,1.372.449,11.857,11.857,0,0,1,1.655.42,3.007,3.007,0,0,1,2.383,2.939,2.767,2.767,0,0,1-1.284,2.354,5.631,5.631,0,0,1-3.325.908,5.747,5.747,0,0,1-2.422-.488,4.05,4.05,0,0,1-1.66-1.328,3.007,3.007,0,0,1-.6-1.768h3.076a1.272,1.272,0,0,0,.488,1.069,2.009,2.009,0,0,0,1.2.337,1.58,1.58,0,0,0,1.011-.273A.875.875,0,0,0,99.713,18.031Zm9.824,3.164a5.432,5.432,0,0,1-3.936-1.45,5.008,5.008,0,0,1-1.5-3.774V15.7a6.489,6.489,0,0,1,.6-2.861,4.395,4.395,0,0,1,1.753-1.919,5.292,5.292,0,0,1,2.734-.679A4.574,4.574,0,0,1,112.7,11.62a5.43,5.43,0,0,1,1.289,3.853v1.279h-6.543a2.372,2.372,0,0,0,.771,1.4,2.3,2.3,0,0,0,1.543.508,2.958,2.958,0,0,0,2.441-1.094l1.5,1.777a4.2,4.2,0,0,1-1.743,1.353A5.891,5.891,0,0,1,109.537,21.2Zm-.371-8.418q-1.445,0-1.719,1.914h3.32v-.254a1.63,1.63,0,0,0-.4-1.226A1.593,1.593,0,0,0,109.166,12.777Zm12.539.635-1.084-.078a1.947,1.947,0,0,0-1.992.977V21h-3.291V10.434h3.086l.107,1.357a2.548,2.548,0,0,1,2.314-1.553,3.209,3.209,0,0,1,.918.117ZM29.776,48a3.716,3.716,0,0,1-.312-.947A3.06,3.06,0,0,1,26.925,48.2a3.749,3.749,0,0,1-2.539-.9,2.875,2.875,0,0,1-1.045-2.271,2.955,2.955,0,0,1,1.27-2.6,6.468,6.468,0,0,1,3.691-.879h1.016v-.559q0-1.462-1.26-1.462a1.03,1.03,0,0,0-1.172,1.158H23.595a2.95,2.95,0,0,1,1.3-2.487,5.479,5.479,0,0,1,3.325-.956,4.8,4.8,0,0,1,3.193.986,3.429,3.429,0,0,1,1.2,2.705v4.678a4.79,4.79,0,0,0,.449,2.227V48Zm-2.061-2.148a1.836,1.836,0,0,0,1.021-.264,1.653,1.653,0,0,0,.581-.6V43.3H28.36q-1.719,0-1.719,1.543a.942.942,0,0,0,.3.728A1.1,1.1,0,0,0,27.716,45.852ZM37.911,48h-3.3V33h3.3Zm6.494-2.344a1.464,1.464,0,0,0,1.074-.376,1.379,1.379,0,0,0,.371-1.05h3.086a3.653,3.653,0,0,1-1.245,2.852A4.631,4.631,0,0,1,44.483,48.2a4.689,4.689,0,0,1-3.633-1.445,5.7,5.7,0,0,1-1.328-4v-.137a6.436,6.436,0,0,1,.591-2.827,4.3,4.3,0,0,1,1.7-1.885,5.081,5.081,0,0,1,2.637-.659,4.573,4.573,0,0,1,3.271,1.143,4.053,4.053,0,0,1,1.211,3.1H45.851a1.807,1.807,0,0,0-.4-1.26,1.382,1.382,0,0,0-1.074-.439q-1.279,0-1.494,1.631a11.507,11.507,0,0,0-.068,1.426,4.52,4.52,0,0,0,.381,2.207A1.319,1.319,0,0,0,44.405,45.656ZM56.28,48a3.716,3.716,0,0,1-.312-.947A3.06,3.06,0,0,1,53.429,48.2a3.749,3.749,0,0,1-2.539-.9,2.875,2.875,0,0,1-1.045-2.271,2.955,2.955,0,0,1,1.27-2.6,6.468,6.468,0,0,1,3.691-.879h1.016v-.559q0-1.462-1.26-1.462a1.03,1.03,0,0,0-1.172,1.158H50.1a2.95,2.95,0,0,1,1.3-2.487,5.479,5.479,0,0,1,3.325-.956,4.8,4.8,0,0,1,3.193.986,3.429,3.429,0,0,1,1.2,2.705v4.678a4.79,4.79,0,0,0,.449,2.227V48ZM54.22,45.852a1.836,1.836,0,0,0,1.021-.264,1.653,1.653,0,0,0,.581-.6V43.3h-.957q-1.719,0-1.719,1.543a.942.942,0,0,0,.3.728A1.1,1.1,0,0,0,54.22,45.852Zm9.746-8.418.107,1.24a3.583,3.583,0,0,1,3.018-1.436,3.015,3.015,0,0,1,2.466.986,4.7,4.7,0,0,1,.845,2.969V48H67.1V41.33a1.783,1.783,0,0,0-.322-1.177,1.491,1.491,0,0,0-1.172-.376,1.569,1.569,0,0,0-1.436.762V48H60.88V37.434ZM76.1,45.461h4.814V48H71.944V46.164l4.688-6.191H72.149V37.434h8.662v1.777ZM88.468,48a3.716,3.716,0,0,1-.312-.947A3.06,3.06,0,0,1,85.616,48.2a3.749,3.749,0,0,1-2.539-.9,2.875,2.875,0,0,1-1.045-2.271,2.955,2.955,0,0,1,1.27-2.6,6.468,6.468,0,0,1,3.691-.879h1.016v-.559q0-1.462-1.26-1.462a1.03,1.03,0,0,0-1.172,1.158H82.286a2.95,2.95,0,0,1,1.3-2.487,5.479,5.479,0,0,1,3.325-.956,4.8,4.8,0,0,1,3.193.986,3.429,3.429,0,0,1,1.2,2.705v4.678a4.79,4.79,0,0,0,.449,2.227V48Zm-2.061-2.148a1.836,1.836,0,0,0,1.021-.264,1.653,1.653,0,0,0,.581-.6V43.3h-.957q-1.719,0-1.719,1.543a.942.942,0,0,0,.3.728A1.1,1.1,0,0,0,86.407,45.852ZM102.94,42.8a6.44,6.44,0,0,1-1.074,3.994,3.6,3.6,0,0,1-3.027,1.4,3.122,3.122,0,0,1-2.6-1.279L96.1,48H93.155V33h3.291v5.283a3.013,3.013,0,0,1,2.373-1.045,3.6,3.6,0,0,1,3.047,1.416,6.473,6.473,0,0,1,1.074,3.984Zm-3.3-.21a4.3,4.3,0,0,0-.405-2.169,1.366,1.366,0,0,0-1.245-.648,1.576,1.576,0,0,0-1.543.848v4.192a1.585,1.585,0,0,0,1.563.838,1.4,1.4,0,0,0,1.475-1.131A8.121,8.121,0,0,0,99.64,42.595ZM107.862,48h-3.3V33h3.3Zm7.139.2a5.432,5.432,0,0,1-3.936-1.45,5.008,5.008,0,0,1-1.5-3.774V42.7a6.489,6.489,0,0,1,.6-2.861,4.395,4.395,0,0,1,1.753-1.919,5.292,5.292,0,0,1,2.734-.679,4.574,4.574,0,0,1,3.516,1.382,5.43,5.43,0,0,1,1.289,3.853v1.279h-6.543a2.372,2.372,0,0,0,.771,1.4,2.3,2.3,0,0,0,1.543.508,2.958,2.958,0,0,0,2.441-1.094l1.5,1.777a4.2,4.2,0,0,1-1.743,1.353A5.891,5.891,0,0,1,115,48.2Zm-.371-8.418q-1.445,0-1.719,1.914h3.32v-.254a1.63,1.63,0,0,0-.4-1.226A1.593,1.593,0,0,0,114.63,39.777Zm11.68,5.254a.76.76,0,0,0-.439-.674,6.685,6.685,0,0,0-1.67-.527,7.615,7.615,0,0,1-2.031-.718,3.4,3.4,0,0,1-1.221-1.079,2.577,2.577,0,0,1-.42-1.455,2.92,2.92,0,0,1,1.2-2.4,4.948,4.948,0,0,1,3.145-.942,5.482,5.482,0,0,1,3.359.947,2.962,2.962,0,0,1,1.27,2.49h-3.3q0-1.27-1.338-1.27a1.326,1.326,0,0,0-.869.288.892.892,0,0,0-.352.718.819.819,0,0,0,.43.713,4.06,4.06,0,0,0,1.372.449,11.856,11.856,0,0,1,1.655.42,3.007,3.007,0,0,1,2.383,2.939,2.767,2.767,0,0,1-1.284,2.354,5.631,5.631,0,0,1-3.325.908,5.747,5.747,0,0,1-2.422-.488,4.05,4.05,0,0,1-1.66-1.328,3.007,3.007,0,0,1-.6-1.768h3.076a1.272,1.272,0,0,0,.488,1.069,2.009,2.009,0,0,0,1.2.337,1.58,1.58,0,0,0,1.011-.273A.875.875,0,0,0,126.31,45.031Z" transform="translate(-9984 -5226)" fill="#12263f"/>
    <path id="Trazado_148153" data-name="Trazado 148153" d="M42.5,0A42.5,42.5,0,1,1,0,42.5,42.5,42.5,0,0,1,42.5,0Z" transform="translate(-9938 -5327)" fill="#00bcd4"/>
    <path id="Trazado_148158" data-name="Trazado 148158" d="M2.432,21V6.781h4.58a6.737,6.737,0,0,1,3.389.854,6.006,6.006,0,0,1,2.349,2.412,7.283,7.283,0,0,1,.854,3.491v.654a7.325,7.325,0,0,1-.825,3.5,6.032,6.032,0,0,1-2.324,2.422A6.589,6.589,0,0,1,7.109,21ZM5.859,9.428v8.936H7.051a2.666,2.666,0,0,0,2.266-1.05,5.145,5.145,0,0,0,.791-3.12v-.615a5.1,5.1,0,0,0-.791-3.105,2.713,2.713,0,0,0-2.3-1.045ZM20.322,21.2a5.432,5.432,0,0,1-3.936-1.45,5.008,5.008,0,0,1-1.5-3.774V15.7a6.489,6.489,0,0,1,.6-2.861,4.395,4.395,0,0,1,1.753-1.919,5.292,5.292,0,0,1,2.734-.679,4.574,4.574,0,0,1,3.516,1.382,5.43,5.43,0,0,1,1.289,3.853v1.279H18.232a2.372,2.372,0,0,0,.771,1.4,2.3,2.3,0,0,0,1.543.508,2.958,2.958,0,0,0,2.441-1.094l1.5,1.777a4.2,4.2,0,0,1-1.743,1.353A5.891,5.891,0,0,1,20.322,21.2Zm-.371-8.418q-1.445,0-1.719,1.914h3.32v-.254a1.63,1.63,0,0,0-.4-1.226A1.593,1.593,0,0,0,19.951,12.777ZM35.908,15.8A6.44,6.44,0,0,1,34.834,19.8a3.6,3.6,0,0,1-3.027,1.4,3.122,3.122,0,0,1-2.6-1.279L29.072,21H26.123V6h3.291v5.283a3.013,3.013,0,0,1,2.373-1.045,3.6,3.6,0,0,1,3.047,1.416,6.473,6.473,0,0,1,1.074,3.984Zm-3.3-.21a4.3,4.3,0,0,0-.405-2.169,1.366,1.366,0,0,0-1.245-.648,1.576,1.576,0,0,0-1.543.848v4.192a1.585,1.585,0,0,0,1.563.838,1.4,1.4,0,0,0,1.475-1.131A8.121,8.121,0,0,0,32.607,15.595Zm9.863,5.6a5.432,5.432,0,0,1-3.936-1.45,5.008,5.008,0,0,1-1.5-3.774V15.7a6.489,6.489,0,0,1,.6-2.861,4.395,4.395,0,0,1,1.753-1.919,5.292,5.292,0,0,1,2.734-.679,4.574,4.574,0,0,1,3.516,1.382,5.43,5.43,0,0,1,1.289,3.853v1.279H40.381a2.372,2.372,0,0,0,.771,1.4,2.3,2.3,0,0,0,1.543.508,2.958,2.958,0,0,0,2.441-1.094l1.5,1.777A4.2,4.2,0,0,1,44.9,20.692,5.891,5.891,0,0,1,42.471,21.2ZM42.1,12.777q-1.445,0-1.719,1.914H43.7v-.254a1.63,1.63,0,0,0-.4-1.226A1.593,1.593,0,0,0,42.1,12.777Zm9.17-2.344.107,1.24a3.583,3.583,0,0,1,3.018-1.436,3.015,3.015,0,0,1,2.466.986,4.7,4.7,0,0,1,.845,2.969V21H54.4V14.33a1.783,1.783,0,0,0-.322-1.177,1.491,1.491,0,0,0-1.172-.376,1.569,1.569,0,0,0-1.436.762V21H48.184V10.434Zm18.77,7.6a.76.76,0,0,0-.439-.674,6.684,6.684,0,0,0-1.67-.527,7.615,7.615,0,0,1-2.031-.718,3.4,3.4,0,0,1-1.221-1.079,2.577,2.577,0,0,1-.42-1.455,2.92,2.92,0,0,1,1.2-2.4,4.948,4.948,0,0,1,3.145-.942,5.482,5.482,0,0,1,3.359.947,2.962,2.962,0,0,1,1.27,2.49h-3.3q0-1.27-1.338-1.27a1.326,1.326,0,0,0-.869.288.892.892,0,0,0-.352.718.819.819,0,0,0,.43.713,4.06,4.06,0,0,0,1.372.449,11.857,11.857,0,0,1,1.655.42,3.007,3.007,0,0,1,2.383,2.939,2.767,2.767,0,0,1-1.284,2.354A5.631,5.631,0,0,1,68.6,21.2a5.747,5.747,0,0,1-2.422-.488,4.05,4.05,0,0,1-1.66-1.328,3.007,3.007,0,0,1-.6-1.768H67a1.272,1.272,0,0,0,.488,1.069,2.009,2.009,0,0,0,1.2.337,1.58,1.58,0,0,0,1.011-.273A.875.875,0,0,0,70.039,18.031ZM79.863,21.2a5.432,5.432,0,0,1-3.936-1.45,5.008,5.008,0,0,1-1.5-3.774V15.7a6.489,6.489,0,0,1,.6-2.861,4.395,4.395,0,0,1,1.753-1.919,5.292,5.292,0,0,1,2.734-.679,4.574,4.574,0,0,1,3.516,1.382,5.43,5.43,0,0,1,1.289,3.853v1.279H77.773a2.372,2.372,0,0,0,.771,1.4,2.3,2.3,0,0,0,1.543.508,2.958,2.958,0,0,0,2.441-1.094l1.5,1.777a4.2,4.2,0,0,1-1.743,1.353A5.891,5.891,0,0,1,79.863,21.2Zm-.371-8.418q-1.445,0-1.719,1.914h3.32v-.254a1.63,1.63,0,0,0-.4-1.226A1.593,1.593,0,0,0,79.492,12.777Zm12.539.635-1.084-.078a1.947,1.947,0,0,0-1.992.977V21H85.664V10.434H88.75l.107,1.357a2.548,2.548,0,0,1,2.314-1.553,3.209,3.209,0,0,1,.918.117Zm5.752,2.227a6.455,6.455,0,0,1,1.084-3.955,3.568,3.568,0,0,1,3.027-1.445,3.035,3.035,0,0,1,2.383,1.113V6h3.3V21h-2.959l-.166-1.133a3.116,3.116,0,0,1-2.578,1.328,3.562,3.562,0,0,1-2.988-1.445A6.659,6.659,0,0,1,97.783,15.639Zm3.291.205q0,2.813,1.641,2.813a1.62,1.62,0,0,0,1.563-.918V13.715a1.576,1.576,0,0,0-1.543-.937q-1.523,0-1.65,2.461ZM114.561,21.2a5.432,5.432,0,0,1-3.936-1.45,5.008,5.008,0,0,1-1.5-3.774V15.7a6.489,6.489,0,0,1,.6-2.861,4.395,4.395,0,0,1,1.753-1.919,5.292,5.292,0,0,1,2.734-.679,4.574,4.574,0,0,1,3.516,1.382,5.43,5.43,0,0,1,1.289,3.853v1.279h-6.543a2.372,2.372,0,0,0,.771,1.4,2.3,2.3,0,0,0,1.543.508,2.958,2.958,0,0,0,2.441-1.094l1.5,1.777a4.2,4.2,0,0,1-1.743,1.353A5.891,5.891,0,0,1,114.561,21.2Zm-.371-8.418q-1.445,0-1.719,1.914h3.32v-.254a1.63,1.63,0,0,0-.4-1.226A1.593,1.593,0,0,0,114.189,12.777ZM126.045,21V12.719h-1.533V10.434h1.533v-.84a3.651,3.651,0,0,1,1.064-2.8,4.206,4.206,0,0,1,2.988-1A6.544,6.544,0,0,1,131.641,6l.01,2.422a3.007,3.007,0,0,0-.811-.088q-1.494,0-1.494,1.289v.811h2.061v2.285h-2.061V21Zm12.471,0a3.716,3.716,0,0,1-.312-.947,3.06,3.06,0,0,1-2.539,1.143,3.749,3.749,0,0,1-2.539-.9,2.875,2.875,0,0,1-1.045-2.271,2.955,2.955,0,0,1,1.27-2.6,6.468,6.468,0,0,1,3.691-.879h1.016v-.559q0-1.462-1.26-1.462a1.03,1.03,0,0,0-1.172,1.158h-3.291a2.95,2.95,0,0,1,1.3-2.487,5.479,5.479,0,0,1,3.325-.956,4.8,4.8,0,0,1,3.193.986,3.429,3.429,0,0,1,1.2,2.705v4.678a4.79,4.79,0,0,0,.449,2.227V21Zm-2.061-2.148a1.836,1.836,0,0,0,1.021-.264,1.653,1.653,0,0,0,.581-.6V16.3H137.1q-1.719,0-1.719,1.543a.942.942,0,0,0,.3.728A1.1,1.1,0,0,0,136.455,18.852ZM137.275,6h3.477l-2.715,3.066-2.686,0Zm10.371,12.656a1.464,1.464,0,0,0,1.074-.376,1.379,1.379,0,0,0,.371-1.05h3.086a3.653,3.653,0,0,1-1.245,2.852,4.631,4.631,0,0,1-3.208,1.113,4.689,4.689,0,0,1-3.633-1.445,5.7,5.7,0,0,1-1.328-4v-.137a6.436,6.436,0,0,1,.591-2.827,4.3,4.3,0,0,1,1.7-1.885,5.081,5.081,0,0,1,2.637-.659,4.573,4.573,0,0,1,3.271,1.143,4.053,4.053,0,0,1,1.211,3.1h-3.086a1.807,1.807,0,0,0-.4-1.26,1.382,1.382,0,0,0-1.074-.439q-1.279,0-1.494,1.631a11.507,11.507,0,0,0-.068,1.426,4.52,4.52,0,0,0,.381,2.207A1.319,1.319,0,0,0,147.646,18.656ZM157.041,21h-3.3V10.434h3.3Zm-3.5-13.291a1.469,1.469,0,0,1,.508-1.152,2.159,2.159,0,0,1,2.637,0,1.469,1.469,0,0,1,.508,1.152,1.469,1.469,0,0,1-.508,1.152,2.159,2.159,0,0,1-2.637,0A1.469,1.469,0,0,1,153.545,7.709ZM162.539,21h-3.3V6h3.3ZM28.838,45.656a1.464,1.464,0,0,0,1.074-.376,1.379,1.379,0,0,0,.371-1.05h3.086a3.653,3.653,0,0,1-1.245,2.852A4.631,4.631,0,0,1,28.916,48.2a4.689,4.689,0,0,1-3.633-1.445,5.7,5.7,0,0,1-1.328-4v-.137a6.436,6.436,0,0,1,.591-2.827,4.3,4.3,0,0,1,1.7-1.885,5.081,5.081,0,0,1,2.637-.659,4.573,4.573,0,0,1,3.271,1.143,4.053,4.053,0,0,1,1.211,3.1H30.283a1.807,1.807,0,0,0-.4-1.26,1.382,1.382,0,0,0-1.074-.439q-1.279,0-1.494,1.631a11.508,11.508,0,0,0-.068,1.426,4.52,4.52,0,0,0,.381,2.207A1.319,1.319,0,0,0,28.838,45.656Zm5.508-3.037a6.236,6.236,0,0,1,.615-2.817,4.4,4.4,0,0,1,1.768-1.9,5.323,5.323,0,0,1,2.705-.664,4.858,4.858,0,0,1,3.74,1.47,5.64,5.64,0,0,1,1.367,4v.117a5.472,5.472,0,0,1-1.372,3.921,4.871,4.871,0,0,1-3.716,1.45,4.927,4.927,0,0,1-3.623-1.353,5.29,5.29,0,0,1-1.475-3.667Zm3.291.205a3.932,3.932,0,0,0,.459,2.148,1.529,1.529,0,0,0,1.357.684q1.758,0,1.8-2.705v-.332q0-2.842-1.816-2.842-1.65,0-1.787,2.451ZM49.1,37.434l.107,1.24a3.633,3.633,0,0,1,3.018-1.436,2.675,2.675,0,0,1,2.705,1.592,3.516,3.516,0,0,1,3.105-1.592q3.213,0,3.3,3.887V48h-3.3V41.33a2.014,2.014,0,0,0-.273-1.182,1.164,1.164,0,0,0-1-.371,1.559,1.559,0,0,0-1.455.869l.01.137V48h-3.3V41.35a2.117,2.117,0,0,0-.264-1.2,1.161,1.161,0,0,0-1.006-.371,1.578,1.578,0,0,0-1.445.869V48H46.016V37.434Zm23.926,5.361a6.372,6.372,0,0,1-1.108,3.931,3.554,3.554,0,0,1-2.993,1.47,3.046,3.046,0,0,1-2.393-1.064v4.932H63.242V37.434h3.076l.1.977a3.046,3.046,0,0,1,2.49-1.172,3.582,3.582,0,0,1,3.037,1.44,6.45,6.45,0,0,1,1.084,3.96Zm-3.291-.205q0-2.812-1.641-2.812a1.549,1.549,0,0,0-1.562.84v4.16a1.6,1.6,0,0,0,1.582.879q1.572,0,1.621-2.715Zm11.133-2.178-1.084-.078a1.947,1.947,0,0,0-1.992.977V48H74.5V37.434h3.086l.107,1.357a2.548,2.548,0,0,1,2.314-1.553,3.209,3.209,0,0,1,.918.117Zm6.3,7.783a5.432,5.432,0,0,1-3.936-1.45,5.008,5.008,0,0,1-1.5-3.774V42.7a6.489,6.489,0,0,1,.6-2.861,4.395,4.395,0,0,1,1.753-1.919,5.292,5.292,0,0,1,2.734-.679,4.574,4.574,0,0,1,3.516,1.382,5.43,5.43,0,0,1,1.289,3.853v1.279H85.078a2.372,2.372,0,0,0,.771,1.4,2.3,2.3,0,0,0,1.543.508,2.958,2.958,0,0,0,2.441-1.094l1.5,1.777a4.2,4.2,0,0,1-1.743,1.353A5.891,5.891,0,0,1,87.168,48.2ZM86.8,39.777q-1.445,0-1.719,1.914H88.4v-.254a1.63,1.63,0,0,0-.4-1.226A1.593,1.593,0,0,0,86.8,39.777Zm9.17-2.344.107,1.24a3.583,3.583,0,0,1,3.018-1.436,3.015,3.015,0,0,1,2.466.986,4.7,4.7,0,0,1,.845,2.969V48H99.1V41.33a1.783,1.783,0,0,0-.322-1.177,1.491,1.491,0,0,0-1.172-.376,1.569,1.569,0,0,0-1.436.762V48H92.881V37.434Zm13.789,7.6a.76.76,0,0,0-.439-.674,6.685,6.685,0,0,0-1.67-.527,7.615,7.615,0,0,1-2.031-.718,3.4,3.4,0,0,1-1.221-1.079,2.577,2.577,0,0,1-.42-1.455,2.92,2.92,0,0,1,1.2-2.4,4.948,4.948,0,0,1,3.145-.942,5.482,5.482,0,0,1,3.359.947,2.962,2.962,0,0,1,1.27,2.49h-3.3q0-1.27-1.338-1.27a1.326,1.326,0,0,0-.869.288.892.892,0,0,0-.352.718.819.819,0,0,0,.43.713,4.06,4.06,0,0,0,1.372.449,11.856,11.856,0,0,1,1.655.42,3.007,3.007,0,0,1,2.383,2.939,2.767,2.767,0,0,1-1.284,2.354,5.631,5.631,0,0,1-3.325.908,5.747,5.747,0,0,1-2.422-.488,4.05,4.05,0,0,1-1.66-1.328,3.007,3.007,0,0,1-.6-1.768h3.076a1.272,1.272,0,0,0,.488,1.069,2.009,2.009,0,0,0,1.2.337,1.58,1.58,0,0,0,1.011-.273A.875.875,0,0,0,109.756,45.031ZM117.939,48h-3.3V37.434h3.3Zm-3.5-13.291a1.469,1.469,0,0,1,.508-1.152,2.159,2.159,0,0,1,2.637,0,1.561,1.561,0,0,1,0,2.3,2.159,2.159,0,0,1-2.637,0A1.469,1.469,0,0,1,114.443,34.709Zm5.107,7.91a6.236,6.236,0,0,1,.615-2.817,4.4,4.4,0,0,1,1.768-1.9,5.323,5.323,0,0,1,2.705-.664,4.858,4.858,0,0,1,3.74,1.47,5.64,5.64,0,0,1,1.367,4v.117a5.472,5.472,0,0,1-1.372,3.921,4.871,4.871,0,0,1-3.716,1.45,4.927,4.927,0,0,1-3.623-1.353,5.29,5.29,0,0,1-1.475-3.667Zm3.291.205a3.932,3.932,0,0,0,.459,2.148,1.529,1.529,0,0,0,1.357.684q1.758,0,1.8-2.705v-.332q0-2.842-1.816-2.842-1.65,0-1.787,2.451ZM125.088,33h3.477l-2.715,3.066-2.686,0Zm9.131,4.434.107,1.24a3.583,3.583,0,0,1,3.018-1.436,3.015,3.015,0,0,1,2.466.986,4.7,4.7,0,0,1,.845,2.969V48h-3.3V41.33a1.783,1.783,0,0,0-.322-1.177,1.491,1.491,0,0,0-1.172-.376,1.569,1.569,0,0,0-1.436.762V48h-3.291V37.434Z" transform="translate(-9670 -5226)" fill="#12263f"/>
    <path id="Trazado_148160" data-name="Trazado 148160" d="M42.5,0A42.5,42.5,0,1,1,0,42.5,42.5,42.5,0,0,1,42.5,0Z" transform="translate(-9623 -5327)" fill="#00bcd4"/>
    <path id="Trazado_148156" data-name="Trazado 148156" d="M4.157,21V6.781h4.58a6.737,6.737,0,0,1,3.389.854,6.006,6.006,0,0,1,2.349,2.412,7.283,7.283,0,0,1,.854,3.491v.654a7.325,7.325,0,0,1-.825,3.5,6.032,6.032,0,0,1-2.324,2.422A6.589,6.589,0,0,1,8.835,21ZM7.585,9.428v8.936H8.776a2.666,2.666,0,0,0,2.266-1.05,5.145,5.145,0,0,0,.791-3.12v-.615a5.1,5.1,0,0,0-.791-3.105,2.713,2.713,0,0,0-2.3-1.045ZM22.048,21.2a5.432,5.432,0,0,1-3.936-1.45,5.008,5.008,0,0,1-1.5-3.774V15.7a6.489,6.489,0,0,1,.6-2.861,4.395,4.395,0,0,1,1.753-1.919,5.292,5.292,0,0,1,2.734-.679,4.574,4.574,0,0,1,3.516,1.382A5.43,5.43,0,0,1,26.5,15.473v1.279H19.958a2.372,2.372,0,0,0,.771,1.4,2.3,2.3,0,0,0,1.543.508,2.958,2.958,0,0,0,2.441-1.094l1.5,1.777a4.2,4.2,0,0,1-1.743,1.353A5.891,5.891,0,0,1,22.048,21.2Zm-.371-8.418q-1.445,0-1.719,1.914h3.32v-.254a1.63,1.63,0,0,0-.4-1.226A1.593,1.593,0,0,0,21.677,12.777ZM37.634,15.8A6.44,6.44,0,0,1,36.56,19.8a3.6,3.6,0,0,1-3.027,1.4,3.122,3.122,0,0,1-2.6-1.279L30.8,21H27.849V6H31.14v5.283a3.013,3.013,0,0,1,2.373-1.045,3.6,3.6,0,0,1,3.047,1.416,6.473,6.473,0,0,1,1.074,3.984Zm-3.3-.21a4.3,4.3,0,0,0-.405-2.169,1.366,1.366,0,0,0-1.245-.648,1.576,1.576,0,0,0-1.543.848v4.192a1.585,1.585,0,0,0,1.563.838,1.4,1.4,0,0,0,1.475-1.131A8.121,8.121,0,0,0,34.333,15.595ZM44.2,21.2a5.432,5.432,0,0,1-3.936-1.45,5.008,5.008,0,0,1-1.5-3.774V15.7a6.489,6.489,0,0,1,.6-2.861,4.395,4.395,0,0,1,1.753-1.919,5.292,5.292,0,0,1,2.734-.679A4.574,4.574,0,0,1,47.36,11.62a5.43,5.43,0,0,1,1.289,3.853v1.279H42.106a2.372,2.372,0,0,0,.771,1.4,2.3,2.3,0,0,0,1.543.508,2.958,2.958,0,0,0,2.441-1.094l1.5,1.777a4.2,4.2,0,0,1-1.743,1.353A5.891,5.891,0,0,1,44.2,21.2Zm-.371-8.418q-1.445,0-1.719,1.914h3.32v-.254a1.63,1.63,0,0,0-.4-1.226A1.593,1.593,0,0,0,43.825,12.777ZM53,10.434l.107,1.24a3.583,3.583,0,0,1,3.018-1.436,3.015,3.015,0,0,1,2.466.986,4.7,4.7,0,0,1,.845,2.969V21h-3.3V14.33a1.783,1.783,0,0,0-.322-1.177,1.491,1.491,0,0,0-1.172-.376,1.569,1.569,0,0,0-1.436.762V21H49.909V10.434ZM71.345,21.2a5.432,5.432,0,0,1-3.936-1.45,5.008,5.008,0,0,1-1.5-3.774V15.7a6.489,6.489,0,0,1,.6-2.861,4.395,4.395,0,0,1,1.753-1.919,5.292,5.292,0,0,1,2.734-.679,4.574,4.574,0,0,1,3.516,1.382A5.43,5.43,0,0,1,75.8,15.473v1.279H69.255a2.372,2.372,0,0,0,.771,1.4,2.3,2.3,0,0,0,1.543.508,2.958,2.958,0,0,0,2.441-1.094l1.5,1.777a4.2,4.2,0,0,1-1.743,1.353A5.891,5.891,0,0,1,71.345,21.2Zm-.371-8.418q-1.445,0-1.719,1.914h3.32v-.254a1.63,1.63,0,0,0-.4-1.226A1.593,1.593,0,0,0,70.974,12.777Zm11.68,5.254a.76.76,0,0,0-.439-.674,6.684,6.684,0,0,0-1.67-.527,7.615,7.615,0,0,1-2.031-.718,3.4,3.4,0,0,1-1.221-1.079,2.577,2.577,0,0,1-.42-1.455,2.92,2.92,0,0,1,1.2-2.4,4.948,4.948,0,0,1,3.145-.942,5.482,5.482,0,0,1,3.359.947,2.962,2.962,0,0,1,1.27,2.49h-3.3q0-1.27-1.338-1.27a1.326,1.326,0,0,0-.869.288.892.892,0,0,0-.352.718.819.819,0,0,0,.43.713,4.06,4.06,0,0,0,1.372.449,11.857,11.857,0,0,1,1.655.42,3.007,3.007,0,0,1,2.383,2.939,2.767,2.767,0,0,1-1.284,2.354,5.631,5.631,0,0,1-3.325.908,5.747,5.747,0,0,1-2.422-.488,4.05,4.05,0,0,1-1.66-1.328,3.007,3.007,0,0,1-.6-1.768h3.076a1.272,1.272,0,0,0,.488,1.069,2.009,2.009,0,0,0,1.2.337,1.58,1.58,0,0,0,1.011-.273A.875.875,0,0,0,82.653,18.031ZM91.2,7.807v2.627h1.738v2.285H91.2v4.834a1.234,1.234,0,0,0,.215.83,1.152,1.152,0,0,0,.85.234,4.828,4.828,0,0,0,.82-.059v2.354a6.074,6.074,0,0,1-1.855.283,3.448,3.448,0,0,1-2.51-.8,3.282,3.282,0,0,1-.811-2.432V12.719H86.56V10.434h1.348V7.807ZM100.183,21a3.716,3.716,0,0,1-.312-.947A3.06,3.06,0,0,1,97.331,21.2a3.749,3.749,0,0,1-2.539-.9,2.875,2.875,0,0,1-1.045-2.271,2.955,2.955,0,0,1,1.27-2.6,6.468,6.468,0,0,1,3.691-.879h1.016v-.559q0-1.462-1.26-1.462a1.03,1.03,0,0,0-1.172,1.158H94a2.95,2.95,0,0,1,1.3-2.487,5.479,5.479,0,0,1,3.325-.956,4.8,4.8,0,0,1,3.193.986,3.429,3.429,0,0,1,1.2,2.705v4.678a4.79,4.79,0,0,0,.449,2.227V21Zm-2.061-2.148a1.836,1.836,0,0,0,1.021-.264,1.653,1.653,0,0,0,.581-.6V16.3h-.957q-1.719,0-1.719,1.543a.942.942,0,0,0,.3.728A1.1,1.1,0,0,0,98.122,18.852Zm13.115-5.439-1.084-.078a1.947,1.947,0,0,0-1.992.977V21H104.87V10.434h3.086l.107,1.357a2.548,2.548,0,0,1,2.314-1.553,3.209,3.209,0,0,1,.918.117ZM120.876,21h-3.3V6h3.3Zm5.5,0h-3.3V10.434h3.3Zm-3.5-13.291a1.469,1.469,0,0,1,.508-1.152,2.159,2.159,0,0,1,2.637,0,1.469,1.469,0,0,1,.508,1.152,1.469,1.469,0,0,1-.508,1.152,2.159,2.159,0,0,1-2.637,0A1.469,1.469,0,0,1,122.878,7.709Zm5.137,7.93a7.134,7.134,0,0,1,.527-2.832,4.245,4.245,0,0,1,1.514-1.9,3.99,3.99,0,0,1,2.295-.669,3.173,3.173,0,0,1,2.578,1.113l.117-.918h2.988V20.6a4.455,4.455,0,0,1-.649,2.427,4.167,4.167,0,0,1-1.88,1.582,6.91,6.91,0,0,1-2.852.552,5.961,5.961,0,0,1-2.251-.439,4.063,4.063,0,0,1-1.665-1.143l1.377-1.934a3.018,3.018,0,0,0,2.422,1.084,1.96,1.96,0,0,0,2.188-2.246V20.15a3.09,3.09,0,0,1-2.393,1.045,3.819,3.819,0,0,1-3.125-1.479,6.13,6.13,0,0,1-1.191-3.96Zm3.3.205A3.759,3.759,0,0,0,131.8,17.9a1.541,1.541,0,0,0,1.367.757,1.748,1.748,0,0,0,1.553-.713V13.5a1.7,1.7,0,0,0-1.533-.723,1.551,1.551,0,0,0-1.377.786A4.287,4.287,0,0,0,131.315,15.844ZM145.856,21a3.716,3.716,0,0,1-.312-.947A3.06,3.06,0,0,1,143,21.2a3.749,3.749,0,0,1-2.539-.9,2.875,2.875,0,0,1-1.045-2.271,2.955,2.955,0,0,1,1.27-2.6,6.468,6.468,0,0,1,3.691-.879H145.4v-.559q0-1.462-1.26-1.462a1.03,1.03,0,0,0-1.172,1.158h-3.291a2.95,2.95,0,0,1,1.3-2.487,5.479,5.479,0,0,1,3.325-.956,4.8,4.8,0,0,1,3.193.986,3.429,3.429,0,0,1,1.2,2.705v4.678a4.79,4.79,0,0,0,.449,2.227V21ZM143.8,18.852a1.836,1.836,0,0,0,1.021-.264,1.653,1.653,0,0,0,.581-.6V16.3h-.957q-1.719,0-1.719,1.543a.942.942,0,0,0,.3.728A1.1,1.1,0,0,0,143.8,18.852Zm6.309-3.213a6.455,6.455,0,0,1,1.084-3.955,3.568,3.568,0,0,1,3.027-1.445,3.035,3.035,0,0,1,2.383,1.113V6h3.3V21H156.94l-.166-1.133A3.116,3.116,0,0,1,154.2,21.2a3.562,3.562,0,0,1-2.988-1.445A6.659,6.659,0,0,1,150.1,15.639Zm3.291.205q0,2.813,1.641,2.813a1.62,1.62,0,0,0,1.563-.918V13.715a1.576,1.576,0,0,0-1.543-.937q-1.523,0-1.65,2.461Zm7.959-.225a6.236,6.236,0,0,1,.615-2.817,4.4,4.4,0,0,1,1.768-1.9,5.323,5.323,0,0,1,2.705-.664,4.858,4.858,0,0,1,3.74,1.47,5.64,5.64,0,0,1,1.367,4v.117a5.472,5.472,0,0,1-1.372,3.921,4.871,4.871,0,0,1-3.716,1.45,4.927,4.927,0,0,1-3.623-1.353,5.29,5.29,0,0,1-1.475-3.667Zm3.291.205a3.932,3.932,0,0,0,.459,2.148,1.529,1.529,0,0,0,1.357.684q1.758,0,1.8-2.705v-.332q0-2.842-1.816-2.842-1.65,0-1.787,2.451Zm13.887,2.207a.76.76,0,0,0-.439-.674,6.684,6.684,0,0,0-1.67-.527,7.615,7.615,0,0,1-2.031-.718,3.4,3.4,0,0,1-1.221-1.079,2.577,2.577,0,0,1-.42-1.455,2.92,2.92,0,0,1,1.2-2.4,4.948,4.948,0,0,1,3.145-.942,5.482,5.482,0,0,1,3.359.947,2.962,2.962,0,0,1,1.27,2.49h-3.3q0-1.27-1.338-1.27a1.326,1.326,0,0,0-.869.288.892.892,0,0,0-.352.718.819.819,0,0,0,.43.713,4.06,4.06,0,0,0,1.372.449,11.857,11.857,0,0,1,1.655.42,3.007,3.007,0,0,1,2.383,2.939,2.767,2.767,0,0,1-1.284,2.354,5.632,5.632,0,0,1-3.325.908,5.747,5.747,0,0,1-2.422-.488,4.05,4.05,0,0,1-1.66-1.328,3.007,3.007,0,0,1-.6-1.768H175.5a1.272,1.272,0,0,0,.488,1.069,2.009,2.009,0,0,0,1.2.337,1.58,1.58,0,0,0,1.011-.273A.875.875,0,0,0,178.532,18.031ZM194.177,21a3.716,3.716,0,0,1-.312-.947,3.06,3.06,0,0,1-2.539,1.143,3.749,3.749,0,0,1-2.539-.9,2.875,2.875,0,0,1-1.045-2.271,2.955,2.955,0,0,1,1.27-2.6,6.468,6.468,0,0,1,3.691-.879h1.016v-.559q0-1.462-1.26-1.462a1.03,1.03,0,0,0-1.172,1.158H188a2.95,2.95,0,0,1,1.3-2.487,5.479,5.479,0,0,1,3.325-.956,4.8,4.8,0,0,1,3.193.986,3.429,3.429,0,0,1,1.2,2.705v4.678a4.79,4.79,0,0,0,.449,2.227V21Zm-2.061-2.148a1.836,1.836,0,0,0,1.021-.264,1.653,1.653,0,0,0,.581-.6V16.3h-.957q-1.719,0-1.719,1.543a.942.942,0,0,0,.3.728A1.1,1.1,0,0,0,192.116,18.852ZM16.091,46.857A3.393,3.393,0,0,1,13.269,48.2a3.328,3.328,0,0,1-2.632-1.011,4.251,4.251,0,0,1-.894-2.905V37.434h3.291V44.3a1.183,1.183,0,0,0,1.318,1.357,1.72,1.72,0,0,0,1.611-.811V37.434h3.311V48H16.188ZM24.1,37.434l.107,1.24a3.583,3.583,0,0,1,3.018-1.436,3.015,3.015,0,0,1,2.466.986,4.7,4.7,0,0,1,.845,2.969V48h-3.3V41.33a1.783,1.783,0,0,0-.322-1.177,1.491,1.491,0,0,0-1.172-.376,1.569,1.569,0,0,0-1.436.762V48H21.013V37.434ZM38.308,48A3.716,3.716,0,0,1,38,47.053,3.06,3.06,0,0,1,35.456,48.2a3.749,3.749,0,0,1-2.539-.9,2.875,2.875,0,0,1-1.045-2.271,2.955,2.955,0,0,1,1.27-2.6,6.468,6.468,0,0,1,3.691-.879h1.016v-.559q0-1.462-1.26-1.462a1.03,1.03,0,0,0-1.172,1.158H32.126a2.95,2.95,0,0,1,1.3-2.487,5.479,5.479,0,0,1,3.325-.956,4.8,4.8,0,0,1,3.193.986,3.429,3.429,0,0,1,1.2,2.705v4.678a4.79,4.79,0,0,0,.449,2.227V48Zm-2.061-2.148a1.836,1.836,0,0,0,1.021-.264,1.653,1.653,0,0,0,.581-.6V43.3h-.957q-1.719,0-1.719,1.543a.942.942,0,0,0,.3.728A1.1,1.1,0,0,0,36.247,45.852ZM51.423,48h-3.3V33h3.3Zm5.615,0H53.728V37.434h3.311Zm-1.23-14.8h3.477l-2.715,3.066-2.686,0Zm6.367,4.238.107,1.24A3.583,3.583,0,0,1,65.3,37.238a3.015,3.015,0,0,1,2.466.986,4.7,4.7,0,0,1,.845,2.969V48h-3.3V41.33a1.783,1.783,0,0,0-.322-1.177,1.491,1.491,0,0,0-1.172-.376,1.569,1.569,0,0,0-1.436.762V48H59.089V37.434ZM75.544,48.2a5.432,5.432,0,0,1-3.936-1.45,5.008,5.008,0,0,1-1.5-3.774V42.7a6.489,6.489,0,0,1,.6-2.861,4.395,4.395,0,0,1,1.753-1.919,5.292,5.292,0,0,1,2.734-.679,4.574,4.574,0,0,1,3.516,1.382A5.43,5.43,0,0,1,80,42.473v1.279H73.454a2.372,2.372,0,0,0,.771,1.4,2.3,2.3,0,0,0,1.543.508,2.958,2.958,0,0,0,2.441-1.094l1.5,1.777a4.2,4.2,0,0,1-1.743,1.353A5.891,5.891,0,0,1,75.544,48.2Zm-.371-8.418q-1.445,0-1.719,1.914h3.32v-.254a1.63,1.63,0,0,0-.4-1.226A1.593,1.593,0,0,0,75.173,39.777ZM87.272,48a3.716,3.716,0,0,1-.312-.947A3.06,3.06,0,0,1,84.421,48.2a3.749,3.749,0,0,1-2.539-.9,2.875,2.875,0,0,1-1.045-2.271,2.955,2.955,0,0,1,1.27-2.6,6.468,6.468,0,0,1,3.691-.879h1.016v-.559q0-1.462-1.26-1.462a1.03,1.03,0,0,0-1.172,1.158H81.091a2.95,2.95,0,0,1,1.3-2.487,5.479,5.479,0,0,1,3.325-.956,4.8,4.8,0,0,1,3.193.986,3.429,3.429,0,0,1,1.2,2.705v4.678a4.79,4.79,0,0,0,.449,2.227V48Zm-2.061-2.148a1.836,1.836,0,0,0,1.021-.264,1.653,1.653,0,0,0,.581-.6V43.3h-.957q-1.719,0-1.719,1.543a.942.942,0,0,0,.3.728A1.1,1.1,0,0,0,85.212,45.852ZM96.5,42.639a6.455,6.455,0,0,1,1.084-3.955,3.568,3.568,0,0,1,3.027-1.445A3.035,3.035,0,0,1,103,38.352V33h3.3V48h-2.959l-.166-1.133a3.116,3.116,0,0,1-2.578,1.328A3.562,3.562,0,0,1,97.6,46.75,6.659,6.659,0,0,1,96.5,42.639Zm3.291.205q0,2.813,1.641,2.813A1.62,1.62,0,0,0,103,44.738V40.715a1.576,1.576,0,0,0-1.543-.937q-1.523,0-1.65,2.461ZM113.278,48.2a5.432,5.432,0,0,1-3.936-1.45,5.008,5.008,0,0,1-1.5-3.774V42.7a6.489,6.489,0,0,1,.6-2.861,4.395,4.395,0,0,1,1.753-1.919,5.292,5.292,0,0,1,2.734-.679,4.574,4.574,0,0,1,3.516,1.382,5.43,5.43,0,0,1,1.289,3.853v1.279h-6.543a2.372,2.372,0,0,0,.771,1.4,2.3,2.3,0,0,0,1.543.508,2.958,2.958,0,0,0,2.441-1.094l1.5,1.777a4.2,4.2,0,0,1-1.743,1.353A5.891,5.891,0,0,1,113.278,48.2Zm-.371-8.418q-1.445,0-1.719,1.914h3.32v-.254a1.63,1.63,0,0,0-.4-1.226A1.593,1.593,0,0,0,112.907,39.777Zm14.961-4.971v2.627h1.738v2.285h-1.738v4.834a1.234,1.234,0,0,0,.215.83,1.152,1.152,0,0,0,.85.234,4.828,4.828,0,0,0,.82-.059v2.354a6.074,6.074,0,0,1-1.855.283,3.448,3.448,0,0,1-2.51-.8,3.282,3.282,0,0,1-.811-2.432V39.719h-1.348V37.434h1.348V34.807ZM134.372,48h-3.3V37.434h3.3Zm-3.5-13.291a1.469,1.469,0,0,1,.508-1.152,2.159,2.159,0,0,1,2.637,0,1.561,1.561,0,0,1,0,2.3,2.159,2.159,0,0,1-2.637,0A1.469,1.469,0,0,1,130.876,34.709ZM141.511,48.2a5.432,5.432,0,0,1-3.936-1.45,5.008,5.008,0,0,1-1.5-3.774V42.7a6.489,6.489,0,0,1,.6-2.861,4.395,4.395,0,0,1,1.753-1.919,5.292,5.292,0,0,1,2.734-.679,4.574,4.574,0,0,1,3.516,1.382,5.43,5.43,0,0,1,1.289,3.853v1.279h-6.543a2.372,2.372,0,0,0,.771,1.4,2.3,2.3,0,0,0,1.543.508,2.958,2.958,0,0,0,2.441-1.094l1.5,1.777a4.2,4.2,0,0,1-1.743,1.353A5.891,5.891,0,0,1,141.511,48.2Zm-.371-8.418q-1.445,0-1.719,1.914h3.32v-.254a1.63,1.63,0,0,0-.4-1.226A1.593,1.593,0,0,0,141.14,39.777Zm9.258-2.344.107,1.24a3.633,3.633,0,0,1,3.018-1.436,2.675,2.675,0,0,1,2.705,1.592,3.516,3.516,0,0,1,3.105-1.592q3.213,0,3.3,3.887V48h-3.3V41.33a2.014,2.014,0,0,0-.273-1.182,1.164,1.164,0,0,0-1-.371,1.559,1.559,0,0,0-1.455.869l.01.137V48h-3.3V41.35a2.117,2.117,0,0,0-.264-1.2,1.161,1.161,0,0,0-1.006-.371,1.578,1.578,0,0,0-1.445.869V48h-3.291V37.434Zm23.926,5.361a6.372,6.372,0,0,1-1.108,3.931,3.554,3.554,0,0,1-2.993,1.47,3.046,3.046,0,0,1-2.393-1.064v4.932h-3.291V37.434h3.076l.1.977a3.046,3.046,0,0,1,2.49-1.172,3.582,3.582,0,0,1,3.037,1.44,6.45,6.45,0,0,1,1.084,3.96Zm-3.291-.205q0-2.812-1.641-2.812a1.549,1.549,0,0,0-1.562.84v4.16a1.6,1.6,0,0,0,1.582.879q1.572,0,1.621-2.715Zm4.326.029a6.236,6.236,0,0,1,.615-2.817,4.4,4.4,0,0,1,1.768-1.9,5.323,5.323,0,0,1,2.705-.664,4.858,4.858,0,0,1,3.74,1.47,5.64,5.64,0,0,1,1.367,4v.117a5.472,5.472,0,0,1-1.372,3.921,4.871,4.871,0,0,1-3.716,1.45,4.927,4.927,0,0,1-3.623-1.353,5.29,5.29,0,0,1-1.475-3.667Zm3.291.205a3.932,3.932,0,0,0,.459,2.148,1.529,1.529,0,0,0,1.357.684q1.758,0,1.8-2.705v-.332q0-2.842-1.816-2.842-1.65,0-1.787,2.451Zm10.391,1.982a1.874,1.874,0,0,1,1.3.464,1.619,1.619,0,0,1,0,2.373,2.049,2.049,0,0,1-2.6,0,1.618,1.618,0,0,1,0-2.363A1.858,1.858,0,0,1,189.04,44.807Z" transform="translate(-9900 -4902)" fill="#12263f"/>
    <path id="Trazado_148154" data-name="Trazado 148154" d="M42.5,0A42.5,42.5,0,1,1,0,42.5,42.5,42.5,0,0,1,42.5,0Z" transform="translate(-9833 -5009)" fill="#00bcd4"/>
    <path id="Trazado_148165" data-name="Trazado 148165" d="M33.105,21V6.781h4.58a6.737,6.737,0,0,1,3.389.854,6.006,6.006,0,0,1,2.349,2.412,7.283,7.283,0,0,1,.854,3.491v.654a7.325,7.325,0,0,1-.825,3.5,6.032,6.032,0,0,1-2.324,2.422A6.589,6.589,0,0,1,37.783,21ZM36.533,9.428v8.936h1.191a2.666,2.666,0,0,0,2.266-1.05,5.145,5.145,0,0,0,.791-3.12v-.615a5.1,5.1,0,0,0-.791-3.105,2.713,2.713,0,0,0-2.3-1.045ZM51,21.2a5.432,5.432,0,0,1-3.936-1.45,5.008,5.008,0,0,1-1.5-3.774V15.7a6.489,6.489,0,0,1,.6-2.861,4.395,4.395,0,0,1,1.753-1.919,5.292,5.292,0,0,1,2.734-.679A4.574,4.574,0,0,1,54.16,11.62a5.43,5.43,0,0,1,1.289,3.853v1.279H48.906a2.372,2.372,0,0,0,.771,1.4,2.3,2.3,0,0,0,1.543.508,2.958,2.958,0,0,0,2.441-1.094l1.5,1.777a4.2,4.2,0,0,1-1.743,1.353A5.891,5.891,0,0,1,51,21.2Zm-.371-8.418q-1.445,0-1.719,1.914h3.32v-.254a1.63,1.63,0,0,0-.4-1.226A1.593,1.593,0,0,0,50.625,12.777ZM66.582,15.8A6.44,6.44,0,0,1,65.508,19.8a3.6,3.6,0,0,1-3.027,1.4,3.122,3.122,0,0,1-2.6-1.279L59.746,21H56.8V6h3.291v5.283a3.013,3.013,0,0,1,2.373-1.045,3.6,3.6,0,0,1,3.047,1.416,6.473,6.473,0,0,1,1.074,3.984Zm-3.3-.21a4.3,4.3,0,0,0-.405-2.169,1.366,1.366,0,0,0-1.245-.648,1.576,1.576,0,0,0-1.543.848v4.192a1.585,1.585,0,0,0,1.563.838,1.4,1.4,0,0,0,1.475-1.131A8.121,8.121,0,0,0,63.281,15.595Zm9.863,5.6a5.432,5.432,0,0,1-3.936-1.45,5.008,5.008,0,0,1-1.5-3.774V15.7a6.489,6.489,0,0,1,.6-2.861,4.395,4.395,0,0,1,1.753-1.919,5.292,5.292,0,0,1,2.734-.679,4.574,4.574,0,0,1,3.516,1.382A5.43,5.43,0,0,1,77.6,15.473v1.279H71.055a2.372,2.372,0,0,0,.771,1.4,2.3,2.3,0,0,0,1.543.508,2.958,2.958,0,0,0,2.441-1.094l1.5,1.777a4.2,4.2,0,0,1-1.743,1.353A5.891,5.891,0,0,1,73.145,21.2Zm-.371-8.418q-1.445,0-1.719,1.914h3.32v-.254a1.63,1.63,0,0,0-.4-1.226A1.593,1.593,0,0,0,72.773,12.777Zm9.17-2.344.107,1.24a3.583,3.583,0,0,1,3.018-1.436,3.015,3.015,0,0,1,2.466.986,4.7,4.7,0,0,1,.845,2.969V21h-3.3V14.33a1.783,1.783,0,0,0-.322-1.177,1.491,1.491,0,0,0-1.172-.376,1.569,1.569,0,0,0-1.436.762V21H78.857V10.434Zm18.77,7.6a.76.76,0,0,0-.439-.674,6.684,6.684,0,0,0-1.67-.527,7.615,7.615,0,0,1-2.031-.718,3.4,3.4,0,0,1-1.221-1.079,2.577,2.577,0,0,1-.42-1.455,2.92,2.92,0,0,1,1.2-2.4,4.948,4.948,0,0,1,3.145-.942,5.482,5.482,0,0,1,3.359.947,2.962,2.962,0,0,1,1.27,2.49h-3.3q0-1.27-1.338-1.27a1.326,1.326,0,0,0-.869.288.892.892,0,0,0-.352.718.819.819,0,0,0,.43.713,4.06,4.06,0,0,0,1.372.449,11.857,11.857,0,0,1,1.655.42,3.007,3.007,0,0,1,2.383,2.939,2.767,2.767,0,0,1-1.284,2.354,5.631,5.631,0,0,1-3.325.908,5.747,5.747,0,0,1-2.422-.488,4.05,4.05,0,0,1-1.66-1.328,3.007,3.007,0,0,1-.6-1.768h3.076a1.272,1.272,0,0,0,.488,1.069,2.009,2.009,0,0,0,1.2.337,1.58,1.58,0,0,0,1.011-.273A.875.875,0,0,0,100.713,18.031Zm9.824,3.164a5.432,5.432,0,0,1-3.936-1.45,5.008,5.008,0,0,1-1.5-3.774V15.7a6.489,6.489,0,0,1,.6-2.861,4.395,4.395,0,0,1,1.753-1.919,5.292,5.292,0,0,1,2.734-.679A4.574,4.574,0,0,1,113.7,11.62a5.43,5.43,0,0,1,1.289,3.853v1.279h-6.543a2.372,2.372,0,0,0,.771,1.4,2.3,2.3,0,0,0,1.543.508,2.958,2.958,0,0,0,2.441-1.094l1.5,1.777a4.2,4.2,0,0,1-1.743,1.353A5.891,5.891,0,0,1,110.537,21.2Zm-.371-8.418q-1.445,0-1.719,1.914h3.32v-.254a1.63,1.63,0,0,0-.4-1.226A1.593,1.593,0,0,0,110.166,12.777Zm12.539.635-1.084-.078a1.947,1.947,0,0,0-1.992.977V21h-3.291V10.434h3.086l.107,1.357a2.548,2.548,0,0,1,2.314-1.553,3.209,3.209,0,0,1,.918.117ZM40.156,37.434l.107,1.24a3.633,3.633,0,0,1,3.018-1.436,2.675,2.675,0,0,1,2.705,1.592,3.516,3.516,0,0,1,3.105-1.592q3.213,0,3.3,3.887V48h-3.3V41.33a2.014,2.014,0,0,0-.273-1.182,1.164,1.164,0,0,0-1-.371,1.559,1.559,0,0,0-1.455.869l.01.137V48h-3.3V41.35a2.117,2.117,0,0,0-.264-1.2,1.161,1.161,0,0,0-1.006-.371,1.578,1.578,0,0,0-1.445.869V48H37.07V37.434ZM59.385,48.2a5.432,5.432,0,0,1-3.936-1.45,5.008,5.008,0,0,1-1.5-3.774V42.7a6.489,6.489,0,0,1,.6-2.861A4.395,4.395,0,0,1,56.3,37.917a5.292,5.292,0,0,1,2.734-.679,4.574,4.574,0,0,1,3.516,1.382,5.43,5.43,0,0,1,1.289,3.853v1.279H57.295a2.372,2.372,0,0,0,.771,1.4,2.3,2.3,0,0,0,1.543.508,2.958,2.958,0,0,0,2.441-1.094l1.5,1.777a4.2,4.2,0,0,1-1.743,1.353A5.891,5.891,0,0,1,59.385,48.2Zm-.371-8.418q-1.445,0-1.719,1.914h3.32v-.254a1.63,1.63,0,0,0-.4-1.226A1.593,1.593,0,0,0,59.014,39.777Zm5.732,2.861a6.455,6.455,0,0,1,1.084-3.955,3.568,3.568,0,0,1,3.027-1.445,3.035,3.035,0,0,1,2.383,1.113V33h3.3V48H71.582l-.166-1.133A3.116,3.116,0,0,1,68.838,48.2,3.562,3.562,0,0,1,65.85,46.75,6.659,6.659,0,0,1,64.746,42.639Zm3.291.205q0,2.813,1.641,2.813a1.62,1.62,0,0,0,1.563-.918V40.715a1.576,1.576,0,0,0-1.543-.937q-1.523,0-1.65,2.461ZM79.883,48h-3.3V37.434h3.3Zm-3.5-13.291a1.469,1.469,0,0,1,.508-1.152,2.159,2.159,0,0,1,2.637,0,1.561,1.561,0,0,1,0,2.3,2.159,2.159,0,0,1-2.637,0A1.469,1.469,0,0,1,76.387,34.709Zm15.332,8.1A6.44,6.44,0,0,1,90.645,46.8a3.6,3.6,0,0,1-3.027,1.4,3.122,3.122,0,0,1-2.6-1.279L84.883,48H81.934V33h3.291v5.283A3.013,3.013,0,0,1,87.6,37.238a3.6,3.6,0,0,1,3.047,1.416,6.473,6.473,0,0,1,1.074,3.984Zm-3.3-.21a4.3,4.3,0,0,0-.405-2.169,1.366,1.366,0,0,0-1.245-.648,1.576,1.576,0,0,0-1.543.848v4.192a1.585,1.585,0,0,0,1.563.838,1.4,1.4,0,0,0,1.475-1.131A8.121,8.121,0,0,0,88.418,42.595ZM96.641,48h-3.3V33h3.3Zm7.139.2a5.432,5.432,0,0,1-3.936-1.45,5.008,5.008,0,0,1-1.5-3.774V42.7a6.489,6.489,0,0,1,.6-2.861,4.395,4.395,0,0,1,1.753-1.919,5.292,5.292,0,0,1,2.734-.679,4.574,4.574,0,0,1,3.516,1.382,5.43,5.43,0,0,1,1.289,3.853v1.279h-6.543a2.372,2.372,0,0,0,.771,1.4,2.3,2.3,0,0,0,1.543.508,2.958,2.958,0,0,0,2.441-1.094l1.5,1.777a4.2,4.2,0,0,1-1.743,1.353A5.891,5.891,0,0,1,103.779,48.2Zm-.371-8.418q-1.445,0-1.719,1.914h3.32v-.254a1.63,1.63,0,0,0-.4-1.226A1.593,1.593,0,0,0,103.408,39.777Zm11.68,5.254a.76.76,0,0,0-.439-.674,6.685,6.685,0,0,0-1.67-.527,7.615,7.615,0,0,1-2.031-.718,3.4,3.4,0,0,1-1.221-1.079,2.577,2.577,0,0,1-.42-1.455,2.92,2.92,0,0,1,1.2-2.4,4.948,4.948,0,0,1,3.145-.942,5.482,5.482,0,0,1,3.359.947,2.962,2.962,0,0,1,1.27,2.49h-3.3q0-1.27-1.338-1.27a1.326,1.326,0,0,0-.869.288.892.892,0,0,0-.352.718.819.819,0,0,0,.43.713,4.06,4.06,0,0,0,1.372.449,11.856,11.856,0,0,1,1.655.42,3.007,3.007,0,0,1,2.383,2.939,2.767,2.767,0,0,1-1.284,2.354,5.631,5.631,0,0,1-3.325.908,5.747,5.747,0,0,1-2.422-.488,4.05,4.05,0,0,1-1.66-1.328,3.007,3.007,0,0,1-.6-1.768h3.076a1.272,1.272,0,0,0,.488,1.069,2.009,2.009,0,0,0,1.2.337,1.58,1.58,0,0,0,1.011-.273A.875.875,0,0,0,115.088,45.031Z" transform="translate(-9343 -5226)" fill="#12263f"/>
    <path id="Trazado_148166" data-name="Trazado 148166" d="M42.5,0A42.5,42.5,0,1,1,0,42.5,42.5,42.5,0,0,1,42.5,0Z" transform="translate(-9308 -5327)" fill="#00bcd4"/>
    <path id="Trazado_148161" data-name="Trazado 148161" d="M21.369,21V6.781h4.58a6.737,6.737,0,0,1,3.389.854,6.006,6.006,0,0,1,2.349,2.412,7.283,7.283,0,0,1,.854,3.491v.654a7.325,7.325,0,0,1-.825,3.5,6.032,6.032,0,0,1-2.324,2.422A6.589,6.589,0,0,1,26.047,21ZM24.8,9.428v8.936h1.191a2.666,2.666,0,0,0,2.266-1.05,5.145,5.145,0,0,0,.791-3.12v-.615a5.1,5.1,0,0,0-.791-3.105,2.713,2.713,0,0,0-2.3-1.045ZM39.26,21.2a5.432,5.432,0,0,1-3.936-1.45,5.008,5.008,0,0,1-1.5-3.774V15.7a6.489,6.489,0,0,1,.6-2.861,4.395,4.395,0,0,1,1.753-1.919,5.292,5.292,0,0,1,2.734-.679,4.574,4.574,0,0,1,3.516,1.382,5.43,5.43,0,0,1,1.289,3.853v1.279H37.17a2.372,2.372,0,0,0,.771,1.4,2.3,2.3,0,0,0,1.543.508,2.958,2.958,0,0,0,2.441-1.094l1.5,1.777a4.2,4.2,0,0,1-1.743,1.353A5.891,5.891,0,0,1,39.26,21.2Zm-.371-8.418q-1.445,0-1.719,1.914h3.32v-.254a1.63,1.63,0,0,0-.4-1.226A1.593,1.593,0,0,0,38.889,12.777ZM54.846,15.8A6.44,6.44,0,0,1,53.771,19.8a3.6,3.6,0,0,1-3.027,1.4,3.122,3.122,0,0,1-2.6-1.279L48.01,21H45.061V6h3.291v5.283a3.013,3.013,0,0,1,2.373-1.045,3.6,3.6,0,0,1,3.047,1.416,6.473,6.473,0,0,1,1.074,3.984Zm-3.3-.21a4.3,4.3,0,0,0-.405-2.169,1.366,1.366,0,0,0-1.245-.648,1.576,1.576,0,0,0-1.543.848v4.192a1.585,1.585,0,0,0,1.563.838,1.4,1.4,0,0,0,1.475-1.131A8.121,8.121,0,0,0,51.545,15.595Zm9.863,5.6a5.432,5.432,0,0,1-3.936-1.45,5.008,5.008,0,0,1-1.5-3.774V15.7a6.489,6.489,0,0,1,.6-2.861,4.395,4.395,0,0,1,1.753-1.919,5.292,5.292,0,0,1,2.734-.679,4.574,4.574,0,0,1,3.516,1.382,5.43,5.43,0,0,1,1.289,3.853v1.279H59.318a2.372,2.372,0,0,0,.771,1.4,2.3,2.3,0,0,0,1.543.508,2.958,2.958,0,0,0,2.441-1.094l1.5,1.777a4.2,4.2,0,0,1-1.743,1.353A5.891,5.891,0,0,1,61.408,21.2Zm-.371-8.418q-1.445,0-1.719,1.914h3.32v-.254a1.63,1.63,0,0,0-.4-1.226A1.593,1.593,0,0,0,61.037,12.777Zm9.17-2.344.107,1.24a3.583,3.583,0,0,1,3.018-1.436,3.015,3.015,0,0,1,2.466.986,4.7,4.7,0,0,1,.845,2.969V21h-3.3V14.33a1.783,1.783,0,0,0-.322-1.177,1.491,1.491,0,0,0-1.172-.376,1.569,1.569,0,0,0-1.436.762V21H67.121V10.434Zm12.822,5.205a6.455,6.455,0,0,1,1.084-3.955,3.568,3.568,0,0,1,3.027-1.445,3.035,3.035,0,0,1,2.383,1.113V6h3.3V21H89.865L89.7,19.867A3.116,3.116,0,0,1,87.121,21.2a3.562,3.562,0,0,1-2.988-1.445A6.659,6.659,0,0,1,83.029,15.639Zm3.291.205q0,2.813,1.641,2.813a1.62,1.62,0,0,0,1.563-.918V13.715a1.576,1.576,0,0,0-1.543-.937q-1.523,0-1.65,2.461ZM99.807,21.2a5.432,5.432,0,0,1-3.936-1.45,5.008,5.008,0,0,1-1.5-3.774V15.7a6.489,6.489,0,0,1,.6-2.861,4.395,4.395,0,0,1,1.753-1.919,5.292,5.292,0,0,1,2.734-.679,4.574,4.574,0,0,1,3.516,1.382,5.43,5.43,0,0,1,1.289,3.853v1.279H97.717a2.372,2.372,0,0,0,.771,1.4,2.3,2.3,0,0,0,1.543.508,2.958,2.958,0,0,0,2.441-1.094l1.5,1.777a4.2,4.2,0,0,1-1.743,1.353A5.891,5.891,0,0,1,99.807,21.2Zm-.371-8.418q-1.445,0-1.719,1.914h3.32v-.254a1.63,1.63,0,0,0-.4-1.226A1.593,1.593,0,0,0,99.436,12.777Zm12.539.635-1.084-.078a1.947,1.947,0,0,0-1.992.977V21h-3.291V10.434h3.086l.107,1.357a2.548,2.548,0,0,1,2.314-1.553,3.209,3.209,0,0,1,.918.117ZM116.633,21h-3.3V10.434h3.3Zm-3.5-13.291a1.469,1.469,0,0,1,.508-1.152,2.159,2.159,0,0,1,2.637,0,1.469,1.469,0,0,1,.508,1.152,1.469,1.469,0,0,1-.508,1.152,2.159,2.159,0,0,1-2.637,0A1.469,1.469,0,0,1,113.137,7.709Zm9.736,9.375,1.67-6.65h3.467L124.563,21H121.2l-3.447-10.566h3.477ZM134.8,21a3.716,3.716,0,0,1-.312-.947,3.06,3.06,0,0,1-2.539,1.143,3.749,3.749,0,0,1-2.539-.9,2.875,2.875,0,0,1-1.045-2.271,2.955,2.955,0,0,1,1.27-2.6,6.468,6.468,0,0,1,3.691-.879h1.016v-.559q0-1.462-1.26-1.462a1.03,1.03,0,0,0-1.172,1.158h-3.291a2.95,2.95,0,0,1,1.3-2.487,5.479,5.479,0,0,1,3.325-.956,4.8,4.8,0,0,1,3.193.986,3.429,3.429,0,0,1,1.2,2.705v4.678a4.79,4.79,0,0,0,.449,2.227V21Zm-2.061-2.148a1.836,1.836,0,0,0,1.021-.264,1.653,1.653,0,0,0,.581-.6V16.3h-.957q-1.719,0-1.719,1.543a.942.942,0,0,0,.3.728A1.1,1.1,0,0,0,132.736,18.852Zm13.115-5.439-1.084-.078a1.947,1.947,0,0,0-1.992.977V21h-3.291V10.434h3.086l.107,1.357a2.548,2.548,0,0,1,2.314-1.553,3.209,3.209,0,0,1,.918.117Zm6.719,4.619a.76.76,0,0,0-.439-.674,6.684,6.684,0,0,0-1.67-.527,7.615,7.615,0,0,1-2.031-.718,3.4,3.4,0,0,1-1.221-1.079,2.577,2.577,0,0,1-.42-1.455,2.92,2.92,0,0,1,1.2-2.4,4.948,4.948,0,0,1,3.145-.942,5.482,5.482,0,0,1,3.359.947,2.962,2.962,0,0,1,1.27,2.49h-3.3q0-1.27-1.338-1.27a1.326,1.326,0,0,0-.869.288.892.892,0,0,0-.352.718.819.819,0,0,0,.43.713,4.06,4.06,0,0,0,1.372.449,11.857,11.857,0,0,1,1.655.42,3.007,3.007,0,0,1,2.383,2.939,2.767,2.767,0,0,1-1.284,2.354,5.632,5.632,0,0,1-3.325.908,5.747,5.747,0,0,1-2.422-.488,4.05,4.05,0,0,1-1.66-1.328,3.007,3.007,0,0,1-.6-1.768h3.076a1.272,1.272,0,0,0,.488,1.069,2.009,2.009,0,0,0,1.2.337,1.58,1.58,0,0,0,1.011-.273A.875.875,0,0,0,152.57,18.031Zm9.824,3.164a5.432,5.432,0,0,1-3.936-1.45,5.008,5.008,0,0,1-1.5-3.774V15.7a6.489,6.489,0,0,1,.6-2.861,4.395,4.395,0,0,1,1.753-1.919,5.292,5.292,0,0,1,2.734-.679,4.574,4.574,0,0,1,3.516,1.382,5.43,5.43,0,0,1,1.289,3.853v1.279H160.3a2.372,2.372,0,0,0,.771,1.4,2.3,2.3,0,0,0,1.543.508,2.958,2.958,0,0,0,2.441-1.094l1.5,1.777a4.2,4.2,0,0,1-1.743,1.353A5.891,5.891,0,0,1,162.395,21.2Zm-.371-8.418q-1.445,0-1.719,1.914h3.32v-.254a1.63,1.63,0,0,0-.4-1.226A1.593,1.593,0,0,0,162.023,12.777Zm10.713,2.861a6.455,6.455,0,0,1,1.084-3.955,3.568,3.568,0,0,1,3.027-1.445,3.035,3.035,0,0,1,2.383,1.113V6h3.3V21h-2.959l-.166-1.133a3.116,3.116,0,0,1-2.578,1.328,3.562,3.562,0,0,1-2.988-1.445A6.659,6.659,0,0,1,172.736,15.639Zm3.291.205q0,2.813,1.641,2.813a1.62,1.62,0,0,0,1.563-.918V13.715a1.576,1.576,0,0,0-1.543-.937q-1.523,0-1.65,2.461ZM189.514,21.2a5.432,5.432,0,0,1-3.936-1.45,5.008,5.008,0,0,1-1.5-3.774V15.7a6.489,6.489,0,0,1,.6-2.861,4.395,4.395,0,0,1,1.753-1.919,5.292,5.292,0,0,1,2.734-.679,4.574,4.574,0,0,1,3.516,1.382,5.43,5.43,0,0,1,1.289,3.853v1.279h-6.543a2.372,2.372,0,0,0,.771,1.4,2.3,2.3,0,0,0,1.543.508,2.958,2.958,0,0,0,2.441-1.094l1.5,1.777a4.2,4.2,0,0,1-1.743,1.353A5.891,5.891,0,0,1,189.514,21.2Zm-.371-8.418q-1.445,0-1.719,1.914h3.32v-.254a1.63,1.63,0,0,0-.4-1.226A1.593,1.593,0,0,0,189.143,12.777ZM203.742,21h-3.3V6h3.3Zm7.979,0a3.716,3.716,0,0,1-.312-.947,3.06,3.06,0,0,1-2.539,1.143,3.749,3.749,0,0,1-2.539-.9,2.875,2.875,0,0,1-1.045-2.271,2.955,2.955,0,0,1,1.27-2.6,6.468,6.468,0,0,1,3.691-.879h1.016v-.559q0-1.462-1.26-1.462a1.03,1.03,0,0,0-1.172,1.158h-3.291a2.95,2.95,0,0,1,1.3-2.487,5.479,5.479,0,0,1,3.325-.956,4.8,4.8,0,0,1,3.193.986,3.429,3.429,0,0,1,1.2,2.705v4.678a4.79,4.79,0,0,0,.449,2.227V21Zm-2.061-2.148a1.836,1.836,0,0,0,1.021-.264,1.653,1.653,0,0,0,.581-.6V16.3H210.3q-1.719,0-1.719,1.543a.942.942,0,0,0,.3.728A1.1,1.1,0,0,0,209.66,18.852Zm12.256-.82a.76.76,0,0,0-.439-.674,6.684,6.684,0,0,0-1.67-.527,7.615,7.615,0,0,1-2.031-.718,3.4,3.4,0,0,1-1.221-1.079,2.577,2.577,0,0,1-.42-1.455,2.92,2.92,0,0,1,1.2-2.4,4.948,4.948,0,0,1,3.145-.942,5.482,5.482,0,0,1,3.359.947,2.962,2.962,0,0,1,1.27,2.49h-3.3q0-1.27-1.338-1.27a1.326,1.326,0,0,0-.869.288.892.892,0,0,0-.352.718.819.819,0,0,0,.43.713,4.06,4.06,0,0,0,1.372.449,11.857,11.857,0,0,1,1.655.42,3.007,3.007,0,0,1,2.383,2.939,2.767,2.767,0,0,1-1.284,2.354,5.632,5.632,0,0,1-3.325.908,5.747,5.747,0,0,1-2.422-.488,4.05,4.05,0,0,1-1.66-1.328,3.007,3.007,0,0,1-.6-1.768h3.076a1.272,1.272,0,0,0,.488,1.069,2.009,2.009,0,0,0,1.2.337,1.58,1.58,0,0,0,1.011-.273A.875.875,0,0,0,221.916,18.031ZM10.827,48.2a5.432,5.432,0,0,1-3.936-1.45,5.008,5.008,0,0,1-1.5-3.774V42.7a6.489,6.489,0,0,1,.6-2.861,4.395,4.395,0,0,1,1.753-1.919,5.292,5.292,0,0,1,2.734-.679,4.574,4.574,0,0,1,3.516,1.382,5.43,5.43,0,0,1,1.289,3.853v1.279H8.737a2.372,2.372,0,0,0,.771,1.4,2.3,2.3,0,0,0,1.543.508,2.958,2.958,0,0,0,2.441-1.094L15,46.34a4.2,4.2,0,0,1-1.743,1.353A5.891,5.891,0,0,1,10.827,48.2Zm-.371-8.418q-1.445,0-1.719,1.914h3.32v-.254a1.63,1.63,0,0,0-.4-1.226A1.593,1.593,0,0,0,10.456,39.777Zm11.68,5.254a.76.76,0,0,0-.439-.674,6.685,6.685,0,0,0-1.67-.527A7.615,7.615,0,0,1,18,43.112a3.4,3.4,0,0,1-1.221-1.079,2.577,2.577,0,0,1-.42-1.455,2.92,2.92,0,0,1,1.2-2.4,4.948,4.948,0,0,1,3.145-.942,5.482,5.482,0,0,1,3.359.947,2.962,2.962,0,0,1,1.27,2.49h-3.3q0-1.27-1.338-1.27a1.326,1.326,0,0,0-.869.288.892.892,0,0,0-.352.718.819.819,0,0,0,.43.713,4.06,4.06,0,0,0,1.372.449,11.857,11.857,0,0,1,1.655.42,3.007,3.007,0,0,1,2.383,2.939,2.767,2.767,0,0,1-1.284,2.354A5.631,5.631,0,0,1,20.7,48.2a5.747,5.747,0,0,1-2.422-.488,4.05,4.05,0,0,1-1.66-1.328,3.007,3.007,0,0,1-.6-1.768H19.1a1.272,1.272,0,0,0,.488,1.069,2.009,2.009,0,0,0,1.2.337,1.58,1.58,0,0,0,1.011-.273A.875.875,0,0,0,22.136,45.031Zm8.545-10.225v2.627h1.738v2.285H30.681v4.834a1.234,1.234,0,0,0,.215.83,1.152,1.152,0,0,0,.85.234,4.828,4.828,0,0,0,.82-.059v2.354a6.074,6.074,0,0,1-1.855.283,3.448,3.448,0,0,1-2.51-.8,3.282,3.282,0,0,1-.811-2.432V39.719H26.042V37.434H27.39V34.807ZM40.1,40.412l-1.084-.078a1.947,1.947,0,0,0-1.992.977V48H33.737V37.434h3.086l.107,1.357a2.548,2.548,0,0,1,2.314-1.553,3.209,3.209,0,0,1,.918.117ZM46.95,48a3.716,3.716,0,0,1-.312-.947A3.06,3.06,0,0,1,44.1,48.2a3.749,3.749,0,0,1-2.539-.9,2.875,2.875,0,0,1-1.045-2.271,2.955,2.955,0,0,1,1.27-2.6,6.468,6.468,0,0,1,3.691-.879h1.016v-.559q0-1.462-1.26-1.462a1.03,1.03,0,0,0-1.172,1.158H40.769a2.95,2.95,0,0,1,1.3-2.487,5.479,5.479,0,0,1,3.325-.956,4.8,4.8,0,0,1,3.193.986,3.429,3.429,0,0,1,1.2,2.705v4.678a4.79,4.79,0,0,0,.449,2.227V48ZM44.89,45.852a1.836,1.836,0,0,0,1.021-.264,1.653,1.653,0,0,0,.581-.6V43.3h-.957q-1.719,0-1.719,1.543a.942.942,0,0,0,.3.728A1.1,1.1,0,0,0,44.89,45.852ZM55.446,34.807v2.627h1.738v2.285H55.446v4.834a1.234,1.234,0,0,0,.215.83,1.152,1.152,0,0,0,.85.234,4.828,4.828,0,0,0,.82-.059v2.354a6.074,6.074,0,0,1-1.855.283,3.448,3.448,0,0,1-2.51-.8,3.282,3.282,0,0,1-.811-2.432V39.719H50.808V37.434h1.348V34.807ZM63.591,48.2a5.432,5.432,0,0,1-3.936-1.45,5.008,5.008,0,0,1-1.5-3.774V42.7a6.489,6.489,0,0,1,.6-2.861A4.395,4.395,0,0,1,60.5,37.917a5.292,5.292,0,0,1,2.734-.679,4.574,4.574,0,0,1,3.516,1.382,5.43,5.43,0,0,1,1.289,3.853v1.279H61.5a2.372,2.372,0,0,0,.771,1.4,2.3,2.3,0,0,0,1.543.508,2.958,2.958,0,0,0,2.441-1.094l1.5,1.777a4.2,4.2,0,0,1-1.743,1.353A5.891,5.891,0,0,1,63.591,48.2Zm-.371-8.418q-1.445,0-1.719,1.914h3.32v-.254a1.63,1.63,0,0,0-.4-1.226A1.593,1.593,0,0,0,63.22,39.777Zm5.762,2.861a7.134,7.134,0,0,1,.527-2.832,4.245,4.245,0,0,1,1.514-1.9,3.99,3.99,0,0,1,2.295-.669A3.173,3.173,0,0,1,75.9,38.352l.117-.918H79V47.6a4.455,4.455,0,0,1-.649,2.427,4.167,4.167,0,0,1-1.88,1.582,6.91,6.91,0,0,1-2.852.552,5.961,5.961,0,0,1-2.251-.439A4.063,4.063,0,0,1,69.7,50.578l1.377-1.934A3.018,3.018,0,0,0,73.5,49.729a1.96,1.96,0,0,0,2.188-2.246V47.15A3.09,3.09,0,0,1,73.3,48.2a3.819,3.819,0,0,1-3.125-1.479,6.13,6.13,0,0,1-1.191-3.96Zm3.3.205a3.759,3.759,0,0,0,.488,2.056,1.541,1.541,0,0,0,1.367.757,1.748,1.748,0,0,0,1.553-.713V40.5a1.7,1.7,0,0,0-1.533-.723,1.551,1.551,0,0,0-1.377.786A4.287,4.287,0,0,0,72.282,42.844ZM84.343,48h-3.3V37.434h3.3Zm-3.5-13.291a1.469,1.469,0,0,1,.508-1.152,2.159,2.159,0,0,1,2.637,0,1.561,1.561,0,0,1,0,2.3,2.159,2.159,0,0,1-2.637,0A1.469,1.469,0,0,1,80.847,34.709ZM92.321,48a3.716,3.716,0,0,1-.312-.947A3.06,3.06,0,0,1,89.47,48.2a3.749,3.749,0,0,1-2.539-.9,2.875,2.875,0,0,1-1.045-2.271,2.955,2.955,0,0,1,1.27-2.6,6.468,6.468,0,0,1,3.691-.879h1.016v-.559q0-1.462-1.26-1.462a1.03,1.03,0,0,0-1.172,1.158H86.14a2.95,2.95,0,0,1,1.3-2.487,5.479,5.479,0,0,1,3.325-.956,4.8,4.8,0,0,1,3.193.986,3.429,3.429,0,0,1,1.2,2.705v4.678a4.79,4.79,0,0,0,.449,2.227V48Zm-2.061-2.148a1.836,1.836,0,0,0,1.021-.264,1.653,1.653,0,0,0,.581-.6V43.3h-.957q-1.719,0-1.719,1.543a.942.942,0,0,0,.3.728A1.1,1.1,0,0,0,90.261,45.852Zm12.256-.82a.76.76,0,0,0-.439-.674,6.685,6.685,0,0,0-1.67-.527,7.615,7.615,0,0,1-2.031-.718,3.4,3.4,0,0,1-1.221-1.079,2.577,2.577,0,0,1-.42-1.455,2.92,2.92,0,0,1,1.2-2.4,4.948,4.948,0,0,1,3.145-.942,5.482,5.482,0,0,1,3.359.947,2.962,2.962,0,0,1,1.27,2.49h-3.3q0-1.27-1.338-1.27a1.326,1.326,0,0,0-.869.288.892.892,0,0,0-.352.718.819.819,0,0,0,.43.713,4.06,4.06,0,0,0,1.372.449,11.856,11.856,0,0,1,1.655.42,3.007,3.007,0,0,1,2.383,2.939,2.767,2.767,0,0,1-1.284,2.354,5.631,5.631,0,0,1-3.325.908,5.747,5.747,0,0,1-2.422-.488A4.05,4.05,0,0,1,97,46.379a3.007,3.007,0,0,1-.6-1.768h3.076a1.272,1.272,0,0,0,.488,1.069,2.009,2.009,0,0,0,1.2.337,1.58,1.58,0,0,0,1.011-.273A.875.875,0,0,0,102.517,45.031Zm5.869,6.8-1.66-.781.332-.664a5.416,5.416,0,0,0,.713-2.422V45.52h2.637l-.01,2.119a5.3,5.3,0,0,1-.576,2.285A5.806,5.806,0,0,1,108.386,51.828Zm8.8-9.189a6.455,6.455,0,0,1,1.084-3.955,3.568,3.568,0,0,1,3.027-1.445,3.035,3.035,0,0,1,2.383,1.113V33h3.3V48h-2.959l-.166-1.133a3.116,3.116,0,0,1-2.578,1.328,3.562,3.562,0,0,1-2.988-1.445A6.659,6.659,0,0,1,117.185,42.639Zm3.291.205q0,2.813,1.641,2.813a1.62,1.62,0,0,0,1.563-.918V40.715a1.576,1.576,0,0,0-1.543-.937q-1.523,0-1.65,2.461ZM133.962,48.2a5.432,5.432,0,0,1-3.936-1.45,5.008,5.008,0,0,1-1.5-3.774V42.7a6.489,6.489,0,0,1,.6-2.861,4.395,4.395,0,0,1,1.753-1.919,5.292,5.292,0,0,1,2.734-.679,4.574,4.574,0,0,1,3.516,1.382,5.43,5.43,0,0,1,1.289,3.853v1.279h-6.543a2.372,2.372,0,0,0,.771,1.4,2.3,2.3,0,0,0,1.543.508,2.958,2.958,0,0,0,2.441-1.094l1.5,1.777a4.2,4.2,0,0,1-1.743,1.353A5.891,5.891,0,0,1,133.962,48.2Zm-.371-8.418q-1.445,0-1.719,1.914h3.32v-.254a1.63,1.63,0,0,0-.4-1.226A1.593,1.593,0,0,0,133.591,39.777ZM148.19,48h-3.3V33h3.3Zm7.979,0a3.716,3.716,0,0,1-.312-.947,3.06,3.06,0,0,1-2.539,1.143,3.749,3.749,0,0,1-2.539-.9,2.875,2.875,0,0,1-1.045-2.271,2.955,2.955,0,0,1,1.27-2.6,6.468,6.468,0,0,1,3.691-.879h1.016v-.559q0-1.462-1.26-1.462a1.03,1.03,0,0,0-1.172,1.158h-3.291a2.95,2.95,0,0,1,1.3-2.487,5.479,5.479,0,0,1,3.325-.956,4.8,4.8,0,0,1,3.193.986,3.429,3.429,0,0,1,1.2,2.705v4.678a4.79,4.79,0,0,0,.449,2.227V48Zm-2.061-2.148a1.836,1.836,0,0,0,1.021-.264,1.652,1.652,0,0,0,.581-.6V43.3h-.957q-1.719,0-1.719,1.543a.942.942,0,0,0,.3.728A1.1,1.1,0,0,0,154.108,45.852Zm14.814-8.418.107,1.24a3.633,3.633,0,0,1,3.018-1.436,2.675,2.675,0,0,1,2.705,1.592,3.516,3.516,0,0,1,3.105-1.592q3.213,0,3.3,3.887V48h-3.3V41.33a2.014,2.014,0,0,0-.273-1.182,1.164,1.164,0,0,0-1-.371,1.559,1.559,0,0,0-1.455.869l.01.137V48h-3.3V41.35a2.117,2.117,0,0,0-.264-1.2,1.161,1.161,0,0,0-1.006-.371,1.578,1.578,0,0,0-1.445.869V48h-3.291V37.434ZM186.511,48h-3.3V37.434h3.3Zm-3.5-13.291a1.469,1.469,0,0,1,.508-1.152,2.159,2.159,0,0,1,2.637,0,1.561,1.561,0,0,1,0,2.3,2.159,2.159,0,0,1-2.637,0A1.469,1.469,0,0,1,183.015,34.709Zm11.055,10.322a.76.76,0,0,0-.439-.674,6.685,6.685,0,0,0-1.67-.527,7.615,7.615,0,0,1-2.031-.718,3.4,3.4,0,0,1-1.221-1.079,2.577,2.577,0,0,1-.42-1.455,2.92,2.92,0,0,1,1.2-2.4,4.948,4.948,0,0,1,3.145-.942,5.482,5.482,0,0,1,3.359.947,2.962,2.962,0,0,1,1.27,2.49h-3.3q0-1.27-1.338-1.27a1.326,1.326,0,0,0-.869.288.892.892,0,0,0-.352.718.819.819,0,0,0,.43.713,4.06,4.06,0,0,0,1.372.449,11.857,11.857,0,0,1,1.655.42,3.007,3.007,0,0,1,2.383,2.939,2.767,2.767,0,0,1-1.284,2.354,5.632,5.632,0,0,1-3.325.908,5.747,5.747,0,0,1-2.422-.488,4.05,4.05,0,0,1-1.66-1.328,3.007,3.007,0,0,1-.6-1.768h3.076a1.272,1.272,0,0,0,.488,1.069,2.009,2.009,0,0,0,1.2.337,1.58,1.58,0,0,0,1.011-.273A.875.875,0,0,0,194.069,45.031ZM202.253,48h-3.3V37.434h3.3Zm-3.5-13.291a1.469,1.469,0,0,1,.508-1.152,2.159,2.159,0,0,1,2.637,0,1.561,1.561,0,0,1,0,2.3,2.159,2.159,0,0,1-2.637,0A1.469,1.469,0,0,1,198.757,34.709Zm5.107,7.91a6.236,6.236,0,0,1,.615-2.817,4.4,4.4,0,0,1,1.768-1.9,5.323,5.323,0,0,1,2.705-.664,4.858,4.858,0,0,1,3.74,1.47,5.64,5.64,0,0,1,1.367,4v.117a5.472,5.472,0,0,1-1.372,3.921,4.871,4.871,0,0,1-3.716,1.45,4.927,4.927,0,0,1-3.623-1.353,5.29,5.29,0,0,1-1.475-3.667Zm3.291.205a3.932,3.932,0,0,0,.459,2.148,1.529,1.529,0,0,0,1.357.684q1.758,0,1.8-2.705v-.332q0-2.842-1.816-2.842-1.65,0-1.787,2.451ZM209.4,33h3.477l-2.715,3.066-2.686,0Zm9.131,4.434.107,1.24a3.583,3.583,0,0,1,3.018-1.436,3.015,3.015,0,0,1,2.466.986,4.7,4.7,0,0,1,.845,2.969V48h-3.3V41.33a1.783,1.783,0,0,0-.322-1.177,1.491,1.491,0,0,0-1.172-.376,1.569,1.569,0,0,0-1.436.762V48h-3.291V37.434Zm17.461,5.957,1.758-5.957h3.525L236.97,49.768l-.186.449a3.272,3.272,0,0,1-3.242,2.051,5.158,5.158,0,0,1-1.357-.195V49.729h.43a2.251,2.251,0,0,0,1.06-.2,1.216,1.216,0,0,0,.542-.718l.264-.7-3.672-10.673h3.516ZM69.338,69.639a6.455,6.455,0,0,1,1.084-3.955,3.568,3.568,0,0,1,3.027-1.445,3.035,3.035,0,0,1,2.383,1.113V60h3.3V75H76.174l-.166-1.133A3.116,3.116,0,0,1,73.43,75.2a3.562,3.562,0,0,1-2.988-1.445A6.659,6.659,0,0,1,69.338,69.639Zm3.291.205q0,2.813,1.641,2.813a1.62,1.62,0,0,0,1.563-.918V67.715a1.576,1.576,0,0,0-1.543-.937q-1.523,0-1.65,2.461ZM86.115,75.2a5.432,5.432,0,0,1-3.936-1.45,5.008,5.008,0,0,1-1.5-3.774V69.7a6.489,6.489,0,0,1,.6-2.861,4.395,4.395,0,0,1,1.753-1.919,5.292,5.292,0,0,1,2.734-.679,4.574,4.574,0,0,1,3.516,1.382,5.43,5.43,0,0,1,1.289,3.853v1.279H84.025a2.372,2.372,0,0,0,.771,1.4,2.3,2.3,0,0,0,1.543.508,2.958,2.958,0,0,0,2.441-1.094l1.5,1.777a4.2,4.2,0,0,1-1.743,1.353A5.891,5.891,0,0,1,86.115,75.2Zm-.371-8.418q-1.445,0-1.719,1.914h3.32v-.254a1.63,1.63,0,0,0-.4-1.226A1.593,1.593,0,0,0,85.744,66.777ZM100.344,75h-3.3V60h3.3Zm7.979,0a3.716,3.716,0,0,1-.312-.947,3.06,3.06,0,0,1-2.539,1.143,3.749,3.749,0,0,1-2.539-.9,2.875,2.875,0,0,1-1.045-2.271,2.955,2.955,0,0,1,1.27-2.6,6.468,6.468,0,0,1,3.691-.879h1.016v-.559q0-1.462-1.26-1.462a1.03,1.03,0,0,0-1.172,1.158h-3.291a2.95,2.95,0,0,1,1.3-2.487,5.479,5.479,0,0,1,3.325-.956,4.8,4.8,0,0,1,3.193.986,3.429,3.429,0,0,1,1.2,2.705v4.678a4.79,4.79,0,0,0,.449,2.227V75Zm-2.061-2.148a1.836,1.836,0,0,0,1.021-.264,1.653,1.653,0,0,0,.581-.6V70.3h-.957q-1.719,0-1.719,1.543a.942.942,0,0,0,.3.728A1.1,1.1,0,0,0,106.262,72.852Zm15.918-1.768,1.67-6.65h3.467L123.869,75H120.51l-3.447-10.566h3.477ZM131.77,75h-3.3V64.434h3.3Zm-3.5-13.291a1.469,1.469,0,0,1,.508-1.152,2.159,2.159,0,0,1,2.637,0,1.561,1.561,0,0,1,0,2.3,2.159,2.159,0,0,1-2.637,0A1.469,1.469,0,0,1,128.273,61.709Zm11.055,10.322a.76.76,0,0,0-.439-.674,6.684,6.684,0,0,0-1.67-.527,7.615,7.615,0,0,1-2.031-.718,3.4,3.4,0,0,1-1.221-1.079,2.577,2.577,0,0,1-.42-1.455,2.92,2.92,0,0,1,1.2-2.4,4.948,4.948,0,0,1,3.145-.942,5.482,5.482,0,0,1,3.359.947,2.962,2.962,0,0,1,1.27,2.49h-3.3q0-1.27-1.338-1.27a1.326,1.326,0,0,0-.869.288.892.892,0,0,0-.352.718.819.819,0,0,0,.43.713,4.06,4.06,0,0,0,1.372.449,11.858,11.858,0,0,1,1.655.42,3.007,3.007,0,0,1,2.383,2.939,2.767,2.767,0,0,1-1.284,2.354,5.632,5.632,0,0,1-3.325.908,5.747,5.747,0,0,1-2.422-.488,4.05,4.05,0,0,1-1.66-1.328,3.007,3.007,0,0,1-.6-1.768h3.076a1.272,1.272,0,0,0,.488,1.069,2.009,2.009,0,0,0,1.2.337,1.58,1.58,0,0,0,1.011-.273A.875.875,0,0,0,139.328,72.031ZM147.512,75h-3.3V64.434h3.3Zm-3.5-13.291a1.469,1.469,0,0,1,.508-1.152,2.159,2.159,0,0,1,2.637,0,1.561,1.561,0,0,1,0,2.3,2.159,2.159,0,0,1-2.637,0A1.469,1.469,0,0,1,144.016,61.709Zm5.107,7.91a6.236,6.236,0,0,1,.615-2.817,4.4,4.4,0,0,1,1.768-1.9,5.323,5.323,0,0,1,2.705-.664,4.858,4.858,0,0,1,3.74,1.47,5.64,5.64,0,0,1,1.367,4v.117a5.472,5.472,0,0,1-1.372,3.921,4.871,4.871,0,0,1-3.716,1.45,4.927,4.927,0,0,1-3.623-1.353,5.29,5.29,0,0,1-1.475-3.667Zm3.291.205a3.932,3.932,0,0,0,.459,2.148,1.529,1.529,0,0,0,1.357.684q1.758,0,1.8-2.705v-.332q0-2.842-1.816-2.842-1.65,0-1.787,2.451ZM154.66,60h3.477l-2.715,3.066-2.686,0Zm9.131,4.434.107,1.24a3.583,3.583,0,0,1,3.018-1.436,3.015,3.015,0,0,1,2.466.986,4.7,4.7,0,0,1,.845,2.969V75h-3.3V68.33a1.783,1.783,0,0,0-.322-1.177,1.491,1.491,0,0,0-1.172-.376,1.569,1.569,0,0,0-1.436.762V75h-3.291V64.434Zm10.293,7.373a1.874,1.874,0,0,1,1.3.464,1.619,1.619,0,0,1,0,2.373,2.049,2.049,0,0,1-2.6,0,1.618,1.618,0,0,1,0-2.363A1.858,1.858,0,0,1,174.084,71.807Z" transform="translate(-9598.5 -4908.414)" fill="#12263f"/>
    <path id="Trazado_148162" data-name="Trazado 148162" d="M42.5,0A42.5,42.5,0,1,1,0,42.5,42.5,42.5,0,0,1,42.5,0Z" transform="translate(-9518 -5009)" fill="#00bcd4"/>
    <path id="Trazado_148150" data-name="Trazado 148150" d="M0,0H295V6H0Z" transform="translate(-10043 -5101)" fill="#00bcd4"/>
    <path id="Trazado_148157" data-name="Trazado 148157" d="M0,0H295V6H0Z" transform="translate(-9728 -5101)" fill="#00bcd4"/>
    <path id="Trazado_148167" data-name="Trazado 148167" d="M0,0H295V6H0Z" transform="translate(-9938 -4777)" fill="#00bcd4"/>
    <path id="Trazado_148164" data-name="Trazado 148164" d="M0,0H295V6H0Z" transform="translate(-9413 -5101)" fill="#00bcd4"/>
    <path id="Trazado_148168" data-name="Trazado 148168" d="M0,0H295V6H0Z" transform="translate(-9623 -4777)" fill="#00bcd4"/>
    <path id="Trazado_146010" data-name="Trazado 146010" d="M77.283,101.549H53.051a.5.5,0,0,1-.5-.5V89.924a10.69,10.69,0,0,1,3.768-8.154L60.277,78.4a1.471,1.471,0,0,0,0-2.239l-3.958-3.369a10.69,10.69,0,0,1-3.768-8.154V53.514a.5.5,0,0,1,.5-.5H77.283a.5.5,0,0,1,.5.5V64.639a10.692,10.692,0,0,1-3.767,8.154l-3.958,3.369a1.469,1.469,0,0,0,0,2.239l3.958,3.369a10.692,10.692,0,0,1,3.767,8.154v11.125A.5.5,0,0,1,77.283,101.549Zm-23.732-1H76.783V89.924a9.691,9.691,0,0,0-3.416-7.392l-3.958-3.369a2.471,2.471,0,0,1,0-3.763l3.958-3.368a9.693,9.693,0,0,0,3.416-7.393V54.014H53.551V64.639a9.693,9.693,0,0,0,3.416,7.393L60.925,75.4a2.471,2.471,0,0,1,0,3.763l-3.958,3.369a9.691,9.691,0,0,0-3.416,7.392Z" transform="translate(-9960.668 -5361.732)" fill="#fff"/>
    <path id="Trazado_146011" data-name="Trazado 146011" d="M84.845,106.793H45.49a.5.5,0,0,1-.5-.5v-3.311a2.436,2.436,0,0,1,2.432-2.433h35.49a2.436,2.436,0,0,1,2.433,2.433v3.311A.5.5,0,0,1,84.845,106.793Zm-38.855-1H84.345v-2.811a1.435,1.435,0,0,0-1.433-1.433H47.422a1.434,1.434,0,0,0-1.432,1.433Z" transform="translate(-9960.668 -5361.732)" fill="#fff"/>
    <path id="Trazado_146012" data-name="Trazado 146012" d="M82.912,53.916H47.422a2.436,2.436,0,0,1-2.432-2.433V48.172a.5.5,0,0,1,.5-.5H84.845a.5.5,0,0,1,.5.5v3.311A2.436,2.436,0,0,1,82.912,53.916ZM45.99,48.672v2.811a1.434,1.434,0,0,0,1.432,1.433h35.49a1.435,1.435,0,0,0,1.433-1.433V48.672Z" transform="translate(-9960.668 -5361.732)" fill="#fff"/>
    <path id="Trazado_146013" data-name="Trazado 146013" d="M49.484,74.833a.5.5,0,0,1-.5-.5V53.416a.5.5,0,0,1,1,0V74.333A.5.5,0,0,1,49.484,74.833Z" transform="translate(-9960.668 -5361.732)" fill="#fff"/>
    <path id="Trazado_146014" data-name="Trazado 146014" d="M49.484,101.549a.5.5,0,0,1-.5-.5V80.133a.5.5,0,0,1,1,0v20.916A.5.5,0,0,1,49.484,101.549Z" transform="translate(-9960.668 -5361.732)" fill="#fff"/>
    <path id="Trazado_146015" data-name="Trazado 146015" d="M80.85,74.833a.5.5,0,0,1-.5-.5V53.416a.5.5,0,0,1,1,0V74.333A.5.5,0,0,1,80.85,74.833Z" transform="translate(-9960.668 -5361.732)" fill="#fff"/>
    <path id="Trazado_146016" data-name="Trazado 146016" d="M80.85,101.549a.5.5,0,0,1-.5-.5V80.133a.5.5,0,0,1,1,0v20.916A.5.5,0,0,1,80.85,101.549Z" transform="translate(-9960.668 -5361.732)" fill="#fff"/>
    <path id="Trazado_146017" data-name="Trazado 146017" d="M80.85,80.633a3.4,3.4,0,1,1,3.4-3.4A3.4,3.4,0,0,1,80.85,80.633Zm0-5.8a2.4,2.4,0,1,0,2.4,2.4A2.4,2.4,0,0,0,80.85,74.833Z" transform="translate(-9960.668 -5361.732)" fill="#fff"/>
    <path id="Trazado_146018" data-name="Trazado 146018" d="M49.484,80.633a3.4,3.4,0,1,1,3.4-3.4A3.405,3.405,0,0,1,49.484,80.633Zm0-5.8a2.4,2.4,0,1,0,2.4,2.4A2.4,2.4,0,0,0,49.484,74.833Z" transform="translate(-9960.668 -5361.732)" fill="#fff"/>
    <path id="Trazado_146019" data-name="Trazado 146019" d="M65.947,77.782H64.388a.5.5,0,0,1-.5-.5,4.547,4.547,0,0,0-1.606-3.474l-3.958-3.369a7.581,7.581,0,0,1-2.394-3.73.58.58,0,0,1,.079-.457c.159-.227.581-.829,18.144-2.11a.5.5,0,0,1,.537.5,7.605,7.605,0,0,1-2.679,5.8l-3.959,3.369a4.551,4.551,0,0,0-1.605,3.474.5.5,0,0,1-.5.5Zm-1.081-1h.6A5.55,5.55,0,0,1,67.4,73.045l3.958-3.369a6.6,6.6,0,0,0,2.306-4.5c-5.895.438-14.755,1.209-16.649,1.658a6.582,6.582,0,0,0,1.953,2.839h0l3.959,3.369A5.556,5.556,0,0,1,64.866,76.782Z" transform="translate(-9960.668 -5361.732)" fill="#fff"/>
    <path id="Trazado_146020" data-name="Trazado 146020" d="M74.19,98.456H56.145a.5.5,0,0,1-.5-.5V89.808a4.915,4.915,0,0,1,3.771-4.629l5.629-1.42a.492.492,0,0,1,.25,0l5.681,1.5a4.887,4.887,0,0,1,3.714,4.623v8.072A.5.5,0,0,1,74.19,98.456Zm-17.545-1H73.69V89.924a3.9,3.9,0,0,0-2.969-3.7L65.165,84.76,59.66,86.148a3.915,3.915,0,0,0-3.015,3.674v7.634Z" transform="translate(-9960.668 -5361.732)" fill="#fff"/>
    <path id="Trazado_146021" data-name="Trazado 146021" d="M261.531,285.79H244.783a2.223,2.223,0,0,1-2.221-2.221v-1.341a2.223,2.223,0,0,1,2.221-2.22h16.748a2.223,2.223,0,0,1,2.221,2.22v1.341A2.223,2.223,0,0,1,261.531,285.79Zm-16.748-4.782a1.222,1.222,0,0,0-1.221,1.22v1.341a1.222,1.222,0,0,0,1.221,1.221h16.748a1.222,1.222,0,0,0,1.221-1.221v-1.341a1.222,1.222,0,0,0-1.221-1.22Z" transform="translate(-9835.285 -5550.817)" fill="#fff"/>
    <path id="Trazado_146022" data-name="Trazado 146022" d="M261.255,281.008h-16.2a.5.5,0,0,1-.406-.208l-1.944-2.7a73.392,73.392,0,0,0-5.053-6.436,20.869,20.869,0,0,1,14.171-34.8h0a20.692,20.692,0,0,1,15.621,5.619,20.87,20.87,0,0,1,1.175,29.224,69.231,69.231,0,0,0-4.8,6.1l-2.16,3A.5.5,0,0,1,261.255,281.008Zm-15.94-1H261l2.012-2.794a70.342,70.342,0,0,1,4.872-6.183,19.872,19.872,0,0,0-15.993-33.173h0a20.093,20.093,0,0,0-18.572,18.683,19.758,19.758,0,0,0,5.081,14.453,74.13,74.13,0,0,1,5.123,6.522Z" transform="translate(-9835.285 -5550.817)" fill="#fff"/>
    <path id="Trazado_146023" data-name="Trazado 146023" d="M244.879,287.858a.5.5,0,0,1-.063-1l16.053-2.068a.494.494,0,0,1,.56.433.5.5,0,0,1-.432.559l-16.053,2.068A.484.484,0,0,1,244.879,287.858Z" transform="translate(-9835.285 -5550.817)" fill="#fff"/>
    <path id="Trazado_146024" data-name="Trazado 146024" d="M244.879,290.275a.5.5,0,0,1-.063-1l16.053-2.068a.493.493,0,0,1,.56.433.5.5,0,0,1-.432.559l-16.053,2.069Z" transform="translate(-9835.285 -5550.817)" fill="#fff"/>
    <path id="Trazado_146025" data-name="Trazado 146025" d="M244.879,292.693a.5.5,0,0,1-.063-1l16.053-2.068a.5.5,0,0,1,.128.992l-16.053,2.069Z" transform="translate(-9835.285 -5550.817)" fill="#fff"/>
    <path id="Trazado_146026" data-name="Trazado 146026" d="M244.879,295.111a.5.5,0,0,1-.063-1l16.053-2.068a.493.493,0,0,1,.56.432.5.5,0,0,1-.432.56l-16.053,2.068A.484.484,0,0,1,244.879,295.111Z" transform="translate(-9835.285 -5550.817)" fill="#fff"/>
    <path id="Trazado_146027" data-name="Trazado 146027" d="M244.879,297.528a.5.5,0,0,1-.063-1l16.053-2.068a.5.5,0,0,1,.128.992l-16.053,2.068A.479.479,0,0,1,244.879,297.528Z" transform="translate(-9835.285 -5550.817)" fill="#fff"/>
    <path id="Trazado_146028" data-name="Trazado 146028" d="M253.157,302.234a5.211,5.211,0,0,1-5.206-5.206.5.5,0,1,1,1,0,4.206,4.206,0,0,0,8.412,0,.5.5,0,1,1,1,0A5.212,5.212,0,0,1,253.157,302.234Z" transform="translate(-9835.285 -5550.817)" fill="#fff"/>
    <path id="Trazado_146029" data-name="Trazado 146029" d="M236.459,257.224h-.028a.5.5,0,0,1-.471-.528,16.881,16.881,0,0,1,.968-4.765.5.5,0,1,1,.941.338,15.948,15.948,0,0,0-.911,4.484A.5.5,0,0,1,236.459,257.224Z" transform="translate(-9835.285 -5550.817)" fill="#fff"/>
    <path id="Trazado_146030" data-name="Trazado 146030" d="M239.537,248.52a.5.5,0,0,1-.406-.792,17.433,17.433,0,0,1,9.178-6.568.5.5,0,0,1,.284.959,16.429,16.429,0,0,0-8.649,6.191A.5.5,0,0,1,239.537,248.52Z" transform="translate(-9835.285 -5550.817)" fill="#fff"/>
    <path id="Trazado_146031" data-name="Trazado 146031" d="M253.157,103.871a25.587,25.587,0,1,1,25.587-25.587A25.616,25.616,0,0,1,253.157,103.871Zm0-50.174a24.587,24.587,0,1,0,24.587,24.587A24.615,24.615,0,0,0,253.157,53.7Z" transform="translate(-10043.657 -5042.271)" fill="#fff"/>
    <path id="Trazado_146032" data-name="Trazado 146032" d="M253.157,97.105a18.823,18.823,0,0,1-15.726-29.166.5.5,0,1,1,.835.55,17.8,17.8,0,1,0,7.67-6.5.5.5,0,1,1-.4-.914,18.823,18.823,0,1,1,7.626,36.033Z" transform="translate(-10043.657 -5042.271)" fill="#fff"/>
    <path id="Trazado_146033" data-name="Trazado 146033" d="M231.117,66.124a.5.5,0,0,1-.354-.146A7.133,7.133,0,0,1,240.851,55.89a.5.5,0,0,1-.707.707,6.133,6.133,0,0,0-8.674,8.674.5.5,0,0,1,0,.707A.494.494,0,0,1,231.117,66.124Z" transform="translate(-10043.657 -5042.271)" fill="#fff"/>
    <path id="Trazado_146034" data-name="Trazado 146034" d="M275.2,66.124a.5.5,0,0,1-.354-.853A6.133,6.133,0,1,0,266.17,56.6a.5.5,0,0,1-.707-.707A7.133,7.133,0,1,1,275.55,65.978.494.494,0,0,1,275.2,66.124Z" transform="translate(-10043.657 -5042.271)" fill="#fff"/>
    <path id="Trazado_146035" data-name="Trazado 146035" d="M253.157,53.7a.5.5,0,0,1-.5-.5V50.785a.5.5,0,1,1,1,0V53.2A.5.5,0,0,1,253.157,53.7Z" transform="translate(-10043.657 -5042.271)" fill="#fff"/>
    <path id="Trazado_146036" data-name="Trazado 146036" d="M255.535,51.084h-4.757a.5.5,0,0,1-.5-.5V48.172a.5.5,0,0,1,.5-.5h4.757a.5.5,0,0,1,.5.5v2.412A.5.5,0,0,1,255.535,51.084Zm-4.257-1h3.757V48.672h-3.757Z" transform="translate(-10043.657 -5042.271)" fill="#fff"/>
    <path id="Trazado_146037" data-name="Trazado 146037" d="M258.355,85.232a.5.5,0,0,1-.39-.186l-5.2-6.448a.5.5,0,0,1-.055-.545l6.973-13.4a.5.5,0,0,1,.887.462l-6.822,13.111,4.993,6.193a.5.5,0,0,1-.389.814Z" transform="translate(-10043.657 -5042.271)" fill="#fff"/>
    <path id="Trazado_146038" data-name="Trazado 146038" d="M235.484,103.871a.5.5,0,0,1-.307-.106l-2.043-1.592a.5.5,0,0,1-.16-.572l1.295-3.408a.5.5,0,0,1,.935.356l-1.164,3.062,1.46,1.138,2.685-1.877a.5.5,0,1,1,.573.819l-2.987,2.089A.5.5,0,0,1,235.484,103.871Z" transform="translate(-10043.657 -5042.271)" fill="#fff"/>
    <path id="Trazado_146039" data-name="Trazado 146039" d="M270.83,103.871a.494.494,0,0,1-.287-.091l-2.987-2.089a.5.5,0,0,1,.573-.819l2.684,1.877,1.461-1.138-1.165-3.062a.5.5,0,0,1,.935-.356l1.3,3.408a.5.5,0,0,1-.16.572l-2.043,1.592A.5.5,0,0,1,270.83,103.871Z" transform="translate(-10043.657 -5042.271)" fill="#fff"/>
    <path id="Trazado_146040" data-name="Trazado 146040" d="M437.029,198.975A26.978,26.978,0,1,1,464.007,172,27.008,27.008,0,0,1,437.029,198.975Zm0-52.955A25.978,25.978,0,1,0,463.007,172,26.006,26.006,0,0,0,437.029,146.02Z" transform="translate(-9914.162 -5137.375)" fill="#fff"/>
    <path id="Trazado_146041" data-name="Trazado 146041" d="M437.029,193.1a21.1,21.1,0,1,1,21.1-21.1A21.123,21.123,0,0,1,437.029,193.1Zm0-41.2a20.1,20.1,0,1,0,20.1,20.1A20.123,20.123,0,0,0,437.029,151.9Z" transform="translate(-9914.162 -5137.375)" fill="#fff"/>
    <path id="Trazado_146042" data-name="Trazado 146042" d="M437.029,187.22A15.224,15.224,0,1,1,452.253,172,15.24,15.24,0,0,1,437.029,187.22Zm0-29.447A14.224,14.224,0,1,0,451.253,172,14.239,14.239,0,0,0,437.029,157.773Z" transform="translate(-9914.162 -5137.375)" fill="#fff"/>
    <path id="Trazado_146043" data-name="Trazado 146043" d="M437.029,181.343A9.346,9.346,0,1,1,446.376,172,9.356,9.356,0,0,1,437.029,181.343Zm0-17.692A8.346,8.346,0,1,0,445.376,172,8.355,8.355,0,0,0,437.029,163.651Z" transform="translate(-9914.162 -5137.375)" fill="#fff"/>
    <path id="Trazado_146044" data-name="Trazado 146044" d="M437.029,172.5a.5.5,0,0,1-.353-.853L463.619,144.7a.5.5,0,1,1,.707.707l-26.943,26.943A.5.5,0,0,1,437.029,172.5Z" transform="translate(-9914.162 -5137.375)" fill="#fff"/>
    <path id="Trazado_146045" data-name="Trazado 146045" d="M440.949,172.5h-3.92a.5.5,0,0,1-.5-.5v-3.92a.5.5,0,0,1,1,0v3.42h3.42a.5.5,0,0,1,0,1Z" transform="translate(-9914.162 -5137.375)" fill="#fff"/>
    <path id="Trazado_146046" data-name="Trazado 146046" d="M461.841,151.6h-3.92a.5.5,0,0,1-.5-.5v-3.92a.5.5,0,0,1,1,0v3.42h3.42a.5.5,0,0,1,0,1Z" transform="translate(-9914.162 -5137.375)" fill="#fff"/>
    <path id="Trazado_146047" data-name="Trazado 146047" d="M464.306,149.116h-3.92a.5.5,0,0,1-.5-.5V144.7a.5.5,0,0,1,1,0v3.42h3.42a.5.5,0,0,1,0,1Z" transform="translate(-9914.162 -5137.375)" fill="#fff"/>
    <path id="Trazado_146048" data-name="Trazado 146048" d="M466.77,146.636h-3.918a.5.5,0,0,1-.5-.5v-3.92a.5.5,0,0,1,1,0v3.42h3.418a.5.5,0,0,1,0,1Z" transform="translate(-9914.162 -5137.375)" fill="#fff"/>
    <path id="Trazado_146049" data-name="Trazado 146049" d="M418.516,198.975a.5.5,0,0,1-.308-.106l-2.141-1.669a.5.5,0,0,1-.16-.572l1.359-3.569a.5.5,0,1,1,.935.355l-1.227,3.225,1.558,1.214,2.827-1.977a.5.5,0,1,1,.573.82l-3.13,2.189A.509.509,0,0,1,418.516,198.975Z" transform="translate(-9914.162 -5137.375)" fill="#fff"/>
    <path id="Trazado_146050" data-name="Trazado 146050" d="M455.543,198.975a.5.5,0,0,1-.286-.09l-3.129-2.189a.5.5,0,1,1,.572-.82l2.827,1.977,1.559-1.214-1.228-3.225a.5.5,0,0,1,.936-.355l1.358,3.569a.5.5,0,0,1-.16.572l-2.141,1.669A.5.5,0,0,1,455.543,198.975Z" transform="translate(-9914.162 -5137.375)" fill="#fff"/>
    <path id="Trazado_146051" data-name="Trazado 146051" d="M73.205,185.657h-33.4a5.688,5.688,0,0,1-5.682-5.681V153.293a5.689,5.689,0,0,1,5.682-5.682H79.276a5.688,5.688,0,0,1,5.682,5.682V173.9a.5.5,0,0,1-1,0V153.293a4.688,4.688,0,0,0-4.682-4.682H39.805a4.688,4.688,0,0,0-4.682,4.682v26.683a4.687,4.687,0,0,0,4.682,4.681h33.4a.5.5,0,0,1,0,1Z" transform="translate(-9330.667 -5454.845)" fill="#fff"/>
    <path id="Trazado_146052" data-name="Trazado 146052" d="M84.458,156.44H34.623a.5.5,0,0,1,0-1H84.458a.5.5,0,0,1,0,1Z" transform="translate(-9330.667 -5454.845)" fill="#fff"/>
    <path id="Trazado_146053" data-name="Trazado 146053" d="M42.92,151.56a.5.5,0,0,1-.5-.5v-6.78a.5.5,0,0,1,1,0v6.78A.5.5,0,0,1,42.92,151.56Z" transform="translate(-9330.667 -5454.845)" fill="#fff"/>
    <path id="Trazado_146054" data-name="Trazado 146054" d="M76.162,151.56a.5.5,0,0,1-.5-.5v-6.78a.5.5,0,0,1,1,0v6.78A.5.5,0,0,1,76.162,151.56Z" transform="translate(-9330.667 -5454.845)" fill="#fff"/>
    <path id="Trazado_146055" data-name="Trazado 146055" d="M53.711,165.122H49.494a.5.5,0,0,1-.5-.5V160.4a.5.5,0,0,1,.5-.5h4.217a.5.5,0,0,1,.5.5v4.217A.5.5,0,0,1,53.711,165.122Zm-3.717-1h3.217V160.9H49.994Z" transform="translate(-9330.667 -5454.845)" fill="#fff"/>
    <path id="Trazado_146056" data-name="Trazado 146056" d="M61.649,165.122H57.432a.5.5,0,0,1-.5-.5V160.4a.5.5,0,0,1,.5-.5h4.217a.5.5,0,0,1,.5.5v4.217A.5.5,0,0,1,61.649,165.122Zm-3.717-1h3.217V160.9H57.932Z" transform="translate(-9330.667 -5454.845)" fill="#fff"/>
    <path id="Trazado_146057" data-name="Trazado 146057" d="M69.588,165.122H65.371a.5.5,0,0,1-.5-.5V160.4a.5.5,0,0,1,.5-.5h4.217a.5.5,0,0,1,.5.5v4.217A.5.5,0,0,1,69.588,165.122Zm-3.717-1h3.217V160.9H65.871Z" transform="translate(-9330.667 -5454.845)" fill="#fff"/>
    <path id="Trazado_146058" data-name="Trazado 146058" d="M77.526,165.122H73.309a.5.5,0,0,1-.5-.5V160.4a.5.5,0,0,1,.5-.5h4.217a.5.5,0,0,1,.5.5v4.217A.5.5,0,0,1,77.526,165.122Zm-3.717-1h3.217V160.9H73.809Z" transform="translate(-9330.667 -5454.845)" fill="#fff"/>
    <path id="Trazado_146059" data-name="Trazado 146059" d="M45.773,172.675H41.555a.5.5,0,0,1-.5-.5v-4.217a.5.5,0,0,1,.5-.5h4.218a.5.5,0,0,1,.5.5v4.217A.5.5,0,0,1,45.773,172.675Zm-3.718-1h3.218v-3.217H42.055Z" transform="translate(-9330.667 -5454.845)" fill="#fff"/>
    <path id="Trazado_146060" data-name="Trazado 146060" d="M53.711,172.675H49.494a.5.5,0,0,1-.5-.5v-4.217a.5.5,0,0,1,.5-.5h4.217a.5.5,0,0,1,.5.5v4.217A.5.5,0,0,1,53.711,172.675Zm-3.717-1h3.217v-3.217H49.994Z" transform="translate(-9330.667 -5454.845)" fill="#fff"/>
    <path id="Trazado_146061" data-name="Trazado 146061" d="M61.649,172.675H57.432a.5.5,0,0,1-.5-.5v-4.217a.5.5,0,0,1,.5-.5h4.217a.5.5,0,0,1,.5.5v4.217A.5.5,0,0,1,61.649,172.675Zm-3.717-1h3.217v-3.217H57.932Z" transform="translate(-9330.667 -5454.845)" fill="#fff"/>
    <path id="Trazado_146062" data-name="Trazado 146062" d="M69.588,172.675H65.371a.5.5,0,0,1-.5-.5v-4.217a.5.5,0,0,1,.5-.5h4.217a.5.5,0,0,1,.5.5v4.217A.5.5,0,0,1,69.588,172.675Zm-3.717-1h3.217v-3.217H65.871Z" transform="translate(-9330.667 -5454.845)" fill="#fff"/>
    <path id="Trazado_146063" data-name="Trazado 146063" d="M77.526,172.675H73.309a.5.5,0,0,1-.5-.5v-4.217a.5.5,0,0,1,.5-.5h4.217a.5.5,0,0,1,.5.5v4.217A.5.5,0,0,1,77.526,172.675Zm-3.717-1h3.217v-3.217H73.809Z" transform="translate(-9330.667 -5454.845)" fill="#fff"/>
    <path id="Trazado_146064" data-name="Trazado 146064" d="M45.773,180.228H41.555a.5.5,0,0,1-.5-.5V175.51a.5.5,0,0,1,.5-.5h4.218a.5.5,0,0,1,.5.5v4.218A.5.5,0,0,1,45.773,180.228Zm-3.718-1h3.218V176.01H42.055Z" transform="translate(-9330.667 -5454.845)" fill="#fff"/>
    <path id="Trazado_146065" data-name="Trazado 146065" d="M53.711,180.228H49.494a.5.5,0,0,1-.5-.5V175.51a.5.5,0,0,1,.5-.5h4.217a.5.5,0,0,1,.5.5v4.218A.5.5,0,0,1,53.711,180.228Zm-3.717-1h3.217V176.01H49.994Z" transform="translate(-9330.667 -5454.845)" fill="#fff"/>
    <path id="Trazado_146066" data-name="Trazado 146066" d="M61.649,180.228H57.432a.5.5,0,0,1-.5-.5V175.51a.5.5,0,0,1,.5-.5h4.217a.5.5,0,0,1,.5.5v4.218A.5.5,0,0,1,61.649,180.228Zm-3.717-1h3.217V176.01H57.932Z" transform="translate(-9330.667 -5454.845)" fill="#fff"/>
    <path id="Trazado_146067" data-name="Trazado 146067" d="M69.588,180.228H65.371a.5.5,0,0,1-.5-.5V175.51a.5.5,0,0,1,.5-.5h4.217a.5.5,0,0,1,.5.5v4.218A.5.5,0,0,1,69.588,180.228Zm-3.717-1h3.217V176.01H65.871Z" transform="translate(-9330.667 -5454.845)" fill="#fff"/>
    <path id="Trazado_146068" data-name="Trazado 146068" d="M84.458,196.91a11.753,11.753,0,1,1,11.753-11.753A11.766,11.766,0,0,1,84.458,196.91Zm0-22.506a10.753,10.753,0,1,0,10.753,10.753A10.765,10.765,0,0,0,84.458,174.4Z" transform="translate(-9330.667 -5454.845)" fill="#fff"/>
    <path id="Trazado_146069" data-name="Trazado 146069" d="M83.219,192.534a2.3,2.3,0,0,1-.446-.046l-.107-.027a2.6,2.6,0,0,1-.333-.11c-.043-.018-.093-.041-.141-.065a2.347,2.347,0,0,1-.276-.166l-.114-.079a2.084,2.084,0,0,1-.291-.28l-.02-.021,0,0-.053-.054a.47.47,0,0,1-.037-.054l-4.654-5.644a2.29,2.29,0,1,1,3.535-2.911l2.939,3.57,5.42-6.582a2.29,2.29,0,0,1,3.535,2.913L85,191.678l-.011.013a1.02,1.02,0,0,1-.092.094,1.822,1.822,0,0,1-.229.228c-.067.051-.1.072-.133.093a2.329,2.329,0,0,1-.3.182l-.142.065a2.242,2.242,0,0,1-.3.1l-.129.033A2.281,2.281,0,0,1,83.219,192.534Zm-1-1.474c.084.087.127.136.178.179l.086.057a1.132,1.132,0,0,0,.158.1,1.36,1.36,0,0,0,.256.1,1.081,1.081,0,0,0,.575.019,1.82,1.82,0,0,0,.241-.076,1.524,1.524,0,0,0,.237-.132l.121-.082c.021-.02.063-.07.107-.119l.01.006a.513.513,0,0,1,.071-.089l7.143-8.676h0A1.29,1.29,0,0,0,89.41,180.7l-5.806,7.05a.514.514,0,0,1-.771,0l-3.326-4.038a1.279,1.279,0,0,0-.871-.464,1.3,1.3,0,0,0-.945.289,1.29,1.29,0,0,0-.175,1.817l4.693,5.7.01.01Zm2.168.2.188.147Zm.223.111h0Z" transform="translate(-9330.667 -5454.845)" fill="#fff"/>
  </g>
</svg>
