<svg xmlns="http://www.w3.org/2000/svg" width="85" height="85" viewBox="0 0 85 85">
  <g id="Grupo_76128" data-name="Grupo 76128" transform="translate(8467 7597)">
    <circle id="Elipse_4679" data-name="Elipse 4679" cx="42.5" cy="42.5" r="42.5" transform="translate(-8467 -7597)" fill="#00bcd4"/>
    <path id="Trazado_146051" data-name="Trazado 146051" d="M73.205,185.657h-33.4a5.688,5.688,0,0,1-5.682-5.681V153.293a5.689,5.689,0,0,1,5.682-5.682H79.276a5.688,5.688,0,0,1,5.682,5.682V173.9a.5.5,0,0,1-1,0V153.293a4.688,4.688,0,0,0-4.682-4.682H39.805a4.688,4.688,0,0,0-4.682,4.682v26.683a4.687,4.687,0,0,0,4.682,4.681h33.4a.5.5,0,0,1,0,1Z" transform="translate(-8489.667 -7724.845)" fill="#fff"/>
    <path id="Trazado_146052" data-name="Trazado 146052" d="M84.458,156.44H34.623a.5.5,0,0,1,0-1H84.458a.5.5,0,0,1,0,1Z" transform="translate(-8489.667 -7724.845)" fill="#fff"/>
    <path id="Trazado_146053" data-name="Trazado 146053" d="M42.92,151.56a.5.5,0,0,1-.5-.5v-6.78a.5.5,0,0,1,1,0v6.78A.5.5,0,0,1,42.92,151.56Z" transform="translate(-8489.667 -7724.845)" fill="#fff"/>
    <path id="Trazado_146054" data-name="Trazado 146054" d="M76.162,151.56a.5.5,0,0,1-.5-.5v-6.78a.5.5,0,0,1,1,0v6.78A.5.5,0,0,1,76.162,151.56Z" transform="translate(-8489.667 -7724.845)" fill="#fff"/>
    <path id="Trazado_146055" data-name="Trazado 146055" d="M53.711,165.122H49.494a.5.5,0,0,1-.5-.5V160.4a.5.5,0,0,1,.5-.5h4.217a.5.5,0,0,1,.5.5v4.217A.5.5,0,0,1,53.711,165.122Zm-3.717-1h3.217V160.9H49.994Z" transform="translate(-8489.667 -7724.845)" fill="#fff"/>
    <path id="Trazado_146056" data-name="Trazado 146056" d="M61.649,165.122H57.432a.5.5,0,0,1-.5-.5V160.4a.5.5,0,0,1,.5-.5h4.217a.5.5,0,0,1,.5.5v4.217A.5.5,0,0,1,61.649,165.122Zm-3.717-1h3.217V160.9H57.932Z" transform="translate(-8489.667 -7724.845)" fill="#fff"/>
    <path id="Trazado_146057" data-name="Trazado 146057" d="M69.588,165.122H65.371a.5.5,0,0,1-.5-.5V160.4a.5.5,0,0,1,.5-.5h4.217a.5.5,0,0,1,.5.5v4.217A.5.5,0,0,1,69.588,165.122Zm-3.717-1h3.217V160.9H65.871Z" transform="translate(-8489.667 -7724.845)" fill="#fff"/>
    <path id="Trazado_146058" data-name="Trazado 146058" d="M77.526,165.122H73.309a.5.5,0,0,1-.5-.5V160.4a.5.5,0,0,1,.5-.5h4.217a.5.5,0,0,1,.5.5v4.217A.5.5,0,0,1,77.526,165.122Zm-3.717-1h3.217V160.9H73.809Z" transform="translate(-8489.667 -7724.845)" fill="#fff"/>
    <path id="Trazado_146059" data-name="Trazado 146059" d="M45.773,172.675H41.555a.5.5,0,0,1-.5-.5v-4.217a.5.5,0,0,1,.5-.5h4.218a.5.5,0,0,1,.5.5v4.217A.5.5,0,0,1,45.773,172.675Zm-3.718-1h3.218v-3.217H42.055Z" transform="translate(-8489.667 -7724.845)" fill="#fff"/>
    <path id="Trazado_146060" data-name="Trazado 146060" d="M53.711,172.675H49.494a.5.5,0,0,1-.5-.5v-4.217a.5.5,0,0,1,.5-.5h4.217a.5.5,0,0,1,.5.5v4.217A.5.5,0,0,1,53.711,172.675Zm-3.717-1h3.217v-3.217H49.994Z" transform="translate(-8489.667 -7724.845)" fill="#fff"/>
    <path id="Trazado_146061" data-name="Trazado 146061" d="M61.649,172.675H57.432a.5.5,0,0,1-.5-.5v-4.217a.5.5,0,0,1,.5-.5h4.217a.5.5,0,0,1,.5.5v4.217A.5.5,0,0,1,61.649,172.675Zm-3.717-1h3.217v-3.217H57.932Z" transform="translate(-8489.667 -7724.845)" fill="#fff"/>
    <path id="Trazado_146062" data-name="Trazado 146062" d="M69.588,172.675H65.371a.5.5,0,0,1-.5-.5v-4.217a.5.5,0,0,1,.5-.5h4.217a.5.5,0,0,1,.5.5v4.217A.5.5,0,0,1,69.588,172.675Zm-3.717-1h3.217v-3.217H65.871Z" transform="translate(-8489.667 -7724.845)" fill="#fff"/>
    <path id="Trazado_146063" data-name="Trazado 146063" d="M77.526,172.675H73.309a.5.5,0,0,1-.5-.5v-4.217a.5.5,0,0,1,.5-.5h4.217a.5.5,0,0,1,.5.5v4.217A.5.5,0,0,1,77.526,172.675Zm-3.717-1h3.217v-3.217H73.809Z" transform="translate(-8489.667 -7724.845)" fill="#fff"/>
    <path id="Trazado_146064" data-name="Trazado 146064" d="M45.773,180.228H41.555a.5.5,0,0,1-.5-.5V175.51a.5.5,0,0,1,.5-.5h4.218a.5.5,0,0,1,.5.5v4.218A.5.5,0,0,1,45.773,180.228Zm-3.718-1h3.218V176.01H42.055Z" transform="translate(-8489.667 -7724.845)" fill="#fff"/>
    <path id="Trazado_146065" data-name="Trazado 146065" d="M53.711,180.228H49.494a.5.5,0,0,1-.5-.5V175.51a.5.5,0,0,1,.5-.5h4.217a.5.5,0,0,1,.5.5v4.218A.5.5,0,0,1,53.711,180.228Zm-3.717-1h3.217V176.01H49.994Z" transform="translate(-8489.667 -7724.845)" fill="#fff"/>
    <path id="Trazado_146066" data-name="Trazado 146066" d="M61.649,180.228H57.432a.5.5,0,0,1-.5-.5V175.51a.5.5,0,0,1,.5-.5h4.217a.5.5,0,0,1,.5.5v4.218A.5.5,0,0,1,61.649,180.228Zm-3.717-1h3.217V176.01H57.932Z" transform="translate(-8489.667 -7724.845)" fill="#fff"/>
    <path id="Trazado_146067" data-name="Trazado 146067" d="M69.588,180.228H65.371a.5.5,0,0,1-.5-.5V175.51a.5.5,0,0,1,.5-.5h4.217a.5.5,0,0,1,.5.5v4.218A.5.5,0,0,1,69.588,180.228Zm-3.717-1h3.217V176.01H65.871Z" transform="translate(-8489.667 -7724.845)" fill="#fff"/>
    <path id="Trazado_146068" data-name="Trazado 146068" d="M84.458,196.91a11.753,11.753,0,1,1,11.753-11.753A11.766,11.766,0,0,1,84.458,196.91Zm0-22.506a10.753,10.753,0,1,0,10.753,10.753A10.765,10.765,0,0,0,84.458,174.4Z" transform="translate(-8489.667 -7724.845)" fill="#fff"/>
    <path id="Trazado_146069" data-name="Trazado 146069" d="M83.219,192.534a2.3,2.3,0,0,1-.446-.046l-.107-.027a2.6,2.6,0,0,1-.333-.11c-.043-.018-.093-.041-.141-.065a2.347,2.347,0,0,1-.276-.166l-.114-.079a2.084,2.084,0,0,1-.291-.28l-.02-.021,0,0-.053-.054a.47.47,0,0,1-.037-.054l-4.654-5.644a2.29,2.29,0,1,1,3.535-2.911l2.939,3.57,5.42-6.582a2.29,2.29,0,0,1,3.535,2.913L85,191.678l-.011.013a1.02,1.02,0,0,1-.092.094,1.822,1.822,0,0,1-.229.228c-.067.051-.1.072-.133.093a2.329,2.329,0,0,1-.3.182l-.142.065a2.242,2.242,0,0,1-.3.1l-.129.033A2.281,2.281,0,0,1,83.219,192.534Zm-1-1.474c.084.087.127.136.178.179l.086.057a1.132,1.132,0,0,0,.158.1,1.36,1.36,0,0,0,.256.1,1.081,1.081,0,0,0,.575.019,1.82,1.82,0,0,0,.241-.076,1.524,1.524,0,0,0,.237-.132l.121-.082c.021-.02.063-.07.107-.119l.01.006a.513.513,0,0,1,.071-.089l7.143-8.676h0A1.29,1.29,0,0,0,89.41,180.7l-5.806,7.05a.514.514,0,0,1-.771,0l-3.326-4.038a1.279,1.279,0,0,0-.871-.464,1.3,1.3,0,0,0-.945.289,1.29,1.29,0,0,0-.175,1.817l4.693,5.7.01.01Zm2.168.2.188.147Zm.223.111h0Z" transform="translate(-8489.667 -7724.845)" fill="#fff"/>
  </g>
</svg>
