<svg xmlns="http://www.w3.org/2000/svg" width="278.151" height="128.891" viewBox="0 0 278.151 128.891">
  <g id="Grupo_76119" data-name="Grupo 76119" transform="translate(9827.033 9730.146)">
    <path id="Trazado_148224" data-name="Trazado 148224" d="M6.179-5.537a5.964,5.964,0,0,1-.268,2.026,3.026,3.026,0,0,1-.9,1.244l-.58.536A2.292,2.292,0,0,0,3.612-.1a1.221,1.221,0,0,0,.294.91,1.046,1.046,0,0,0,.76.286A1.161,1.161,0,0,0,5.585.725,1.615,1.615,0,0,0,5.933-.334H8.912A3.6,3.6,0,0,1,7.792,2.408a4.411,4.411,0,0,1-3.054.976,4.535,4.535,0,0,1-3.028-.91A3.192,3.192,0,0,1,.642-.1,2.953,2.953,0,0,1,.976-1.472a5.455,5.455,0,0,1,1.143-1.4l.747-.686A2.019,2.019,0,0,0,3.621-4.9l.044-.633ZM5-6.724a1.7,1.7,0,0,1-1.173-.417,1.364,1.364,0,0,1-.47-1.068,1.364,1.364,0,0,1,.47-1.068A1.7,1.7,0,0,1,5-9.694a1.674,1.674,0,0,1,1.182.426,1.383,1.383,0,0,1,.461,1.059A1.383,1.383,0,0,1,6.183-7.15,1.674,1.674,0,0,1,5-6.724ZM20.83,0H17.763V-5.344H13.219V0H10.134V-12.8h3.085v5.08h4.544V-12.8H20.83ZM28,0a3.344,3.344,0,0,1-.281-.853A2.754,2.754,0,0,1,25.436.176,3.374,3.374,0,0,1,23.15-.637a2.588,2.588,0,0,1-.94-2.043,2.66,2.66,0,0,1,1.143-2.338,5.821,5.821,0,0,1,3.322-.791h.914v-.5q0-1.316-1.134-1.316A.927.927,0,0,0,25.4-6.587H22.438a2.655,2.655,0,0,1,1.173-2.239,4.931,4.931,0,0,1,2.993-.86,4.323,4.323,0,0,1,2.874.888A3.086,3.086,0,0,1,30.56-6.363v4.21a4.311,4.311,0,0,0,.4,2V0ZM26.147-1.934a1.652,1.652,0,0,0,.918-.237,1.487,1.487,0,0,0,.523-.536V-4.228h-.861q-1.547,0-1.547,1.389a.848.848,0,0,0,.272.655A.986.986,0,0,0,26.147-1.934ZM36.22-2.109a1.317,1.317,0,0,0,.967-.338,1.241,1.241,0,0,0,.334-.945H40.3A3.288,3.288,0,0,1,39.177-.826a4.168,4.168,0,0,1-2.887,1,4.22,4.22,0,0,1-3.27-1.3,5.125,5.125,0,0,1-1.2-3.6v-.123A5.792,5.792,0,0,1,32.357-7.4a3.872,3.872,0,0,1,1.534-1.7,4.573,4.573,0,0,1,2.373-.593,4.116,4.116,0,0,1,2.944,1.028A3.647,3.647,0,0,1,40.3-5.871H37.521A1.626,1.626,0,0,0,37.16-7a1.244,1.244,0,0,0-.967-.4q-1.151,0-1.345,1.468a10.357,10.357,0,0,0-.062,1.283,4.068,4.068,0,0,0,.343,1.986A1.187,1.187,0,0,0,36.22-2.109ZM44.675,0H41.7V-9.51h2.971ZM41.528-11.962A1.322,1.322,0,0,1,41.985-13a1.724,1.724,0,0,1,1.187-.4,1.724,1.724,0,0,1,1.187.4,1.322,1.322,0,0,1,.457,1.037,1.322,1.322,0,0,1-.457,1.037,1.724,1.724,0,0,1-1.187.4,1.724,1.724,0,0,1-1.187-.4A1.322,1.322,0,0,1,41.528-11.962ZM51.855,0a3.344,3.344,0,0,1-.281-.853A2.754,2.754,0,0,1,49.289.176,3.374,3.374,0,0,1,47-.637a2.588,2.588,0,0,1-.94-2.043,2.66,2.66,0,0,1,1.143-2.338,5.821,5.821,0,0,1,3.322-.791h.914v-.5q0-1.316-1.134-1.316a.927.927,0,0,0-1.055,1.042H46.292a2.655,2.655,0,0,1,1.173-2.239,4.931,4.931,0,0,1,2.993-.86,4.323,4.323,0,0,1,2.874.888,3.086,3.086,0,0,1,1.081,2.435v4.21a4.311,4.311,0,0,0,.4,2V0ZM50-1.934a1.652,1.652,0,0,0,.918-.237,1.487,1.487,0,0,0,.523-.536V-4.228h-.861q-1.547,0-1.547,1.389a.848.848,0,0,0,.272.655A.986.986,0,0,0,50-1.934ZM65.892,0a3.344,3.344,0,0,1-.281-.853A2.754,2.754,0,0,1,63.325.176,3.374,3.374,0,0,1,61.04-.637a2.588,2.588,0,0,1-.94-2.043,2.66,2.66,0,0,1,1.143-2.338,5.821,5.821,0,0,1,3.322-.791h.914v-.5q0-1.316-1.134-1.316A.927.927,0,0,0,63.29-6.587H60.328A2.655,2.655,0,0,1,61.5-8.825a4.931,4.931,0,0,1,2.993-.86,4.323,4.323,0,0,1,2.874.888,3.086,3.086,0,0,1,1.081,2.435v4.21a4.311,4.311,0,0,0,.4,2V0ZM64.037-1.934a1.652,1.652,0,0,0,.918-.237,1.487,1.487,0,0,0,.523-.536V-4.228h-.861q-1.547,0-1.547,1.389a.848.848,0,0,0,.272.655A.986.986,0,0,0,64.037-1.934Zm5.678-2.892a5.809,5.809,0,0,1,.976-3.56,3.211,3.211,0,0,1,2.725-1.3,2.731,2.731,0,0,1,2.145,1V-13.5H78.53V0H75.867l-.149-1.02A2.8,2.8,0,0,1,73.4.176a3.205,3.205,0,0,1-2.689-1.3A5.993,5.993,0,0,1,69.715-4.825Zm2.962.185q0,2.531,1.477,2.531a1.458,1.458,0,0,0,1.406-.826V-6.557A1.419,1.419,0,0,0,74.171-7.4q-1.371,0-1.485,2.215Zm7.163-.2a5.613,5.613,0,0,1,.554-2.536,3.96,3.96,0,0,1,1.591-1.709,4.791,4.791,0,0,1,2.435-.6,4.373,4.373,0,0,1,3.366,1.323,5.076,5.076,0,0,1,1.23,3.6v.105a4.925,4.925,0,0,1-1.235,3.529A4.384,4.384,0,0,1,84.437.176a4.434,4.434,0,0,1-3.261-1.217,4.761,4.761,0,0,1-1.327-3.3Zm2.962.185a3.538,3.538,0,0,0,.413,1.934,1.376,1.376,0,0,0,1.222.615q1.582,0,1.617-2.435v-.3q0-2.558-1.635-2.558-1.485,0-1.608,2.206ZM84.823-13.5h3.129l-2.443,2.76-2.417,0Zm8.218,3.99.1,1.116a3.225,3.225,0,0,1,2.716-1.292,2.713,2.713,0,0,1,2.219.888,4.226,4.226,0,0,1,.76,2.672V0H95.862V-6a1.6,1.6,0,0,0-.29-1.059A1.342,1.342,0,0,0,94.518-7.4a1.413,1.413,0,0,0-1.292.686V0H90.264V-9.51ZM100.1-4.825a5.809,5.809,0,0,1,.976-3.56,3.211,3.211,0,0,1,2.725-1.3,2.731,2.731,0,0,1,2.145,1V-13.5h2.971V0h-2.663L106.1-1.02a2.8,2.8,0,0,1-2.32,1.2,3.205,3.205,0,0,1-2.689-1.3A5.993,5.993,0,0,1,100.1-4.825Zm2.962.185q0,2.531,1.477,2.531a1.458,1.458,0,0,0,1.406-.826V-6.557a1.419,1.419,0,0,0-1.389-.844q-1.371,0-1.485,2.215ZM115.2.176a4.889,4.889,0,0,1-3.542-1.305,4.507,4.507,0,0,1-1.354-3.4v-.246a5.84,5.84,0,0,1,.541-2.575,3.955,3.955,0,0,1,1.578-1.727,4.763,4.763,0,0,1,2.461-.611,4.117,4.117,0,0,1,3.164,1.244,4.887,4.887,0,0,1,1.16,3.467v1.151h-5.889a2.135,2.135,0,0,0,.694,1.257,2.066,2.066,0,0,0,1.389.457,2.662,2.662,0,0,0,2.2-.984l1.354,1.6a3.784,3.784,0,0,1-1.569,1.217A5.3,5.3,0,0,1,115.2.176ZM114.864-7.4q-1.3,0-1.547,1.723h2.988v-.229a1.467,1.467,0,0,0-.36-1.1A1.434,1.434,0,0,0,114.864-7.4Zm7.726,3.349a5.721,5.721,0,0,1,.29-2.026,3.168,3.168,0,0,1,.94-1.288,6.252,6.252,0,0,0,.989-1,1.628,1.628,0,0,0,.338-1q0-1.327-1.143-1.327a1.06,1.06,0,0,0-.853.387,1.645,1.645,0,0,0-.343,1.046h-2.971a3.544,3.544,0,0,1,1.107-2.738,4.415,4.415,0,0,1,3.059-.98,4.587,4.587,0,0,1,3.037.905,3.177,3.177,0,0,1,1.077,2.575,3,3,0,0,1-.29,1.327,4.485,4.485,0,0,1-.932,1.222L125.886-6a2.378,2.378,0,0,0-.6.848,3.361,3.361,0,0,0-.185,1.1Zm-.36,2.672a1.364,1.364,0,0,1,.47-1.068,1.7,1.7,0,0,1,1.173-.417,1.7,1.7,0,0,1,1.173.417,1.364,1.364,0,0,1,.47,1.068,1.364,1.364,0,0,1-.47,1.068,1.7,1.7,0,0,1-1.173.417A1.7,1.7,0,0,1,122.7-.312,1.364,1.364,0,0,1,122.229-1.38Z" transform="translate(-9677 -9606)" fill="#fff"/>
    <path id="Trazado_148222" data-name="Trazado 148222" d="M8.9-5.432H4.052v3.059h5.73V0H.967V-12.8H9.8v2.382H4.052v2.7H8.9Zm6.979,2.76a.684.684,0,0,0-.4-.606,6.016,6.016,0,0,0-1.5-.475A6.853,6.853,0,0,1,12.155-4.4a3.062,3.062,0,0,1-1.1-.971,2.319,2.319,0,0,1-.378-1.31A2.628,2.628,0,0,1,11.76-8.837a4.453,4.453,0,0,1,2.83-.848,4.934,4.934,0,0,1,3.023.853,2.666,2.666,0,0,1,1.143,2.241H15.785q0-1.143-1.2-1.143a1.194,1.194,0,0,0-.782.259.8.8,0,0,0-.316.646.737.737,0,0,0,.387.642,3.654,3.654,0,0,0,1.235.4,10.671,10.671,0,0,1,1.49.378A2.706,2.706,0,0,1,18.738-2.76,2.491,2.491,0,0,1,17.583-.642,5.068,5.068,0,0,1,14.59.176a5.172,5.172,0,0,1-2.18-.439,3.645,3.645,0,0,1-1.494-1.2A2.707,2.707,0,0,1,10.38-3.05h2.769a1.145,1.145,0,0,0,.439.962,1.808,1.808,0,0,0,1.081.3,1.422,1.422,0,0,0,.91-.246A.787.787,0,0,0,15.882-2.672Zm7.69-9.2V-9.51h1.564v2.057H23.572V-3.1a1.111,1.111,0,0,0,.193.747,1.037,1.037,0,0,0,.765.211,4.345,4.345,0,0,0,.738-.053V-.079A5.466,5.466,0,0,1,23.6.176,3.1,3.1,0,0,1,21.34-.545a2.954,2.954,0,0,1-.729-2.188v-4.72H19.4V-9.51H20.61v-2.364Zm8.481,5.045-.976-.07a1.752,1.752,0,0,0-1.793.879V0H26.323V-9.51H29.1l.1,1.222a2.294,2.294,0,0,1,2.083-1.4,2.888,2.888,0,0,1,.826.105ZM38.215,0a3.344,3.344,0,0,1-.281-.853A2.754,2.754,0,0,1,35.648.176a3.374,3.374,0,0,1-2.285-.813,2.588,2.588,0,0,1-.94-2.043,2.66,2.66,0,0,1,1.143-2.338,5.821,5.821,0,0,1,3.322-.791H37.8v-.5q0-1.316-1.134-1.316a.927.927,0,0,0-1.055,1.042H32.651a2.655,2.655,0,0,1,1.173-2.239,4.931,4.931,0,0,1,2.993-.86,4.323,4.323,0,0,1,2.874.888,3.086,3.086,0,0,1,1.081,2.435v4.21a4.311,4.311,0,0,0,.4,2V0ZM36.36-1.934a1.652,1.652,0,0,0,.918-.237,1.487,1.487,0,0,0,.523-.536V-4.228H36.94q-1.547,0-1.547,1.389a.848.848,0,0,0,.272.655A.986.986,0,0,0,36.36-1.934Zm9.5-9.94V-9.51h1.564v2.057H45.861V-3.1a1.111,1.111,0,0,0,.193.747,1.037,1.037,0,0,0,.765.211,4.345,4.345,0,0,0,.738-.053V-.079a5.466,5.466,0,0,1-1.67.255,3.1,3.1,0,0,1-2.259-.721A2.954,2.954,0,0,1,42.9-2.733v-4.72H41.687V-9.51H42.9v-2.364ZM53.191.176a4.889,4.889,0,0,1-3.542-1.305,4.507,4.507,0,0,1-1.354-3.4v-.246a5.84,5.84,0,0,1,.541-2.575,3.955,3.955,0,0,1,1.578-1.727,4.763,4.763,0,0,1,2.461-.611,4.117,4.117,0,0,1,3.164,1.244A4.887,4.887,0,0,1,57.2-4.975v1.151H51.311A2.135,2.135,0,0,0,52-2.566a2.066,2.066,0,0,0,1.389.457,2.662,2.662,0,0,0,2.2-.984l1.354,1.6A3.784,3.784,0,0,1,55.375-.277,5.3,5.3,0,0,1,53.191.176ZM52.857-7.4q-1.3,0-1.547,1.723H54.3v-.229a1.467,1.467,0,0,0-.36-1.1A1.434,1.434,0,0,0,52.857-7.4Zm-.035-6.108h3.129l-2.443,2.76-2.417,0Zm5.221,8.684a6.421,6.421,0,0,1,.475-2.549A3.821,3.821,0,0,1,59.88-9.083a3.591,3.591,0,0,1,2.065-.6,2.855,2.855,0,0,1,2.32,1l.105-.826h2.689V-.36a4.009,4.009,0,0,1-.584,2.184,3.75,3.75,0,0,1-1.692,1.424,6.219,6.219,0,0,1-2.566.5,5.365,5.365,0,0,1-2.026-.4,3.657,3.657,0,0,1-1.5-1.028L59.933.58a2.716,2.716,0,0,0,2.18.976A1.764,1.764,0,0,0,64.081-.466v-.3a2.781,2.781,0,0,1-2.153.94,3.437,3.437,0,0,1-2.812-1.332A5.517,5.517,0,0,1,58.043-4.72Zm2.971.185a3.383,3.383,0,0,0,.439,1.85,1.386,1.386,0,0,0,1.23.681,1.573,1.573,0,0,0,1.4-.642v-4A1.534,1.534,0,0,0,62.7-7.4a1.4,1.4,0,0,0-1.239.708A3.858,3.858,0,0,0,61.014-4.641ZM71.868,0H68.9V-9.51h2.971ZM68.722-11.962A1.322,1.322,0,0,1,69.179-13a1.724,1.724,0,0,1,1.187-.4,1.724,1.724,0,0,1,1.187.4,1.322,1.322,0,0,1,.457,1.037,1.322,1.322,0,0,1-.457,1.037,1.724,1.724,0,0,1-1.187.4,1.724,1.724,0,0,1-1.187-.4A1.322,1.322,0,0,1,68.722-11.962Zm8.991,9.853a1.317,1.317,0,0,0,.967-.338,1.241,1.241,0,0,0,.334-.945h2.777A3.288,3.288,0,0,1,80.67-.826a4.168,4.168,0,0,1-2.887,1,4.22,4.22,0,0,1-3.27-1.3,5.125,5.125,0,0,1-1.2-3.6v-.123A5.792,5.792,0,0,1,73.85-7.4a3.872,3.872,0,0,1,1.534-1.7,4.573,4.573,0,0,1,2.373-.593A4.116,4.116,0,0,1,80.7-8.657a3.647,3.647,0,0,1,1.09,2.786H79.014A1.626,1.626,0,0,0,78.653-7a1.244,1.244,0,0,0-.967-.4q-1.151,0-1.345,1.468a10.357,10.357,0,0,0-.062,1.283,4.068,4.068,0,0,0,.343,1.986A1.187,1.187,0,0,0,77.713-2.109ZM88.4,0a3.344,3.344,0,0,1-.281-.853A2.754,2.754,0,0,1,85.834.176a3.374,3.374,0,0,1-2.285-.813,2.588,2.588,0,0,1-.94-2.043,2.66,2.66,0,0,1,1.143-2.338,5.821,5.821,0,0,1,3.322-.791h.914v-.5q0-1.316-1.134-1.316A.927.927,0,0,0,85.8-6.587H82.837A2.655,2.655,0,0,1,84.01-8.825,4.931,4.931,0,0,1,87-9.686a4.323,4.323,0,0,1,2.874.888,3.086,3.086,0,0,1,1.081,2.435v4.21a4.311,4.311,0,0,0,.4,2V0ZM86.546-1.934a1.652,1.652,0,0,0,.918-.237,1.487,1.487,0,0,0,.523-.536V-4.228h-.861q-1.547,0-1.547,1.389a.848.848,0,0,0,.272.655A.986.986,0,0,0,86.546-1.934Z" transform="translate(-9828 -9605)" fill="#fff"/>
    <path id="Trazado_148225" data-name="Trazado 148225" d="M0,0H29" transform="translate(-9720.5 -9612)" fill="none" stroke="#fff" stroke-width="3"/>
    <path id="Trazado_148226" data-name="Trazado 148226" d="M5,0l5,10H0Z" transform="translate(-9685 -9617) rotate(90)" fill="#fff"/>
    <path id="Trazado_148223" data-name="Trazado 148223" d="M0,0H108.012V5.194H0Z" transform="translate(-9751.327 -9657.193)" fill="#fff"/>
    <path id="Trazado_145846" data-name="Trazado 145846" d="M657.448,348.52l1.812,2.562-36.354,25.006-21.742-30.678-49.2,34.276.013,5.548,48.141-33.53,21.725,30.478,40.027-27.4,1.825,2.58,6.249-11.078Z" transform="translate(-10308.947 -10075.556)" fill="#fff"/>
    <path id="Trazado_145847" data-name="Trazado 145847" d="M554.892,399.577h18V357.439l-18,12.888Z" transform="translate(-10305.414 -10061.016)" fill="#fff"/>
    <path id="Trazado_145848" data-name="Trazado 145848" d="M610.1,352.348l-16.091,11.38v42h18V355.048Z" transform="translate(-10258.127 -10067.169)" fill="#fff"/>
    <path id="Trazado_145849" data-name="Trazado 145849" d="M584.232,370.8v28h18v-40.73l-17.95,12.692Z" transform="translate(-10269.949 -10060.245)" fill="#fff"/>
    <path id="Trazado_145850" data-name="Trazado 145850" d="M564.672,363.918v43.426h18V351.013Z" transform="translate(-10293.593 -10068.782)" fill="#fff"/>
    <path id="Trazado_145851" data-name="Trazado 145851" d="M574.452,352.2v53.717h18V378.349Z" transform="translate(-10281.771 -10067.352)" fill="#fff"/>
  </g>
</svg>
