<svg xmlns="http://www.w3.org/2000/svg" width="85" height="85" viewBox="0 0 85 85">
  <g id="Grupo_76126" data-name="Grupo 76126" transform="translate(9097 7597)">
    <circle id="Elipse_4676" data-name="Elipse 4676" cx="42.5" cy="42.5" r="42.5" transform="translate(-9097 -7597)" fill="#00bcd4"/>
    <path id="Trazado_146010" data-name="Trazado 146010" d="M77.283,101.549H53.051a.5.5,0,0,1-.5-.5V89.924a10.69,10.69,0,0,1,3.768-8.154L60.277,78.4a1.471,1.471,0,0,0,0-2.239l-3.958-3.369a10.69,10.69,0,0,1-3.768-8.154V53.514a.5.5,0,0,1,.5-.5H77.283a.5.5,0,0,1,.5.5V64.639a10.692,10.692,0,0,1-3.767,8.154l-3.958,3.369a1.469,1.469,0,0,0,0,2.239l3.958,3.369a10.692,10.692,0,0,1,3.767,8.154v11.125A.5.5,0,0,1,77.283,101.549Zm-23.732-1H76.783V89.924a9.691,9.691,0,0,0-3.416-7.392l-3.958-3.369a2.471,2.471,0,0,1,0-3.763l3.958-3.368a9.693,9.693,0,0,0,3.416-7.393V54.014H53.551V64.639a9.693,9.693,0,0,0,3.416,7.393L60.925,75.4a2.471,2.471,0,0,1,0,3.763l-3.958,3.369a9.691,9.691,0,0,0-3.416,7.392Z" transform="translate(-9119.668 -7631.732)" fill="#fff"/>
    <path id="Trazado_146011" data-name="Trazado 146011" d="M84.845,106.793H45.49a.5.5,0,0,1-.5-.5v-3.311a2.436,2.436,0,0,1,2.432-2.433h35.49a2.436,2.436,0,0,1,2.433,2.433v3.311A.5.5,0,0,1,84.845,106.793Zm-38.855-1H84.345v-2.811a1.435,1.435,0,0,0-1.433-1.433H47.422a1.434,1.434,0,0,0-1.432,1.433Z" transform="translate(-9119.668 -7631.732)" fill="#fff"/>
    <path id="Trazado_146012" data-name="Trazado 146012" d="M82.912,53.916H47.422a2.436,2.436,0,0,1-2.432-2.433V48.172a.5.5,0,0,1,.5-.5H84.845a.5.5,0,0,1,.5.5v3.311A2.436,2.436,0,0,1,82.912,53.916ZM45.99,48.672v2.811a1.434,1.434,0,0,0,1.432,1.433h35.49a1.435,1.435,0,0,0,1.433-1.433V48.672Z" transform="translate(-9119.668 -7631.732)" fill="#fff"/>
    <path id="Trazado_146013" data-name="Trazado 146013" d="M49.484,74.833a.5.5,0,0,1-.5-.5V53.416a.5.5,0,0,1,1,0V74.333A.5.5,0,0,1,49.484,74.833Z" transform="translate(-9119.668 -7631.732)" fill="#fff"/>
    <path id="Trazado_146014" data-name="Trazado 146014" d="M49.484,101.549a.5.5,0,0,1-.5-.5V80.133a.5.5,0,0,1,1,0v20.916A.5.5,0,0,1,49.484,101.549Z" transform="translate(-9119.668 -7631.732)" fill="#fff"/>
    <path id="Trazado_146015" data-name="Trazado 146015" d="M80.85,74.833a.5.5,0,0,1-.5-.5V53.416a.5.5,0,0,1,1,0V74.333A.5.5,0,0,1,80.85,74.833Z" transform="translate(-9119.668 -7631.732)" fill="#fff"/>
    <path id="Trazado_146016" data-name="Trazado 146016" d="M80.85,101.549a.5.5,0,0,1-.5-.5V80.133a.5.5,0,0,1,1,0v20.916A.5.5,0,0,1,80.85,101.549Z" transform="translate(-9119.668 -7631.732)" fill="#fff"/>
    <path id="Trazado_146017" data-name="Trazado 146017" d="M80.85,80.633a3.4,3.4,0,1,1,3.4-3.4A3.4,3.4,0,0,1,80.85,80.633Zm0-5.8a2.4,2.4,0,1,0,2.4,2.4A2.4,2.4,0,0,0,80.85,74.833Z" transform="translate(-9119.668 -7631.732)" fill="#fff"/>
    <path id="Trazado_146018" data-name="Trazado 146018" d="M49.484,80.633a3.4,3.4,0,1,1,3.4-3.4A3.405,3.405,0,0,1,49.484,80.633Zm0-5.8a2.4,2.4,0,1,0,2.4,2.4A2.4,2.4,0,0,0,49.484,74.833Z" transform="translate(-9119.668 -7631.732)" fill="#fff"/>
    <path id="Trazado_146019" data-name="Trazado 146019" d="M65.947,77.782H64.388a.5.5,0,0,1-.5-.5,4.547,4.547,0,0,0-1.606-3.474l-3.958-3.369a7.581,7.581,0,0,1-2.394-3.73.58.58,0,0,1,.079-.457c.159-.227.581-.829,18.144-2.11a.5.5,0,0,1,.537.5,7.605,7.605,0,0,1-2.679,5.8l-3.959,3.369a4.551,4.551,0,0,0-1.605,3.474.5.5,0,0,1-.5.5Zm-1.081-1h.6A5.55,5.55,0,0,1,67.4,73.045l3.958-3.369a6.6,6.6,0,0,0,2.306-4.5c-5.895.438-14.755,1.209-16.649,1.658a6.582,6.582,0,0,0,1.953,2.839h0l3.959,3.369A5.556,5.556,0,0,1,64.866,76.782Z" transform="translate(-9119.668 -7631.732)" fill="#fff"/>
    <path id="Trazado_146020" data-name="Trazado 146020" d="M74.19,98.456H56.145a.5.5,0,0,1-.5-.5V89.808a4.915,4.915,0,0,1,3.771-4.629l5.629-1.42a.492.492,0,0,1,.25,0l5.681,1.5a4.887,4.887,0,0,1,3.714,4.623v8.072A.5.5,0,0,1,74.19,98.456Zm-17.545-1H73.69V89.924a3.9,3.9,0,0,0-2.969-3.7L65.165,84.76,59.66,86.148a3.915,3.915,0,0,0-3.015,3.674v7.634Z" transform="translate(-9119.668 -7631.732)" fill="#fff"/>
  </g>
</svg>
