<svg xmlns="http://www.w3.org/2000/svg" width="144" height="144.191" viewBox="0 0 144 144.191">
  <g id="Grupo_76074" data-name="Grupo 76074" transform="translate(-337 -411.637)">
    <circle id="Elipse_4525" data-name="Elipse 4525" cx="72" cy="72" r="72" transform="translate(337 411.637)" fill="#7e5ee3"/>
    <path id="Trazado_145419" data-name="Trazado 145419" d="M1907.3,388.01h20.122l.11,1.375-9.833,14.907-10.563-15.055.165-1.227Z" transform="translate(-1508.363 93.772)" fill="#b3b3b3"/>
    <path id="Trazado_145420" data-name="Trazado 145420" d="M1871.412,373.634l-.174,8.409-14.267,7.8v28.6H1905v-28.6l-13.259-8.241-.728-8.408-19.6.438h0Z" transform="translate(-1472.346 104.41)" fill="#f0ba7d"/>
    <path id="Trazado_145421" data-name="Trazado 145421" d="M1874.772,233.905a2.184,2.184,0,0,0-3.014-.907c-2.2.89.1,9.772.938,11.011s2.189.452,2.681.4c.7,5.295.762,8.944,2.881,11.177a65.8,65.8,0,0,0,9.025,7.925,13.5,13.5,0,0,0,8.028,0,65.708,65.708,0,0,0,9.025-7.925c2.119-2.233,2.182-5.881,2.881-11.177.492.049,1.842.836,2.681-.4s3.135-10.121.938-11.011a2.184,2.184,0,0,0-3.014.907,19.047,19.047,0,0,0-1.688-13.84c-2.645-4.705-8.676-7.146-14.837-7.325-6.16.179-12.192,2.62-14.837,7.325a19.047,19.047,0,0,0-1.688,13.84Z" transform="translate(-1482.299 219.616)" fill="#fed298"/>
    <path id="Trazado_145422" data-name="Trazado 145422" d="M1847.081,403.593l3.417-1.346,2.753-2.474,9.721,7.373h2.421l9.724-7.382,6.168,3.829L1892,421.814l-8.489,46.057a72.62,72.62,0,0,1-35.229.863l-15.215-45.465,14.009-19.676Z" transform="translate(-1455.186 85.333)" fill="#15bdb2"/>
    <path id="Trazado_145423" data-name="Trazado 145423" d="M1960.465,392.85l-3.925-4.84-8.849,10.7,7.6,8.44Z" transform="translate(-1537.483 93.773)" fill="#21d0c3"/>
    <path id="Trazado_145424" data-name="Trazado 145424" d="M1893.785,392.765l3.93-4.755,8.85,10.7-7.9,8.353Z" transform="translate(-1498.778 93.773)" fill="#21d0c3"/>
    <path id="Trazado_145425" data-name="Trazado 145425" d="M1803.147,404.87l-26.013,8.459a2.935,2.935,0,0,0-1.938,2.335l-7.649,38.763a72.36,72.36,0,0,0,17.431,12.185l3.8-12.411a.3.3,0,0,1,.6.071l.549,14.576a71.949,71.949,0,0,0,27.213,5.31v-4.84l-13.991-64.45Z" transform="translate(-1408.14 81.667)" fill="#fff"/>
    <path id="Trazado_145426" data-name="Trazado 145426" d="M1866.1,404.87l-2.979.915-7.893,13.468,9.964.312-6.117,3.483,21.018,46.272-13.991-64.45Z" transform="translate(-1471.098 81.667)" fill="#eef3f7"/>
    <path id="Trazado_145427" data-name="Trazado 145427" d="M1957.385,405.172l26.021,8.374a2.928,2.928,0,0,1,1.937,2.335l7.65,38.764a72.377,72.377,0,0,1-17.433,12.186l-3.8-12.411a.3.3,0,0,0-.6.071l-.548,14.576a71.95,71.95,0,0,1-27.212,5.31h0v-4.84l13.984-64.365Z" transform="translate(-1534.403 81.45)" fill="#eef3f7"/>
    <path id="Trazado_145428" data-name="Trazado 145428" d="M1957.385,405.172l1.654.5,9.219,13.88-9.965.313,6.118,3.483L1943.4,469.538l13.984-64.365h0Z" transform="translate(-1534.403 81.45)" fill="#fff"/>
    <path id="Trazado_145429" data-name="Trazado 145429" d="M1908.958,223.873l1.531-.054.493-1.747,1.442-1.439c.952-7.171,1.233-18.331-5.885-18.009,0,0-.642-8.137-13.48-6.542s-18.64,9.884-17.948,16.8.412,7.752.412,7.752l1.442,1.439.217,1.987,1.259-.08a32,32,0,0,1,.79-3.829,12.952,12.952,0,0,0,.272-3.537s15.164.966,19.262-4.247c2.531-3.219,8.344-8.8,8.636-1.072.087,2.291-.765,5.724.865,8.223s.692,4.355.692,4.355h0Z" transform="translate(-1485.331 231.726)" fill="#666"/>
    <path id="Trazado_145430" data-name="Trazado 145430" d="M1933.14,484.451l4.1-18.867-2.786-37.19,1.518-.648-1.622-1.8h-2.421l-1.664,1.76,1.562.69-2.716,37.491,4.03,18.566Z" transform="translate(-1524.142 66.537)" fill="#0f7986"/>
    <path id="Trazado_145431" data-name="Trazado 145431" d="M2022.856,521.477a5.177,5.177,0,1,1,5.981-4.22,5.177,5.177,0,0,1-5.981,4.22Z" transform="translate(-1588.366 5.324)" fill="#fefefe"/>
    <path id="Trazado_145432" data-name="Trazado 145432" d="M2023.675,521.946a4.875,4.875,0,1,1,5.634-3.975,4.874,4.874,0,0,1-5.634,3.975Z" transform="translate(-1589.134 4.558)" fill="#0f7986"/>
    <path id="Trazado_145433" data-name="Trazado 145433" d="M2029.59,525.348a2.7,2.7,0,1,1,3.117-2.2,2.7,2.7,0,0,1-3.117,2.2Z" transform="translate(-1594.679 -0.989)" fill="#ebecec"/>
    <path id="Trazado_145434" data-name="Trazado 145434" d="M2036.416,511.759l1.185.2.637-3.691-1.185-.2Z" transform="translate(-1601.187 7.571)" fill="#fefefe"/>
    <path id="Trazado_145435" data-name="Trazado 145435" d="M1837.659,485.352l2.221-.441a3.506,3.506,0,0,0,2.75-4.113l-2.612-13.16c-.986-4.966-4.871-7.5-9.31-8.06a16.748,16.748,0,0,0-10.107,2c-3.879,2.209-6.492,6.029-5.505,11l2.612,13.161a3.492,3.492,0,0,0,1.489,2.224h0a3.484,3.484,0,0,0,2.623.526l2.22-.441-.182-.915-2.22.441a2.562,2.562,0,0,1-1.924-.385h0a2.562,2.562,0,0,1-1.093-1.63l-2.612-13.161c-.9-4.513,1.5-7.992,5.048-10.012a15.8,15.8,0,0,1,9.534-1.891c4.063.514,7.617,2.815,8.51,7.319l2.613,13.161a2.572,2.572,0,0,1-2.018,3.015l-2.221.441.182.915h0Z" transform="translate(-1442.129 42.474)" fill="#21d0c3"/>
    <path id="Trazado_145436" data-name="Trazado 145436" d="M1839.932,468.8l-.4-2.01c-1.016-5.12-5.013-7.73-9.577-8.308a17.056,17.056,0,0,0-10.3,2.041c-3.989,2.272-6.676,6.2-5.658,11.334l.4,2.01,1.525-.3-.4-2.01c-.865-4.359,1.457-7.725,4.9-9.683a15.5,15.5,0,0,1,9.344-1.852c3.937.5,7.379,2.721,8.243,7.073l.4,2.01,1.525-.3Z" transform="translate(-1441.338 43.262)" fill="#4d4d4d"/>
    <path id="Trazado_145437" data-name="Trazado 145437" d="M1840.454,556.686l1.188-.236a1.305,1.305,0,1,0-.257-1.294l-1.187.235.257,1.294Z" transform="translate(-1460.303 -25.607)" fill="#076673"/>
    <path id="Trazado_145438" data-name="Trazado 145438" d="M1889.506,547.516l-1.187.236a1.3,1.3,0,1,1-.257-1.294l1.188-.236Z" transform="translate(-1493.032 -19.678)" fill="#076673"/>
    <path id="Trazado_145439" data-name="Trazado 145439" d="M1849.12,453.3l-.453-2.283-.9.179-.9.178.458,2.306q.515-.15,1.042-.255C1848.616,453.375,1848.867,453.334,1849.12,453.3Z" transform="translate(-1465.091 48.534)" fill="#666"/>
    <path id="Trazado_145440" data-name="Trazado 145440" d="M1846.766,556.319a.4.4,0,1,0-.464-.311.395.395,0,0,0,.464.311Z" transform="translate(-1464.681 -26.51)" fill="#0f7986"/>
    <path id="Trazado_145441" data-name="Trazado 145441" d="M1888.418,548.036a.395.395,0,1,0-.464-.31A.394.394,0,0,0,1888.418,548.036Z" transform="translate(-1494.586 -20.563)" fill="#0f7986"/>
    <path id="Trazado_145442" data-name="Trazado 145442" d="M2029.389,526a2.551,2.551,0,1,1,2.947-2.081,2.552,2.552,0,0,1-2.947,2.081Z" transform="translate(-1594.621 -1.667)" fill="#fefefe"/>
    <path id="Trazado_145443" data-name="Trazado 145443" d="M1859.96,403.926c-.04,0-14.061.117-11.692,12.383l-1.3.249c-2.67-13.829,12.937-13.956,12.981-13.957Z" transform="translate(-1464.94 83.296)" fill="#4d4d4d"/>
    <path id="Trazado_145444" data-name="Trazado 145444" d="M1992.967,402.824a13.272,13.272,0,0,1,10.113,4.825c3.331,4.052,5.666,11.492,3.92,25.134l-1.314-.166c1.69-13.2-.494-20.313-3.628-24.126a11.968,11.968,0,0,0-9.121-4.343l.031-1.325Z" transform="translate(-1569.969 83.136)" fill="#4d4d4d"/>
  </g>
</svg>
