<svg xmlns="http://www.w3.org/2000/svg" width="117.5" height="77.83" viewBox="0 0 117.5 77.83">
  <g id="Grupo_76134" data-name="Grupo 76134" transform="translate(1857.989 7589.278)">
    <rect id="Rectángulo_32795" data-name="Rectángulo 32795" width="107.574" height="5.173" transform="translate(-1852.362 -7516.62)" fill="#fafbfc"/>
    <path id="Trazado_146110" data-name="Trazado 146110" d="M4109.5,1833.908l1.8,2.553-36.206,24.905-21.652-30.556-49,34.138.012,5.526,47.947-33.394,21.636,30.354,39.865-27.29,1.818,2.572,6.222-11.035Z" transform="translate(-5862.437 -9420.088)" fill="#fafbfc"/>
    <path id="Trazado_146111" data-name="Trazado 146111" d="M4049.237,2057.14h17.929v-41.966l-17.929,12.836Z" transform="translate(-5900.797 -9577.989)" fill="#fafbfc"/>
    <path id="Trazado_146112" data-name="Trazado 146112" d="M4664.837,1937.156l-16.028,11.332v41.832h17.929v-50.476Z" transform="translate(-6414.311 -9511.169)" fill="#fafbfc"/>
    <path id="Trazado_146113" data-name="Trazado 146113" d="M4498.916,2037.617V2065.5h17.929V2024.94l-17.878,12.641Z" transform="translate(-6285.932 -9586.354)" fill="#fafbfc"/>
    <path id="Trazado_146114" data-name="Trazado 146114" d="M4199.13,1929.538v43.25h17.929v-56.1Z" transform="translate(-6029.176 -9493.637)" fill="#fafbfc"/>
    <path id="Trazado_146115" data-name="Trazado 146115" d="M4349.021,1934.83v53.5h17.929v-27.45Z" transform="translate(-6157.553 -9509.177)" fill="#fafbfc"/>
  </g>
</svg>
