<svg xmlns="http://www.w3.org/2000/svg" width="77.292" height="86.289" viewBox="0 0 77.292 86.289">
  <g id="Grupo_76133" data-name="Grupo 76133" transform="translate(-5703.65 -1759.509)">
    <g id="Grupo_74179" data-name="Grupo 74179" transform="translate(5721.754 1759.509)">
      <path id="Trazado_146105" data-name="Trazado 146105" d="M6103.918,1759.509h-1.329a6.025,6.025,0,0,0-6.024,6.026v13.785a6.025,6.025,0,0,0,6.024,6.025h1.329a6.025,6.025,0,0,0,6.025-6.025v-13.785A6.025,6.025,0,0,0,6103.918,1759.509Zm4.18,19.293a4.363,4.363,0,0,1-4.363,4.363h-.962a4.364,4.364,0,0,1-4.363-4.363v-12.75a4.363,4.363,0,0,1,4.363-4.363h.962a4.363,4.363,0,0,1,4.363,4.363Z" transform="translate(-6065.288 -1759.509)" fill="#fafbfc"/>
      <g id="Grupo_74178" data-name="Grupo 74178" transform="translate(0 33.041)">
        <path id="Trazado_146106" data-name="Trazado 146106" d="M5866.461,2058.334l-17.949-19.807a3.114,3.114,0,0,1,.216-4.4h0a3.114,3.114,0,0,1,4.4.217l13.071,14.423,20.434-25.208a3.115,3.115,0,0,1,4.381-.458h0a3.114,3.114,0,0,1,.458,4.38Z" transform="translate(-5847.705 -2022.407)" fill="#fafbfc"/>
      </g>
    </g>
    <path id="Trazado_146107" data-name="Trazado 146107" d="M5823.1,1759.509h-1.329a6.026,6.026,0,0,0-6.025,6.026v13.785a6.025,6.025,0,0,0,6.025,6.025h1.329a6.025,6.025,0,0,0,6.025-6.025v-13.785A6.025,6.025,0,0,0,5823.1,1759.509Zm4.18,19.293a4.363,4.363,0,0,1-4.363,4.363h-.962a4.363,4.363,0,0,1-4.363-4.363v-12.75a4.363,4.363,0,0,1,4.363-4.363h.962a4.363,4.363,0,0,1,4.363,4.363Z" transform="translate(-98.008)" fill="#fafbfc"/>
    <g id="Grupo_74180" data-name="Grupo 74180" transform="translate(5703.65 1768.505)">
      <path id="Trazado_146108" data-name="Trazado 146108" d="M5929.587,1843.547a4.317,4.317,0,0,1-.593-2.16v-10.3h-25.6v10.3a4.317,4.317,0,0,1-.593,2.16Z" transform="translate(-5877.768 -1831.091)" fill="#fafbfc"/>
      <path id="Trazado_146109" data-name="Trazado 146109" d="M5764.565,1831.091v10.3a4.317,4.317,0,0,1-.593,2.16h10.051v57.916H5710.57v-57.916h9.606a4.321,4.321,0,0,1-.593-2.16v-10.3H5703.65v77.292h77.292v-77.292Z" transform="translate(-5703.65 -1831.091)" fill="#fafbfc"/>
    </g>
  </g>
</svg>
