<svg xmlns="http://www.w3.org/2000/svg" width="747.828" height="185.168" viewBox="0 0 747.828 185.168">
  <g id="Grupo_76095" data-name="Grupo 76095" transform="translate(366.914 9390)">
    <path id="Path_108315" data-name="Path 108315" d="M2534.334-95.5A90.382,90.382,0,0,1,2605.005-202a90.456,90.456,0,0,1,17.857-1.793,90.353,90.353,0,0,1,84.03,57.145l-9.6,3.8a80.006,80.006,0,0,0-103.8-45.031,80.007,80.007,0,0,0-50.622,74.4,80.452,80.452,0,0,0,1.589,15.935Z" transform="translate(-2899.437 -9186.208)" fill="#f2eefc"/>
    <path id="Ellipse_4363" data-name="Ellipse 4363" d="M70.987,0A70.987,70.987,0,1,1,0,70.987,70.987,70.987,0,0,1,70.987,0Z" transform="translate(-347.633 -9370.545)" fill="#f2eefc"/>
    <path id="Path_108316" data-name="Path 108316" d="M2620.233-46.8a85.86,85.86,0,0,1-80.932-57.36l.723-.252a85,85,0,0,0,108.387,51.968,84.993,84.993,0,0,0,54.343-100.411l.745-.183a85.82,85.82,0,0,1-62.939,103.774,85.809,85.809,0,0,1-20.332,2.464Z" transform="translate(-2896.874 -9167.019)" fill="#87898d"/>
    <path id="Path_108317" data-name="Path 108317" d="M2655.191-150.538a4.325,4.325,0,0,1,3.1-5.27,4.325,4.325,0,0,1,5.27,3.1,4.326,4.326,0,0,1-3.1,5.27h0A4.326,4.326,0,0,1,2655.191-150.538Z" transform="translate(-2853.113 -9168.12)" fill="#87898d"/>
    <path id="Path_108318" data-name="Path 108318" d="M2544.942-117.738a4.325,4.325,0,0,0-5.491-2.694,4.324,4.324,0,0,0-2.7,5.49,4.326,4.326,0,0,0,5.492,2.694h0A4.325,4.325,0,0,0,2544.942-117.738Z" transform="translate(-2897.925 -9154.781)" fill="#87898d"/>
    <path id="Path_108315-2" data-name="Path 108315" d="M2534.334-95.5A90.382,90.382,0,0,1,2605.005-202a90.456,90.456,0,0,1,17.857-1.793,90.353,90.353,0,0,1,84.03,57.145l-9.6,3.8a80.006,80.006,0,0,0-103.8-45.031,80.007,80.007,0,0,0-50.622,74.4,80.452,80.452,0,0,0,1.589,15.935Z" transform="translate(-2329.114 -9177.226)" fill="#f2eefc"/>
    <path id="Ellipse_4363-2" data-name="Ellipse 4363" d="M70.987,0A70.987,70.987,0,1,1,0,70.987,70.987,70.987,0,0,1,70.987,0Z" transform="translate(222.691 -9361.563)" fill="#f2eefc"/>
    <path id="Path_108316-2" data-name="Path 108316" d="M2620.233-46.8a85.86,85.86,0,0,1-80.932-57.36l.723-.252a85,85,0,0,0,108.387,51.968,84.993,84.993,0,0,0,54.343-100.411l.745-.183a85.82,85.82,0,0,1-62.939,103.774,85.809,85.809,0,0,1-20.332,2.464Z" transform="translate(-2326.551 -9158.036)" fill="#87898d"/>
    <path id="Path_108317-2" data-name="Path 108317" d="M2655.191-150.538a4.325,4.325,0,0,1,3.1-5.27,4.325,4.325,0,0,1,5.27,3.1,4.326,4.326,0,0,1-3.1,5.27h0A4.326,4.326,0,0,1,2655.191-150.538Z" transform="translate(-2282.79 -9159.138)" fill="#87898d"/>
    <path id="Path_108318-2" data-name="Path 108318" d="M2544.942-117.738a4.325,4.325,0,0,0-5.491-2.694,4.324,4.324,0,0,0-2.7,5.49,4.326,4.326,0,0,0,5.492,2.694h0A4.325,4.325,0,0,0,2544.942-117.738Z" transform="translate(-2327.601 -9145.799)" fill="#87898d"/>
    <path id="Trazado_148087" data-name="Trazado 148087" d="M35.767,11.071H31.146V14.85h5.369V16H29.74V5.336h6.7v1.15h-5.3V9.921h4.622Zm3.567-3,.044,1a2.888,2.888,0,0,1,2.373-1.143q2.512,0,2.534,2.834V16H42.93V10.756a1.824,1.824,0,0,0-.392-1.267,1.57,1.57,0,0,0-1.2-.41,1.956,1.956,0,0,0-1.157.352,2.387,2.387,0,0,0-.776.923V16H38.052V8.075Zm8.833-1.919V8.075h1.479V9.123H48.167v4.921a1.1,1.1,0,0,0,.2.715.832.832,0,0,0,.674.238,3.281,3.281,0,0,0,.645-.088V16a3.951,3.951,0,0,1-1.04.146,1.687,1.687,0,0,1-1.37-.549,2.36,2.36,0,0,1-.461-1.56V9.123H45.369V8.075h1.443V6.156Zm6.892,3.135a4.06,4.06,0,0,0-.667-.051,1.786,1.786,0,0,0-1.809,1.135V16H51.229V8.075h1.318l.022.916a2.11,2.11,0,0,1,1.89-1.062,1.384,1.384,0,0,1,.6.1ZM60.9,16a2.846,2.846,0,0,1-.19-.835,3.023,3.023,0,0,1-2.256.981,2.8,2.8,0,0,1-1.923-.663,2.145,2.145,0,0,1-.751-1.681,2.24,2.24,0,0,1,.941-1.923,4.437,4.437,0,0,1,2.648-.685h1.318v-.623a1.522,1.522,0,0,0-.425-1.132,1.707,1.707,0,0,0-1.252-.421,1.976,1.976,0,0,0-1.216.366,1.079,1.079,0,0,0-.491.886H55.946a1.87,1.87,0,0,1,.421-1.146,2.874,2.874,0,0,1,1.143-.875,3.844,3.844,0,0,1,1.586-.322,3.133,3.133,0,0,1,2.146.685,2.47,2.47,0,0,1,.806,1.886v3.647a4.459,4.459,0,0,0,.278,1.736V16Zm-2.249-1.033a2.381,2.381,0,0,0,1.208-.33,1.994,1.994,0,0,0,.828-.857V12.155H59.63q-2.49,0-2.49,1.458a1.234,1.234,0,0,0,.425,1A1.633,1.633,0,0,0,58.656,14.967Zm5.186-3a4.642,4.642,0,0,1,.864-2.933,2.941,2.941,0,0,1,4.468-.157V4.75h1.355V16H69.283l-.066-.85a2.759,2.759,0,0,1-2.263,1,2.707,2.707,0,0,1-2.245-1.128,4.7,4.7,0,0,1-.868-2.944Zm1.355.154a3.515,3.515,0,0,0,.557,2.109A1.8,1.8,0,0,0,67.291,15a1.977,1.977,0,0,0,1.882-1.157V10.2a1.992,1.992,0,0,0-1.868-1.121,1.808,1.808,0,0,0-1.553.769A3.87,3.87,0,0,0,65.2,12.125ZM77.523,16a2.846,2.846,0,0,1-.19-.835,3.023,3.023,0,0,1-2.256.981,2.8,2.8,0,0,1-1.923-.663A2.145,2.145,0,0,1,72.4,13.8a2.24,2.24,0,0,1,.941-1.923,4.437,4.437,0,0,1,2.648-.685H77.31v-.623a1.522,1.522,0,0,0-.425-1.132,1.707,1.707,0,0,0-1.252-.421,1.976,1.976,0,0,0-1.216.366,1.079,1.079,0,0,0-.491.886H72.564a1.87,1.87,0,0,1,.421-1.146,2.874,2.874,0,0,1,1.143-.875,3.844,3.844,0,0,1,1.586-.322,3.133,3.133,0,0,1,2.146.685,2.47,2.47,0,0,1,.806,1.886v3.647a4.459,4.459,0,0,0,.278,1.736V16Zm-2.249-1.033a2.381,2.381,0,0,0,1.208-.33,1.994,1.994,0,0,0,.828-.857V12.155H76.248q-2.49,0-2.49,1.458a1.234,1.234,0,0,0,.425,1A1.633,1.633,0,0,0,75.274,14.967ZM85.4,13.9a1,1,0,0,0-.414-.853,3.983,3.983,0,0,0-1.443-.524,6.822,6.822,0,0,1-1.633-.527,2.324,2.324,0,0,1-.894-.732,1.752,1.752,0,0,1-.289-1.011A2.056,2.056,0,0,1,81.555,8.6a3.218,3.218,0,0,1,2.106-.674,3.311,3.311,0,0,1,2.186.7,2.21,2.21,0,0,1,.839,1.78H85.323a1.223,1.223,0,0,0-.472-.959,1.77,1.77,0,0,0-1.19-.4,1.852,1.852,0,0,0-1.157.322,1.014,1.014,0,0,0-.417.842.822.822,0,0,0,.388.74,4.776,4.776,0,0,0,1.4.476,7.308,7.308,0,0,1,1.644.542,2.4,2.4,0,0,1,.934.758,1.864,1.864,0,0,1,.3,1.08,2.028,2.028,0,0,1-.85,1.7,3.564,3.564,0,0,1-2.2.641,3.991,3.991,0,0,1-1.685-.337,2.74,2.74,0,0,1-1.146-.941,2.268,2.268,0,0,1-.414-1.307h1.355a1.4,1.4,0,0,0,.546,1.08,2.117,2.117,0,0,0,1.344.4,2.185,2.185,0,0,0,1.234-.311A.956.956,0,0,0,85.4,13.9ZM31.849,38H30.443V27.336h1.406Zm3.64-7.925.044,1a2.888,2.888,0,0,1,2.373-1.143q2.512,0,2.534,2.834V38H39.085V32.756a1.824,1.824,0,0,0-.392-1.267,1.57,1.57,0,0,0-1.2-.41,1.956,1.956,0,0,0-1.157.352,2.387,2.387,0,0,0-.776.923V38H34.207V30.075ZM47.1,35.9a1,1,0,0,0-.414-.853,3.983,3.983,0,0,0-1.443-.524,6.822,6.822,0,0,1-1.633-.527,2.324,2.324,0,0,1-.894-.732,1.752,1.752,0,0,1-.289-1.011,2.056,2.056,0,0,1,.824-1.648,3.218,3.218,0,0,1,2.106-.674,3.311,3.311,0,0,1,2.186.7,2.21,2.21,0,0,1,.839,1.78H47.017a1.223,1.223,0,0,0-.472-.959,1.77,1.77,0,0,0-1.19-.4,1.852,1.852,0,0,0-1.157.322,1.014,1.014,0,0,0-.417.842.822.822,0,0,0,.388.74,4.776,4.776,0,0,0,1.4.476,7.308,7.308,0,0,1,1.644.542,2.4,2.4,0,0,1,.934.758,1.864,1.864,0,0,1,.3,1.08,2.028,2.028,0,0,1-.85,1.7,3.564,3.564,0,0,1-2.2.641,3.991,3.991,0,0,1-1.685-.337,2.74,2.74,0,0,1-1.146-.941,2.268,2.268,0,0,1-.414-1.307h1.355a1.4,1.4,0,0,0,.546,1.08,2.117,2.117,0,0,0,1.344.4,2.185,2.185,0,0,0,1.234-.311A.956.956,0,0,0,47.1,35.9Zm8.013,1.318a2.878,2.878,0,0,1-2.322.93,2.464,2.464,0,0,1-1.93-.736,3.186,3.186,0,0,1-.67-2.179V30.075h1.355v5.12q0,1.8,1.465,1.8a2.028,2.028,0,0,0,2.065-1.157V30.075h1.355V38H55.14Zm4.651-7.141.037.879a2.927,2.927,0,0,1,2.351-1.025A2.266,2.266,0,0,1,64.412,31.2a3,3,0,0,1,1.029-.923,3.039,3.039,0,0,1,1.5-.352q2.607,0,2.651,2.761V38H68.236V32.771a1.82,1.82,0,0,0-.388-1.271,1.71,1.71,0,0,0-1.3-.421,1.8,1.8,0,0,0-1.252.45,1.827,1.827,0,0,0-.579,1.212V38H63.35V32.807a1.512,1.512,0,0,0-1.692-1.729,1.813,1.813,0,0,0-1.824,1.135V38H58.48V30.075Zm11.514,3.889a4.681,4.681,0,0,1,.458-2.095,3.415,3.415,0,0,1,1.274-1.436,3.469,3.469,0,0,1,1.864-.505,3.342,3.342,0,0,1,2.618,1.121,4.311,4.311,0,0,1,1,2.981v.1a4.722,4.722,0,0,1-.443,2.076,3.365,3.365,0,0,1-1.267,1.432,3.509,3.509,0,0,1-1.893.513,3.334,3.334,0,0,1-2.611-1.121,4.29,4.29,0,0,1-1-2.966Zm1.362.161a3.39,3.39,0,0,0,.612,2.117,2.072,2.072,0,0,0,3.278-.011,3.707,3.707,0,0,0,.608-2.267,3.384,3.384,0,0,0-.619-2.113,1.968,1.968,0,0,0-1.644-.809,1.946,1.946,0,0,0-1.619.8A3.68,3.68,0,0,0,72.637,34.125ZM84.8,35.9a1,1,0,0,0-.414-.853,3.983,3.983,0,0,0-1.443-.524,6.822,6.822,0,0,1-1.633-.527,2.324,2.324,0,0,1-.894-.732,1.752,1.752,0,0,1-.289-1.011,2.056,2.056,0,0,1,.824-1.648,3.218,3.218,0,0,1,2.106-.674,3.311,3.311,0,0,1,2.186.7,2.21,2.21,0,0,1,.839,1.78H84.722a1.223,1.223,0,0,0-.472-.959,1.77,1.77,0,0,0-1.19-.4,1.852,1.852,0,0,0-1.157.322,1.014,1.014,0,0,0-.417.842.822.822,0,0,0,.388.74,4.776,4.776,0,0,0,1.4.476,7.308,7.308,0,0,1,1.644.542,2.4,2.4,0,0,1,.934.758,1.864,1.864,0,0,1,.3,1.08,2.028,2.028,0,0,1-.85,1.7,3.564,3.564,0,0,1-2.2.641,3.991,3.991,0,0,1-1.685-.337,2.74,2.74,0,0,1-1.146-.941,2.268,2.268,0,0,1-.414-1.307h1.355a1.4,1.4,0,0,0,.546,1.08,2.117,2.117,0,0,0,1.344.4,2.185,2.185,0,0,0,1.234-.311A.956.956,0,0,0,84.8,35.9Z" transform="translate(-335.591 -9323.832)" fill="#12263f"/>
    <path id="Trazado_148088" data-name="Trazado 148088" d="M42.034,11.247A6.612,6.612,0,0,1,39.4,9.969,2.442,2.442,0,0,1,38.577,8.1a2.58,2.58,0,0,1,1.007-2.084A4,4,0,0,1,42.2,5.189a4.369,4.369,0,0,1,1.959.425,3.222,3.222,0,0,1,1.333,1.172,3,3,0,0,1,.472,1.633H44.554a1.95,1.95,0,0,0-.615-1.525A2.5,2.5,0,0,0,42.2,6.339,2.561,2.561,0,0,0,40.58,6.8,1.53,1.53,0,0,0,40,8.071a1.376,1.376,0,0,0,.553,1.1A5.424,5.424,0,0,0,42.433,10a8.734,8.734,0,0,1,2.08.825,3.157,3.157,0,0,1,1.113,1.051,2.683,2.683,0,0,1,.363,1.414,2.492,2.492,0,0,1-1.011,2.076,4.31,4.31,0,0,1-2.7.78,5.013,5.013,0,0,1-2.051-.421,3.451,3.451,0,0,1-1.469-1.154,2.815,2.815,0,0,1-.516-1.663h1.414a1.837,1.837,0,0,0,.714,1.527,3.007,3.007,0,0,0,1.908.56,2.764,2.764,0,0,0,1.707-.454,1.475,1.475,0,0,0,.593-1.238,1.448,1.448,0,0,0-.549-1.212A6.333,6.333,0,0,0,42.034,11.247ZM52.471,16a2.846,2.846,0,0,1-.19-.835,3.023,3.023,0,0,1-2.256.981,2.8,2.8,0,0,1-1.923-.663,2.145,2.145,0,0,1-.751-1.681,2.24,2.24,0,0,1,.941-1.923A4.437,4.437,0,0,1,50.94,11.2h1.318v-.623a1.522,1.522,0,0,0-.425-1.132,1.707,1.707,0,0,0-1.252-.421,1.976,1.976,0,0,0-1.216.366,1.079,1.079,0,0,0-.491.886H47.513a1.87,1.87,0,0,1,.421-1.146,2.874,2.874,0,0,1,1.143-.875,3.844,3.844,0,0,1,1.586-.322,3.133,3.133,0,0,1,2.146.685,2.47,2.47,0,0,1,.806,1.886v3.647a4.459,4.459,0,0,0,.278,1.736V16Zm-2.249-1.033a2.381,2.381,0,0,0,1.208-.33,1.994,1.994,0,0,0,.828-.857V12.155H51.2q-2.49,0-2.49,1.458a1.234,1.234,0,0,0,.425,1A1.633,1.633,0,0,0,50.223,14.967ZM57.21,16H55.855V4.75H57.21Zm3.64,0H59.5V8.075H60.85ZM59.385,5.973a.809.809,0,0,1,.2-.557.756.756,0,0,1,.6-.227.768.768,0,0,1,.6.227.8.8,0,0,1,.205.557.774.774,0,0,1-.205.549.782.782,0,0,1-.6.22.77.77,0,0,1-.6-.22A.782.782,0,0,1,59.385,5.973Zm3.3,6a4.642,4.642,0,0,1,.864-2.933,2.941,2.941,0,0,1,4.468-.157V4.75h1.355V16H68.13l-.066-.85a2.759,2.759,0,0,1-2.263,1,2.707,2.707,0,0,1-2.245-1.128,4.7,4.7,0,0,1-.868-2.944Zm1.355.154a3.515,3.515,0,0,0,.557,2.109A1.8,1.8,0,0,0,66.138,15a1.977,1.977,0,0,0,1.882-1.157V10.2a1.992,1.992,0,0,0-1.868-1.121,1.808,1.808,0,0,0-1.553.769A3.87,3.87,0,0,0,64.043,12.125ZM76.37,16a2.846,2.846,0,0,1-.19-.835,3.023,3.023,0,0,1-2.256.981A2.8,2.8,0,0,1,72,15.484,2.145,2.145,0,0,1,71.25,13.8a2.24,2.24,0,0,1,.941-1.923,4.437,4.437,0,0,1,2.648-.685h1.318v-.623a1.522,1.522,0,0,0-.425-1.132A1.707,1.707,0,0,0,74.48,9.02a1.976,1.976,0,0,0-1.216.366,1.079,1.079,0,0,0-.491.886H71.412a1.87,1.87,0,0,1,.421-1.146,2.874,2.874,0,0,1,1.143-.875,3.844,3.844,0,0,1,1.586-.322,3.133,3.133,0,0,1,2.146.685,2.47,2.47,0,0,1,.806,1.886v3.647a4.459,4.459,0,0,0,.278,1.736V16Zm-2.249-1.033a2.381,2.381,0,0,0,1.208-.33,1.994,1.994,0,0,0,.828-.857V12.155H75.1q-2.49,0-2.49,1.458a1.234,1.234,0,0,0,.425,1A1.633,1.633,0,0,0,74.122,14.967ZM84.251,13.9a1,1,0,0,0-.414-.853,3.983,3.983,0,0,0-1.443-.524,6.822,6.822,0,0,1-1.633-.527,2.324,2.324,0,0,1-.894-.732,1.752,1.752,0,0,1-.289-1.011A2.056,2.056,0,0,1,80.4,8.6a3.218,3.218,0,0,1,2.106-.674,3.311,3.311,0,0,1,2.186.7,2.21,2.21,0,0,1,.839,1.78H84.17a1.223,1.223,0,0,0-.472-.959,1.77,1.77,0,0,0-1.19-.4,1.852,1.852,0,0,0-1.157.322,1.014,1.014,0,0,0-.417.842.822.822,0,0,0,.388.74,4.776,4.776,0,0,0,1.4.476,7.308,7.308,0,0,1,1.644.542,2.4,2.4,0,0,1,.934.758,1.864,1.864,0,0,1,.3,1.08,2.028,2.028,0,0,1-.85,1.7,3.564,3.564,0,0,1-2.2.641,3.991,3.991,0,0,1-1.685-.337,2.74,2.74,0,0,1-1.146-.941,2.268,2.268,0,0,1-.414-1.307h1.355a1.4,1.4,0,0,0,.546,1.08,2.117,2.117,0,0,0,1.344.4,2.185,2.185,0,0,0,1.234-.311A.956.956,0,0,0,84.251,13.9ZM33.7,33.686h-2.5V38H29.781V27.336h3.53a4.178,4.178,0,0,1,2.772.82,2.951,2.951,0,0,1,.97,2.388,2.871,2.871,0,0,1-.538,1.736,3.214,3.214,0,0,1-1.5,1.106l2.5,4.526V38H36.014Zm-2.5-1.15h2.161a2.437,2.437,0,0,0,1.666-.543,1.836,1.836,0,0,0,.619-1.453,1.933,1.933,0,0,0-.59-1.519,2.5,2.5,0,0,0-1.7-.536H31.194ZM42.1,38.146a3.463,3.463,0,0,1-2.622-1.058,3.928,3.928,0,0,1-1.011-2.831v-.249a4.756,4.756,0,0,1,.45-2.106,3.514,3.514,0,0,1,1.26-1.45,3.167,3.167,0,0,1,1.754-.524,2.968,2.968,0,0,1,2.4,1.018,4.408,4.408,0,0,1,.857,2.915v.564H39.822a2.817,2.817,0,0,0,.685,1.893,2.153,2.153,0,0,0,1.666.721,2.36,2.36,0,0,0,1.216-.293,3.055,3.055,0,0,0,.872-.776l.828.645A3.328,3.328,0,0,1,42.1,38.146Zm-.168-7.1a1.807,1.807,0,0,0-1.377.6,2.9,2.9,0,0,0-.688,1.674h3.97v-.1a2.581,2.581,0,0,0-.557-1.6A1.7,1.7,0,0,0,41.932,31.042ZM51.373,35.9a1,1,0,0,0-.414-.853,3.983,3.983,0,0,0-1.443-.524,6.822,6.822,0,0,1-1.633-.527,2.324,2.324,0,0,1-.894-.732A1.752,1.752,0,0,1,46.7,32.25a2.056,2.056,0,0,1,.824-1.648,3.218,3.218,0,0,1,2.106-.674,3.311,3.311,0,0,1,2.186.7,2.21,2.21,0,0,1,.839,1.78H51.292a1.223,1.223,0,0,0-.472-.959,1.77,1.77,0,0,0-1.19-.4,1.852,1.852,0,0,0-1.157.322,1.014,1.014,0,0,0-.417.842.822.822,0,0,0,.388.74,4.776,4.776,0,0,0,1.4.476,7.308,7.308,0,0,1,1.644.542,2.4,2.4,0,0,1,.934.758,1.864,1.864,0,0,1,.3,1.08,2.028,2.028,0,0,1-.85,1.7,3.564,3.564,0,0,1-2.2.641,3.991,3.991,0,0,1-1.685-.337,2.74,2.74,0,0,1-1.146-.941,2.268,2.268,0,0,1-.414-1.307h1.355a1.4,1.4,0,0,0,.546,1.08,2.117,2.117,0,0,0,1.344.4,2.185,2.185,0,0,0,1.234-.311A.956.956,0,0,0,51.373,35.9Zm8.013,1.318a2.878,2.878,0,0,1-2.322.93,2.464,2.464,0,0,1-1.93-.736,3.186,3.186,0,0,1-.67-2.179V30.075h1.355v5.12q0,1.8,1.465,1.8a2.028,2.028,0,0,0,2.065-1.157V30.075H60.7V38H59.415ZM64.234,38H62.879V26.75h1.355Zm4.006-9.844v1.919H69.72v1.047H68.24v4.921a1.1,1.1,0,0,0,.2.715.832.832,0,0,0,.674.238,3.281,3.281,0,0,0,.645-.088V38a3.951,3.951,0,0,1-1.04.146,1.687,1.687,0,0,1-1.37-.549,2.36,2.36,0,0,1-.461-1.56V31.123H65.442V30.075h1.443V28.156ZM76.194,38a2.846,2.846,0,0,1-.19-.835,3.023,3.023,0,0,1-2.256.981,2.8,2.8,0,0,1-1.923-.663,2.145,2.145,0,0,1-.751-1.681,2.24,2.24,0,0,1,.941-1.923,4.437,4.437,0,0,1,2.648-.685h1.318v-.623a1.522,1.522,0,0,0-.425-1.132A1.707,1.707,0,0,0,74.3,31.02a1.976,1.976,0,0,0-1.216.366,1.079,1.079,0,0,0-.491.886H71.236a1.87,1.87,0,0,1,.421-1.146,2.874,2.874,0,0,1,1.143-.875,3.844,3.844,0,0,1,1.586-.322,3.133,3.133,0,0,1,2.146.685,2.47,2.47,0,0,1,.806,1.886v3.647a4.459,4.459,0,0,0,.278,1.736V38Zm-2.249-1.033a2.381,2.381,0,0,0,1.208-.33,1.994,1.994,0,0,0,.828-.857V34.155H74.92q-2.49,0-2.49,1.458a1.234,1.234,0,0,0,.425,1A1.633,1.633,0,0,0,73.946,36.967Zm5.186-3A4.642,4.642,0,0,1,80,31.038a2.941,2.941,0,0,1,4.468-.157V26.75h1.355V38H84.573l-.066-.85a2.759,2.759,0,0,1-2.263,1A2.707,2.707,0,0,1,80,37.019a4.7,4.7,0,0,1-.868-2.944Zm1.355.154a3.515,3.515,0,0,0,.557,2.109A1.8,1.8,0,0,0,82.581,37a1.977,1.977,0,0,0,1.882-1.157V32.2A1.992,1.992,0,0,0,82.6,31.079a1.808,1.808,0,0,0-1.553.769A3.87,3.87,0,0,0,80.486,34.125Zm7.075-.161a4.681,4.681,0,0,1,.458-2.095,3.415,3.415,0,0,1,1.274-1.436,3.469,3.469,0,0,1,1.864-.505,3.342,3.342,0,0,1,2.618,1.121,4.311,4.311,0,0,1,1,2.981v.1a4.722,4.722,0,0,1-.443,2.076,3.365,3.365,0,0,1-1.267,1.432,3.509,3.509,0,0,1-1.893.513,3.334,3.334,0,0,1-2.611-1.121,4.29,4.29,0,0,1-1-2.966Zm1.362.161a3.39,3.39,0,0,0,.612,2.117,2.072,2.072,0,0,0,3.278-.011,3.707,3.707,0,0,0,.608-2.267,3.384,3.384,0,0,0-.619-2.113,1.968,1.968,0,0,0-1.644-.809,1.946,1.946,0,0,0-1.619.8A3.68,3.68,0,0,0,88.924,34.125ZM23.859,55.671a11.324,11.324,0,0,1,.443-3.179,9.234,9.234,0,0,1,1.322-2.769,5.624,5.624,0,0,1,1.824-1.758l.278.894a5.833,5.833,0,0,0-1.754,2.5,10.859,10.859,0,0,0-.751,3.772l-.007.623a10.916,10.916,0,0,0,1.033,4.907,5.861,5.861,0,0,0,1.479,1.948l-.278.828a5.8,5.8,0,0,1-1.86-1.816A10.181,10.181,0,0,1,23.859,55.671Zm6.8.154V60H29.25V49.336h3.933a3.952,3.952,0,0,1,2.743.894,3.029,3.029,0,0,1,.992,2.366,2.989,2.989,0,0,1-.97,2.391,4.128,4.128,0,0,1-2.78.839Zm0-1.15h2.527a2.526,2.526,0,0,0,1.729-.532,1.945,1.945,0,0,0,.6-1.537,2.009,2.009,0,0,0-.6-1.526,2.367,2.367,0,0,0-1.648-.594H30.656Zm11.675-1.384a4.06,4.06,0,0,0-.667-.051,1.786,1.786,0,0,0-1.809,1.135V60H38.5V52.075h1.318l.022.916a2.11,2.11,0,0,1,1.89-1.062,1.384,1.384,0,0,1,.6.1Zm.74,2.673a4.681,4.681,0,0,1,.458-2.095A3.415,3.415,0,0,1,44.8,52.434a3.469,3.469,0,0,1,1.864-.505,3.342,3.342,0,0,1,2.618,1.121,4.311,4.311,0,0,1,1,2.981v.1a4.722,4.722,0,0,1-.443,2.076,3.365,3.365,0,0,1-1.267,1.432,3.509,3.509,0,0,1-1.893.513,3.334,3.334,0,0,1-2.611-1.121,4.29,4.29,0,0,1-1-2.966Zm1.362.161a3.39,3.39,0,0,0,.612,2.117,2.072,2.072,0,0,0,3.278-.011,3.707,3.707,0,0,0,.608-2.267,3.384,3.384,0,0,0-.619-2.113,1.968,1.968,0,0,0-1.644-.809,1.946,1.946,0,0,0-1.619.8A3.68,3.68,0,0,0,44.433,56.125Zm7.222-.154a4.642,4.642,0,0,1,.864-2.933,2.941,2.941,0,0,1,4.468-.157V48.75h1.355V60H57.1l-.066-.85a2.759,2.759,0,0,1-2.263,1,2.707,2.707,0,0,1-2.245-1.128,4.7,4.7,0,0,1-.868-2.944Zm1.355.154a3.515,3.515,0,0,0,.557,2.109A1.8,1.8,0,0,0,55.1,59a1.977,1.977,0,0,0,1.882-1.157V54.2a1.992,1.992,0,0,0-1.868-1.121,1.808,1.808,0,0,0-1.553.769A3.87,3.87,0,0,0,53.01,56.125Zm12.327,3.091a2.878,2.878,0,0,1-2.322.93,2.464,2.464,0,0,1-1.93-.736,3.186,3.186,0,0,1-.67-2.179V52.075h1.355v5.12q0,1.8,1.465,1.8A2.028,2.028,0,0,0,65.3,57.839V52.075h1.355V60H65.365Zm6.555-.176a1.952,1.952,0,0,0,1.267-.439,1.546,1.546,0,0,0,.6-1.1h1.282a2.457,2.457,0,0,1-.469,1.3,3.087,3.087,0,0,1-1.154.981,3.329,3.329,0,0,1-1.527.366,3.265,3.265,0,0,1-2.574-1.08,4.3,4.3,0,0,1-.956-2.955v-.227a4.771,4.771,0,0,1,.425-2.058,3.236,3.236,0,0,1,1.219-1.4,3.464,3.464,0,0,1,1.879-.5,3.178,3.178,0,0,1,2.216.8,2.853,2.853,0,0,1,.941,2.073H73.759a1.867,1.867,0,0,0-.582-1.263,1.811,1.811,0,0,0-1.293-.494,1.9,1.9,0,0,0-1.6.743,3.491,3.491,0,0,0-.568,2.15v.256A3.422,3.422,0,0,0,70.28,58.3,1.906,1.906,0,0,0,71.891,59.041ZM78.4,50.156v1.919h1.479v1.047H78.4v4.921a1.1,1.1,0,0,0,.2.715.832.832,0,0,0,.674.238,3.281,3.281,0,0,0,.645-.088V60a3.951,3.951,0,0,1-1.04.146,1.687,1.687,0,0,1-1.37-.549,2.36,2.36,0,0,1-.461-1.56V53.123H75.6V52.075h1.443V50.156Zm2.556,5.808a4.681,4.681,0,0,1,.458-2.095,3.415,3.415,0,0,1,1.274-1.436,3.469,3.469,0,0,1,1.864-.505,3.342,3.342,0,0,1,2.618,1.121,4.311,4.311,0,0,1,1,2.981v.1A4.722,4.722,0,0,1,87.73,58.2a3.365,3.365,0,0,1-1.267,1.432,3.509,3.509,0,0,1-1.893.513,3.334,3.334,0,0,1-2.611-1.121,4.29,4.29,0,0,1-1-2.966Zm1.362.161a3.39,3.39,0,0,0,.612,2.117,2.072,2.072,0,0,0,3.278-.011,3.707,3.707,0,0,0,.608-2.267,3.384,3.384,0,0,0-.619-2.113,1.968,1.968,0,0,0-1.644-.809,1.946,1.946,0,0,0-1.619.8A3.68,3.68,0,0,0,82.321,56.125Zm10.906-.161a4.681,4.681,0,0,1,.458-2.095,3.415,3.415,0,0,1,1.274-1.436,3.469,3.469,0,0,1,1.864-.505,3.342,3.342,0,0,1,2.618,1.121,4.311,4.311,0,0,1,1,2.981v.1A4.722,4.722,0,0,1,100,58.2a3.365,3.365,0,0,1-1.267,1.432,3.509,3.509,0,0,1-1.893.513,3.334,3.334,0,0,1-2.611-1.121,4.29,4.29,0,0,1-1-2.966Zm1.362.161a3.39,3.39,0,0,0,.612,2.117,2.072,2.072,0,0,0,3.278-.011,3.707,3.707,0,0,0,.608-2.267,3.384,3.384,0,0,0-.619-2.113,1.968,1.968,0,0,0-1.644-.809,1.946,1.946,0,0,0-1.619.8A3.68,3.68,0,0,0,94.589,56.125ZM37.27,77.247a6.612,6.612,0,0,1-2.633-1.278,2.442,2.442,0,0,1-.824-1.871,2.58,2.58,0,0,1,1.007-2.084,4,4,0,0,1,2.618-.824,4.369,4.369,0,0,1,1.959.425,3.222,3.222,0,0,1,1.333,1.172,3,3,0,0,1,.472,1.633H39.789a1.95,1.95,0,0,0-.615-1.525,2.5,2.5,0,0,0-1.736-.555,2.561,2.561,0,0,0-1.622.459,1.53,1.53,0,0,0-.582,1.273,1.376,1.376,0,0,0,.553,1.1A5.424,5.424,0,0,0,37.669,76a8.734,8.734,0,0,1,2.08.825,3.157,3.157,0,0,1,1.113,1.051,2.683,2.683,0,0,1,.363,1.414,2.492,2.492,0,0,1-1.011,2.076,4.31,4.31,0,0,1-2.7.78,5.013,5.013,0,0,1-2.051-.421,3.451,3.451,0,0,1-1.469-1.154,2.815,2.815,0,0,1-.516-1.663h1.414a1.837,1.837,0,0,0,.714,1.527,3.007,3.007,0,0,0,1.908.56,2.764,2.764,0,0,0,1.707-.454,1.475,1.475,0,0,0,.593-1.238,1.448,1.448,0,0,0-.549-1.212A6.333,6.333,0,0,0,37.27,77.247Zm8.833,4.9a3.463,3.463,0,0,1-2.622-1.058,3.928,3.928,0,0,1-1.011-2.831v-.249a4.756,4.756,0,0,1,.45-2.106,3.514,3.514,0,0,1,1.26-1.45,3.167,3.167,0,0,1,1.754-.524,2.968,2.968,0,0,1,2.4,1.018,4.408,4.408,0,0,1,.857,2.915v.564H43.825a2.817,2.817,0,0,0,.685,1.893,2.153,2.153,0,0,0,1.666.721,2.36,2.36,0,0,0,1.216-.293,3.055,3.055,0,0,0,.872-.776l.828.645A3.328,3.328,0,0,1,46.1,82.146Zm-.168-7.1a1.807,1.807,0,0,0-1.377.6,2.9,2.9,0,0,0-.688,1.674h3.97v-.1a2.581,2.581,0,0,0-.557-1.6A1.7,1.7,0,0,0,45.934,75.042Zm8.657.249a4.06,4.06,0,0,0-.667-.051,1.786,1.786,0,0,0-1.809,1.135V82H50.761V74.075h1.318l.022.916a2.11,2.11,0,0,1,1.89-1.062,1.384,1.384,0,0,1,.6.1Zm3.992,4.871,1.963-6.086H61.93L59.089,82H58.056l-2.871-7.925h1.384ZM64.706,82H63.351V74.075h1.355ZM63.241,71.973a.809.809,0,0,1,.2-.557.756.756,0,0,1,.6-.227.768.768,0,0,1,.6.227.8.8,0,0,1,.205.557.774.774,0,0,1-.205.549.782.782,0,0,1-.6.22.77.77,0,0,1-.6-.22A.782.782,0,0,1,63.241,71.973Zm6.812,9.067A1.952,1.952,0,0,0,71.32,80.6a1.546,1.546,0,0,0,.6-1.1H73.2a2.457,2.457,0,0,1-.469,1.3,3.087,3.087,0,0,1-1.154.981,3.329,3.329,0,0,1-1.527.366,3.265,3.265,0,0,1-2.574-1.08,4.3,4.3,0,0,1-.956-2.955v-.227a4.771,4.771,0,0,1,.425-2.058,3.236,3.236,0,0,1,1.219-1.4,3.464,3.464,0,0,1,1.879-.5,3.178,3.178,0,0,1,2.216.8A2.853,2.853,0,0,1,73.2,76.8H71.921a1.867,1.867,0,0,0-.582-1.263,1.811,1.811,0,0,0-1.293-.494,1.9,1.9,0,0,0-1.6.743,3.491,3.491,0,0,0-.568,2.15v.256a3.422,3.422,0,0,0,.564,2.109A1.906,1.906,0,0,0,70.053,81.041ZM76.2,82H74.843V74.075H76.2ZM74.733,71.973a.809.809,0,0,1,.2-.557.756.756,0,0,1,.6-.227.768.768,0,0,1,.6.227.8.8,0,0,1,.205.557.774.774,0,0,1-.205.549.782.782,0,0,1-.6.22.77.77,0,0,1-.6-.22A.782.782,0,0,1,74.733,71.973Zm3.274,5.991a4.681,4.681,0,0,1,.458-2.095,3.415,3.415,0,0,1,1.274-1.436,3.469,3.469,0,0,1,1.864-.505,3.342,3.342,0,0,1,2.618,1.121,4.311,4.311,0,0,1,1,2.981v.1a4.722,4.722,0,0,1-.443,2.076,3.365,3.365,0,0,1-1.267,1.432,3.509,3.509,0,0,1-1.893.513,3.334,3.334,0,0,1-2.611-1.121,4.29,4.29,0,0,1-1-2.966Zm1.362.161a3.39,3.39,0,0,0,.612,2.117,2.072,2.072,0,0,0,3.278-.011,3.707,3.707,0,0,0,.608-2.267,3.384,3.384,0,0,0-.619-2.113,1.968,1.968,0,0,0-1.644-.809,1.946,1.946,0,0,0-1.619.8A3.68,3.68,0,0,0,79.369,78.125Zm10.679-.381a11.329,11.329,0,0,1-.428,3.131,9.259,9.259,0,0,1-1.311,2.765,5.744,5.744,0,0,1-1.849,1.8l-.286-.828a5.888,5.888,0,0,0,1.813-2.684,11.613,11.613,0,0,0,.7-4.039v-.234a12.057,12.057,0,0,0-.322-2.86,9.653,9.653,0,0,0-.9-2.369,5.473,5.473,0,0,0-1.293-1.633l.286-.828A5.722,5.722,0,0,1,88.3,71.753a9.278,9.278,0,0,1,1.311,2.761A11.591,11.591,0,0,1,90.048,77.745Z" transform="translate(230.662 -9332.85)" fill="#12263f"/>
    <path id="Trazado_148089" data-name="Trazado 148089" d="M0,0H366V81H0Z" transform="translate(-180.591 -9382.832)" fill="#7e5ee3"/>
    <path id="Trazado_148090" data-name="Trazado 148090" d="M0,0H134V52H0Z" transform="translate(-64.591 -9256.832)" fill="#81d4fa"/>
    <path id="Trazado_148091" data-name="Trazado 148091" d="M20.127,11.825V16H18.721V5.336h3.933a3.952,3.952,0,0,1,2.743.894A3.029,3.029,0,0,1,26.389,8.6a2.989,2.989,0,0,1-.97,2.391,4.128,4.128,0,0,1-2.78.839Zm0-1.15h2.527a2.526,2.526,0,0,0,1.729-.532,1.945,1.945,0,0,0,.6-1.537,2.009,2.009,0,0,0-.6-1.526,2.367,2.367,0,0,0-1.648-.594H20.127ZM31.8,9.291a4.06,4.06,0,0,0-.667-.051,1.786,1.786,0,0,0-1.809,1.135V16H27.971V8.075H29.29l.022.916A2.11,2.11,0,0,1,31.2,7.929a1.384,1.384,0,0,1,.6.1Zm.74,2.673A4.681,4.681,0,0,1,33,9.87a3.415,3.415,0,0,1,1.274-1.436,3.469,3.469,0,0,1,1.864-.505,3.342,3.342,0,0,1,2.618,1.121,4.311,4.311,0,0,1,1,2.981v.1a4.722,4.722,0,0,1-.443,2.076,3.365,3.365,0,0,1-1.267,1.432,3.509,3.509,0,0,1-1.893.513,3.334,3.334,0,0,1-2.611-1.121,4.29,4.29,0,0,1-1-2.966Zm1.362.161a3.39,3.39,0,0,0,.612,2.117,2.072,2.072,0,0,0,3.278-.011,3.707,3.707,0,0,0,.608-2.267,3.384,3.384,0,0,0-.619-2.113,1.968,1.968,0,0,0-1.644-.809,1.946,1.946,0,0,0-1.619.8A3.68,3.68,0,0,0,33.9,12.125Zm10.73,2.915A1.952,1.952,0,0,0,45.9,14.6a1.546,1.546,0,0,0,.6-1.1h1.282a2.457,2.457,0,0,1-.469,1.3,3.087,3.087,0,0,1-1.154.981,3.329,3.329,0,0,1-1.527.366,3.265,3.265,0,0,1-2.574-1.08,4.3,4.3,0,0,1-.956-2.955v-.227a4.771,4.771,0,0,1,.425-2.058,3.236,3.236,0,0,1,1.219-1.4,3.464,3.464,0,0,1,1.879-.5,3.178,3.178,0,0,1,2.216.8,2.853,2.853,0,0,1,.941,2.073H46.5a1.867,1.867,0,0,0-.582-1.263,1.811,1.811,0,0,0-1.293-.494,1.9,1.9,0,0,0-1.6.743,3.491,3.491,0,0,0-.568,2.15v.256a3.422,3.422,0,0,0,.564,2.109A1.906,1.906,0,0,0,44.634,15.041ZM52.6,16.146a3.463,3.463,0,0,1-2.622-1.058,3.928,3.928,0,0,1-1.011-2.831v-.249a4.756,4.756,0,0,1,.45-2.106,3.514,3.514,0,0,1,1.26-1.45,3.167,3.167,0,0,1,1.754-.524,2.968,2.968,0,0,1,2.4,1.018,4.408,4.408,0,0,1,.857,2.915v.564H50.317A2.817,2.817,0,0,0,51,14.319a2.153,2.153,0,0,0,1.666.721,2.36,2.36,0,0,0,1.216-.293,3.055,3.055,0,0,0,.872-.776l.828.645A3.328,3.328,0,0,1,52.6,16.146Zm-.168-7.1a1.807,1.807,0,0,0-1.377.6,2.9,2.9,0,0,0-.688,1.674h3.97v-.1a2.581,2.581,0,0,0-.557-1.6A1.7,1.7,0,0,0,52.427,9.042ZM61.868,13.9a1,1,0,0,0-.414-.853,3.983,3.983,0,0,0-1.443-.524,6.822,6.822,0,0,1-1.633-.527,2.324,2.324,0,0,1-.894-.732,1.752,1.752,0,0,1-.289-1.011A2.056,2.056,0,0,1,58.019,8.6a3.218,3.218,0,0,1,2.106-.674,3.311,3.311,0,0,1,2.186.7,2.21,2.21,0,0,1,.839,1.78H61.787a1.223,1.223,0,0,0-.472-.959,1.77,1.77,0,0,0-1.19-.4,1.852,1.852,0,0,0-1.157.322,1.014,1.014,0,0,0-.417.842.822.822,0,0,0,.388.74,4.776,4.776,0,0,0,1.4.476,7.308,7.308,0,0,1,1.644.542,2.4,2.4,0,0,1,.934.758,1.864,1.864,0,0,1,.3,1.08,2.028,2.028,0,0,1-.85,1.7,3.564,3.564,0,0,1-2.2.641,3.991,3.991,0,0,1-1.685-.337,2.74,2.74,0,0,1-1.146-.941,2.268,2.268,0,0,1-.414-1.307h1.355a1.4,1.4,0,0,0,.546,1.08,2.117,2.117,0,0,0,1.344.4,2.185,2.185,0,0,0,1.234-.311A.956.956,0,0,0,61.868,13.9Zm2.761-1.934a4.681,4.681,0,0,1,.458-2.095,3.415,3.415,0,0,1,1.274-1.436,3.469,3.469,0,0,1,1.864-.505,3.342,3.342,0,0,1,2.618,1.121,4.311,4.311,0,0,1,1,2.981v.1A4.722,4.722,0,0,1,71.4,14.2a3.365,3.365,0,0,1-1.267,1.432,3.509,3.509,0,0,1-1.893.513,3.334,3.334,0,0,1-2.611-1.121,4.29,4.29,0,0,1-1-2.966Zm1.362.161a3.39,3.39,0,0,0,.612,2.117,2.072,2.072,0,0,0,3.278-.011,3.707,3.707,0,0,0,.608-2.267,3.384,3.384,0,0,0-.619-2.113,1.968,1.968,0,0,0-1.644-.809,1.946,1.946,0,0,0-1.619.8A3.68,3.68,0,0,0,65.991,12.125Z" transform="translate(-46.591 -9372.832)" fill="#fff"/>
    <path id="Trazado_148092" data-name="Trazado 148092" d="M18.948,11.686h-2.5V16H15.029V5.336h3.53a4.178,4.178,0,0,1,2.772.82,2.951,2.951,0,0,1,.97,2.388,2.871,2.871,0,0,1-.538,1.736,3.214,3.214,0,0,1-1.5,1.106l2.5,4.526V16H21.262Zm-2.5-1.15H18.6a2.437,2.437,0,0,0,1.666-.543,1.836,1.836,0,0,0,.619-1.453,1.933,1.933,0,0,0-.59-1.519,2.5,2.5,0,0,0-1.7-.536H16.443Zm10.906,5.61a3.463,3.463,0,0,1-2.622-1.058,3.928,3.928,0,0,1-1.011-2.831v-.249a4.756,4.756,0,0,1,.45-2.106,3.514,3.514,0,0,1,1.26-1.45,3.167,3.167,0,0,1,1.754-.524,2.968,2.968,0,0,1,2.4,1.018,4.408,4.408,0,0,1,.857,2.915v.564H25.071a2.817,2.817,0,0,0,.685,1.893,2.153,2.153,0,0,0,1.666.721,2.36,2.36,0,0,0,1.216-.293,3.055,3.055,0,0,0,.872-.776l.828.645A3.328,3.328,0,0,1,27.349,16.146Zm-.168-7.1a1.807,1.807,0,0,0-1.377.6,2.9,2.9,0,0,0-.688,1.674h3.97v-.1a2.581,2.581,0,0,0-.557-1.6A1.7,1.7,0,0,0,27.18,9.042Zm8.005,6a1.952,1.952,0,0,0,1.267-.439,1.546,1.546,0,0,0,.6-1.1h1.282a2.457,2.457,0,0,1-.469,1.3,3.087,3.087,0,0,1-1.154.981,3.329,3.329,0,0,1-1.527.366,3.265,3.265,0,0,1-2.574-1.08,4.3,4.3,0,0,1-.956-2.955v-.227a4.771,4.771,0,0,1,.425-2.058,3.236,3.236,0,0,1,1.219-1.4,3.464,3.464,0,0,1,1.879-.5,3.178,3.178,0,0,1,2.216.8,2.853,2.853,0,0,1,.941,2.073H37.053a1.867,1.867,0,0,0-.582-1.263,1.811,1.811,0,0,0-1.293-.494,1.9,1.9,0,0,0-1.6.743,3.491,3.491,0,0,0-.568,2.15v.256a3.422,3.422,0,0,0,.564,2.109A1.906,1.906,0,0,0,35.186,15.041Zm9.565.176a2.878,2.878,0,0,1-2.322.93,2.464,2.464,0,0,1-1.93-.736,3.186,3.186,0,0,1-.67-2.179V8.075h1.355v5.12q0,1.8,1.465,1.8a2.028,2.028,0,0,0,2.065-1.157V8.075h1.355V16H44.78Zm7.207-5.925a4.06,4.06,0,0,0-.667-.051,1.786,1.786,0,0,0-1.809,1.135V16H48.127V8.075h1.318l.022.916a2.11,2.11,0,0,1,1.89-1.062,1.384,1.384,0,0,1,.6.1ZM57.817,13.9a1,1,0,0,0-.414-.853,3.983,3.983,0,0,0-1.443-.524,6.822,6.822,0,0,1-1.633-.527,2.324,2.324,0,0,1-.894-.732,1.752,1.752,0,0,1-.289-1.011A2.056,2.056,0,0,1,53.969,8.6a3.218,3.218,0,0,1,2.106-.674,3.311,3.311,0,0,1,2.186.7A2.21,2.21,0,0,1,59.1,10.4H57.737a1.223,1.223,0,0,0-.472-.959,1.77,1.77,0,0,0-1.19-.4,1.852,1.852,0,0,0-1.157.322,1.014,1.014,0,0,0-.417.842.822.822,0,0,0,.388.74,4.776,4.776,0,0,0,1.4.476,7.308,7.308,0,0,1,1.644.542,2.4,2.4,0,0,1,.934.758,1.864,1.864,0,0,1,.3,1.08,2.028,2.028,0,0,1-.85,1.7,3.564,3.564,0,0,1-2.2.641,3.991,3.991,0,0,1-1.685-.337,2.74,2.74,0,0,1-1.146-.941,2.268,2.268,0,0,1-.414-1.307h1.355a1.4,1.4,0,0,0,.546,1.08,2.117,2.117,0,0,0,1.344.4,2.185,2.185,0,0,0,1.234-.311A.956.956,0,0,0,57.817,13.9Zm2.761-1.934a4.681,4.681,0,0,1,.458-2.095,3.415,3.415,0,0,1,1.274-1.436,3.469,3.469,0,0,1,1.864-.505,3.342,3.342,0,0,1,2.618,1.121,4.311,4.311,0,0,1,1,2.981v.1A4.722,4.722,0,0,1,67.35,14.2a3.365,3.365,0,0,1-1.267,1.432,3.509,3.509,0,0,1-1.893.513,3.334,3.334,0,0,1-2.611-1.121,4.29,4.29,0,0,1-1-2.966Zm1.362.161a3.39,3.39,0,0,0,.612,2.117,2.072,2.072,0,0,0,3.278-.011,3.707,3.707,0,0,0,.608-2.267,3.384,3.384,0,0,0-.619-2.113,1.968,1.968,0,0,0-1.644-.809,1.946,1.946,0,0,0-1.619.8A3.68,3.68,0,0,0,61.941,12.125ZM74.106,13.9a1,1,0,0,0-.414-.853,3.983,3.983,0,0,0-1.443-.524,6.822,6.822,0,0,1-1.633-.527,2.324,2.324,0,0,1-.894-.732,1.752,1.752,0,0,1-.289-1.011A2.056,2.056,0,0,1,70.258,8.6a3.218,3.218,0,0,1,2.106-.674,3.311,3.311,0,0,1,2.186.7,2.21,2.21,0,0,1,.839,1.78H74.026a1.223,1.223,0,0,0-.472-.959,1.77,1.77,0,0,0-1.19-.4,1.852,1.852,0,0,0-1.157.322,1.014,1.014,0,0,0-.417.842.822.822,0,0,0,.388.74,4.776,4.776,0,0,0,1.4.476,7.308,7.308,0,0,1,1.644.542,2.4,2.4,0,0,1,.934.758,1.864,1.864,0,0,1,.3,1.08,2.028,2.028,0,0,1-.85,1.7,3.564,3.564,0,0,1-2.2.641,3.991,3.991,0,0,1-1.685-.337,2.74,2.74,0,0,1-1.146-.941,2.268,2.268,0,0,1-.414-1.307h1.355a1.4,1.4,0,0,0,.546,1.08,2.117,2.117,0,0,0,1.344.4,2.185,2.185,0,0,0,1.234-.311A.956.956,0,0,0,74.106,13.9Z" transform="translate(-46.591 -9240.832)" fill="#12263f"/>
    <path id="Trazado_148093" data-name="Trazado 148093" d="M21.046,13.209H16.578l-1,2.791h-1.45L18.2,5.336h1.23L23.507,16H22.064ZM17,12.06h3.625L18.812,7.072Zm10.906,2.981a1.952,1.952,0,0,0,1.267-.439,1.546,1.546,0,0,0,.6-1.1h1.282a2.457,2.457,0,0,1-.469,1.3,3.087,3.087,0,0,1-1.154.981,3.329,3.329,0,0,1-1.527.366,3.265,3.265,0,0,1-2.574-1.08,4.3,4.3,0,0,1-.956-2.955v-.227A4.771,4.771,0,0,1,24.8,9.826a3.236,3.236,0,0,1,1.219-1.4,3.464,3.464,0,0,1,1.879-.5,3.178,3.178,0,0,1,2.216.8,2.853,2.853,0,0,1,.941,2.073H29.777a1.867,1.867,0,0,0-.582-1.263A1.811,1.811,0,0,0,27.9,9.042a1.9,1.9,0,0,0-1.6.743,3.491,3.491,0,0,0-.568,2.15v.256A3.422,3.422,0,0,0,26.3,14.3,1.906,1.906,0,0,0,27.909,15.041ZM34.42,6.156V8.075H35.9V9.123H34.42v4.921a1.1,1.1,0,0,0,.2.715.832.832,0,0,0,.674.238,3.281,3.281,0,0,0,.645-.088V16a3.951,3.951,0,0,1-1.04.146,1.687,1.687,0,0,1-1.37-.549,2.36,2.36,0,0,1-.461-1.56V9.123H31.622V8.075h1.443V6.156ZM38.954,16H37.6V8.075h1.355ZM37.489,5.973a.809.809,0,0,1,.2-.557.756.756,0,0,1,.6-.227.768.768,0,0,1,.6.227.8.8,0,0,1,.205.557.774.774,0,0,1-.205.549.782.782,0,0,1-.6.22.77.77,0,0,1-.6-.22A.782.782,0,0,1,37.489,5.973Zm6.248,8.188L45.7,8.075h1.384L44.242,16H43.209L40.338,8.075h1.384ZM49.86,16H48.5V8.075H49.86ZM48.395,5.973a.809.809,0,0,1,.2-.557.756.756,0,0,1,.6-.227.768.768,0,0,1,.6.227A.8.8,0,0,1,50,5.973a.774.774,0,0,1-.205.549.782.782,0,0,1-.6.22.77.77,0,0,1-.6-.22A.782.782,0,0,1,48.395,5.973Zm3.3,6a4.642,4.642,0,0,1,.864-2.933,2.941,2.941,0,0,1,4.468-.157V4.75h1.355V16H57.14l-.066-.85a2.759,2.759,0,0,1-2.263,1,2.707,2.707,0,0,1-2.245-1.128,4.7,4.7,0,0,1-.868-2.944Zm1.355.154a3.515,3.515,0,0,0,.557,2.109A1.8,1.8,0,0,0,55.148,15a1.977,1.977,0,0,0,1.882-1.157V10.2a1.992,1.992,0,0,0-1.868-1.121,1.808,1.808,0,0,0-1.553.769A3.87,3.87,0,0,0,53.053,12.125ZM65.38,16a2.846,2.846,0,0,1-.19-.835,3.023,3.023,0,0,1-2.256.981,2.8,2.8,0,0,1-1.923-.663A2.145,2.145,0,0,1,60.26,13.8,2.24,2.24,0,0,1,61.2,11.88a4.437,4.437,0,0,1,2.648-.685h1.318v-.623a1.522,1.522,0,0,0-.425-1.132A1.707,1.707,0,0,0,63.49,9.02a1.976,1.976,0,0,0-1.216.366,1.079,1.079,0,0,0-.491.886H60.421a1.87,1.87,0,0,1,.421-1.146,2.874,2.874,0,0,1,1.143-.875,3.844,3.844,0,0,1,1.586-.322,3.133,3.133,0,0,1,2.146.685,2.47,2.47,0,0,1,.806,1.886v3.647a4.459,4.459,0,0,0,.278,1.736V16Zm-2.249-1.033a2.381,2.381,0,0,0,1.208-.33,1.994,1.994,0,0,0,.828-.857V12.155H64.105q-2.49,0-2.49,1.458a1.234,1.234,0,0,0,.425,1A1.633,1.633,0,0,0,63.131,14.967Zm5.186-3a4.642,4.642,0,0,1,.864-2.933,2.941,2.941,0,0,1,4.468-.157V4.75H75V16H73.759l-.066-.85a2.759,2.759,0,0,1-2.263,1,2.707,2.707,0,0,1-2.245-1.128,4.7,4.7,0,0,1-.868-2.944Zm1.355.154a3.515,3.515,0,0,0,.557,2.109A1.8,1.8,0,0,0,71.766,15a1.977,1.977,0,0,0,1.882-1.157V10.2a1.992,1.992,0,0,0-1.868-1.121,1.808,1.808,0,0,0-1.553.769A3.87,3.87,0,0,0,69.672,12.125Z" transform="translate(-164.591 -9339.832)" fill="#fff"/>
    <path id="Trazado_148094" data-name="Trazado 148094" d="M21.046,13.209H16.578l-1,2.791h-1.45L18.2,5.336h1.23L23.507,16H22.064ZM17,12.06h3.625L18.812,7.072Zm10.906,2.981a1.952,1.952,0,0,0,1.267-.439,1.546,1.546,0,0,0,.6-1.1h1.282a2.457,2.457,0,0,1-.469,1.3,3.087,3.087,0,0,1-1.154.981,3.329,3.329,0,0,1-1.527.366,3.265,3.265,0,0,1-2.574-1.08,4.3,4.3,0,0,1-.956-2.955v-.227A4.771,4.771,0,0,1,24.8,9.826a3.236,3.236,0,0,1,1.219-1.4,3.464,3.464,0,0,1,1.879-.5,3.178,3.178,0,0,1,2.216.8,2.853,2.853,0,0,1,.941,2.073H29.777a1.867,1.867,0,0,0-.582-1.263A1.811,1.811,0,0,0,27.9,9.042a1.9,1.9,0,0,0-1.6.743,3.491,3.491,0,0,0-.568,2.15v.256A3.422,3.422,0,0,0,26.3,14.3,1.906,1.906,0,0,0,27.909,15.041ZM34.42,6.156V8.075H35.9V9.123H34.42v4.921a1.1,1.1,0,0,0,.2.715.832.832,0,0,0,.674.238,3.281,3.281,0,0,0,.645-.088V16a3.951,3.951,0,0,1-1.04.146,1.687,1.687,0,0,1-1.37-.549,2.36,2.36,0,0,1-.461-1.56V9.123H31.622V8.075h1.443V6.156ZM38.954,16H37.6V8.075h1.355ZM37.489,5.973a.809.809,0,0,1,.2-.557.756.756,0,0,1,.6-.227.768.768,0,0,1,.6.227.8.8,0,0,1,.205.557.774.774,0,0,1-.205.549.782.782,0,0,1-.6.22.77.77,0,0,1-.6-.22A.782.782,0,0,1,37.489,5.973Zm6.248,8.188L45.7,8.075h1.384L44.242,16H43.209L40.338,8.075h1.384ZM49.86,16H48.5V8.075H49.86ZM48.395,5.973a.809.809,0,0,1,.2-.557.756.756,0,0,1,.6-.227.768.768,0,0,1,.6.227A.8.8,0,0,1,50,5.973a.774.774,0,0,1-.205.549.782.782,0,0,1-.6.22.77.77,0,0,1-.6-.22A.782.782,0,0,1,48.395,5.973Zm3.3,6a4.642,4.642,0,0,1,.864-2.933,2.941,2.941,0,0,1,4.468-.157V4.75h1.355V16H57.14l-.066-.85a2.759,2.759,0,0,1-2.263,1,2.707,2.707,0,0,1-2.245-1.128,4.7,4.7,0,0,1-.868-2.944Zm1.355.154a3.515,3.515,0,0,0,.557,2.109A1.8,1.8,0,0,0,55.148,15a1.977,1.977,0,0,0,1.882-1.157V10.2a1.992,1.992,0,0,0-1.868-1.121,1.808,1.808,0,0,0-1.553.769A3.87,3.87,0,0,0,53.053,12.125ZM65.38,16a2.846,2.846,0,0,1-.19-.835,3.023,3.023,0,0,1-2.256.981,2.8,2.8,0,0,1-1.923-.663A2.145,2.145,0,0,1,60.26,13.8,2.24,2.24,0,0,1,61.2,11.88a4.437,4.437,0,0,1,2.648-.685h1.318v-.623a1.522,1.522,0,0,0-.425-1.132A1.707,1.707,0,0,0,63.49,9.02a1.976,1.976,0,0,0-1.216.366,1.079,1.079,0,0,0-.491.886H60.421a1.87,1.87,0,0,1,.421-1.146,2.874,2.874,0,0,1,1.143-.875,3.844,3.844,0,0,1,1.586-.322,3.133,3.133,0,0,1,2.146.685,2.47,2.47,0,0,1,.806,1.886v3.647a4.459,4.459,0,0,0,.278,1.736V16Zm-2.249-1.033a2.381,2.381,0,0,0,1.208-.33,1.994,1.994,0,0,0,.828-.857V12.155H64.105q-2.49,0-2.49,1.458a1.234,1.234,0,0,0,.425,1A1.633,1.633,0,0,0,63.131,14.967Zm5.186-3a4.642,4.642,0,0,1,.864-2.933,2.941,2.941,0,0,1,4.468-.157V4.75H75V16H73.759l-.066-.85a2.759,2.759,0,0,1-2.263,1,2.707,2.707,0,0,1-2.245-1.128,4.7,4.7,0,0,1-.868-2.944Zm1.355.154a3.515,3.515,0,0,0,.557,2.109A1.8,1.8,0,0,0,71.766,15a1.977,1.977,0,0,0,1.882-1.157V10.2a1.992,1.992,0,0,0-1.868-1.121,1.808,1.808,0,0,0-1.553.769A3.87,3.87,0,0,0,69.672,12.125Z" transform="translate(-49.591 -9339.832)" fill="#fff"/>
    <path id="Trazado_148095" data-name="Trazado 148095" d="M21.046,13.209H16.578l-1,2.791h-1.45L18.2,5.336h1.23L23.507,16H22.064ZM17,12.06h3.625L18.812,7.072Zm10.906,2.981a1.952,1.952,0,0,0,1.267-.439,1.546,1.546,0,0,0,.6-1.1h1.282a2.457,2.457,0,0,1-.469,1.3,3.087,3.087,0,0,1-1.154.981,3.329,3.329,0,0,1-1.527.366,3.265,3.265,0,0,1-2.574-1.08,4.3,4.3,0,0,1-.956-2.955v-.227A4.771,4.771,0,0,1,24.8,9.826a3.236,3.236,0,0,1,1.219-1.4,3.464,3.464,0,0,1,1.879-.5,3.178,3.178,0,0,1,2.216.8,2.853,2.853,0,0,1,.941,2.073H29.777a1.867,1.867,0,0,0-.582-1.263A1.811,1.811,0,0,0,27.9,9.042a1.9,1.9,0,0,0-1.6.743,3.491,3.491,0,0,0-.568,2.15v.256A3.422,3.422,0,0,0,26.3,14.3,1.906,1.906,0,0,0,27.909,15.041ZM34.42,6.156V8.075H35.9V9.123H34.42v4.921a1.1,1.1,0,0,0,.2.715.832.832,0,0,0,.674.238,3.281,3.281,0,0,0,.645-.088V16a3.951,3.951,0,0,1-1.04.146,1.687,1.687,0,0,1-1.37-.549,2.36,2.36,0,0,1-.461-1.56V9.123H31.622V8.075h1.443V6.156ZM38.954,16H37.6V8.075h1.355ZM37.489,5.973a.809.809,0,0,1,.2-.557.756.756,0,0,1,.6-.227.768.768,0,0,1,.6.227.8.8,0,0,1,.205.557.774.774,0,0,1-.205.549.782.782,0,0,1-.6.22.77.77,0,0,1-.6-.22A.782.782,0,0,1,37.489,5.973Zm6.248,8.188L45.7,8.075h1.384L44.242,16H43.209L40.338,8.075h1.384ZM49.86,16H48.5V8.075H49.86ZM48.395,5.973a.809.809,0,0,1,.2-.557.756.756,0,0,1,.6-.227.768.768,0,0,1,.6.227A.8.8,0,0,1,50,5.973a.774.774,0,0,1-.205.549.782.782,0,0,1-.6.22.77.77,0,0,1-.6-.22A.782.782,0,0,1,48.395,5.973Zm3.3,6a4.642,4.642,0,0,1,.864-2.933,2.941,2.941,0,0,1,4.468-.157V4.75h1.355V16H57.14l-.066-.85a2.759,2.759,0,0,1-2.263,1,2.707,2.707,0,0,1-2.245-1.128,4.7,4.7,0,0,1-.868-2.944Zm1.355.154a3.515,3.515,0,0,0,.557,2.109A1.8,1.8,0,0,0,55.148,15a1.977,1.977,0,0,0,1.882-1.157V10.2a1.992,1.992,0,0,0-1.868-1.121,1.808,1.808,0,0,0-1.553.769A3.87,3.87,0,0,0,53.053,12.125ZM65.38,16a2.846,2.846,0,0,1-.19-.835,3.023,3.023,0,0,1-2.256.981,2.8,2.8,0,0,1-1.923-.663A2.145,2.145,0,0,1,60.26,13.8,2.24,2.24,0,0,1,61.2,11.88a4.437,4.437,0,0,1,2.648-.685h1.318v-.623a1.522,1.522,0,0,0-.425-1.132A1.707,1.707,0,0,0,63.49,9.02a1.976,1.976,0,0,0-1.216.366,1.079,1.079,0,0,0-.491.886H60.421a1.87,1.87,0,0,1,.421-1.146,2.874,2.874,0,0,1,1.143-.875,3.844,3.844,0,0,1,1.586-.322,3.133,3.133,0,0,1,2.146.685,2.47,2.47,0,0,1,.806,1.886v3.647a4.459,4.459,0,0,0,.278,1.736V16Zm-2.249-1.033a2.381,2.381,0,0,0,1.208-.33,1.994,1.994,0,0,0,.828-.857V12.155H64.105q-2.49,0-2.49,1.458a1.234,1.234,0,0,0,.425,1A1.633,1.633,0,0,0,63.131,14.967Zm5.186-3a4.642,4.642,0,0,1,.864-2.933,2.941,2.941,0,0,1,4.468-.157V4.75H75V16H73.759l-.066-.85a2.759,2.759,0,0,1-2.263,1,2.707,2.707,0,0,1-2.245-1.128,4.7,4.7,0,0,1-.868-2.944Zm1.355.154a3.515,3.515,0,0,0,.557,2.109A1.8,1.8,0,0,0,71.766,15a1.977,1.977,0,0,0,1.882-1.157V10.2a1.992,1.992,0,0,0-1.868-1.121,1.808,1.808,0,0,0-1.553.769A3.87,3.87,0,0,0,69.672,12.125Z" transform="translate(74.409 -9339.832)" fill="#fff"/>
    <path id="Trazado_148096" data-name="Trazado 148096" d="M0,0H29" transform="translate(-82.091 -9329.832)" fill="none" stroke="#fff" stroke-width="3"/>
    <path id="Trazado_148097" data-name="Trazado 148097" d="M5,0l5,10H0Z" transform="translate(-46.591 -9334.832) rotate(90)" fill="#fff"/>
    <path id="Trazado_148098" data-name="Trazado 148098" d="M0,0H29" transform="translate(-2.591 -9261.832) rotate(-90)" fill="none" stroke="#84d4f8" stroke-width="3"/>
    <path id="Trazado_148099" data-name="Trazado 148099" d="M5,0l5,10H0Z" transform="translate(-7.591 -9297.332)" fill="#81d4fa"/>
    <path id="Trazado_148100" data-name="Trazado 148100" d="M0,0H29" transform="translate(46.909 -9329.832)" fill="none" stroke="#fff" stroke-width="3"/>
    <path id="Trazado_148101" data-name="Trazado 148101" d="M5,0l5,10H0Z" transform="translate(82.409 -9334.832) rotate(90)" fill="#fff"/>
  </g>
</svg>
