<svg xmlns="http://www.w3.org/2000/svg" width="124.187" height="76.567" viewBox="0 0 124.187 76.567">
  <g id="Grupo_76132" data-name="Grupo 76132" transform="translate(-2429.119 -1821.679)">
    <path id="Trazado_146099" data-name="Trazado 146099" d="M2536.816,2073.685a.5.5,0,0,0-.221-.025c.025-.267.056-1.107.063-1.287a4.742,4.742,0,0,0-9.48-.127c0,.181.01,1.021.028,1.289a.5.5,0,0,0-.222.019c-.422.136-.579.822-.35,1.533.2.613.617,1.043,1,1.063.343,4.61,4.164,4.549,4.164,4.549h.016s3.818.164,4.284-4.436c.383-.009.814-.428,1.028-1.035C2537.373,2074.522,2537.234,2073.832,2536.816,2073.685Z" transform="translate(-83.911 -211.916)" fill="#fafbfc"/>
    <path id="Trazado_146100" data-name="Trazado 146100" d="M2654.055,2003.381a.654.654,0,0,0-.288-.032c.032-.347.073-1.438.081-1.673a6.161,6.161,0,0,0-12.317-.165c0,.234.013,1.326.036,1.674a.647.647,0,0,0-.288.024c-.549.177-.753,1.069-.455,1.992.257.8.8,1.355,1.3,1.38.446,5.99,5.409,5.91,5.409,5.91h.021s4.96.213,5.566-5.763c.5-.012,1.058-.556,1.336-1.345C2654.779,2004.469,2654.6,2003.572,2654.055,2003.381Z" transform="translate(-182.253 -149.806)" fill="#fafbfc"/>
    <path id="Trazado_146101" data-name="Trazado 146101" d="M2812.174,1910.634a.877.877,0,0,0-.386-.043c.043-.466.1-1.931.109-2.245.179-4.81-3.587-8.085-8.157-8.178-4.572-.029-8.424,3.144-8.374,7.957,0,.315.018,1.78.049,2.247a.876.876,0,0,0-.387.032c-.736.237-1.01,1.434-.611,2.673.345,1.069,1.077,1.819,1.744,1.853.6,8.039,7.26,7.932,7.26,7.932h.029s6.657.285,7.47-7.735c.667-.016,1.419-.746,1.792-1.805C2813.146,1912.095,2812.9,1910.891,2812.174,1910.634Z" transform="translate(-314.523 -67.613)" fill="#fafbfc"/>
    <path id="Trazado_146102" data-name="Trazado 146102" d="M3005.806,1833.14a.971.971,0,0,0-.428-.042c.041-.516.079-2.138.088-2.487.127-5.327-4.091-8.9-9.152-8.932-5.061.036-9.279,3.605-9.152,8.932.008.349.047,1.97.088,2.487a.972.972,0,0,0-.428.042c-.811.273-1.1,1.6-.636,2.968.4,1.178,1.219,2,1.958,2.025.781,8.89,8.154,8.673,8.154,8.673h.032s7.373.217,8.155-8.673c.739-.028,1.56-.847,1.958-2.025C3006.9,1834.743,3006.617,1833.413,3005.806,1833.14Z" transform="translate(-479.687)" fill="#fafbfc"/>
    <path id="Trazado_146103" data-name="Trazado 146103" d="M2584.682,2022.781a12.628,12.628,0,0,0-10.741-7.317l-4.082,4.082a1.261,1.261,0,0,1-1.779,0l-3.157-3.157-.007-.009-.007.009-3.157,3.157a1.261,1.261,0,0,1-1.779,0l-4.076-4.076a12.633,12.633,0,0,0-11.341,9.138l-2.957,2.878a1.139,1.139,0,0,1-1.606-.021l-2.813-2.89-.006-.008-.006.008-2.89,2.813a1.139,1.139,0,0,1-1.606-.021l-3.632-3.731a11.411,11.411,0,0,0-10.374,8.185l-1.8,1.751a.849.849,0,0,1-1.2-.016l-2.1-2.153,0-.006,0,.006-2.153,2.1a.849.849,0,0,1-1.2-.016l-2.706-2.78a8.5,8.5,0,0,0-7.982,7.271l-.8.784a.653.653,0,0,1-.921-.012l-1.613-1.657,0,0,0,0-1.657,1.614a.654.654,0,0,1-.922-.012l-2.083-2.14a6.535,6.535,0,0,0-6.208,6.419l-.088,6.531,31.114-14.253,7.051,16.621Z" transform="translate(-48.329 -166.933)" fill="#fafbfc"/>
    <g id="Grupo_74176" data-name="Grupo 74176" transform="translate(2429.119 1853.171)">
      <path id="Trazado_146104" data-name="Trazado 146104" d="M2553.306,2050.257l-16.2-1.309,1.9,4-65.234,31.076-7.051-16.621-37.6,17.068,3.085,6.735,30.672-13.894,7.091,16.716,72.212-34.387,1.9,4Z" transform="translate(-2429.119 -2048.948)" fill="#fafbfc"/>
    </g>
  </g>
</svg>
