<svg xmlns="http://www.w3.org/2000/svg" width="505" height="305.006" viewBox="0 0 505 305.006">
  <g id="Grupo_76078" data-name="Grupo 76078" transform="translate(-38.06 -44.599)">
    <g id="freepik--background-complete--inject-8" transform="translate(44.497 44.598)">
      <path id="Trazado_145134" data-name="Trazado 145134" d="M629.021,138.7c-3.087,7.718-8.018,20.194-10.288,25.927a3.3,3.3,0,0,0,1.851,4.271l21.086,8.4a3.29,3.29,0,0,0,4.275-1.834l0-.009,10.228-25.717a7.314,7.314,0,0,0-4.079-9.5l-.012,0h0l1.5-3.747L639.782,131l-1.424,3.552h-.052A7.314,7.314,0,0,0,629.021,138.7Z" transform="translate(-190 -66.257)" fill="#f5f5f5"/>
      <path id="Trazado_145135" data-name="Trazado 145135" d="M646.422,131.61l-.682,1.716,13.608,5.995.884-2.211Z" transform="translate(-196.828 -66.41)" fill="#e0e0e0"/>
      <path id="Trazado_145136" data-name="Trazado 145136" d="M648.878,124.177l12.871,5.127a2.247,2.247,0,0,1,1.257,2.92l-1.365,3.425a1.446,1.446,0,0,1-1.879.809l-14.354-5.718a1.447,1.447,0,0,1-.809-1.879l1.365-3.425a2.248,2.248,0,0,1,2.92-1.257Z" transform="translate(-196.516 -64.507)" fill="#ebebeb"/>
      <path id="Trazado_145137" data-name="Trazado 145137" d="M646.84,131.149a17.674,17.674,0,0,1,1.176-3.477,17.99,17.99,0,0,1,1.544-3.342,17.879,17.879,0,0,1-1.176,3.5A16.689,16.689,0,0,1,646.84,131.149Z" transform="translate(-197.104 -64.585)" fill="#e0e0e0"/>
      <path id="Trazado_145138" data-name="Trazado 145138" d="M649.27,132.119a17.856,17.856,0,0,1,1.176-3.484,16.728,16.728,0,0,1,1.544-3.335,17.861,17.861,0,0,1-1.176,3.484A16.731,16.731,0,0,1,649.27,132.119Z" transform="translate(-197.713 -64.828)" fill="#e0e0e0"/>
      <path id="Trazado_145139" data-name="Trazado 145139" d="M651.7,133.086a17.643,17.643,0,0,1,1.176-3.484,16.889,16.889,0,0,1,1.544-3.342,17.536,17.536,0,0,1-1.176,3.484A17.99,17.99,0,0,1,651.7,133.086Z" transform="translate(-198.322 -65.069)" fill="#e0e0e0"/>
      <path id="Trazado_145140" data-name="Trazado 145140" d="M654.13,134.056a16.967,16.967,0,0,1,1.176-3.484,16.9,16.9,0,0,1,1.544-3.342,17.61,17.61,0,0,1-1.184,3.484A17.982,17.982,0,0,1,654.13,134.056Z" transform="translate(-198.931 -65.312)" fill="#e0e0e0"/>
      <path id="Trazado_145141" data-name="Trazado 145141" d="M656.56,135.019a17.227,17.227,0,0,1,1.176-3.484,17.477,17.477,0,0,1,1.5-3.335,17.22,17.22,0,0,1-1.176,3.484A17.476,17.476,0,0,1,656.56,135.019Z" transform="translate(-199.54 -65.555)" fill="#e0e0e0"/>
      <path id="Trazado_145142" data-name="Trazado 145142" d="M659,135.986a17.606,17.606,0,0,1,1.184-3.484,17.982,17.982,0,0,1,1.536-3.342,16.962,16.962,0,0,1-1.177,3.484A16.89,16.89,0,0,1,659,135.986Z" transform="translate(-200.152 -65.796)" fill="#e0e0e0"/>
      <path id="Trazado_145143" data-name="Trazado 145143" d="M661.41,136.956a17.536,17.536,0,0,1,1.176-3.484,18,18,0,0,1,1.544-3.342,17.646,17.646,0,0,1-1.176,3.484A16.885,16.885,0,0,1,661.41,136.956Z" transform="translate(-200.756 -66.039)" fill="#e0e0e0"/>
      <path id="Trazado_145144" data-name="Trazado 145144" d="M663.84,137.919a17.678,17.678,0,0,1,1.176-3.477,16.9,16.9,0,0,1,1.544-3.342,17.868,17.868,0,0,1-1.176,3.484A17.261,17.261,0,0,1,663.84,137.919Z" transform="translate(-201.365 -66.282)" fill="#e0e0e0"/>
      <rect id="Rectángulo_32485" data-name="Rectángulo 32485" width="14.087" height="21.296" rx="1.48" transform="translate(436.163 90.803) rotate(-68.28)" fill="#ebebeb"/>
      <path id="Trazado_145145" data-name="Trazado 145145" d="M647.994,168.2a2.166,2.166,0,0,1,.075-.225l.225-.614.877-2.315c.749-2,1.873-4.826,3.207-8.243l.082.2-17.354-6.871c-.052,0,.48-.2.255-.1h0v.045l-.038.1-.075.187-.15.375-.3.749c-.2.495-.4.989-.592,1.5-.39.982-.749,1.948-1.161,2.9l-2.188,5.463-.1-.232,12.409,5.035,3.567,1.5.959.4a3.434,3.434,0,0,1,.337.157l-.315-.1-.937-.352-3.567-1.364-12.589-4.923-.165-.06.068-.172c.689-1.738,1.409-3.567,2.165-5.47.375-.952.749-1.918,1.154-2.9.195-.495.39-.989.592-1.5l.292-.749.157-.375.075-.187.038-.1v-.045h0l.262-.112,17.332,6.894.142.06-.06.142c-1.409,3.447-2.57,6.279-3.387,8.3l-.944,2.248-.247.577C648.039,168.151,648,168.213,647.994,168.2Z" transform="translate(-192.997 -70.97)" fill="#e0e0e0"/>
      <path id="Trazado_145146" data-name="Trazado 145146" d="M650.407,161.111a52.506,52.506,0,0,1-5.995-2.166,51.733,51.733,0,0,1-5.822-2.525,51.111,51.111,0,0,1,5.995,2.166A52.078,52.078,0,0,1,650.407,161.111Z" transform="translate(-195.035 -72.629)" fill="#e0e0e0"/>
      <path id="Trazado_145147" data-name="Trazado 145147" d="M649.347,163.781a50.612,50.612,0,0,1-5.995-2.166,53.238,53.238,0,0,1-5.822-2.525,51.709,51.709,0,0,1,5.995,2.166A52.609,52.609,0,0,1,649.347,163.781Z" transform="translate(-194.77 -73.298)" fill="#e0e0e0"/>
      <path id="Trazado_145148" data-name="Trazado 145148" d="M648.327,166.351a50.087,50.087,0,0,1-5.995-2.166,52.613,52.613,0,0,1-5.822-2.525,50.6,50.6,0,0,1,5.995,2.166A53.238,53.238,0,0,1,648.327,166.351Z" transform="translate(-194.514 -73.943)" fill="#e0e0e0"/>
      <path id="Trazado_145149" data-name="Trazado 145149" d="M658.028,141.058a60.988,60.988,0,0,1-6.5-2.375,62.447,62.447,0,0,1-6.362-2.743,59.3,59.3,0,0,1,6.5,2.375A61.6,61.6,0,0,1,658.028,141.058Z" transform="translate(-196.685 -67.495)" fill="#e0e0e0"/>
      <path id="Trazado_145150" data-name="Trazado 145150" d="M621.12,165.216a8.633,8.633,0,0,1,.42-1.244c.322-.847.749-1.971,1.274-3.335,1.087-2.81,2.615-6.676,4.331-10.94.862-2.128,1.679-4.159,2.435-5.995a12.885,12.885,0,0,1,2.735-4.556,5.748,5.748,0,0,1,3.185-1.626,4.3,4.3,0,0,1,.982,0,1.282,1.282,0,0,1,.33.082,8.62,8.62,0,0,0-1.289.075,5.839,5.839,0,0,0-3,1.671,12.909,12.909,0,0,0-2.6,4.5c-.749,1.858-1.551,3.889-2.405,5.995-1.708,4.264-3.282,8.123-4.436,10.9l-1.386,3.282A7.721,7.721,0,0,1,621.12,165.216Z" transform="translate(-190.656 -67.884)" fill="#fff"/>
      <path id="Trazado_145151" data-name="Trazado 145151" d="M644.533,189.3a5.14,5.14,0,0,1-.824-.667c-.255-.232-.577-.5-.959-.8s-.794-.667-1.3-1.019a36.568,36.568,0,0,0-3.574-2.368,38.346,38.346,0,0,0-4.713-2.248,38.772,38.772,0,0,0-5-1.581,36.4,36.4,0,0,0-4.219-.749c-.607-.09-1.161-.112-1.641-.157s-.907-.06-1.244-.067a6.4,6.4,0,0,1-1.064-.082,5.222,5.222,0,0,1,1.064-.075h1.251a10.063,10.063,0,0,1,1.656.1,32.987,32.987,0,0,1,4.279.659,37.174,37.174,0,0,1,5.065,1.566,36.369,36.369,0,0,1,4.751,2.345,33.6,33.6,0,0,1,3.559,2.458c.487.367.9.749,1.266,1.072a12.125,12.125,0,0,1,.914.854A5.7,5.7,0,0,1,644.533,189.3Z" transform="translate(-190.375 -78.409)" fill="#fff"/>
      <rect id="Rectángulo_32486" data-name="Rectángulo 32486" width="68.001" height="93.418" rx="2.41" transform="translate(0 133.895) rotate(-25.7)" fill="#e0e0e0"/>
      <rect id="Rectángulo_32487" data-name="Rectángulo 32487" width="60.411" height="86.952" transform="translate(4.288 134.041) rotate(-25.7)" fill="#fafafa"/>
      <path id="Trazado_145152" data-name="Trazado 145152" d="M96.835,198.14a7.388,7.388,0,0,0-7.741-.809l-1.671-3.29a5.073,5.073,0,0,0-6.744-2.375h0a5.081,5.081,0,0,0-2.38,6.779l0,.01,1.671,3.469-1.161.584a7.41,7.41,0,0,0-4.084,6.519v1.723l23.7-11.4Zm-12.649.54a2.776,2.776,0,1,1,.009,0Z" transform="translate(-53.69 -81.341)" fill="#ebebeb"/>
      <path id="Trazado_145153" data-name="Trazado 145153" d="M81.484,225.328c.052.1-3.215,1.768-7.291,3.747a74.661,74.661,0,0,1-7.493,3.372c-.075-.1,3.215-1.768,7.291-3.747A78.316,78.316,0,0,1,81.484,225.328Z" transform="translate(-51.676 -89.902)" fill="#e0e0e0"/>
      <path id="Trazado_145154" data-name="Trazado 145154" d="M75.451,233.56a19.959,19.959,0,0,1-3.469,1.888,19.873,19.873,0,0,1-3.642,1.5,20.247,20.247,0,0,1,3.492-1.851A20.93,20.93,0,0,1,75.451,233.56Z" transform="translate(-52.088 -91.966)" fill="#e0e0e0"/>
      <path id="Trazado_145155" data-name="Trazado 145155" d="M114.818,220.549c.045.09-9.112,4.6-20.457,10.056s-20.576,9.809-20.621,9.741,9.112-4.631,20.427-10.093S114.773,220.452,114.818,220.549Z" transform="translate(-53.441 -88.704)" fill="#e0e0e0"/>
      <path id="Trazado_145156" data-name="Trazado 145156" d="M117.338,225.77c.045.1-9.112,4.6-20.457,10.063S76.3,245.642,76.26,245.574s9.1-4.6,20.457-10.063S117.278,225.672,117.338,225.77Z" transform="translate(-54.073 -90.013)" fill="#e0e0e0"/>
      <path id="Trazado_145157" data-name="Trazado 145157" d="M119.848,231c.052.1-9.112,4.6-20.449,10.063S78.822,250.872,78.77,250.8s9.112-4.6,20.457-10.063S119.8,230.9,119.848,231Z" transform="translate(-54.702 -91.324)" fill="#e0e0e0"/>
      <path id="Trazado_145158" data-name="Trazado 145158" d="M122.368,236.229c.045.1-9.112,4.6-20.457,10.063s-20.576,9.8-20.621,9.741,9.112-4.6,20.457-10.056S122.323,236.132,122.368,236.229Z" transform="translate(-55.334 -92.635)" fill="#e0e0e0"/>
      <path id="Trazado_145159" data-name="Trazado 145159" d="M124.888,241.45c.045.1-9.112,4.608-20.457,10.063s-20.576,9.809-20.621,9.741,9.134-4.631,20.449-10.093S124.835,241.36,124.888,241.45Z" transform="translate(-55.966 -93.944)" fill="#e0e0e0"/>
      <path id="Trazado_145160" data-name="Trazado 145160" d="M127.4,246.679c.045.1-9.112,4.6-20.449,10.063s-20.584,9.809-20.629,9.741,9.112-4.6,20.457-10.063S127.353,246.582,127.4,246.679Z" transform="translate(-56.595 -95.255)" fill="#e0e0e0"/>
      <path id="Trazado_145161" data-name="Trazado 145161" d="M109.129,264.59a3.811,3.811,0,0,1-.749.457l-2.173,1.117c-1.843.922-4.406,2.181-7.238,3.544s-5.418,2.585-7.291,3.447l-2.248,1a3.621,3.621,0,0,1-.839.315,4.694,4.694,0,0,1,.749-.457l2.173-1.109c1.843-.929,4.406-2.188,7.238-3.552s5.418-2.578,7.291-3.439l2.248-1A3.971,3.971,0,0,1,109.129,264.59Z" transform="translate(-57.164 -99.745)" fill="#e0e0e0"/>
      <path id="Trazado_145162" data-name="Trazado 145162" d="M122.449,206.35a17.329,17.329,0,0,1-3.207,1.761,17.066,17.066,0,0,1-3.372,1.409,17.329,17.329,0,0,1,3.207-1.761A17.064,17.064,0,0,1,122.449,206.35Z" transform="translate(-64.002 -85.145)" fill="#e0e0e0"/>
      <path id="Trazado_145163" data-name="Trazado 145163" d="M105.433,282a44.044,44.044,0,0,1-5.245,2.742,45.221,45.221,0,0,1-5.418,2.39,44.043,44.043,0,0,1,5.245-2.742A45.233,45.233,0,0,1,105.433,282Z" transform="translate(-58.713 -104.109)" fill="#e0e0e0"/>
      <path id="Trazado_145164" data-name="Trazado 145164" d="M108.153,286.5a45.5,45.5,0,0,1-5.335,2.78,46,46,0,0,1-5.508,2.435,47.029,47.029,0,0,1,5.335-2.787A46.731,46.731,0,0,1,108.153,286.5Z" transform="translate(-59.35 -105.237)" fill="#e0e0e0"/>
      <path id="Trazado_145165" data-name="Trazado 145165" d="M148.275,261.39a10.261,10.261,0,0,1-2.488,1.416,10.5,10.5,0,0,1-2.668,1.064,10.921,10.921,0,0,1,2.5-1.416A10.811,10.811,0,0,1,148.275,261.39Z" transform="translate(-70.833 -98.943)" fill="#e0e0e0"/>
      <path id="Trazado_145166" data-name="Trazado 145166" d="M150.545,265.55a21.138,21.138,0,0,1-5.155,2.48,10.262,10.262,0,0,1,2.488-1.416A10.507,10.507,0,0,1,150.545,265.55Z" transform="translate(-71.402 -99.985)" fill="#e0e0e0"/>
      <path id="Trazado_145167" data-name="Trazado 145167" d="M105.873,294.68a10.052,10.052,0,0,1-2.405,1.371,10.142,10.142,0,0,1-2.578,1.027,10.2,10.2,0,0,1,2.405-1.409A10.006,10.006,0,0,1,105.873,294.68Z" transform="translate(-60.247 -107.287)" fill="#e0e0e0"/>
      <path id="Trazado_145168" data-name="Trazado 145168" d="M153.652,270.42a5.559,5.559,0,0,1-1.776,1.072,6,6,0,0,1-1.956.749,5.578,5.578,0,0,1,1.783-1.079A5.677,5.677,0,0,1,153.652,270.42Z" transform="translate(-72.538 -101.206)" fill="#e0e0e0"/>
      <path id="Trazado_145169" data-name="Trazado 145169" d="M105.87,306.763a1.3,1.3,0,0,1,.21-.157l.629-.42,2.42-1.551,8.7-5.463.172-.112.075.187a4.935,4.935,0,0,1,.1,3.3,4.032,4.032,0,0,1-2.4,2.593,3.987,3.987,0,0,1-3.747-.412,3.485,3.485,0,0,1-1.236-3.649,3.227,3.227,0,0,1,.749-1.364,2.491,2.491,0,0,1,.285-.27,1.51,1.51,0,0,1,.337-.232.569.569,0,0,1,.525,0,.911.911,0,0,1,.3.345,6.533,6.533,0,0,1,.749,2.772,6.453,6.453,0,0,1-.427,2.735,4.142,4.142,0,0,1-1.611,2.136,2.389,2.389,0,0,1-2.533-.052,3.64,3.64,0,0,1-1.5-1.881,8.759,8.759,0,0,1,0-4.234l.045-.285.195.217a5.913,5.913,0,0,1,1.431,3.23,6.346,6.346,0,0,1-.255,2.66,5.638,5.638,0,0,1-.749,1.5c-.12.157-.217.262-.285.337s-.1.112-.1.1a6.983,6.983,0,0,0,1-1.993,6.407,6.407,0,0,0,.18-2.585,5.661,5.661,0,0,0-1.416-3.072l.24-.067a8.43,8.43,0,0,0,0,4.076,3.294,3.294,0,0,0,1.371,1.693,2.037,2.037,0,0,0,2.166.037,3.843,3.843,0,0,0,1.454-1.956,6.278,6.278,0,0,0,.39-2.593,6.179,6.179,0,0,0-.749-2.6.464.464,0,0,0-.157-.2.166.166,0,0,0-.165,0,1.846,1.846,0,0,0-.487.4,2.819,2.819,0,0,0-.629,1.191,3.1,3.1,0,0,0,1.094,3.245,3.62,3.62,0,0,0,3.342.375,3.671,3.671,0,0,0,2.188-2.353,4.56,4.56,0,0,0-.067-3.065l.247.082-8.775,5.343-2.473,1.5-.652.375A.959.959,0,0,1,105.87,306.763Z" transform="translate(-61.496 -108.385)" fill="#e0e0e0"/>
      <path id="Trazado_145170" data-name="Trazado 145170" d="M154.725,282.844a2.253,2.253,0,0,1-.12.7,2.983,2.983,0,0,1-.345.794,1.677,1.677,0,0,1-.937.749,1.167,1.167,0,0,1-.749,0,1.5,1.5,0,0,1-.629-.487,14.208,14.208,0,0,1-.839-1.424l-1.836-3.432.337-.075c-.06,1.716-.12,3.589-.195,5.553a12.119,12.119,0,0,1-.052,1.386v.749l-.337-.7c-1.027-2.106-1.978-4.076-2.817-5.785h.315a19.968,19.968,0,0,0-.749,5.245c0,1.281.082,2.008.045,2.016a1.722,1.722,0,0,1-.112-.525,14.966,14.966,0,0,1-.127-1.5,18.271,18.271,0,0,1,.584-5.313l.112-.435.195.4,2.87,5.762-.375.075a12.442,12.442,0,0,1,.052-1.386c.082-1.963.157-3.837.225-5.553V279l.307.592c.659,1.236,1.266,2.39,1.813,3.424a15,15,0,0,0,.787,1.416,1,1,0,0,0,1.087.457,1.919,1.919,0,0,0,1.221-1.334A5.745,5.745,0,0,1,154.725,282.844Z" transform="translate(-71.446 -103.357)" fill="#e0e0e0"/>
      <path id="Trazado_145171" data-name="Trazado 145171" d="M152.995,280.389c.06.082-3.035,2.293-6.909,4.931s-7.066,4.7-7.126,4.608,3-2.293,6.909-4.931S152.935,280.3,152.995,280.389Z" transform="translate(-69.79 -103.704)" fill="#e0e0e0"/>
      <path id="Trazado_145172" data-name="Trazado 145172" d="M159.286,281.26a59.212,59.212,0,0,1-5.065,4.608,59.634,59.634,0,0,1-5.32,4.316,60.678,60.678,0,0,1,5.065-4.608A59.641,59.641,0,0,1,159.286,281.26Z" transform="translate(-72.282 -103.923)" fill="#e0e0e0"/>
      <path id="Trazado_145173" data-name="Trazado 145173" d="M190.439,60.508h-3.155l-6.841-9.614V44.6s-4.878-.3-4.3,7.943-.045,6.137-.045,6.137-10.348.045-11.24.944c-.629.652-.907,10.933-1.019,16.485a6.04,6.04,0,0,0,4.279,6.077,4.341,4.341,0,0,0,1.087.18c2.578,0,15.736-2.1,15.736-2.1h5.448Z" transform="translate(-76.025 -44.598)" fill="#f5f5f5"/>
      <path id="Trazado_145174" data-name="Trazado 145174" d="M208.933,63.52l-1.941,21.566h-5.4V63.955Z" transform="translate(-85.49 -49.341)" fill="#f5f5f5"/>
    </g>
    <g id="freepik--Icons--inject-8" transform="translate(218.273 47.14)">
      <path id="Trazado_145175" data-name="Trazado 145175" d="M506.248,63.269c-.809-6.564-6.362-12.686-12.978-12.686a14.5,14.5,0,0,0-10.281,4.886,27.4,27.4,0,0,0-2.615,3.095,26.738,26.738,0,0,0-1.948-3.544,14.48,14.48,0,0,0-9.119-6.819c-6.482-1.3-13.128,3.6-15.219,9.884s-.352,13.316,3.087,18.965,9.352,13.031,20.232,16.695c7.493-.967,17.579-7.628,22.06-12.491S507.034,69.826,506.248,63.269Z" transform="translate(-322.333 -47.991)" fill="#7e5ee3"/>
      <path id="Trazado_145176" data-name="Trazado 145176" d="M504.133,79.831a.958.958,0,0,1-.217,0l-.637-.045-2.45-.2-8.992-.824.165-.1c-1.086,2.825-2.353,6.137-3.747,9.741l-.225.584-.15-.614c-1.146-4.736-2.42-10.048-3.747-15.646-.412-1.731-.824-3.439-1.221-5.1l.382.075-6.864,9.441-.067.09h-.112l-15.8-1.649-4.5-.495-1.184-.15a1.587,1.587,0,0,1-.4-.075,2.1,2.1,0,0,1,.412,0l1.184.082,4.5.39,15.811,1.5-.172.075,6.834-9.456.27-.382.1.457c.4,1.663.809,3.364,1.229,5.1l3.747,15.653h-.375c1.416-3.619,2.713-6.924,3.822-9.741l.037-.112h.12l8.992.959,2.435.285.637.082A.744.744,0,0,1,504.133,79.831Z" transform="translate(-322.631 -52.773)" fill="#fafafa"/>
      <rect id="Rectángulo_32488" data-name="Rectángulo 32488" width="4.946" height="22.173" transform="translate(16.245 56.244)" fill="#7e5ee3"/>
      <rect id="Rectángulo_32489" data-name="Rectángulo 32489" width="22.173" height="4.946" transform="translate(7.628 64.854)" fill="#7e5ee3"/>
      <path id="Trazado_145177" data-name="Trazado 145177" d="M315.689,131.688a2.525,2.525,0,0,1-.037-.3c0-.217-.037-.51-.06-.877a3.294,3.294,0,0,0-.045-.644c-.045-.232-.075-.495-.12-.749a13.286,13.286,0,0,0-.39-1.9,17.609,17.609,0,0,0-2.053-4.886,18.306,18.306,0,0,0-22.008-7.815,18.621,18.621,0,0,0-2.39,1.049,19.276,19.276,0,0,0-2.248,1.446,20.755,20.755,0,0,0-2.076,1.761,21.3,21.3,0,0,0-1.791,2.121,17.874,17.874,0,0,0-2.615,5.035,18.125,18.125,0,0,0,0,11.547,17.776,17.776,0,0,0,2.615,5.035,19.743,19.743,0,0,0,1.791,2.121,19.95,19.95,0,0,0,2.076,1.768,19.274,19.274,0,0,0,2.248,1.446,19.816,19.816,0,0,0,2.39,1.049,18.366,18.366,0,0,0,22.008-7.808,17.546,17.546,0,0,0,2.053-4.893,12.964,12.964,0,0,0,.39-1.9c.045-.285.1-.54.12-.749a5.928,5.928,0,0,1,.045-.644c0-.375.045-.659.06-.877a2.248,2.248,0,0,1,.037-.3,1.82,1.82,0,0,1,0,.3v1.529a6.852,6.852,0,0,1-.1.749,13.883,13.883,0,0,1-.36,1.918,17.654,17.654,0,0,1-2.016,4.968,18.621,18.621,0,0,1-22.337,8.025,18.137,18.137,0,0,1-6.849-4.331,20.251,20.251,0,0,1-1.828-2.158,17.886,17.886,0,0,1-2.675-5.148,19.882,19.882,0,0,1-.967-5.9,20.1,20.1,0,0,1,.967-5.89,18.044,18.044,0,0,1,2.675-5.14,21.177,21.177,0,0,1,1.828-2.166,21.589,21.589,0,0,1,2.121-1.791,18.51,18.51,0,0,1,26.991,5.5,17.7,17.7,0,0,1,2.016,4.961,14.13,14.13,0,0,1,.36,1.926c0,.277.082.54.1.749v1.529A1.842,1.842,0,0,1,315.689,131.688Z" transform="translate(-278.56 -64.301)" fill="#7e5ee3"/>
    </g>
    <g id="freepik--character-3--inject-8" transform="translate(355.219 94.749)">
      <path id="Trazado_145178" data-name="Trazado 145178" d="M589.7,315.612s21.925-5.245,22.652-6.152L594.318,263a33.983,33.983,0,0,0-21.034-20.5,59.594,59.594,0,0,0-21.3-3.29L521.543,237.6a60.294,60.294,0,0,0-24.023,6.647A48.473,48.473,0,0,0,474.973,269.1L461.32,303.2l34.469,7.2,1.311,36.642L491.908,397.6h95.059l-.659-80.133h0Z" transform="translate(-461.32 -143.13)" fill="#7e5ee3"/>
      <g id="Grupo_73243" data-name="Grupo 73243" transform="translate(121.72 160.256)" opacity="0.3">
        <path id="Trazado_145179" data-name="Trazado 145179" d="M649.319,325.4c0,.1-5.657,1.963-12.739,4.144s-12.791,3.874-12.821,3.747,5.65-1.963,12.738-4.151S649.289,325.294,649.319,325.4Z" transform="translate(-623.76 -325.394)" fill="#fff"/>
      </g>
      <path id="Trazado_145180" data-name="Trazado 145180" d="M518.7,276.656a5.076,5.076,0,0,1-.584-.8c-.345-.525-.877-1.274-1.566-2.173a36.191,36.191,0,0,0-2.585-3,39.786,39.786,0,0,0-3.567-3.3,41.721,41.721,0,0,0-3.979-2.8,38.191,38.191,0,0,0-3.5-1.881c-1.019-.487-1.866-.847-2.458-1.079a4.275,4.275,0,0,1-.907-.4,5.825,5.825,0,0,1,.959.262,26.773,26.773,0,0,1,2.518.967,34.734,34.734,0,0,1,3.574,1.828,38.4,38.4,0,0,1,4.031,2.8,36.639,36.639,0,0,1,3.589,3.357,33.356,33.356,0,0,1,2.54,3.1,23.734,23.734,0,0,1,1.5,2.248A4.508,4.508,0,0,1,518.7,276.656Z" transform="translate(-470.903 -149.05)" fill="#263238"/>
      <path id="Trazado_145181" data-name="Trazado 145181" d="M517.391,296.62c.1,0-.959,11.195-2.375,24.982s-2.653,24.96-2.758,24.945.952-11.195,2.375-24.983S517.308,296.605,517.391,296.62Z" transform="translate(-474.087 -157.924)" fill="#263238"/>
      <path id="Trazado_145182" data-name="Trazado 145182" d="M617.228,264.054a21.146,21.146,0,0,1-.487-2.248,42.122,42.122,0,0,0-1.5-5.365,41.491,41.491,0,0,0-2.248-5.11,21.776,21.776,0,0,1-1.064-2.061,3.582,3.582,0,0,1,.4.487c.232.33.547.824.914,1.439a31.843,31.843,0,0,1,2.368,5.11,31.135,31.135,0,0,1,1.416,5.448c.112.712.18,1.289.21,1.693A2.193,2.193,0,0,1,617.228,264.054Z" transform="translate(-499.074 -146.055)" fill="#263238"/>
      <path id="Trazado_145183" data-name="Trazado 145183" d="M621.136,311.712a6.678,6.678,0,0,1-.18-1.1c-.1-.7-.21-1.738-.337-3-.247-2.548-.509-6.084-.644-9.988s-.127-7.456-.06-10.018c.037-1.281.075-2.315.12-3a5.508,5.508,0,0,1,.112-1.109,7.232,7.232,0,0,1,.045,1.109v3.012c0,2.555.037,6.092.172,10s.352,7.426.532,9.981c.082,1.221.15,2.248.21,3A5.726,5.726,0,0,1,621.136,311.712Z" transform="translate(-501.064 -154.636)" fill="#263238"/>
      <path id="Trazado_145184" data-name="Trazado 145184" d="M552.1,312.27a156.214,156.214,0,0,1-23.978-.45v3.132H552.1Z" transform="translate(-478.065 -161.735)" fill="#fff"/>
      <g id="Grupo_73244" data-name="Grupo 73244" transform="translate(45.004 97.415)" opacity="0.3">
        <path id="Trazado_145185" data-name="Trazado 145185" d="M574.3,242.841a2.04,2.04,0,0,1,.1.472l.21,1.379c.15,1.214.36,3,.532,5.245.36,4.5.674,10.9.749,18.463v.285l-.262-.12c-4.781-2.33-10.138-4.863-15.736-7.651l-27.253-13.638-8.243-4.174-2.248-1.146-.569-.315a.827.827,0,0,1-.195-.112.844.844,0,0,1,.21.082l.592.27,2.248,1.087,8.288,4.061,27.343,13.533c5.575,2.787,10.925,5.328,15.736,7.673l-.255.157c-.082-7.546-.345-13.945-.644-18.448-.135-2.248-.315-4.024-.427-5.245-.067-.584-.12-1.049-.157-1.386A4.518,4.518,0,0,1,574.3,242.841Z" transform="translate(-521.38 -241.53)" fill="#fff"/>
      </g>
      <g id="Grupo_73245" data-name="Grupo 73245" transform="translate(2.285 154.171)" opacity="0.3">
        <path id="Trazado_145186" data-name="Trazado 145186" d="M502.72,326.555a1.349,1.349,0,0,1-.4-.067l-1.116-.262-4.1-1.042c-3.462-.892-8.243-2.1-13.533-3.379s-10.1-2.39-13.585-3.185l-4.121-.944-1.116-.27a1.9,1.9,0,0,1-.382-.12,1.467,1.467,0,0,1,.4,0l1.131.2c.982.18,2.4.465,4.151.824,3.5.749,8.318,1.791,13.615,3.072s10.071,2.54,13.488,3.492c1.723.48,3.117.877,4.069,1.161l1.1.337A1.978,1.978,0,0,1,502.72,326.555Z" transform="translate(-464.37 -317.272)" fill="#fff"/>
      </g>
      <path id="Trazado_145187" data-name="Trazado 145187" d="M586.37,235.707c0-.112,2.061.967,4.046,3.911a36.1,36.1,0,0,1,4.818,12.739,52.347,52.347,0,0,1,.877,7.493c0,1.154.052,2.248,0,3.275s-.067,1.978-.157,2.847-.18,1.641-.255,2.338-.21,1.266-.292,1.746a5.325,5.325,0,0,1-.36,1.5,5.7,5.7,0,0,1,.06-1.5l.157-1.753c.045-.7.09-1.5.135-2.33s0-1.806.067-2.818-.052-2.1-.09-3.23a58.576,58.576,0,0,0-.922-7.343,39.961,39.961,0,0,0-4.5-12.566,17.253,17.253,0,0,0-2.5-3.177A14.58,14.58,0,0,1,586.37,235.707Z" transform="translate(-492.667 -142.653)" fill="#263238"/>
      <path id="Trazado_145188" data-name="Trazado 145188" d="M537.491,236a16.168,16.168,0,0,1-1.581,2.248,32.128,32.128,0,0,0-3.529,6.594,44.878,44.878,0,0,0-2.615,10.768c-.547,4.151-.749,8.8-1.087,13.66s-.262,9.494-.27,13.713,0,8.025,0,11.24-.082,5.792-.172,7.583a12.811,12.811,0,0,1-.277,2.773,13.092,13.092,0,0,1-.18-2.78c-.052-1.821-.112-4.4-.195-7.568s-.187-7-.247-11.24-.075-8.887.18-13.788.569-9.524,1.184-13.743a42.974,42.974,0,0,1,2.922-10.94,27.449,27.449,0,0,1,3.934-6.542A10.177,10.177,0,0,1,537.491,236Z" transform="translate(-477.86 -142.728)" fill="#263238"/>
      <path id="Trazado_145189" data-name="Trazado 145189" d="M601.725,310.318a14.292,14.292,0,0,1-.15-2.473c-.045-1.6-.082-3.9-.112-6.744,0-1.431,0-3-.045-4.661s0-3.477-.1-5.32a8.8,8.8,0,0,0-1.911-5.245,7.224,7.224,0,0,0-5.245-2.5,8.241,8.241,0,0,0-5.523,2.143,9.517,9.517,0,0,0-2.787,4.863c-.465,1.783-.659,3.574-.937,5.245l-.749,4.6c-.45,2.81-.832,5.088-1.109,6.654a15.056,15.056,0,0,1-.51,2.428,14.03,14.03,0,0,1,.21-2.473c.187-1.581.48-3.867.862-6.691.195-1.416.412-2.96.637-4.616a48.14,48.14,0,0,1,.884-5.313,10.116,10.116,0,0,1,3-5.245,8.993,8.993,0,0,1,5.987-2.368,7.941,7.941,0,0,1,5.845,2.78,9.441,9.441,0,0,1,2.053,5.68c.112,1.918,0,3.694,0,5.373s-.038,3.237-.06,4.661c0,2.847-.082,5.155-.135,6.744A15.244,15.244,0,0,1,601.725,310.318Z" transform="translate(-491.709 -154.41)" fill="#263238"/>
      <path id="Trazado_145190" data-name="Trazado 145190" d="M597.517,273.87c-.247,2.623-1.087,5.568-2.907,7.493a10.544,10.544,0,0,1,4.833.09,16.545,16.545,0,0,1-1.289-7.561" transform="translate(-494.732 -152.222)" fill="#263238"/>
      <path id="Trazado_145191" data-name="Trazado 145191" d="M602.785,293.864a22.932,22.932,0,0,0-1.184-3,9.327,9.327,0,0,0-2.181-2.608,8.092,8.092,0,0,0-3.687-1.753,7.865,7.865,0,0,0-4.061.4,8.868,8.868,0,0,0-2.9,1.753,22.269,22.269,0,0,0-2.061,2.45c-.127-.068.225-1.326,1.679-2.847a8.723,8.723,0,0,1,3-2.023,8.241,8.241,0,0,1,4.451-.51,8.391,8.391,0,0,1,4.016,1.978,8.944,8.944,0,0,1,2.2,2.9A5.436,5.436,0,0,1,602.785,293.864Z" transform="translate(-492.747 -155.169)" fill="#263238"/>
      <path id="Trazado_145192" data-name="Trazado 145192" d="M631.438,391.463c4.5,0,8.452-3.215,10.55-7.149s2.638-8.512,2.84-12.971a105.276,105.276,0,0,0-4.286-34.993L621,339.759l5.328,52.67Z" transform="translate(-501.348 -167.884)" fill="#ffbe9d"/>
      <path id="Trazado_145193" data-name="Trazado 145193" d="M529.37,392.913l63.678-2.315,15.443-74.618L541.419,319.7Z" transform="translate(-478.378 -162.777)" fill="#263238"/>
      <path id="Trazado_145194" data-name="Trazado 145194" d="M573.11,317.243l.959-1.9,5.08-.367s1.289-3.335,8.557-3.679c6.5-.3,6.744,3,6.744,3h3.507v1.6Z" transform="translate(-489.343 -161.598)" fill="#455a64"/>
      <path id="Trazado_145195" data-name="Trazado 145195" d="M614.186,386.012l4.826-1.4a5.893,5.893,0,0,1,2.795-.127h0a5.89,5.89,0,0,1,3,1.581,39.832,39.832,0,0,1,4.541,4.953,4.669,4.669,0,0,1,0,3.814c-.539.719,1.184,4.443.967,5.68a7.73,7.73,0,0,1-.967,3c-.435.517,0,2.285-1.079,3.619a17.9,17.9,0,0,1-2.046,2.158s-13.263.622-14.552,0a19.418,19.418,0,0,1-3.559-3s-1.184-2.166.644-2.375l-7.546-2.885a1.8,1.8,0,0,1-1.094-2.248,1.26,1.26,0,0,1,.667-.749s-3.387-1.072-4.174-1.416c-1.566-.689-2.158-4.331,1.087-3.866,1.708.247,4.024.749,4.024.749s-1.236-2.008.495-3.207c1.049-.749,5.77.157,5.77.157l6.2-4.429Z" transform="translate(-494.916 -179.922)" fill="#ffbe9d"/>
      <path id="Trazado_145196" data-name="Trazado 145196" d="M620.211,412.376a11.159,11.159,0,0,1-3.919-.584,9.749,9.749,0,0,1-3.612-1.634c.052-.09,1.634.682,3.747,1.259S620.226,412.286,620.211,412.376Z" transform="translate(-499.262 -186.384)" fill="#eb996e"/>
      <path id="Trazado_145197" data-name="Trazado 145197" d="M614.8,405.787a51.2,51.2,0,0,1-6.152-1.371,49.4,49.4,0,0,1-6.055-1.746,102.685,102.685,0,0,1,12.206,3.117Z" transform="translate(-496.733 -184.508)" fill="#eb996e"/>
      <path id="Trazado_145198" data-name="Trazado 145198" d="M616.6,399.54a116.433,116.433,0,0,1-13.158-3.08A116.433,116.433,0,0,1,616.6,399.54Z" transform="translate(-496.946 -182.952)" fill="#eb996e"/>
      <path id="Trazado_145199" data-name="Trazado 145199" d="M623.547,392.51a8.693,8.693,0,0,1-1.7.547l-1.873.48-1.109.277a4.238,4.238,0,0,1-1.274.12,7.064,7.064,0,0,1-1.244-.2l-1.116-.255-1.873-.45a8.22,8.22,0,0,1-1.716-.517,8.05,8.05,0,0,1,1.768.247l1.9.367a22.39,22.39,0,0,0,2.3.42,8.4,8.4,0,0,0,2.248-.352l1.9-.4A8.32,8.32,0,0,1,623.547,392.51Z" transform="translate(-499.001 -181.962)" fill="#eb996e"/>
      <path id="Trazado_145200" data-name="Trazado 145200" d="M628.309,395.9c.045,0,.225.135.367.495a2.2,2.2,0,0,1,.052,1.5,2.247,2.247,0,0,1-.884,1.191c-.322.21-.562.24-.585.195a3.787,3.787,0,0,0,1.094-1.5A4.163,4.163,0,0,0,628.309,395.9Z" transform="translate(-502.917 -182.811)" fill="#eb996e"/>
      <path id="Trazado_145201" data-name="Trazado 145201" d="M628.245,402.739c.09-.045.39.487.345,1.214s-.39,1.229-.48,1.169.06-.555.09-1.191S628.133,402.777,628.245,402.739Z" transform="translate(-503.123 -184.525)" fill="#eb996e"/>
      <path id="Trazado_145202" data-name="Trazado 145202" d="M628.293,410.159c.1-.038.3.322.2.794s-.412.749-.495.652.045-.36.112-.749S628.188,410.189,628.293,410.159Z" transform="translate(-503.096 -186.385)" fill="#eb996e"/>
      <path id="Trazado_145203" data-name="Trazado 145203" d="M627.635,391.857a4.108,4.108,0,0,1-1.274-.06l-1.364-.18a5.311,5.311,0,0,0-1.626-.082,4.051,4.051,0,0,0-1.439.652c-.42.277-.749.592-1.131.794a2.15,2.15,0,0,1-1.221.42c0-.067.457-.195,1.072-.652a6.53,6.53,0,0,1,2.668-1.6,4.655,4.655,0,0,1,.914,0,4.425,4.425,0,0,1,.817.135l1.356.255A4.494,4.494,0,0,1,627.635,391.857Z" transform="translate(-500.992 -181.616)" fill="#eb996e"/>
      <path id="Trazado_145204" data-name="Trazado 145204" d="M637.225,403.722a6.482,6.482,0,0,1,.337-.922,6.5,6.5,0,0,0,.247-4.5c-.15-.659-.457-1.319-.622-2.106a6.6,6.6,0,0,1,.165-2.45,4.348,4.348,0,0,0-.435-2.405,11.264,11.264,0,0,0-1.379-2.136c-.517-.652-1.019-1.289-1.5-1.858a8.884,8.884,0,0,0-3.14-2.45,5.053,5.053,0,0,0-2.638-.4c-.63.09-.959.255-.974.225s.075-.06.232-.142a3.635,3.635,0,0,1,.749-.232,5.062,5.062,0,0,1,2.765.292,8.913,8.913,0,0,1,3.3,2.473c.525.577,1.034,1.206,1.559,1.858a11.792,11.792,0,0,1,1.431,2.248,4.653,4.653,0,0,1,.457,2.623,6.749,6.749,0,0,0-.187,2.33c.142.749.442,1.416.584,2.091a7.492,7.492,0,0,1,.247,1.926,6.861,6.861,0,0,1-.667,2.7A3.757,3.757,0,0,1,637.225,403.722Z" transform="translate(-502.924 -179.896)" fill="#eb996e"/>
      <path id="Trazado_145205" data-name="Trazado 145205" d="M553.22,352.77l-52.28,8.3,2.323-27.283-29.074-5.62-3.537,40.4-.614,9.262a18.1,18.1,0,0,0,7.591,15.946h0a18.111,18.111,0,0,0,16.051,2.458l11.24-3.664,54.791-19.482" transform="translate(-463.495 -165.833)" fill="#ffbe9d"/>
      <path id="Trazado_145206" data-name="Trazado 145206" d="M612.694,352.886a1.5,1.5,0,0,0-1.23-1.726,1.47,1.47,0,0,0-.268-.02c-2.945,0-10.9,0-13.713.832-3.477.982-16.433,6.542-16.433,6.542l5.493,20.232,19.88.21s7.261-3.334,7.351-4.781a23.3,23.3,0,0,0-.18-2.705l2.2-1.176c3.267-2.068,1.169-6.047,1.169-6.047a4.83,4.83,0,0,0,2.368-3.537,3.536,3.536,0,0,0-1.753-3.349s.9-3.207-.749-4.069-4.5.24-4.5.24A1.158,1.158,0,0,0,612.694,352.886Z" transform="translate(-491.333 -171.591)" fill="#ffbe9d"/>
      <path id="Trazado_145207" data-name="Trazado 145207" d="M619.461,353.908a2.04,2.04,0,0,1-.615.217c-.4.112-.989.24-1.716.367-1.5.262-3.492.48-5.732.749a46.4,46.4,0,0,0-5.68.869,10.559,10.559,0,0,0-2.248.749,2.126,2.126,0,0,1,.547-.352,9.625,9.625,0,0,1,1.649-.637,35.1,35.1,0,0,1,5.7-.989c2.248-.24,4.279-.412,5.732-.6S619.438,353.855,619.461,353.908Z" transform="translate(-496.953 -172.283)" fill="#eb996e"/>
      <path id="Trazado_145208" data-name="Trazado 145208" d="M626.348,359.33a4.776,4.776,0,0,1-1.4.712,22.26,22.26,0,0,1-3.619,1.057c-1.446.3-2.758.495-3.747.622a6.453,6.453,0,0,1-1.551.12,46.838,46.838,0,0,1,5.185-1.124,37.043,37.043,0,0,0,3.612-.929A8.9,8.9,0,0,1,626.348,359.33Z" transform="translate(-500.102 -173.644)" fill="#eb996e"/>
      <path id="Trazado_145209" data-name="Trazado 145209" d="M626.082,368.726a21.563,21.563,0,0,1-8.722,1.978c0-.12,1.978-.367,4.376-.914S626.082,368.613,626.082,368.726Z" transform="translate(-500.435 -175.996)" fill="#eb996e"/>
      <path id="Trazado_145210" data-name="Trazado 145210" d="M625.164,376.75a14.985,14.985,0,0,1-6.744,1.626Q621.8,377.585,625.164,376.75Z" transform="translate(-500.701 -178.011)" fill="#eb996e"/>
      <path id="Trazado_145211" data-name="Trazado 145211" d="M612.559,371.288c0,.045-.2.172-.607.21a2.251,2.251,0,0,1-1.5-.412,2.3,2.3,0,0,1-.892-1.281c-.1-.4-.045-.644,0-.644a3.249,3.249,0,0,0,1.109,1.6A4.113,4.113,0,0,0,612.559,371.288Z" transform="translate(-498.467 -176.108)" fill="#eb996e"/>
      <path id="Trazado_145212" data-name="Trazado 145212" d="M612.284,379.721c0,.1-.749.15-1.461-.457s-.749-1.4-.622-1.394.307.6.884,1.1S612.284,379.608,612.284,379.721Z" transform="translate(-498.626 -178.292)" fill="#eb996e"/>
      <path id="Trazado_145213" data-name="Trazado 145213" d="M609.512,362.956c.045.1-.5.277-1.012-.112s-.495-.959-.382-.944.24.367.614.637S609.46,362.852,609.512,362.956Z" transform="translate(-498.103 -174.288)" fill="#eb996e"/>
      <path id="Trazado_145214" data-name="Trazado 145214" d="M581.06,358.477l.157-.09.472-.217,1.843-.817c1.619-.7,3.964-1.708,6.939-2.93,1.5-.6,3.117-1.266,4.916-1.933a18.639,18.639,0,0,1,2.847-.884,30.121,30.121,0,0,1,3.162-.39c2.173-.172,4.5-.247,6.879-.277h2.75a1.967,1.967,0,0,1,.989.21,1.589,1.589,0,0,1,.847,1.806.554.554,0,0,1-.225.255l-.225.142-.45.21a7.338,7.338,0,0,1-.944.33.2.2,0,0,1-.232-.135.187.187,0,0,1,.13-.231h.005a20.4,20.4,0,0,1,2.473-.555,9,9,0,0,1,2.623-.09,2.41,2.41,0,0,1,1.289.554,2.357,2.357,0,0,1,.637,1.266,6.609,6.609,0,0,1-.172,2.735l-.1-.232a3.687,3.687,0,0,1,1.1.974,3.9,3.9,0,0,1,.569,3.544,5.246,5.246,0,0,1-2.248,2.72l.075-.262a6.2,6.2,0,0,1,.629,3.462,3.98,3.98,0,0,1-1.873,2.832h0l-2.188,1.176.1-.187c.052.525.1,1.049.142,1.566a4.873,4.873,0,0,0,.037.749v.4a1.042,1.042,0,0,1-.157.427,4.792,4.792,0,0,1-1.131,1.079c-.4.3-.824.57-1.236.824a54.257,54.257,0,0,1-4.938,2.585h-.067l-14.469-.225-4-.082-1.049-.037a1.6,1.6,0,0,1-.36,0,1.924,1.924,0,0,1,.36,0h5.05l14.469.082h-.067a52.8,52.8,0,0,0,4.893-2.593c.4-.247.817-.517,1.206-.809a4.319,4.319,0,0,0,1.034-.982.644.644,0,0,0,.112-.262v-1.116c-.037-.51-.09-1.027-.15-1.544a.173.173,0,0,1,.1-.18l2.188-1.184h0a3.6,3.6,0,0,0,1.7-2.57,5.887,5.887,0,0,0-.6-3.23.2.2,0,0,1,.082-.255,4.884,4.884,0,0,0,2.1-2.5,3.531,3.531,0,0,0-.517-3.192,3.237,3.237,0,0,0-.967-.854.2.2,0,0,1-.1-.225,6.323,6.323,0,0,0,.165-2.555,1.694,1.694,0,0,0-1.6-1.5,8.52,8.52,0,0,0-2.5.09,18.769,18.769,0,0,0-2.428.532l-.1-.367a6.47,6.47,0,0,0,.884-.3c.142-.06.292-.127.42-.195s.262-.2.307-.187a1.6,1.6,0,0,0-.12-.787,1.382,1.382,0,0,0-.577-.577,1.559,1.559,0,0,0-.817-.165h-2.742c-2.4,0-4.7.09-6.864.247a31.018,31.018,0,0,0-3.125.367,19.44,19.44,0,0,0-2.81.854c-1.791.652-3.432,1.3-4.923,1.888L583.69,357.5l-1.866.749-.487.195Z" transform="translate(-491.336 -171.54)" fill="#eb996e"/>
      <path id="Trazado_145215" data-name="Trazado 145215" d="M509.417,372a20.664,20.664,0,0,0-3.859,3.335,20.332,20.332,0,0,0-2.578,4.406,4.23,4.23,0,0,1,.39-1.5,11.782,11.782,0,0,1,4.668-5.612A4.336,4.336,0,0,1,509.417,372Z" transform="translate(-471.763 -176.82)" fill="#eb996e"/>
      <path id="Trazado_145216" data-name="Trazado 145216" d="M586.349,148.108a26.406,26.406,0,0,0-26.271-24.338h-1.371c-14.747.832-22.285,13.818-21.041,28.542l2.54,59.009a2.674,2.674,0,0,0,1.5,2.293l33.105,15.534-.959-30.97s14.185-2.173,14.387-16.35C588.3,174.986,587.338,160.869,586.349,148.108Z" transform="translate(-480.425 -114.595)" fill="#ffbe9d"/>
      <path id="Trazado_145217" data-name="Trazado 145217" d="M579.9,221.17a34.331,34.331,0,0,1-18.561-5.47s4.346,10.206,18.493,8.992Z" transform="translate(-486.392 -137.64)" fill="#eb996e"/>
      <path id="Trazado_145218" data-name="Trazado 145218" d="M594.649,167.386a2.031,2.031,0,0,1-1.956,2.038,1.926,1.926,0,0,1-2.079-1.759c0-.023,0-.046,0-.069a2.016,2.016,0,0,1,1.948-2.038,1.941,1.941,0,0,1,2.088,1.782Z" transform="translate(-493.73 -125.069)" fill="#263238"/>
      <path id="Trazado_145219" data-name="Trazado 145219" d="M595.923,164.786c-.255.262-1.783-.877-3.964-.877s-3.747,1.094-4.009.824c-.12-.12.135-.592.832-1.1A5.584,5.584,0,0,1,592,162.65a5.306,5.306,0,0,1,3.155,1.027C595.818,164.186,596.043,164.666,595.923,164.786Z" transform="translate(-493.056 -124.341)" fill="#263238"/>
      <path id="Trazado_145220" data-name="Trazado 145220" d="M566.049,168.266a2.016,2.016,0,0,1-1.956,2.038,1.933,1.933,0,0,1-2.079-1.775c0-.017,0-.035,0-.053a2.023,2.023,0,0,1,1.956-2.038,1.933,1.933,0,0,1,2.079,1.775C566.047,168.23,566.048,168.248,566.049,168.266Z" transform="translate(-486.561 -125.289)" fill="#263238"/>
      <path id="Trazado_145221" data-name="Trazado 145221" d="M567.324,165.285c-.247.262-1.783-.869-3.956-.869s-3.747,1.087-4.016.817c-.112-.12.142-.592.839-1.094a5.53,5.53,0,0,1,3.215-.989,5.369,5.369,0,0,1,3.147,1.027C567.234,164.679,567.467,165.158,567.324,165.285Z" transform="translate(-485.888 -124.467)" fill="#263238"/>
      <path id="Trazado_145222" data-name="Trazado 145222" d="M580.2,181.488a14.879,14.879,0,0,1,3.537-.629c.555-.06,1.087-.165,1.176-.547a2.8,2.8,0,0,0-.367-1.649l-1.633-4.241c-2.248-5.995-3.919-10.993-3.672-11.083s2.248,4.728,4.556,10.768l1.566,4.264a3.207,3.207,0,0,1,.285,2.181,1.385,1.385,0,0,1-.922.809,3.865,3.865,0,0,1-.944.135A13.871,13.871,0,0,1,580.2,181.488Z" transform="translate(-490.874 -124.514)" fill="#263238"/>
      <path id="Trazado_145223" data-name="Trazado 145223" d="M571.878,189.56c.352,0,.352,2.338,2.375,4.024s4.533,1.424,4.556,1.753c0,.15-.562.465-1.626.487a5.885,5.885,0,0,1-3.807-1.334,5.126,5.126,0,0,1-1.836-3.372C571.429,190.129,571.691,189.545,571.878,189.56Z" transform="translate(-488.943 -131.087)" fill="#263238"/>
      <path id="Trazado_145224" data-name="Trazado 145224" d="M567.472,154.039c-.217.592-2.39.307-4.946.614s-4.623,1-4.968.465c-.15-.255.21-.817,1.049-1.386a8.333,8.333,0,0,1,3.679-1.281,8.245,8.245,0,0,1,3.867.465C567.09,153.3,567.562,153.762,567.472,154.039Z" transform="translate(-485.436 -121.77)" fill="#263238"/>
      <path id="Trazado_145225" data-name="Trazado 145225" d="M595.068,156.332c-.39.487-1.888,0-3.694-.052s-3.327.322-3.679-.195c-.157-.247.09-.749.749-1.214a5.35,5.35,0,0,1,5.935.195C595.023,155.575,595.233,156.085,595.068,156.332Z" transform="translate(-492.988 -122.19)" fill="#263238"/>
      <path id="Trazado_145226" data-name="Trazado 145226" d="M537.379,175.709c-.24-.1-9.741-2.9-9.442,6.8s9.959,7.4,9.966,7.119S537.379,175.709,537.379,175.709Z" transform="translate(-478.018 -127.502)" fill="#ffbe9d"/>
      <path id="Trazado_145227" data-name="Trazado 145227" d="M536.8,187.1c-.045,0-.165.12-.45.262a1.7,1.7,0,0,1-1.259.067c-1.034-.352-1.948-1.948-2.046-3.694a5.659,5.659,0,0,1,.4-2.428,1.948,1.948,0,0,1,1.237-1.334.87.87,0,0,1,1.011.427c.135.27.082.465.127.48s.21-.165.12-.562a1.13,1.13,0,0,0-.4-.6,1.268,1.268,0,0,0-.937-.217,2.376,2.376,0,0,0-1.723,1.551,5.737,5.737,0,0,0-.5,2.72c.12,1.956,1.176,3.747,2.585,4.114a1.8,1.8,0,0,0,1.5-.307C536.78,187.365,536.825,187.118,536.8,187.1Z" transform="translate(-479.127 -128.562)" fill="#eb996e"/>
      <path id="Trazado_145228" data-name="Trazado 145228" d="M544.824,133.218l40.4.892a18.416,18.416,0,0,0-5.935-6.864,31.525,31.525,0,0,0-18.3-6.587c-6.587-.12-20.007,7.913-24.78,12.454-3.822,3.634-3.792,6.781-3.792,6.781-.607,5.245,2.323,11.195,3.492,16.343.6,2.653,1.761,10.678,1.761,10.678h0c2.248,0,3.05-1.776,2.713-3.979l-.412-8.64a13.036,13.036,0,0,0,3.979-15.226C543.4,138.284,542.171,134.687,544.824,133.218Z" transform="translate(-479.123 -113.815)" fill="#263238"/>
      <path id="Trazado_145229" data-name="Trazado 145229" d="M560.252,178.136a.247.247,0,0,1-.255-.24h0a.255.255,0,0,1,.18-.307.262.262,0,0,1,.292.217.254.254,0,0,1-.167.319A.231.231,0,0,1,560.252,178.136Z" transform="translate(-486.054 -128.086)" fill="#eb996e"/>
      <path id="Trazado_145230" data-name="Trazado 145230" d="M565.8,176.872a.3.3,0,0,1-.3-.247.284.284,0,0,1,.18-.345.277.277,0,0,1,.292.255A.27.27,0,0,1,565.8,176.872Z" transform="translate(-487.432 -127.758)" fill="#eb996e"/>
      <path id="Trazado_145231" data-name="Trazado 145231" d="M569.54,176.739c-.135,0-.262-.142-.292-.36s.06-.4.195-.42.255.142.285.36S569.668,176.739,569.54,176.739Z" transform="translate(-488.374 -127.678)" fill="#eb996e"/>
      <path id="Trazado_145232" data-name="Trazado 145232" d="M562.98,181.707c-.127,0-.24-.067-.24-.15s.112-.157.24-.157.24.075.24.157S563.115,181.707,562.98,181.707Z" transform="translate(-486.743 -129.042)" fill="#eb996e"/>
      <path id="Trazado_145233" data-name="Trazado 145233" d="M568.062,180.459a.271.271,0,1,1-.045-.54h0a.255.255,0,0,1,.262.247h0A.262.262,0,0,1,568.062,180.459Z" transform="translate(-488.004 -128.671)" fill="#eb996e"/>
      <path id="Trazado_145234" data-name="Trazado 145234" d="M594.572,177.351a.247.247,0,0,1-.283-.205l0-.012a.243.243,0,1,1,.472-.1.255.255,0,0,1-.179.312Z" transform="translate(-494.65 -127.893)" fill="#eb996e"/>
      <path id="Trazado_145235" data-name="Trazado 145235" d="M598.325,176.99a.307.307,0,1,1,.2-.387.317.317,0,0,1,.013.065A.277.277,0,0,1,598.325,176.99Z" transform="translate(-495.563 -127.786)" fill="#eb996e"/>
      <path id="Trazado_145236" data-name="Trazado 145236" d="M591.236,177.47a.232.232,0,0,1-.277-.157.241.241,0,0,1,.472-.1A.232.232,0,0,1,591.236,177.47Z" transform="translate(-493.816 -127.944)" fill="#eb996e"/>
      <path id="Trazado_145237" data-name="Trazado 145237" d="M593.983,181.235a.285.285,0,1,1,.082-.394.4.4,0,0,1,.023.042A.262.262,0,0,1,593.983,181.235Z" transform="translate(-494.465 -128.869)" fill="#eb996e"/>
      <path id="Trazado_145238" data-name="Trazado 145238" d="M597.3,180.641a.225.225,0,0,1-.18-.255.247.247,0,0,1,.465.127A.224.224,0,0,1,597.3,180.641Z" transform="translate(-495.361 -128.755)" fill="#eb996e"/>
      <path id="Trazado_145239" data-name="Trazado 145239" d="M537.058,131.364A11.944,11.944,0,0,1,549,116.512c1.888.075,3.747.607,5.635.4,3.5-.382,6.2-3.185,9.441-4.548a12.319,12.319,0,0,1,14.529,4.361c1.229,1.836,2.031,4.106,3.919,5.245,1.626,1,3.679.914,5.508,1.5a8.983,8.983,0,0,1,6.04,8.9,10.581,10.581,0,0,1-6.452,8.9,12.948,12.948,0,0,1-11.165-.749c-3.05-1.7-5.777-4.593-9.269-4.5-3.612.1-6.744,3.507-10.311,2.8-1.858-.367-3.289-1.8-4.653-3.117s-2.922-2.66-4.818-2.773-2.877,2.488-2.2,4.256l-8.145-5.837" transform="translate(-480.215 -111.526)" fill="#263238"/>
      <path id="Trazado_145240" data-name="Trazado 145240" d="M587.151,129.837a1.238,1.238,0,0,1-.068.142,3.959,3.959,0,0,1-.232.39,6.763,6.763,0,0,1-1.161,1.319,7.253,7.253,0,0,1-2.405,1.394,6.878,6.878,0,0,1-3.664.217,7.29,7.29,0,0,1-3.867-2.2c-1.1-1.206-1.761-2.832-2.788-4.256a5.621,5.621,0,0,0-1.956-1.768,5.724,5.724,0,0,0-2.682-.592,6.087,6.087,0,0,0-2.75.749,5.165,5.165,0,0,0-2.023,2.083c-.487.892-.839,1.866-1.424,2.728a3.342,3.342,0,0,1-2.593,1.574,5.046,5.046,0,0,1-2.817-.809,10.637,10.637,0,0,1-2.143-1.776c-1.251-1.259-2.48-2.518-4.009-2.855a5.1,5.1,0,0,0-4.061.952,6.964,6.964,0,0,0-2.248,2.758,11.574,11.574,0,0,0-.839,2.6c-.15.749-.217,1.319-.262,1.716a4.6,4.6,0,0,1-.09.607.552.552,0,0,1,0-.157v-.457a14.1,14.1,0,0,1,.2-1.738,11.077,11.077,0,0,1,.749-2.66,7.157,7.157,0,0,1,2.248-2.892,5.335,5.335,0,0,1,4.294-1.042c1.656.352,2.937,1.671,4.181,2.915a10.71,10.71,0,0,0,2.083,1.708,4.677,4.677,0,0,0,2.608.749,3,3,0,0,0,2.293-1.409c.547-.809.9-1.776,1.4-2.7a5.54,5.54,0,0,1,2.181-2.248,6.488,6.488,0,0,1,2.93-.787,6.125,6.125,0,0,1,2.862.644,6,6,0,0,1,2.076,1.888,49.552,49.552,0,0,0,2.735,4.256,7.027,7.027,0,0,0,3.687,2.143,6.612,6.612,0,0,0,3.537-.157,7.194,7.194,0,0,0,2.375-1.3A9.054,9.054,0,0,0,587.151,129.837Z" transform="translate(-481.811 -114.675)" fill="#455a64"/>
      <path id="Trazado_145241" data-name="Trazado 145241" d="M606.772,132a2.258,2.258,0,0,1,.165.749,6.3,6.3,0,0,1-.2,2.166,7.494,7.494,0,0,1-1.5,2.847,8.8,8.8,0,0,1-3.192,2.33,13.088,13.088,0,0,1-7.051.794,19.307,19.307,0,0,1-2.113-.42,2.578,2.578,0,0,1-.749-.255c0-.06,1.1.21,2.9.4a13.626,13.626,0,0,0,6.856-.877,8.719,8.719,0,0,0,3.08-2.2,7.561,7.561,0,0,0,1.5-2.7A8.583,8.583,0,0,0,606.772,132Z" transform="translate(-494.111 -116.658)" fill="#455a64"/>
      <path id="Trazado_145242" data-name="Trazado 145242" d="M519.64,336.035a8.1,8.1,0,0,0,1.693,4.2,5.467,5.467,0,0,0,4.046,2.151,6.175,6.175,0,0,0,5.448-2.735c1.731-2.743,2.151-8.46.749-11.839-.952-2.323-3.095-4.5-5.6-4.548a6.2,6.2,0,0,0-6.07,4.721" transform="translate(-475.939 -164.602)" fill="#e0e0e0"/>
      <path id="Trazado_145243" data-name="Trazado 145243" d="M519.9,327.931a5.039,5.039,0,0,1,.614-1.619,6.5,6.5,0,0,1,1.236-1.626,5.7,5.7,0,0,1,2.33-1.364,5.9,5.9,0,0,1,1.566-.255,4.708,4.708,0,0,1,1.716.225,6.743,6.743,0,0,1,3.065,2.2,8.911,8.911,0,0,1,1.8,3.747,16.124,16.124,0,0,1,.337,4.444,12.276,12.276,0,0,1-1.918,6.467,5.748,5.748,0,0,1-2.488,1.873,6.66,6.66,0,0,1-2.81.472h0a4.258,4.258,0,0,1-2.023-.495,6.764,6.764,0,0,1-1.5-1.064,7.49,7.49,0,0,1-1.656-2.458,7.665,7.665,0,0,1-.525-1.821,3.922,3.922,0,0,1-.045-.495.393.393,0,0,1,0-.172,9.8,9.8,0,0,0,.749,2.413,7.736,7.736,0,0,0,1.664,2.345,6.612,6.612,0,0,0,1.5.989,3.97,3.97,0,0,0,1.873.442h0a5.994,5.994,0,0,0,4.983-2.248,12.147,12.147,0,0,0,1.821-6.264c.157-3-.337-5.95-2.023-7.943a6.552,6.552,0,0,0-2.885-2.113,4.647,4.647,0,0,0-1.611-.232,5.635,5.635,0,0,0-1.5.217,5.5,5.5,0,0,0-2.248,1.266,6.651,6.651,0,0,0-1.274,1.529A15.118,15.118,0,0,0,519.9,327.931Z" transform="translate(-475.926 -164.552)" fill="#263238"/>
      <path id="Trazado_145244" data-name="Trazado 145244" d="M517.3,336.236a8.123,8.123,0,0,0,1.693,4.2,5.467,5.467,0,0,0,4.046,2.151,6.175,6.175,0,0,0,5.448-2.735c1.723-2.75,2.15-8.46.749-11.839-.952-2.33-3.087-4.5-5.6-4.548a6.2,6.2,0,0,0-6.07,4.713" transform="translate(-475.353 -164.652)" fill="#e0e0e0"/>
      <path id="Trazado_145245" data-name="Trazado 145245" d="M517.577,328.123a5.041,5.041,0,0,1,.614-1.611,6.307,6.307,0,0,1,1.237-1.626,5.757,5.757,0,0,1,3.9-1.619,4.709,4.709,0,0,1,1.716.225,6.7,6.7,0,0,1,3.065,2.2,8.909,8.909,0,0,1,1.8,3.747,15.86,15.86,0,0,1,.33,4.444,12.223,12.223,0,0,1-1.911,6.467,5.748,5.748,0,0,1-2.488,1.873,6.661,6.661,0,0,1-2.81.472h0a4.253,4.253,0,0,1-2.023-.5,6.31,6.31,0,0,1-1.5-1.057,7.443,7.443,0,0,1-1.656-2.465,7.172,7.172,0,0,1-.524-1.813,3.909,3.909,0,0,1-.045-.495.393.393,0,0,1,0-.172,9.816,9.816,0,0,0,.749,2.405,7.54,7.54,0,0,0,1.664,2.353,6.609,6.609,0,0,0,1.5.989,4.065,4.065,0,0,0,1.873.442h0a5.994,5.994,0,0,0,4.983-2.248,12.1,12.1,0,0,0,1.813-6.264c.165-3-.33-5.95-2.023-7.943a6.426,6.426,0,0,0-2.877-2.113,4.648,4.648,0,0,0-1.611-.232,5.729,5.729,0,0,0-1.5.217,5.52,5.52,0,0,0-2.248,1.266,6.623,6.623,0,0,0-1.259,1.536A16.426,16.426,0,0,0,517.577,328.123Z" transform="translate(-475.345 -164.603)" fill="#263238"/>
      <path id="Trazado_145246" data-name="Trazado 145246" d="M520.039,328.62a3.852,3.852,0,0,0-4.024,2.315,6.686,6.686,0,0,0,0,4.893,6.187,6.187,0,0,0,1.251,2.2,3.331,3.331,0,0,0,2.248,1.087,3.9,3.9,0,0,0,3.117-1.828,7,7,0,0,0,1.057-5.747c-.345-1.3-1.3-2.63-2.638-2.668" transform="translate(-474.914 -165.938)" fill="#e0e0e0"/>
      <path id="Trazado_145247" data-name="Trazado 145247" d="M520.959,328.889h.292a2.032,2.032,0,0,1,.817.277,3.973,3.973,0,0,1,1.716,2.578,7.115,7.115,0,0,1-.465,4.586,6,6,0,0,1-1.678,2.2,3.26,3.26,0,0,1-2.892.7,4.09,4.09,0,0,1-2.315-1.888,8.442,8.442,0,0,1-.959-2.593,5.763,5.763,0,0,1,.749-4.5,4.024,4.024,0,0,1,2.615-1.664,2.914,2.914,0,0,1,.854,0c.187.037.285.067.285.082a5.926,5.926,0,0,0-1.117.067,4,4,0,0,0-2.413,1.671,5.552,5.552,0,0,0-.622,4.294,8.218,8.218,0,0,0,.937,2.465,3.7,3.7,0,0,0,2.091,1.708,2.855,2.855,0,0,0,2.548-.614,5.638,5.638,0,0,0,1.589-2.053,6.925,6.925,0,0,0,.525-4.376,3.963,3.963,0,0,0-1.5-2.51A3.169,3.169,0,0,0,520.959,328.889Z" transform="translate(-474.853 -165.93)" fill="#263238"/>
      <path id="Trazado_145248" data-name="Trazado 145248" d="M525.264,344.433c-.052,0-.135-.24-.4-.54a2.759,2.759,0,0,0-1.274-.817,6.95,6.95,0,0,0-1.574-.247c-.42,0-.682-.067-.689-.12s.255-.112.682-.157a4.4,4.4,0,0,1,1.693.15,2.448,2.448,0,0,1,1.386,1.034C525.331,344.125,525.309,344.425,525.264,344.433Z" transform="translate(-476.363 -169.432)" fill="#263238"/>
      <path id="Trazado_145249" data-name="Trazado 145249" d="M525.9,327.27a1.569,1.569,0,0,1-.465.539,3.6,3.6,0,0,1-1.581.689,3.684,3.684,0,0,1-1.716-.09c-.427-.142-.652-.307-.629-.352a8.854,8.854,0,0,0,2.248.06A9.351,9.351,0,0,0,525.9,327.27Z" transform="translate(-476.408 -165.608)" fill="#263238"/>
    </g>
    <g id="freepik--character-1--inject-8" transform="translate(53.706 102.721)">
      <path id="Trazado_145250" data-name="Trazado 145250" d="M233.285,144.791c.09-3.267-2.922-5.785-5.995-6.984s-6.414-1.648-9.127-3.469c-2.4-1.619-4.009-4.136-6.04-6.189a20.1,20.1,0,0,0-33.81,9.224c-1.161,4.646-.367,10.138,3.3,13.233,4.256,3.582,10.558,2.787,16.006,1.671s11.622-2.248,16.17.982c2.743,1.933,4.316,5.073,5.995,7.98s3.747,5.867,6.954,6.961,7.493-.794,7.606-4.144" transform="translate(-88.74 -122.165)" fill="#263238"/>
      <path id="Trazado_145251" data-name="Trazado 145251" d="M229.629,149.866c-.36,2.735,1.619,5.185,3.589,7.119s4.2,3.979,4.548,6.744c.4,3.2-1.933,6.347-1.251,9.5.427,2,1.986,3.537,2.93,5.358a11.42,11.42,0,0,1,.577,8.385c-.809,2.758-2.106,8.909-4.024,11.053a44.2,44.2,0,0,1-21.468,12.806c-7.741,1.776-15.788,1.791-23.716,1.3-6.489-.4-13.96-.1-19.37-9.029-2.8-4.631-4.189-10.775-5.672-15.976-1.289-4.5-2.4-9.269-1.064-13.735.749-2.593,2.345-4.908,3.11-7.493.959-3.252.607-6.744.989-10.093a23.161,23.161,0,0,1,32.97-18.291" transform="translate(-85.302 -125.449)" fill="#263238"/>
      <path id="Trazado_145252" data-name="Trazado 145252" d="M174.313,163.1c.607-9.314,6.8-20.734,16.088-19.73l28.969,7.388a5.478,5.478,0,0,1,4.878,5.553l-3.26,69.9.2.037s-6.6,19.715-25.762,13.7c-3.8-1.2-5.538-5.35-6.287-9.629h-.195v-1.5a45.872,45.872,0,0,1-.112-9.6h0c-.052-5.642-.045-7.95-.052-7.9s-11.9-2.008-14.327-17.542C173.219,186.111,173.638,173.447,174.313,163.1Z" transform="translate(-87.698 -127.465)" fill="#ffbe9d"/>
      <path id="Trazado_145253" data-name="Trazado 145253" d="M180.76,181.609a1.985,1.985,0,0,0,1.911,2.016,1.91,1.91,0,0,0,2.058-1.751l0-.04a1.993,1.993,0,0,0-1.918-2.016,1.9,1.9,0,0,0-2.05,1.744Z" transform="translate(-89.477 -136.615)" fill="#263238"/>
      <path id="Trazado_145254" data-name="Trazado 145254" d="M178.159,177.823c.247.262,1.761-.854,3.9-.847s3.747,1.087,3.949.824c.112-.112-.142-.584-.824-1.079a5.4,5.4,0,0,0-3.155-.982,5.249,5.249,0,0,0-3.11.989C178.264,177.239,178.031,177.7,178.159,177.823Z" transform="translate(-88.817 -135.595)" fill="#263238"/>
      <path id="Trazado_145255" data-name="Trazado 145255" d="M208.87,181.609a1.993,1.993,0,0,0,1.918,2.016,1.9,1.9,0,0,0,2.05-1.744l0-.046a1.985,1.985,0,0,0-1.911-2.016,1.9,1.9,0,0,0-2.057,1.736C208.872,181.572,208.871,181.591,208.87,181.609Z" transform="translate(-96.524 -136.615)" fill="#263238"/>
      <path id="Trazado_145256" data-name="Trazado 145256" d="M206.28,178.413c.247.262,1.761-.847,3.9-.839s3.709,1.087,3.941.824c.112-.12-.135-.584-.824-1.087a5.5,5.5,0,0,0-3.155-.982,5.246,5.246,0,0,0-3.1,1C206.385,177.829,206.16,178.331,206.28,178.413Z" transform="translate(-95.867 -135.743)" fill="#263238"/>
      <path id="Trazado_145257" data-name="Trazado 145257" d="M194.053,194.329a14.606,14.606,0,0,0-3.477-.637c-.547-.052-1.064-.165-1.161-.539a2.77,2.77,0,0,1,.375-1.619l1.626-4.166c2.248-5.927,3.9-10.805,3.657-10.888s-2.248,4.638-4.5,10.573q-.824,2.188-1.559,4.189a3.146,3.146,0,0,0-.292,2.143,1.379,1.379,0,0,0,.9.8,3.819,3.819,0,0,0,.929.135A13.362,13.362,0,0,0,194.053,194.329Z" transform="translate(-91.456 -135.78)" fill="#263238"/>
      <path id="Trazado_145258" data-name="Trazado 145258" d="M193.81,232.308a39.475,39.475,0,0,0,20.809-5.508s-5.245,10.738-20.794,9.254Z" transform="translate(-92.749 -148.394)" fill="#eb996e"/>
      <path id="Trazado_145259" data-name="Trazado 145259" d="M196.989,206.715a3.844,3.844,0,0,1,3.462-1.424,3.506,3.506,0,0,1,2.435,1.311,2.248,2.248,0,0,1,.157,2.548,2.562,2.562,0,0,1-2.81.7,8.143,8.143,0,0,1-2.735-1.641,2.209,2.209,0,0,1-.607-.629.749.749,0,0,1,0-.8" transform="translate(-93.492 -142.996)" fill="#eb996e"/>
      <path id="Trazado_145260" data-name="Trazado 145260" d="M201.979,202.3c-.345,0-.352,2.308-2.353,3.949s-4.5,1.386-4.5,1.716c0,.142.554.45,1.6.48a5.778,5.778,0,0,0,3.747-1.3,5.043,5.043,0,0,0,1.821-3.312C202.4,202.862,202.144,202.285,201.979,202.3Z" transform="translate(-93.079 -142.253)" fill="#263238"/>
      <path id="Trazado_145261" data-name="Trazado 145261" d="M205,173.565c.21.584,2.353.315,4.863.622s4.548,1,4.886.48c.15-.247-.2-.8-1.027-1.364a8,8,0,0,0-3.612-1.274,8.135,8.135,0,0,0-3.807.435C205.379,172.838,204.914,173.288,205,173.565Z" transform="translate(-95.551 -134.649)" fill="#263238"/>
      <path id="Trazado_145262" data-name="Trazado 145262" d="M179.22,169.51c.382.487,1.858,0,3.634,0s3.275.33,3.627-.172c.15-.247-.09-.749-.749-1.2a5.245,5.245,0,0,0-5.845.165C179.265,168.776,179.04,169.278,179.22,169.51Z" transform="translate(-89.076 -133.486)" fill="#263238"/>
      <path id="Trazado_145263" data-name="Trazado 145263" d="M234.61,200.747a13.788,13.788,0,0,1-16.4-15.249c.48-3.814,2.54-7.7,1.214-11.307-1.746-4.773-8.437-6.242-10.213-11.008-1.034-2.765-.1-5.995-1.274-8.715-1.1-2.555-3.784-4.024-6.4-4.968s-5.41-1.6-7.606-3.3-3.559-4.923-2.143-7.313a146.868,146.868,0,0,1,33.929,8.243c2.54.944,5.2,2.083,6.7,4.339,1.589,2.383,1.5,5.463,1.379,8.325l-1.956,41.827" transform="translate(-92.096 -126.357)" fill="#263238"/>
      <path id="Trazado_145264" data-name="Trazado 145264" d="M233.3,203.443a1.774,1.774,0,0,0,.255-.157l.689-.525c.6-.472,1.5-1.169,2.57-2.136a26.543,26.543,0,0,0,3.649-3.837,14.327,14.327,0,0,0,2.907-6.4,9.741,9.741,0,0,0-2-8.168,31.235,31.235,0,0,0-3.619-3.087,8.4,8.4,0,0,1-2.825-3.837c-1.146-3.162-.637-6.826-1.079-10.573a21.028,21.028,0,0,0-4.406-10.7,14.46,14.46,0,0,0-4.6-3.747,28.12,28.12,0,0,0-5.433-1.828,12.667,12.667,0,0,1-4.773-2.353,18.926,18.926,0,0,1-3.462-3.814c-1.948-2.773-3.394-5.725-5.245-8.19a17.549,17.549,0,0,0-3.057-3.245,11.736,11.736,0,0,0-3.627-1.978,7.749,7.749,0,0,0-6.9.689,6.362,6.362,0,0,0-2.45,4.646,4.661,4.661,0,0,0,.937,3.2,2.984,2.984,0,0,0,.629.607,1.077,1.077,0,0,0,.255.165,1.693,1.693,0,0,0-.21-.217,3.446,3.446,0,0,1-.562-.637,4.571,4.571,0,0,1-.749-3.095,6.093,6.093,0,0,1,2.405-4.361,7.343,7.343,0,0,1,6.519-.54,11.246,11.246,0,0,1,3.454,1.926,17.845,17.845,0,0,1,2.937,3.177c1.8,2.42,3.215,5.373,5.193,8.243a19.278,19.278,0,0,0,3.567,3.964,13.151,13.151,0,0,0,4.923,2.435,27.577,27.577,0,0,1,5.313,1.8,13.849,13.849,0,0,1,4.391,3.6,20.373,20.373,0,0,1,4.286,10.341c.457,3.619-.067,7.343,1.154,10.708a9.091,9.091,0,0,0,3,4.1,31.678,31.678,0,0,1,3.574,3,9.238,9.238,0,0,1,1.948,7.718,14.039,14.039,0,0,1-2.728,6.242,28.727,28.727,0,0,1-3.529,3.874c-1.057.989-1.911,1.716-2.48,2.248A9.2,9.2,0,0,0,233.3,203.443Z" transform="translate(-91.763 -123.718)" fill="#455a64"/>
      <path id="Trazado_145265" data-name="Trazado 145265" d="M248.8,230.687c3.192-3.087,8.64-.4,11.322,3.132s4.578,8.108,8.647,9.891,9.352.247,12.739,3.08c4.706,3.911,2.061,12.971,7.156,16.373,2.016,1.349,4.683,1.3,6.841,2.413,5.088,2.623,5.028,9.8,4.241,15.474-1.072,7.98-2.285,16.223-6.676,22.967s-12.941,11.457-20.539,8.865c-7.306-2.5-11.06-10.378-14.035-17.5q-6.159-14.822-12.334-29.576c-2.375-5.7-4.781-11.495-5.553-17.624s.262-12.739,4.166-17.549" transform="translate(-104.421 -149.029)" fill="#263238"/>
      <path id="Trazado_145266" data-name="Trazado 145266" d="M251.517,222.047c2.315-.277,4.091,2.563,3.477,4.818s-2.773,3.747-4.983,4.5a7.432,7.432,0,0,1-3.844.442,3.748,3.748,0,0,1-2.915-2.345,2.2,2.2,0,0,1,1.064-2.915c1.5-.952,2.42-1.7,3.627-2.368,1.843-1.012,1.731-1.146,3.574-2.166" transform="translate(-105.092 -147.193)" fill="#7e5ee3"/>
      <path id="Trazado_145267" data-name="Trazado 145267" d="M181.323,252.4l9.007-6.826,33.952-2.173,1.364,4.556L214.6,316.864l8.715,82.216H175.95Z" transform="translate(-88.272 -152.555)" fill="#7e5ee3"/>
      <g id="Grupo_73246" data-name="Grupo 73246" transform="translate(89.784 212.94)" opacity="0.3">
        <path id="Trazado_145268" data-name="Trazado 145268" d="M218.377,410.761c-1.087-1.161-2.862-2.75-4.444-2.787-11.345-.247-22.922-1.379-34.267-1.634l-.907,33.6c2.713-4.781,5.283-9.741,5.995-15.211.315-2.383.749-5.245,2.885-6.249a6.45,6.45,0,0,1,4-.082c4.1.809,8.168,1.866,12.334,2.128s8.535-.352,12.034-2.63a7.379,7.379,0,0,0,2.877-3.11A3.813,3.813,0,0,0,218.377,410.761Z" transform="translate(-178.76 -406.34)"/>
      </g>
      <path id="Trazado_145269" data-name="Trazado 145269" d="M192.491,251.874l-1.057-9.854a3.132,3.132,0,0,1,2.787-3.442l.045,0,31.247-2.825a1.5,1.5,0,0,1,1.608,1.38l0,.043.352,11.727-9.052,15.354-9.3,2.96H197.752l-6.542-6.984Z" transform="translate(-92.097 -150.636)" fill="#7e5ee3"/>
      <path id="Trazado_145270" data-name="Trazado 145270" d="M223.039,248.129a10.612,10.612,0,0,1-1.251-.127,22.512,22.512,0,0,0-3.4-.06,33,33,0,0,0-5.006.749c-1.866.39-3.9.937-6.047,1.461a39.289,39.289,0,0,1-6.152,1.094,15.9,15.9,0,0,1-5.1-.345,10.592,10.592,0,0,1-3.177-1.319,7.617,7.617,0,0,1-.749-.555c-.165-.135-.247-.217-.232-.225s.367.247,1.072.644a11.63,11.63,0,0,0,3.17,1.184,16.155,16.155,0,0,0,5.006.255,41.4,41.4,0,0,0,6.092-1.117c2.143-.517,4.181-1.057,6.062-1.431a30.17,30.17,0,0,1,5.065-.644,18.148,18.148,0,0,1,3.439.18q.607.1.922.18C222.934,248.084,223.046,248.114,223.039,248.129Z" transform="translate(-92.274 -153.628)" fill="#263238"/>
      <g id="Grupo_73247" data-name="Grupo 73247" transform="translate(100.578 94.214)" opacity="0.3">
        <path id="Trazado_145271" data-name="Trazado 145271" d="M193.723,249.735c-.839,2.3-.862,5.148.839,6.909a6.087,6.087,0,0,0,5.56,1.409,17.533,17.533,0,0,0,5.433-2.443c4.3-2.555,8.677-5.208,13.563-6.294a1.735,1.735,0,0,0,.877-.367.577.577,0,0,0,.031-.815l-.031-.031a.818.818,0,0,0-.4-.112c-4.324-.435-8.617.749-12.851,1.738s-8.767,1.626-12.851.15" transform="translate(-193.165 -247.897)"/>
      </g>
      <path id="Trazado_145272" data-name="Trazado 145272" d="M201.244,239.1a2.878,2.878,0,0,0-1.072,1.019,7.224,7.224,0,0,0-.427,3.6c.082,2.915.562,5.245.45,5.245a5.1,5.1,0,0,1-.427-1.5,23.649,23.649,0,0,1-.412-3.747,17.375,17.375,0,0,1,.045-2.091,3.61,3.61,0,0,1,.539-1.656,2.162,2.162,0,0,1,.877-.787C201.079,239.074,201.236,239.074,201.244,239.1Z" transform="translate(-94.135 -151.474)" fill="#263238"/>
      <path id="Trazado_145273" data-name="Trazado 145273" d="M212.45,247.382a45.182,45.182,0,0,0-.225-4.766c-.36-2.615-1.229-4.6-1.109-4.646a4.109,4.109,0,0,1,.637,1.266,15.489,15.489,0,0,1,.862,3.32,15.2,15.2,0,0,1,.1,3.432A4.2,4.2,0,0,1,212.45,247.382Z" transform="translate(-97.084 -151.194)" fill="#263238"/>
      <path id="Trazado_145274" data-name="Trazado 145274" d="M226.139,236.86a3.08,3.08,0,0,1,.592,1.161,8.2,8.2,0,0,1,.412,3.125,8.074,8.074,0,0,1-.824,3.05,2.994,2.994,0,0,1-.749,1.072,10.34,10.34,0,0,0,.562-8.407Z" transform="translate(-100.71 -150.916)" fill="#263238"/>
      <path id="Trazado_145275" data-name="Trazado 145275" d="M157.048,261.33s-10.655,7.134-13.488,20.022c-2.2,10.131-8.243,63.648-8.243,63.648L124.76,365.546l6.894,16.4h0a25.207,25.207,0,0,0,16.56-4.728l4.638-3.372,8.5-12.611Z" transform="translate(-75.439 -157.05)" fill="#ebebeb"/>
      <path id="Trazado_145276" data-name="Trazado 145276" d="M181.407,248.71l-18.059,9.456-4.264,14-3.8,40.606,7.149,47.6L149.89,400.268l21.633.157.517-23.379,2.158-75.682,2.121-48.212Z" transform="translate(-81.739 -153.887)" fill="#ebebeb"/>
      <path id="Trazado_145277" data-name="Trazado 145277" d="M178.164,313.209a4.112,4.112,0,0,1-.337-.569l-.9-1.656c-.375-.749-.749-1.664-1.206-2.728-.217-.54-.4-1.132-.622-1.753s-.457-1.281-.644-1.986a74.8,74.8,0,0,1-2.585-22.645c0-.689.052-1.371.1-2.053v-.12l.112-.045,3.162-1.334-.045.33-3.162-2.54-.067-.052v-.075a27.336,27.336,0,0,1,1.439-9.029c.794-2.645,1.664-4.923,2.428-6.8s1.431-3.334,1.9-4.324c.24-.5.427-.884.555-1.131a2.56,2.56,0,0,1,.217-.382,1.821,1.821,0,0,1-.157.4l-.5,1.161c-.435,1-1.064,2.48-1.8,4.361s-1.574,4.159-2.338,6.8a27.418,27.418,0,0,0-1.371,8.909l-.075-.127,3.17,2.525.247.2-.292.127-3.162,1.334.12-.165c-.045.667-.075,1.349-.1,2.038a77.334,77.334,0,0,0,2.465,22.547c.172.712.4,1.364.607,1.986s.382,1.221.6,1.761c.442,1.064.749,2,1.139,2.735l.824,1.686A4.98,4.98,0,0,1,178.164,313.209Z" transform="translate(-87.241 -155.293)" fill="#263238"/>
      <path id="Trazado_145278" data-name="Trazado 145278" d="M160.109,350.891a5.487,5.487,0,0,1-.172-.584q-.157-.637-.427-1.708c-.187-.749-.4-1.649-.607-2.705s-.487-2.248-.7-3.619-.495-2.817-.7-4.406-.4-3.3-.592-5.088c-.33-3.6-.547-7.561-.547-11.727s.247-8.13.584-11.719c.2-1.791.375-3.5.622-5.088s.465-3.065.7-4.406.495-2.548.749-3.612.435-1.971.622-2.705.322-1.281.435-1.7a4.384,4.384,0,0,1,.172-.592,3.475,3.475,0,0,1-.1.607l-.36,1.716c-.165.749-.367,1.656-.554,2.72s-.457,2.248-.659,3.619-.465,2.81-.652,4.4-.4,3.29-.585,5.073c-.315,3.589-.54,7.538-.554,11.7s.21,8.1.51,11.689c.187,1.783.337,3.492.562,5.073s.427,3.065.644,4.406.45,2.555.637,3.619.382,1.978.547,2.72.27,1.289.352,1.716A2.9,2.9,0,0,1,160.109,350.891Z" transform="translate(-83.363 -164.545)" fill="#263238"/>
      <path id="Trazado_145279" data-name="Trazado 145279" d="M164.99,419.63a7.712,7.712,0,0,1-.877,1.821,29.4,29.4,0,0,1-2.765,4.009,28.96,28.96,0,0,1-3.387,3.5,8.12,8.12,0,0,1-1.611,1.221,14.351,14.351,0,0,1,1.424-1.424,40.837,40.837,0,0,0,6.107-7.448A14.446,14.446,0,0,1,164.99,419.63Z" transform="translate(-83.358 -196.732)" fill="#263238"/>
      <path id="Trazado_145280" data-name="Trazado 145280" d="M261.887,259.4a24.855,24.855,0,0,1,15.241,17.684c5.912,26.047,16.021,60.7,16.185,71.883.195,14.237-5.995,23.978-14.155,25.777-6.429,1.424-64.682-1.768-64.682-1.768l-2.728-21.73,47.207-6.946L252.5,308.275l6.392-49.995Z" transform="translate(-97.246 -156.285)" fill="#ebebeb"/>
      <path id="Trazado_145281" data-name="Trazado 145281" d="M262.387,253.75l-13.046-5.328-13.75-8.063-.082,2.36h0a13.835,13.835,0,0,1,1.656,9.561L225.7,311.973l2.593,43.618L233.62,398.3h41.37l-19-44.7,6.706-60.238Z" transform="translate(-100.743 -151.793)" fill="#ebebeb"/>
      <path id="Trazado_145282" data-name="Trazado 145282" d="M270.932,403.757l-.285.037-.832.082c-.749.075-1.821.067-3.23.1-2.8,0-6.879-.06-11.952-.225-10.138-.337-24.248-1.019-40.186-1.941h-.157v-.165c-.322-2.585-.667-5.313-1.012-8.078-.592-4.683-1.161-9.254-1.708-13.623v-.187h.18l36.028-5.245,10.58-1.5,2.84-.382.749-.1h.255l-.247.052-.749.127-2.832.45-10.558,1.611-35.968,5.373.157-.217c.555,4.376,1.131,8.939,1.716,13.623.352,2.772.689,5.5,1.012,8.085l-.18-.165c15.931.929,30.048,1.656,40.179,2.068,5.065.195,9.134.307,11.937.345,1.4,0,2.5,0,3.222-.045l.832-.045Z" transform="translate(-97.201 -184.928)" fill="#263238"/>
      <path id="Trazado_145283" data-name="Trazado 145283" d="M265.607,320.08a1.538,1.538,0,0,1,.1.4c.06.307.135.682.225,1.154.195,1.057.457,2.5.749,4.264.637,3.657,1.5,8.61,2.458,14.087s1.738,10.446,2.353,14.11c.277,1.768.5,3.215.667,4.279.067.472.12.862.165,1.169a1.721,1.721,0,0,1,0,.412,1.44,1.44,0,0,1-.112-.4c-.06-.307-.135-.689-.232-1.154-.195-1.064-.465-2.5-.794-4.264-.652-3.6-1.5-8.58-2.458-14.087s-1.768-10.491-2.345-14.11c-.27-1.768-.495-3.222-.659-4.286q-.09-.7-.157-1.169A1.9,1.9,0,0,1,265.607,320.08Z" transform="translate(-110.737 -171.777)" fill="#263238"/>
      <path id="Trazado_145284" data-name="Trazado 145284" d="M242.024,246a.361.361,0,0,0,.052.15l.12.435c.1.39.262.952.42,1.7a54.488,54.488,0,0,1,.989,6.422,71.81,71.81,0,0,1,.247,9.8c-.127,3.747-.517,7.845-1.079,12.214v.135h-.135l-4.294.794.142-.262c.247.659.495,1.364.689,2.091a26.569,26.569,0,0,1-.487,14.469,45.3,45.3,0,0,1-5.006,10.79c-1.783,2.892-3.387,5.11-4.5,6.647l-1.3,1.753c-.135.187-.255.33-.345.45a.61.61,0,0,1-.127.15s0-.06.1-.172l.315-.472c.3-.435.749-1.034,1.229-1.8,1.072-1.559,2.645-3.8,4.384-6.7a46.239,46.239,0,0,0,4.9-10.745,26.272,26.272,0,0,0,.457-14.237,21.2,21.2,0,0,0-.674-2.053l-.082-.217.232-.045,4.264-.787-.157.165c.569-4.354.982-8.46,1.124-12.177a75.332,75.332,0,0,0-.157-9.741,59.746,59.746,0,0,0-.877-6.422c-.135-.749-.285-1.319-.352-1.708-.037-.18-.067-.322-.09-.442A.494.494,0,0,1,242.024,246Z" transform="translate(-101.174 -153.207)" fill="#263238"/>
      <path id="Trazado_145285" data-name="Trazado 145285" d="M245.723,323.867v-9.509s.12-2.345-1.858-1.851-1.611,4.2-1.611,4.2-.367,14.469.495,14.35,1.2-1.236,1.2-1.236v-5.568Z" transform="translate(-104.873 -169.862)" fill="#7e5ee3"/>
      <path id="Trazado_145286" data-name="Trazado 145286" d="M254.476,328.407a32.885,32.885,0,0,1-5.1.195,32.884,32.884,0,0,1-5.1-.195,34.046,34.046,0,0,1,5.1-.195A34.046,34.046,0,0,1,254.476,328.407Z" transform="translate(-105.398 -173.81)" fill="#263238"/>
      <path id="Trazado_145287" data-name="Trazado 145287" d="M277.972,267.32a6.985,6.985,0,0,1-1.064.4,24,24,0,0,0-2.832,1.221,22.027,22.027,0,0,0-7.658,6.527,16.319,16.319,0,0,0-1.5,2.45,15.864,15.864,0,0,0-.9,2.518,24.829,24.829,0,0,0-.749,4.5c-.1,1.3-.127,2.36-.135,3.087a9.621,9.621,0,0,1,0,1.139,4.61,4.61,0,0,1-.15-1.094,27.245,27.245,0,0,1,0-3.11,23.142,23.142,0,0,1,.682-4.571,15.8,15.8,0,0,1,.907-2.593,16.71,16.71,0,0,1,1.536-2.518,21.162,21.162,0,0,1,7.853-6.542,19.5,19.5,0,0,1,2.9-1.124A5.607,5.607,0,0,1,277.972,267.32Z" transform="translate(-110.078 -158.552)" fill="#263238"/>
      <path id="Trazado_145288" data-name="Trazado 145288" d="M58.94,372.99l68.151,25.237,57.451,8.782-68.308-33.3Z" transform="translate(-58.94 -185.04)" fill="#263238"/>
      <path id="Trazado_145289" data-name="Trazado 145289" d="M96.3,404.342a29.015,29.015,0,0,0-3.642-10.326,7.5,7.5,0,0,1-.929-1.941,2.2,2.2,0,0,1,.382-2.031c.877-.952,2.473-.532,3.552.187a12.482,12.482,0,0,1,4.586,6.429,37.305,37.305,0,0,1,1.5,7.875" transform="translate(-67.134 -189.177)" fill="#ffbe9d"/>
      <path id="Trazado_145290" data-name="Trazado 145290" d="M123.453,396.608h-3.387a6.639,6.639,0,0,0-3-1.708,2.354,2.354,0,0,0-2.248.877c1.5-2.5,3.147-5.245,3.462-5.995.607-1.461-.749-2.555-2.93-2.555s-11.832,13.66-11.832,13.66,5.995-10.993,6.572-12.671c1.454-4.2-3.14-4.5-4.8-2.48-2.068,2.51-10.423,15.151-10.423,15.151s-1.589,2.563-.495,5,4.271,1.5,4.271,1.5a4.091,4.091,0,0,0,2.248,3.387c2.443,1.364,5.665-.217,5.665-.217l12.491,2.8,4.5-.45a13.847,13.847,0,0,0,12.319-11.749h0Z" transform="translate(-67.725 -187.933)" fill="#ffbe9d"/>
      <path id="Trazado_145291" data-name="Trazado 145291" d="M119.508,399.28c.142.09-1.5,2.7-3.672,5.83-1.079,1.566-2.076,3-2.817,3.971a9.9,9.9,0,0,1-1.259,1.574,10.157,10.157,0,0,1,1.034-1.731c.682-1.042,1.641-2.473,2.72-4.039s2.068-3,2.787-3.986l.869-1.191A3.04,3.04,0,0,1,119.508,399.28Z" transform="translate(-72.181 -191.631)" fill="#eb996e"/>
      <path id="Trazado_145292" data-name="Trazado 145292" d="M121.1,413.25a12.334,12.334,0,0,1,1.109-2.038c.749-1.229,1.783-2.9,2.937-4.758.577-.922,1.131-1.806,1.581-2.623a3.035,3.035,0,0,0,.277-2.315,5.757,5.757,0,0,0-1.064-1.986,2.013,2.013,0,0,1,.48.4,3.877,3.877,0,0,1,.847,1.5,3.243,3.243,0,0,1-.217,2.555c-.45.847-1,1.738-1.566,2.668-1.161,1.858-2.248,3.507-3.042,4.7A16.328,16.328,0,0,1,121.1,413.25Z" transform="translate(-74.522 -191.693)" fill="#eb996e"/>
      <path id="Trazado_145293" data-name="Trazado 145293" d="M129.316,416.121a6.991,6.991,0,0,1,.667-1.941l.892-2.038a16.615,16.615,0,0,0,.914-2.51,2.952,2.952,0,0,0-.4-2.435,2.3,2.3,0,0,0-.892-.637,2.473,2.473,0,0,0-.929-.262,3.758,3.758,0,0,0-1.341.472,1.6,1.6,0,0,1-.51.21,3.432,3.432,0,0,1,.435-.345,6.268,6.268,0,0,1,.562-.337,2.213,2.213,0,0,1,.854-.277,2.758,2.758,0,0,1,1.064.24,2.533,2.533,0,0,1,1.034.7,3.214,3.214,0,0,1,.495,2.75,14.393,14.393,0,0,1-.967,2.578c-.352.749-.689,1.431-.967,2A19.343,19.343,0,0,1,129.316,416.121Z" transform="translate(-76.181 -193.32)" fill="#eb996e"/>
      <path id="Trazado_145294" data-name="Trazado 145294" d="M132.92,403.76a1.333,1.333,0,0,1,.525.157,6.124,6.124,0,0,1,1.3.749,7.1,7.1,0,0,1,2.016,9.037,6.126,6.126,0,0,1-.847,1.251c-.24.262-.4.382-.412.367a10.919,10.919,0,0,0,1.012-1.738,7.223,7.223,0,0,0-1.941-8.7A17.944,17.944,0,0,0,132.92,403.76Z" transform="translate(-77.485 -192.754)" fill="#eb996e"/>
      <path id="Trazado_145295" data-name="Trazado 145295" d="M101.625,394.19a36.624,36.624,0,0,1-2.825,4.5,36.048,36.048,0,0,1-3.14,4.354,36.01,36.01,0,0,1,2.817-4.5A36.475,36.475,0,0,1,101.625,394.19Z" transform="translate(-68.145 -190.355)" fill="#eb996e"/>
      <path id="Trazado_145296" data-name="Trazado 145296" d="M196.221,379.787l-7.793-1.761-7.493-7.051a5.355,5.355,0,0,0-3.342-1.439l-13.615-.749a5.288,5.288,0,0,0-3.747,1.244l-9.741,8.243,42.494,20.644,5.83.517Z" transform="translate(-81.889 -183.984)" fill="#ffbe9d"/>
      <path id="Trazado_145297" data-name="Trazado 145297" d="M175.225,378.354c0,.06-1-.12-2.623-.33a11,11,0,0,0-6.167.644A15.931,15.931,0,0,0,163.5,380.5c-.862.644-1.634,1.244-2.315,1.7a12.4,12.4,0,0,1-1.686.982,2.441,2.441,0,0,1-.667.247c0-.06.892-.472,2.2-1.454.652-.48,1.4-1.1,2.248-1.768a15.432,15.432,0,0,1,3-1.9,8.822,8.822,0,0,1,3.477-.749,15.505,15.505,0,0,1,2.885.225,18.074,18.074,0,0,1,1.9.39A2.1,2.1,0,0,1,175.225,378.354Z" transform="translate(-83.98 -186.185)" fill="#eb996e"/>
      <path id="Trazado_145298" data-name="Trazado 145298" d="M181.251,388.529c0,.06-.554-.187-1.5-.277a7.751,7.751,0,0,0-3.5.487,18.021,18.021,0,0,0-3.207,1.641,6.686,6.686,0,0,1-1.326.749,5.457,5.457,0,0,1,1.169-.974,13.826,13.826,0,0,1,3.23-1.776,7.16,7.16,0,0,1,3.672-.4A2.783,2.783,0,0,1,181.251,388.529Z" transform="translate(-87.211 -188.778)" fill="#eb996e"/>
      <path id="Trazado_145299" data-name="Trazado 145299" d="M206.074,388.066c-.1.06-1.191-1.574-2.638-3.507a42.693,42.693,0,0,1-2.608-3.529,17.468,17.468,0,0,1,2.915,3.3A17.192,17.192,0,0,1,206.074,388.066Z" transform="translate(-94.507 -187.056)" fill="#eb996e"/>
      <path id="Trazado_145300" data-name="Trazado 145300" d="M177.463,363.487,194.7,347.414a1.649,1.649,0,0,0,.087-2.33,1.7,1.7,0,0,0-.207-.188h0a1.648,1.648,0,0,0-2.106.082L172.24,363.127" transform="translate(-87.342 -177.913)" fill="#7e5ee3"/>
      <g id="Grupo_73248" data-name="Grupo 73248" transform="translate(84.898 166.643)" opacity="0.3">
        <path id="Trazado_145301" data-name="Trazado 145301" d="M177.463,363.487,194.7,347.414a1.649,1.649,0,0,0,.087-2.33,1.7,1.7,0,0,0-.207-.188h0a1.648,1.648,0,0,0-2.106.082L172.24,363.127" transform="translate(-172.24 -344.556)"/>
      </g>
    </g>
    <g id="freepik--character-2--inject-8" transform="translate(221.886 95.615)">
      <path id="Trazado_145302" data-name="Trazado 145302" d="M364.054,162.948c-.27-.1-10.723-2.847-10.093,7.726s11.112,7.755,11.12,7.448S364.054,162.948,364.054,162.948Z" transform="translate(-301.067 -125.183)" fill="#b78876"/>
      <path id="Trazado_145303" data-name="Trazado 145303" d="M362.506,175.5c-.052-.037-.18.135-.479.3a1.827,1.827,0,0,1-1.379.1c-1.139-.337-2.188-2.053-2.353-3.956a6.176,6.176,0,0,1,.33-2.63,2.127,2.127,0,0,1,1.3-1.5.937.937,0,0,1,1.117.442c.157.285.1.5.157.517s.217-.195.1-.622a1.134,1.134,0,0,0-.457-.637,1.361,1.361,0,0,0-1.034-.21A2.585,2.585,0,0,0,358,169.065a6.159,6.159,0,0,0-.465,3c.195,2.128,1.409,4.054,2.96,4.406a1.977,1.977,0,0,0,1.671-.382C362.5,175.756,362.544,175.516,362.506,175.5Z" transform="translate(-301.962 -126.369)" fill="#aa6550"/>
      <path id="Trazado_145304" data-name="Trazado 145304" d="M402.66,112.69c5.373,0,10.843,0,17.564,3.514,4.241,2.248,6.879,5.717,9.089,9.959a22.928,22.928,0,0,1,2.5,11.157c-.195,3.657-.21,6.212-1.671,9.569" transform="translate(-313.282 -112.684)" fill="#263238"/>
      <path id="Trazado_145305" data-name="Trazado 145305" d="M390.927,113.776a28.474,28.474,0,0,1,30.426,26.378c.013.184.024.368.034.552.689,13.241,1.3,27.56,1.154,34.769-.315,15.481-15.818,17.766-15.818,17.766s.345,4.586.749,10.281a20.4,20.4,0,0,1-19,21.7c-.189.013-.379.022-.569.03h0a20.383,20.383,0,0,1-21.145-19.589v-.028l-2.3-62.389a28.475,28.475,0,0,1,26.5-29.486Z" transform="translate(-303.699 -112.937)" fill="#b78876"/>
      <path id="Trazado_145306" data-name="Trazado 145306" d="M414.227,217.8s-9.516.495-19.857-6.122c0,0,4.683,11.24,20.134,10Z" transform="translate(-311.204 -137.498)" fill="#aa6550"/>
      <path id="Trazado_145307" data-name="Trazado 145307" d="M431.051,160.557a2.2,2.2,0,0,1-2.143,2.248,2.106,2.106,0,0,1-2.245-1.956c0-.017,0-.034,0-.052a2.248,2.248,0,0,1,2.143-2.248,2.113,2.113,0,0,1,2.246,1.971Z" transform="translate(-319.298 -124.178)" fill="#263238"/>
      <path id="Trazado_145308" data-name="Trazado 145308" d="M432.467,156.262c-.277.285-1.941-.967-4.324-.982s-4.129,1.169-4.384.877c-.127-.135.157-.652.922-1.2a6,6,0,0,1,3.514-1.049,5.752,5.752,0,0,1,3.432,1.139C432.355,155.611,432.6,156.135,432.467,156.262Z" transform="translate(-318.564 -123.016)" fill="#263238"/>
      <path id="Trazado_145309" data-name="Trazado 145309" d="M399.919,160.557a2.2,2.2,0,0,1-2.151,2.248,2.113,2.113,0,0,1-2.246-1.971l0-.037a2.249,2.249,0,0,1,2.151-2.248,2.12,2.12,0,0,1,2.246,1.986Z" transform="translate(-311.492 -124.178)" fill="#263238"/>
      <path id="Trazado_145310" data-name="Trazado 145310" d="M401.256,156.61c-.277.285-1.948-.967-4.324-.982s-4.129,1.161-4.391.869c-.12-.127.157-.652.929-1.2a6.06,6.06,0,0,1,3.514-1.049,5.857,5.857,0,0,1,3.432,1.139C401.121,155.958,401.391,156.475,401.256,156.61Z" transform="translate(-310.738 -123.101)" fill="#263238"/>
      <path id="Trazado_145311" data-name="Trazado 145311" d="M415.19,174.367a16.589,16.589,0,0,1,3.866-.667c.607-.06,1.184-.172,1.289-.584a3.04,3.04,0,0,0-.39-1.806c-.555-1.5-1.146-3-1.761-4.638-2.443-6.609-4.2-12.034-3.934-12.132s2.465,5.178,4.9,11.787c.592,1.626,1.154,3.177,1.686,4.668a3.514,3.514,0,0,1,.3,2.383,1.569,1.569,0,0,1-1.012.884,4.6,4.6,0,0,1-1.027.135C416.7,174.524,415.2,174.524,415.19,174.367Z" transform="translate(-316.183 -123.174)" fill="#263238"/>
      <path id="Trazado_145312" data-name="Trazado 145312" d="M406.017,183.15c.39,0,.367,2.563,2.563,4.414s4.953,1.589,4.968,1.948c0,.165-.622.5-1.783.525a6.443,6.443,0,0,1-4.144-1.5,5.645,5.645,0,0,1-1.986-3.7C405.544,183.787,405.837,183.135,406.017,183.15Z" transform="translate(-314.023 -130.346)" fill="#263238"/>
      <path id="Trazado_145313" data-name="Trazado 145313" d="M401.457,144.4c-.24.644-2.608.322-5.4.637s-5.058,1.057-5.425.472c-.157-.277.24-.884,1.154-1.5a9.463,9.463,0,0,1,8.243-.839C401.052,143.548,401.561,144.058,401.457,144.4Z" transform="translate(-310.257 -120.178)" fill="#263238"/>
      <path id="Trazado_145314" data-name="Trazado 145314" d="M432.232,144.914c-.42.539-2.053-.037-4.024-.075s-3.642.33-4.024-.24c-.165-.277.1-.817.832-1.319a5.822,5.822,0,0,1,6.489.255C432.194,144.1,432.419,144.652,432.232,144.914Z" transform="translate(-318.665 -120.135)" fill="#263238"/>
      <path id="Trazado_145315" data-name="Trazado 145315" d="M364.476,147.839s.674,3.582.854,5.193c.067.592,0,7.149,1.581,7.493,1.371.285,4.091-.967,5.305-3.679s3.522-9.224,3.267-12.184a42.83,42.83,0,0,1,.285-12.109,17.437,17.437,0,0,1,5.89-10.341c3.185-2.5,7.793-3.364,11.42-1.551,2.248,1.124,3.9,3.11,5.995,4.5a9.3,9.3,0,0,0,6.384,1.656,6,6,0,0,0,4.938-4.046,6.54,6.54,0,0,0-2.45-6.512,14.964,14.964,0,0,0-6.744-2.765,36.259,36.259,0,0,0-20.1,1.409c-6.347,2.465-11.989,7.2-14.687,13.443-3.132,7.216-2.773,11.644-1.941,19.482" transform="translate(-303.565 -112.682)" fill="#263238"/>
      <path id="Trazado_145316" data-name="Trazado 145316" d="M404.793,157.786a18.171,18.171,0,0,0-.4-2.548,10.49,10.49,0,0,0-3.829-5.7,10.3,10.3,0,0,0-4.369-1.918,10.439,10.439,0,0,0-5.44.457,9.614,9.614,0,0,0-2.608,1.416,9.508,9.508,0,0,0-2.188,2.2,10.309,10.309,0,0,0,0,12.206,9.825,9.825,0,0,0,2.188,2.2,9.613,9.613,0,0,0,2.608,1.409,10.44,10.44,0,0,0,5.44.465,10.268,10.268,0,0,0,4.369-1.926,10.49,10.49,0,0,0,3.837-5.695,18.734,18.734,0,0,0,.4-2.555.446.446,0,0,1,0,.172v.5a4.264,4.264,0,0,1-.067.817,6.853,6.853,0,0,1-.195,1.094,10.487,10.487,0,0,1-3.814,5.89,10.617,10.617,0,0,1-10.093,1.574,9.9,9.9,0,0,1-2.713-1.446,10.03,10.03,0,0,1-2.248-2.248,10.664,10.664,0,0,1,0-12.664,10.622,10.622,0,0,1,10.6-4.189,10.583,10.583,0,0,1,8.31,7.905,6.949,6.949,0,0,1,.195,1.1,4.185,4.185,0,0,1,.067.809v.5A.728.728,0,0,1,404.793,157.786Z" transform="translate(-308.499 -121.31)" fill="#263238"/>
      <path id="Trazado_145317" data-name="Trazado 145317" d="M441.148,157.784a19.776,19.776,0,0,0-.4-2.548,10.49,10.49,0,0,0-3.837-5.7,10.251,10.251,0,0,0-4.369-1.918,10.336,10.336,0,0,0-10.228,4.069,10.282,10.282,0,0,0,0,12.206,9.778,9.778,0,0,0,2.181,2.2,9.531,9.531,0,0,0,2.615,1.409,10.412,10.412,0,0,0,5.433.465,10.268,10.268,0,0,0,4.369-1.926,10.491,10.491,0,0,0,3.837-5.695,19.777,19.777,0,0,0,.4-2.555,1.64,1.64,0,0,1,0,.172v.5a4.88,4.88,0,0,1-.06.817,6.96,6.96,0,0,1-.2,1.094,10.411,10.411,0,0,1-3.814,5.89,10.691,10.691,0,0,1-15.091-14.837,9.969,9.969,0,0,1,2.248-2.248,10.132,10.132,0,0,1,2.713-1.454,10.8,10.8,0,0,1,5.62-.442,10.559,10.559,0,0,1,4.5,2.023,10.421,10.421,0,0,1,3.814,5.882,7.051,7.051,0,0,1,.2,1.1,4.794,4.794,0,0,1,.06.809v.5A1.419,1.419,0,0,1,441.148,157.784Z" transform="translate(-317.601 -121.308)" fill="#263238"/>
      <path id="Trazado_145318" data-name="Trazado 145318" d="M418.3,159.51a5.353,5.353,0,0,1-.974-.33,6.284,6.284,0,0,0-2.405-.315,6.555,6.555,0,0,0-2.323.614c-.562.277-.877.517-.914.465s.225-.352.749-.7a5.41,5.41,0,0,1,4.946-.33C418.026,159.2,418.325,159.48,418.3,159.51Z" transform="translate(-315.542 -124.158)" fill="#263238"/>
      <path id="Trazado_145319" data-name="Trazado 145319" d="M425.653,123.618c.157-.8-.112-1.251.345-1.581s1.5.614,1.843,1c.12.127.48-.367.622-.457a2.735,2.735,0,0,0,.27-1.027c-.067-.562-.944-.749-1.356-1.094a4.166,4.166,0,0,0-1.461-.832,1.408,1.408,0,0,0-1.394.082,1.371,1.371,0,0,0-.315,1.049,2.867,2.867,0,0,0,.21,1.094,1.5,1.5,0,0,0,.749.794" transform="translate(-318.68 -114.387)" fill="#263238"/>
      <path id="Trazado_145320" data-name="Trazado 145320" d="M363.9,147.352s7.591,2.78,11.54,4.458l-.225-3.882-11.038-4.369S363.892,146.445,363.9,147.352Z" transform="translate(-303.566 -120.422)" fill="#ebebeb"/>
      <path id="Trazado_145321" data-name="Trazado 145321" d="M364.85,140.57a43.693,43.693,0,0,1,5.373,2.061,42.309,42.309,0,0,1,5.245,2.42,43.7,43.7,0,0,1-5.373-2.061A42.317,42.317,0,0,1,364.85,140.57Z" transform="translate(-303.804 -119.672)" fill="#ebebeb"/>
      <path id="Trazado_145322" data-name="Trazado 145322" d="M366.835,243.546l-.584-18.366s3.649,16.807,22.764,16.59c18.261-.21,17.931-14.807,17.931-14.807l.652,7.4v29.906l-11.914,48.789-15.219,1.9-16.815-66.69Z" transform="translate(-303.503 -140.882)" fill="#7e5ee3"/>
      <path id="Trazado_145323" data-name="Trazado 145323" d="M406.313,241.183a1.889,1.889,0,0,1-.217.39,10.965,10.965,0,0,1-.749,1.064,15.74,15.74,0,0,1-3.4,3.3,19.568,19.568,0,0,1-6.354,3,22.386,22.386,0,0,1-8.58.592,27.808,27.808,0,0,1-8.243-2.48,35.874,35.874,0,0,1-5.995-3.627,42.249,42.249,0,0,1-3.642-3c-.412-.375-.712-.689-.922-.9a2.021,2.021,0,0,1-.3-.33,2.065,2.065,0,0,1,.352.277l.974.839a46.083,46.083,0,0,0,3.7,2.907,37.384,37.384,0,0,0,5.995,3.522,27.948,27.948,0,0,0,8.13,2.413,22.417,22.417,0,0,0,8.43-.547,20.11,20.11,0,0,0,6.294-2.862,16.873,16.873,0,0,0,3.439-3.162C405.946,241.678,406.283,241.161,406.313,241.183Z" transform="translate(-304.571 -144.394)" fill="#263238"/>
      <path id="Trazado_145324" data-name="Trazado 145324" d="M380.361,394.578l-.277-86.7-24.623-63.25-.824-19.04L339.65,236.935s-21.828,75.135-22.2,72.542,0,85.1,0,85.1Z" transform="translate(-291.882 -140.985)" fill="#ebebeb"/>
      <path id="Trazado_145325" data-name="Trazado 145325" d="M400.6,421.6c-.1,0-.195-19.535-.195-43.633s.09-43.633.195-43.633.195,19.535.195,43.633S400.71,421.6,400.6,421.6Z" transform="translate(-312.718 -168.243)" fill="#263238"/>
      <path id="Trazado_145326" data-name="Trazado 145326" d="M347.4,257.21l3.042,2.308-2.136,14.027,35.938,37.646L351.6,268.322l2.78-11.112Z" transform="translate(-299.429 -148.911)" fill="#e0e0e0"/>
      <path id="Trazado_145327" data-name="Trazado 145327" d="M373.272,353.95l-55.158-16.17-1.828-41.895,15.129-55.2s-36.057,17.991-38.515,29.456-8.37,39.28-8.992,59.4c-.562,17.984-.644,29.973,3.462,35.75,11.764,16.44,89.275,19.378,120.237,0" transform="translate(-283.444 -144.77)" fill="#ebebeb"/>
      <path id="Trazado_145328" data-name="Trazado 145328" d="M384.871,304.149a1.728,1.728,0,0,1-.18-.2c-.112-.142-.292-.36-.495-.614l-1.873-2.4c-1.634-2.113-3.964-5.14-6.834-8.872l-22.427-29.351-1.686-2.248-.06-.075v-.09c.959-3.837,1.9-7.561,2.788-11.113l.18.24H347.12V236.792l.06-.045,10.843-8.243,3-2.248.749-.577a1.428,1.428,0,0,1,.277-.18l-.247.217-.749.607-2.93,2.293-10.76,8.347.06-.12v12.379l-.18-.172h7.283l-.06.24L351.691,260.4l-.037-.165,1.693,2.211,22.33,29.426,6.744,8.939c.749,1.049,1.386,1.866,1.813,2.443.195.27.345.487.465.644Z" transform="translate(-299.359 -140.962)" fill="#263238"/>
      <path id="Trazado_145329" data-name="Trazado 145329" d="M422.983,234.016c-4.4-7.688-6.684-6.894-6.684-6.894l.232,2.743v5.762l-2.091,24.728L401.08,314.074l.277,80.882h50.512l6.287-98.731-.569-42.539Z" transform="translate(-312.886 -141.363)" fill="#ebebeb"/>
      <path id="Trazado_145330" data-name="Trazado 145330" d="M449.257,262.58s13.076,9.651,14.237,25.185c.922,12.611,3,47.148,3.409,54.663.6,11.7-8.52,39.122-32.258,31.359-14.237-4.661-66.825-22.532-66.825-22.532l3.5-22.337,62.419,3.747,1.244-52.063Z" transform="translate(-304.548 -150.257)" fill="#ebebeb"/>
      <path id="Trazado_145331" data-name="Trazado 145331" d="M361.042,354.137s-17.669-1.911-21.73-.922c-3.934.952-9.531,5.762-9.531,5.762l.082,6.976,28.422,7.95Z" transform="translate(-295.012 -172.906)" fill="#b78876"/>
      <path id="Trazado_145332" data-name="Trazado 145332" d="M401.09,306.011a1.292,1.292,0,0,1,.082-.24c.06-.172.15-.4.262-.689.247-.629.607-1.5,1.057-2.638l3.956-9.681,5.9-14.342c.562-1.341,1.117-2.743,1.813-4.114s1.454-2.743,2.248-4.114a91.743,91.743,0,0,1,5.6-8.093c1.019-1.311,2.046-2.593,3.11-3.822v.2l-2.2-5.6-.075-.187.187-.067,9.194-3.11-.1.255c-4.271-7.134-7.875-13.158-10.438-17.429-1.259-2.113-2.338-3.807-3.484-4.5a4.714,4.714,0,0,0-1.394-.562,4.906,4.906,0,0,1-.517-.127,4.624,4.624,0,0,1,1.971.6,6.394,6.394,0,0,1,1.768,1.716,30.362,30.362,0,0,1,1.836,2.758L432.442,249.6l.112.187-.21.067-9.194,3.155.112-.247,2.211,5.6.045.1-.082.09c-1.049,1.214-2.076,2.5-3.087,3.807a92.312,92.312,0,0,0-5.59,8.033c-.8,1.364-1.589,2.705-2.248,4.076s-1.244,2.735-1.806,4.084c-2.248,5.38-4.286,10.228-5.995,14.312s-3.1,7.336-4.069,9.629c-.479,1.117-.862,1.993-1.124,2.615-.127.285-.225.5-.307.674A.94.94,0,0,1,401.09,306.011Z" transform="translate(-312.888 -141.378)" fill="#263238"/>
      <path id="Trazado_145333" data-name="Trazado 145333" d="M446.97,396.451a1.417,1.417,0,0,1-.217.232l-.674.652a19.41,19.41,0,0,1-2.87,2.173,19.148,19.148,0,0,1-5.245,2.2,21.112,21.112,0,0,1-7.493.48,23.716,23.716,0,0,1-4.309-.914c-1.5-.465-2.937-1.042-4.5-1.581-3.08-1.124-6.392-2.248-9.869-3.507-6.969-2.443-14.649-5.05-22.742-7.711-16.185-5.313-30.947-9.794-41.647-12.993l-12.679-3.747-3.447-1.027-.892-.27a1.76,1.76,0,0,1-.3-.112l.315.067.9.24,3.469.952c3,.839,7.351,2.076,12.739,3.634,10.715,3.125,25.477,7.568,41.685,12.888,8.1,2.653,15.781,5.245,22.742,7.733,3.477,1.236,6.781,2.413,9.861,3.544,1.544.554,3,1.139,4.5,1.6a23.265,23.265,0,0,0,4.249.922,21.1,21.1,0,0,0,7.433-.412,19.717,19.717,0,0,0,5.245-2.121,21.184,21.184,0,0,0,2.892-2.106l.7-.622A1.7,1.7,0,0,1,446.97,396.451Z" transform="translate(-295.09 -177.268)" fill="#263238"/>
      <path id="Trazado_145334" data-name="Trazado 145334" d="M325.192,370.364c0,.082-1-.135-2.578-.067a11.333,11.333,0,0,0-2.728.45,12.419,12.419,0,0,0-3.072,1.4,14.35,14.35,0,0,0-4.279,4.391c-.832,1.349-1.2,2.248-1.266,2.248a2.636,2.636,0,0,1,.21-.667,11.542,11.542,0,0,1,.824-1.723,13.379,13.379,0,0,1,4.3-4.578,12.075,12.075,0,0,1,3.185-1.416,11.014,11.014,0,0,1,2.817-.382,9.171,9.171,0,0,1,1.9.172A2.553,2.553,0,0,1,325.192,370.364Z" transform="translate(-290.372 -177.19)" fill="#263238"/>
      <path id="Trazado_145335" data-name="Trazado 145335" d="M306.66,362.579a.487.487,0,0,1,.067-.2,1.985,1.985,0,0,1,.345-.487,3.546,3.546,0,0,1,1.963-.974,9.94,9.94,0,0,1,3.237,0,18.39,18.39,0,0,1,3.844.937,16.887,16.887,0,0,1,6.092,3.747,12.75,12.75,0,0,1,1.416,1.656,3.271,3.271,0,0,1,.412.682c-.067.052-.682-.907-2.016-2.136a17.887,17.887,0,0,0-6.04-3.559,20.3,20.3,0,0,0-3.747-.952,10.554,10.554,0,0,0-3.147-.09,3.617,3.617,0,0,0-1.9.809A7.36,7.36,0,0,0,306.66,362.579Z" transform="translate(-289.217 -174.874)" fill="#263238"/>
      <path id="Trazado_145336" data-name="Trazado 145336" d="M326.662,293.5a5.854,5.854,0,0,1-.255-1.131c-.112-.36-.27-.787-.442-1.281a9.02,9.02,0,0,0-.817-1.6,22.94,22.94,0,0,0-2.81-3.747,30.61,30.61,0,0,0-4.309-3.792,25.974,25.974,0,0,0-9.419-4.324,19.677,19.677,0,0,0-3.14-.4,7.011,7.011,0,0,1-1.161-.09,6.565,6.565,0,0,1,1.169-.06,15.928,15.928,0,0,1,3.185.285,24.732,24.732,0,0,1,9.591,4.279,28.364,28.364,0,0,1,4.346,3.859,21.569,21.569,0,0,1,2.787,3.852,12.712,12.712,0,0,1,.749,1.656,9.484,9.484,0,0,1,.39,1.326A7.961,7.961,0,0,1,326.662,293.5Z" transform="translate(-288.628 -153.888)" fill="#263238"/>
      <path id="Trazado_145337" data-name="Trazado 145337" d="M447.818,376.205a1.351,1.351,0,0,1,0-.27v-.787c0-.689-.052-1.7-.15-3a42.032,42.032,0,0,0-2.248-10.8,15.268,15.268,0,0,0-1.5-3.3,6.469,6.469,0,0,0-2.922-2.48c-2.51-1.079-5.53-.937-8.6-1.109l-20.112-.847c-16.62-.749-31.4-1.349-40.7-1.843l.127-.1c-.562,3.417-1.012,6.122-1.319,8-.157.907-.277,1.611-.367,2.113-.037.225-.075.4-.1.547l-.045.18a.874.874,0,0,1,0-.187l.075-.547c.067-.5.172-1.214.3-2.128.285-1.881.689-4.593,1.206-8.018v-.1h.112l40.7,1.694,20.112.907c1.544.075,3.05.112,4.5.232a13.036,13.036,0,0,1,4.2.944,6.8,6.8,0,0,1,3.072,2.57,15.274,15.274,0,0,1,1.5,3.372,40.45,40.45,0,0,1,2.128,10.865c.082,1.3.082,2.323.075,3v.787C447.826,376.108,447.818,376.205,447.818,376.205Z" transform="translate(-305.065 -172.555)" fill="#263238"/>
      <path id="Trazado_145338" data-name="Trazado 145338" d="M457.935,319.24c.1,0,.195,6.047.195,13.488s-.09,13.488-.195,13.488-.195-6.047-.195-13.488S457.83,319.24,457.935,319.24Z" transform="translate(-327.089 -164.461)" fill="#263238"/>
      <path id="Trazado_145339" data-name="Trazado 145339" d="M293.271,278.17s-.045.172-.15.495a14.309,14.309,0,0,0-.45,1.5c-.367,1.3-.832,3.23-1.349,5.755-1.042,5.05-2.323,12.439-3.747,21.685-.712,4.631-1.5,9.741-2.248,15.219-.382,2.75-.622,5.612-.817,8.58s-.352,5.995-.472,9.172c-.225,6.3-.36,12.956-.18,19.887.06,1.731.12,3.484.262,5.245.045.884.195,1.753.3,2.63a22.174,22.174,0,0,0,.637,2.593,14.775,14.775,0,0,0,2.488,4.743,10.639,10.639,0,0,0,4.256,3.282h0a65.09,65.09,0,0,0,11.112,4.241c3.874,1.161,7.875,2.1,11.937,2.93a164.148,164.148,0,0,0,26.826,3.267,124.6,124.6,0,0,0,12.806-.33c4.174-.292,8.243-.749,12.177-1.311a128.125,128.125,0,0,0,21.85-5.08,111.356,111.356,0,0,0,17.669-7.583v.247l-24.173-8.595-6.527-2.33-1.686-.614c-.382-.142-.57-.225-.57-.225l.577.187,1.7.577,6.549,2.248,24.278,8.467.292.1-.27.15a111.585,111.585,0,0,1-17.707,7.651,127.963,127.963,0,0,1-21.9,5.133c-3.941.592-8.018,1.034-12.2,1.326a125.339,125.339,0,0,1-12.843.345,163.957,163.957,0,0,1-26.893-3.267c-4.076-.839-8.085-1.776-11.989-2.937a66.358,66.358,0,0,1-11.18-4.279h0a11.027,11.027,0,0,1-4.436-3.4,15.138,15.138,0,0,1-2.54-4.871,21.857,21.857,0,0,1-.652-2.638c-.112-.9-.255-1.783-.3-2.668-.142-1.768-.2-3.529-.255-5.245-.18-6.954,0-13.608.21-19.917q.18-4.721.487-9.179c.2-3,.45-5.845.839-8.595.749-5.508,1.544-10.6,2.248-15.219,1.5-9.247,2.8-16.628,3.889-21.67.54-2.525,1.019-4.458,1.409-5.755.165-.652.375-1.132.48-1.454A1.431,1.431,0,0,1,293.271,278.17Z" transform="translate(-283.382 -154.165)" fill="#263238"/>
      <path id="Trazado_145340" data-name="Trazado 145340" d="M329.74,349.77c9.224-10.213,8.82-28.369,3.522-41.25-.487,13.952-2.136,26.331-3.394,39.894" transform="translate(-295.002 -161.773)" fill="#e0e0e0"/>
      <path id="Trazado_145341" data-name="Trazado 145341" d="M333.309,312a2.051,2.051,0,0,1,0,.45c0,.337-.045.749-.082,1.274-.09,1.161-.21,2.75-.367,4.683-.33,4-.749,9.434-1.266,15.444L330.379,349.3c-.142,1.933-.262,3.522-.352,4.683l-.112,1.266a3.016,3.016,0,0,1-.06.442,1.507,1.507,0,0,1,0-.442c0-.337,0-.749.037-1.281.037-1.109.12-2.713.225-4.691.232-3.956.607-9.427,1.1-15.459s.989-11.487,1.386-15.436c.2-1.933.367-3.514.487-4.676.067-.517.12-.937.157-1.266A1.662,1.662,0,0,1,333.309,312Z" transform="translate(-295.027 -162.646)" fill="#263238"/>
      <path id="Trazado_145342" data-name="Trazado 145342" d="M364.745,287.38a78.909,78.909,0,0,1,.195,7.92,79.127,79.127,0,0,1-.195,7.92c-.1,0-.195-3.552-.195-7.92S364.64,287.38,364.745,287.38Z" transform="translate(-303.728 -156.474)" fill="#263238"/>
      <path id="Trazado_145343" data-name="Trazado 145343" d="M356.79,318.215a8.113,8.113,0,0,0,1.7,4.2,5.467,5.467,0,0,0,4.046,2.15,6.174,6.174,0,0,0,5.448-2.735c1.723-2.743,2.151-8.46.749-11.839-.952-2.323-3.087-4.5-5.6-4.548a6.2,6.2,0,0,0-6.07,4.721" transform="translate(-301.783 -161.001)" fill="#e0e0e0"/>
      <path id="Trazado_145344" data-name="Trazado 145344" d="M357.08,310.111a5.1,5.1,0,0,1,.607-1.619,6.66,6.66,0,0,1,1.236-1.626,5.78,5.78,0,0,1,2.338-1.364,5.846,5.846,0,0,1,1.566-.255,4.708,4.708,0,0,1,1.716.225,6.746,6.746,0,0,1,3.057,2.2,8.831,8.831,0,0,1,1.806,3.747,16.442,16.442,0,0,1,.33,4.444,12.271,12.271,0,0,1-1.911,6.467,5.849,5.849,0,0,1-2.488,1.873,6.694,6.694,0,0,1-2.818.472h0a4.208,4.208,0,0,1-2.016-.495,6.769,6.769,0,0,1-1.5-1.064,7.594,7.594,0,0,1-1.648-2.458,6.984,6.984,0,0,1-.525-1.821,3.91,3.91,0,0,1-.045-.495.511.511,0,0,1,0-.172,10.56,10.56,0,0,0,.749,2.413,7.606,7.606,0,0,0,1.664,2.345,6.609,6.609,0,0,0,1.5.989,3.971,3.971,0,0,0,1.873.442h0a6,6,0,0,0,4.983-2.248,12.073,12.073,0,0,0,1.813-6.264c.165-3-.337-5.95-2.023-7.943a6.49,6.49,0,0,0-2.907-2.091,4.648,4.648,0,0,0-1.611-.232,5.694,5.694,0,0,0-1.5.217,5.6,5.6,0,0,0-2.248,1.266,6.8,6.8,0,0,0-1.251,1.536A14.953,14.953,0,0,0,357.08,310.111Z" transform="translate(-301.781 -160.951)" fill="#263238"/>
      <path id="Trazado_145345" data-name="Trazado 145345" d="M354.45,318.416a8.128,8.128,0,0,0,1.7,4.2,5.454,5.454,0,0,0,4.046,2.151,6.181,6.181,0,0,0,5.448-2.735c1.723-2.75,2.151-8.46.749-11.839-.952-2.33-3.087-4.5-5.6-4.548a6.2,6.2,0,0,0-6.07,4.713" transform="translate(-301.197 -161.051)" fill="#e0e0e0"/>
      <path id="Trazado_145346" data-name="Trazado 145346" d="M354.738,310.3a5.1,5.1,0,0,1,.607-1.611,6.66,6.66,0,0,1,1.236-1.626,5.785,5.785,0,0,1,3.9-1.619,4.724,4.724,0,0,1,1.716.225,6.747,6.747,0,0,1,3.057,2.2,8.741,8.741,0,0,1,1.8,3.747,16.152,16.152,0,0,1,.337,4.444,12.291,12.291,0,0,1-1.911,6.467A5.848,5.848,0,0,1,363,324.4a6.694,6.694,0,0,1-2.817.472h0a4.2,4.2,0,0,1-2.016-.5,6.53,6.53,0,0,1-1.5-1.057,7.411,7.411,0,0,1-1.649-2.465,6.949,6.949,0,0,1-.525-1.813,4.343,4.343,0,0,0-.052-.495.6.6,0,0,1,0-.172,10.579,10.579,0,0,0,.749,2.405,7.425,7.425,0,0,0,1.663,2.353,6.613,6.613,0,0,0,1.5.989,4.067,4.067,0,0,0,1.873.442h0a6,6,0,0,0,4.976-2.248,12.029,12.029,0,0,0,1.821-6.264c.165-3-.337-5.95-2.023-7.943a6.413,6.413,0,0,0-2.885-2.113,4.6,4.6,0,0,0-1.6-.232,5.65,5.65,0,0,0-3.747,1.5,6.784,6.784,0,0,0-1.251,1.536A13.621,13.621,0,0,0,354.738,310.3Z" transform="translate(-301.192 -161.001)" fill="#263238"/>
      <path id="Trazado_145347" data-name="Trazado 145347" d="M357.2,310.8a3.844,3.844,0,0,0-4.024,2.315,6.65,6.65,0,0,0,0,4.893,6.082,6.082,0,0,0,1.251,2.2,3.3,3.3,0,0,0,2.248,1.087,3.911,3.911,0,0,0,3.095-1.828,7,7,0,0,0,1.057-5.747c-.345-1.3-1.3-2.63-2.645-2.668" transform="translate(-300.76 -162.337)" fill="#e0e0e0"/>
      <path id="Trazado_145348" data-name="Trazado 145348" d="M358.112,311.039h.3a2.033,2.033,0,0,1,.817.277,3.994,3.994,0,0,1,1.708,2.578,7.023,7.023,0,0,1-.465,4.586,5.811,5.811,0,0,1-1.678,2.2,3.253,3.253,0,0,1-2.892.7,4.047,4.047,0,0,1-2.308-1.888,8.464,8.464,0,0,1-.959-2.593,5.763,5.763,0,0,1,.749-4.5,4.033,4.033,0,0,1,2.608-1.663,2.965,2.965,0,0,1,.862,0c.187.037.285.067.285.082a5.926,5.926,0,0,0-1.117.068,3.978,3.978,0,0,0-2.413,1.671,5.52,5.52,0,0,0-.622,4.294,8.088,8.088,0,0,0,.937,2.465,3.665,3.665,0,0,0,2.083,1.708,2.87,2.87,0,0,0,2.555-.614,5.72,5.72,0,0,0,1.589-2.053,6.862,6.862,0,0,0,.517-4.376,3.929,3.929,0,0,0-1.5-2.51A3.094,3.094,0,0,0,358.112,311.039Z" transform="translate(-300.7 -162.322)" fill="#263238"/>
      <path id="Trazado_145349" data-name="Trazado 145349" d="M362.424,326.613c-.06,0-.142-.24-.4-.54a2.785,2.785,0,0,0-1.281-.817,6.435,6.435,0,0,0-1.574-.247c-.412,0-.682-.067-.682-.12s.255-.112.682-.157a4.4,4.4,0,0,1,1.693.15,2.448,2.448,0,0,1,1.386,1.034C362.484,326.305,362.469,326.605,362.424,326.613Z" transform="translate(-302.209 -165.831)" fill="#263238"/>
      <path id="Trazado_145350" data-name="Trazado 145350" d="M363.061,309.45a1.687,1.687,0,0,1-.465.54,3.6,3.6,0,0,1-1.581.689,3.746,3.746,0,0,1-1.723-.09c-.42-.142-.644-.307-.622-.352a8.789,8.789,0,0,0,2.248.06A9.35,9.35,0,0,0,363.061,309.45Z" transform="translate(-302.254 -162.006)" fill="#263238"/>
      <path id="Trazado_145351" data-name="Trazado 145351" d="M433.24,237.82a.566.566,0,0,1,.247.09,6.6,6.6,0,0,1,.667.345,13.176,13.176,0,0,1,2.248,1.6,16.073,16.073,0,0,1,4.826,7.628,48.792,48.792,0,0,1,1.836,8.887c.135,1.154.2,2.091.247,2.735a4.558,4.558,0,0,1,0,1.012,5.755,5.755,0,0,1-.165-1c-.1-.712-.225-1.626-.367-2.713a57.319,57.319,0,0,0-1.941-8.812,16.605,16.605,0,0,0-4.631-7.538A25.078,25.078,0,0,0,433.24,237.82Z" transform="translate(-320.947 -144.051)" fill="#263238"/>
      <path id="Trazado_145352" data-name="Trazado 145352" d="M420.687,347.176c2.173-.082,3.911-2.248,6.085-2.128a3.008,3.008,0,1,1-.51,5.995h0c-2.285-.262-3.619-2.937-5.852-3.447" transform="translate(-317.731 -170.929)" fill="#263238"/>
      <path id="Trazado_145353" data-name="Trazado 145353" d="M437.261,329.462a12.888,12.888,0,0,1-2.031-.165l.12-.749a8.571,8.571,0,0,0,6.7-1.311c2.248-1.626,3.649-4.541,4.249-8.662v-.157c.247-1.634.585-33.682.585-39.767,0-9.509-8.34-10.805-8.7-10.858s-7.92-1.326-11.944,9.052c-4.211,10.873-10.948,31.824-11.39,34.282-.06.3-.142.674-.232,1.1-.7,3.147-2.158,9.689,2.2,13.45,4.863,4.2,8.7,2.578,8.857,2.51l.307.682c-.18.075-4.406,1.911-9.651-2.623-4.706-4.061-3.185-10.9-2.45-14.185.1-.42.172-.749.225-1.072.45-2.473,7.208-23.514,11.435-34.417s12.679-9.539,12.739-9.516A11.3,11.3,0,0,1,447.6,278.65c0,5.013-.33,38.141-.592,39.879v.15c-.629,4.331-2.158,7.411-4.548,9.164A8.62,8.62,0,0,1,437.261,329.462Z" transform="translate(-315.887 -151.363)" fill="#263238"/>
      <path id="Trazado_145354" data-name="Trazado 145354" d="M451.33,287.423a13.8,13.8,0,0,0-1.559-3.747,12.9,12.9,0,0,0-2.96-3.207,12.745,12.745,0,0,0-4.818-2.248,14.081,14.081,0,0,0-9.479,1.236,16.92,16.92,0,0,0-3.3,2.36,1.074,1.074,0,0,1,.172-.225,5.187,5.187,0,0,1,.562-.6,11.256,11.256,0,0,1,2.435-1.776,13.92,13.92,0,0,1,9.7-1.379,12.872,12.872,0,0,1,4.946,2.368,12.436,12.436,0,0,1,3,3.349,9.759,9.759,0,0,1,1.154,2.787,6.207,6.207,0,0,1,.157.809A.988.988,0,0,1,451.33,287.423Z" transform="translate(-319.937 -153.999)" fill="#263238"/>
      <path id="Trazado_145355" data-name="Trazado 145355" d="M478.434,366.838a26.331,26.331,0,0,0-1.034-3.192,13.907,13.907,0,0,0-5.08-6.1,11.032,11.032,0,0,0-4.121-1.5,35.4,35.4,0,0,0-3.634-.375L462.1,355.5a4.329,4.329,0,0,1-.9-.12,3.743,3.743,0,0,1,.907,0l2.473.045a31.044,31.044,0,0,1,3.672.3,11.028,11.028,0,0,1,4.279,1.5,13.555,13.555,0,0,1,5.125,6.324,12.01,12.01,0,0,1,.689,2.39A3.424,3.424,0,0,1,478.434,366.838Z" transform="translate(-327.956 -173.513)" fill="#263238"/>
      <path id="Trazado_145356" data-name="Trazado 145356" d="M433.75,347.207s7.373-11.158,9.254-12.619,17.984-8.73,19.85-7.561.749,3.7.749,3.7,6.8-2.383,7.531-1.446a3.366,3.366,0,0,1,0,3.837s3.747-.577,3.747.584a4.774,4.774,0,0,1-2.173,3.911c-1.738,1.3-13.046,8.827-13.952,10.91l-3.664-.225Z" transform="translate(-321.075 -166.381)" fill="#b78876"/>
      <path id="Trazado_145357" data-name="Trazado 145357" d="M462.05,346.085a3.189,3.189,0,0,1,.337-.7,13.673,13.673,0,0,1,1.214-1.738,20.243,20.243,0,0,1,5.343-4.5,40.4,40.4,0,0,1,6.324-3c.832-.322,1.5-.562,1.986-.749a3.262,3.262,0,0,1,.749-.21,2.833,2.833,0,0,1-.7.352l-1.941.832a51.317,51.317,0,0,0-6.219,3.05,22.334,22.334,0,0,0-5.335,4.339C462.642,345.149,462.117,346.123,462.05,346.085Z" transform="translate(-328.169 -168.459)" fill="#aa6550"/>
      <path id="Trazado_145358" data-name="Trazado 145358" d="M449.58,345.071a3.824,3.824,0,0,1,.36-.817c.255-.517.622-1.259,1.131-2.158a20.59,20.59,0,0,1,2.031-3,9.383,9.383,0,0,1,1.544-1.536c.622-.42,1.274-.809,1.956-1.214a53.209,53.209,0,0,1,7.194-3.582,19.459,19.459,0,0,1,2.308-.749,4.316,4.316,0,0,1,.884-.157c0,.067-1.221.352-3.087,1.191a67.719,67.719,0,0,0-7.1,3.664c-.674.4-1.326.794-1.933,1.191a9.373,9.373,0,0,0-1.5,1.446,21.874,21.874,0,0,0-2.068,2.922l-1.244,2.083A3.988,3.988,0,0,1,449.58,345.071Z" transform="translate(-325.043 -167.624)" fill="#aa6550"/>
    </g>
    <g id="freepik--Desk--inject-8" transform="translate(38.06 349.215)">
      <path id="Trazado_145359" data-name="Trazado 145359" d="M543.06,451.315c0,.1-113.051.195-252.478.195s-252.522-.09-252.522-.195,113.028-.195,252.522-.195S543.06,451.21,543.06,451.315Z" transform="translate(-38.06 -451.12)" fill="#263238"/>
    </g>
  </g>
</svg>
