<svg xmlns="http://www.w3.org/2000/svg" xmlns:xlink="http://www.w3.org/1999/xlink" width="208" height="208" viewBox="0 0 208 208">
  <defs>
    <filter id="Elipse_4438" x="0" y="0" width="208" height="208" filterUnits="userSpaceOnUse">
      <feOffset dy="3" input="SourceAlpha"/>
      <feGaussianBlur stdDeviation="3" result="blur"/>
      <feFlood flood-opacity="0.161"/>
      <feComposite operator="in" in2="blur"/>
      <feComposite in="SourceGraphic"/>
    </filter>
  </defs>
  <g id="Grupo_73313" data-name="Grupo 73313" transform="translate(-854 -9753.091)">
    <g transform="matrix(1, 0, 0, 1, 854, 9753.09)" filter="url(#Elipse_4438)">
      <circle id="Elipse_4438-2" data-name="Elipse 4438" cx="95" cy="95" r="95" transform="translate(9 6)" fill="#fff"/>
    </g>
    <g id="Elipse_4439" data-name="Elipse 4439" transform="translate(883 9781.091)" fill="#7e5ee3" stroke="#707070" stroke-width="1">
      <circle cx="73.5" cy="73.5" r="73.5" stroke="none"/>
      <circle cx="73.5" cy="73.5" r="73" fill="none"/>
    </g>
    <g id="Grupo_72959" data-name="Grupo 72959" transform="translate(400.487 9605.924)">
      <path id="Trazado_144488" data-name="Trazado 144488" d="M549,253.1c-.159-.623-.4-1.664-.677-3.013a21.313,21.313,0,0,0,2.3,2.649,15.407,15.407,0,0,0,22.417,0,21.527,21.527,0,0,0,2.3-2.654c-.28,1.354-.517,2.391-.675,3.018l14.7-2.586s-2.255-30.157-3.378-36.152c-2.085-11.182-8.075-16.57-15.694-16.57l-8.456.465-8.477-.465c-7.767,0-13.65,5.621-15.69,16.57-1.114,5.994-3.37,36.152-3.37,36.152Zm-2-10.3a32.009,32.009,0,0,1-1.393-4.559,3.115,3.115,0,0,1-3.276-3.275V231.61a3.12,3.12,0,0,1,3.115-3.273h.013c-.006-.046-.013-.092-.022-.137a49.94,49.94,0,0,1,.255-8.191c3.734-.7,8.972-2.264,12.114-5.774,2.9,6.939,14.914,8.9,20.446,9.442.047,1.444.033,2.962-.027,4.522-.009.045-.016.092-.023.137h.014a3.119,3.119,0,0,1,3.114,3.273v3.356a3.116,3.116,0,0,1-3.276,3.275,32.008,32.008,0,0,1-1.395,4.559c-3.177,8.188-9,12.279-14.828,12.279S550.169,250.988,546.993,242.8Z" transform="translate(-4.307)" fill="#fff"/>
      <path id="Trazado_144489" data-name="Trazado 144489" d="M522.794,335.73h69.29l.967-10.454c.089-10.746-1.68-13.233-6.117-17.516-4.625-4.467-11.039-5.435-17.451-6.417l-11.971,20.669-11.958-20.669c-6.415.982-12.827,1.95-17.452,6.417-4.162,4.025-6.319,6.668-6.119,17.516Z" transform="translate(0 -36.189)" fill="#fff"/>
    </g>
  </g>
</svg>
