<svg xmlns="http://www.w3.org/2000/svg" xmlns:xlink="http://www.w3.org/1999/xlink" width="126.372" height="126.372" viewBox="0 0 126.372 126.372">
  <defs>
    <clipPath id="clip-path">
      <circle id="Elipse_4499" data-name="Elipse 4499" cx="63.186" cy="63.186" r="63.186" fill="none"/>
    </clipPath>
    <radialGradient id="radial-gradient" cx="0.5" cy="0.5" r="0.633" gradientTransform="translate(-0.715 0.072) scale(0.737 0.855)" gradientUnits="objectBoundingBox">
      <stop offset="0" stop-color="#f29788"/>
      <stop offset="0.612" stop-color="#f2a288"/>
      <stop offset="0.92" stop-color="#f2ab88"/>
    </radialGradient>
    <radialGradient id="radial-gradient-2" cx="0.5" cy="0.5" r="0.633" gradientTransform="matrix(-0.737, 0, 0, 0.855, -79.479, 0.072)" xlink:href="#radial-gradient"/>
  </defs>
  <g id="icon14" clip-path="url(#clip-path)">
    <g id="Grupo_72954" data-name="Grupo 72954" transform="translate(-1.111 0.922)">
      <path id="Trazado_144452" data-name="Trazado 144452" d="M435.2,113.61c-3.506-7.364-27-4.208-36.465-8.065s-9.467-22.44-9.467-22.44H368.232s0,18.583-9.466,22.44-32.958.7-36.465,8.065-5.961,17.881-7.364,24.894H442.564C441.161,131.491,438.707,120.972,435.2,113.61Z" transform="translate(-314.937 -11.665)" fill="#f2ab88"/>
      <path id="Trazado_144453" data-name="Trazado 144453" d="M436.128,112.051c-3.2-6.691-23-4.7-33.727-7.17-9.233,4.789-16.918,6.479-23.166,6.543-6.249-.064-13.935-1.754-23.167-6.543-10.731,2.473-30.523.479-33.727,7.17-3.525,7.363-5.993,17.881-7.4,24.894H443.531C442.121,129.932,439.653,119.414,436.128,112.051Z" transform="translate(-314.937 -10.107)" fill="#33b5b7"/>
      <path id="Trazado_144454" data-name="Trazado 144454" d="M374.527,103.41c9.475,0,13.762-3.085,15-3.819-3.546-6.836-3.55-16.486-3.55-16.486H364.936s0,10.366-3.947,17.22C361.632,100.594,368.691,103.41,374.527,103.41Z" transform="translate(-311.641 -11.665)" fill="#dcb890" opacity="0.55" style="mix-blend-mode: multiply;isolation: isolate"/>
      <g id="Grupo_72946" data-name="Grupo 72946" transform="translate(31.985 49.027)">
        <path id="Trazado_144455" data-name="Trazado 144455" d="M345.813,63.712c3.46-4.689,11.305,2.948,11.305,2.948s4.871,5.69-.8,12.571c-2.836,3.44-6.111.839-8.3-3.25S343.346,67.055,345.813,63.712Z" transform="translate(-344.786 -62.189)" fill="#f2ab88"/>
        <path id="Trazado_144456" data-name="Trazado 144456" d="M350.612,76.181a3.272,3.272,0,0,0,2.883,1.187,1.149,1.149,0,0,0,.8-1.214c-.328-1.018-3.572-2.829-2.764-5.669.816-2.868-2.826-5.614-3.961-4.037C346.687,67.678,347.757,73.285,350.612,76.181Z" transform="translate(-344.608 -61.917)" fill="#db7a5b"/>
      </g>
      <g id="Grupo_72947" data-name="Grupo 72947" transform="translate(81.334 49.027)">
        <path id="Trazado_144457" data-name="Trazado 144457" d="M404.089,63.712c-3.46-4.689-11.305,2.948-11.305,2.948s-4.871,5.69.8,12.571c2.836,3.44,6.111.839,8.3-3.25S406.556,67.055,404.089,63.712Z" transform="translate(-390.838 -62.189)" fill="#f2ab88"/>
        <path id="Trazado_144458" data-name="Trazado 144458" d="M398.807,76.181a3.272,3.272,0,0,1-2.883,1.187,1.147,1.147,0,0,1-.8-1.214c.328-1.018,3.572-2.829,2.764-5.669-.817-2.868,2.826-5.614,3.961-4.037C402.732,67.678,401.662,73.285,398.807,76.181Z" transform="translate(-390.533 -61.917)" fill="#db7a5b"/>
      </g>
      <path id="Trazado_144459" data-name="Trazado 144459" d="M401.8,43.953c-.685-3.836-3.307-7.076-6.628-9.729a30.184,30.184,0,0,0-37.818,0c-3.321,2.653-5.943,5.893-6.628,9.729,0,0-1.627,30.146,5.893,41.7,5.824,8.953,13.159,13.81,19.644,13.81s13.819-4.857,19.644-13.81C403.424,74.1,401.8,43.953,401.8,43.953Z" transform="translate(-312.386 -15.64)" fill="#f2ab88"/>
      <path id="Trazado_144460" data-name="Trazado 144460" d="M353.5,68.342c-.828-13.185.589-22.983,1.349-24.149A29.492,29.492,0,0,0,363.6,32.553s10.843,5.259,28,3.156c0,0,3.189,4.493,6.078,9.116,1.4,2.237,2,15.121,1.613,23.48a4.122,4.122,0,0,0,1.314,3.239l.564.512c2.116-4.282,4.21-22.321,3.14-28.283-3.019-16.807-15.171-18.583-27.268-18.583a34.4,34.4,0,0,0-14.572,3.335c-.929-.274-2.342-.6-2.319-.787-6.47.432-9.781,9.628-11.692,16.035-1.934,6.486,1.024,24,3.141,28.283l.02-.013A4.053,4.053,0,0,0,353.5,68.342Z" transform="translate(-312.582 -15.811)" fill="#995235"/>
      <path id="Trazado_144461" data-name="Trazado 144461" d="M360.012,34.432q.916.4,1.8.833a27.194,27.194,0,0,0,1.306-2.712s10.843,5.259,28,3.156c0,0,2.707,3.815,5.391,8.03a24.292,24.292,0,0,0,6.6-3.106C399.2,26.744,387.857,25.19,376.561,25.19a34.4,34.4,0,0,0-14.572,3.335c-.929-.274-2.342-.6-2.319-.787a7.894,7.894,0,0,0-5.074,2.519l.06.077A13.916,13.916,0,0,0,360.012,34.432Z" transform="translate(-312.098 -15.811)" fill="#995235" opacity="0.35" style="mix-blend-mode: multiply;isolation: isolate"/>
      <path id="Trazado_144462" data-name="Trazado 144462" d="M404.666,25.138c0,5.9-9.691,3.418-22.364-3.729-12.42-7-18.59-.925-21.1,3.1a25.587,25.587,0,0,1,2.908-8.076c-6.436,3.029-6.006,8.266-5.151,11.169-2.294-.464-5.717-.578-8.388,1.8,0,0,6.561-1.031,8.979,1.044.314.268,1.328.742,1.444.85,6.793,7.475,13.505,11.109,27.495,10.1,7.73-.56,10.3-1.458,13.977-5.387C406.826,31.352,404.666,25.138,404.666,25.138Z" transform="translate(-312.386 -16.437)" fill="#995235"/>
      <path id="Trazado_144463" data-name="Trazado 144463" d="M387.633,40.394c7.281-.527,9.988-1.358,13.348-4.735a20.275,20.275,0,0,1-14.51-5.165c-.129,1.929.836,4.5,3.407,7.458-6.171-1.029-11.657-2.958-16.8-7.072,1.029,2.057,2.077,5.465,3.105,6.494-3.191,0-11.687-3.719-13.6-4.575C368.641,38.563,375.316,41.286,387.633,40.394Z" transform="translate(-311.527 -15.431)" fill="#995235" opacity="0.5" style="mix-blend-mode: multiply;isolation: isolate"/>
      <g id="Grupo_72949" data-name="Grupo 72949" transform="translate(68.768 42.676)">
        <path id="Trazado_144464" data-name="Trazado 144464" d="M389.983,61.241a5.444,5.444,0,0,1-10.871,0c0-2.842,2.434-3.828,5.435-3.828S389.983,58.4,389.983,61.241Z" transform="translate(-379.112 -56.18)" fill="#fdfaee"/>
        <path id="Trazado_144465" data-name="Trazado 144465" d="M386.5,64.562a14.162,14.162,0,0,1-2.868.314,5.271,5.271,0,0,1-4.062-1.884,5.561,5.561,0,0,0,9.951-.145A6.7,6.7,0,0,1,386.5,64.562Z" transform="translate(-379.079 -55.791)" fill="#e78660"/>
        <g id="Grupo_72948" data-name="Grupo 72948" transform="translate(2.248 2.186)">
          <path id="Trazado_144466" data-name="Trazado 144466" d="M387.584,61.446A3.187,3.187,0,1,1,384.4,58.3,3.165,3.165,0,0,1,387.584,61.446Z" transform="translate(-381.21 -58.302)" fill="#633837"/>
          <path id="Trazado_144467" data-name="Trazado 144467" d="M386.249,61.364a1.935,1.935,0,1,1-1.935-1.91A1.922,1.922,0,0,1,386.249,61.364Z" transform="translate(-381.126 -58.22)" fill="#321413"/>
        </g>
        <path id="Trazado_144468" data-name="Trazado 144468" d="M380.974,59.766a11.2,11.2,0,0,1,3.874-.527,9.567,9.567,0,0,1,5.121,1.852c-.13-2.734-1.173-4.527-5.387-4.806-4.066-.269-5.167,1.919-5.444,4.516A4.547,4.547,0,0,1,380.974,59.766Z" transform="translate(-379.11 -56.262)" fill="#e78660"/>
      </g>
      <g id="Grupo_72951" data-name="Grupo 72951" transform="translate(47.591 42.676)">
        <path id="Trazado_144469" data-name="Trazado 144469" d="M359.349,61.241a5.444,5.444,0,0,0,10.871,0c0-2.842-2.434-3.828-5.436-3.828S359.349,58.4,359.349,61.241Z" transform="translate(-359.349 -56.18)" fill="#fdfaee"/>
        <path id="Trazado_144470" data-name="Trazado 144470" d="M362.765,64.562a14.179,14.179,0,0,0,2.868.314,5.271,5.271,0,0,0,4.062-1.884,5.56,5.56,0,0,1-9.95-.145A6.7,6.7,0,0,0,362.765,64.562Z" transform="translate(-359.321 -55.791)" fill="#e78660"/>
        <g id="Grupo_72950" data-name="Grupo 72950" transform="translate(2.248 2.186)">
          <path id="Trazado_144471" data-name="Trazado 144471" d="M361.447,61.446a3.187,3.187,0,1,0,3.187-3.144A3.166,3.166,0,0,0,361.447,61.446Z" transform="translate(-361.447 -58.302)" fill="#633837"/>
          <path id="Trazado_144472" data-name="Trazado 144472" d="M362.615,61.364a1.935,1.935,0,1,0,1.935-1.91A1.923,1.923,0,0,0,362.615,61.364Z" transform="translate(-361.363 -58.22)" fill="#321413"/>
        </g>
        <path id="Trazado_144473" data-name="Trazado 144473" d="M368.356,59.766a11.207,11.207,0,0,0-3.875-.527,9.567,9.567,0,0,0-5.121,1.852c.13-2.734,1.173-4.527,5.387-4.806,4.066-.269,5.167,1.919,5.445,4.516A4.561,4.561,0,0,0,368.356,59.766Z" transform="translate(-359.348 -56.262)" fill="#e78660"/>
      </g>
      <g id="Grupo_72952" data-name="Grupo 72952" transform="translate(58.63 40.409)">
        <path id="Trazado_144474" data-name="Trazado 144474" d="M374,77a6.233,6.233,0,0,1-2.236-.416,3.046,3.046,0,0,1-2.1-2.184c-.225-1.323,3.933-19.547,3.918-19.626a.526.526,0,1,1,1.033-.194c.063.335-4.062,18.768-3.913,19.643a2.091,2.091,0,0,0,1.45,1.382,4.172,4.172,0,0,0,3.635-.135.526.526,0,1,1,.635.838A4.017,4.017,0,0,1,374,77Z" transform="translate(-369.651 -54.147)" fill="#ce7959"/>
      </g>
      <path id="Trazado_144475" data-name="Trazado 144475" d="M380.28,47.768s7.23,1.569,8.741,2.773,4.352,5.148,3.808,6.187-5.525-3.15-6.259-3.216-7.58-1.614-7.85-2.715C378.407,49.528,379.083,47.443,380.28,47.768Z" transform="translate(-310.377 -14.197)" fill="#884627"/>
      <path id="Trazado_144476" data-name="Trazado 144476" d="M370.034,48.374s-7.361.813-8.979,1.853-4.816,4.662-4.369,5.75,5.8-2.56,6.543-2.549,7.713-.822,8.085-1.887C371.743,50.312,371.259,48.173,370.034,48.374Z" transform="translate(-311.952 -14.152)" fill="#884627"/>
      <circle id="Elipse_4498" data-name="Elipse 4498" cx="0.625" cy="0.625" r="0.625" transform="translate(53.821 46.628)" fill="#fdfaee"/>
      <path id="Trazado_144477" data-name="Trazado 144477" d="M385.961,60.576a.625.625,0,1,1-.625-.626A.625.625,0,0,1,385.961,60.576Z" transform="translate(-309.943 -13.323)" fill="#fdfaee"/>
      <path id="Trazado_144478" data-name="Trazado 144478" d="M384.089,80.894c-.5.046-.688.687-.692.7a.442.442,0,0,1-.853-.233,2.079,2.079,0,0,1,.244-.548c-7.711-6.092-15.241-.822-16.378.046a2.078,2.078,0,0,1,.214.5.442.442,0,0,1-.853.233c0-.006-.192-.657-.692-.7a.442.442,0,0,1,.041-.883l.042,0a1.463,1.463,0,0,1,.632.21,16.232,16.232,0,0,1,9.183-3.149,13.273,13.273,0,0,1,8.446,3.118,1.471,1.471,0,0,1,.583-.179l.042,0a.442.442,0,0,1,.041.883Z" transform="translate(-311.377 -12.097)" fill="#ce7959"/>
      <g id="Grupo_72953" data-name="Grupo 72953" transform="translate(58.868 68.817)">
        <path id="Trazado_144479" data-name="Trazado 144479" d="M374.558,80.657a8.085,8.085,0,0,1,4.522,1.388.35.35,0,0,1-.425.556,7.29,7.29,0,0,0-8.245.019.351.351,0,1,1-.372-.595A8.409,8.409,0,0,1,374.558,80.657Z" transform="translate(-369.873 -80.657)" fill="#ce7959"/>
      </g>
      <path id="Trazado_144480" data-name="Trazado 144480" d="M393.972,70.683c0,2.46-2.708,4.456-6.049,4.456s-6.048-2-6.048-4.456,2.708-4.456,6.048-4.456S393.972,68.221,393.972,70.683Z" transform="translate(-310.146 -12.873)" fill="url(#radial-gradient)"/>
      <path id="Trazado_144481" data-name="Trazado 144481" d="M355.813,70.683c0,2.46,2.708,4.456,6.048,4.456s6.048-2,6.048-4.456-2.708-4.456-6.048-4.456S355.813,68.221,355.813,70.683Z" transform="translate(-312.011 -12.873)" fill="url(#radial-gradient-2)"/>
      <path id="Trazado_144482" data-name="Trazado 144482" d="M353.242,56.136a17.173,17.173,0,0,1-4.929-.916c.729,6.207,2.112,12.375,3.255,14.687l.02-.013a4.053,4.053,0,0,0,1.878-3.7C353.238,62.53,353.188,59.157,353.242,56.136Z" transform="translate(-312.548 -13.661)" fill="#995235" opacity="0.35" style="mix-blend-mode: multiply;isolation: isolate"/>
      <path id="Trazado_144483" data-name="Trazado 144483" d="M395.906,56.462c.1,3.373.089,6.838-.047,9.76a4.122,4.122,0,0,0,1.314,3.239l.564.512c1.19-2.41,2.37-9.168,2.986-15.684A14.893,14.893,0,0,1,395.906,56.462Z" transform="translate(-309.145 -13.728)" fill="#995235" opacity="0.35" style="mix-blend-mode: multiply;isolation: isolate"/>
    </g>
  </g>
</svg>
