<svg xmlns="http://www.w3.org/2000/svg" xmlns:xlink="http://www.w3.org/1999/xlink" width="125.437" height="125.437" viewBox="0 0 125.437 125.437">
  <defs>
    <clipPath id="clip-path">
      <circle id="Elipse_4492" data-name="Elipse 4492" cx="62.718" cy="62.718" r="62.718" fill="none"/>
    </clipPath>
    <radialGradient id="radial-gradient" cx="0.5" cy="0.5" r="0.633" gradientTransform="translate(-0.207 0.072) scale(0.737 0.855)" gradientUnits="objectBoundingBox">
      <stop offset="0" stop-color="#f29788"/>
      <stop offset="0.612" stop-color="#f2a288"/>
      <stop offset="0.92" stop-color="#f2ab88"/>
    </radialGradient>
    <radialGradient id="radial-gradient-2" cx="0.5" cy="0.5" r="0.633" gradientTransform="matrix(-0.737, 0, 0, 0.855, -36.573, 0.072)" xlink:href="#radial-gradient"/>
  </defs>
  <g id="icon10" transform="translate(-165.639 -284.376)">
    <g id="Grupo_72909" data-name="Grupo 72909" transform="translate(165.639 284.376)" clip-path="url(#clip-path)">
      <g id="Grupo_72908" data-name="Grupo 72908" transform="translate(-0.682 4.806)">
        <path id="Trazado_144325" data-name="Trazado 144325" d="M284.37,385.84c-3.48-7.308-26.8-4.177-36.195-8s-9.4-22.274-9.4-22.274H217.9s0,18.446-9.4,22.274-32.714.7-36.195,8-5.917,17.749-7.308,24.709H291.679C290.287,403.589,287.851,393.148,284.37,385.84Z" transform="translate(-164.998 -284.651)" fill="#f2ab88"/>
        <path id="Trazado_144326" data-name="Trazado 144326" d="M285.29,384.454c-3.179-6.641-22.825-4.662-33.477-7.117-9.164,4.754-16.793,6.432-22.995,6.495-6.2-.063-13.832-1.74-22.995-6.495-10.652,2.455-30.3.475-33.477,7.117-3.5,7.308-5.949,17.749-7.349,24.709H292.639C291.239,402.2,288.79,391.762,285.29,384.454Z" transform="translate(-164.998 -283.265)" fill="#33b5b7"/>
        <path id="Trazado_144327" data-name="Trazado 144327" d="M224.487,375.716c9.406,0,13.66-3.062,14.885-3.791-3.52-6.785-3.523-16.364-3.523-16.364H214.966s0,10.29-3.917,17.093C211.687,372.921,218.7,375.716,224.487,375.716Z" transform="translate(-162.067 -284.651)" fill="#dcb890" opacity="0.55" style="mix-blend-mode: multiply;isolation: isolate"/>
        <g id="Grupo_72902" data-name="Grupo 72902" transform="translate(31.747 48.663)">
          <path id="Trazado_144328" data-name="Trazado 144328" d="M195.865,336.158c3.434-4.656,11.221,2.925,11.221,2.925s4.835,5.649-.8,12.478c-2.815,3.414-6.066.833-8.241-3.225S193.416,339.475,195.865,336.158Z" transform="translate(-194.846 -334.645)" fill="#f2ab88"/>
          <path id="Trazado_144329" data-name="Trazado 144329" d="M200.648,348.561a3.247,3.247,0,0,0,2.862,1.179,1.139,1.139,0,0,0,.793-1.205c-.325-1.01-3.545-2.808-2.743-5.627.81-2.845-2.8-5.572-3.93-4.007C196.751,340.121,197.813,345.687,200.648,348.561Z" transform="translate(-194.688 -334.404)" fill="#db7a5b"/>
        </g>
        <g id="Grupo_72903" data-name="Grupo 72903" transform="translate(80.731 48.663)">
          <path id="Trazado_144330" data-name="Trazado 144330" d="M254.051,336.158c-3.434-4.656-11.221,2.925-11.221,2.925s-4.834,5.649.8,12.478c2.815,3.414,6.067.833,8.242-3.225S256.5,339.475,254.051,336.158Z" transform="translate(-240.899 -334.645)" fill="#f2ab88"/>
          <path id="Trazado_144331" data-name="Trazado 144331" d="M248.839,348.561a3.245,3.245,0,0,1-2.861,1.179,1.14,1.14,0,0,1-.795-1.205c.326-1.01,3.545-2.808,2.743-5.627-.809-2.845,2.8-5.572,3.931-4.007C252.735,340.121,251.674,345.687,248.839,348.561Z" transform="translate(-240.627 -334.404)" fill="#db7a5b"/>
        </g>
        <path id="Trazado_144332" data-name="Trazado 144332" d="M251.478,316.288c-.68-3.807-3.282-7.023-6.579-9.656a29.961,29.961,0,0,0-37.538,0c-3.3,2.633-5.9,5.849-6.579,9.656,0,0-1.615,29.923,5.849,41.4,5.782,8.887,13.062,13.708,19.5,13.708s13.717-4.822,19.5-13.708C253.093,346.212,251.478,316.288,251.478,316.288Z" transform="translate(-162.73 -288.186)" fill="#f2ab88"/>
        <path id="Trazado_144333" data-name="Trazado 144333" d="M203.521,340.479c-.823-13.087.584-22.813,1.338-23.97a29.274,29.274,0,0,0,8.688-11.554s10.764,5.221,27.8,3.132c0,0,3.165,4.46,6.033,9.049,1.388,2.22,1.988,15.008,1.6,23.305a4.086,4.086,0,0,0,1.3,3.216l.558.507c2.1-4.25,4.18-22.155,3.116-28.074-3-16.682-15.059-18.446-27.065-18.446a34.137,34.137,0,0,0-14.464,3.31c-.923-.272-2.325-.6-2.3-.781-6.422.429-9.709,9.558-11.605,15.916-1.92,6.438,1.016,23.823,3.116,28.074l.02-.013A4.024,4.024,0,0,0,203.521,340.479Z" transform="translate(-162.904 -288.337)" fill="#995235"/>
        <path id="Trazado_144334" data-name="Trazado 144334" d="M210.032,306.82q.911.4,1.789.826a27.227,27.227,0,0,0,1.3-2.692s10.764,5.22,27.8,3.132c0,0,2.687,3.787,5.352,7.971a24.152,24.152,0,0,0,6.548-3.082c-3.881-13.787-15.14-15.329-26.352-15.329A34.137,34.137,0,0,0,212,300.956c-.923-.272-2.325-.6-2.3-.781a7.836,7.836,0,0,0-5.037,2.5c.012.016.032.043.06.077A13.811,13.811,0,0,0,210.032,306.82Z" transform="translate(-162.474 -288.337)" fill="#995235" opacity="0.35" style="mix-blend-mode: multiply;isolation: isolate"/>
        <path id="Trazado_144335" data-name="Trazado 144335" d="M254.325,297.53c0,5.861-9.618,3.393-22.2-3.7-12.329-6.953-18.452-.918-20.941,3.081a25.386,25.386,0,0,1,2.887-8.016c-6.388,3.006-5.961,8.2-5.113,11.085-2.277-.46-5.673-.572-8.326,1.791,0,0,6.513-1.022,8.913,1.036.311.267,1.318.736,1.434.843,6.742,7.42,13.405,11.027,27.29,10.022,7.673-.556,10.228-1.447,13.873-5.347C256.47,303.7,254.325,297.53,254.325,297.53Z" transform="translate(-162.73 -288.894)" fill="#995235"/>
        <path id="Trazado_144336" data-name="Trazado 144336" d="M237.508,312.777c7.228-.523,9.914-1.347,13.249-4.7a20.13,20.13,0,0,1-14.4-5.126c-.128,1.914.83,4.466,3.382,7.4-6.127-1.021-11.57-2.936-16.676-7.02,1.021,2.042,2.061,5.425,3.082,6.446-3.168,0-11.6-3.692-13.5-4.541C218.658,310.959,225.282,313.662,237.508,312.777Z" transform="translate(-161.966 -287.999)" fill="#995235" opacity="0.5" style="mix-blend-mode: multiply;isolation: isolate"/>
        <path id="Trazado_144337" data-name="Trazado 144337" d="M241.438,334.723c0,2.6-3.039,4.709-6.787,4.709s-6.788-2.108-6.788-4.709,3.039-4.709,6.788-4.709S241.438,332.122,241.438,334.723Z" transform="translate(-160.997 -286.277)" fill="#e78660"/>
        <path id="Trazado_144338" data-name="Trazado 144338" d="M237.235,337.8a20.255,20.255,0,0,1-3.764.38,7.175,7.175,0,0,1-5.333-2.28,7.589,7.589,0,0,0,13.061-.174A9.011,9.011,0,0,1,237.235,337.8Z" transform="translate(-160.98 -285.914)" fill="#884627"/>
        <path id="Trazado_144339" data-name="Trazado 144339" d="M208.187,334.723c0,2.6,3,4.709,6.695,4.709s6.7-2.108,6.7-4.709-3-4.709-6.7-4.709S208.187,332.122,208.187,334.723Z" transform="translate(-162.249 -286.277)" fill="#e78660"/>
        <path id="Trazado_144340" data-name="Trazado 144340" d="M212.272,337.8a20.256,20.256,0,0,0,3.764.38,7.175,7.175,0,0,0,5.333-2.28,7.589,7.589,0,0,1-13.062-.174A9.011,9.011,0,0,0,212.272,337.8Z" transform="translate(-162.242 -285.914)" fill="#884627"/>
        <g id="Grupo_72904" data-name="Grupo 72904" transform="translate(58.196 40.109)">
          <path id="Trazado_144341" data-name="Trazado 144341" d="M224.024,349.283a6.2,6.2,0,0,1-2.22-.413,3.019,3.019,0,0,1-2.084-2.168c-.223-1.314,3.9-19.4,3.888-19.481a.522.522,0,1,1,1.026-.193c.062.333-4.032,18.629-3.884,19.5a2.072,2.072,0,0,0,1.438,1.372,4.141,4.141,0,0,0,3.608-.134.522.522,0,0,1,.632.832A3.993,3.993,0,0,1,224.024,349.283Z" transform="translate(-219.712 -326.604)" fill="#ce7959"/>
        </g>
        <path id="Trazado_144342" data-name="Trazado 144342" d="M243.552,344.038c0,2.442-2.688,4.423-6,4.423s-6-1.981-6-4.423,2.688-4.423,6-4.423S243.552,341.6,243.552,344.038Z" transform="translate(-160.763 -285.666)" fill="url(#radial-gradient)"/>
        <path id="Trazado_144343" data-name="Trazado 144343" d="M205.483,344.038c0,2.442,2.688,4.423,6,4.423s6-1.981,6-4.423-2.688-4.423-6-4.423S205.483,341.6,205.483,344.038Z" transform="translate(-162.422 -285.666)" fill="url(#radial-gradient-2)"/>
        <path id="Trazado_144344" data-name="Trazado 144344" d="M203.267,328.585a17.052,17.052,0,0,1-4.894-.909c.723,6.162,2.1,12.283,3.231,14.578l.02-.013a4.024,4.024,0,0,0,1.866-3.674C203.262,334.932,203.212,331.584,203.267,328.585Z" transform="translate(-162.874 -286.426)" fill="#995235" opacity="0.35" style="mix-blend-mode: multiply;isolation: isolate"/>
        <path id="Trazado_144345" data-name="Trazado 144345" d="M245.966,328.9c.1,3.348.089,6.787-.046,9.688a4.083,4.083,0,0,0,1.3,3.215l.558.508c1.182-2.392,2.354-9.1,2.964-15.567A14.783,14.783,0,0,1,245.966,328.9Z" transform="translate(-159.848 -286.485)" fill="#995235" opacity="0.35" style="mix-blend-mode: multiply;isolation: isolate"/>
        <g id="Grupo_72906" data-name="Grupo 72906" transform="translate(59.006 70.61)">
          <g id="Grupo_72905" data-name="Grupo 72905">
            <path id="Trazado_144346" data-name="Trazado 144346" d="M225.99,357.181a.531.531,0,0,1-.3-.094,4.087,4.087,0,0,0-4.393-.165.532.532,0,1,1-.584-.889,5.1,5.1,0,0,1,5.579.178.532.532,0,0,1-.3.97Z" transform="translate(-220.473 -355.279)" fill="#ce7959"/>
          </g>
        </g>
        <g id="Grupo_72907" data-name="Grupo 72907" transform="translate(55.445 66.357)">
          <path id="Trazado_144347" data-name="Trazado 144347" d="M230.432,356.332a.8.8,0,0,1-.656-.344,8.1,8.1,0,0,0-5.837-3.107,5.905,5.905,0,0,0-5.319,2.765.8.8,0,0,1-1.393-.777,7.516,7.516,0,0,1,6.781-3.581,9.584,9.584,0,0,1,7.081,3.791.8.8,0,0,1-.2,1.11A.788.788,0,0,1,230.432,356.332Z" transform="translate(-217.126 -351.281)" fill="#ce7959"/>
        </g>
        <path id="Trazado_144348" data-name="Trazado 144348" d="M220.78,326.378a2.522,2.522,0,0,0-.878.835,2.285,2.285,0,0,1-2.089.858,31,31,0,0,0-6.146-.3c-1.858.335-5.818,1.762-5.761,2.713s6.046.112,6.735.328,7.719,1.116,8.42.411a2.281,2.281,0,0,0,.41-.6.383.383,0,0,0,.029-.03C222.574,329.336,221.509,326.374,220.78,326.378Z" transform="translate(-162.395 -286.509)" fill="#884627"/>
        <path id="Trazado_144349" data-name="Trazado 144349" d="M238.346,327.569a36.118,36.118,0,0,0-6.935-.087,2.32,2.32,0,0,1-1.883-.815,2.315,2.315,0,0,0-.874-.738c-.725.065-1.5,3.115-.315,4.264.315.3.58.454.817.427a36.365,36.365,0,0,0,7.8-.076c.712-.168,6.521,1.085,6.713.137S240.138,328.033,238.346,327.569Z" transform="translate(-161.006 -286.537)" fill="#884627"/>
      </g>
    </g>
  </g>
</svg>
