<svg xmlns="http://www.w3.org/2000/svg" xmlns:xlink="http://www.w3.org/1999/xlink" width="124.97" height="124.971" viewBox="0 0 124.97 124.971">
  <defs>
    <clipPath id="clip-path">
      <circle id="Elipse_4489" data-name="Elipse 4489" cx="62.485" cy="62.485" r="62.485" fill="none"/>
    </clipPath>
    <radialGradient id="radial-gradient" cx="0.503" cy="0.501" r="0.634" gradientTransform="translate(0.299 0.073) scale(0.736 0.855)" gradientUnits="objectBoundingBox">
      <stop offset="0" stop-color="#f29788"/>
      <stop offset="0.61" stop-color="#f2a388"/>
      <stop offset="0.92" stop-color="#f2ab88"/>
    </radialGradient>
    <radialGradient id="radial-gradient-2" cx="0.496" cy="0.501" r="0.634" gradientTransform="matrix(-0.736, 0, 0, 0.855, 6.106, 0.073)" xlink:href="#radial-gradient"/>
  </defs>
  <g id="icon8" style="isolation: isolate">
    <g id="Layer_1" data-name="Layer 1" transform="translate(0 0)">
      <g id="Grupo_72890" data-name="Grupo 72890" clip-path="url(#clip-path)">
        <path id="Trazado_144260" data-name="Trazado 144260" d="M114.221,101.346c-3.465-7.28-26.692-4.154-36.027-7.968S68.837,71.19,68.837,71.19H47.963s0,18.374-9.367,22.188-32.583.689-36.027,7.968-5.891,17.685-7.28,24.615H121.5C120.123,119.031,117.7,108.626,114.221,101.346Z" transform="translate(-0.281 4.244)" fill="#f2ab88"/>
        <path id="Trazado_144261" data-name="Trazado 144261" d="M115.142,100.049c-3.179-6.612-22.739-4.641-33.357-7.089-9.123,4.736-16.721,6.4-22.909,6.474S45.1,97.7,35.978,93c-10.6,2.448-30.188.477-33.357,7.089C-.864,107.371-3.3,117.776-4.7,124.706H122.453C121.076,117.734,118.628,107.328,115.142,100.049Z" transform="translate(-0.28 5.541)" fill="#33b5b7"/>
        <path id="Trazado_144262" data-name="Trazado 144262" d="M54.756,91.259c9.367,0,13.605-3.041,14.835-3.772-3.507-6.76-3.507-16.3-3.507-16.3H45.22s0,10.246-3.91,17.028C42.041,88.483,48.971,91.259,54.756,91.259Z" transform="translate(2.462 4.244)" fill="#dcb890" opacity="0.55" style="mix-blend-mode: multiply;isolation: isolate"/>
        <path id="Trazado_144263" data-name="Trazado 144263" d="M26.167,51.775c3.423-4.641,11.179,2.914,11.179,2.914s4.811,5.627-.795,12.429c-2.808,3.4-6.04.837-8.212-3.179S23.73,55.081,26.167,51.775Z" transform="translate(1.499 2.996)" fill="#f2ab88"/>
        <path id="Trazado_144264" data-name="Trazado 144264" d="M30.936,64.147a3.253,3.253,0,0,0,2.85,1.176,1.134,1.134,0,0,0,.795-1.2c-.328-1.06-3.528-2.8-2.734-5.605s-2.766-5.584-3.91-3.995C27.057,55.745,28.117,61.286,30.936,64.147Z" transform="translate(1.647 3.223)" fill="#db7a5b"/>
        <path id="Trazado_144265" data-name="Trazado 144265" d="M84.308,51.775c-3.423-4.641-11.2,2.914-11.2,2.914s-4.821,5.627.795,12.429c2.8,3.4,6.04.837,8.212-3.179S86.745,55.081,84.308,51.775Z" transform="translate(4.243 2.996)" fill="#f2ab88"/>
        <path id="Trazado_144266" data-name="Trazado 144266" d="M79.125,64.147a3.242,3.242,0,0,1-2.85,1.176,1.123,1.123,0,0,1-.784-1.2c.318-1.06,3.528-2.8,2.734-5.605s2.787-5.584,3.91-3.995C83.014,55.745,81.954,61.286,79.125,64.147Z" transform="translate(4.5 3.223)" fill="#db7a5b"/>
        <path id="Trazado_144267" data-name="Trazado 144267" d="M81.589,31.851c-.678-3.793-3.274-6.993-6.548-9.621a29.87,29.87,0,0,0-37.4,0c-3.285,2.628-5.87,5.828-6.548,9.621,0,0-1.611,29.807,5.828,41.24C42.659,81.939,49.928,86.75,56.339,86.75s13.669-4.811,19.423-13.658C83.2,61.658,81.589,31.851,81.589,31.851Z" transform="translate(1.844 0.933)" fill="#f2ab88"/>
        <path id="Trazado_144268" data-name="Trazado 144268" d="M33.8,55.94c-.816-13.033.54-22.729,1.335-23.884A29.012,29.012,0,0,0,43.786,20.55s10.691,5.2,27.7,3.126c0,0,3.179,4.44,6.008,9.007,1.377,2.215,1.981,14.951,1.589,23.227a4.09,4.09,0,0,0,1.3,3.179l.583.519c2.119-4.238,4.164-22.072,3.1-27.974C81.063,15.029,69.047,13.27,57.084,13.27a34.035,34.035,0,0,0-14.411,3.3c-.922-.265-2.321-.593-2.289-.774-6.358.424-9.674,9.536-11.56,15.894s1.007,23.682,3.1,27.921h0A4.005,4.005,0,0,0,33.8,55.94Z" transform="translate(1.682 0.791)" fill="#995235"/>
        <path id="Trazado_144269" data-name="Trazado 144269" d="M40.3,22.414c.6.254,1.2.53,1.78.816A27.36,27.36,0,0,0,43.36,20.55s10.713,5.2,27.719,3.126c0,0,2.67,3.772,5.3,7.936a23.968,23.968,0,0,0,6.517-3.073C79.069,14.806,67.848,13.27,56.68,13.27a34.035,34.035,0,0,0-14.411,3.3c-.922-.265-2.321-.593-2.289-.774A7.778,7.778,0,0,0,35,18.282l.064.074A13.68,13.68,0,0,0,40.3,22.414Z" transform="translate(2.086 0.791)" fill="#995235" opacity="0.35" style="mix-blend-mode: multiply;isolation: isolate"/>
        <path id="Trazado_144270" data-name="Trazado 144270" d="M84.429,13.124c0,5.838-9.536,3.38-22.114-3.687C50.077,2.507,43.931,8.515,41.451,12.5A25.346,25.346,0,0,1,44.323,4.52c-6.358,2.988-5.934,8.17-5.086,11.041-2.268-.456-5.658-.572-8.3,1.78,0,0,6.485-1.06,8.88,1.06.307.265,1.314.731,1.43.837,6.718,7.417,13.351,10.988,27.19,9.982,7.64-.551,10.183-1.441,13.775-5.3C86.559,19.27,84.429,13.124,84.429,13.124Z" transform="translate(1.844 0.269)" fill="#995235"/>
        <path id="Trazado_144271" data-name="Trazado 144271" d="M67.724,28.361c7.195-.519,9.876-1.335,13.192-4.683A19.984,19.984,0,0,1,66.569,18.57c-.127,1.907.826,4.45,3.37,7.417a34.374,34.374,0,0,1-16.615-6.993c1.06,2.034,2.056,5.4,3.073,6.421-3.179,0-11.56-3.677-13.446-4.514C48.937,26.549,55.538,29.251,67.724,28.361Z" transform="translate(2.56 1.107)" fill="#995235" opacity="0.5" style="mix-blend-mode: multiply;isolation: isolate"/>
        <path id="Trazado_144272" data-name="Trazado 144272" d="M59.76,49.444a5.107,5.107,0,0,0,10.119.212C66.828,47.452,63.193,46.954,59.76,49.444Z" transform="translate(3.562 2.848)" fill="#fdfaee"/>
        <path id="Trazado_144273" data-name="Trazado 144273" d="M66.676,52.421a13.68,13.68,0,0,1-2.691.3,4.991,4.991,0,0,1-3.815-1.77,5.224,5.224,0,0,0,9.356-.138,6.358,6.358,0,0,1-2.85,1.611Z" transform="translate(3.587 3.029)" fill="#e78660"/>
        <path id="Trazado_144274" data-name="Trazado 144274" d="M69.614,49.617A2.7,2.7,0,1,1,66.912,47a2.7,2.7,0,0,1,2.7,2.617Z" transform="translate(3.828 2.802)" fill="#633837"/>
        <path id="Trazado_144275" data-name="Trazado 144275" d="M68.545,49.561A1.642,1.642,0,1,1,66.9,47.94a1.642,1.642,0,0,1,1.642,1.621Z" transform="translate(3.89 2.858)" fill="#321413"/>
        <path id="Trazado_144276" data-name="Trazado 144276" d="M61.477,49.016a15.471,15.471,0,0,1,3.645-.339,12.175,12.175,0,0,1,4.811,1.166c-.127-1.717-1.06-3.6-5.065-3.772s-4.853,1.96-5.107,3.592a4.864,4.864,0,0,1,1.717-.646Z" transform="translate(3.562 2.746)" fill="#e78660"/>
        <path id="Trazado_144277" data-name="Trazado 144277" d="M49.766,49.179a5.52,5.52,0,0,1-.742-1.06,8.329,8.329,0,0,0-1.06-.477,14.273,14.273,0,0,0-2.427,0h-.826a4.556,4.556,0,0,1-1.144.307c-.117,0-.826.18-1.113.254a6.135,6.135,0,0,0-.784.244c.275-.1.212,0-.2.17s-.943.509-1.409.742h0a5.107,5.107,0,0,0,10.14.1,2.277,2.277,0,0,1-.434-.275Z" transform="translate(2.388 2.837)" fill="#fdfaee"/>
        <path id="Trazado_144278" data-name="Trazado 144278" d="M43.16,52.421a13.775,13.775,0,0,0,2.691.3,4.97,4.97,0,0,0,3.815-1.77,5.224,5.224,0,0,1-9.346-.138,6.358,6.358,0,0,0,2.84,1.611Z" transform="translate(2.403 3.029)" fill="#e78660"/>
        <path id="Trazado_144279" data-name="Trazado 144279" d="M44.4,49.71a2.691,2.691,0,1,0,.822-1.905A2.7,2.7,0,0,0,44.4,49.71Z" transform="translate(2.647 2.805)" fill="#633837"/>
        <path id="Trazado_144280" data-name="Trazado 144280" d="M45.5,49.561a1.642,1.642,0,1,0,1.589-1.621A1.642,1.642,0,0,0,45.5,49.561Z" transform="translate(2.712 2.858)" fill="#321413"/>
        <path id="Trazado_144281" data-name="Trazado 144281" d="M48.477,49.016a15.385,15.385,0,0,0-3.634-.339A12.175,12.175,0,0,0,40,49.843c.117-1.717,1.06-3.6,5.054-3.772s4.853,1.96,5.118,3.592a4.927,4.927,0,0,0-1.7-.646Z" transform="translate(2.384 2.746)" fill="#e78660"/>
        <path id="Trazado_144282" data-name="Trazado 144282" d="M54.313,64.818a6.284,6.284,0,0,1-2.193-.413A3.009,3.009,0,0,1,50,62.286c-.223-1.3,3.889-19.327,3.878-19.4a.519.519,0,0,1,.413-.6.509.509,0,0,1,.6.413c.085.286-3.995,18.511-3.836,19.423A2.119,2.119,0,0,0,52.5,63.483a4.133,4.133,0,0,0,3.592-.138.522.522,0,1,1,.625.837A4.005,4.005,0,0,1,54.313,64.818Z" transform="translate(2.98 2.52)" fill="#ce7959"/>
        <path id="Trazado_144283" data-name="Trazado 144283" d="M59.139,39.762s7.015-2.119,8.89-1.77,6.23,2.384,6.252,3.539-6.283-.1-6.951.2-7.332,2.215-8.1,1.388S57.973,40.048,59.139,39.762Z" transform="translate(3.484 2.262)" fill="#884627"/>
        <path id="Trazado_144284" data-name="Trazado 144284" d="M51.184,40.893S44.477,37.936,42.591,38,36.159,39.621,36,40.766s6.231.7,6.856,1.06,7,3.179,7.852,2.405S52.339,41.327,51.184,40.893Z" transform="translate(2.146 2.265)" fill="#884627"/>
        <path id="Trazado_144285" data-name="Trazado 144285" d="M46.673,49.232a.562.562,0,1,1-.562-.562.562.562,0,0,1,.562.562Z" transform="translate(2.715 2.901)" fill="#fdfaee"/>
        <path id="Trazado_144286" data-name="Trazado 144286" d="M66.213,49.232a.556.556,0,0,1-1.113,0,.562.562,0,0,1,.562-.562.551.551,0,0,1,.551.562Z" transform="translate(3.881 2.901)" fill="#fdfaee"/>
        <path id="Trazado_144287" data-name="Trazado 144287" d="M74.2,58.718c0,2.427-2.681,4.4-5.987,4.4s-5.976-1.971-5.976-4.4,2.681-4.408,5.976-4.408S74.2,56.281,74.2,58.718Z" transform="translate(3.71 3.237)" fill="url(#radial-gradient)"/>
        <path id="Trazado_144288" data-name="Trazado 144288" d="M36.18,58.718c0,2.427,2.67,4.4,5.976,4.4s5.987-1.971,5.987-4.4-2.681-4.408-5.987-4.408S36.18,56.281,36.18,58.718Z" transform="translate(2.157 3.237)" fill="url(#radial-gradient-2)"/>
        <path id="Trazado_144289" data-name="Trazado 144289" d="M33.554,44.211A17.272,17.272,0,0,1,28.68,43.3c.721,6.135,2.119,12.238,3.179,14.527h0a4.005,4.005,0,0,0,1.854-3.656C33.544,50.527,33.5,47.221,33.554,44.211Z" transform="translate(1.71 2.581)" fill="#995235" opacity="0.35" style="mix-blend-mode: multiply;isolation: isolate"/>
        <path id="Trazado_144290" data-name="Trazado 144290" d="M76.27,44.522c.1,3.338.085,6.76,0,9.653a4.09,4.09,0,0,0,1.3,3.179l.53.519c1.176-2.384,2.342-9.07,2.946-15.513A14.654,14.654,0,0,1,76.27,44.522Z" transform="translate(4.546 2.525)" fill="#995235" opacity="0.35" style="mix-blend-mode: multiply;isolation: isolate"/>
        <path id="Trazado_144291" data-name="Trazado 144291" d="M60.049,69.92c-.2-.064-2.215-1.409-4.016-1a8.794,8.794,0,0,0-2.956,1.823c-.223.18-.4.424-.212.646A4.97,4.97,0,0,0,56.4,72.7a2.384,2.384,0,0,0,.381-.064,6.718,6.718,0,0,0,3.921-2.119C60.833,70.281,60.43,70.069,60.049,69.92Z" transform="translate(3.146 4.104)" fill="#d76651"/>
      </g>
    </g>
  </g>
</svg>
