<svg xmlns="http://www.w3.org/2000/svg" xmlns:xlink="http://www.w3.org/1999/xlink" width="128.001" height="128.001" viewBox="0 0 128.001 128.001">
  <defs>
    <clipPath id="clip-path">
      <circle id="Elipse_4485" data-name="Elipse 4485" cx="64" cy="64" r="64" fill="none"/>
    </clipPath>
    <radialGradient id="radial-gradient" cx="0.5" cy="0.5" r="0.633" gradientTransform="translate(-0.715 0.072) scale(0.737 0.855)" gradientUnits="objectBoundingBox">
      <stop offset="0" stop-color="#f29788"/>
      <stop offset="0.612" stop-color="#f2a288"/>
      <stop offset="0.92" stop-color="#f2ab88"/>
    </radialGradient>
    <radialGradient id="radial-gradient-2" cx="0.5" cy="0.5" r="0.633" gradientTransform="matrix(-0.737, 0, 0, 0.855, -79.479, 0.072)" xlink:href="#radial-gradient"/>
  </defs>
  <g id="Grupo_72879" data-name="Grupo 72879" transform="translate(-196.579 -305.376)">
    <g id="icon6" transform="translate(196.579 305.376)" clip-path="url(#clip-path)">
      <g id="Grupo_72877" data-name="Grupo 72877" transform="translate(-0.697 4.904)">
        <path id="Trazado_144198" data-name="Trazado 144198" d="M436.751,386.459C433.2,379,409.4,382.2,399.816,378.29s-9.589-22.729-9.589-22.729H368.919s0,18.823-9.588,22.729-33.383.711-36.935,8.169-6.038,18.112-7.459,25.215H444.208C442.788,404.57,440.3,393.916,436.751,386.459Z" transform="translate(-314.937 -283.202)" fill="#f2ab88"/>
        <path id="Trazado_144199" data-name="Trazado 144199" d="M437.69,384.6c-3.244-6.777-23.292-4.757-34.161-7.262-9.352,4.852-17.136,6.563-23.465,6.627-6.33-.064-14.114-1.776-23.466-6.627-10.869,2.505-30.916.485-34.161,7.262-3.571,7.458-6.071,18.112-7.5,25.215H445.188C443.76,402.711,441.26,392.057,437.69,384.6Z" transform="translate(-314.937 -281.342)" fill="#33b5b7"/>
        <path id="Trazado_144200" data-name="Trazado 144200" d="M374.7,376.128c9.6,0,13.94-3.125,15.189-3.868-3.592-6.924-3.6-16.7-3.6-16.7H364.986s0,10.5-4,17.442C361.64,373.276,368.791,376.128,374.7,376.128Z" transform="translate(-311.005 -283.202)" fill="#dcb890" opacity="0.55" style="mix-blend-mode: multiply;isolation: isolate"/>
        <g id="Grupo_72871" data-name="Grupo 72871" transform="translate(32.397 49.658)">
          <path id="Trazado_144201" data-name="Trazado 144201" d="M345.826,336.188c3.5-4.751,11.451,2.985,11.451,2.985s4.934,5.764-.812,12.733c-2.873,3.484-6.19.85-8.41-3.291S343.327,339.574,345.826,336.188Z" transform="translate(-344.786 -334.645)" fill="#f2ab88"/>
          <path id="Trazado_144202" data-name="Trazado 144202" d="M350.655,348.768a3.311,3.311,0,0,0,2.92,1.2,1.163,1.163,0,0,0,.811-1.23c-.332-1.031-3.618-2.865-2.8-5.742.827-2.9-2.862-5.686-4.012-4.089C346.68,340.156,347.763,345.835,350.655,348.768Z" transform="translate(-344.574 -334.321)" fill="#db7a5b"/>
        </g>
        <g id="Grupo_72872" data-name="Grupo 72872" transform="translate(82.382 49.658)">
          <path id="Trazado_144203" data-name="Trazado 144203" d="M404.26,336.188c-3.5-4.751-11.451,2.985-11.451,2.985s-4.934,5.764.812,12.733c2.873,3.484,6.19.85,8.409-3.291S406.758,339.574,404.26,336.188Z" transform="translate(-390.838 -334.645)" fill="#f2ab88"/>
          <path id="Trazado_144204" data-name="Trazado 144204" d="M398.854,348.768a3.311,3.311,0,0,1-2.92,1.2,1.162,1.162,0,0,1-.811-1.23c.332-1.031,3.618-2.865,2.8-5.742-.827-2.9,2.862-5.686,4.012-4.089C402.83,340.156,401.747,345.835,398.854,348.768Z" transform="translate(-390.474 -334.321)" fill="#db7a5b"/>
        </g>
        <path id="Trazado_144205" data-name="Trazado 144205" d="M402.457,316.621c-.694-3.885-3.349-7.167-6.713-9.853a30.573,30.573,0,0,0-38.305,0c-3.364,2.686-6.02,5.969-6.713,9.853,0,0-1.648,30.535,5.969,42.242,5.9,9.068,13.328,13.988,19.9,13.988s14-4.92,19.9-13.988C404.105,347.156,402.457,316.621,402.457,316.621Z" transform="translate(-311.894 -287.944)" fill="#f2ab88"/>
        <path id="Trazado_144206" data-name="Trazado 144206" d="M353.575,341.354c-.839-13.355.6-23.279,1.367-24.46a29.872,29.872,0,0,0,8.865-11.791s10.983,5.328,28.363,3.2c0,0,3.23,4.551,6.156,9.234,1.415,2.265,2.027,15.315,1.634,23.782a4.177,4.177,0,0,0,1.331,3.282l.571.518c2.144-4.337,4.265-22.607,3.18-28.648-3.057-17.023-15.367-18.823-27.62-18.823a34.838,34.838,0,0,0-14.76,3.378c-.941-.278-2.373-.609-2.349-.8-6.554.437-9.907,9.753-11.843,16.242-1.959,6.57,1.038,24.31,3.181,28.648l.021-.013A4.105,4.105,0,0,0,353.575,341.354Z" transform="translate(-312.128 -288.147)" fill="#995235"/>
        <path id="Trazado_144207" data-name="Trazado 144207" d="M360.082,307.007q.928.405,1.824.843a27.52,27.52,0,0,0,1.323-2.747s10.983,5.327,28.363,3.2c0,0,2.742,3.864,5.461,8.134a24.638,24.638,0,0,0,6.683-3.145c-3.962-14.069-15.45-15.643-26.891-15.643a34.838,34.838,0,0,0-14.76,3.378c-.941-.278-2.373-.609-2.349-.8a8,8,0,0,0-5.139,2.552c.012.016.033.043.061.078A14.085,14.085,0,0,0,360.082,307.007Z" transform="translate(-311.551 -288.147)" fill="#995235" opacity="0.35" style="mix-blend-mode: multiply;isolation: isolate"/>
        <path id="Trazado_144208" data-name="Trazado 144208" d="M405.363,297.706c0,5.98-9.816,3.462-22.652-3.777-12.58-7.1-18.829-.937-21.368,3.144a25.9,25.9,0,0,1,2.946-8.179c-6.519,3.067-6.084,8.372-5.217,11.312-2.324-.469-5.791-.584-8.5,1.828,0,0,6.646-1.043,9.094,1.057.318.272,1.345.751,1.463.861,6.88,7.572,13.679,11.252,27.849,10.226,7.83-.568,10.436-1.476,14.157-5.456C407.551,304,405.363,297.706,405.363,297.706Z" transform="translate(-311.894 -288.894)" fill="#995235"/>
        <path id="Trazado_144209" data-name="Trazado 144209" d="M387.956,312.978c7.375-.534,10.117-1.374,13.52-4.8a20.54,20.54,0,0,1-14.7-5.23c-.13,1.953.847,4.558,3.45,7.553-6.251-1.042-11.807-3-17.016-7.164,1.042,2.084,2.1,5.535,3.145,6.577-3.232,0-11.837-3.767-13.774-4.633C368.72,311.123,375.48,313.881,387.956,312.978Z" transform="translate(-310.869 -287.694)" fill="#995235" opacity="0.5" style="mix-blend-mode: multiply;isolation: isolate"/>
        <path id="Trazado_144210" data-name="Trazado 144210" d="M390.123,333.746a5.514,5.514,0,0,1-11.011,0c0-2.878,2.465-3.877,5.505-3.877S390.123,330.868,390.123,333.746Z" transform="translate(-309.457 -285.395)" fill="#fdfaee"/>
        <path id="Trazado_144211" data-name="Trazado 144211" d="M386.594,337.041a14.422,14.422,0,0,1-2.9.317,5.336,5.336,0,0,1-4.115-1.908,5.633,5.633,0,0,0,10.079-.146A6.8,6.8,0,0,1,386.594,337.041Z" transform="translate(-309.418 -284.931)" fill="#e78660"/>
        <g id="Grupo_72873" data-name="Grupo 72873" transform="translate(73.167 46.466)">
          <ellipse id="Elipse_4482" data-name="Elipse 4482" cx="2.767" cy="2.731" rx="2.767" ry="2.731" fill="#633837"/>
          <path id="Trazado_144212" data-name="Trazado 144212" d="M386.711,334.35a1.681,1.681,0,1,1-1.681-1.658A1.67,1.67,0,0,1,386.711,334.35Z" transform="translate(-382.263 -331.62)" fill="#321413"/>
        </g>
        <path id="Trazado_144213" data-name="Trazado 144213" d="M384.652,330.921a7.428,7.428,0,0,1,5.456,2.687c-.131-2.769-1.189-4.586-5.456-4.868-4.118-.272-5.234,1.944-5.514,4.574A6.216,6.216,0,0,1,384.652,330.921Z" transform="translate(-309.455 -285.494)" fill="#e78660"/>
        <path id="Trazado_144214" data-name="Trazado 144214" d="M359.349,333.746a5.514,5.514,0,0,0,11.011,0c0-2.878-2.465-3.877-5.506-3.877S359.349,330.868,359.349,333.746Z" transform="translate(-311.145 -285.395)" fill="#fdfaee"/>
        <path id="Trazado_144215" data-name="Trazado 144215" d="M362.8,337.041a14.441,14.441,0,0,0,2.9.317,5.336,5.336,0,0,0,4.115-1.908,5.632,5.632,0,0,1-10.078-.146A6.8,6.8,0,0,0,362.8,337.041Z" transform="translate(-311.111 -284.931)" fill="#e78660"/>
        <g id="Grupo_72874" data-name="Grupo 72874" transform="translate(51.717 46.466)">
          <ellipse id="Elipse_4483" data-name="Elipse 4483" cx="2.767" cy="2.731" rx="2.767" ry="2.731" fill="#633837"/>
          <path id="Trazado_144216" data-name="Trazado 144216" d="M363.586,334.35a1.681,1.681,0,1,0,1.681-1.658A1.67,1.67,0,0,0,363.586,334.35Z" transform="translate(-362.5 -331.62)" fill="#321413"/>
        </g>
        <path id="Trazado_144217" data-name="Trazado 144217" d="M364.547,330.673c-2.027.115-4.053.491-5.187,2.936.131-2.769,1.188-4.586,5.456-4.868,4.118-.272,5.234,1.944,5.515,4.574A6.932,6.932,0,0,0,364.547,330.673Z" transform="translate(-311.144 -285.494)" fill="#e78660"/>
        <g id="Grupo_72875" data-name="Grupo 72875" transform="translate(59.385 40.929)">
          <path id="Trazado_144218" data-name="Trazado 144218" d="M374.052,349.747a6.313,6.313,0,0,1-2.265-.421,3.085,3.085,0,0,1-2.127-2.212c-.228-1.34,3.983-19.8,3.968-19.879a.532.532,0,1,1,1.046-.2c.064.34-4.115,19.009-3.964,19.9a2.118,2.118,0,0,0,1.469,1.4,4.226,4.226,0,0,0,3.682-.137.533.533,0,1,1,.644.849A4.069,4.069,0,0,1,374.052,349.747Z" transform="translate(-369.651 -326.604)" fill="#ce7959"/>
        </g>
        <path id="Trazado_144219" data-name="Trazado 144219" d="M381,320.225s7.323,1.589,8.852,2.809,4.409,5.214,3.859,6.268-5.6-3.192-6.341-3.258-7.677-1.635-7.952-2.75C379.1,322.007,379.785,319.9,381,320.225Z" transform="translate(-309.438 -286.222)" fill="#884627"/>
        <path id="Trazado_144220" data-name="Trazado 144220" d="M368.772,320.83s-7.457.824-9.094,1.877-4.878,4.722-4.426,5.824,5.878-2.593,6.627-2.581,7.813-.834,8.189-1.912C370.5,322.793,370.011,320.627,368.772,320.83Z" transform="translate(-311.498 -286.168)" fill="#884627"/>
        <circle id="Elipse_4484" data-name="Elipse 4484" cx="0.633" cy="0.633" r="0.633" transform="translate(54.514 47.228)" fill="#fdfaee"/>
        <path id="Trazado_144221" data-name="Trazado 144221" d="M385.978,333.04a.633.633,0,1,1-.633-.633A.633.633,0,0,1,385.978,333.04Z" transform="translate(-308.979 -285.179)" fill="#fdfaee"/>
        <path id="Trazado_144222" data-name="Trazado 144222" d="M394.128,343.2c0,2.492-2.743,4.513-6.127,4.513s-6.126-2.021-6.126-4.513,2.743-4.513,6.126-4.513S394.128,340.7,394.128,343.2Z" transform="translate(-309.222 -284.643)" fill="url(#radial-gradient)"/>
        <path id="Trazado_144223" data-name="Trazado 144223" d="M355.813,343.2c0,2.492,2.743,4.513,6.126,4.513s6.126-2.021,6.126-4.513-2.743-4.513-6.126-4.513S355.813,340.7,355.813,343.2Z" transform="translate(-311.447 -284.643)" fill="url(#radial-gradient-2)"/>
        <path id="Trazado_144224" data-name="Trazado 144224" d="M353.306,328.6a17.394,17.394,0,0,1-4.993-.928c.738,6.288,2.139,12.534,3.3,14.876l.021-.013a4.105,4.105,0,0,0,1.9-3.749C353.3,335.08,353.25,331.664,353.306,328.6Z" transform="translate(-312.087 -285.583)" fill="#995235" opacity="0.35" style="mix-blend-mode: multiply;isolation: isolate"/>
        <path id="Trazado_144225" data-name="Trazado 144225" d="M395.907,328.946c.1,3.417.09,6.926-.048,9.886a4.173,4.173,0,0,0,1.331,3.281l.571.519c1.206-2.441,2.4-9.287,3.025-15.886A15.086,15.086,0,0,1,395.907,328.946Z" transform="translate(-308.028 -285.662)" fill="#995235" opacity="0.35" style="mix-blend-mode: multiply;isolation: isolate"/>
        <g id="Grupo_72876" data-name="Grupo 72876" transform="translate(58.191 66.516)">
          <path id="Trazado_144226" data-name="Trazado 144226" d="M378.888,350.177s-10.729,0-10.327,3.366c.334,2.79,4.166,4.74,8.478,4.1a4.537,4.537,0,0,0,3.722-3.238C381.261,352.632,381.316,350.5,378.888,350.177Z" transform="translate(-368.55 -350.177)" fill="#9f1818"/>
          <path id="Trazado_144227" data-name="Trazado 144227" d="M369.922,355.068c-.156.063-.3.128-.44.193,1.469,1.6,4.341,2.508,7.477,2.047a4.559,4.559,0,0,0,3.168-2.038q-.363-.132-.724-.266A13.125,13.125,0,0,0,369.922,355.068Z" transform="translate(-368.47 -349.838)" fill="#e34848"/>
          <path id="Trazado_144228" data-name="Trazado 144228" d="M379.346,351.967c.138-.055,1.267-.836,1.267-.836a2.334,2.334,0,0,0-1.739-.954s-8.787,0-10.158,2.5C372.133,353.556,378.572,352.272,379.346,351.967Z" transform="translate(-368.536 -350.177)" fill="#fdfaee"/>
        </g>
      </g>
    </g>
  </g>
</svg>
