<svg xmlns="http://www.w3.org/2000/svg" xmlns:xlink="http://www.w3.org/1999/xlink" width="128" height="128" viewBox="0 0 128 128">
  <defs>
    <clipPath id="clip-path">
      <circle id="Elipse_4488" data-name="Elipse 4488" cx="64" cy="64" r="64" fill="none"/>
    </clipPath>
    <radialGradient id="radial-gradient" cx="0.5" cy="0.5" r="0.633" gradientTransform="translate(0.299 0.072) scale(0.737 0.855)" gradientUnits="objectBoundingBox">
      <stop offset="0" stop-color="#f29788"/>
      <stop offset="0.612" stop-color="#f2a288"/>
      <stop offset="0.92" stop-color="#f2ab88"/>
    </radialGradient>
    <radialGradient id="radial-gradient-2" cx="0.5" cy="0.5" r="0.633" gradientTransform="matrix(-0.737, 0, 0, 0.855, 6.109, 0.072)" xlink:href="#radial-gradient"/>
  </defs>
  <g id="icon7" transform="translate(-20.742 -146.188)">
    <g id="Grupo_72888" data-name="Grupo 72888" transform="translate(20.742 146.189)" clip-path="url(#clip-path)">
      <g id="Grupo_72887" data-name="Grupo 72887" transform="translate(-6.169 7.029)">
        <path id="Trazado_144229" data-name="Trazado 144229" d="M136.871,250.23c-3.552-7.458-27.346-4.262-36.935-8.169s-9.588-22.729-9.588-22.729H69.039s0,18.823-9.589,22.729-33.383.711-36.934,8.169-6.037,18.112-7.458,25.214H144.329C142.908,268.342,140.422,257.688,136.871,250.23Z" transform="translate(-15.058 -146.973)" fill="#f2ab88"/>
        <path id="Trazado_144230" data-name="Trazado 144230" d="M137.81,248.371c-3.245-6.777-23.292-4.757-34.161-7.262-9.352,4.851-17.136,6.563-23.466,6.627-6.329-.064-14.113-1.777-23.465-6.627-10.869,2.505-30.917.485-34.161,7.262-3.571,7.458-6.071,18.112-7.5,25.214H145.309C143.88,266.483,141.381,255.829,137.81,248.371Z" transform="translate(-15.058 -145.114)" fill="#33b5b7"/>
        <path id="Trazado_144231" data-name="Trazado 144231" d="M74.823,239.9c9.6,0,13.939-3.125,15.188-3.868-3.592-6.924-3.595-16.7-3.595-16.7H65.108s0,10.5-4,17.442C61.761,237.047,68.912,239.9,74.823,239.9Z" transform="translate(-11.126 -146.973)" fill="#dcb890" opacity="0.55" style="mix-blend-mode: multiply;isolation: isolate"/>
        <g id="Grupo_72880" data-name="Grupo 72880" transform="translate(32.397 49.658)">
          <path id="Trazado_144232" data-name="Trazado 144232" d="M45.947,199.959c3.5-4.75,11.451,2.986,11.451,2.986s4.933,5.763-.812,12.733c-2.873,3.484-6.191.85-8.411-3.291S43.448,203.346,45.947,199.959Z" transform="translate(-44.907 -198.417)" fill="#f2ab88"/>
          <path id="Trazado_144233" data-name="Trazado 144233" d="M50.776,212.54a3.311,3.311,0,0,0,2.92,1.2,1.163,1.163,0,0,0,.811-1.23c-.332-1.031-3.618-2.865-2.8-5.742.826-2.9-2.862-5.686-4.012-4.089C46.8,203.928,47.884,209.607,50.776,212.54Z" transform="translate(-44.695 -198.093)" fill="#db7a5b"/>
        </g>
        <g id="Grupo_72881" data-name="Grupo 72881" transform="translate(82.381 49.658)">
          <path id="Trazado_144234" data-name="Trazado 144234" d="M104.381,199.959c-3.506-4.75-11.451,2.986-11.451,2.986s-4.934,5.763.812,12.733c2.872,3.484,6.19.85,8.41-3.291S106.879,203.346,104.381,199.959Z" transform="translate(-90.959 -198.417)" fill="#f2ab88"/>
          <path id="Trazado_144235" data-name="Trazado 144235" d="M98.975,212.54a3.313,3.313,0,0,1-2.921,1.2,1.163,1.163,0,0,1-.81-1.23c.332-1.031,3.618-2.865,2.8-5.742-.827-2.9,2.861-5.686,4.01-4.089C102.951,203.928,101.867,209.607,98.975,212.54Z" transform="translate(-90.595 -198.093)" fill="#db7a5b"/>
        </g>
        <path id="Trazado_144236" data-name="Trazado 144236" d="M102.578,180.392c-.694-3.886-3.351-7.167-6.713-9.854a30.577,30.577,0,0,0-38.306,0c-3.362,2.687-6.02,5.968-6.713,9.854,0,0-1.648,30.534,5.968,42.242,5.9,9.068,13.328,13.988,19.9,13.988s14-4.92,19.9-13.988C104.226,210.926,102.578,180.392,102.578,180.392Z" transform="translate(-12.015 -151.715)" fill="#f2ab88"/>
        <path id="Trazado_144237" data-name="Trazado 144237" d="M53.7,205.126c-.839-13.354.6-23.279,1.365-24.46a29.851,29.851,0,0,0,8.865-11.79s10.984,5.327,28.364,3.2c0,0,3.23,4.551,6.155,9.234,1.416,2.265,2.029,15.315,1.635,23.782a4.17,4.17,0,0,0,1.331,3.281l.57.519c2.144-4.337,4.266-22.608,3.181-28.647-3.058-17.023-15.368-18.823-27.62-18.823a34.835,34.835,0,0,0-14.76,3.378c-.942-.278-2.373-.61-2.349-.8-6.554.437-9.907,9.752-11.843,16.242-1.959,6.57,1.037,24.31,3.18,28.647l.022-.013A4.107,4.107,0,0,0,53.7,205.126Z" transform="translate(-12.249 -151.918)" fill="#995235"/>
        <path id="Trazado_144238" data-name="Trazado 144238" d="M60.2,170.779q.928.4,1.825.843a27.549,27.549,0,0,0,1.322-2.747s10.984,5.327,28.364,3.2c0,0,2.741,3.864,5.461,8.134a24.582,24.582,0,0,0,6.682-3.147c-3.961-14.068-15.449-15.641-26.89-15.641a34.835,34.835,0,0,0-14.76,3.378c-.942-.278-2.373-.61-2.349-.8a8,8,0,0,0-5.14,2.552l.061.078A14.107,14.107,0,0,0,60.2,170.779Z" transform="translate(-11.672 -151.918)" fill="#995235" opacity="0.35" style="mix-blend-mode: multiply;isolation: isolate"/>
        <path id="Trazado_144239" data-name="Trazado 144239" d="M105.484,161.478c0,5.98-9.816,3.462-22.652-3.777-12.581-7.1-18.829-.937-21.368,3.144a25.929,25.929,0,0,1,2.945-8.18c-6.519,3.068-6.082,8.373-5.216,11.313-2.324-.469-5.79-.585-8.5,1.828,0,0,6.645-1.044,9.094,1.057.317.272,1.345.751,1.463.861,6.88,7.572,13.679,11.252,27.849,10.226,7.829-.568,10.436-1.477,14.155-5.456C107.671,167.773,105.484,161.478,105.484,161.478Z" transform="translate(-12.015 -152.665)" fill="#995235"/>
        <path id="Trazado_144240" data-name="Trazado 144240" d="M88.077,176.75c7.375-.534,10.117-1.375,13.519-4.8a20.538,20.538,0,0,1-14.7-5.232c-.13,1.954.847,4.559,3.451,7.554-6.252-1.042-11.807-3-17.017-7.163,1.042,2.084,2.1,5.535,3.147,6.577-3.232,0-11.837-3.767-13.773-4.633C68.841,174.895,75.6,177.653,88.077,176.75Z" transform="translate(-10.99 -151.465)" fill="#995235" opacity="0.5" style="mix-blend-mode: multiply;isolation: isolate"/>
        <path id="Trazado_144241" data-name="Trazado 144241" d="M90.243,197.623a5.514,5.514,0,1,1-5.505-5.212A5.365,5.365,0,0,1,90.243,197.623Z" transform="translate(-9.579 -149.272)" fill="#fdfaee"/>
        <path id="Trazado_144242" data-name="Trazado 144242" d="M86.715,200.813a14.428,14.428,0,0,1-2.9.317,5.339,5.339,0,0,1-4.115-1.908,5.632,5.632,0,0,0,10.078-.147A6.794,6.794,0,0,1,86.715,200.813Z" transform="translate(-9.539 -148.703)" fill="#e78660"/>
        <g id="Grupo_72882" data-name="Grupo 72882" transform="translate(69.666 45.049)">
          <path id="Trazado_144243" data-name="Trazado 144243" d="M85.7,197.354a3.228,3.228,0,1,1-3.228-3.185A3.207,3.207,0,0,1,85.7,197.354Z" transform="translate(-79.244 -194.17)" fill="#633837"/>
          <path id="Trazado_144244" data-name="Trazado 144244" d="M84.332,197.256a1.96,1.96,0,1,1-1.96-1.934A1.948,1.948,0,0,1,84.332,197.256Z" transform="translate(-79.144 -194.072)" fill="#321413"/>
        </g>
        <path id="Trazado_144245" data-name="Trazado 144245" d="M84.832,194.722c2.023.167,3.523,1.173,5.4,2.755-.131-2.769-1.188-5.814-5.456-6.1-4.118-.272-5.234,3.173-5.515,5.8C79.9,195.9,81.08,194.409,84.832,194.722Z" transform="translate(-9.577 -149.361)" fill="#e78660"/>
        <path id="Trazado_144246" data-name="Trazado 144246" d="M59.469,197.623a5.514,5.514,0,1,0,5.506-5.212A5.365,5.365,0,0,0,59.469,197.623Z" transform="translate(-11.266 -149.272)" fill="#fdfaee"/>
        <path id="Trazado_144247" data-name="Trazado 144247" d="M62.925,200.813a14.419,14.419,0,0,0,2.9.317,5.339,5.339,0,0,0,4.115-1.908,5.633,5.633,0,0,1-10.079-.147A6.8,6.8,0,0,0,62.925,200.813Z" transform="translate(-11.232 -148.703)" fill="#e78660"/>
        <g id="Grupo_72883" data-name="Grupo 72883" transform="translate(48.216 45.284)">
          <path id="Trazado_144248" data-name="Trazado 144248" d="M59.481,197.573a3.228,3.228,0,1,0,3.228-3.186A3.206,3.206,0,0,0,59.481,197.573Z" transform="translate(-59.481 -194.387)" fill="#633837"/>
          <path id="Trazado_144249" data-name="Trazado 144249" d="M60.649,197.474a1.96,1.96,0,1,0,1.96-1.935A1.947,1.947,0,0,0,60.649,197.474Z" transform="translate(-59.381 -194.289)" fill="#321413"/>
        </g>
        <path id="Trazado_144250" data-name="Trazado 144250" d="M64.669,194.89a7.029,7.029,0,0,0-5.188,2.5c.131-2.769,1.225-4.694,5.493-4.976,4.117-.272,5.2,2.052,5.477,4.682A6.764,6.764,0,0,0,64.669,194.89Z" transform="translate(-11.265 -149.273)" fill="#e78660"/>
        <g id="Grupo_72884" data-name="Grupo 72884" transform="translate(59.385 40.93)">
          <path id="Trazado_144251" data-name="Trazado 144251" d="M74.173,213.518a6.313,6.313,0,0,1-2.265-.421,3.083,3.083,0,0,1-2.127-2.212c-.228-1.34,3.982-19.8,3.967-19.879a.533.533,0,0,1,1.047-.2c.064.34-4.115,19.009-3.964,19.9a2.114,2.114,0,0,0,1.469,1.4,4.226,4.226,0,0,0,3.682-.137.533.533,0,0,1,.644.849A4.071,4.071,0,0,1,74.173,213.518Z" transform="translate(-69.772 -190.375)" fill="#ce7959"/>
        </g>
        <path id="Trazado_144252" data-name="Trazado 144252" d="M79.235,184.112s7.48-1.491,9.282-.728,5.649,3.835,5.4,5-6.25-1.566-6.984-1.429-7.833,1.543-8.4.543C77.887,186.34,77.979,184.122,79.235,184.112Z" transform="translate(-9.672 -150.061)" fill="#884627"/>
        <path id="Trazado_144253" data-name="Trazado 144253" d="M70.947,186.745s-7.47-.695-9.286.007-5.729,3.644-5.508,4.814,6.28-1.356,7.013-1.194,7.819.758,8.405-.224C72.247,189.017,72.2,186.8,70.947,186.745Z" transform="translate(-11.55 -149.781)" fill="#884627"/>
        <circle id="Elipse_4486" data-name="Elipse 4486" cx="0.633" cy="0.633" r="0.633" transform="translate(49.983 47.228)" fill="#fdfaee"/>
        <circle id="Elipse_4487" data-name="Elipse 4487" cx="0.633" cy="0.633" r="0.633" transform="translate(71.2 47.228)" fill="#fdfaee"/>
        <g id="Grupo_72885" data-name="Grupo 72885" transform="translate(64.629 70.033)">
          <path id="Trazado_144254" data-name="Trazado 144254" d="M77.158,217.205a4.067,4.067,0,0,1,2.675.752.3.3,0,0,1,.072.352.175.175,0,0,1-.276.075,3.484,3.484,0,0,0-4.7.47.178.178,0,0,1-.283-.054.3.3,0,0,1,.029-.355A4.109,4.109,0,0,1,77.158,217.205Z" transform="translate(-74.603 -217.189)" fill="#ce7959"/>
        </g>
        <path id="Trazado_144255" data-name="Trazado 144255" d="M94.248,206.968c0,2.492-2.743,4.513-6.126,4.513S82,209.46,82,206.968s2.743-4.513,6.126-4.513S94.248,204.475,94.248,206.968Z" transform="translate(-9.343 -148.414)" fill="url(#radial-gradient)"/>
        <path id="Trazado_144256" data-name="Trazado 144256" d="M55.933,206.968c0,2.492,2.743,4.513,6.127,4.513s6.126-2.021,6.126-4.513-2.743-4.513-6.126-4.513S55.933,204.475,55.933,206.968Z" transform="translate(-11.568 -148.414)" fill="url(#radial-gradient-2)"/>
        <path id="Trazado_144257" data-name="Trazado 144257" d="M53.427,192.376a17.386,17.386,0,0,1-4.993-.928c.738,6.287,2.139,12.534,3.3,14.876l.022-.013a4.107,4.107,0,0,0,1.9-3.749C53.421,198.852,53.371,195.436,53.427,192.376Z" transform="translate(-12.208 -149.354)" fill="#995235" opacity="0.35" style="mix-blend-mode: multiply;isolation: isolate"/>
        <path id="Trazado_144258" data-name="Trazado 144258" d="M96.028,192.718c.1,3.417.09,6.926-.048,9.886a4.17,4.17,0,0,0,1.331,3.281l.57.519c1.207-2.441,2.4-9.286,3.025-15.886A15.079,15.079,0,0,1,96.028,192.718Z" transform="translate(-8.149 -149.433)" fill="#995235" opacity="0.35" style="mix-blend-mode: multiply;isolation: isolate"/>
        <g id="Grupo_72886" data-name="Grupo 72886" transform="translate(60.605 66.104)">
          <path id="Trazado_144259" data-name="Trazado 144259" d="M71.981,217.777a1.085,1.085,0,0,1-.726-1.893,10.809,10.809,0,0,1,10.735-1.568,1.085,1.085,0,1,1-.738,2.04,8.711,8.711,0,0,0-8.546,1.143A1.085,1.085,0,0,1,71.981,217.777Z" transform="translate(-70.896 -213.569)" fill="#ce7959"/>
        </g>
      </g>
    </g>
  </g>
</svg>
