<svg xmlns="http://www.w3.org/2000/svg" xmlns:xlink="http://www.w3.org/1999/xlink" width="127.999" height="127.999" viewBox="0 0 127.999 127.999">
  <defs>
    <clipPath id="clip-path">
      <circle id="Elipse_4491" data-name="Elipse 4491" cx="64" cy="64" r="64" fill="none"/>
    </clipPath>
    <radialGradient id="radial-gradient" cx="0.5" cy="0.5" r="0.633" gradientTransform="translate(-0.208 0.072) scale(0.737 0.855)" gradientUnits="objectBoundingBox">
      <stop offset="0" stop-color="#f29788"/>
      <stop offset="0.612" stop-color="#f2a288"/>
      <stop offset="0.92" stop-color="#f2ab88"/>
    </radialGradient>
    <radialGradient id="radial-gradient-2" cx="0.5" cy="0.5" r="0.633" gradientTransform="matrix(-0.737, 0, 0, 0.855, -36.68, 0.072)" xlink:href="#radial-gradient"/>
  </defs>
  <g id="icon9" clip-path="url(#clip-path)">
    <g id="Grupo_72899" data-name="Grupo 72899" transform="translate(-2.449 6.866)">
      <path id="Trazado_144292" data-name="Trazado 144292" d="M286.809,522.611c-3.551-7.459-27.345-4.262-36.934-8.169s-9.588-22.729-9.588-22.729H218.978s0,18.822-9.588,22.729-33.383.71-36.934,8.169-6.038,18.112-7.458,25.214H294.267C292.847,540.723,290.36,530.069,286.809,522.611Z" transform="translate(-164.998 -419.355)" fill="#f2ab88"/>
      <path id="Trazado_144293" data-name="Trazado 144293" d="M287.748,520.752c-3.244-6.777-23.291-4.757-34.161-7.262-9.352,4.851-17.136,6.563-23.465,6.627-6.329-.064-14.114-1.777-23.465-6.627-10.87,2.505-30.917.485-34.161,7.262-3.571,7.458-6.07,18.111-7.5,25.214H295.247C293.818,538.864,291.319,528.21,287.748,520.752Z" transform="translate(-164.998 -417.496)" fill="#33b5b7"/>
      <path id="Trazado_144294" data-name="Trazado 144294" d="M224.762,512.281c9.6,0,13.939-3.125,15.189-3.868-3.592-6.924-3.595-16.7-3.595-16.7H215.046s0,10.5-4,17.442C211.7,509.428,218.852,512.281,224.762,512.281Z" transform="translate(-161.067 -419.355)" fill="#dcb890" opacity="0.55" style="mix-blend-mode: multiply;isolation: isolate"/>
      <g id="Grupo_72891" data-name="Grupo 72891" transform="translate(32.396 49.658)">
        <path id="Trazado_144295" data-name="Trazado 144295" d="M195.886,472.34c3.5-4.75,11.451,2.986,11.451,2.986s4.934,5.763-.812,12.732c-2.873,3.484-6.19.85-8.409-3.292S193.387,475.727,195.886,472.34Z" transform="translate(-194.846 -470.798)" fill="#f2ab88"/>
        <path id="Trazado_144296" data-name="Trazado 144296" d="M200.715,484.921a3.313,3.313,0,0,0,2.921,1.2,1.162,1.162,0,0,0,.81-1.23c-.332-1.031-3.618-2.865-2.8-5.742.827-2.9-2.861-5.686-4.01-4.089C196.74,476.309,197.823,481.988,200.715,484.921Z" transform="translate(-194.634 -470.474)" fill="#db7a5b"/>
      </g>
      <g id="Grupo_72892" data-name="Grupo 72892" transform="translate(82.38 49.658)">
        <path id="Trazado_144297" data-name="Trazado 144297" d="M254.32,472.34c-3.5-4.75-11.451,2.986-11.451,2.986s-4.933,5.763.812,12.732c2.873,3.484,6.191.85,8.411-3.292S256.818,475.727,254.32,472.34Z" transform="translate(-240.899 -470.798)" fill="#f2ab88"/>
        <path id="Trazado_144298" data-name="Trazado 144298" d="M248.914,484.921a3.311,3.311,0,0,1-2.92,1.2,1.163,1.163,0,0,1-.811-1.23c.332-1.031,3.618-2.865,2.8-5.742-.826-2.9,2.862-5.686,4.012-4.089C252.89,476.309,251.807,481.988,248.914,484.921Z" transform="translate(-240.535 -470.474)" fill="#db7a5b"/>
      </g>
      <path id="Trazado_144299" data-name="Trazado 144299" d="M252.517,452.773c-.694-3.886-3.349-7.167-6.713-9.854a30.573,30.573,0,0,0-38.3,0c-3.364,2.687-6.019,5.968-6.713,9.854,0,0-1.648,30.534,5.968,42.242,5.9,9.068,13.328,13.988,19.9,13.988s14-4.92,19.9-13.988C254.164,483.307,252.517,452.773,252.517,452.773Z" transform="translate(-161.956 -424.096)" fill="#f2ab88"/>
      <path id="Trazado_144300" data-name="Trazado 144300" d="M203.636,477.507c-.84-13.354.6-23.279,1.365-24.46a29.871,29.871,0,0,0,8.865-11.79s10.984,5.327,28.363,3.2c0,0,3.23,4.551,6.156,9.233,1.416,2.266,2.029,15.316,1.635,23.783a4.168,4.168,0,0,0,1.331,3.281l.57.519c2.144-4.337,4.265-22.608,3.18-28.647C252.044,435.6,239.734,433.8,227.482,433.8a34.834,34.834,0,0,0-14.76,3.378c-.942-.278-2.373-.61-2.349-.8-6.553.437-9.907,9.752-11.842,16.241-1.959,6.57,1.037,24.31,3.18,28.647l.021-.013A4.106,4.106,0,0,0,203.636,477.507Z" transform="translate(-162.19 -424.299)" fill="#995235"/>
      <path id="Trazado_144301" data-name="Trazado 144301" d="M210.141,443.16q.93.4,1.826.843a27.777,27.777,0,0,0,1.322-2.747s10.984,5.327,28.363,3.2c0,0,2.742,3.864,5.462,8.134a24.614,24.614,0,0,0,6.682-3.147c-3.961-14.067-15.449-15.641-26.89-15.641a34.835,34.835,0,0,0-14.76,3.378c-.942-.278-2.373-.61-2.349-.8a8,8,0,0,0-5.14,2.552l.061.078A14.1,14.1,0,0,0,210.141,443.16Z" transform="translate(-161.612 -424.299)" fill="#995235" opacity="0.35" style="mix-blend-mode: multiply;isolation: isolate"/>
      <path id="Trazado_144302" data-name="Trazado 144302" d="M255.422,433.859c0,5.979-9.815,3.462-22.651-3.777-12.581-7.1-18.829-.937-21.369,3.144a25.917,25.917,0,0,1,2.946-8.18c-6.519,3.068-6.082,8.373-5.217,11.313-2.324-.469-5.789-.585-8.5,1.828,0,0,6.646-1.044,9.1,1.057.317.271,1.345.751,1.463.861,6.88,7.572,13.679,11.252,27.847,10.226,7.83-.568,10.437-1.477,14.156-5.456C257.61,440.154,255.422,433.859,255.422,433.859Z" transform="translate(-161.956 -425.046)" fill="#995235"/>
      <path id="Trazado_144303" data-name="Trazado 144303" d="M238.015,449.131c7.376-.534,10.117-1.375,13.519-4.8a20.537,20.537,0,0,1-14.7-5.231c-.13,1.954.847,4.559,3.451,7.554-6.252-1.042-11.807-3-17.016-7.163,1.042,2.084,2.1,5.535,3.145,6.577-3.232,0-11.837-3.767-13.772-4.633C218.781,447.276,225.54,450.034,238.015,449.131Z" transform="translate(-160.93 -423.846)" fill="#995235" opacity="0.5" style="mix-blend-mode: multiply;isolation: isolate"/>
      <g id="Grupo_72893" data-name="Grupo 72893" transform="translate(59.385 40.93)">
        <path id="Trazado_144304" data-name="Trazado 144304" d="M224.112,485.9a6.322,6.322,0,0,1-2.265-.421,3.081,3.081,0,0,1-2.126-2.212c-.228-1.342,3.982-19.8,3.967-19.879a.533.533,0,0,1,1.047-.2c.063.34-4.115,19.009-3.964,19.9a2.114,2.114,0,0,0,1.467,1.4,4.226,4.226,0,0,0,3.682-.137.533.533,0,0,1,.645.849A4.075,4.075,0,0,1,224.112,485.9Z" transform="translate(-219.712 -462.756)" fill="#ce7959"/>
      </g>
      <path id="Trazado_144305" data-name="Trazado 144305" d="M233.687,456.165s7.257,1.872,8.737,3.15,4.2,5.382,3.613,6.412-5.469-3.406-6.21-3.5-7.607-1.93-7.839-3.055C231.722,457.872,232.489,455.789,233.687,456.165Z" transform="translate(-159.284 -422.393)" fill="#884627"/>
      <path id="Trazado_144306" data-name="Trazado 144306" d="M217.949,456.041s-7.4,1.229-8.979,2.368-4.615,4.98-4.1,6.055,5.73-2.908,6.479-2.937,7.755-1.256,8.073-2.353C219.783,457.908,219.175,455.773,217.949,456.041Z" transform="translate(-161.599 -422.402)" fill="#884627"/>
      <path id="Trazado_144307" data-name="Trazado 144307" d="M244.188,479.349c0,2.492-2.743,4.513-6.126,4.513s-6.127-2.021-6.127-4.513,2.743-4.513,6.127-4.513S244.188,476.856,244.188,479.349Z" transform="translate(-159.284 -420.795)" fill="url(#radial-gradient)"/>
      <path id="Trazado_144308" data-name="Trazado 144308" d="M205.873,479.349c0,2.492,2.743,4.513,6.126,4.513s6.127-2.021,6.127-4.513-2.743-4.513-6.127-4.513S205.873,476.856,205.873,479.349Z" transform="translate(-161.509 -420.795)" fill="url(#radial-gradient-2)"/>
      <path id="Trazado_144309" data-name="Trazado 144309" d="M203.367,464.757a17.4,17.4,0,0,1-4.994-.928c.738,6.286,2.139,12.534,3.3,14.876l.021-.013a4.106,4.106,0,0,0,1.9-3.749C203.361,471.233,203.31,467.817,203.367,464.757Z" transform="translate(-162.149 -421.735)" fill="#995235" opacity="0.35" style="mix-blend-mode: multiply;isolation: isolate"/>
      <path id="Trazado_144310" data-name="Trazado 144310" d="M245.967,465.1c.1,3.417.091,6.926-.047,9.886a4.168,4.168,0,0,0,1.331,3.281l.57.519c1.206-2.441,2.4-9.286,3.025-15.885A15.082,15.082,0,0,1,245.967,465.1Z" transform="translate(-158.09 -421.815)" fill="#995235" opacity="0.35" style="mix-blend-mode: multiply;isolation: isolate"/>
      <g id="Grupo_72894" data-name="Grupo 72894" transform="translate(57.28 66.739)">
        <path id="Trazado_144311" data-name="Trazado 144311" d="M227.947,486.922s-10.253-.8-10.174,2.279c.066,2.551,2.289,4.316,6.642,4.117a10.971,10.971,0,0,0,3.81-.875c.752-.351,2.674-2.8,1.836-4.255A3.057,3.057,0,0,0,227.947,486.922Z" transform="translate(-217.773 -486.511)" fill="#9f1818"/>
        <path id="Trazado_144312" data-name="Trazado 144312" d="M218.546,491.113c1.01,1.238,2.935,1.971,5.8,1.84a11.163,11.163,0,0,0,3.656-.816C227.873,492.079,222.591,491.4,218.546,491.113Z" transform="translate(-217.707 -486.145)" fill="#fdfaee"/>
        <path id="Trazado_144313" data-name="Trazado 144313" d="M227.2,488.713c1.809-.382,2.789-.622,2.789-.622a3.273,3.273,0,0,0-1.64-1.013s-7.662-1.886-10.349,1.375C221.321,489.548,226.4,488.883,227.2,488.713Z" transform="translate(-217.753 -486.536)" fill="#fdfaee"/>
      </g>
      <g id="Grupo_72896" data-name="Grupo 72896" transform="translate(48.202 42.078)">
        <path id="Trazado_144314" data-name="Trazado 144314" d="M209.409,469.9a5.365,5.365,0,0,0,5.5,5.212,5.16,5.16,0,0,0,5.405-5.069c0-2.878-2.364-4.02-5.405-4.02S209.409,467.021,209.409,469.9Z" transform="translate(-209.409 -463.626)" fill="#fdfaee"/>
        <g id="Grupo_72895" data-name="Grupo 72895" transform="translate(3.543 5.201)">
          <path id="Trazado_144315" data-name="Trazado 144315" d="M212.673,471.337a2.768,2.768,0,1,0,2.768-2.73A2.749,2.749,0,0,0,212.673,471.337Z" transform="translate(-212.673 -468.607)" fill="#633837"/>
          <path id="Trazado_144316" data-name="Trazado 144316" d="M213.674,471.252a1.681,1.681,0,1,0,1.681-1.658A1.67,1.67,0,0,0,213.674,471.252Z" transform="translate(-212.588 -468.523)" fill="#321413"/>
        </g>
        <path id="Trazado_144317" data-name="Trazado 144317" d="M217.176,471.315a.633.633,0,1,1-.634-.633A.634.634,0,0,1,217.176,471.315Z" transform="translate(-208.854 -463.228)" fill="#fdfaee"/>
        <path id="Trazado_144318" data-name="Trazado 144318" d="M209.693,471.669a9.768,9.768,0,0,1,4.073-1.158,11.473,11.473,0,0,1,6.432.961,4.927,4.927,0,0,0,.221-1.384,4.09,4.09,0,0,0-.062-.546c.01.008.024.008.034.016-.28-2.63-1.4-6-5.514-5.727-4.268.282-5.326,3.253-5.456,6.022h.013c0,.083-.026.15-.026.236A4.46,4.46,0,0,0,209.693,471.669Z" transform="translate(-209.409 -463.815)" fill="#e78660"/>
        <path id="Trazado_144319" data-name="Trazado 144319" d="M212.865,473.193a14.337,14.337,0,0,0,2.9.318,5.338,5.338,0,0,0,4.114-1.908,5.632,5.632,0,0,1-10.078-.147A6.78,6.78,0,0,0,212.865,473.193Z" transform="translate(-209.375 -463.162)" fill="#e78660"/>
      </g>
      <g id="Grupo_72898" data-name="Grupo 72898" transform="translate(69.846 42.078)">
        <path id="Trazado_144320" data-name="Trazado 144320" d="M229.35,469.9a5.365,5.365,0,0,0,5.506,5.212,5.16,5.16,0,0,0,5.4-5.069c0-2.878-2.364-4.02-5.4-4.02S229.35,467.021,229.35,469.9Z" transform="translate(-229.35 -463.626)" fill="#fdfaee"/>
        <g id="Grupo_72897" data-name="Grupo 72897" transform="translate(3.544 5.201)">
          <path id="Trazado_144321" data-name="Trazado 144321" d="M232.615,471.337a2.767,2.767,0,1,0,2.767-2.73A2.748,2.748,0,0,0,232.615,471.337Z" transform="translate(-232.615 -468.607)" fill="#633837"/>
          <path id="Trazado_144322" data-name="Trazado 144322" d="M233.616,471.252a1.681,1.681,0,1,0,1.68-1.658A1.669,1.669,0,0,0,233.616,471.252Z" transform="translate(-232.53 -468.523)" fill="#321413"/>
        </g>
        <circle id="Elipse_4490" data-name="Elipse 4490" cx="0.633" cy="0.633" r="0.633" transform="translate(7.055 7.454)" fill="#fdfaee"/>
        <path id="Trazado_144323" data-name="Trazado 144323" d="M229.634,471.669a9.769,9.769,0,0,1,4.074-1.158,11.474,11.474,0,0,1,6.432.961,4.927,4.927,0,0,0,.22-1.384,4.283,4.283,0,0,0-.061-.546c.01.008.024.008.033.016-.28-2.63-1.4-6-5.514-5.727-4.268.282-5.325,3.253-5.456,6.022h.014c0,.083-.027.15-.027.236A4.461,4.461,0,0,0,229.634,471.669Z" transform="translate(-229.35 -463.815)" fill="#e78660"/>
        <path id="Trazado_144324" data-name="Trazado 144324" d="M232.806,473.193a14.337,14.337,0,0,0,2.9.318,5.339,5.339,0,0,0,4.115-1.908,5.633,5.633,0,0,1-10.079-.147A6.791,6.791,0,0,0,232.806,473.193Z" transform="translate(-229.316 -463.162)" fill="#e78660"/>
      </g>
    </g>
  </g>
</svg>
