<svg xmlns="http://www.w3.org/2000/svg" width="529.509" height="382.039" viewBox="0 0 529.509 382.039">
  <g id="img14" transform="translate(-90.914 57.59)">
    <g id="Grupo_72657" data-name="Grupo 72657" transform="translate(90.914 160.52)">
      <g id="Grupo_72653" data-name="Grupo 72653" transform="translate(52.525)">
        <path id="Trazado_143872" data-name="Trazado 143872" d="M339.112,199.956l-61.446,11.636a10.645,10.645,0,0,1-12.44-8.479L243.649,89.173a10.645,10.645,0,0,1,8.479-12.44L313.573,65.1a10.645,10.645,0,0,1,12.44,8.479l21.577,113.94A10.646,10.646,0,0,1,339.112,199.956Z" transform="translate(-243.461 -64.861)" fill="#f47458"/>
        <path id="Trazado_143873" data-name="Trazado 143873" d="M410.123,64.924l-29.85,5.653,25.539,134.859,29.85-5.653a10.487,10.487,0,0,0,8.171-12.372L422.251,73.452A10.486,10.486,0,0,0,410.123,64.924Z" transform="translate(-339.701 -64.747)" fill="#f47458" opacity="0.3" style="mix-blend-mode: multiply;isolation: isolate"/>
        <rect id="Rectángulo_32352" data-name="Rectángulo 32352" width="2.483" height="134.204" transform="translate(38.455 7.784) rotate(-10.723)" fill="#f47458" opacity="0.5" style="mix-blend-mode: multiply;isolation: isolate"/>
        <g id="Grupo_72641" data-name="Grupo 72641" transform="translate(51.824 19.354)">
          <path id="Trazado_143874" data-name="Trazado 143874" d="M429.5,134.991l-7.748,1.407a4.31,4.31,0,0,0-3.471,5.01h0a4.31,4.31,0,0,0,5.01,3.47l7.748-1.407Z" transform="translate(-418.214 -133.514)" fill="#fae0b2"/>
          <path id="Trazado_143875" data-name="Trazado 143875" d="M456.28,131.488l1.54,8.481,7.748-1.407a4.31,4.31,0,0,0,3.47-5.01h0a4.31,4.31,0,0,0-5.01-3.47Z" transform="translate(-444.991 -130.011)" fill="#50bfa5"/>
          <path id="Trazado_143876" data-name="Trazado 143876" d="M430.439,149.289l-11.989,2.177a4.31,4.31,0,0,0,5.01,3.47l7.748-1.407Z" transform="translate(-418.38 -143.572)" fill="#9bc1f9" opacity="0.3" style="mix-blend-mode: multiply;isolation: isolate"/>
          <path id="Trazado_143877" data-name="Trazado 143877" d="M470.865,141.949l-11.989,2.177.77,4.24,7.748-1.407A4.31,4.31,0,0,0,470.865,141.949Z" transform="translate(-446.817 -138.409)" fill="#f47458" opacity="0.3" style="mix-blend-mode: multiply;isolation: isolate"/>
        </g>
        <g id="Grupo_72642" data-name="Grupo 72642" transform="translate(55.488 38.702)">
          <path id="Trazado_143878" data-name="Trazado 143878" d="M441.858,200.233l-7.748,1.407a4.31,4.31,0,0,0-3.47,5.01h0a4.309,4.309,0,0,0,5.01,3.47l7.748-1.407Z" transform="translate(-430.57 -198.756)" fill="#fae0b2"/>
          <path id="Trazado_143879" data-name="Trazado 143879" d="M468.635,196.73l1.54,8.481,7.748-1.407a4.309,4.309,0,0,0,3.47-5.01h0a4.31,4.31,0,0,0-5.01-3.47Z" transform="translate(-457.346 -195.253)" fill="#50bfa5"/>
          <path id="Trazado_143880" data-name="Trazado 143880" d="M442.795,214.531l-11.989,2.177a4.309,4.309,0,0,0,5.01,3.47l7.748-1.407Z" transform="translate(-430.736 -208.814)" fill="#9bc1f9" opacity="0.3" style="mix-blend-mode: multiply;isolation: isolate"/>
          <path id="Trazado_143881" data-name="Trazado 143881" d="M483.22,207.191l-11.988,2.177.77,4.24,7.748-1.407A4.309,4.309,0,0,0,483.22,207.191Z" transform="translate(-459.173 -203.651)" fill="#f47458" opacity="0.3" style="mix-blend-mode: multiply;isolation: isolate"/>
        </g>
        <g id="Grupo_72643" data-name="Grupo 72643" transform="translate(59.152 58.05)">
          <path id="Trazado_143882" data-name="Trazado 143882" d="M454.213,265.475l-7.748,1.407a4.309,4.309,0,0,0-3.47,5.01h0a4.31,4.31,0,0,0,5.01,3.471l7.748-1.407Z" transform="translate(-442.925 -263.998)" fill="#fae0b2"/>
          <path id="Trazado_143883" data-name="Trazado 143883" d="M480.99,261.971l1.54,8.481,7.748-1.407a4.31,4.31,0,0,0,3.47-5.01h0a4.31,4.31,0,0,0-5.01-3.471Z" transform="translate(-469.702 -260.494)" fill="#50bfa5"/>
          <path id="Trazado_143884" data-name="Trazado 143884" d="M455.15,279.773l-11.989,2.177a4.31,4.31,0,0,0,5.01,3.471l7.748-1.407Z" transform="translate(-443.091 -274.056)" fill="#9bc1f9" opacity="0.3" style="mix-blend-mode: multiply;isolation: isolate"/>
          <path id="Trazado_143885" data-name="Trazado 143885" d="M495.575,272.433l-11.988,2.177.77,4.24,7.748-1.407A4.31,4.31,0,0,0,495.575,272.433Z" transform="translate(-471.528 -268.892)" fill="#f47458" opacity="0.3" style="mix-blend-mode: multiply;isolation: isolate"/>
        </g>
        <g id="Grupo_72644" data-name="Grupo 72644" transform="translate(62.816 77.398)">
          <path id="Trazado_143886" data-name="Trazado 143886" d="M466.568,330.717l-7.748,1.407a4.31,4.31,0,0,0-3.47,5.01h0a4.31,4.31,0,0,0,5.01,3.47l7.748-1.407Z" transform="translate(-455.28 -329.24)" fill="#fae0b2"/>
          <path id="Trazado_143887" data-name="Trazado 143887" d="M493.346,327.214l1.54,8.481,7.748-1.407a4.31,4.31,0,0,0,3.47-5.01h0a4.31,4.31,0,0,0-5.01-3.47Z" transform="translate(-482.057 -325.737)" fill="#50bfa5"/>
          <path id="Trazado_143888" data-name="Trazado 143888" d="M467.5,345.015l-11.989,2.177a4.31,4.31,0,0,0,5.01,3.47l7.748-1.407Z" transform="translate(-455.446 -339.298)" fill="#9bc1f9" opacity="0.3" style="mix-blend-mode: multiply;isolation: isolate"/>
          <path id="Trazado_143889" data-name="Trazado 143889" d="M507.93,337.675l-11.989,2.177.77,4.24,7.748-1.407A4.31,4.31,0,0,0,507.93,337.675Z" transform="translate(-483.883 -334.135)" fill="#f47458" opacity="0.3" style="mix-blend-mode: multiply;isolation: isolate"/>
        </g>
        <g id="Grupo_72645" data-name="Grupo 72645" transform="translate(66.48 96.746)">
          <path id="Trazado_143890" data-name="Trazado 143890" d="M478.924,395.959l-7.748,1.407a4.31,4.31,0,0,0-3.47,5.01h0a4.309,4.309,0,0,0,5.01,3.47l7.748-1.407Z" transform="translate(-467.636 -394.482)" fill="#fae0b2"/>
          <path id="Trazado_143891" data-name="Trazado 143891" d="M505.7,392.456l1.54,8.481,7.748-1.407a4.31,4.31,0,0,0,3.47-5.01h0a4.31,4.31,0,0,0-5.01-3.47Z" transform="translate(-494.413 -390.979)" fill="#50bfa5"/>
          <path id="Trazado_143892" data-name="Trazado 143892" d="M479.86,410.257l-11.988,2.177a4.309,4.309,0,0,0,5.01,3.47l7.748-1.407Z" transform="translate(-467.802 -404.54)" fill="#9bc1f9" opacity="0.3" style="mix-blend-mode: multiply;isolation: isolate"/>
          <path id="Trazado_143893" data-name="Trazado 143893" d="M520.286,402.917,508.3,405.094l.77,4.24,7.748-1.407A4.31,4.31,0,0,0,520.286,402.917Z" transform="translate(-496.239 -399.377)" fill="#f47458" opacity="0.3" style="mix-blend-mode: multiply;isolation: isolate"/>
        </g>
        <g id="Grupo_72646" data-name="Grupo 72646" transform="translate(70.144 116.094)">
          <path id="Trazado_143894" data-name="Trazado 143894" d="M491.279,461.2l-7.748,1.407a4.31,4.31,0,0,0-3.47,5.01h0a4.309,4.309,0,0,0,5.01,3.47l7.748-1.407Z" transform="translate(-479.991 -459.724)" fill="#fae0b2"/>
          <path id="Trazado_143895" data-name="Trazado 143895" d="M518.056,457.7l1.54,8.481,7.748-1.407a4.31,4.31,0,0,0,3.47-5.01h0a4.309,4.309,0,0,0-5.01-3.47Z" transform="translate(-506.768 -456.221)" fill="#50bfa5"/>
          <path id="Trazado_143896" data-name="Trazado 143896" d="M492.216,475.5l-11.989,2.177a4.309,4.309,0,0,0,5.01,3.47l7.748-1.407Z" transform="translate(-480.157 -469.783)" fill="#9bc1f9" opacity="0.3" style="mix-blend-mode: multiply;isolation: isolate"/>
          <path id="Trazado_143897" data-name="Trazado 143897" d="M532.641,468.159l-11.988,2.177.77,4.24,7.748-1.407A4.31,4.31,0,0,0,532.641,468.159Z" transform="translate(-508.594 -464.619)" fill="#f47458" opacity="0.3" style="mix-blend-mode: multiply;isolation: isolate"/>
        </g>
        <g id="Grupo_72647" data-name="Grupo 72647" transform="translate(11.204 26.934)">
          <path id="Trazado_143898" data-name="Trazado 143898" d="M319.016,157.176l7.726-1.523a4.31,4.31,0,0,1,5.062,3.394h0a4.31,4.31,0,0,1-3.394,5.062l-7.726,1.524Z" transform="translate(-307.813 -155.571)" fill="#fae0b2"/>
          <path id="Trazado_143899" data-name="Trazado 143899" d="M292.442,160.985l1.668,8.457-7.726,1.523a4.31,4.31,0,0,1-5.062-3.394h0a4.309,4.309,0,0,1,3.394-5.062Z" transform="translate(-281.24 -159.379)" fill="#50bfa5"/>
          <path id="Trazado_143900" data-name="Trazado 143900" d="M321.828,169.651l11.954-2.357a4.31,4.31,0,0,1-3.394,5.062l-7.726,1.524Z" transform="translate(-309.791 -163.817)" fill="#9bc1f9" opacity="0.3" style="mix-blend-mode: multiply;isolation: isolate"/>
          <path id="Trazado_143901" data-name="Trazado 143901" d="M281.517,177.6l11.954-2.357.834,4.228-7.726,1.523A4.31,4.31,0,0,1,281.517,177.6Z" transform="translate(-281.435 -169.409)" fill="#f47458" opacity="0.3" style="mix-blend-mode: multiply;isolation: isolate"/>
        </g>
        <g id="Grupo_72648" data-name="Grupo 72648" transform="translate(14.868 46.282)">
          <path id="Trazado_143902" data-name="Trazado 143902" d="M331.372,222.418l7.726-1.524a4.31,4.31,0,0,1,5.062,3.395h0a4.31,4.31,0,0,1-3.395,5.062l-7.726,1.524Z" transform="translate(-320.169 -220.812)" fill="#fae0b2"/>
          <path id="Trazado_143903" data-name="Trazado 143903" d="M304.8,226.227l1.668,8.457-7.726,1.523a4.309,4.309,0,0,1-5.062-3.394h0a4.309,4.309,0,0,1,3.394-5.062Z" transform="translate(-293.596 -224.621)" fill="#50bfa5"/>
          <path id="Trazado_143904" data-name="Trazado 143904" d="M334.183,234.893l11.954-2.357a4.31,4.31,0,0,1-3.395,5.062l-7.726,1.524Z" transform="translate(-322.147 -229.059)" fill="#9bc1f9" opacity="0.3" style="mix-blend-mode: multiply;isolation: isolate"/>
          <path id="Trazado_143905" data-name="Trazado 143905" d="M293.873,242.842l11.954-2.357.834,4.228-7.726,1.523A4.309,4.309,0,0,1,293.873,242.842Z" transform="translate(-293.791 -234.651)" fill="#f47458" opacity="0.3" style="mix-blend-mode: multiply;isolation: isolate"/>
        </g>
        <g id="Grupo_72649" data-name="Grupo 72649" transform="translate(18.532 65.63)">
          <path id="Trazado_143906" data-name="Trazado 143906" d="M343.727,287.66l7.726-1.523a4.309,4.309,0,0,1,5.062,3.394h0a4.309,4.309,0,0,1-3.395,5.062l-7.726,1.524Z" transform="translate(-332.524 -286.055)" fill="#fae0b2"/>
          <path id="Trazado_143907" data-name="Trazado 143907" d="M317.153,291.469l1.668,8.457-7.726,1.523a4.309,4.309,0,0,1-5.062-3.394h0a4.309,4.309,0,0,1,3.394-5.062Z" transform="translate(-305.951 -289.863)" fill="#50bfa5"/>
          <path id="Trazado_143908" data-name="Trazado 143908" d="M346.538,300.135l11.954-2.357a4.309,4.309,0,0,1-3.395,5.062l-7.726,1.524Z" transform="translate(-334.502 -294.301)" fill="#9bc1f9" opacity="0.3" style="mix-blend-mode: multiply;isolation: isolate"/>
          <path id="Trazado_143909" data-name="Trazado 143909" d="M306.228,308.084l11.954-2.357.834,4.228-7.726,1.523A4.309,4.309,0,0,1,306.228,308.084Z" transform="translate(-306.146 -299.893)" fill="#f47458" opacity="0.3" style="mix-blend-mode: multiply;isolation: isolate"/>
        </g>
        <g id="Grupo_72650" data-name="Grupo 72650" transform="translate(22.196 84.978)">
          <path id="Trazado_143910" data-name="Trazado 143910" d="M356.082,352.9l7.726-1.523a4.309,4.309,0,0,1,5.062,3.394h0a4.31,4.31,0,0,1-3.394,5.062l-7.726,1.524Z" transform="translate(-344.879 -351.297)" fill="#fae0b2"/>
          <path id="Trazado_143911" data-name="Trazado 143911" d="M329.508,356.711l1.668,8.457-7.726,1.523a4.31,4.31,0,0,1-5.062-3.394h0a4.31,4.31,0,0,1,3.394-5.062Z" transform="translate(-318.306 -355.105)" fill="#50bfa5"/>
          <path id="Trazado_143912" data-name="Trazado 143912" d="M358.894,365.377l11.954-2.357a4.31,4.31,0,0,1-3.394,5.062l-7.726,1.524Z" transform="translate(-346.857 -359.543)" fill="#9bc1f9" opacity="0.3" style="mix-blend-mode: multiply;isolation: isolate"/>
          <path id="Trazado_143913" data-name="Trazado 143913" d="M318.583,373.326l11.954-2.357.834,4.228-7.726,1.523A4.31,4.31,0,0,1,318.583,373.326Z" transform="translate(-318.501 -365.135)" fill="#f47458" opacity="0.3" style="mix-blend-mode: multiply;isolation: isolate"/>
        </g>
        <g id="Grupo_72651" data-name="Grupo 72651" transform="translate(25.86 104.326)">
          <path id="Trazado_143914" data-name="Trazado 143914" d="M368.438,418.144l7.726-1.523a4.309,4.309,0,0,1,5.062,3.394h0a4.31,4.31,0,0,1-3.394,5.062l-7.726,1.523Z" transform="translate(-357.235 -416.539)" fill="#fae0b2"/>
          <path id="Trazado_143915" data-name="Trazado 143915" d="M341.864,421.953l1.668,8.457-7.726,1.523a4.309,4.309,0,0,1-5.062-3.394h0a4.31,4.31,0,0,1,3.394-5.062Z" transform="translate(-330.661 -420.347)" fill="#f47458"/>
          <path id="Trazado_143916" data-name="Trazado 143916" d="M371.249,430.619l11.954-2.357a4.31,4.31,0,0,1-3.394,5.062l-7.726,1.523Z" transform="translate(-359.212 -424.785)" fill="#9bc1f9" opacity="0.3" style="mix-blend-mode: multiply;isolation: isolate"/>
          <path id="Trazado_143917" data-name="Trazado 143917" d="M330.939,438.568l11.954-2.357.834,4.228L336,441.963A4.309,4.309,0,0,1,330.939,438.568Z" transform="translate(-330.856 -430.377)" fill="#f47458" opacity="0.3" style="mix-blend-mode: multiply;isolation: isolate"/>
        </g>
        <g id="Grupo_72652" data-name="Grupo 72652" transform="translate(29.524 123.674)">
          <path id="Trazado_143918" data-name="Trazado 143918" d="M380.793,483.386l7.726-1.523a4.31,4.31,0,0,1,5.062,3.394h0a4.31,4.31,0,0,1-3.395,5.062l-7.726,1.524Z" transform="translate(-369.59 -481.781)" fill="#fae0b2"/>
          <path id="Trazado_143919" data-name="Trazado 143919" d="M354.219,487.2l1.668,8.457-7.726,1.523a4.31,4.31,0,0,1-5.062-3.394h0a4.31,4.31,0,0,1,3.394-5.062Z" transform="translate(-343.017 -485.589)" fill="#f47458"/>
          <path id="Trazado_143920" data-name="Trazado 143920" d="M383.6,495.861l11.954-2.357a4.31,4.31,0,0,1-3.395,5.062l-7.726,1.524Z" transform="translate(-371.568 -490.027)" fill="#9bc1f9" opacity="0.3" style="mix-blend-mode: multiply;isolation: isolate"/>
          <path id="Trazado_143921" data-name="Trazado 143921" d="M343.294,503.81l11.954-2.357.834,4.228-7.726,1.523A4.31,4.31,0,0,1,343.294,503.81Z" transform="translate(-343.212 -495.619)" fill="#f47458" opacity="0.3" style="mix-blend-mode: multiply;isolation: isolate"/>
        </g>
      </g>
      <g id="Grupo_72656" data-name="Grupo 72656" transform="translate(0 38.427)">
        <g id="Grupo_72655" data-name="Grupo 72655">
          <path id="Trazado_143922" data-name="Trazado 143922" d="M90.241,195.444l-22.282,19.13a4.634,4.634,0,0,0-.5,6.534l12.027,14.008a4.634,4.634,0,0,0,6.534.5L108.3,216.483a4.633,4.633,0,0,0,.5-6.534L96.775,195.941A4.633,4.633,0,0,0,90.241,195.444Z" transform="translate(-66.343 -194.325)" fill="#f47458"/>
          <path id="Trazado_143923" data-name="Trazado 143923" d="M97,288.213h0a1.246,1.246,0,0,1-1.757-.134L83.671,274.605a1.246,1.246,0,0,1,.134-1.757h0a1.246,1.246,0,0,1,1.757.134l11.569,13.475A1.246,1.246,0,0,1,97,288.213Z" transform="translate(-78.321 -249.35)" fill="#b75742"/>
          <path id="Trazado_143924" data-name="Trazado 143924" d="M114.136,273.5h0a1.246,1.246,0,0,1-1.757-.133L100.81,259.89a1.246,1.246,0,0,1,.134-1.757h0a1.246,1.246,0,0,1,1.757.134l11.569,13.475A1.246,1.246,0,0,1,114.136,273.5Z" transform="translate(-90.377 -238.999)" fill="#b75742"/>
          <path id="Trazado_143925" data-name="Trazado 143925" d="M131.275,258.784h0a1.246,1.246,0,0,1-1.757-.133l-11.569-13.475a1.246,1.246,0,0,1,.134-1.757h0a1.247,1.247,0,0,1,1.757.134l11.569,13.475A1.246,1.246,0,0,1,131.275,258.784Z" transform="translate(-102.433 -228.648)" fill="#b75742"/>
          <path id="Trazado_143926" data-name="Trazado 143926" d="M148.414,244.069h0a1.247,1.247,0,0,1-1.758-.134l-11.569-13.475a1.246,1.246,0,0,1,.134-1.757h0a1.246,1.246,0,0,1,1.757.134l11.569,13.475A1.246,1.246,0,0,1,148.414,244.069Z" transform="translate(-114.489 -218.297)" fill="#b75742"/>
          <path id="Trazado_143927" data-name="Trazado 143927" d="M165.552,229.354h0a1.246,1.246,0,0,1-1.757-.134l-11.569-13.475a1.246,1.246,0,0,1,.134-1.757h0a1.246,1.246,0,0,1,1.757.134L165.686,227.6A1.246,1.246,0,0,1,165.552,229.354Z" transform="translate(-126.545 -207.946)" fill="#b75742"/>
          <path id="Trazado_143928" data-name="Trazado 143928" d="M347.224,481.461l-41.953,36.02a1.705,1.705,0,0,1-2.405-.183l-.67-.781a1.706,1.706,0,0,1,.183-2.405l41.953-36.02a1.706,1.706,0,0,1,2.405.183l.67.781A1.705,1.705,0,0,1,347.224,481.461Z" transform="translate(-231.963 -393.65)" fill="#fae0b2"/>
          <path id="Trazado_143929" data-name="Trazado 143929" d="M132.81,228.445l-2.63,2.258-2.45-2.854a1.4,1.4,0,0,1,.15-1.977h0a1.4,1.4,0,0,0,.151-1.977l-3.816-4.444a1.4,1.4,0,0,0-1.977-.151L81.223,254.514a1.4,1.4,0,0,0-.151,1.977l3.816,4.444a1.4,1.4,0,0,0,1.977.151,1.4,1.4,0,0,1,1.977.15l2.45,2.854-2.63,2.258A10.321,10.321,0,0,0,87.556,280.9l45.21,52.657a10.321,10.321,0,0,0,14.554,1.108l44.147-37.9a10.321,10.321,0,0,0,1.107-14.554l-45.21-52.657A10.321,10.321,0,0,0,132.81,228.445Z" transform="translate(-76.466 -211.655)" fill="#f7cc7f"/>
          <path id="Trazado_143930" data-name="Trazado 143930" d="M215.05,329.641l-39.985,34.33a5.429,5.429,0,0,1-7.657-.582l-18.3-21.31a5.43,5.43,0,0,1,.583-7.657l39.985-34.331a5.43,5.43,0,0,1,7.657.583l18.3,21.31A5.43,5.43,0,0,1,215.05,329.641Z" transform="translate(-123.644 -267.804)" fill="#fff"/>
          <g id="Grupo_72654" data-name="Grupo 72654" transform="translate(29.373 53.902)">
            <path id="Trazado_143931" data-name="Trazado 143931" d="M185.493,431.617l-1.78,1.528-5.207-1.743a10.3,10.3,0,0,0-1.3-.361,4.287,4.287,0,0,0-1.058-.089,2.577,2.577,0,0,0-.9.21,3.38,3.38,0,0,0-.84.543l-1.228,1.054,4.66,5.428-1.495,1.284-10.955-12.76,3.809-3.27a7.146,7.146,0,0,1,1.723-1.116,4.552,4.552,0,0,1,1.774-.418,3.9,3.9,0,0,1,1.727.364A4.645,4.645,0,0,1,176,423.509a4.73,4.73,0,0,1,.85,1.4,4.213,4.213,0,0,1,.283,1.481,4.551,4.551,0,0,1-.252,1.507,5.994,5.994,0,0,1-.761,1.481l.031.036a3.534,3.534,0,0,1,.835-.153,4.033,4.033,0,0,1,.82.046,7.563,7.563,0,0,1,.908.2q.48.137,1.1.333Zm-17.446-4.837,3.973,4.627,2.029-1.742a4.057,4.057,0,0,0,.891-1.059,3.158,3.158,0,0,0,.407-1.192,2.894,2.894,0,0,0-.122-1.24,3.412,3.412,0,0,0-.687-1.2,2.637,2.637,0,0,0-2.034-1.028,3.754,3.754,0,0,0-2.41,1.072Z" transform="translate(-165.39 -408.317)" fill="#b75742"/>
            <path id="Trazado_143932" data-name="Trazado 143932" d="M225.254,388.8l-1.824,1.566L216.3,388a5.762,5.762,0,0,1-.836-.38l-.036.031q.087.282.24.892l1.169,7.482L215,397.6l-1.237-10.083-9.38-2.968,1.833-1.574,6.457,2.246a11.913,11.913,0,0,1,1.218.5l.036-.031a12.941,12.941,0,0,1-.3-1.353l-1.106-6.779,1.717-1.474,1.419,9.772Z" transform="translate(-192.822 -376.085)" fill="#b75742"/>
          </g>
          <rect id="Rectángulo_32353" data-name="Rectángulo 32353" width="23.863" height="1.632" transform="matrix(-0.76, 0.65, -0.65, -0.76, 71.832, 38.049)" fill="#9bc1f9"/>
          <rect id="Rectángulo_32354" data-name="Rectángulo 32354" width="23.863" height="1.632" transform="translate(77.114 44.201) rotate(139.455)" fill="#9bc1f9"/>
          <rect id="Rectángulo_32355" data-name="Rectángulo 32355" width="23.863" height="1.632" transform="translate(82.396 50.354) rotate(139.455)" fill="#9bc1f9"/>
          <rect id="Rectángulo_32356" data-name="Rectángulo 32356" width="54.547" height="1.632" transform="matrix(-0.76, 0.65, -0.65, -0.76, 87.679, 56.506)" fill="#9bc1f9"/>
          <path id="Trazado_143933" data-name="Trazado 143933" d="M86.329,261.372l41.915-35.987a1.4,1.4,0,0,0-.213-1.49l-3.816-4.444a1.4,1.4,0,0,0-1.977-.151L81.223,254.514a1.4,1.4,0,0,0-.151,1.977l3.816,4.444A1.4,1.4,0,0,0,86.329,261.372Z" transform="translate(-76.466 -211.655)" fill="#fae0b2"/>
        </g>
        <path id="Trazado_143934" data-name="Trazado 143934" d="M181.774,228.445l-2.63,2.258-2.45-2.854a1.4,1.4,0,0,1,.15-1.977h0a1.4,1.4,0,0,0,.151-1.977l-3.816-4.444a1.4,1.4,0,0,0-1.977-.151l-20.862,17.912L218,316.02l22.428-19.256a10.321,10.321,0,0,0,1.107-14.554l-45.21-52.657A10.321,10.321,0,0,0,181.774,228.445Z" transform="translate(-125.43 -211.655)" fill="#f7cc7f" opacity="0.5" style="mix-blend-mode: multiply;isolation: isolate"/>
      </g>
    </g>
    <path id="Trazado_143936" data-name="Trazado 143936" d="M1430.453,832.472c-.6-1.279,5.742-3.021,5.946-4.4s-8.3-.6-8.725-1.749c-.786-2.114,9.261-1.423,8.961-2.419s-10.625-2.219-9.715-4.076,10.574,2.385,10.728,1.174-9.342-3.136-9.447-5.747c-.056-1.4,15.812,5.347,17.474,4.413s-2.626-7.075-1.341-8.185,6.854,11.731,7.86,12.106,22.777,6.957,30.181,8.049c.625-2.507,6.192-16.3,6.728-18.667,4.347,2.461,9.886-.5,14.336,1.692-2.24,7.9-7.269,33.913-9.278,35.084-6.119,3.567-38.313-13.439-43.635-16.449s-8.047-1.575-11.516-2.341S1431.054,833.751,1430.453,832.472Z" transform="translate(-957.05 -570.786)" fill="#f7a491"/>
    <path id="Trazado_143937" data-name="Trazado 143937" d="M890.964,561.335c1.675-15.827-7.345-30.436-22.2-34.76a33.382,33.382,0,0,0-12.01-22.732c-13.331-10.683-36.484-14.9-43.863,1.184-11.116,7.721-18.949,22.8-14.134,35.32-10.242,12.738-3.783,33.256,13.861,41.467,1.052,13.022,9.372,25.228,21.533,29.607,2.919,1.051,7.463,2.468,8.073,2.989-.794-.6,11.1,23.876,38.861,9.312C909.422,608.861,911.781,574.866,890.964,561.335Z" transform="translate(-511.78 -347.758)" fill="#355389"/>
    <path id="Trazado_143938" data-name="Trazado 143938" d="M1083.211,874.376c.856-1.324-5.911-4.364-5.932-5.937s9.28.764,9.923-.443c1.184-2.223-10.045-3.19-9.565-4.249s12.1-.638,11.364-2.868-12.064.833-12.054-.546,10.812-1.884,11.315-4.779c.269-1.547-18.305,3.232-20.007,1.9s3.959-7.441,2.7-8.9-9.344,12.992-10.513,13.236-26.356,7.095-34.719,7.032c-.32-2.906-3.821-18.789-4.062-21.521-5.179,1.994-10.471,1.329-15.725,3.006,1.307,9.2,7.745,32.707,9.8,34.362,6.247,5.039,38.787-10.4,45.127-12.842s9.145-.365,13.1-.62S1082.356,875.7,1083.211,874.376Z" transform="translate(-660.951 -596.028)" fill="#f48c7f"/>
    <path id="Trazado_143939" data-name="Trazado 143939" d="M971.273,729.207c14.274,4.84,20.972,39.021,20.972,39.021s-22.4,6.252-28.133,2.973c0,0-6.513-28.869-8.847-27.86Z" transform="translate(-625.307 -512.957)" fill="#ff9d00"/>
    <path id="Trazado_143940" data-name="Trazado 143940" d="M843.643,816.062h52.3c.505-6.125,2.751-51.976,2.941-55.147.506-22.194-2.417-40.228-7.9-42.542a166.686,166.686,0,0,0-15.956-5.14h0c-5.944-.042-24.2,2.98-32.431,4.737-1.489.318-2.89,7.542-2.89,7.542L841.5,751.7C849.3,788.261,844.889,810.9,843.643,816.062Z" transform="translate(-544.02 -501.719)" fill="#ff9d00"/>
    <path id="Trazado_143941" data-name="Trazado 143941" d="M904.863,649.908s2.542,13.148,2.033,18.333,1.938,21.9,12.916,21.955,2.084-21.25,1.05-26.331-1.279-20.813-1.279-20.813Z" transform="translate(-589.852 -452.351)" fill="#f7a491"/>
    <path id="Trazado_143942" data-name="Trazado 143942" d="M919.81,650.944c-.171-4.3-.227-7.893-.227-7.893l-14.72,6.857s.52,2.689,1.042,6.114C912.348,657.317,917.018,654.932,919.81,650.944Z" transform="translate(-589.852 -452.351)" fill="#f47458"/>
    <path id="Trazado_143943" data-name="Trazado 143943" d="M890.087,536.736a18.236,18.236,0,0,0-10.494,7.016c-4.119,5.818-7.429,23.264,5.137,31.915s22.984-2.572,23.556-13.863S906.979,535.349,890.087,536.736Z" transform="translate(-569.468 -377.502)" fill="#f7a491"/>
    <path id="Trazado_143944" data-name="Trazado 143944" d="M980.315,595c-1.2,2.686-3.433,4.3-5,3.6s-1.865-3.439-.669-6.125,3.433-4.3,5-3.6S981.51,592.311,980.315,595Z" transform="translate(-638.427 -414.125)" fill="#f7a491"/>
    <path id="Trazado_143945" data-name="Trazado 143945" d="M875.139,535.881s-8.713,17.793-15.854,19.153S851.92,565.5,851.92,565.5s.914-21.007,7.725-25.587S875.139,535.881,875.139,535.881Z" transform="translate(-552.609 -376.948)" fill="#355389"/>
    <path id="Trazado_143946" data-name="Trazado 143946" d="M867.84,602.948c.826,2.97-.131,5.831-2.138,6.39s-4.305-1.4-5.132-4.366.13-5.831,2.138-6.39S867.014,599.977,867.84,602.948Z" transform="translate(-558.485 -421.002)" fill="#f7a491"/>
    <path id="Trazado_143947" data-name="Trazado 143947" d="M829.9,728.79c-12.187,7.637-15.4,42.242-15.4,42.242s23.13,2.366,28.23-1.838c0,0-1.929-29.61.542-29.011Z" transform="translate(-526.289 -512.663)" fill="#ff9d00"/>
    <path id="Trazado_143948" data-name="Trazado 143948" d="M937.02,643.051l-9.948,1.1a4.419,4.419,0,0,0,5.045,3.467C937.468,647.184,937.02,643.051,937.02,643.051Z" transform="translate(-605.475 -452.351)" fill="#fff"/>
    <path id="Trazado_143949" data-name="Trazado 143949" d="M617.575,763.815s-19.719-11.946-26.167-21.167,3.525-3.718,12.931-7.106c3.562-1.283.789-22.567,8.282-16.22,12.293,10.414,23.489,32.241,23.489,32.241Z" transform="translate(-367.91 -505.174)" fill="#d66350"/>
    <path id="Trazado_143950" data-name="Trazado 143950" d="M554.928,597.126s-.052.594-.151,1.6c-.474,4.85-2.517,20.978-4.447,25.53-2.333,5.5,11.454,21.209,23.148,18.134,3.481-.916-4.322-15.156-4.145-16.751.34-3.054.8-7.22,1.268-11.491.264-2.409.532-4.853.783-7.148.714-6.525,1.3-11.861,1.3-11.861Z" transform="translate(-340.274 -418.65)" fill="#f7a491"/>
    <path id="Trazado_143951" data-name="Trazado 143951" d="M538.794,803.472c-.337-19.118-1.009-51.863-1.746-57.378-1.052-7.872-12.512-39.477-15.228-42.738s-27.462-7.6-27.462-7.6-21.034-3.27-30.184,8.48c-5.345,6.863-4.429,68.356-3.617,99.239Z" transform="translate(-276.87 -489.13)" fill="#00bcd4"/>
    <g id="Grupo_72658" data-name="Grupo 72658" transform="translate(244.851 198.412)">
      <path id="Trazado_143952" data-name="Trazado 143952" d="M697.523,669.923A10.3,10.3,0,0,1,710,673.313c5.511,6.831,2.9,6.417,5.59,9.839s8.567,2,9.2,7.7-1.928,6.89-1.928,6.89a9.773,9.773,0,0,1,.75,9.031c-2.154,4.861-8.355,9.533-13.981,9.518,0,0-7.835,5.506-16.445,4.278s-5.693-1.553-9.116-1.171-13.2-3.278-12.445-10.294c0,0-6.387-6.071-1.525-12.153s5.277-11.757,7.627-19.464S693.521,668.572,697.523,669.923Z" transform="translate(-668.279 -669.057)" fill="#184655"/>
    </g>
    <path id="Trazado_143953" data-name="Trazado 143953" d="M565.008,601.443c.1-1.011.151-1.6.151-1.6l17.75-1.983s-.581,5.336-1.3,11.861c-.25,2.283-.516,4.712-.779,7.108a16.735,16.735,0,0,1-8.861-3.514,22.477,22.477,0,0,1-7.26-8.992C564.836,603.178,564.935,602.195,565.008,601.443Z" transform="translate(-350.576 -420.558)" fill="#f47458"/>
    <path id="Trazado_143954" data-name="Trazado 143954" d="M722.808,827.895l-8.582,4.381,2.267,16.382,9.6.571Z" transform="translate(-455.75 -582.378)" fill="#89a6e5"/>
    <path id="Trazado_143955" data-name="Trazado 143955" d="M761.775,787.522s1.182,10.1.314,11.129-2.059,2.724-.452,5.018,7.543.227,10.251-1.4a13.42,13.42,0,0,0,4.138-4.182l-2.8-15.911Z" transform="translate(-488.542 -550.218)" fill="#f7a491"/>
    <path id="Trazado_143956" data-name="Trazado 143956" d="M758.674,896.721a47.1,47.1,0,0,0-1.791-17.93c-4.067-12.813-5.559-20.59-5.971-25.344-5.021-19.932-10.336-25.44-10.336-25.44-4.447-.034-12.551.492-12.551.492s-8.569-.572-13.927-.6c-3.037-.018-13.912,53.14-12.038,68.826Z" transform="translate(-447.04 -582.378)" fill="#9bc1f9"/>
    <path id="Trazado_143957" data-name="Trazado 143957" d="M777.028,791.236l-1.6-9.059-11.446,5.345a18.031,18.031,0,0,1,.276,2.776C764.319,791.175,770.476,794.637,777.028,791.236Z" transform="translate(-490.752 -550.218)" fill="#f47458"/>
    <path id="Trazado_143958" data-name="Trazado 143958" d="M529.763,876.409l19.835-4.031s4.775,16.412,5.69,18.184c0,0,37.29-.428,52.025-2.215l5.387,10.679c-2.85.422-5.245.552-6.627.819-2.714.523-45.865,9.428-45.865,9.428s-17.386,2.8-19.383.276S529.763,876.409,529.763,876.409Z" transform="translate(-325.99 -613.669)" fill="#f7a491"/>
    <path id="Trazado_143959" data-name="Trazado 143959" d="M481.184,775.249s-22.127-40.74-23.5-52.622,9.513-25.8,19.955-24.013,28.086,63.7,28.086,63.7Z" transform="translate(-275.204 -491.327)" fill="#04a3af"/>
    <path id="Trazado_143960" data-name="Trazado 143960" d="M725.448,743.915s-.948-5.9-4.466-4.345.26,10.209,3.25,9.578S725.448,743.915,725.448,743.915Z" transform="translate(-459.505 -520.062)" fill="#f7a491"/>
    <path id="Trazado_143961" data-name="Trazado 143961" d="M740.242,685.013s5.691-.763,9.1,3.35,7.995,16.439,4.152,25.725S743.265,721.9,740.63,721.3s-7.862-2.012-11.31-9.907S725.66,684.906,740.242,685.013Z" transform="translate(-465.002 -481.829)" fill="#f7a491"/>
    <g id="Grupo_72660" data-name="Grupo 72660" transform="translate(199.909 126.553)">
      <g id="Grupo_72659" data-name="Grupo 72659">
        <path id="Trazado_143962" data-name="Trazado 143962" d="M564.535,472.059c-.514-.29-9.112,27.579-3.13,36.64s19.756,14,25.882,8.669c6.775-5.894,11.6-36.583,1.616-46.543S564.535,472.059,564.535,472.059Z" transform="translate(-546.675 -454.848)" fill="#f7a491"/>
        <path id="Trazado_143963" data-name="Trazado 143963" d="M557.19,426.747a31.912,31.912,0,0,0-18.092,6.666c-4.056-.194-9.829,1.1-16.955,9.415-8.761,10.221-5.792,23.659,1.169,31.171s7.113,13.789,7.113,13.789,2.7-8.183,2.877-11.168a17.212,17.212,0,0,0-.421-5.443c-1.234-4.447,5.275-6.179,7.543-9.328,1.747-2.426,2.82-8.462,5.607-12.488l3.014-2.925s6.407-3.467,11.747-1.3S568.812,426.331,557.19,426.747Z" transform="translate(-516.732 -426.741)" fill="#0e2e35"/>
        <path id="Trazado_143964" data-name="Trazado 143964" d="M574.923,545.695c-.522,3.488-2.579,6.072-4.593,5.771s-3.223-3.372-2.7-6.86,2.579-6.072,4.593-5.771S575.445,542.207,574.923,545.695Z" transform="translate(-552.45 -505.576)" fill="#f7a491"/>
      </g>
      <path id="Trazado_143965" data-name="Trazado 143965" d="M627.886,595.786l11.083,1.264s-.735,4.18-5.626,3.765C627.381,600.309,627.886,595.786,627.886,595.786Z" transform="translate(-594.915 -545.655)" fill="#fff"/>
    </g>
    <g id="Grupo_72661" data-name="Grupo 72661" transform="translate(252.487 287.644)">
      <rect id="Rectángulo_32357" data-name="Rectángulo 32357" width="7.714" height="17.522" transform="translate(3.002 8.591) rotate(-53.654)" fill="#466eb6"/>
      <path id="Trazado_143966" data-name="Trazado 143966" d="M699.8,969.951l-.571.2.034.336-.38.135.034.336-.38.135.034.336-.38.135.034.336-.38.135.034.336-.38.135.034.336-.38.135.034.336-.38.135.034.336-.38.135.034.336-.38.135.034.336-.38.135.034.336-.38.135.034.336-.38.135.034.336-.38.135.034.336-.38.135.034.336-.38.135.055.544-.017.023h.019l0,.016.046-.016,1.835-.026,1.063.782,4.572-6.213-1.063-.782-.72-1.58-.017.024Z" transform="translate(-694.03 -969.951)" fill="#13375b"/>
      <path id="Trazado_143967" data-name="Trazado 143967" d="M759.089,1013.976l-1.777-.258-1-.732-4.572,6.214,1,.732.574,1.8v.05l.016,0,.006.019.017-.024.549-.1.007-.409.339-.062.007-.409.339-.062.007-.409.339-.062.007-.409.339-.062.007-.409.339-.062.007-.409.339-.062.007-.409.339-.062.007-.409.339-.062.007-.409.339-.062.007-.409.339-.062.007-.409.339-.062.007-.409.339-.062.007-.409.339-.062.007-.409.339-.062.007-.409.339-.062.011-.615-.039.007Z" transform="translate(-734.629 -1000.223)" fill="#13375b"/>
      <rect id="Rectángulo_32358" data-name="Rectángulo 32358" width="4.455" height="13.605" transform="translate(5.528 8.427) rotate(-53.653)" fill="#50bfa5"/>
      <path id="Trazado_143968" data-name="Trazado 143968" d="M704.154,984.181l2.526-.163,2.64-3.588-.594-2.462Z" transform="translate(-701.151 -975.59)" fill="#355389"/>
      <path id="Trazado_143969" data-name="Trazado 143969" d="M750.252,1019.2l-.629-2.485,2.64-3.588,2.561-.141Z" transform="translate(-733.136 -1000.223)" fill="#355389"/>
    </g>
    <path id="Trazado_143970" data-name="Trazado 143970" d="M772.684,771.247l8.786-1.443a3.892,3.892,0,0,1-3.5,4.116C773.281,774.83,772.684,771.247,772.684,771.247Z" transform="translate(-496.871 -541.514)" fill="#fff"/>
    <path id="Trazado_143971" data-name="Trazado 143971" d="M818.536,890.615c-1.92,1.1-5.673,3.184-5.845,2.731-.149-.392,2.473-1.814,5.376-4.016-.316-.867-.648-1.775-.987-2.7-.74.461-1.505.82-2.156,1.238a29.228,29.228,0,0,1-3.334,2.059c-.011-.144-.573-.183.356-1.033s3.108-2.141,4.681-3.5c-.34-.928-.682-1.863-1.02-2.783-.176.17-.285.278-.285.278s-4.887,3.054-5.34,2.335c-.188-.3,2.428-2.438,4.747-5-.4-1.1-.789-2.139-1.139-3.079-.391.38-.769.739-1,.937-.763.656-3.2,2.435-3.2,2.435s-8.771,5.777-9.145,5.061-.63-2.926-.214-3.482,1.713-1.144,2.13-1.7a1.829,1.829,0,0,0-.156-2.266c-.641-.6-3.681,1.256-3.681,1.256a10.945,10.945,0,0,0-3.394,3.341,46.857,46.857,0,0,0-3.667,8.973l5.165,10.71c1.975-.4,6.108-1.241,8.969-1.908,3.88-.905,7.113-3.554,8.161-3.983a32.63,32.63,0,0,0,5.774-3.711Z" transform="translate(-509.943 -617.021)" fill="#f8a492"/>
    <path id="Trazado_143972" data-name="Trazado 143972" d="M753.556,890.14s3.372,10.129,3.531,11.365c0,0-18.13,11.618-26.352,15.944-.107.04-.214.082-.322.119-.183.063-.371.208-.57.07-.9-.619-4.14-2.463-5.568-3.2a3.047,3.047,0,0,0-1.266-.336l-2.813-.124,1.388,1.382a1.157,1.157,0,0,1,.032,1.59l-.008.009a5.359,5.359,0,0,1-1.536,1.037,6.336,6.336,0,0,0-1.929,1.677,1.567,1.567,0,0,0,.125,2.109,5.363,5.363,0,0,1,1.051,1.239c.337.823,5.312,6.487,6.742,6.094a21.809,21.809,0,0,0,4.6-3.165,6.851,6.851,0,0,1,2.436-1.519,4.38,4.38,0,0,0,.548-.243v0c6.281-2.678,27.553-11.321,27.553-11.321s9.927-4.735,10.059-6.739-6.079-20.958-6.079-20.958Z" transform="translate(-458.258 -622.668)" fill="#f48c7f"/>
    <path id="Trazado_143973" data-name="Trazado 143973" d="M835.6,853.549s-16.129,5.856-20.284,5.571c0,0-5.417-20.275-5.712-21.544-1.332-5.741,1.415-9.126,3.848-10.492C824.631,820.813,835.6,853.549,835.6,853.549Z" transform="translate(-522.601 -581.246)" fill="#89a6e5"/>
    <path id="Trazado_143974" data-name="Trazado 143974" d="M1619.374,501.085c6.925-2.967,14.676-5.976,21.776-3.455,4.472,1.588,7.913,5.144,11.181,8.584,3.583,3.772,7.39,8.064,7.479,13.266a19.019,19.019,0,0,1-1.226,6.2,35.857,35.857,0,0,1-5.392,11.049c-4.111,5.261-10.427,8.382-16.858,10.177-5.691,1.589-7.1,1.028-13.006.773-3.985-.172-10.3-6.505-12.888-9.541-4.111-4.824-3.754-25.732.584-31a22.715,22.715,0,0,1,4.615-4.006,37.029,37.029,0,0,1,3.664-2.214Z" transform="translate(-1084.155 -349.392)" fill="#13375b"/>
    <path id="Trazado_143975" data-name="Trazado 143975" d="M1662.13,813.106c-1.272-6.678-4.456-24.1-4.462-31.179-.007-8.848,8.8-62.22,1.546-68.223s-27.767-4.509-27.767-4.509-15.048,6.719-17.022,9.506-9.113,28.812-9.437,35.175c-.284,5.581,1.641,48.706,2.119,59.229Z" transform="translate(-1082.331 -498.764)" fill="#94dcf0"/>
    <path id="Trazado_143976" data-name="Trazado 143976" d="M1679.729,635.755s.084.471.234,1.272c.721,3.843,3.5,16.592,5.371,20.1,2.265,4.236-7.756,17.744-17.4,16.1-2.872-.491,2.318-12.954,2.063-14.217-.488-2.417-1.039-5.173-1.716-8.554-.382-1.907-.768-3.842-1.131-5.659-1.031-5.166-1.873-9.39-1.873-9.39Z" transform="translate(-1124.76 -446.968)" fill="#f7a491"/>
    <path id="Trazado_143977" data-name="Trazado 143977" d="M1679.963,637.027c-.15-.8-.234-1.272-.234-1.272l-14.454-.356s.842,4.225,1.873,9.39l1.125,5.627a13.6,13.6,0,0,0,6.9-3.422,18.025,18.025,0,0,0,5.228-7.689C1680.224,638.4,1680.075,637.623,1679.963,637.027Z" transform="translate(-1124.76 -446.968)" fill="#f47458"/>
    <path id="Trazado_143978" data-name="Trazado 143978" d="M1647.882,523.242s6.813-.778,11.083,4.684,8.873,22.355-1.735,31.539-21.091-1.212-22.645-12.234S1632.427,522.845,1647.882,523.242Z" transform="translate(-1102.641 -368.045)" fill="#f7a491"/>
    <path id="Trazado_143979" data-name="Trazado 143979" d="M1678.64,516.84s9.1,16.064,15.613,16.806,7.366,9.278,7.366,9.278-2.328-19.669-8.774-23.461S1678.64,516.84,1678.64,516.84Z" transform="translate(-1134.161 -363.448)" fill="#13375b"/>
    <path id="Trazado_143980" data-name="Trazado 143980" d="M1723.494,577.185c-.6,2.839.538,5.487,2.552,5.916s4.135-1.526,4.738-4.365-.538-5.487-2.551-5.916S1724.1,574.346,1723.494,577.185Z" transform="translate(-1165.6 -402.906)" fill="#f7a491"/>
    <path id="Trazado_143981" data-name="Trazado 143981" d="M1685.84,708.656l4.767,2.421-9.925,8.776,1.64.783L1666,729.886Z" transform="translate(-1125.266 -498.5)" fill="#c5eff9"/>
    <path id="Trazado_143982" data-name="Trazado 143982" d="M1666.453,714.992l-5.609,2.99,2.3,2.219-2.9.878,1.707,13.264Z" transform="translate(-1121.218 -502.957)" fill="#c5eff9"/>
    <path id="Trazado_143983" data-name="Trazado 143983" d="M1672.373,754.964a6.337,6.337,0,0,1-4.566-.958l-1.812,7.781Z" transform="translate(-1125.266 -530.401)" fill="#13375b"/>
    <g id="Grupo_72662" data-name="Grupo 72662" transform="translate(515.452 243.757)">
      <path id="Trazado_143984" data-name="Trazado 143984" d="M1624.12,826.325l-41.41,6.058a2.278,2.278,0,0,0-1.925,2.583l8.082,55.246a2.278,2.278,0,0,0,2.584,1.924l41.41-6.058a2.278,2.278,0,0,0,1.924-2.584l-8.082-55.246A2.278,2.278,0,0,0,1624.12,826.325Z" transform="translate(-1580.761 -825.013)" fill="#184655"/>
      <path id="Trazado_143985" data-name="Trazado 143985" d="M1622.805,828.2a.462.462,0,0,1,.39-.523l17.273-2.527a.462.462,0,0,1,.524.39l.263,1.8-18.187,2.661Z" transform="translate(-1610.333 -824.198)" fill="#13375b"/>
      <path id="Trazado_143986" data-name="Trazado 143986" d="M1644.266,825.111a2.753,2.753,0,1,0,2.326-3.123A2.753,2.753,0,0,0,1644.266,825.111Zm.977-.143a1.766,1.766,0,1,1,2,1.491A1.766,1.766,0,0,1,1645.243,824.968Z" transform="translate(-1625.413 -821.959)" fill="#13375b"/>
      <path id="Trazado_143987" data-name="Trazado 143987" d="M1623.023,832.931a.461.461,0,0,0-.217.461l.263,1.8,18.187-2.661a2.276,2.276,0,0,1-1.923,2.582l-13.682,2a2.276,2.276,0,0,1-2.582-1.922l-.263-1.8A.461.461,0,0,1,1623.023,832.931Z" transform="translate(-1610.333 -829.393)" fill="#355389"/>
    </g>
    <path id="Trazado_143988" data-name="Trazado 143988" d="M1661.375,891.534l-15,1.533s.245,12.735-.013,14.2c0,0-25.658,7.112-36.381,9.042,0,0-4.883-2.767-6.858-3.647a47.9,47.9,0,0,0-8.459-1.994c-1.174-.154-.774,1.133.235,1.582s3.617,1.679,4.357,3.184a8.152,8.152,0,0,1-3.239-.268c-1.12-.5-2.664-1.556-2.688-2.1s-.28-1.869-.647-1.8c-.094.018-.219.453-.345.906-.12.431-.246.873-.351,1.308-.189.781-.406,1.921-.49,2.434-.192,1.169.523,4.4.624,5.541.184,2.092.781,3.021,1.885,3.554a27.315,27.315,0,0,0,6.449,1.3c5.1.528,9.8-.941,11.842-1.171s34.718-3.47,34.718-3.47,12.988-1.869,13.85-4.1S1661.375,891.534,1661.375,891.534Z" transform="translate(-1072.835 -627.145)" fill="#f7a491"/>
    <path id="Trazado_143989" data-name="Trazado 143989" d="M1752.275,721.017s4.736,2.245,8.9,11.944c3.956,9.216,5.118,55.212,5.118,55.212l-15.7-2.616-7.976-21.446A39.332,39.332,0,0,1,1746.687,725C1748.9,721.973,1750.931,720.147,1752.275,721.017Z" transform="translate(-1176.769 -507.043)" fill="#81b4da"/>
    <path id="Trazado_143990" data-name="Trazado 143990" d="M1671.335,621.709l-10.47,1.157a4.65,4.65,0,0,0,5.309,3.649C1671.807,626.06,1671.335,621.709,1671.335,621.709Z" transform="translate(-1121.657 -437.338)" fill="#fff"/>
    <g id="Grupo_72663" data-name="Grupo 72663" transform="translate(348.421 0.039)">
      <path id="Trazado_143991" data-name="Trazado 143991" d="M1036.612,27.774h-10.536V19.221h-8.553V8.685h8.553V.132h10.536V8.685h8.553V19.221h-8.553Zm-9.122-1.414h7.708V17.807h8.553V10.1H1035.2V1.546h-7.708V10.1h-8.553v7.708h8.553Z" transform="translate(-1017.523 -0.132)" fill="#00bcd4"/>
    </g>
    <g id="Grupo_72664" data-name="Grupo 72664" transform="translate(592.78 159.849)">
      <path id="Trazado_143992" data-name="Trazado 143992" d="M1860.6,566.662h-10.536v-8.553h-8.553V547.573h8.553V539.02H1860.6v8.553h8.553v10.536H1860.6Zm-9.122-1.414h7.708v-8.553h8.553v-7.708h-8.553v-8.553h-7.708v8.553h-8.553v7.708h8.553Z" transform="translate(-1841.514 -539.02)" fill="#00bcd4"/>
    </g>
    <g id="Grupo_72665" data-name="Grupo 72665" transform="translate(432.256 188.166)">
      <path id="Trazado_143993" data-name="Trazado 143993" d="M1315.484,656.61h-8.425v-6.84h-6.84v-8.425h6.84v-6.84h8.425v6.84h6.84v8.425h-6.84Zm-7.295-1.131h6.164v-6.84h6.84v-6.164h-6.84v-6.84h-6.164v6.84h-6.84v6.164h6.84Z" transform="translate(-1300.219 -634.505)" fill="#00bcd4"/>
    </g>
    <g id="Grupo_72666" data-name="Grupo 72666" transform="translate(381.394 89.189)">
      <path id="Trazado_143994" data-name="Trazado 143994" d="M1137.4,313.33H1132.6v-3.893h-3.893v-4.795h3.893V300.75h4.795v3.893h3.893v4.795H1137.4Zm-4.151-.644h3.508v-3.893h3.893v-3.508h-3.893v-3.893h-3.508v3.893h-3.893v3.508h3.893Z" transform="translate(-1128.709 -300.75)" fill="#f47458"/>
    </g>
    <g id="Grupo_72668" data-name="Grupo 72668" transform="translate(142.401 260.219)">
      <g id="Grupo_72667" data-name="Grupo 72667" transform="translate(0)">
        <path id="Trazado_143995" data-name="Trazado 143995" d="M339.044,899.55l-8.415.542-.44-6.832-6.832.44-.542-8.415,6.832-.44-.44-6.832,8.416-.542.44,6.832,6.832-.44.542,8.415-6.832.44Zm-7.359-.66,6.157-.4-.44-6.832,6.832-.44-.4-6.157-6.832.44-.44-6.832-6.157.4.44,6.832-6.832.44.4,6.157,6.832-.44Z" transform="translate(-322.815 -877.471)" fill="#f47458"/>
      </g>
    </g>
    <g id="Grupo_72670" data-name="Grupo 72670" transform="translate(599.854 226.818)">
      <g id="Grupo_72669" data-name="Grupo 72669">
        <path id="Trazado_143996" data-name="Trazado 143996" d="M1869.366,772.844a4,4,0,1,1,4-4A4,4,0,0,1,1869.366,772.844Zm0-6.986a2.986,2.986,0,1,0,2.986,2.986A2.989,2.989,0,0,0,1869.366,765.858Z" transform="translate(-1865.366 -764.843)" fill="#f7cc7f"/>
      </g>
    </g>
    <g id="Grupo_72672" data-name="Grupo 72672" transform="translate(283.533)">
      <g id="Grupo_72671" data-name="Grupo 72671">
        <path id="Trazado_143997" data-name="Trazado 143997" d="M804.575,11.716a5.858,5.858,0,1,1,5.858-5.858A5.865,5.865,0,0,1,804.575,11.716Zm0-10.23a4.372,4.372,0,1,0,4.372,4.372A4.377,4.377,0,0,0,804.575,1.486Z" transform="translate(-798.717)" fill="#f47458"/>
      </g>
    </g>
    <g id="Grupo_72673" data-name="Grupo 72673" transform="translate(154.329 182.893)">
      <path id="Trazado_143998" data-name="Trazado 143998" d="M366.928,624.512a3.893,3.893,0,1,1,3.893-3.893A3.9,3.9,0,0,1,366.928,624.512Zm0-6.8a2.906,2.906,0,1,0,2.906,2.906A2.909,2.909,0,0,0,366.928,617.713Z" transform="translate(-363.035 -616.725)" fill="#00bcd4"/>
    </g>
    <g id="Grupo_72675" data-name="Grupo 72675" transform="translate(207.174 64.556)">
      <g id="Grupo_72674" data-name="Grupo 72674" transform="translate(0)">
        <path id="Trazado_143999" data-name="Trazado 143999" d="M543.856,222.939a2.626,2.626,0,1,1,2.626-2.626A2.629,2.629,0,0,1,543.856,222.939Zm0-4.586a1.96,1.96,0,1,0,1.96,1.96A1.962,1.962,0,0,0,543.856,218.353Z" transform="translate(-541.23 -217.687)" fill="#f47458" opacity="0.5" style="mix-blend-mode: multiply;isolation: isolate"/>
      </g>
    </g>
    <g id="Grupo_72677" data-name="Grupo 72677" transform="translate(332.671 125.997)">
      <g id="Grupo_72676" data-name="Grupo 72676">
        <path id="Trazado_144000" data-name="Trazado 144000" d="M968.784,433.613a4.372,4.372,0,1,1,4.372-4.372A4.377,4.377,0,0,1,968.784,433.613Zm0-7.635a3.263,3.263,0,1,0,3.263,3.263A3.267,3.267,0,0,0,968.784,425.977Z" transform="translate(-964.412 -424.868)" fill="#f7cc7f"/>
      </g>
    </g>
    <g id="Grupo_72679" data-name="Grupo 72679" transform="translate(459.085 286.204)">
      <g id="Grupo_72678" data-name="Grupo 72678">
        <path id="Trazado_144001" data-name="Trazado 144001" d="M1396.545,976.809a5.858,5.858,0,1,1,5.858-5.858A5.865,5.865,0,0,1,1396.545,976.809Zm0-10.23a4.372,4.372,0,1,0,4.372,4.372A4.377,4.377,0,0,0,1396.545,966.579Z" transform="translate(-1390.687 -965.093)" fill="#f47458"/>
      </g>
    </g>
    <g id="Grupo_72691" data-name="Grupo 72691" transform="translate(405.045 -57.589)">
      <g id="Grupo_72680" data-name="Grupo 72680" transform="translate(0 102.345)">
        <path id="Trazado_144002" data-name="Trazado 144002" d="M1375.455,155.974H1272.86a9.075,9.075,0,0,0-9.059,9.09V225.04a9.074,9.074,0,0,0,9.059,9.089h71.787c4.615,6.462,12.983,18.034,13.721,18.034.692,0-.64-10.93-1.579-18.034h18.665a9.074,9.074,0,0,0,9.059-9.089V165.064A9.074,9.074,0,0,0,1375.455,155.974Z" transform="translate(-1263.801 -155.974)" fill="#7e5ee3"/>
      </g>
      <g id="Grupo_72684" data-name="Grupo 72684" transform="translate(13.157 64.654)">
        <circle id="Elipse_4442" data-name="Elipse 4442" cx="34.464" cy="34.464" r="34.464" transform="matrix(0.995, -0.099, 0.099, 0.995, 0, 6.792)" fill="#fae0b2"/>
        <g id="Grupo_72681" data-name="Grupo 72681" transform="translate(1.949 1.949)">
          <path id="Trazado_144003" data-name="Trazado 144003" d="M1269.868,328.061a35.743,35.743,0,1,1,25.274,10.469A35.509,35.509,0,0,1,1269.868,328.061Zm-7.91-25.274a33.184,33.184,0,1,0,33.184-33.184A33.221,33.221,0,0,0,1261.958,302.787Z" transform="translate(-1259.399 -267.044)" fill="#f7cc7f"/>
        </g>
        <g id="Grupo_72683" data-name="Grupo 72683" transform="translate(16.994 24.488)">
          <path id="Trazado_144004" data-name="Trazado 144004" d="M1313.41,344.786c9.006-6.268,13.252,6.417,13.252,6.417s4.246-12.685,13.252-6.417c8.543,5.947-.934,23.144-13.252,29.116C1314.343,367.929,1304.866,350.732,1313.41,344.786Z" transform="translate(-1310.132 -343.046)" fill="#d66350"/>
          <g id="Grupo_72682" data-name="Grupo 72682" transform="translate(8.137 4.763)">
            <path id="Trazado_144005" data-name="Trazado 144005" d="M1356.652,381.151,1358.6,369.2h5.395l.926,6.614,3.784-13.771,3.536,8.747h5.319v-.838H1372.8l-4.252-10.519-3.366,12.247-.464-3.317h-6.836l-1.266,7.772-3-17.029-2.5,10.165h-13.55v.838h14.206l1.709-6.944Z" transform="translate(-1337.57 -359.108)" fill="#fff"/>
          </g>
        </g>
      </g>
      <g id="Grupo_72686" data-name="Grupo 72686" transform="translate(85.481 12.169)">
        <circle id="Elipse_4443" data-name="Elipse 4443" cx="39.392" cy="39.392" r="39.392" transform="translate(1.463 1.463)" fill="#fae0b2"/>
        <g id="Grupo_72685" data-name="Grupo 72685">
          <path id="Trazado_144006" data-name="Trazado 144006" d="M1537.562,165.2a40.855,40.855,0,1,1,28.889-11.966A40.588,40.588,0,0,1,1537.562,165.2Zm0-78.785a37.93,37.93,0,1,0,37.929,37.93A37.973,37.973,0,0,0,1537.562,86.417Z" transform="translate(-1496.707 -83.491)" fill="#f7cc7f"/>
        </g>
        <path id="Trazado_144007" data-name="Trazado 144007" d="M1564.38,210.643c-3.467-7.169-6.433-13.989-6.318-21.7.086-5.788,3.55-9.608,9.267-10.017,12.928-.925,25.867-.356,38.8-.107,2.39.046,2,1.555,1.5,2.916-1.436,3.871-4.2,6.908-6.526,10.234-3.84,5.485-9.51,6.446-15.508,6.831a58.729,58.729,0,0,0-6.446.362,19.214,19.214,0,0,0-12.881,8.567C1565.708,208.532,1565.2,209.369,1564.38,210.643Z" transform="translate(-1539.864 -150.264)" fill="#d66350"/>
        <path id="Trazado_144008" data-name="Trazado 144008" d="M1625.495,255.509c-7.42,6.7-15.706,11.521-25.815,12.6-1.588.169-1.686-.439-1.019-1.656,3.2-5.84,7.961-9.528,14.691-10.048C1617.378,256.09,1621.431,256.137,1625.495,255.509Z" transform="translate(-1568.152 -204.496)" fill="#d66350"/>
        <path id="Trazado_144009" data-name="Trazado 144009" d="M1625.557,142.609l-5.594,16.494,4.533-.846-5.124,11.724,13.533-14.606-5.543-.625,7.99-10.161Z" transform="translate(-1582.995 -125.077)" fill="#fff"/>
      </g>
      <g id="Grupo_72690" data-name="Grupo 72690" transform="translate(0 0)">
        <g id="Grupo_72688" data-name="Grupo 72688">
          <circle id="Elipse_4444" data-name="Elipse 4444" cx="25.316" cy="25.316" r="25.316" transform="translate(0 45.852) rotate(-64.903)" fill="#fae0b2"/>
          <g id="Grupo_72687" data-name="Grupo 72687" transform="translate(7.408 7.408)">
            <path id="Trazado_144010" data-name="Trazado 144010" d="M1241.131,112.258a26.256,26.256,0,1,1,18.566,7.69A26.084,26.084,0,0,1,1241.131,112.258Zm-5.81-18.566A24.376,24.376,0,1,0,1259.7,69.316,24.4,24.4,0,0,0,1235.32,93.692Z" transform="translate(-1233.44 -67.436)" fill="#f7cc7f"/>
          </g>
        </g>
        <g id="Grupo_72689" data-name="Grupo 72689" transform="translate(16.907 16.91)">
          <circle id="Elipse_4445" data-name="Elipse 4445" cx="16.072" cy="16.072" r="16.072" transform="matrix(0.045, -0.999, 0.999, 0.045, 0, 32.111)" fill="#fff"/>
          <path id="Trazado_144011" data-name="Trazado 144011" d="M1272.936,121.512a14.57,14.57,0,1,0,14.57-14.57A14.57,14.57,0,0,0,1272.936,121.512Z" transform="translate(-1270.723 -104.729)" fill="#d66350"/>
          <path id="Trazado_144012" data-name="Trazado 144012" d="M1297.393,123.217l2.932-.03.085,8.29,8.291.019-.007,2.932-8.254-.019.085,8.253-2.932.03-.085-8.29-8.291-.019.007-2.932,8.254.019Z" transform="translate(-1282.176 -116.156)" fill="#fff"/>
        </g>
      </g>
    </g>
    <g id="Grupo_72694" data-name="Grupo 72694" transform="translate(263.776 80.592)">
      <g id="Grupo_72692" data-name="Grupo 72692">
        <path id="Trazado_144013" data-name="Trazado 144013" d="M620.492,187.822h94.7a5.933,5.933,0,0,1,5.923,5.943v39.214a5.933,5.933,0,0,1-5.923,5.943H640.635c-3.017,4.225-8.489,11.791-8.971,11.791-.452,0,.418-7.146,1.032-11.791h-12.2a5.933,5.933,0,0,1-5.923-5.943V193.765A5.933,5.933,0,0,1,620.492,187.822Z" transform="translate(-614.569 -187.822)" fill="#7e5ee3"/>
        <rect id="Rectángulo_32359" data-name="Rectángulo 32359" width="59.007" height="2.589" rx="1.295" transform="translate(70.78 16.598) rotate(180)" fill="#fff"/>
        <rect id="Rectángulo_32360" data-name="Rectángulo 32360" width="85.171" height="2.589" rx="1.295" transform="translate(96.754 36.821) rotate(180)" fill="#fff"/>
        <rect id="Rectángulo_32361" data-name="Rectángulo 32361" width="42.091" height="2.589" rx="1.294" transform="translate(96.754 26.709) rotate(180)" fill="#fff"/>
        <rect id="Rectángulo_32362" data-name="Rectángulo 32362" width="38.617" height="2.589" rx="1.294" transform="translate(50.2 26.709) rotate(180)" fill="#fff"/>
      </g>
      <g id="Grupo_72693" data-name="Grupo 72693" transform="translate(76.64 14.009)">
        <rect id="Rectángulo_32363" data-name="Rectángulo 32363" width="20.114" height="2.589" rx="1.295" transform="translate(20.114 2.589) rotate(180)" fill="#fff"/>
      </g>
    </g>
  </g>
</svg>
