<svg xmlns="http://www.w3.org/2000/svg" xmlns:xlink="http://www.w3.org/1999/xlink" width="313.696" height="318.991" viewBox="0 0 313.696 318.991">
  <defs>
    <linearGradient id="linear-gradient" x1="118.139" y1="-27.877" x2="110.139" y2="-27.019" gradientUnits="objectBoundingBox">
      <stop offset="0" stop-color="#2b3582"/>
      <stop offset="1" stop-color="#150e42"/>
    </linearGradient>
    <linearGradient id="linear-gradient-2" x1="17.047" y1="-141.819" x2="16.726" y2="-138.372" xlink:href="#linear-gradient"/>
    <linearGradient id="linear-gradient-3" x1="9.227" y1="-135.062" x2="8.927" y2="-130.322" gradientUnits="objectBoundingBox">
      <stop offset="0" stop-color="#53d8ff"/>
      <stop offset="1" stop-color="#3840f7"/>
    </linearGradient>
    <linearGradient id="linear-gradient-4" x1="55.665" y1="-91.328" x2="55.223" y2="-88.109" xlink:href="#linear-gradient-3"/>
    <linearGradient id="linear-gradient-5" x1="0.484" y1="-0.955" x2="0.529" y2="1.814" gradientUnits="objectBoundingBox">
      <stop offset="0" stop-color="#fdf53f"/>
      <stop offset="1" stop-color="#d93c65"/>
    </linearGradient>
    <linearGradient id="linear-gradient-6" x1="-0.011" y1="0.972" x2="1.04" y2="-0.38" xlink:href="#linear-gradient-5"/>
    <linearGradient id="linear-gradient-7" x1="0.704" y1="-17.679" x2="0.415" y2="8.11" xlink:href="#linear-gradient-5"/>
    <linearGradient id="linear-gradient-8" x1="0.819" y1="-12.539" x2="0.225" y2="12.651" xlink:href="#linear-gradient-5"/>
    <linearGradient id="linear-gradient-9" x1="1.042" y1="-3.232" x2="-0.762" y2="9.243" xlink:href="#linear-gradient-5"/>
    <linearGradient id="linear-gradient-10" x1="0.998" y1="-0.114" x2="-0.864" y2="2.397" xlink:href="#linear-gradient-5"/>
    <linearGradient id="linear-gradient-11" x1="272.215" y1="-0.114" x2="270.353" y2="2.397" xlink:href="#linear-gradient-5"/>
    <linearGradient id="linear-gradient-12" x1="0.927" y1="0.632" x2="-1.894" y2="-0.425" gradientUnits="objectBoundingBox">
      <stop offset="0" stop-color="#cb236d"/>
      <stop offset="1" stop-color="#4c246d"/>
    </linearGradient>
    <linearGradient id="linear-gradient-13" x1="1.121" y1="-0.158" x2="-1.164" y2="1.904" gradientUnits="objectBoundingBox">
      <stop offset="0" stop-color="#f9b776"/>
      <stop offset="1" stop-color="#f47960"/>
    </linearGradient>
    <linearGradient id="linear-gradient-14" x1="0.642" y1="0.453" x2="-5.223" y2="3.274" xlink:href="#linear-gradient-13"/>
    <linearGradient id="linear-gradient-15" x1="0" y1="0.5" x2="1" y2="0.5" xlink:href="#linear-gradient"/>
    <linearGradient id="linear-gradient-17" x1="0" y1="0.5" x2="1" y2="0.5" xlink:href="#linear-gradient-13"/>
    <linearGradient id="linear-gradient-23" x1="0.528" y1="0.175" x2="-0.362" y2="1.576" xlink:href="#linear-gradient-12"/>
    <linearGradient id="linear-gradient-24" x1="0.891" y1="0.756" x2="-1.329" y2="-0.937" xlink:href="#linear-gradient-13"/>
    <linearGradient id="linear-gradient-25" x1="0.276" y1="1.206" x2="0.6" y2="0.434" xlink:href="#linear-gradient-13"/>
    <linearGradient id="linear-gradient-26" x1="0.821" y1="0.35" x2="-0.291" y2="1.106" xlink:href="#linear-gradient-13"/>
    <linearGradient id="linear-gradient-27" x1="0.28" y1="0.152" x2="1.03" y2="1.129" xlink:href="#linear-gradient"/>
    <linearGradient id="linear-gradient-28" x1="2.74" y1="-0.685" x2="-1.811" y2="1.784" xlink:href="#linear-gradient-13"/>
  </defs>
  <g id="img12" transform="translate(1417.094 -5468.813)">
    <g id="Grupo_73191" data-name="Grupo 73191" transform="translate(-1298.704 5468.813)">
      <g id="Grupo_73189" data-name="Grupo 73189" transform="translate(0 0)">
        <circle id="Elipse_4516" data-name="Elipse 4516" cx="67.357" cy="67.357" r="67.357" transform="translate(0 95.257) rotate(-45)" fill="#fff"/>
        <g id="Grupo_73186" data-name="Grupo 73186" transform="translate(34.891 34.891)">
          <circle id="Elipse_4517" data-name="Elipse 4517" cx="57.486" cy="57.486" r="57.486" transform="translate(2.879 2.88)" fill="#7e5ee3"/>
          <path id="Trazado_144959" data-name="Trazado 144959" d="M-1007.448,5669.051a60.434,60.434,0,0,1-60.365-60.366,60.434,60.434,0,0,1,60.365-60.366,60.434,60.434,0,0,1,60.366,60.366A60.434,60.434,0,0,1-1007.448,5669.051Zm0-117.853a57.551,57.551,0,0,0-57.486,57.487,57.552,57.552,0,0,0,57.486,57.486,57.552,57.552,0,0,0,57.486-57.486A57.551,57.551,0,0,0-1007.448,5551.2Z" transform="translate(1067.813 -5548.319)" fill="#fff"/>
        </g>
        <g id="Grupo_73187" data-name="Grupo 73187" transform="translate(53.585 53.586)">
          <circle id="Elipse_4518" data-name="Elipse 4518" cx="35.046" cy="35.046" r="35.046" transform="matrix(0.212, -0.977, 0.977, 0.212, 0, 68.504)" fill="#7e5ee3"/>
          <path id="Trazado_144960" data-name="Trazado 144960" d="M-978.754,5675.306a37.969,37.969,0,0,1-37.926-37.926,37.969,37.969,0,0,1,37.926-37.926,37.969,37.969,0,0,1,37.926,37.926A37.97,37.97,0,0,1-978.754,5675.306Zm0-70.093a32.2,32.2,0,0,0-32.167,32.167,32.2,32.2,0,0,0,32.167,32.167,32.2,32.2,0,0,0,32.167-32.167A32.2,32.2,0,0,0-978.754,5605.213Z" transform="translate(1020.425 -5595.708)" fill="#fff"/>
        </g>
        <g id="Grupo_73188" data-name="Grupo 73188" transform="translate(78.547 78.547)">
          <circle id="Elipse_4519" data-name="Elipse 4519" cx="13.578" cy="13.578" r="13.578" transform="translate(0 26.171) rotate(-74.518)" fill="#7e5ee3"/>
          <path id="Trazado_144961" data-name="Trazado 144961" d="M-951.3,5681.288a16.476,16.476,0,0,1-16.457-16.457,16.476,16.476,0,0,1,16.457-16.458,16.476,16.476,0,0,1,16.458,16.458A16.476,16.476,0,0,1-951.3,5681.288Zm0-27.157a10.711,10.711,0,0,0-10.7,10.7,10.711,10.711,0,0,0,10.7,10.7,10.711,10.711,0,0,0,10.7-10.7A10.712,10.712,0,0,0-951.3,5654.131Z" transform="translate(968.012 -5648.121)" fill="#fff"/>
        </g>
      </g>
      <g id="Grupo_73190" data-name="Grupo 73190" transform="translate(94.977 4.18)">
        <rect id="Rectángulo_32449" data-name="Rectángulo 32449" width="2.567" height="97.217" transform="matrix(-0.707, -0.707, 0.707, -0.707, 15.009, 79.767)" fill="url(#linear-gradient)"/>
        <path id="Trazado_144962" data-name="Trazado 144962" d="M-916.416,5645.8c1.041-1.042,5.951,3.868,4.909,4.909l-18.21,14.316a.723.723,0,0,1-1.016-1.016Z" transform="translate(930.895 -5572.231)" fill="url(#linear-gradient-2)"/>
        <path id="Trazado_144963" data-name="Trazado 144963" d="M-764.779,5503.549l9.248.919-12.7,12.7a19.628,19.628,0,0,1-15.82,5.652h0Z" transform="translate(848.491 -5492.486)" fill="url(#linear-gradient-3)"/>
        <path id="Trazado_144964" data-name="Trazado 144964" d="M-769.039,5487.587l-.919-9.248-12.7,12.7a19.63,19.63,0,0,0-5.652,15.82h0Z" transform="translate(850.935 -5478.339)" fill="url(#linear-gradient-4)"/>
      </g>
    </g>
    <rect id="Rectángulo_32450" data-name="Rectángulo 32450" width="133.143" height="188.503" rx="16" transform="translate(-1236.54 5598.771)" fill="#ff9d00"/>
    <rect id="Rectángulo_32451" data-name="Rectángulo 32451" width="116.039" height="150.887" rx="16" transform="translate(-1294.607 5636.917)" fill="#81d4fa"/>
    <rect id="Rectángulo_32452" data-name="Rectángulo 32452" width="99.988" height="91.83" rx="10" transform="translate(-1359.515 5695.445)" fill="#ff9d00"/>
    <rect id="Rectángulo_32453" data-name="Rectángulo 32453" width="99.988" height="55.994" rx="4" transform="translate(-1417.094 5731.281)" fill="#81d4fa"/>
    <g id="Grupo_73192" data-name="Grupo 73192" transform="translate(-1172.204 5536.746)">
      <path id="Trazado_144965" data-name="Trazado 144965" d="M-809.159,5728.909h-3.786L-818.9,5711.4l16.545-1Z" transform="translate(836.526 -5672.311)" fill="url(#linear-gradient-5)"/>
      <path id="Trazado_144966" data-name="Trazado 144966" d="M-841.849,5635.865c-.019,1.478-.019,30.412,14.669,35.111s21.323-19.783,20.8-37.218Z" transform="translate(849.405 -5629.305)" fill="url(#linear-gradient-6)"/>
      <rect id="Rectángulo_32454" data-name="Rectángulo 32454" width="23.482" height="2.851" transform="translate(13.732 59.255)" fill="url(#linear-gradient-7)"/>
      <path id="Trazado_144967" data-name="Trazado 144967" d="M-804.293,5754.557h-23.482l5.943-3.188h11.6Z" transform="translate(841.507 -5695.303)" fill="url(#linear-gradient-8)"/>
      <path id="Trazado_144968" data-name="Trazado 144968" d="M-848.723,5626.065a2.361,2.361,0,0,0-2.344,2.122v2.225a2.057,2.057,0,0,0,2.345,1.853l40.255-2.166a2.341,2.341,0,0,0,2.346-2.1v-2.542a2.04,2.04,0,0,0-2.344-1.836Z" transform="translate(854.577 -5623.611)" fill="url(#linear-gradient-9)"/>
      <path id="Trazado_144969" data-name="Trazado 144969" d="M-787.108,5699.5a1.787,1.787,0,0,1-1.857-1.4,1.661,1.661,0,0,1,1.646-1.744c.2-.02,13.7-1.447,14.984-8.84.216-1.247.192-2.875-1.149-3.555a4.717,4.717,0,0,0-4.213.415,2.154,2.154,0,0,0-1.2,2.457,1.584,1.584,0,0,1-1.386,1.9,1.911,1.911,0,0,1-2.254-1.166c-.621-2.192.362-4.334,2.63-5.731a9,9,0,0,1,8.353-.571c1.4.71,3.645,2.527,2.921,6.708-.716,4.134-4.168,7.446-9.982,9.577a37.1,37.1,0,0,1-8.279,1.938C-786.965,5699.5-787.037,5699.5-787.108,5699.5Z" transform="translate(819.735 -5655.531)" fill="url(#linear-gradient-10)"/>
      <path id="Trazado_144970" data-name="Trazado 144970" d="M-840.449,5699.5a1.787,1.787,0,0,0,1.857-1.4,1.662,1.662,0,0,0-1.646-1.744c-.2-.02-13.7-1.447-14.984-8.84-.216-1.247-.192-2.875,1.148-3.555a4.717,4.717,0,0,1,4.213.415,2.154,2.154,0,0,1,1.2,2.457,1.584,1.584,0,0,0,1.385,1.9,1.912,1.912,0,0,0,2.254-1.166c.621-2.192-.362-4.334-2.63-5.731a9,9,0,0,0-8.353-.571c-1.4.71-3.645,2.527-2.921,6.708.716,4.134,4.168,7.446,9.982,9.577a37.1,37.1,0,0,0,8.279,1.938C-840.592,5699.5-840.52,5699.5-840.449,5699.5Z" transform="translate(859.066 -5655.531)" fill="url(#linear-gradient-11)"/>
      <path id="Trazado_144971" data-name="Trazado 144971" d="M-779.579,5632.352a.306.306,0,0,1-.305-.289.307.307,0,0,1,.289-.323l3.6-.192a.307.307,0,0,1,.322.289.306.306,0,0,1-.289.322l-3.6.193Z" transform="translate(814.633 -5628.064)" fill="#fff"/>
      <path id="Trazado_144972" data-name="Trazado 144972" d="M-842.242,5634.492a.306.306,0,0,1-.3-.29.306.306,0,0,1,.289-.322l21.477-1.155a.306.306,0,0,1,.322.289.306.306,0,0,1-.289.322l-21.476,1.156Z" transform="translate(849.796 -5628.726)" fill="#fff"/>
      <path id="Trazado_144973" data-name="Trazado 144973" d="M-819.825,5680.4l-.036,0c-3.889-.447-7-3.613-9.24-9.412a58.569,58.569,0,0,1-3.133-14.249.306.306,0,0,1,.272-.337.307.307,0,0,1,.337.272c.7,6.621,3.251,22.13,11.834,23.118a.3.3,0,0,1,.269.338A.306.306,0,0,1-819.825,5680.4Z" transform="translate(844.01 -5642.011)" fill="#fff"/>
      <path id="Trazado_144974" data-name="Trazado 144974" d="M-832.615,5648.325a.306.306,0,0,1-.3-.287c-.057-.882-.073-1.391-.073-1.412a.305.305,0,0,1,.3-.314.3.3,0,0,1,.315.3s.016.519.072,1.39a.305.305,0,0,1-.286.325Z" transform="translate(844.435 -5636.35)" fill="#fff"/>
    </g>
    <g id="Grupo_73194" data-name="Grupo 73194" transform="translate(-1411.348 5590.028)">
      <path id="Trazado_144975" data-name="Trazado 144975" d="M-1215.657,5815.785l-7.789,11.982c3.623,7.059,7.648,10.956,11.674,12.809a21.54,21.54,0,0,1,5.173-10.217C-1213.781,5826.273-1215.657,5815.785-1215.657,5815.785Z" transform="translate(1302.682 -5784.731)" fill="url(#linear-gradient-12)"/>
      <path id="Trazado_144976" data-name="Trazado 144976" d="M-1173.969,5844.093c-7.974,4.72-13.673,4.442-17.7,2.151a21.535,21.535,0,0,0-5.173,10.217c12.8,5.888,25.616-8.935,25.616-8.935Z" transform="translate(1287.754 -5800.616)" fill="url(#linear-gradient-13)"/>
      <path id="Trazado_144977" data-name="Trazado 144977" d="M-1144.66,5838.291s-2.153-3.754.943-6.635c0,0,1-1.139,2.094.534,0,0,3.331-3.023,4.242-1.806s3.325,4.233.967,7.674C-1138.8,5841.536-1143.609,5839.986-1144.66,5838.291Z" transform="translate(1258.88 -5792.762)" fill="url(#linear-gradient-14)"/>
      <path id="Trazado_144978" data-name="Trazado 144978" d="M-1138.472,5839.23a1.874,1.874,0,0,1-.96-.237,1.636,1.636,0,0,1-.759-1.281.39.39,0,0,1,.338-.436.391.391,0,0,1,.436.337.889.889,0,0,0,.381.708,1.571,1.571,0,0,0,1.061.07l-.754-2.394a.39.39,0,0,1,.254-.489.39.39,0,0,1,.489.254l.874,2.771a.389.389,0,0,1-.229.48A3.361,3.361,0,0,1-1138.472,5839.23Z" transform="translate(1255.965 -5795.79)" fill="#f79e6d"/>
      <path id="Trazado_144979" data-name="Trazado 144979" d="M-1403.078,6027.466a2.061,2.061,0,0,0-.882,2.157c.65,3.389,2.787,12.338,7.978,17.636a.779.779,0,0,0,1.143,0,29.758,29.758,0,0,1-4.849-7.685C-1402.617,6033.467-1403.159,6029.7-1403.078,6027.466Z" transform="translate(1404 -5903.518)" fill="url(#linear-gradient-15)"/>
      <path id="Trazado_144980" data-name="Trazado 144980" d="M-1395.206,6026.184a7.263,7.263,0,0,0-6.679.11c-.009,0-.015.012-.023.016-.081,2.232.461,6,3.39,12.111a29.75,29.75,0,0,0,4.849,7.685.915.915,0,0,0,.217-.38C-1392.478,6042.338-1390.419,6032.926-1395.206,6026.184Z" transform="translate(1402.831 -5902.361)" fill="url(#linear-gradient-15)"/>
      <path id="Trazado_144981" data-name="Trazado 144981" d="M-1384.148,6022.1l-3.033,2.91a1.591,1.591,0,0,1-1.978.187,4.166,4.166,0,0,1-1.542-1.9,1.6,1.6,0,0,1,.292-1.693l3.028-3.332a1.6,1.6,0,0,1,2.555.262l.947,1.6A1.6,1.6,0,0,1-1384.148,6022.1Z" transform="translate(1396.607 -5898.063)" fill="url(#linear-gradient-17)"/>
      <path id="Trazado_144982" data-name="Trazado 144982" d="M-1152.225,5972.727a2.057,2.057,0,0,0,2.31-.3c2.624-2.239,9.348-8.521,11.388-15.652a.778.778,0,0,0-.562-.994,29.754,29.754,0,0,1-4.284,8.015C-1147.237,5969.361-1150.245,5971.694-1152.225,5972.727Z" transform="translate(1262.716 -5863.292)" fill="url(#linear-gradient-15)"/>
      <path id="Trazado_144983" data-name="Trazado 144983" d="M-1160.025,5966.928a7.264,7.264,0,0,0,3.4,5.753l.026.012c1.98-1.033,4.988-3.366,8.852-8.932a29.747,29.747,0,0,0,4.284-8.015.922.922,0,0,0-.438,0C-1147.33,5956.574-1156.53,5959.435-1160.025,5966.928Z" transform="translate(1267.093 -5863.257)" fill="url(#linear-gradient-15)"/>
      <path id="Trazado_144984" data-name="Trazado 144984" d="M-1165.873,5966.384l3.169,2.761a1.589,1.589,0,0,1,.362,1.953,4.162,4.162,0,0,1-1.755,1.706,1.6,1.6,0,0,1-1.712-.14l-3.588-2.718a1.6,1.6,0,0,1,.032-2.569l1.51-1.086A1.6,1.6,0,0,1-1165.873,5966.384Z" transform="translate(1272.707 -5869.021)" fill="url(#linear-gradient-17)"/>
      <path id="Trazado_144985" data-name="Trazado 144985" d="M-1350.393,5903.21s-6.184,21.068-10.183,30.328c0,0-6.989,1.066-11.315,3.594s-13.644,16.537-13.644,16.537,2.434,4.62,5.369,5.329l26.525-18.379,21.17-24.618-1-11.419Z" transform="translate(1393.638 -5833.791)" fill="url(#linear-gradient-15)"/>
      <path id="Trazado_144986" data-name="Trazado 144986" d="M-1306.9,5899.294l-1.809,5.769s1.655,15.125,20.724,12.575,21.465-5.664,21.465-5.664-1.655,9.66,19.2,21.275c0,0,3.169-2.393,3.867-5.11l-14.612-24.083c-2.032-3.159-3.917-3.991-7.629-3.411-8.206,1.284-23.571,2.956-25.9,2.559Z" transform="translate(1350.53 -5831.593)" fill="url(#linear-gradient-15)"/>
      <path id="Trazado_144987" data-name="Trazado 144987" d="M-1296.246,5801.486c-5.557.282-14.341,2.924-20.015,8.147a68.554,68.554,0,0,1,6.428,8.147,17.514,17.514,0,0,1,7.968-3.971,236.021,236.021,0,0,1-11.315,33.136,1.208,1.208,0,0,0,.705,1.628c3.482,1.214,13.749,4.1,21.984-.55l18.257-26.143a22.366,22.366,0,0,0,3.772-9.427l.721-4.715S-1284.138,5800.869-1296.246,5801.486Z" transform="translate(1354.765 -5776.686)" fill="url(#linear-gradient-23)"/>
      <path id="Trazado_144988" data-name="Trazado 144988" d="M-1313.225,5851.514c-.794-1.751-3.51-3.388-4.807-4.091-1.128-2.326-5.63-12.782,1.177-19.173a68.474,68.474,0,0,0-6.428-8.147c-6.547,6.027-8.943,15.495,2.537,28.751-.627,3.265,1.418,7.067,2.523,7.6C-1317.713,5856.7-1312.171,5853.843-1313.225,5851.514Z" transform="translate(1361.788 -5787.154)" fill="url(#linear-gradient-24)"/>
      <path id="Trazado_144989" data-name="Trazado 144989" d="M-1248.869,5785.713l-4.77,9.336a1.543,1.543,0,0,0,.223,1.734c1.155,1.286,3.883,3.375,8.628,1.878a1.438,1.438,0,0,0,.979-1.167l1.242-8.479Z" transform="translate(1319.72 -5767.857)" fill="url(#linear-gradient-25)"/>
      <g id="Grupo_73193" data-name="Grupo 73193" transform="translate(62.563)">
        <path id="Trazado_144990" data-name="Trazado 144990" d="M-1238.78,5761.009s2.8,6.427,2.985,9.8.915,5.562-2.985,6.241a8.291,8.291,0,0,1-8.966-4.624s-2.789-5.177-2.163-7.3S-1238.78,5761.009-1238.78,5761.009Z" transform="translate(1255.02 -5753.994)" fill="url(#linear-gradient-26)"/>
        <path id="Trazado_144991" data-name="Trazado 144991" d="M-1252.831,5761.041l.221-.1a.535.535,0,0,0,.262-.736c-.55-1.062-1.622-3.5-.237-4.065,1.785-.732,8.856-2.174,10.381-4.683a4.668,4.668,0,0,0-1.785-6.409.268.268,0,0,0-.352.114l-.163.308a.265.265,0,0,1-.489-.051h0a.264.264,0,0,0-.478-.068c-.469.75-1.735,1.968-5.12,2.592-4.812.888-7.993,2.835-8.072,6.16a.266.266,0,0,1-.41.219c-.355-.217-.924-.318-1.683.32-1.321,1.111-.781,3.993,2.116,6.365a.263.263,0,0,1-.013.424c-.525.341-1.308,1.155.721,2.239a6.827,6.827,0,0,0,4.268.93.265.265,0,0,0,.214-.319l-.644-2.922a.265.265,0,0,1,.259-.322Z" transform="translate(1261.438 -5745.024)" fill="url(#linear-gradient-27)"/>
        <path id="Trazado_144992" data-name="Trazado 144992" d="M-1246.043,5778.888s-1.067-4.1-2.908-2.954.955,4.6,2.435,4.753Z" transform="translate(1254.771 -5762.255)" fill="url(#linear-gradient-28)"/>
      </g>
    </g>
  </g>
</svg>
