<svg xmlns="http://www.w3.org/2000/svg" width="506.633" height="572.107" viewBox="0 0 506.633 572.107">
  <g id="img15" transform="translate(-0.001)">
    <g id="Grupo_72696" data-name="Grupo 72696" transform="translate(306.491 395.907)">
      <path id="Trazado_144014" data-name="Trazado 144014" d="M378.874,405.93l-63.932,3.735-.692,3.345S364.205,408.944,378.874,405.93Z" transform="translate(-314.25 -405.93)" fill="#4e9dc4"/>
    </g>
    <g id="Grupo_72698" data-name="Grupo 72698" transform="translate(275.145 427.127)">
      <g id="Grupo_72697" data-name="Grupo 72697">
        <path id="Trazado_144015" data-name="Trazado 144015" d="M502.442,582.325H293.268a11.155,11.155,0,0,1-11.158-11.158V449.1a11.155,11.155,0,0,1,11.158-11.158H502.442A11.155,11.155,0,0,1,513.6,449.1V571.177A11.153,11.153,0,0,1,502.442,582.325Z" transform="translate(-282.11 -437.94)" fill="#736be5"/>
      </g>
    </g>
    <g id="Grupo_72700" data-name="Grupo 72700" transform="translate(252.83 427.722)">
      <g id="Grupo_72699" data-name="Grupo 72699">
        <path id="Trazado_144016" data-name="Trazado 144016" d="M479.562,582.935H270.388a11.155,11.155,0,0,1-11.158-11.158V449.708a11.155,11.155,0,0,1,11.158-11.158H479.562a11.155,11.155,0,0,1,11.158,11.158v122.08A11.153,11.153,0,0,1,479.562,582.935Z" transform="translate(-259.23 -438.55)" fill="#9d99e5"/>
      </g>
    </g>
    <g id="Grupo_72702" data-name="Grupo 72702" transform="translate(303.195 386.466)">
      <g id="Grupo_72701" data-name="Grupo 72701">
        <path id="Trazado_144017" data-name="Trazado 144017" d="M387.744,478.771H352.135a41.26,41.26,0,1,1,0-82.521h35.609a41.26,41.26,0,1,1,0,82.521Zm-35.6-64.946a23.681,23.681,0,1,0,0,47.361h35.609a23.681,23.681,0,1,0,0-47.361Z" transform="translate(-310.87 -396.25)" fill="#9d99e5"/>
      </g>
    </g>
    <g id="Grupo_72704" data-name="Grupo 72704" transform="translate(252.83 427.127)">
      <g id="Grupo_72703" data-name="Grupo 72703">
        <path id="Trazado_144018" data-name="Trazado 144018" d="M259.23,467.316h0a29.376,29.376,0,0,1,29.376-29.376H472.56c16.219,0,19.165,11.655,18.16,29.376H259.23Z" transform="translate(-259.23 -437.94)" fill="#bdbdff"/>
      </g>
    </g>
    <g id="Grupo_72706" data-name="Grupo 72706" transform="translate(329.411 471.709)">
      <g id="Grupo_72705" data-name="Grupo 72705">
        <path id="Trazado_144019" data-name="Trazado 144019" d="M408.782,511.612H384.223V490.955a7.305,7.305,0,0,0-14.61,0v20.657H345.055a7.3,7.3,0,0,0-7.305,7.305h0a7.3,7.3,0,0,0,7.305,7.305h24.558v28.45a7.305,7.305,0,0,0,14.61,0v-28.45h24.558a7.3,7.3,0,0,0,7.305-7.305h0A7.307,7.307,0,0,0,408.782,511.612Z" transform="translate(-337.75 -483.65)" fill="#fff"/>
      </g>
    </g>
    <path id="Trazado_144020" data-name="Trazado 144020" d="M265.988,571.844H42.515a39.709,39.709,0,0,1-39.7-39.7V39.7A39.709,39.709,0,0,1,42.515,0H265.988a39.709,39.709,0,0,1,39.7,39.7V532.139A39.709,39.709,0,0,1,265.988,571.844Z" transform="translate(-0.069)" fill="#0065aa"/>
    <g id="Grupo_72707" data-name="Grupo 72707" transform="translate(14.61 12.903)">
      <path id="Trazado_144021" data-name="Trazado 144021" d="M281.552,560.262H28.351A13.374,13.374,0,0,1,14.98,546.89V26.6A13.374,13.374,0,0,1,28.351,13.23h253.2A13.374,13.374,0,0,1,294.923,26.6V546.89A13.361,13.361,0,0,1,281.552,560.262Z" transform="translate(-14.98 -13.23)" fill="#e6e6e6"/>
    </g>
    <path id="Trazado_144022" data-name="Trazado 144022" d="M218.746,29.894H95.544A13.249,13.249,0,0,1,82.29,16.64V7.94H232v8.7A13.261,13.261,0,0,1,218.746,29.894Z" transform="translate(-2.032 -0.196)" fill="#0065aa"/>
    <path id="Trazado_144023" data-name="Trazado 144023" d="M476,98.37c-4.174-40.7-77.7-51.974-148.15-43.626s-73.177,24.314-71.363,72.378c.595,15.771,4.935,28.284,11.957,38.154-4.321,14.766-21.691,17.8-19.282,20.121,12.416,11.918,34.282.985,39.549-1.941,34,19.955,87.875,17.039,126.751,11.557C467.136,187.718,480.586,142.981,476,98.37Z" transform="translate(-6.146 -1.288)" fill="#6f6fd8"/>
    <path id="Trazado_144024" data-name="Trazado 144024" d="M337.142,125.851a7.471,7.471,0,1,1-7.471-7.471A7.471,7.471,0,0,1,337.142,125.851Z" transform="translate(-7.955 -2.923)" fill="#fff"/>
    <path id="Trazado_144025" data-name="Trazado 144025" d="M375,125.851a7.471,7.471,0,1,1-7.471-7.471A7.471,7.471,0,0,1,375,125.851Z" transform="translate(-8.89 -2.923)" fill="#fff"/>
    <path id="Trazado_144026" data-name="Trazado 144026" d="M411.422,125.851a7.471,7.471,0,1,1-7.471-7.471A7.471,7.471,0,0,1,411.422,125.851Z" transform="translate(-9.789 -2.923)" fill="#fff"/>
    <path id="Trazado_144027" data-name="Trazado 144027" d="M133.123,240.066c.751-1.19,29.367,13.176,61.523-5.608s13.362,179.008,13.362,179.008l-2.614,102.661L201.736,565.7h-80.1L105.2,409.663S121.946,257.768,133.123,240.066Z" transform="translate(-2.597 -5.758)" fill="#5dcec1"/>
    <path id="Trazado_144028" data-name="Trazado 144028" d="M280.055,269.307c-13.089-11.245-73.314-34.1-73.314-34.1l-9.831,17.565s3.189,217.874,1.541,262.748l-.02,50.228h73.509l.371-113.448c21.262-5.393,37.588-14.357,46.571-24.178,10.192-11.158,12.65-17.448,12.65-32.273S293.144,280.552,280.055,269.307Z" transform="translate(-4.862 -5.807)" fill="#fff"/>
    <path id="Trazado_144029" data-name="Trazado 144029" d="M123.917,431.853c.692-1.122,1.073-1.736,1.073-1.736V237.21s-60.235,22.852-73.314,34.1S.54,386.588.179,401.413C-1.254,460.254,49.92,534.484,49.92,534.484a29.491,29.491,0,0,0,4.779-2.877c-.995,13.7-2.692,34.194-2.692,34.194h79.849s.263-60.967,0-63.756C131.68,500.388,127.379,462.409,123.917,431.853Z" transform="translate(-0.004 -5.857)" fill="#fff"/>
    <g id="Grupo_72709" data-name="Grupo 72709" transform="translate(222.839 341.788)">
      <g id="Grupo_72708" data-name="Grupo 72708">
        <path id="Trazado_144030" data-name="Trazado 144030" d="M257.671,382.147l-13.459,7.978a1,1,0,0,1-1,.01l-14.22-8a1.012,1.012,0,0,1-.507-.878V351.445a1,1,0,0,1,1-1h27.67a1,1,0,0,1,1,1V381.27A1.015,1.015,0,0,1,257.671,382.147Z" transform="translate(-228.48 -350.44)" fill="#d5e1ed"/>
      </g>
    </g>
    <g id="Grupo_72711" data-name="Grupo 72711" transform="translate(222.839 347.815)">
      <g id="Grupo_72710" data-name="Grupo 72710">
        <path id="Trazado_144031" data-name="Trazado 144031" d="M257.671,382.3l-13.459,7.978a1,1,0,0,1-1,.01l-14.22-8a1.012,1.012,0,0,1-.507-.878V357.625a1,1,0,0,1,1-1h27.67a1,1,0,0,1,1,1v23.807A1.011,1.011,0,0,1,257.671,382.3Z" transform="translate(-228.48 -356.62)" fill="#b8ddff"/>
      </g>
    </g>
    <g id="Grupo_72713" data-name="Grupo 72713" transform="translate(193.589 212.627)" opacity="0.5">
      <g id="Grupo_72712" data-name="Grupo 72712">
        <path id="Trazado_144032" data-name="Trazado 144032" d="M198.49,517.05V218.01s2.536,4.642,11.782,14.025c11.577,11.733,21.486,29.435,21.486,29.435l-20.891-4.048,27.143,27.318L217.587,404.782l-14.454,2.155,9.148,29.054Z" transform="translate(-198.49 -218.01)" fill="#8fa7d7"/>
      </g>
    </g>
    <g id="Grupo_72714" data-name="Grupo 72714" transform="translate(88.041 212.452)" opacity="0.5">
      <path id="Trazado_144033" data-name="Trazado 144033" d="M118.008,231.855c-11.577,11.733-21.486,29.435-21.486,29.435l20.891-4.048L90.27,284.561l43.791,226.4L129.79,217.83S127.263,222.472,118.008,231.855Z" transform="translate(-90.27 -217.83)" fill="#8fa7d7"/>
    </g>
    <g id="Grupo_72716" data-name="Grupo 72716" transform="translate(189.044 210.316)">
      <g id="Grupo_72715" data-name="Grupo 72715">
        <path id="Trazado_144034" data-name="Trazado 144034" d="M198.375,504.468h0L193.83,215.64s4.7,2.019,13.957,11.392c11.577,11.733,19.321,32.068,19.321,32.068l-20.891-4.048,27.143,27.318L213.9,405.884l-9.968,2.3,7.3,14.649Z" transform="translate(-193.83 -215.64)" fill="#fff"/>
      </g>
    </g>
    <g id="Grupo_72718" data-name="Grupo 72718" transform="translate(92.303 210.326)">
      <g id="Grupo_72717" data-name="Grupo 72717">
        <path id="Trazado_144035" data-name="Trazado 144035" d="M134.169,501.513V215.65s-4.7,2.019-13.957,11.392c-11.577,11.733-19.321,32.068-19.321,32.068l20.891-4.048L94.64,282.381Z" transform="translate(-94.64 -215.65)" fill="#fff"/>
      </g>
    </g>
    <path id="Trazado_144036" data-name="Trazado 144036" d="M167.67,532.555a185.225,185.225,0,0,1-32.38-2.78V528.1c.312.068,32.068,6.33,61.64-.078v1.687A139.206,139.206,0,0,1,167.67,532.555Z" transform="translate(-3.34 -13.037)" fill="#38a595"/>
    <g id="Grupo_72719" data-name="Grupo 72719" transform="translate(131.833 251.669)">
      <path id="Trazado_144037" data-name="Trazado 144037" d="M163.639,267.159a70.556,70.556,0,0,1-28.469-5.842V259.3c.283.137,29.445,13.986,57.865-1.258l.029,1.96A60.828,60.828,0,0,1,163.639,267.159Z" transform="translate(-135.17 -258.04)" fill="#38a595"/>
    </g>
    <path id="Trazado_144038" data-name="Trazado 144038" d="M27.35,405.66s21.74,4.174,33.053,15.478C60.4,421.138,32.227,407.055,27.35,405.66Z" transform="translate(-0.675 -10.016)" fill="#8fa7d7" opacity="0.5"/>
    <path id="Trazado_144039" data-name="Trazado 144039" d="M85.876,505.02l4.564,5.53S81.263,533,71.081,544.842L62.82,533.353C62.82,533.363,75.519,523.678,85.876,505.02Z" transform="translate(-1.551 -12.469)" fill="#ffcca9"/>
    <path id="Trazado_144040" data-name="Trazado 144040" d="M53.719,405.66c.527.868,7.832,7.832,10.26,14.61L52.5,407.23Z" transform="translate(-1.296 -10.016)" fill="#8fa7d7" opacity="0.5"/>
    <path id="Trazado_144041" data-name="Trazado 144041" d="M76.941,328.26c-.059-1.044-6.681,86.5-9.519,97.96l22,67.287S77.809,519.772,56.06,533.855c0,0,13.918-2.077,35.833-32.341,0,0-10.962,31.307-26.441,44.533,0,0,24.353-14.435,31.483-58.275L73.976,426.22C73.986,426.21,77.985,347.737,76.941,328.26Z" transform="translate(-1.384 -8.105)" fill="#8fa7d7" opacity="0.5"/>
    <path id="Trazado_144042" data-name="Trazado 144042" d="M273.942,457.79l-10.592,3.053,1.619,9.49,8.973-3.462Z" transform="translate(-6.502 -11.303)" fill="#8fa7d7" opacity="0.5"/>
    <path id="Trazado_144043" data-name="Trazado 144043" d="M270.039,388.76h0l-8.046-65.95,2.5,68.038c-27.016,10.26-56.119,22.51-56.119,22.51s15.459-3.979,34.448-9.041,54.266-24.87,54.266-24.87C289.9,381.563,280.28,384.937,270.039,388.76Z" transform="translate(-5.145 -7.97)" fill="#8fa7d7" opacity="0.5"/>
    <path id="Trazado_144044" data-name="Trazado 144044" d="M307.521,324.51S324.53,370.281,324.706,400c.068,11.05-6.242,20.179-10.787,23.485-44.279,32.185-98.877,33.326-98.877,33.326s-.449,7.373-1.492,8.768c0,0,96.643-6.4,115.116-48.249,0,0,4.2-6.671,3.248-17.146C330.119,380.424,319.137,352.687,307.521,324.51Z" transform="translate(-5.273 -8.012)" fill="#8fa7d7" opacity="0.1"/>
    <path id="Trazado_144045" data-name="Trazado 144045" d="M33.1,307.259c.673-1.756-27.543,70.105-27.289,95.97.527,54.3,40.612,122.792,48.873,130.106l-4.779,2.877S-3.326,457.155.166,403.142C.858,392.472,2.155,387.751,33.1,307.259Z" transform="translate(0 -7.586)" fill="#8fa7d7" opacity="0.1"/>
    <path id="Trazado_144046" data-name="Trazado 144046" d="M212.416,465.524c3.131-31.834-6.018-51.448-4.955-51.925,10.338-4.662,36.018-14.756,56.7-22.773l.878-46.893L159.369,339.66l-2.4,156.1,105.3-4.282.644-34.068A397.684,397.684,0,0,1,212.416,465.524Z" transform="translate(-3.876 -8.386)" fill="#ae376d"/>
    <path id="Trazado_144047" data-name="Trazado 144047" d="M230.634,342.48l.049-1.9-28.664-1.638-.049,2.38Z" transform="translate(-4.987 -8.369)" fill="#a1b5bf"/>
    <path id="Trazado_144048" data-name="Trazado 144048" d="M205.74,344.595a.595.595,0,1,1-.595-.595A.591.591,0,0,1,205.74,344.595Z" transform="translate(-5.05 -8.493)" fill="#a1b5bf"/>
    <path id="Trazado_144049" data-name="Trazado 144049" d="M229.042,345.591a.361.361,0,1,1-.722,0,.366.366,0,0,1,.361-.361A.354.354,0,0,1,229.042,345.591Z" transform="translate(-5.637 -8.524)" fill="#a1b5bf"/>
    <g id="Grupo_72721" data-name="Grupo 72721" transform="translate(196.008 151.856)">
      <g id="Grupo_72720" data-name="Grupo 72720">
        <path id="Trazado_144050" data-name="Trazado 144050" d="M211.611,176.533c-3.014,10.855-8.329,19.165-10.641,18.521,0,0,1.629-6.905,3.794-17.965,2.516-12.816,2.867-21.857,8.115-21.369C215.258,155.944,214.615,165.677,211.611,176.533Z" transform="translate(-200.97 -155.701)" fill="#f0ba92"/>
      </g>
    </g>
    <g id="Grupo_72723" data-name="Grupo 72723" transform="translate(196.008 153.507)" opacity="0.6">
      <g id="Grupo_72722" data-name="Grupo 72722">
        <path id="Trazado_144051" data-name="Trazado 144051" d="M207.573,172.078c-2.741,10.923-4.3,23.651-6.6,23.017,0,0,2.3-9.851,4.467-20.9,2.516-12.816,2.263-17.253,7.5-16.766C212.937,157.429,210.9,158.814,207.573,172.078Z" transform="translate(-200.97 -157.393)" fill="#d88d64"/>
      </g>
    </g>
    <g id="Grupo_72725" data-name="Grupo 72725" transform="translate(111.893 151.865)">
      <g id="Grupo_72724" data-name="Grupo 72724">
        <path id="Trazado_144052" data-name="Trazado 144052" d="M117.451,176.533c3.014,10.855,8.007,19.233,10.309,18.589a186.916,186.916,0,0,1-3.911-18.355c-2-12.913-2.429-21.525-7.676-21.037C113.794,155.944,114.437,165.678,117.451,176.533Z" transform="translate(-114.726 -155.71)" fill="#f0ba92"/>
      </g>
    </g>
    <g id="Grupo_72727" data-name="Grupo 72727" transform="translate(112.951 153.582)" opacity="0.6">
      <g id="Grupo_72726" data-name="Grupo 72726">
        <path id="Trazado_144053" data-name="Trazado 144053" d="M119.887,170.91c2.741,10.923,5.6,24.909,7.9,24.275,0,0-2.458-11.245-4.623-22.3-2.516-12.816-2.107-15.859-7.354-15.371C115.82,157.509,116.561,157.636,119.887,170.91Z" transform="translate(-115.81 -157.47)" fill="#d88d64"/>
      </g>
    </g>
    <g id="Grupo_72729" data-name="Grupo 72729" transform="translate(131.813 204.532)">
      <g id="Grupo_72728" data-name="Grupo 72728">
        <path id="Trazado_144054" data-name="Trazado 144054" d="M192.781,240.92s-3.97,10.475-29.015,10.475-28.616-9.851-28.616-9.851V209.71h57.221Z" transform="translate(-135.15 -209.71)" fill="#f0ba92"/>
      </g>
    </g>
    <g id="Grupo_72731" data-name="Grupo 72731" transform="translate(131.823 196.193)" opacity="0.6">
      <g id="Grupo_72730" data-name="Grupo 72730">
        <path id="Trazado_144055" data-name="Trazado 144055" d="M192.42,217.594c-5.169,10.8-25.387,19.272-28.645,19.272s-20.442-6.515-28.616-19.1V201.16h57.221Z" transform="translate(-135.16 -201.16)" fill="#d88d64"/>
      </g>
    </g>
    <g id="Grupo_72733" data-name="Grupo 72733" transform="translate(114.436 99.247)">
      <g id="Grupo_72732" data-name="Grupo 72732">
        <path id="Trazado_144056" data-name="Trazado 144056" d="M198.9,193.722c-9.539,31.337-35.579,31.863-35.579,31.863s-27.5-.078-35.726-32.614c-5.423-21.467-18.472-54.344-2.828-78.717,8.856-13.791,73.216-19.3,80.8,0S204.493,175.347,198.9,193.722Z" transform="translate(-117.333 -101.759)" fill="#ffcca9"/>
      </g>
    </g>
    <g id="Grupo_72734" data-name="Grupo 72734" transform="translate(145.675 189.051)">
      <path id="Trazado_144057" data-name="Trazado 144057" d="M178.127,194.859c1.053.878-2.194,12.211-13.976,12.338-10,.107-15-10.172-14.1-11.7,1.122-1.892,5.1-.614,13.693-.614C172.353,194.879,176.985,193.894,178.127,194.859Z" transform="translate(-149.377 -193.852)" fill="#fff"/>
    </g>
    <path id="Trazado_144060" data-name="Trazado 144060" d="M209.347,424.389l-10.787,1.638c-13.781,1.2-18.872-9.421-31.044-7.841s-10.719,6.408-10.719,6.408c-8.066.215-5.94,11.392-5.94,11.392-3.813,5.676.156,12.23.156,12.23-2.78,3.93.917,9.87.917,9.87,1.034,6.466,8.885,11.811,17.312,12.7.283.029.575.049.858.068.3.02.6.049.907.049.322.01.634,0,.956,0,.449-.01.888-.02,1.336-.059h.088c.029,0,.049-.01.078-.01.38-.029.761-.049,1.141-.1C184.789,469.351,212.839,458,212.839,458,213.268,436.083,209.347,424.389,209.347,424.389Z" transform="translate(-3.684 -10.321)" fill="#ffcca9"/>
    <path id="Trazado_144061" data-name="Trazado 144061" d="M156.978,424.75s6.983,1.365,10.767,1.629a144.939,144.939,0,0,1,14.62,2.214s-11.353-.946-14.7-1.161C165.131,427.276,155.925,424.848,156.978,424.75Z" transform="translate(-3.874 -10.487)" fill="#d88d64"/>
    <path id="Trazado_144062" data-name="Trazado 144062" d="M159.007,439.388s-5.13-2.1-6.632-4.145a9.592,9.592,0,0,1-1.6-4.213,17.151,17.151,0,0,0,.107,5.257Z" transform="translate(-3.718 -10.642)" fill="#d88d64"/>
    <path id="Trazado_144063" data-name="Trazado 144063" d="M159.18,451.875a44.471,44.471,0,0,1-6.856-3.735,10.6,10.6,0,0,1-3.014-4.36,12.7,12.7,0,0,0,1.746,5Z" transform="translate(-3.686 -10.957)" fill="#d88d64"/>
    <path id="Trazado_144064" data-name="Trazado 144064" d="M160.125,462.017a44.472,44.472,0,0,1-6.856-3.735,12.115,12.115,0,0,1-3.209-4.681A14.031,14.031,0,0,0,152,458.925Z" transform="translate(-3.705 -11.199)" fill="#d88d64"/>
    <path id="Trazado_144065" data-name="Trazado 144065" d="M157.994,421.82s-1.239,2.838.995,3.228l.361.507-2.37-.888A3.662,3.662,0,0,1,157.994,421.82Z" transform="translate(-3.875 -10.415)" fill="#d88d64"/>
    <g id="Grupo_72740" data-name="Grupo 72740" transform="translate(95.366 230.339)" opacity="0.1">
      <g id="Grupo_72737" data-name="Grupo 72737" transform="translate(0 20.062)">
        <g id="Grupo_72736" data-name="Grupo 72736">
          <path id="Trazado_144066" data-name="Trazado 144066" d="M117.9,288l.507-31.259-2.614.507-.507,30.947c-14.161,2.419-16.99,27.572-17.478,59.64a.01.01,0,0,0,.01.01l-.039,1.795c0,6.544,3.482,8.183,7.929,8.875a40.058,40.058,0,0,0,4.9.4,2.669,2.669,0,0,0,5.111-1.083v-2.185a2.676,2.676,0,0,0-2.672-2.672,2.639,2.639,0,0,0-2.594,2.311c-3.55-.176-7.92-.936-9.343-3.56-1.385-2.565-.575-8-.458-11.665.936-28.04,3.979-49.351,17-49.351,12.991,0,19.067,21.252,20.013,49.234.117,3.511.731,8.671-.585,11.284-1.19,2.37-4.389,3.414-7.568,3.852a2.665,2.665,0,0,0-5.218,1.024l.263,2.165a2.668,2.668,0,0,0,5.228.371c5.1-.7,10.875-2.965,10.689-9.646l-.029-2.624.029-.117C139.826,313.464,133.428,288.321,117.9,288Z" transform="translate(-97.78 -256.74)" fill="#0e3368"/>
        </g>
      </g>
      <g id="Grupo_72739" data-name="Grupo 72739" transform="translate(114.345)">
        <g id="Grupo_72738" data-name="Grupo 72738">
          <path id="Trazado_144067" data-name="Trazado 144067" d="M247.625,312.751c-2.633-61.942-31.376-76.006-32.6-76.581,0,0,1.668,1.326,8.866,11.294,7.5,10.387,19.155,29.1,20.725,65.356a12.748,12.748,0,1,0,3.014-.068Z" transform="translate(-215.02 -236.17)" fill="#0e3368"/>
        </g>
      </g>
      <path id="Trazado_144068" data-name="Trazado 144068" d="M263.017,460.322l-.517,34.321-95.463,3.648h0l-.146,12.065,102.134-4.33v-47.2Z" transform="translate(-99.486 -241.668)" fill="#0e3368"/>
    </g>
    <g id="Grupo_72742" data-name="Grupo 72742" transform="translate(91.747 278.636)">
      <g id="Grupo_72741" data-name="Grupo 72741">
        <path id="Trazado_144069" data-name="Trazado 144069" d="M136.75,343.731c-.634-32.995-5.579-58.041-21.34-58.041-16.015,0-20.8,25.865-21.311,59.63a.01.01,0,0,0,.01.01l-.039,1.795c0,6.544,3.482,8.183,7.929,8.875a40.058,40.058,0,0,0,4.9.4,2.669,2.669,0,0,0,5.111-1.083v-2.185a2.676,2.676,0,0,0-2.672-2.672,2.639,2.639,0,0,0-2.594,2.311c-3.55-.176-7.92-.936-9.343-3.56-1.385-2.565-.575-8-.458-11.665.936-28.04,5.5-49.126,18.511-49.126,12.991,0,17.556,21.028,18.5,49.009.117,3.511.731,8.671-.585,11.284-1.19,2.37-4.389,3.414-7.568,3.852a2.665,2.665,0,0,0-5.218,1.024l.263,2.165a2.668,2.668,0,0,0,5.228.371c5.1-.7,10.875-2.965,10.689-9.646l-.029-2.624A.268.268,0,0,1,136.75,343.731Z" transform="translate(-94.07 -285.69)" fill="#383f47"/>
      </g>
    </g>
    <g id="Grupo_72744" data-name="Grupo 72744" transform="translate(110.766 250.908)">
      <g id="Grupo_72743" data-name="Grupo 72743">
        <path id="Trazado_144070" data-name="Trazado 144070" d="M116.184,286.344H113.57V257.767l2.614-.507Z" transform="translate(-113.57 -257.26)" fill="#383f47"/>
      </g>
    </g>
    <g id="Grupo_72746" data-name="Grupo 72746" transform="translate(203.05 221.756)">
      <g id="Grupo_72745" data-name="Grupo 72745">
        <path id="Trazado_144071" data-name="Trazado 144071" d="M237.839,305.287c-1.356-37.1-13.2-56.119-20.784-66.623-7.208-9.977-8.866-11.294-8.866-11.294,1.239.575,30.371,14.805,32.663,77.81Z" transform="translate(-208.19 -227.37)" fill="#383f47"/>
      </g>
    </g>
    <g id="Grupo_72748" data-name="Grupo 72748" transform="translate(203.001 221.717)">
      <g id="Grupo_72747" data-name="Grupo 72747">
        <path id="Trazado_144072" data-name="Trazado 144072" d="M239.516,305.989c-2.019-38.573-11.236-55.476-18.823-65.98-7.208-9.977-12.552-12.679-12.552-12.679,1.239.575,30.41,16,32.7,78.99Z" transform="translate(-208.14 -227.33)" fill="#1a2026"/>
      </g>
    </g>
    <g id="Grupo_72751" data-name="Grupo 72751" transform="translate(221.288 297.908)">
      <g id="Grupo_72749" data-name="Grupo 72749" transform="translate(0.371 0.371)">
        <path id="Trazado_144073" data-name="Trazado 144073" d="M252.784,318.587a12.757,12.757,0,1,1-12.757-12.757A12.762,12.762,0,0,1,252.784,318.587Z" transform="translate(-227.27 -305.83)" fill="#bcbcbc"/>
      </g>
      <g id="Grupo_72750" data-name="Grupo 72750">
        <path id="Trazado_144074" data-name="Trazado 144074" d="M240.018,331.705a13.128,13.128,0,1,1,13.128-13.128A13.145,13.145,0,0,1,240.018,331.705Zm0-25.514A12.386,12.386,0,1,0,252.4,318.578,12.4,12.4,0,0,0,240.018,306.191Z" transform="translate(-226.89 -305.45)" fill="#444"/>
      </g>
    </g>
    <g id="Grupo_72753" data-name="Grupo 72753" transform="translate(237.527 306.54)" opacity="0.3">
      <g id="Grupo_72752" data-name="Grupo 72752">
        <path id="Trazado_144075" data-name="Trazado 144075" d="M246.759,330.334l-3.219-6.778,2.272-6.242,7.042-3.014s4.106,9.022-6.1,16.034Z" transform="translate(-243.54 -314.3)" fill="#fff"/>
      </g>
    </g>
    <g id="Grupo_72755" data-name="Grupo 72755" transform="translate(228.671 305.935)">
      <g id="Grupo_72754" data-name="Grupo 72754">
        <path id="Trazado_144076" data-name="Trazado 144076" d="M245.93,319.707a5.742,5.742,0,1,1-5.735-6.027A5.887,5.887,0,0,1,245.93,319.707Z" transform="translate(-234.46 -313.68)" fill="#635b53"/>
      </g>
    </g>
    <g id="Grupo_72757" data-name="Grupo 72757" transform="translate(221.161 297.821)" opacity="0.4">
      <g id="Grupo_72756" data-name="Grupo 72756">
        <path id="Trazado_144077" data-name="Trazado 144077" d="M238.005,305.36l.7,7.744-4.291,5.072-7.646.39c0,.01-.761-10.153,11.236-13.206Z" transform="translate(-226.76 -305.36)" fill="#fff"/>
      </g>
    </g>
    <g id="Grupo_72760" data-name="Grupo 72760" transform="translate(228.944 305.555)">
      <g id="Grupo_72758" data-name="Grupo 72758" transform="translate(0.371 0.38)">
        <path id="Trazado_144078" data-name="Trazado 144078" d="M245.322,318.781a5.1,5.1,0,1,1-5.1-5.1A5.1,5.1,0,0,1,245.322,318.781Z" transform="translate(-235.12 -313.68)" fill="#d3d3d3"/>
      </g>
      <g id="Grupo_72759" data-name="Grupo 72759">
        <path id="Trazado_144079" data-name="Trazado 144079" d="M240.211,324.233a5.471,5.471,0,1,1,5.471-5.471A5.482,5.482,0,0,1,240.211,324.233Zm0-10.192a4.73,4.73,0,1,0,4.73,4.73A4.735,4.735,0,0,0,240.211,314.041Z" transform="translate(-234.74 -313.29)" fill="#a8a6a0"/>
      </g>
    </g>
    <g id="Grupo_72762" data-name="Grupo 72762" transform="translate(232.416 309.632)">
      <g id="Grupo_72761" data-name="Grupo 72761">
        <path id="Trazado_144080" data-name="Trazado 144080" d="M242.3,319.469a2,2,0,1,1-2-2A2,2,0,0,1,242.3,319.469Z" transform="translate(-238.3 -317.47)" fill="#bababa"/>
      </g>
    </g>
    <g id="Grupo_72764" data-name="Grupo 72764" transform="translate(232.407 309.037)">
      <g id="Grupo_72763" data-name="Grupo 72763">
        <circle id="Elipse_4446" data-name="Elipse 4446" cx="1.999" cy="1.999" r="1.999" fill="#fff"/>
      </g>
    </g>
    <g id="Grupo_72766" data-name="Grupo 72766" transform="translate(105.304 344.518)">
      <g id="Grupo_72765" data-name="Grupo 72765">
        <path id="Trazado_144081" data-name="Trazado 144081" d="M109.745,358.409h-1.336a.437.437,0,0,1-.439-.439v-4.291a.437.437,0,0,1,.439-.439h1.336a.437.437,0,0,1,.439.439v4.291A.437.437,0,0,1,109.745,358.409Z" transform="translate(-107.97 -353.24)" fill="#aaa9a2"/>
      </g>
    </g>
    <g id="Grupo_72768" data-name="Grupo 72768" transform="translate(119.835 344.468)">
      <g id="Grupo_72767" data-name="Grupo 72767">
        <path id="Trazado_144082" data-name="Trazado 144082" d="M125.074,358.33l-1.326.127a.444.444,0,0,1-.478-.39l-.4-4.272a.444.444,0,0,1,.39-.478l1.326-.127a.444.444,0,0,1,.478.39l.4,4.272A.425.425,0,0,1,125.074,358.33Z" transform="translate(-122.868 -353.189)" fill="#aaa9a2"/>
      </g>
    </g>
    <g id="Grupo_72770" data-name="Grupo 72770" transform="translate(229.968 306.657)" opacity="0.4">
      <g id="Grupo_72769" data-name="Grupo 72769">
        <path id="Trazado_144083" data-name="Trazado 144083" d="M238.93,314.42a4.45,4.45,0,0,0-3.141,3.7l2.867.215.761-.761Z" transform="translate(-235.79 -314.42)" fill="#fff"/>
      </g>
    </g>
    <g id="Grupo_72772" data-name="Grupo 72772" transform="translate(235.606 310.217)" opacity="0.4">
      <g id="Grupo_72771" data-name="Grupo 72771">
        <path id="Trazado_144084" data-name="Trazado 144084" d="M243.111,322.625a4.434,4.434,0,0,0,1.668-4.555l-2.76.79-.449.975Z" transform="translate(-241.57 -318.07)" fill="#fff"/>
      </g>
    </g>
    <g id="Grupo_72774" data-name="Grupo 72774" transform="translate(111.888 104.76)">
      <g id="Grupo_72773" data-name="Grupo 72773">
        <path id="Trazado_144085" data-name="Trazado 144085" d="M121.771,172.083s-5.5-21.808-6.486-32.819-2.136-25.807,10.27-30.839,8.592,10.338,8.592,10.338-9.812,6.6-11.772,23.125C121.313,150.87,121.771,172.083,121.771,172.083Z" transform="translate(-114.72 -107.412)" fill="#2a445d"/>
      </g>
    </g>
    <g id="Grupo_72776" data-name="Grupo 72776" transform="translate(189.106 104.76)">
      <g id="Grupo_72775" data-name="Grupo 72775">
        <path id="Trazado_144086" data-name="Trazado 144086" d="M206.218,171.761s6.105-21.476,7.09-32.5,2.136-25.807-10.27-30.839-8.592,10.338-8.592,10.338,9.812,6.6,11.772,23.125C207.281,150.87,206.218,171.761,206.218,171.761Z" transform="translate(-193.893 -107.412)" fill="#2a445d"/>
      </g>
    </g>
    <g id="Grupo_72778" data-name="Grupo 72778" transform="translate(122.513 80.357)">
      <g id="Grupo_72777" data-name="Grupo 72777">
        <path id="Trazado_144087" data-name="Trazado 144087" d="M194.4,123.431s-15.117,2.409-25.251-2.351c-2.965-1.395-17.37,4.73-23.983,3.492-12.669-2.37-18.229-12.679-18.482-13.742-.731-3.1-3.765-7.52,5.393-14.4,12.669-9.5,28.294-7.2,30.917-9.977s5.247-4.477,10.309-3.979c13.576,1.356,14.24,9.324,21.876,10.514,9.938,1.551,13.293,5.559,13.937,13.9C210.335,122.787,194.4,123.431,194.4,123.431Z" transform="translate(-125.615 -82.392)" fill="#2a445d"/>
      </g>
    </g>
    <g id="Grupo_72780" data-name="Grupo 72780" transform="translate(130.116 82.306)">
      <g id="Grupo_72779" data-name="Grupo 72779">
        <path id="Trazado_144088" data-name="Trazado 144088" d="M165.8,84.39s-4.252,3.053-14.942,15.488-16.249,11.665-17.448,11.889c0,0,9.226,1.59,18.97-11.236C162.143,87.706,165.8,84.39,165.8,84.39Z" transform="translate(-133.41 -84.39)" fill="#1f384c"/>
      </g>
    </g>
    <g id="Grupo_72782" data-name="Grupo 72782" transform="translate(179.272 113.78)">
      <g id="Grupo_72781" data-name="Grupo 72781">
        <path id="Trazado_144089" data-name="Trazado 144089" d="M183.81,123.868s17.829,2.107,25.6-7.208c0,0-1.639,9.743-25.192,7.373Z" transform="translate(-183.81 -116.66)" fill="#1f384c"/>
      </g>
    </g>
    <g id="Grupo_72784" data-name="Grupo 72784" transform="translate(123.005 103.246)">
      <g id="Grupo_72783" data-name="Grupo 72783">
        <path id="Trazado_144090" data-name="Trazado 144090" d="M153.068,123.864c-21.008,2.936-27.045-14.405-26.948-14.083,3.306,10.524,11.674,14.571,17.79,16.141a27.949,27.949,0,0,0,5.471.936c.985.078,1.6.078,1.6.078a.1.1,0,0,1,.039-.01c20.091.176,36.36-21.067,36.36-21.067C173.744,117.593,161.65,122.177,153.068,123.864Z" transform="translate(-126.119 -105.86)" fill="#1f384c"/>
      </g>
    </g>
    <g id="Grupo_72803" data-name="Grupo 72803" transform="translate(114.638 150.744)">
      <g id="Grupo_72802" data-name="Grupo 72802">
        <path id="Trazado_144102" data-name="Trazado 144102" d="M188.572,161.368a9.447,9.447,0,0,0-18.346,1.463.01.01,0,0,0-.01.01,8.917,8.917,0,0,0-13.011-.507,9.457,9.457,0,0,0-18.316-1.19c-15.781-5.589-19.672-6.33-20.716-6.135-.312.059-.575.527-.634.79l.81.332s.137-.2.166-.2c1.375-.156,11.187,3.033,20.072,6.174a9.285,9.285,0,0,0-.2,1.96,9.47,9.47,0,0,0,17.7,4.711,2.831,2.831,0,0,0,.81-.273,2.52,2.52,0,0,0,.731-.546,2.955,2.955,0,0,0,.741-1.609,4.571,4.571,0,0,0-.556-3.18,7.915,7.915,0,0,1,11.733.419,4.769,4.769,0,0,0-.439,2.994,2.955,2.955,0,0,0,.741,1.609,2.657,2.657,0,0,0,.731.546,2.734,2.734,0,0,0,.81.273,9.47,9.47,0,0,0,17.7-4.711,9.8,9.8,0,0,0-.2-1.951c9.022-3.2,18.823-6.457,19.945-6.183-.039-.01,1-.419,1-.419C209.5,155.057,209.083,154.1,188.572,161.368Zm-40.7,11.177a8.495,8.495,0,1,1,8.495-8.495A8.508,8.508,0,0,1,147.872,172.545Zm9.47-5.745a1.614,1.614,0,0,1-.41.556,1.892,1.892,0,0,1-.234.146,9.274,9.274,0,0,0,.644-3.17,1.812,1.812,0,0,1,.2.556A4,4,0,0,1,157.342,166.8Zm13.167.8a1.911,1.911,0,0,1-.41-.556,4,4,0,0,1-.2-1.912,1.811,1.811,0,0,1,.2-.556,9.46,9.46,0,0,0,.644,3.17C170.675,167.688,170.577,167.658,170.509,167.6Zm9.07,5.179a8.495,8.495,0,1,1,8.495-8.495A8.508,8.508,0,0,1,179.579,172.779Z" transform="translate(-117.54 -154.56)" fill="#302420"/>
      </g>
    </g>
    <g id="Grupo_72807" data-name="Grupo 72807" transform="translate(94.138 280.209)">
      <g id="Grupo_72806" data-name="Grupo 72806">
        <path id="Trazado_144104" data-name="Trazado 144104" d="M96.647,344.99s-2.477-50.375,14.532-56.919a12.179,12.179,0,0,1,10.192.819c9.012,4.75,11.245,21.993,11.938,29.825.9,10.143,2.272,24.89.488,29.025,0,0,.634-23.437-3.3-40.524s-11.323-18.97-16.054-18.706-10.231,5.569-13.3,15.927S96.647,344.99,96.647,344.99Z" transform="translate(-96.521 -287.303)" fill="#1a2026"/>
      </g>
    </g>
    <g id="Grupo_72809" data-name="Grupo 72809" transform="translate(91.816 341.607)">
      <g id="Grupo_72808" data-name="Grupo 72808">
        <path id="Trazado_144105" data-name="Trazado 144105" d="M94.14,350.26c-.01-.176,1.18,4.447,5.706,5.491s6.886-1.395,6.886-1.395-.322,2.9.166,3.628C106.887,357.984,94.54,359.311,94.14,350.26Z" transform="translate(-94.14 -350.255)" fill="#1a2026"/>
      </g>
    </g>
    <g id="Grupo_72811" data-name="Grupo 72811" transform="translate(123.455 338.175)">
      <g id="Grupo_72810" data-name="Grupo 72810">
        <path id="Trazado_144106" data-name="Trazado 144106" d="M137.533,346.74a8.352,8.352,0,0,1-.722,3.862c-1.58,3.16-3,3.316-4.681,4.194-4.106,2.175-5.55-.731-5.55-.731a12.362,12.362,0,0,1,.273,3.56C126.863,357.624,138.45,357.254,137.533,346.74Z" transform="translate(-126.58 -346.736)" fill="#1a2026"/>
      </g>
    </g>
    <g id="Grupo_72813" data-name="Grupo 72813" transform="translate(110.766 250.908)">
      <g id="Grupo_72812" data-name="Grupo 72812">
        <path id="Trazado_144107" data-name="Trazado 144107" d="M113.57,257.767l2.614-.507-.166,1.336-2.448.478Z" transform="translate(-113.57 -257.26)" fill="#1a2026"/>
      </g>
    </g>
  </g>
</svg>
