<svg xmlns="http://www.w3.org/2000/svg" xmlns:xlink="http://www.w3.org/1999/xlink" width="321.308" height="258.347" viewBox="0 0 321.308 258.347">
  <defs>
    <clipPath id="clip-path">
      <rect id="Rectángulo_32465" data-name="Rectángulo 32465" width="122.874" height="32.627" fill="none"/>
    </clipPath>
    <clipPath id="clip-path-2">
      <rect id="Rectángulo_32469" data-name="Rectángulo 32469" width="143.212" height="83.857" fill="none"/>
    </clipPath>
    <clipPath id="clip-path-3">
      <rect id="Rectángulo_32475" data-name="Rectángulo 32475" width="56.003" height="36.212" fill="none"/>
    </clipPath>
  </defs>
  <g id="Grupo_73219" data-name="Grupo 73219" transform="translate(3324.672 -4997)">
    <g id="Grupo_73202" data-name="Grupo 73202" transform="translate(-3231.392 5124.271)">
      <rect id="Rectángulo_32456" data-name="Rectángulo 32456" width="194.219" height="4.443" transform="translate(0.001 126.633)" fill="#21285f"/>
      <rect id="Rectángulo_32457" data-name="Rectángulo 32457" width="155.492" height="97.439" transform="translate(19.36 0)" fill="#21285f"/>
      <path id="Trazado_144993" data-name="Trazado 144993" d="M-2988.169,5370.721h-194.21l19.421-29.2h155.368Z" transform="translate(3182.379 -5244.083)" fill="#101959" fill-rule="evenodd"/>
      <path id="Trazado_144994" data-name="Trazado 144994" d="M-3008.467,5349.618h3.86l2.328,3.524h-6.188Zm-37.584,3.524h35.673v-3.524h-35.673Zm-9.83,0h7.918v-3.524h-7.918Zm-9.83,0h7.919v-3.524h-7.919Zm-9.83,0h7.918v-3.524h-7.918Zm-9.83,0h7.918v-3.524h-7.918Zm-10.372,0h8.46v-3.524h-8.46Zm-9.83,0h7.919v-3.524h-7.919Zm-9.831,0h7.919v-3.524h-7.919Zm-9.83,0h7.919v-3.524h-7.919Zm-1.911-3.524v3.524h-26.812l2.329-3.524Zm118.678,5.23h7.315l2.768,4.192h-10.083Zm-37.584,4.192h35.673v-4.192h-35.673Zm-9.83,0h7.918v-4.192h-7.918Zm-9.83,0h7.919v-4.192h-7.919Zm-9.83,0h7.918v-4.192h-7.918Zm-9.83,0h7.918v-4.192h-7.918Zm-10.372,0h8.46v-4.192h-8.46Zm-9.83,0h7.919v-4.192h-7.919Zm-9.831,0h7.919v-4.192h-7.919Zm-9.83,0h7.919v-4.192h-7.919Zm-1.911-4.192v4.192h-30.707l2.768-4.192Zm81.094,6.717h49.335l4.076,6.169h-53.411Zm-9.83,6.169h7.918v-6.17h-7.918Zm-9.83,0h7.919v-6.17h-7.919Zm-9.83,0h7.918v-6.17h-7.918Zm-9.83,0h7.918v-6.17h-7.918Zm-1.911-6.169v6.169h-76.312l4.075-6.169Z" transform="translate(3175.909 -5246.871)" fill="#21285f" fill-rule="evenodd"/>
      <rect id="Rectángulo_32458" data-name="Rectángulo 32458" width="143.212" height="83.857" transform="translate(25.499 7.005)" fill="#d2d7fd"/>
      <text id="CUSTOMER_SUPPORT" data-name="CUSTOMER
SUPPORT" transform="translate(93.353 26.852)" fill="#4e5cca" font-size="10" font-family="Montserrat-Bold, Montserrat" font-weight="700"><tspan x="-29.78" y="0">CUSTOMER</tspan><tspan x="-25.335" y="12">SUPPORT</tspan></text>
      <g id="Grupo_73199" data-name="Grupo 73199" transform="translate(35.349 53.002)">
        <rect id="Rectángulo_32459" data-name="Rectángulo 32459" width="122.874" height="32.627" fill="#f1f3ff"/>
        <rect id="Rectángulo_32460" data-name="Rectángulo 32460" width="122.874" height="3.634" fill="#4e5cca"/>
        <g id="Grupo_73198" data-name="Grupo 73198">
          <g id="Grupo_73197" data-name="Grupo 73197" clip-path="url(#clip-path)">
            <g id="Grupo_73196" data-name="Grupo 73196" transform="translate(5.786 8.685)">
              <rect id="Rectángulo_32461" data-name="Rectángulo 32461" width="32.297" height="26.995" fill="#e2e8f7"/>
              <rect id="Rectángulo_32462" data-name="Rectángulo 32462" width="42.003" height="11.096" transform="translate(36.256)" fill="#e2e8f7"/>
              <rect id="Rectángulo_32463" data-name="Rectángulo 32463" width="42.003" height="15.012" transform="translate(36.256 14.163)" fill="#e2e8f7"/>
              <rect id="Rectángulo_32464" data-name="Rectángulo 32464" width="28.586" height="28.586" transform="translate(81.988)" fill="#e2e8f7"/>
            </g>
          </g>
        </g>
      </g>
      <g id="Grupo_73201" data-name="Grupo 73201" transform="translate(25.499 7.005)">
        <g id="Grupo_73200" data-name="Grupo 73200" clip-path="url(#clip-path-2)">
          <rect id="Rectángulo_32466" data-name="Rectángulo 32466" width="200.101" height="25.03" transform="translate(-32.711 96.896) rotate(-44.999)" fill="#fff" opacity="0.192"/>
          <rect id="Rectángulo_32467" data-name="Rectángulo 32467" width="200.101" height="13.283" transform="translate(-7.71 121.897) rotate(-44.998)" fill="#fff" opacity="0.192"/>
          <rect id="Rectángulo_32468" data-name="Rectángulo 32468" width="200.101" height="9.039" transform="translate(19.876 147.787) rotate(-45)" fill="#fff" opacity="0.192"/>
        </g>
      </g>
    </g>
    <g id="Grupo_73204" data-name="Grupo 73204" transform="translate(-3324.672 5019.912)">
      <path id="Trazado_144995" data-name="Trazado 144995" d="M-3222.9,5177.434l20.59,16.148-.743-22.587a7.236,7.236,0,0,0,.037-.728v-129.41a7.17,7.17,0,0,0-7.167-7.167h-107.325a7.17,7.17,0,0,0-7.166,7.167v129.41a7.169,7.169,0,0,0,7.166,7.167Z" transform="translate(3324.672 -5033.691)" fill="#8b98fd" fill-rule="evenodd"/>
      <path id="Rectángulo_32470" data-name="Rectángulo 32470" d="M6.334,0h99.511a6.333,6.333,0,0,1,6.333,6.333V127.266a6.332,6.332,0,0,1-6.332,6.332H6.332A6.332,6.332,0,0,1,0,127.266V6.334A6.334,6.334,0,0,1,6.334,0Z" transform="translate(4.706 5.283)" fill="#f1f3ff"/>
      <path id="Trazado_144996" data-name="Trazado 144996" d="M-3240.105,5055.122a14.169,14.169,0,0,1,14.163,14.163,14.169,14.169,0,0,1-14.163,14.161,14.169,14.169,0,0,1-14.163-14.161A14.169,14.169,0,0,1-3240.105,5055.122Z" transform="translate(3300.422 -5041.073)" fill="#fba454" fill-rule="evenodd"/>
      <path id="Trazado_144997" data-name="Trazado 144997" d="M-3278.052,5129.046a29.883,29.883,0,0,1,29.754-27.285,29.884,29.884,0,0,1,29.754,27.285,133.912,133.912,0,0,1-29.754,3.214A133.9,133.9,0,0,1-3278.052,5129.046Z" transform="translate(3308.614 -5057.137)" fill="#fba454" fill-rule="evenodd"/>
      <path id="Trazado_144998" data-name="Trazado 144998" d="M-3279.532,5185.474a16.168,16.168,0,0,1,16.16,16.159,16.168,16.168,0,0,1-16.16,16.16,16.167,16.167,0,0,1-16.159-16.16A16.167,16.167,0,0,1-3279.532,5185.474Z" transform="translate(3314.69 -5085.973)" fill="#5edbbb" fill-rule="evenodd"/>
      <path id="Trazado_144999" data-name="Trazado 144999" d="M-3281.4,5203c-.1-.382-1.248-5.082.28-5.652,3.2-1.2,5.767-.012,6.039,1.734.546,3.509-1.223,3.926-2.941,3.894a11.7,11.7,0,0,0,4.11,5.181c.552-1.583,1.564-3,4.612-1.351,1.556.84,1.814,3.654-.384,6.271-.782.932-3.236-.313-4.564-1.093-1.376-.749-5.947-3.6-7.153-8.983Z" transform="translate(3309.94 -5089.896)" fill="#fff" fill-rule="evenodd"/>
      <circle id="Elipse_4520" data-name="Elipse 4520" cx="16.16" cy="16.16" r="16.16" transform="translate(68.465 99.502)" fill="#ec5e56"/>
      <path id="Trazado_145000" data-name="Trazado 145000" d="M-3199.334,5204.61l-5.381-5.381-1.761,1.762,5.38,5.38-5.38,5.38,1.761,1.761,5.381-5.38,5.38,5.38,1.762-1.761-5.381-5.38,5.381-5.38-1.762-1.762Z" transform="translate(3283.96 -5090.71)" fill="#fff" fill-rule="evenodd"/>
      <g id="Grupo_73203" data-name="Grupo 73203" transform="translate(25.101 82.458)">
        <rect id="Rectángulo_32471" data-name="Rectángulo 32471" width="70.43" height="1.51" fill="#c6cdfd"/>
        <rect id="Rectángulo_32472" data-name="Rectángulo 32472" width="70.43" height="1.51" transform="translate(0 7.783)" fill="#c6cdfd"/>
      </g>
    </g>
    <g id="Grupo_73205" data-name="Grupo 73205" transform="translate(-3200.11 5072.156)">
      <path id="Trazado_145001" data-name="Trazado 145001" d="M-3120.863,5211.2v-38a56.358,56.358,0,0,1,56.332-56.33,56.357,56.357,0,0,1,56.331,56.33v38h-9.713v-38a46.64,46.64,0,0,0-46.618-46.618,46.64,46.64,0,0,0-46.618,46.618v38Z" transform="translate(3129.908 -5114.588)" fill="#ec5e56" fill-rule="evenodd"/>
      <path id="Trazado_145002" data-name="Trazado 145002" d="M-2992.918,5260.906s-1.665,10.238-7.055,18.134c-3.077,4.507-7.3,8.951-13.333,10a53.144,53.144,0,0,1-19.013-.2c-3.721-.769-11.406-1.879-7.668-7.339,1.514-2.211-4.281-3.161-6.616-1.845a4.86,4.86,0,0,0-1.844,6.616c3.192,5.663,8.141,8.732,14.865,10.123,5.552,1.146,12.492,1.081,20.684.666,8.769-.443,15.557-6.134,20.332-13.13,6.386-9.356,9.1-20.782,9.1-20.782a4.859,4.859,0,0,0-3.607-5.845A4.859,4.859,0,0,0-2992.918,5260.906Z" transform="translate(3105.18 -5162.912)" fill="#ec5e56" fill-rule="evenodd"/>
      <path id="Trazado_145003" data-name="Trazado 145003" d="M-2952.6,5198.249l-17.515-.137s-6.09,26.767.568,45.807l16.889.444Z" transform="translate(3078.86 -5142.57)" fill="#fc9331" fill-rule="evenodd"/>
      <path id="Trazado_145004" data-name="Trazado 145004" d="M-2944.7,5198.244c2.722,0,4.932,10.342,4.932,23.082s-2.21,23.082-4.932,23.082-4.933-10.343-4.933-23.082S-2947.427,5198.244-2944.7,5198.244Z" transform="translate(3070.93 -5142.615)" fill="#fba454" fill-rule="evenodd"/>
      <path id="Trazado_145005" data-name="Trazado 145005" d="M-3127.194,5198.249l17.516-.137s6.089,26.767-.569,45.807l-16.888.444Z" transform="translate(3132.089 -5142.57)" fill="#fc9331" fill-rule="evenodd"/>
      <path id="Trazado_145006" data-name="Trazado 145006" d="M-3129.729,5198.244c-2.723,0-4.932,10.342-4.932,23.082s2.209,23.082,4.932,23.082,4.932-10.343,4.932-23.082S-3127.007,5198.244-3129.729,5198.244Z" transform="translate(3134.661 -5142.615)" fill="#fba454" fill-rule="evenodd"/>
      <path id="Rectángulo_32473" data-name="Rectángulo 32473" d="M4.427,0H16.652a4.425,4.425,0,0,1,4.425,4.425V7.18a4.427,4.427,0,0,1-4.427,4.427H4.427A4.427,4.427,0,0,1,0,7.18V4.427A4.427,4.427,0,0,1,4.427,0Z" transform="translate(50.207 113.034)" fill="#fba454"/>
      <path id="Trazado_145007" data-name="Trazado 145007" d="M-3023.169,5130.893a3.543,3.543,0,0,1-4.487,1.4c-5.719-2.479-19.44-6.975-34.616-1.613a3.522,3.522,0,0,1-4.461-1.995c-.824-1.989-1.849-4.529-2.637-6.482a3.541,3.541,0,0,1,1.782-4.535,52.315,52.315,0,0,1,46.568,2.547,3.526,3.526,0,0,1,1.7,2.175,3.529,3.529,0,0,1-.387,2.733C-3020.77,5126.918-3022.122,5129.158-3023.169,5130.893Z" transform="translate(3112.26 -5113.386)" fill="#fba454" fill-rule="evenodd"/>
    </g>
    <g id="Grupo_73213" data-name="Grupo 73213" transform="translate(-3089.963 5008.454)">
      <g id="Grupo_73212" data-name="Grupo 73212" transform="translate(0 0)">
        <path id="Trazado_145015" data-name="Trazado 145015" d="M-2880.04,5057.642c0-22.866-19.4-41.429-43.3-41.429s-43.3,18.563-43.3,41.429a40.744,40.744,0,0,0,15.685,31.909l-1.06,18.065,15.362-10.553a45.085,45.085,0,0,0,13.314,2.008C-2899.441,5099.071-2880.04,5080.507-2880.04,5057.642Z" transform="translate(2966.639 -5016.213)" fill="#c6cdfd" fill-rule="evenodd"/>
        <g id="Grupo_73211" data-name="Grupo 73211" transform="translate(13.952 26.658)">
          <rect id="Rectángulo_32474" data-name="Rectángulo 32474" width="56.003" height="36.212" fill="#8b98fd"/>
          <g id="Grupo_73210" data-name="Grupo 73210">
            <g id="Grupo_73209" data-name="Grupo 73209" clip-path="url(#clip-path-3)">
              <path id="Trazado_145016" data-name="Trazado 145016" d="M-2918.085,5086.782l-29.464,17.74h58.927Z" transform="translate(2946.112 -5067.179)" fill="#7482fd" fill-rule="evenodd"/>
              <path id="Trazado_145017" data-name="Trazado 145017" d="M-2918.085,5078.646l29.463-23.369h-58.927Z" transform="translate(2946.112 -5056.327)" fill="#4e5cca" fill-rule="evenodd"/>
            </g>
          </g>
        </g>
        <path id="Trazado_145018" data-name="Trazado 145018" d="M-2867,5042.695a8.058,8.058,0,0,1,8.053,8.055A8.057,8.057,0,0,1-2867,5058.8a8.058,8.058,0,0,1-8.055-8.054A8.059,8.059,0,0,1-2867,5042.695Z" transform="translate(2935.094 -5025.334)" fill="#ec5e56" fill-rule="evenodd"/>
        <text id="_1" data-name="1" transform="translate(67.145 26.136)" fill="#f1f3ff" font-size="7" font-family="Montserrat-SemiBold, Montserrat" font-weight="600"><tspan x="-1.334" y="0">1</tspan></text>
      </g>
    </g>
    <g id="Grupo_73216" data-name="Grupo 73216" transform="translate(-3192.007 4997)">
      <g id="Grupo_73214" data-name="Grupo 73214" transform="translate(37.372 37.372)">
        <path id="Trazado_145019" data-name="Trazado 145019" d="M-3065.292,5061.89a6.144,6.144,0,0,1,6.141-6.141h40.244a6.143,6.143,0,0,1,6.141,6.141v17.937a6.143,6.143,0,0,1-6.141,6.141l4.283,6.331-13.916-6.331h-30.61a6.143,6.143,0,0,1-6.141-6.141Z" transform="translate(3065.292 -5055.749)" fill="#293493" fill-rule="evenodd"/>
        <path id="Trazado_145020" data-name="Trazado 145020" d="M-3044.947,5073.454a3.158,3.158,0,0,1,3.156,3.156,3.158,3.158,0,0,1-3.156,3.156,3.158,3.158,0,0,1-3.156-3.156A3.158,3.158,0,0,1-3044.947,5073.454Z" transform="translate(3059.371 -5061.848)" fill="#fff" fill-rule="evenodd"/>
        <path id="Trazado_145021" data-name="Trazado 145021" d="M-3026.51,5073.454a3.158,3.158,0,0,1,3.155,3.156,3.158,3.158,0,0,1-3.155,3.156,3.158,3.158,0,0,1-3.157-3.156A3.158,3.158,0,0,1-3026.51,5073.454Z" transform="translate(3053.021 -5061.848)" fill="#fff" fill-rule="evenodd"/>
        <path id="Trazado_145022" data-name="Trazado 145022" d="M-3008.077,5073.454a3.158,3.158,0,0,1,3.157,3.156,3.158,3.158,0,0,1-3.157,3.156,3.158,3.158,0,0,1-3.156-3.156A3.158,3.158,0,0,1-3008.077,5073.454Z" transform="translate(3046.672 -5061.848)" fill="#fff" fill-rule="evenodd"/>
      </g>
      <g id="Grupo_73215" data-name="Grupo 73215" transform="translate(0 0)">
        <path id="Trazado_145023" data-name="Trazado 145023" d="M-3032.277,5005.261a6.523,6.523,0,0,0-6.521-6.52h-76.981a6.522,6.522,0,0,0-6.521,6.52v19.046a6.524,6.524,0,0,0,6.521,6.521h4.559l-4.143,6.722,12.274-6.722h64.291a6.525,6.525,0,0,0,6.521-6.521Z" transform="translate(3122.3 -4998.741)" fill="#4e5cca" fill-rule="evenodd"/>
        <rect id="Rectángulo_32476" data-name="Rectángulo 32476" width="70.071" height="1.687" transform="translate(10.535 11.087)" fill="#fff"/>
        <rect id="Rectángulo_32477" data-name="Rectángulo 32477" width="70.071" height="1.687" transform="translate(10.535 19.2)" fill="#fff"/>
      </g>
    </g>
    <g id="Grupo_73217" data-name="Grupo 73217" transform="translate(-3162.914 5102.831)">
      <path id="Trazado_145024" data-name="Trazado 145024" d="M-3069.642,5160.178l2.5,5.264,5.78.75-4.234,4,1.072,5.729-5.116-2.79-5.116,2.79,1.072-5.729-4.235-4,5.779-.75Z" transform="translate(3077.921 -5160.178)" fill="#fba454" fill-rule="evenodd"/>
      <path id="Trazado_145025" data-name="Trazado 145025" d="M-3038.6,5160.178l2.5,5.264,5.78.75-4.234,4,1.072,5.729-5.116-2.79-5.116,2.79,1.072-5.729-4.234-4,5.779-.75Z" transform="translate(3067.229 -5160.178)" fill="#fba454" fill-rule="evenodd"/>
      <path id="Trazado_145026" data-name="Trazado 145026" d="M-3008.03,5160.178l2.5,5.264,5.78.75-4.234,4,1.072,5.729-5.116-2.79-5.116,2.79,1.072-5.729-4.235-4,5.779-.75Z" transform="translate(3056.699 -5160.178)" fill="#fba454" fill-rule="evenodd"/>
    </g>
  </g>
</svg>
