<svg xmlns="http://www.w3.org/2000/svg" width="245.324" height="241.207" viewBox="0 0 245.324 241.207">
  <g id="img11" transform="translate(2093.049 -4771.226)">
    <g id="Grupo_73134" data-name="Grupo 73134" transform="translate(-1989.663 4771.226)">
      <g id="Grupo_73123" data-name="Grupo 73123">
        <circle id="Elipse_4514" data-name="Elipse 4514" cx="53.42" cy="53.42" r="53.42" fill="#d7d1e8"/>
      </g>
      <g id="Grupo_73124" data-name="Grupo 73124" transform="translate(18.132 10.824)">
        <path id="Trazado_144921" data-name="Trazado 144921" d="M-1869.1,4785.412a51.6,51.6,0,0,1,16.475,37.853,51.764,51.764,0,0,1-51.763,51.764,51.5,51.5,0,0,1-29.395-9.167,51.556,51.556,0,0,0,35.288,13.91,51.763,51.763,0,0,0,51.763-51.763A51.69,51.69,0,0,0-1869.1,4785.412Z" transform="translate(1933.777 -4785.412)" fill="#b9afd6"/>
      </g>
      <g id="Grupo_73125" data-name="Grupo 73125" transform="translate(8.427 8.427)">
        <circle id="Elipse_4515" data-name="Elipse 4515" cx="44.993" cy="44.993" r="44.993" fill="#cba1ca"/>
      </g>
      <g id="Grupo_73126" data-name="Grupo 73126" transform="translate(18.677 12)">
        <path id="Trazado_144922" data-name="Trazado 144922" d="M-1885.552,4786.954a41.9,41.9,0,0,1,11.387,28.769,42.071,42.071,0,0,1-42.069,42.069,41.911,41.911,0,0,1-16.829-3.511,43.267,43.267,0,0,0,34.743,17.429,43.336,43.336,0,0,0,43.336-43.336A43.351,43.351,0,0,0-1885.552,4786.954Z" transform="translate(1933.063 -4786.954)" fill="#c494c3"/>
      </g>
      <g id="Grupo_73127" data-name="Grupo 73127" transform="translate(25.424 13.949)">
        <path id="Trazado_144923" data-name="Trazado 144923" d="M-1878.339,4789.508A43.241,43.241,0,0,1-1863,4822.579a43.335,43.335,0,0,1-43.336,43.333,43.168,43.168,0,0,1-17.886-3.864,43.134,43.134,0,0,0,28,10.267,43.336,43.336,0,0,0,43.336-43.336A43.338,43.338,0,0,0-1878.339,4789.508Z" transform="translate(1924.22 -4789.508)" fill="#c08cbe"/>
      </g>
      <g id="Grupo_73128" data-name="Grupo 73128" transform="translate(53.42 14.195)">
        <line id="Línea_147" data-name="Línea 147" y2="5.062" fill="none" stroke="#5c1f5b" stroke-linecap="round" stroke-linejoin="round" stroke-width="4.344"/>
        <line id="Línea_148" data-name="Línea 148" y2="5.063" transform="translate(0 73.388)" fill="none" stroke="#5c1f5b" stroke-linecap="round" stroke-linejoin="round" stroke-width="4.344"/>
      </g>
      <g id="Grupo_73129" data-name="Grupo 73129" transform="translate(25.683 25.685)">
        <line id="Línea_149" data-name="Línea 149" x2="3.58" y2="3.58" fill="none" stroke="#5c1f5b" stroke-linecap="round" stroke-linejoin="round" stroke-width="4.344"/>
        <line id="Línea_150" data-name="Línea 150" x2="3.581" y2="3.578" transform="translate(51.892 51.894)" fill="none" stroke="#5c1f5b" stroke-linecap="round" stroke-linejoin="round" stroke-width="4.344"/>
      </g>
      <g id="Grupo_73130" data-name="Grupo 73130" transform="translate(14.195 53.42)">
        <line id="Línea_151" data-name="Línea 151" x2="5.062" fill="none" stroke="#5c1f5b" stroke-linecap="round" stroke-linejoin="round" stroke-width="4.344"/>
        <line id="Línea_152" data-name="Línea 152" x2="5.06" transform="translate(73.388)" fill="none" stroke="#5c1f5b" stroke-linecap="round" stroke-linejoin="round" stroke-width="4.344"/>
      </g>
      <g id="Grupo_73131" data-name="Grupo 73131" transform="translate(25.683 25.685)">
        <line id="Línea_153" data-name="Línea 153" y1="3.578" x2="3.58" transform="translate(0 51.894)" fill="none" stroke="#5c1f5b" stroke-linecap="round" stroke-linejoin="round" stroke-width="4.344"/>
        <line id="Línea_154" data-name="Línea 154" y1="3.58" x2="3.581" transform="translate(51.892)" fill="none" stroke="#5c1f5b" stroke-linecap="round" stroke-linejoin="round" stroke-width="4.344"/>
      </g>
      <line id="Línea_155" data-name="Línea 155" y2="26.276" transform="translate(53.42 29.695)" fill="none" stroke="#5c1f5b" stroke-linecap="round" stroke-linejoin="round" stroke-width="4.344"/>
      <line id="Línea_156" data-name="Línea 156" x2="15.71" transform="translate(53.42 53.42)" fill="none" stroke="#5c1f5b" stroke-linecap="round" stroke-linejoin="round" stroke-width="4.344"/>
      <g id="Grupo_73133" data-name="Grupo 73133" transform="translate(47.822 47.825)">
        <path id="Trazado_144924" data-name="Trazado 144924" d="M-1888.751,4843.958a3.945,3.945,0,0,1-3.941-3.94,3.943,3.943,0,0,1,3.941-3.937,3.943,3.943,0,0,1,3.94,3.938A3.944,3.944,0,0,1-1888.751,4843.958Z" transform="translate(1894.349 -4834.424)" fill="#d7d1e8"/>
        <g id="Grupo_73132" data-name="Grupo 73132">
          <path id="Trazado_144925" data-name="Trazado 144925" d="M-1889.265,4837.223a2.282,2.282,0,0,1,2.283,2.281,2.283,2.283,0,0,1-2.283,2.283,2.283,2.283,0,0,1-2.284-2.283,2.283,2.283,0,0,1,2.284-2.281m0-3.314a5.6,5.6,0,0,0-5.6,5.595,5.6,5.6,0,0,0,5.6,5.6,5.6,5.6,0,0,0,5.6-5.6,5.6,5.6,0,0,0-5.6-5.595Z" transform="translate(1894.864 -4833.909)" fill="#5c1f5b"/>
        </g>
      </g>
    </g>
    <g id="Grupo_73150" data-name="Grupo 73150" transform="translate(-1962.139 4885.251)">
      <g id="Grupo_73139" data-name="Grupo 73139" transform="translate(12.13 83.783)">
        <g id="Grupo_73135" data-name="Grupo 73135">
          <path id="Trazado_144926" data-name="Trazado 144926" d="M-1903.912,5073.887a1.659,1.659,0,0,1-1.344-.686,1.658,1.658,0,0,1-.23-1.491l13.262-40.084a1.658,1.658,0,0,1,1.573-1.137h15.523a1.657,1.657,0,0,1,1.344.687,1.656,1.656,0,0,1,.23,1.492l-13.262,40.083a1.656,1.656,0,0,1-1.573,1.136Z" transform="translate(1905.569 -5030.489)" fill="#77c1e3"/>
        </g>
        <g id="Grupo_73136" data-name="Grupo 73136" transform="translate(1.657 1.657)">
          <path id="Trazado_144927" data-name="Trazado 144927" d="M-1880.706,5032.661l-11.915,36.017h-9.43l-1.346,4.067h15.523l13.262-40.084Z" transform="translate(1903.397 -5032.661)" fill="#4fb9e2"/>
        </g>
        <g id="Grupo_73137" data-name="Grupo 73137" transform="translate(47.018)">
          <path id="Trazado_144928" data-name="Trazado 144928" d="M-1829.026,5073.887a1.656,1.656,0,0,1-1.573-1.136l-13.261-40.083a1.659,1.659,0,0,1,.23-1.492,1.659,1.659,0,0,1,1.344-.687h15.523a1.658,1.658,0,0,1,1.573,1.137l13.261,40.084a1.659,1.659,0,0,1-.23,1.491,1.66,1.66,0,0,1-1.344.686Z" transform="translate(1843.944 -5030.489)" fill="#77c1e3"/>
        </g>
        <g id="Grupo_73138" data-name="Grupo 73138" transform="translate(59.09 1.657)">
          <path id="Trazado_144929" data-name="Trazado 144929" d="M-1823.014,5032.661h-5.108l11.916,36.017h-10.414l1.344,4.067h15.523Z" transform="translate(1828.122 -5032.661)" fill="#4fb9e2"/>
        </g>
      </g>
      <g id="Grupo_73140" data-name="Grupo 73140" transform="translate(0 4.204)">
        <path id="Trazado_144930" data-name="Trazado 144930" d="M-1869.779,5029.56a51.747,51.747,0,0,1-51.689-51.687,51.746,51.746,0,0,1,51.689-51.687,51.745,51.745,0,0,1,51.687,51.687A51.746,51.746,0,0,1-1869.779,5029.56Z" transform="translate(1921.468 -4926.187)" fill="#d7d1e8"/>
      </g>
      <path id="Trazado_144931" data-name="Trazado 144931" d="M-1866.619,4933.482a46.124,46.124,0,0,0-41.52,26.016" transform="translate(1918.309 -4923.712)" fill="none" stroke="#fff" stroke-linecap="round" stroke-linejoin="round" stroke-width="4.344"/>
      <g id="Grupo_73141" data-name="Grupo 73141" transform="translate(16.648 13.862)">
        <path id="Trazado_144932" data-name="Trazado 144932" d="M-1837.479,4938.845a49.874,49.874,0,0,1,14.991,35.7,50.032,50.032,0,0,1-50.032,50.032,49.776,49.776,0,0,1-27.129-8,49.856,49.856,0,0,0,35.041,14.33,50.029,50.029,0,0,0,50.03-50.029A49.982,49.982,0,0,0-1837.479,4938.845Z" transform="translate(1899.648 -4938.845)" fill="#b9afd6"/>
      </g>
      <g id="Grupo_73142" data-name="Grupo 73142" transform="translate(13.424 17.625)">
        <path id="Trazado_144933" data-name="Trazado 144933" d="M-1865.608,5020.308a38.309,38.309,0,0,1-38.266-38.265,38.308,38.308,0,0,1,38.266-38.265,38.307,38.307,0,0,1,38.263,38.265A38.307,38.307,0,0,1-1865.608,5020.308Z" transform="translate(1903.874 -4943.778)" fill="#aa88be"/>
      </g>
      <g id="Grupo_73143" data-name="Grupo 73143" transform="translate(27.213 31.415)">
        <path id="Trazado_144934" data-name="Trazado 144934" d="M-1861.324,5010.8a24.5,24.5,0,0,1-24.477-24.477,24.5,24.5,0,0,1,24.477-24.476,24.5,24.5,0,0,1,24.474,24.476A24.5,24.5,0,0,1-1861.324,5010.8Z" transform="translate(1885.801 -4961.851)" fill="#d7d1e8"/>
      </g>
      <g id="Grupo_73144" data-name="Grupo 73144" transform="translate(34.198 36.274)">
        <path id="Trazado_144935" data-name="Trazado 144935" d="M-1847.542,4968.22a22.72,22.72,0,0,1,5.328,14.643,22.819,22.819,0,0,1-22.818,22.821,22.684,22.684,0,0,1-11.614-3.2,22.767,22.767,0,0,0,17.492,8.174,22.818,22.818,0,0,0,22.817-22.819A22.787,22.787,0,0,0-1847.542,4968.22Z" transform="translate(1876.646 -4968.22)" fill="#b9afd6"/>
      </g>
      <g id="Grupo_73145" data-name="Grupo 73145" transform="translate(15.081 19.283)">
        <path id="Trazado_144936" data-name="Trazado 144936" d="M-1865.093,4945.95c-.472,0-.928.056-1.394.073a33.791,33.791,0,0,1,32.427,33.749,33.82,33.82,0,0,1-33.821,33.822,33.792,33.792,0,0,1-33.75-32.429c-.019.467-.072.924-.072,1.393a36.608,36.608,0,0,0,36.609,36.607,36.607,36.607,0,0,0,36.605-36.607A36.607,36.607,0,0,0-1865.093,4945.95Z" transform="translate(1901.702 -4945.95)" fill="#9c77b4"/>
      </g>
      <g id="Grupo_73146" data-name="Grupo 73146" transform="translate(40.775 44.978)">
        <path id="Trazado_144937" data-name="Trazado 144937" d="M-1857.111,5001.453a10.925,10.925,0,0,1-10.914-10.912,10.925,10.925,0,0,1,10.914-10.912,10.924,10.924,0,0,1,10.912,10.912A10.924,10.924,0,0,1-1857.111,5001.453Z" transform="translate(1868.025 -4979.629)" fill="#aa88be"/>
      </g>
      <g id="Grupo_73147" data-name="Grupo 73147" transform="translate(44.416 47.062)">
        <path id="Trazado_144938" data-name="Trazado 144938" d="M-1853.343,4982.36a9.176,9.176,0,0,1,1.983,5.663,9.254,9.254,0,0,1-9.255,9.257,9.17,9.17,0,0,1-2.638-.427,9.2,9.2,0,0,0,7.273,3.591,9.256,9.256,0,0,0,9.255-9.255A9.229,9.229,0,0,0-1853.343,4982.36Z" transform="translate(1863.253 -4982.36)" fill="#9c77b4"/>
      </g>
      <line id="Línea_157" data-name="Línea 157" y1="40.224" x2="46.339" transform="translate(51.689 15.666)" fill="none" stroke="#5c1f5b" stroke-linecap="round" stroke-linejoin="round" stroke-width="4.344"/>
      <g id="Grupo_73149" data-name="Grupo 73149" transform="translate(94.605 0)">
        <g id="Grupo_73148" data-name="Grupo 73148">
          <path id="Trazado_144939" data-name="Trazado 144939" d="M-1789.058,4940.218a1.668,1.668,0,0,1-.388-.045l-6.243-1.5a1.66,1.66,0,0,1-1.264-1.479l-.513-6.4a1.661,1.661,0,0,1,.574-1.394l9.739-8.325a1.66,1.66,0,0,1,1.077-.4,1.653,1.653,0,0,1,.536.089,1.659,1.659,0,0,1,1.087,1.232l1.015,4.918,4.7,1.772a1.656,1.656,0,0,1,1.048,1.265,1.658,1.658,0,0,1-.556,1.545l-9.738,8.322A1.661,1.661,0,0,1-1789.058,4940.218Z" transform="translate(1797.472 -4920.677)" fill="#77c1e3"/>
        </g>
      </g>
    </g>
    <g id="Grupo_73184" data-name="Grupo 73184" transform="translate(-2093.049 4829.594)">
      <g id="Grupo_73162" data-name="Grupo 73162" transform="translate(0 0)">
        <g id="Grupo_73151" data-name="Grupo 73151" transform="translate(41.353 138.282)">
          <path id="Trazado_144940" data-name="Trazado 144940" d="M-2037.192,5037.134a1.607,1.607,0,0,1-1.657-1.551v-5.059a1.607,1.607,0,0,1,1.657-1.552h42.557a1.607,1.607,0,0,1,1.657,1.552v5.059a1.607,1.607,0,0,1-1.657,1.551Z" transform="translate(2038.849 -5028.971)" fill="#4fb9e2"/>
        </g>
        <g id="Grupo_73156" data-name="Grupo 73156" transform="translate(17.696 98.251)">
          <g id="Grupo_73152" data-name="Grupo 73152">
            <path id="Trazado_144941" data-name="Trazado 144941" d="M-2068.2,5053.459a1.659,1.659,0,0,1-1.289-.614,1.66,1.66,0,0,1-.332-1.389l15.724-73.641a1.657,1.657,0,0,1,1.621-1.312h18.4a1.655,1.655,0,0,1,1.289.615,1.653,1.653,0,0,1,.332,1.388l-15.722,73.641a1.657,1.657,0,0,1-1.621,1.312Z" transform="translate(2069.855 -4976.504)" fill="#77c1e3"/>
          </g>
          <g id="Grupo_73153" data-name="Grupo 73153" transform="translate(1.657 1.657)">
            <path id="Trazado_144942" data-name="Trazado 144942" d="M-2040.779,4978.676l-14.127,66.168h-11.178l-1.6,7.473h18.4l15.722-73.641Z" transform="translate(2067.683 -4978.676)" fill="#4fb9e2"/>
          </g>
          <g id="Grupo_73154" data-name="Grupo 73154" transform="translate(55.746)">
            <path id="Trazado_144943" data-name="Trazado 144943" d="M-1979.413,5053.459a1.657,1.657,0,0,1-1.62-1.312l-15.72-73.641a1.655,1.655,0,0,1,.332-1.388,1.655,1.655,0,0,1,1.289-.615h18.4a1.657,1.657,0,0,1,1.621,1.312l15.72,73.641a1.658,1.658,0,0,1-.333,1.389,1.658,1.658,0,0,1-1.288.614Z" transform="translate(1996.79 -4976.504)" fill="#77c1e3"/>
          </g>
          <g id="Grupo_73155" data-name="Grupo 73155" transform="translate(69.75 1.657)">
            <path id="Trazado_144944" data-name="Trazado 144944" d="M-1972.378,4978.676h-6.058l14.126,66.168h-12.343l1.59,7.473h18.4Z" transform="translate(1978.435 -4978.676)" fill="#4fb9e2"/>
          </g>
        </g>
        <g id="Grupo_73161" data-name="Grupo 73161">
          <rect id="Rectángulo_32446" data-name="Rectángulo 32446" width="113.876" height="81.037" transform="translate(7.352 16.008)" fill="#d7d1e8"/>
          <g id="Grupo_73157" data-name="Grupo 73157">
            <path id="Trazado_144945" data-name="Trazado 144945" d="M-2088.544,4865.394a4.509,4.509,0,0,1-4.505-4.5v-8.661a4.509,4.509,0,0,1,4.505-4.5h119.566a4.509,4.509,0,0,1,4.505,4.5v8.661a4.509,4.509,0,0,1-4.505,4.5Z" transform="translate(2093.049 -4847.728)" fill="#979acc"/>
          </g>
          <g id="Grupo_73158" data-name="Grupo 73158" transform="translate(1.657 1.656)">
            <path id="Trazado_144946" data-name="Trazado 144946" d="M-1968.463,4849.9h-6.167v6.523a2.85,2.85,0,0,1-2.847,2.849h-113.4v2.135a2.848,2.848,0,0,0,2.849,2.844h119.566a2.844,2.844,0,0,0,2.848-2.844v-8.661A2.846,2.846,0,0,0-1968.463,4849.9Z" transform="translate(2090.878 -4849.899)" fill="#828cc5"/>
          </g>
          <g id="Grupo_73159" data-name="Grupo 73159" transform="translate(0 95.388)">
            <path id="Trazado_144947" data-name="Trazado 144947" d="M-2088.544,4990.414a4.508,4.508,0,0,1-4.505-4.5v-8.662a4.508,4.508,0,0,1,4.505-4.5h119.566a4.508,4.508,0,0,1,4.505,4.5v8.662a4.508,4.508,0,0,1-4.505,4.5Z" transform="translate(2093.049 -4972.751)" fill="#979acc"/>
          </g>
          <g id="Grupo_73160" data-name="Grupo 73160" transform="translate(1.657 97.045)">
            <path id="Trazado_144948" data-name="Trazado 144948" d="M-1968.463,4974.923h-5.692v4.329a2.844,2.844,0,0,1-2.846,2.843h-113.877v4.334a2.848,2.848,0,0,0,2.849,2.843h119.566a2.844,2.844,0,0,0,2.848-2.843v-8.662A2.844,2.844,0,0,0-1968.463,4974.923Z" transform="translate(2090.878 -4974.923)" fill="#828cc5"/>
          </g>
        </g>
      </g>
      <g id="Grupo_73183" data-name="Grupo 73183" transform="translate(31.405 24.075)">
        <g id="Grupo_73167" data-name="Grupo 73167" transform="translate(0 4.182)">
          <g id="Grupo_73164" data-name="Grupo 73164">
            <g id="Grupo_73163" data-name="Grupo 73163">
              <path id="Rectángulo_32447" data-name="Rectángulo 32447" d="M4.313,0H7.239a4.31,4.31,0,0,1,4.31,4.31V53.1a4.31,4.31,0,0,1-4.31,4.31H4.313A4.313,4.313,0,0,1,0,53.095V4.313A4.313,4.313,0,0,1,4.313,0Z" transform="translate(1.657 1.657)" fill="#aa88be"/>
              <path id="Trazado_144949" data-name="Trazado 144949" d="M-2041.97,4888.077a1.633,1.633,0,0,1,1.631,1.631v50.829a1.634,1.634,0,0,1-1.631,1.633h-4.967a1.635,1.635,0,0,1-1.635-1.633v-50.829a1.633,1.633,0,0,1,1.635-1.631h4.967m0-3.314h-4.967a4.953,4.953,0,0,0-4.95,4.945v50.829a4.955,4.955,0,0,0,4.95,4.948h4.967a4.953,4.953,0,0,0,4.946-4.948v-50.829a4.952,4.952,0,0,0-4.946-4.945Z" transform="translate(2051.887 -4884.763)" fill="#5c1f5b"/>
            </g>
          </g>
          <g id="Grupo_73166" data-name="Grupo 73166" transform="translate(3.314 3.314)">
            <g id="Grupo_73165" data-name="Grupo 73165">
              <path id="Trazado_144950" data-name="Trazado 144950" d="M-2047.543,4941.567V4938.3h2.483a1.634,1.634,0,0,0,1.631-1.634v-47.562h2.488a1.633,1.633,0,0,1,1.631,1.631v50.829a1.634,1.634,0,0,1-1.631,1.633h-4.967A1.635,1.635,0,0,1-2047.543,4941.567Z" transform="translate(2047.543 -4889.107)" fill="#9c77b4"/>
            </g>
          </g>
        </g>
        <g id="Grupo_73172" data-name="Grupo 73172" transform="translate(16.969 19.669)">
          <g id="Grupo_73169" data-name="Grupo 73169">
            <g id="Grupo_73168" data-name="Grupo 73168">
              <rect id="Rectángulo_32448" data-name="Rectángulo 32448" width="11.546" height="41.92" rx="4.313" transform="translate(1.657 1.657)" fill="#d7d1e8"/>
              <path id="Trazado_144951" data-name="Trazado 144951" d="M-2019.73,4908.376a1.633,1.633,0,0,1,1.631,1.634v35.339a1.631,1.631,0,0,1-1.631,1.633h-4.968a1.633,1.633,0,0,1-1.634-1.633V4910.01a1.635,1.635,0,0,1,1.634-1.634h4.968m0-3.314h-4.968a4.954,4.954,0,0,0-4.948,4.948v35.339a4.954,4.954,0,0,0,4.948,4.948h4.968a4.954,4.954,0,0,0,4.946-4.948V4910.01a4.953,4.953,0,0,0-4.946-4.948Z" transform="translate(2029.646 -4905.062)" fill="#5c1f5b"/>
            </g>
          </g>
          <g id="Grupo_73171" data-name="Grupo 73171" transform="translate(3.314 3.314)">
            <g id="Grupo_73170" data-name="Grupo 73170">
              <path id="Trazado_144952" data-name="Trazado 144952" d="M-2025.3,4946.379v-3.265h2.484a1.635,1.635,0,0,0,1.631-1.633v-32.075h2.486a1.633,1.633,0,0,1,1.631,1.633v35.34a1.631,1.631,0,0,1-1.631,1.633h-4.968A1.633,1.633,0,0,1-2025.3,4946.379Z" transform="translate(2025.302 -4909.406)" fill="#b9afd6"/>
            </g>
          </g>
        </g>
        <g id="Grupo_73177" data-name="Grupo 73177" transform="translate(33.938)">
          <g id="Grupo_73174" data-name="Grupo 73174">
            <g id="Grupo_73173" data-name="Grupo 73173">
              <path id="Trazado_144953" data-name="Trazado 144953" d="M-2001.942,4943.044a3.3,3.3,0,0,1-3.291-3.291v-55.01a3.294,3.294,0,0,1,3.291-3.289h4.968a3.291,3.291,0,0,1,3.286,3.289v55.01a3.292,3.292,0,0,1-3.286,3.291Z" transform="translate(2006.89 -4879.797)" fill="#b067a9"/>
              <path id="Trazado_144954" data-name="Trazado 144954" d="M-1997.49,4882.6a1.63,1.63,0,0,1,1.629,1.632v55.01a1.63,1.63,0,0,1-1.629,1.633h-4.968a1.632,1.632,0,0,1-1.633-1.633v-55.01a1.632,1.632,0,0,1,1.633-1.632h4.968m0-3.314h-4.968a4.952,4.952,0,0,0-4.948,4.946v55.01a4.954,4.954,0,0,0,4.948,4.948h4.968a4.952,4.952,0,0,0,4.944-4.948v-55.01a4.951,4.951,0,0,0-4.944-4.946Z" transform="translate(2007.405 -4879.282)" fill="#5c1f5b"/>
            </g>
          </g>
          <g id="Grupo_73176" data-name="Grupo 73176" transform="translate(3.314 3.314)">
            <g id="Grupo_73175" data-name="Grupo 73175">
              <path id="Trazado_144955" data-name="Trazado 144955" d="M-2003.061,4940.268V4937h2.482a1.635,1.635,0,0,0,1.634-1.633v-51.744h2.486a1.63,1.63,0,0,1,1.629,1.632v55.01a1.63,1.63,0,0,1-1.629,1.633h-4.968A1.632,1.632,0,0,1-2003.061,4940.268Z" transform="translate(2003.061 -4883.626)" fill="#934d91"/>
            </g>
          </g>
        </g>
        <g id="Grupo_73182" data-name="Grupo 73182" transform="translate(50.908 12.671)">
          <g id="Grupo_73179" data-name="Grupo 73179">
            <g id="Grupo_73178" data-name="Grupo 73178">
              <path id="Trazado_144956" data-name="Trazado 144956" d="M-1979.7,4946.98a3.292,3.292,0,0,1-3.286-3.291v-42.339a3.291,3.291,0,0,1,3.286-3.289h4.968a3.293,3.293,0,0,1,3.291,3.289v42.339a3.3,3.3,0,0,1-3.291,3.291Z" transform="translate(1984.648 -4896.405)" fill="#cba1ca"/>
              <path id="Trazado_144957" data-name="Trazado 144957" d="M-1975.252,4899.2a1.631,1.631,0,0,1,1.634,1.632v42.339a1.632,1.632,0,0,1-1.634,1.633h-4.968a1.631,1.631,0,0,1-1.629-1.633v-42.339a1.63,1.63,0,0,1,1.629-1.632h4.968m0-3.313h-4.968a4.95,4.95,0,0,0-4.943,4.945v42.339a4.953,4.953,0,0,0,4.943,4.949h4.968a4.955,4.955,0,0,0,4.948-4.949v-42.339a4.952,4.952,0,0,0-4.948-4.945Z" transform="translate(1985.163 -4895.89)" fill="#5c1f5b"/>
            </g>
          </g>
          <g id="Grupo_73181" data-name="Grupo 73181" transform="translate(3.314 3.313)">
            <g id="Grupo_73180" data-name="Grupo 73180">
              <path id="Trazado_144958" data-name="Trazado 144958" d="M-1980.819,4944.2v-3.265h2.482a1.637,1.637,0,0,0,1.633-1.634v-39.073h2.481a1.631,1.631,0,0,1,1.634,1.632V4944.2a1.632,1.632,0,0,1-1.634,1.634h-4.968A1.631,1.631,0,0,1-1980.819,4944.2Z" transform="translate(1980.819 -4900.233)" fill="#c08cbe"/>
            </g>
          </g>
        </g>
      </g>
    </g>
  </g>
</svg>
