<svg xmlns="http://www.w3.org/2000/svg" width="587" height="253.249" viewBox="0 0 587 253.249">
  <g id="Grupo_73242" data-name="Grupo 73242" transform="translate(5739.952 -2341.653)">
    <g id="Grupo_73241" data-name="Grupo 73241" transform="translate(-5739.952 2341.653)">
      <path id="Trazado_145027" data-name="Trazado 145027" d="M-5542.359,2594.162s-92.967-48.155-45.819-128.362c25.428-43.257,98.477-47.532,137.765-20.683,16.733,11.435,57.661,48.861,91.474-36.7,39.521-100.012,309.39-92.774,238.993,56.6-30.041,63.743,62.37,70.042,13.352,129.295Z" transform="translate(5641.058 -2341.653)" fill="#7e5ee3" opacity="0.089"/>
      <path id="Trazado_145028" data-name="Trazado 145028" d="M-3774.03,3174.927a17.907,17.907,0,0,1-3.291-.264c1.252-.922,3.887-2.831,6.033-4.174,2.926-1.826,4.584-4.9.457-5.425-3.515-.448-6.279,7.225-7.022,9.506-.481-.088-.952-.185-1.407-.284a76.973,76.973,0,0,1,2.978-7.459c1.584-3.237,7.189-8.705,1.584-9.327-4.984-.555-6.307,13.273-6.539,16.349a9.814,9.814,0,0,0-2.569-.3c-1.594.117-3.12,1.854-2.219,2.62h16.831C-3769.739,3175.708-3771.146,3174.858-3774.03,3174.927Z" transform="translate(4344.297 -2924.466)" fill="#2e49d2"/>
      <path id="Trazado_145029" data-name="Trazado 145029" d="M-5678.656,3168.64h0c-2.551-6.154-8.048-17.939-12.227-16.546-4.131,1.377,5.156,11.584,10.385,16.914-1.039.219-1.977.433-2.844.632-4.031-3.67-10.686-9.683-11.293-7.209-.532,2.169,5.179,5.446,9.547,7.6a15.6,15.6,0,0,1-7.331.295,6.225,6.225,0,0,0-6.354,1.9h32.1S-5671.96,3167.377-5678.656,3168.64Z" transform="translate(5710.534 -2920.535)" fill="#2e49d2"/>
      <g id="Grupo_73222" data-name="Grupo 73222" transform="translate(180.565 88.681)">
        <g id="Grupo_73221" data-name="Grupo 73221">
          <g id="Grupo_73220" data-name="Grupo 73220">
            <path id="Trazado_145030" data-name="Trazado 145030" d="M-5042.623,2661.03v79.683a8.917,8.917,0,0,1-8.891,8.892h-47.362a8.785,8.785,0,0,1-3.569-.753,8.921,8.921,0,0,1-5.323-8.138V2661.03a8.917,8.917,0,0,1,8.892-8.891h47.362A8.916,8.916,0,0,1-5042.623,2661.03Z" transform="translate(5107.768 -2652.138)" fill="#7db4fc"/>
            <path id="Trazado_145031" data-name="Trazado 145031" d="M-4968.846,2710.171a9.677,9.677,0,0,1-5.658-12.463,9.677,9.677,0,0,1,12.463-5.659,9.68,9.68,0,0,1,5.659,12.463A9.68,9.68,0,0,1-4968.846,2710.171Z" transform="translate(5013.01 -2680.207)" fill="#ffe0ca"/>
            <path id="Trazado_145032" data-name="Trazado 145032" d="M-4954.83,2704.513l-18.122-6.8a9.677,9.677,0,0,1,12.463-5.659A9.681,9.681,0,0,1-4954.83,2704.513Z" transform="translate(5011.458 -2680.207)" fill="#ff7469"/>
            <path id="Trazado_145033" data-name="Trazado 145033" d="M-5076.552,2708.614A9.678,9.678,0,0,1-5077.93,2695a9.679,9.679,0,0,1,13.619-1.377,9.679,9.679,0,0,1,1.376,13.618A9.678,9.678,0,0,1-5076.552,2708.614Z" transform="translate(5088.01 -2680.213)" fill="#ffe0ca"/>
            <path id="Trazado_145034" data-name="Trazado 145034" d="M-5057.479,2707.237l-15-12.241a9.678,9.678,0,0,1,13.618-1.377A9.68,9.68,0,0,1-5057.479,2707.237Z" transform="translate(5082.554 -2680.213)" fill="#ff7469"/>
          </g>
        </g>
        <path id="Trazado_145035" data-name="Trazado 145035" d="M-5029.31,2703.125v74.011a8.917,8.917,0,0,1-8.891,8.892h-47.362a8.784,8.784,0,0,1-3.569-.753v-71.9a10.22,10.22,0,0,1,3.258-7.475,10.309,10.309,0,0,1,2.5-1.729,10.147,10.147,0,0,1,4.485-1.041Z" transform="translate(5094.455 -2688.562)" fill="#ff7469"/>
      </g>
      <g id="Grupo_73224" data-name="Grupo 73224" transform="translate(192.516 108.925)">
        <g id="Grupo_73223" data-name="Grupo 73223">
          <path id="Rectángulo_32478" data-name="Rectángulo 32478" d="M31.129,0h2.885A31.131,31.131,0,0,1,65.145,31.131v35.2A31.131,31.131,0,0,1,34.014,97.466H31.13A31.13,31.13,0,0,1,0,66.336V31.129A31.129,31.129,0,0,1,31.129,0Z" fill="#7db4fc"/>
          <path id="Trazado_145036" data-name="Trazado 145036" d="M-4927,2781.052a9.678,9.678,0,0,1-5.659-12.463,9.678,9.678,0,0,1,12.463-5.658,9.68,9.68,0,0,1,5.658,12.463A9.68,9.68,0,0,1-4927,2781.052Z" transform="translate(4971.165 -2751.086)" fill="#ff5549"/>
          <path id="Trazado_145037" data-name="Trazado 145037" d="M-4912.985,2775.393l-18.122-6.8a9.678,9.678,0,0,1,12.463-5.658A9.68,9.68,0,0,1-4912.985,2775.393Z" transform="translate(4969.613 -2751.086)" fill="#ff7469"/>
          <path id="Trazado_145038" data-name="Trazado 145038" d="M-5034.708,2779.493a9.677,9.677,0,0,1-1.377-13.618,9.678,9.678,0,0,1,13.618-1.377,9.68,9.68,0,0,1,1.377,13.618A9.679,9.679,0,0,1-5034.708,2779.493Z" transform="translate(5046.166 -2751.092)" fill="#ff5549"/>
          <path id="Trazado_145039" data-name="Trazado 145039" d="M-5015.633,2778.117l-15-12.241a9.678,9.678,0,0,1,13.618-1.377A9.68,9.68,0,0,1-5015.633,2778.117Z" transform="translate(5040.709 -2751.092)" fill="#ff7469"/>
        </g>
      </g>
      <g id="Grupo_73229" data-name="Grupo 73229" transform="translate(395.299 62.753)">
        <g id="Grupo_73225" data-name="Grupo 73225" transform="translate(17.459 35.746)">
          <path id="Trazado_145040" data-name="Trazado 145040" d="M-4285.294,2748a1.8,1.8,0,0,0-.456-.859,4.886,4.886,0,0,1-.547-1.521c-.022-.682-.786-.949-1.1-.381a1.388,1.388,0,0,0-.164.635,17.469,17.469,0,0,0-5.991-1.253s-2.227-.246-.784,1.641c.965,1.262,1.8,1.27,3.188,3.026s3.474,2.726,5.061,2.263l1.854.221,1.205-2.956Z" transform="translate(4294.823 -2728.014)" fill="#ffc29c"/>
          <path id="Trazado_145041" data-name="Trazado 145041" d="M-4205.177,2686.924s-1.827,20.1-27.834,28.587c-7.021,2.292-33.284-4.745-33.284-4.745s.149-3.459,2.281-4.327c0,0,24.6-1.511,26.674-.5,1.838.9,17.548-15.274,22.625-17.879A13.318,13.318,0,0,1-4205.177,2686.924Z" transform="translate(4274.443 -2686.513)" fill="#06c"/>
        </g>
        <path id="Trazado_145042" data-name="Trazado 145042" d="M-3968.134,3168.885s3.113,2.841,2.506,4.86-3.417,3.364-3.8,5.831-1.9,3.813-3.265,3.813h-6.516s-1.006-1.736,1.424-2.26,3.345-3.422,3.194-6.114a47.465,47.465,0,0,1,.228-6.281l5.163-1.2Z" transform="translate(4086.958 -2994.402)" fill="#153cbb"/>
        <path id="Trazado_145043" data-name="Trazado 145043" d="M-4061.847,2945.272c-.57,1.684-6.835,4.15-6.835,4.15s-3.416-5.382-14.35-24.672c-.941-1.662-1.925-3.485-2.938-5.427-10.737-20.626-24.624-54.906-24.624-54.906l26.539-7.4s1.251,10.652,1.479,16.036c.139,3.29,2.01,10.318,4.386,16.458a38.888,38.888,0,0,0,4.838,9.447C-4066.03,2908.036-4061.847,2945.272-4061.847,2945.272Z" transform="translate(4180.673 -2772.572)" fill="#2e49d2"/>
        <path id="Trazado_145044" data-name="Trazado 145044" d="M-4078.19,2889.51c-1.668,8.46-4.729,22.628-7.78,29.812-10.737-20.626-24.624-54.906-24.624-54.906l26.539-7.4s1.251,10.652,1.479,16.036C-4082.437,2876.343-4080.567,2883.371-4078.19,2889.51Z" transform="translate(4180.673 -2772.572)" fill="#153cbb"/>
        <path id="Trazado_145045" data-name="Trazado 145045" d="M-4119.408,3191.718s.558,6.465-.808,7.138l-17.491-.035s0-2.019,2.81-2.467,7.744-2.093,8.58-5.757S-4119.408,3191.718-4119.408,3191.718Z" transform="translate(4200.042 -3009.888)" fill="#153cbb"/>
        <path id="Trazado_145046" data-name="Trazado 145046" d="M-4125.341,2874.288s.922,11.333,2.007,24.957c1.474,18.506,3.246,41.237,3.421,45.543.3,7.478,1.52,19.439,1.52,19.439s2.884,2.841,8.656,1.644a193,193,0,0,0,6.612-35.141c.023-.3.045-.595.068-.893,1.367-18.392,3.492-57.119,3.492-57.119Z" transform="translate(4191.208 -2783.788)" fill="#2e49d2"/>
        <path id="Trazado_145047" data-name="Trazado 145047" d="M-4082.852,2627.373s-10.38,6.827-16.866,4.813c0,0,1.8-2.732,3.52-4.912-.225-1.3-.4-2.432-.5-3.39a31.3,31.3,0,0,1-.274-3.463l4.34-3.414,4.116-3.267C-4088.839,2622.926-4082.852,2627.373-4082.852,2627.373Z" transform="translate(4172.903 -2598.779)" fill="#ff9490"/>
        <path id="Trazado_145048" data-name="Trazado 145048" d="M-4092.049,2738.442c-13.192,8.907-39.85,6.363-40.05,6.192-.443-5.668-.7-15.017-.834-23.668-.171-10.748-.174-20.418-.161-20.622,0,0,.009-.326.022-.875.043-1.747.15-5.751.265-8.734.02-.558.041-1.077.063-1.542,0-.026,0-.05,0-.076a65.055,65.055,0,0,1,2.055-9.095c1.69-6.118,4.093-13.5,5.938-16.933.947-1.762,4.128-6.861,4.128-6.861,2.246.443,3.866-.219,6.235-1.375,2.594-1.252,5.388-2.6,5.838-2.26,3.393,2.481,5.688,8.056,6.911,15.18C-4100.937,2671.873-4091.4,2738-4092.049,2738.442Z" transform="translate(4196.75 -2626.496)" fill="#5f89d3"/>
        <path id="Trazado_145049" data-name="Trazado 145049" d="M-4081.571,2625.424s-2.843,5.183-8.257,6.632a31.31,31.31,0,0,1-.274-3.464l4.34-3.414Z" transform="translate(4166.034 -2606.951)" fill="#ff8484"/>
        <path id="Trazado_145050" data-name="Trazado 145050" d="M-4102.27,2592.878s10.733,1.756,11.74-4.842,3.071-10.815-3.738-12.215-8.529.92-9.41,3.042S-4105.036,2592.251-4102.27,2592.878Z" transform="translate(4176.222 -2571.386)" fill="#ff9490"/>
        <path id="Trazado_145051" data-name="Trazado 145051" d="M-4095.3,2565.005c.1-.112.322-.2.822-.229a2.025,2.025,0,0,0-.934-.263,2.515,2.515,0,0,0-1.672-2.226,1.5,1.5,0,0,1,.728,1.083c-1.386-1.424-4.356-2.46-12.582-1.811-10.841.856-7.269,7.8-5.865,8.624s4.936-1.441,7.551-1.234,3.112,3.986,4,4.5.538-.4,1.739-.941,1.314,1.447.967,2.739,1.3,3,1.3,3l1.666-1.8c1.667-1.794,3.237-9.4,2.479-11.017C-4095.17,2565.3-4095.236,2565.151-4095.3,2565.005Z" transform="translate(4184.898 -2561.361)" fill="#1f3765"/>
        <path id="Trazado_145052" data-name="Trazado 145052" d="M-4132.933,2773.077c-.171-10.748-.174-20.418-.161-20.623,0,0,.009-.325.022-.875,10.344-12.8,23.668-26.095,23.668-26.095S-4106.517,2763.033-4132.933,2773.077Z" transform="translate(4196.75 -2678.607)" fill="#06c"/>
        <path id="Trazado_145053" data-name="Trazado 145053" d="M-4118.178,2717.832c-.141.23-3.417,19.569-11.823,19.783a6.643,6.643,0,0,1-2.086-.237c.02-.559.042-1.078.063-1.542,0-.026,0-.05,0-.076a65.176,65.176,0,0,1,2.056-9.094C-4126.528,2725.96-4122.5,2722.807-4118.178,2717.832Z" transform="translate(4196.027 -2673.141)" fill="#06c"/>
        <path id="Trazado_145054" data-name="Trazado 145054" d="M-4089.238,2644.66s-1-2.9-1.81-3.225a22.178,22.178,0,0,0-15.063,15.089S-4101.716,2648.864-4089.238,2644.66Z" transform="translate(4177.47 -2618.564)" fill="#5f89d3"/>
        <g id="Grupo_73227" data-name="Grupo 73227" transform="translate(0 3.827)">
          <g id="Grupo_73226" data-name="Grupo 73226">
            <path id="Trazado_145055" data-name="Trazado 145055" d="M-4281.534,2720.021l-25.385,3.53-13.428,1.868a9.6,9.6,0,0,1-10.793-8.161l-13.045-93.8a9.591,9.591,0,0,1,8.156-10.793l11.908-1.656,26.9-3.742a9.593,9.593,0,0,1,10.793,8.158l13.047,93.8A9.6,9.6,0,0,1-4281.534,2720.021Z" transform="translate(4347.611 -2597.916)" fill="#2e49d2"/>
            <path id="Trazado_145056" data-name="Trazado 145056" d="M-4256.254,2818.728l-1.361-4.842h0l-1.362-4.845a4.659,4.659,0,0,0-2.214-2.8,4.655,4.655,0,0,0-3.546-.429c-.136.038-.269.085-.4.135a4.628,4.628,0,0,0,.49-2.3,4.683,4.683,0,0,0,5.721,1.977,4.683,4.683,0,0,0,2.645-6.052l-1.835-4.684h0l-1.835-4.686a4.659,4.659,0,0,0-2.481-2.57,4.652,4.652,0,0,0-3.571-.075,4.683,4.683,0,0,0-2.645,6.052l2.765,7.058a4.643,4.643,0,0,0-1.119-.887,4.634,4.634,0,0,0-2.8-.569,4.7,4.7,0,0,0,.614-2.129,4.667,4.667,0,0,0-.776-2.784,4.686,4.686,0,0,0-2.16-4.709l-8.567-5.279a4.682,4.682,0,0,0-6.426,1.527,4.683,4.683,0,0,0,1.062,6.095,4.608,4.608,0,0,0-1.21.33l-4.624,1.985h0l-4.623,1.985a4.68,4.68,0,0,0-2.8,3.826l-.673-1.138h0l-2.561-4.329a4.683,4.683,0,0,0-6.4-1.642,4.683,4.683,0,0,0-1.642,6.4l2.562,4.33h0l1.642,2.775a4.681,4.681,0,0,0-2.356,4.469l.442,5.011h0l.441,5.013a4.657,4.657,0,0,0,1.658,3.165,4.653,4.653,0,0,0,3.4,1.078,4.629,4.629,0,0,0,1.535-.414,4.7,4.7,0,0,0,.068,3.177,4.64,4.64,0,0,0-1.651,2.5l-1.261,4.87h0l-1.262,4.871a4.658,4.658,0,0,0,.5,3.537,4.653,4.653,0,0,0,2.849,2.156,4.682,4.682,0,0,0,5.005-1.868,4.636,4.636,0,0,0,1.7,1.661,4.683,4.683,0,0,0,6.364-1.765l2.477-4.379h0l2.478-4.38a4.605,4.605,0,0,0,.579-1.877,4.642,4.642,0,0,0,2.972-1.217l.718-.658-.9,1.589h0l-2.477,4.378a4.683,4.683,0,0,0,1.766,6.364,4.682,4.682,0,0,0,6.364-1.765l2.477-4.379h0l2.479-4.38c.032-.056.057-.115.086-.172a4.66,4.66,0,0,0,1.032.919l-.882,1.559a4.684,4.684,0,0,0,1.765,6.365,4.683,4.683,0,0,0,6.365-1.765l4.955-8.759a4.663,4.663,0,0,0,.429-3.547,4.656,4.656,0,0,0-2.195-2.818,4.631,4.631,0,0,0-1.192-.467c.056-.013.111-.022.166-.038A4.682,4.682,0,0,0-4256.254,2818.728Zm-42.3,1.4-.15-1.709a4.616,4.616,0,0,0,1.341,1.147,4.643,4.643,0,0,0,.614.285l-1.915,1.757A4.644,4.644,0,0,0-4298.553,2820.124Zm30.583-8.556,1.832,6.513a4.686,4.686,0,0,0-2-1.662,4.66,4.66,0,0,0-3.157-.213,4.622,4.622,0,0,0,1.1-1.3l2.127-3.759C-4268.04,2811.285-4268.009,2811.427-4267.97,2811.569Zm-13.021-16.469,1.3.8-1.084.995A4.608,4.608,0,0,0-4280.99,2795.1Zm3.05,14.528a4.674,4.674,0,0,0-1.093-1.849,4.614,4.614,0,0,0,.923-.653l3.295-3.022Zm4.231,8.234a4.7,4.7,0,0,0-3.633-.566l-.075-1.26a4.622,4.622,0,0,0,.86.632,4.654,4.654,0,0,0,3.593.415A4.68,4.68,0,0,0-4273.708,2817.862Zm-11.759-16.207a4.682,4.682,0,0,0,.759,5.187c.024.026.051.049.076.074a4.716,4.716,0,0,0-.882.625,4.7,4.7,0,0,0-.1-2.049,4.652,4.652,0,0,0-2.194-2.818l-.016-.008Zm-3.054,11.764,1.459-2.579c-.005.147-.005.3,0,.446l.258,4.326a4.673,4.673,0,0,0-2.507-.8l.786-1.389Zm-5.626,20.715.347-1.34a4.637,4.637,0,0,0-.17-2.844c.1-.076.193-.152.286-.237l7.417-6.8c.048-.044.089-.092.135-.137a4.641,4.641,0,0,0,.7,1.193l-1.32,1.211a4.641,4.641,0,0,0-1.484,3.02,4.675,4.675,0,0,0-3.884,2.358Zm20.969-8.736.406,1.034a4.643,4.643,0,0,0-1.332-.184Zm9.922-.282-.564-1.44h0l-.107-.274a4.712,4.712,0,0,0,2.083,1.125A4.719,4.719,0,0,0-4263.257,2825.115Zm-31.341-19.925-2.053,3.629h0l-2.477,4.378c-.011.021-.02.041-.03.061l-.278-3.159c-.007-.081-.022-.159-.034-.24.137-.063.271-.133.4-.212a4.684,4.684,0,0,0,2.178-5.023A4.708,4.708,0,0,0-4294.6,2805.19Z" transform="translate(4324.006 -2723.966)" fill="#7db4fc"/>
            <path id="Trazado_145057" data-name="Trazado 145057" d="M-4306.919,2733.141l-13.428,1.868a9.6,9.6,0,0,1-10.793-8.161l-13.045-93.8a9.591,9.591,0,0,1,8.156-10.793l11.908-1.656a11.722,11.722,0,0,1,2.371,5.642l14.737,105.948Q-4306.946,2732.669-4306.919,2733.141Z" transform="translate(4347.611 -2607.507)" fill="#00448c"/>
            <path id="Trazado_145058" data-name="Trazado 145058" d="M-4296.09,2587.3l-36.053,5.015-20.461,2.844a1.862,1.862,0,0,1-2.1-1.586l-1.229-8.833a1.865,1.865,0,0,1,1.587-2.1l20.432-2.843h0l36.077-5.019a1.865,1.865,0,0,1,2.1,1.587l1.229,8.833A1.865,1.865,0,0,1-4296.09,2587.3Z" transform="translate(4355.949 -2574.761)" fill="#5f89d3"/>
            <path id="Trazado_145059" data-name="Trazado 145059" d="M-4332.143,2604.868l-20.461,2.844a1.861,1.861,0,0,1-2.1-1.586l-1.229-8.833a1.865,1.865,0,0,1,1.587-2.1l20.432-2.842h0a1.864,1.864,0,0,1,2.093,1.586l1.229,8.833A1.865,1.865,0,0,1-4332.143,2604.868Z" transform="translate(4355.949 -2587.315)" fill="#06c"/>
          </g>
        </g>
        <g id="Grupo_73228" data-name="Grupo 73228" transform="translate(28.733 35.746)">
          <path id="Trazado_145060" data-name="Trazado 145060" d="M-4245.4,2803.674a1.814,1.814,0,0,0-.675-.7,4.9,4.9,0,0,1-.945-1.311c-.209-.65-1.018-.7-1.162-.064a1.388,1.388,0,0,0,.018.655,17.472,17.472,0,0,0-6.106.445s-2.208.377-.3,1.794c1.274.947,2.08.725,3.9,2.031s4.09,1.664,5.488.782l1.843-.3.344-3.173Z" transform="translate(4255.352 -2768.407)" fill="#ff9490"/>
          <path id="Trazado_145061" data-name="Trazado 145061" d="M-4169.318,2686.514s3.779,19.826-18.885,35.147c-6.119,4.136-33.3,4.6-33.3,4.6s-.81-3.366,1-4.788c0,0,23.235-8.228,25.506-7.823,2.015.36,12.663-19.515,16.826-23.418A13.318,13.318,0,0,1-4169.318,2686.514Z" transform="translate(4231.302 -2686.513)" fill="#5f89d3"/>
        </g>
      </g>
      <g id="Grupo_73230" data-name="Grupo 73230" transform="translate(372.292 240.345)">
        <path id="Trazado_145062" data-name="Trazado 145062" d="M-4398.255,3188.825a5.672,5.672,0,0,1-1.672,4.018,5.672,5.672,0,0,1-4.018,1.672h-26.867a5.706,5.706,0,0,1-5.688-5.69,5.673,5.673,0,0,1,1.67-4.017,5.676,5.676,0,0,1,4.018-1.671h26.867A5.706,5.706,0,0,1-4398.255,3188.825Z" transform="translate(4436.5 -3183.137)" fill="#00448c"/>
        <path id="Trazado_145063" data-name="Trazado 145063" d="M-4412.115,3188.825a5.676,5.676,0,0,1-1.67,4.018,5.673,5.673,0,0,1-4.018,1.672h-13.009a5.706,5.706,0,0,1-5.688-5.69,5.673,5.673,0,0,1,1.67-4.017,5.676,5.676,0,0,1,4.018-1.671h13.009A5.7,5.7,0,0,1-4412.115,3188.825Z" transform="translate(4436.5 -3183.137)" fill="#2e49d2"/>
        <rect id="Rectángulo_32479" data-name="Rectángulo 32479" width="27.24" height="1.794" rx="0.897" transform="translate(6.577 1.262)" fill="#ffe2cb" opacity="0.5"/>
      </g>
      <g id="Grupo_73232" data-name="Grupo 73232" transform="translate(275.784 59.772)">
        <path id="Trazado_145064" data-name="Trazado 145064" d="M-4672.33,2556.553c-.016-.456-.37-5.372-7.858-5.629,0,0,3.682.439,4.318,2.058,0,0-2.507-2-4.549-1.357s-3.242,4.221-3.253,5.4,1.122,4.97,2.418,5.292a3.962,3.962,0,0,0,1.569,0,17.764,17.764,0,0,0-1.006,1.8c-2.988,6.134.094,12.128,2.623,11.466,1.623-.425,2.082,2.344,2.082,2.344l15.762-12.76S-4666.012,2553.182-4672.33,2556.553Z" transform="translate(4709.582 -2550.924)" fill="#1f3765"/>
        <path id="Trazado_145065" data-name="Trazado 145065" d="M-4506.935,2823.067c-1.318,1.166-4.814-2.837-5.3-3.37a.3.3,0,0,0-.05-.076l1.064-2.965s4.586-.177,5.346.583S-4505.491,2821.826-4506.935,2823.067Z" transform="translate(4587.144 -2740.746)" fill="#ff9490"/>
        <path id="Trazado_145066" data-name="Trazado 145066" d="M-4598.585,2729.984l-.456,3.066s-.2,0-.556-.027c-1.115-.076-3.825-.228-6.892-.557a68.289,68.289,0,0,1-8.755-1.341,13,13,0,0,1-3.509-1.269c-3.318-2.027-8.766-8.235-12.312-14.442a3.9,3.9,0,0,1-.254-.456,30.124,30.124,0,0,1-2.715-6.178,12.632,12.632,0,0,1-.528-2.992,13.037,13.037,0,0,1,.432-4.156,10.574,10.574,0,0,1,1.874-3.75,1.862,1.862,0,0,1,.353-.429,8.754,8.754,0,0,1,2.409-2.054,1.472,1.472,0,0,1,1.535.393c.061.047.119.1.179.154,0,0,0,.007.009.009.077.072.152.148.228.23v.025a7.636,7.636,0,0,1,.6.726s0,0,0,.007a14.037,14.037,0,0,1,1.139,1.853c.025.024.052.049.052.075.125.228.252.481.4.76a.559.559,0,0,1,.1.177q.418.874.838,1.824c3.115,6.791,6.434,17.076,9.2,20.142a21,21,0,0,0,4.815,2.943v0l.132.065.014.007c1.9.954,4.069,1.948,6.011,2.811C-4601.119,2728.969-4598.585,2729.984-4598.585,2729.984Z" transform="translate(4674.512 -2654.072)" fill="#ff9490"/>
        <path id="Trazado_145067" data-name="Trazado 145067" d="M-4608.916,2725.955a22.707,22.707,0,0,1-1.888,3.542,9.644,9.644,0,0,1-3.375,3.323c-1.041-.5-2.917-1.242-3.713-1.732-2.878-1.759-6.983-6.744-10.335-12.089-.512-.815-1.005-1.638-1.475-2.46a3.834,3.834,0,0,1-.255-.456,30.183,30.183,0,0,1-2.715-6.178l6.076-12.987.016-.032c.022.023.079.087.163.186,0,0,0,.007.008.009.17.2.459.539.832.981a.011.011,0,0,1,0,.007,14.088,14.088,0,0,1,1.14,1.853c.025.025.051.049.051.076.125.228.253.481.4.76a.57.57,0,0,1,.1.177q.418.875.838,1.823c3.114,6.791,6.433,17.077,9.2,20.142a21,21,0,0,0,4.815,2.943v0C-4608.978,2725.917-4608.94,2725.955-4608.916,2725.955Z" transform="translate(4673.148 -2655.196)" fill="#5f89d3"/>
        <path id="Trazado_145068" data-name="Trazado 145068" d="M-4599.687,2784.265a9.633,9.633,0,0,1-3.375,3.323c-1.041-.5-2.918-1.242-3.714-1.732-2.878-1.759-6.982-6.744-10.335-12.089.126-1.68,8.921,6.949,10.038,8.514C-4606.23,2783.461-4601.877,2784.046-4599.687,2784.265Z" transform="translate(4662.032 -2709.964)" fill="#06c"/>
        <g id="Grupo_73231" data-name="Grupo 73231" transform="translate(52.356 26.755)">
          <path id="Trazado_145069" data-name="Trazado 145069" d="M-4556.631,3155.859l-1.229,11.368a4.124,4.124,0,0,1-4.529,3.647l-11.368-1.227a4.128,4.128,0,0,1-3.647-4.532l1.227-11.367a4.126,4.126,0,0,1,3.989-3.669,4.08,4.08,0,0,1,.543.022l11.365,1.227A4.126,4.126,0,0,1-4556.631,3155.859Z" transform="translate(4581.328 -3005.702)" fill="#2e49d2"/>
          <path id="Trazado_145070" data-name="Trazado 145070" d="M-4563.028,3155.542c-8.044.447-9.687,14.221-10.728,14.109a4.128,4.128,0,0,1-3.647-4.532l1.227-11.367a4.126,4.126,0,0,1,3.989-3.669C-4565.1,3152.665-4558.986,3155.316-4563.028,3155.542Z" transform="translate(4581.328 -3005.706)" fill="#153cbb"/>
          <path id="Trazado_145071" data-name="Trazado 145071" d="M-4537.168,2670.363l-15.32,86.369-8.644,48.725a5.43,5.43,0,0,1-5.928,4.447l-13.957-1.506-3.151-.34a7.535,7.535,0,0,1-6.715-7.846l2.241-47.384,4.142-87.576,29.179,3.151Z" transform="translate(4590.946 -2659.353)" fill="#ff5549"/>
          <path id="Trazado_145072" data-name="Trazado 145072" d="M-4555.323,2668.4l-14.875,84.986-9.055,51.732a5.819,5.819,0,0,1-1.765,3.276l-3.151-.34a7.535,7.535,0,0,1-6.715-7.846l2.241-47.384,4.142-87.576Z" transform="translate(4590.946 -2659.353)" fill="#ff7469"/>
          <path id="Trazado_145073" data-name="Trazado 145073" d="M-4520.549,2649.708l-.637,5.9-18.153-1.959-29.18-3.151.637-5.9,29.365,3.171Z" transform="translate(4574.963 -2644.598)" fill="#00448c"/>
          <path id="Trazado_145074" data-name="Trazado 145074" d="M-4552.625,2975.772l-8.7,49.04a5.087,5.087,0,0,1-5.553,4.167l-13.144-1.419-5.479-.592a6.254,6.254,0,0,1-5.575-6.514l2.3-48.587,18.708,2.02Z" transform="translate(4591.083 -2878.393)" fill="#2e49d2"/>
          <path id="Trazado_145075" data-name="Trazado 145075" d="M-4570.071,2973.888l-9.137,51.516a6.215,6.215,0,0,1-.813,2.157l-5.479-.592a6.254,6.254,0,0,1-5.575-6.514l2.3-48.587Z" transform="translate(4591.083 -2878.393)" fill="#7db4fc"/>
          <path id="Trazado_145076" data-name="Trazado 145076" d="M-4538.517,2647.769l-.822,5.879-29.18-3.151.637-5.9Z" transform="translate(4574.963 -2644.598)" fill="#7db4fc"/>
        </g>
        <path id="Trazado_145077" data-name="Trazado 145077" d="M-4693.6,2943.093l-3.348,1.247s-14.542-20.168-16.332-37.913a26.953,26.953,0,0,1,.478-9.072s-.142-.812-.391-2.247c-.115-.67-.257-1.476-.418-2.4-.472-2.708-1.123-6.415-1.867-10.635-1.711-9.711-3.928-22.126-5.649-31.253l.9-.289,9.761-3.149,2.017-6.407,7.269-1.913s1.623,3.176,3.075,18.179c.268,1.968.511,4.138.694,6.492a128.455,128.455,0,0,1-.691,26.281q-.5,3.911-1.277,8.065a35.982,35.982,0,0,0-.279,7.965C-4698.923,2920.55-4693.6,2943.093-4693.6,2943.093Z" transform="translate(4736.339 -2756.763)" fill="#2e49d2"/>
        <path id="Trazado_145078" data-name="Trazado 145078" d="M-4697.409,2863.732l-15.782,31.376c-.115-.67-.257-1.476-.418-2.4-.472-2.708-1.123-6.415-1.867-10.635-1.711-9.711-3.928-22.126-5.649-31.253l.9-.289,9.761-3.149,2.017-6.407,7.269-1.913s1.623,3.176,3.075,18.179C-4697.835,2859.208-4697.592,2861.378-4697.409,2863.732Z" transform="translate(4736.339 -2756.763)" fill="#153cbb"/>
        <path id="Trazado_145079" data-name="Trazado 145079" d="M-4740.835,2833.959l-.365-3.133c-6.121,1.626-22.475-4.543-22.475-4.543s-5.93,5.212-5.151,17.707c.38,6.1,1.074,32.012,1.8,39.681.262,2.78.492,4.757.585,5.547a.014.014,0,0,1,0,.008,1.1,1.1,0,0,1-.178.679,36.014,36.014,0,0,0-2.676,5.627c-7.115,18.961,1.1,42.313,1.1,42.313l2.132-.859s4.673-25.987,8.47-37.468a22.708,22.708,0,0,1,1.828-4.392c1.651-2.665,3.183-7.018,4.574-12.2,2.628-9.789,4.744-22.524,6.151-32.354C-4744.85,2850.585-4740.835,2833.959-4740.835,2833.959Z" transform="translate(4772.822 -2747.635)" fill="#2e49d2"/>
        <path id="Trazado_145080" data-name="Trazado 145080" d="M-4666.734,2664.777c-10.523.576-8.211-15.11-7.569-15.031,1.287-.673,3.6-3.939,4.937-9.4l.454.211,7.593,3.57s-.806,2.471-1.4,4.835c-.465,1.85-.8,3.638-.52,4.138.6.244.957.4.957.4a.021.021,0,0,0,0,.008C-4662.206,2653.7-4663.928,2664.624-4666.734,2664.777Z" transform="translate(4703.365 -2614.803)" fill="#ff9490"/>
        <path id="Trazado_145081" data-name="Trazado 145081" d="M-4646.172,2644.657s-.807,2.469-1.4,4.835c-4.437-1.238-5.786-5.9-6.191-8.4Z" transform="translate(4688.217 -2615.335)" fill="#ff8484"/>
        <path id="Trazado_145082" data-name="Trazado 145082" d="M-4646.81,2614.433s-10.619-2.458-8.987-9.047,1.361-11.344,8.21-10.054,7.537,4.13,7.528,6.462S-4644.005,2614.9-4646.81,2614.433Z" transform="translate(4689.791 -2582.497)" fill="#ff9490"/>
        <path id="Trazado_145083" data-name="Trazado 145083" d="M-4646.137,2595.05c-1.142-2.388-2.485-2.26-3.325-1.837a7.617,7.617,0,0,0-9.884-.845,12.965,12.965,0,0,1-5.966,6.409s1.631,1.67,6.359,1.634a7.786,7.786,0,0,0,4.217-1.588,25.418,25.418,0,0,1-5.537,4.129c5.918-1.133,9.887-7.984,10.293-8.712a8.54,8.54,0,0,1,1.542,3.647c.11,1.809-.513,5.321.523,5.454C-4647.914,2603.342-4644.426,2598.632-4646.137,2595.05Z" transform="translate(4696.466 -2579.494)" fill="#1f3765"/>
        <path id="Trazado_145084" data-name="Trazado 145084" d="M-4757.232,3199.2h-16.862a9.264,9.264,0,0,1,.477-4.52c.844-1.871,2.166-2.721,1.85-4.984a6.073,6.073,0,0,0,5.255,2.01,18.522,18.522,0,0,0,2.926,3.793C-4762.485,3196.29-4757.572,3196.008-4757.232,3199.2Z" transform="translate(4774.245 -3007.249)" fill="#153cbb"/>
        <path id="Trazado_145085" data-name="Trazado 145085" d="M-4630.687,3201.09h-16.862a7.008,7.008,0,0,1,.477-4.52c.979-1.619.6-2.542-.122-3.881a6.557,6.557,0,0,0,2.84.535,5.938,5.938,0,0,0,2.507-.882,60.613,60.613,0,0,0,4.805,5.047C-4635.941,3198.181-4631.027,3197.9-4630.687,3201.09Z" transform="translate(4683.905 -3009.14)" fill="#153cbb"/>
        <path id="Trazado_145086" data-name="Trazado 145086" d="M-4727.819,2679.366l-2.765,37.132-1.691,22.737c-2.6.809-5.078,1.441-7.427,1.926a27.6,27.6,0,0,0-.771-4.185c.027,1.195-1.372,3.483-2.2,4.728-21.592,3.459-31.716-5.959-31.716-5.959.84-8.337,4.478-25.2,8.833-39.34.907-2.941,1.844-5.763,2.793-8.366a114.76,114.76,0,0,1,4.7-11.405c2.214-4.554,12.113-4.268,12.113-4.268a24.225,24.225,0,0,0,7.146,11.155c2.794-1.64,4.875-7.407,4.875-7.407Z" transform="translate(4774.389 -2637.677)" fill="#5f89d3"/>
        <path id="Trazado_145087" data-name="Trazado 145087" d="M-4672.647,2667.929s-1.8.121-2.182,1.269c0,0,2.345,9.436,7.145,11.154Z" transform="translate(4703.266 -2634.51)" fill="#5f89d3"/>
        <path id="Trazado_145088" data-name="Trazado 145088" d="M-4649.816,2689.99s4.479-7.452,4.462-8.571c0,0,1.851.72,1.736,1.868C-4643.619,2683.287-4647.482,2689.474-4649.816,2689.99Z" transform="translate(4685.396 -2644.147)" fill="#5f89d3"/>
        <path id="Trazado_145089" data-name="Trazado 145089" d="M-4692.867,2699.67c.13.447,16.3,26.256,16.648,31.4s-6.8,2.234-6.91,1.564S-4692.867,2699.67-4692.867,2699.67Z" transform="translate(4716.151 -2657.185)" fill="#06c"/>
        <path id="Trazado_145090" data-name="Trazado 145090" d="M-4686.274,2745.044l-1.692,22.737c-23.125-6.662-24.4-55.46-24.4-55.46l14.292,25.8,11.671,6.746S-4686.355,2744.93-4686.274,2745.044Z" transform="translate(4730.079 -2666.223)" fill="#06c"/>
        <path id="Trazado_145091" data-name="Trazado 145091" d="M-4670.11,2722.4c-.046-.849-1.166-.81-2.017-.814A16.371,16.371,0,0,1-4677,2721s4.066-.057,3.2-1.343c-.157-.234-2.178-.057-4.435-.057a7.869,7.869,0,0,0-3.095,1.327c-1.635-.216-3.122-.533-3.6-.637h0c-1.115-.608-2.458-1.343-3.877-2.154-2.9-1.633-6.161-3.573-8.724-5.314-.46-.315-.9-.621-1.309-.918a12.28,12.28,0,0,1-3.118-2.813,35.033,35.033,0,0,1-2.127-4.941c-.4-1.115-.835-2.331-1.267-3.622-.76-2.127-1.519-4.433-2.306-6.739-1.419-4.206-2.939-8.438-4.382-11.7a23.093,23.093,0,0,0-2.71-4.788c-.684-.836-5.88-.076-5.929,7.271a11.062,11.062,0,0,0,.024,1.292,27.3,27.3,0,0,0,.684,4.585,69.214,69.214,0,0,0,2.889,9.629c.353.912.708,1.85,1.088,2.786,2.737,6.791,6.259,13.124,9.222,15.278a3.149,3.149,0,0,0,.355.252,24.279,24.279,0,0,0,4.38,2.024c.257.094.521.188.789.282,2.99,1.014,6.536,1.926,9.7,2.686h.026c1.85.407,3.547.786,4.965,1.063h0s.156.038.434.1c.114.024.247.051.4.081l.016,0a56.544,56.544,0,0,1,6.7,2.049,6.716,6.716,0,0,0,7.55-1.622A4.211,4.211,0,0,0-4670.11,2722.4Z" transform="translate(4736.025 -2641.007)" fill="#ff9490"/>
        <path id="Trazado_145092" data-name="Trazado 145092" d="M-4697.528,2712.82a10.447,10.447,0,0,1-5.549,9.106c-6.629-2.392-10.176-12.279-12.913-19.07-.38-.936-.735-1.874-1.088-2.786a69.214,69.214,0,0,1-2.889-9.629,27.3,27.3,0,0,1-.684-4.585,11.062,11.062,0,0,1-.024-1.292c.049-7.348,5.245-8.107,5.929-7.271a23.093,23.093,0,0,1,2.71,4.788c1.443,3.267,2.963,7.5,4.382,11.7.787,2.306,1.545,4.612,2.306,6.74.432,1.291.862,2.507,1.267,3.622a35.033,35.033,0,0,0,2.127,4.941,12.28,12.28,0,0,0,3.118,2.813C-4698.428,2712.2-4697.988,2712.505-4697.528,2712.82Z" transform="translate(4736.025 -2641.007)" fill="#5f89d3"/>
        <path id="Trazado_145093" data-name="Trazado 145093" d="M-4549.466,2798.431c-.006.027-.018.04-.033.04a.477.477,0,0,0,.02-.047C-4549.458,2798.384-4549.454,2798.384-4549.466,2798.431Z" transform="translate(4613.732 -2727.712)" fill="#5f89d3"/>
      </g>
      <g id="Grupo_73234" data-name="Grupo 73234" transform="translate(169.589 140.708)">
        <rect id="Rectángulo_32480" data-name="Rectángulo 32480" width="74.387" height="111.013" transform="translate(6.354 0.001)" fill="#00448c"/>
        <rect id="Rectángulo_32481" data-name="Rectángulo 32481" width="74.387" height="111.014" transform="translate(16.716)" fill="#2e49d2"/>
        <path id="Trazado_145094" data-name="Trazado 145094" d="M-5113.585,2840.739l-3.565,5.544h-6.8V2834.3h10.361Z" transform="translate(5130.3 -2834.296)" fill="#7db4fc"/>
        <path id="Trazado_145095" data-name="Trazado 145095" d="M-5139.839,2834.3l-6.354,8.746h10.361l6.354-8.746Z" transform="translate(5146.193 -2834.296)" fill="#2e49d2"/>
        <path id="Trazado_145096" data-name="Trazado 145096" d="M-5087.669,2852.008v106.309h38.366V2855.695Z" transform="translate(5104.384 -2846.948)" fill="#ff7469"/>
        <g id="Grupo_73233" data-name="Grupo 73233" transform="translate(16.715)">
          <path id="Trazado_145097" data-name="Trazado 145097" d="M-5013.281,2843.041l-6.036,3.24h-64.766l-3.586-5.544v-6.442Z" transform="translate(5087.669 -2834.295)" fill="#7db4fc"/>
          <path id="Trazado_145098" data-name="Trazado 145098" d="M-5013.285,2834.3h-74.387l5.255,8.746h74.387Z" transform="translate(5087.671 -2834.296)" fill="#2e49d2"/>
        </g>
      </g>
      <g id="Grupo_73238" data-name="Grupo 73238" transform="translate(50.917 103.608)">
        <g id="Grupo_73237" data-name="Grupo 73237" transform="translate(92.866 82.986)">
          <g id="Grupo_73236" data-name="Grupo 73236">
            <rect id="Rectángulo_32482" data-name="Rectángulo 32482" width="97.466" height="65.145" rx="31.13" fill="#7db4fc"/>
            <path id="Trazado_145099" data-name="Trazado 145099" d="M-5178.508,3035.681a9.679,9.679,0,0,1-12.463,5.659,9.677,9.677,0,0,1-5.658-12.463,9.679,9.679,0,0,1,12.462-5.659A9.68,9.68,0,0,1-5178.508,3035.681Z" transform="translate(5208.474 -3014.701)" fill="#ff5549"/>
            <path id="Trazado_145100" data-name="Trazado 145100" d="M-5184.167,3023.218l-6.8,18.122a9.677,9.677,0,0,1-5.658-12.463A9.679,9.679,0,0,1-5184.167,3023.218Z" transform="translate(5208.474 -3014.701)" fill="#ff7469"/>
            <path id="Trazado_145101" data-name="Trazado 145101" d="M-5180.065,3143.4a9.678,9.678,0,0,1-13.619,1.377,9.679,9.679,0,0,1-1.377-13.618,9.681,9.681,0,0,1,13.619-1.377A9.68,9.68,0,0,1-5180.065,3143.4Z" transform="translate(5208.468 -3089.714)" fill="#ff5549"/>
            <path id="Trazado_145102" data-name="Trazado 145102" d="M-5181.442,3129.783l-12.242,14.995a9.679,9.679,0,0,1-1.377-13.618A9.681,9.681,0,0,1-5181.442,3129.783Z" transform="translate(5208.468 -3089.714)" fill="#ff7469"/>
            <path id="Trazado_145103" data-name="Trazado 145103" d="M-4971.8,3035.681a9.679,9.679,0,0,1-12.463,5.659,9.679,9.679,0,0,1-5.659-12.463,9.68,9.68,0,0,1,12.463-5.659A9.68,9.68,0,0,1-4971.8,3035.681Z" transform="translate(5060.805 -3014.701)" fill="#ff5549"/>
            <path id="Trazado_145104" data-name="Trazado 145104" d="M-4977.45,3023.218l-6.8,18.122a9.679,9.679,0,0,1-5.66-12.463A9.68,9.68,0,0,1-4977.45,3023.218Z" transform="translate(5060.799 -3014.701)" fill="#ff7469"/>
            <path id="Trazado_145105" data-name="Trazado 145105" d="M-4973.357,3143.4a9.673,9.673,0,0,1-13.185,1.708c-.147-.1-.291-.215-.434-.331a9.677,9.677,0,0,1-1.375-13.618,9.677,9.677,0,0,1,13.617-1.376c.14.116.277.232.411.355A9.678,9.678,0,0,1-4973.357,3143.4Z" transform="translate(5060.799 -3089.712)" fill="#ff5549"/>
            <path id="Trazado_145106" data-name="Trazado 145106" d="M-4974.323,3130.137l-12.219,14.97c-.147-.1-.291-.215-.434-.331a9.677,9.677,0,0,1-1.375-13.618,9.677,9.677,0,0,1,13.617-1.376C-4974.594,3129.9-4974.457,3130.014-4974.323,3130.137Z" transform="translate(5060.799 -3089.712)" fill="#ff7469"/>
            <g id="Grupo_73235" data-name="Grupo 73235" transform="translate(41.843 7.898)">
              <path id="Trazado_145107" data-name="Trazado 145107" d="M-5071.618,3028.135a9.678,9.678,0,0,1-4.6,12.891,9.677,9.677,0,0,1-12.891-4.6,9.679,9.679,0,0,1,4.6-12.891A9.681,9.681,0,0,1-5071.618,3028.135Z" transform="translate(5090.045 -3022.6)" fill="#ff5549"/>
              <path id="Trazado_145108" data-name="Trazado 145108" d="M-5084.51,3025.872l8.29,17.492a9.678,9.678,0,0,1-12.891-4.6A9.679,9.679,0,0,1-5084.51,3025.872Z" transform="translate(5090.045 -3024.938)" fill="#ff7469"/>
            </g>
            <path id="Trazado_145109" data-name="Trazado 145109" d="M-5083.963,3146.259a9.678,9.678,0,0,1-5.389-12.582,9.678,9.678,0,0,1,12.582-5.389,9.68,9.68,0,0,1,5.389,12.582A9.68,9.68,0,0,1-5083.963,3146.259Z" transform="translate(5131.89 -3089.707)" fill="#ff5549"/>
            <path id="Trazado_145110" data-name="Trazado 145110" d="M-5069.641,3140.87l-17.971-7.193a9.678,9.678,0,0,1,12.582-5.389A9.68,9.68,0,0,1-5069.641,3140.87Z" transform="translate(5130.15 -3089.707)" fill="#ff7469"/>
          </g>
        </g>
        <path id="Trazado_145111" data-name="Trazado 145111" d="M-5325.566,2735.079c-3.011-1.513-5.478-7.049-5.216-8.038a7.534,7.534,0,0,1,.4-.883l14.318-6.057s-1.536-8.952-6.116-10.173c-.131-1.744-1.049-5.527-6.544-5.527a8.387,8.387,0,0,1,3.283,1.761s-4.555-2.674-9.51,1.435-1.877,14.412-3.384,16.367-7.376,2.348-6.659,8.673,18.627,14.248,17.477,19.482c0,0,6.574-9.665,2.446-14.555a8.684,8.684,0,0,1,2.249,4.573S-5322.164,2736.789-5325.566,2735.079Zm.044,2.015s.044.041.118.117C-5325.444,2737.172-5325.481,2737.132-5325.522,2737.094Z" transform="translate(5406.932 -2704.401)" fill="#1f3765"/>
        <path id="Trazado_145112" data-name="Trazado 145112" d="M-5436.286,2986.494l-3.55-.522a41.966,41.966,0,0,1-13.714-27.185,31.557,31.557,0,0,1-.084-5.473.958.958,0,0,0-.125-.6s0,0,0,0c-.382-.586-1.333-2.053-2.62-4.14-1.269-2.055-3.44-5.942-5.83-10.3-4.3-7.854-9.314-17.247-11.033-20.238-5.477-9.536-2.837-15.947-2.837-15.947s15.278-1.51,19.464-5.172l1.507,2.324s3.311,14.654,3.154,14.722q.245.747.5,1.522a254.852,254.852,0,0,1,7.255,26.348c.921,4.618,1.409,8.642,1.146,11.383a20.035,20.035,0,0,0,.27,4.169C-5441.31,2967.891-5436.286,2986.494-5436.286,2986.494Z" transform="translate(5500.987 -2841.922)" fill="#2e49d2"/>
        <path id="Trazado_145113" data-name="Trazado 145113" d="M-5346.333,3205.683h-14.811a8.129,8.129,0,0,1,.418-3.969c.742-1.643,1.8-1.7.135-4.271.942.969,3.967,1.37,6.108,1.082.262.426,1.691,3.279,2.567,3.909C-5350.947,3203.128-5346.631,3202.88-5346.333,3205.683Z" transform="translate(5418.48 -3056.62)" fill="#153cbb"/>
        <path id="Trazado_145114" data-name="Trazado 145114" d="M-5451.461,2915.473c-1.294,7.135-4.35,19.01-10.752,22.79-4.3-7.854-9.314-17.247-11.033-20.238-5.477-9.536-2.837-15.947-2.837-15.947s15.278-1.51,19.464-5.172l1.507,2.324s3.311,14.654,3.154,14.722Q-5451.713,2914.7-5451.461,2915.473Z" transform="translate(5500.987 -2841.922)" fill="#153cbb"/>
        <path id="Trazado_145115" data-name="Trazado 145115" d="M-5517.635,2895.449l.05-2.77c-5.52.7-19.03-6.595-19.03-6.595s-5.773,3.84-6.563,14.807c-.387,5.353-2.827,27.991-3.1,34.751-.1,2.45-.131,4.2-.142,4.9a.043.043,0,0,1,0,.007.963.963,0,0,1-.235.57,31.66,31.66,0,0,0-2.99,4.583c-8.422,15.669-4.018,36.96-4.018,36.96l1.956-.5s7.121-22.071,11.775-31.618a20,20,0,0,1,2.107-3.608c1.75-2.126,3.6-5.735,5.414-10.079a263.375,263.375,0,0,0,9.156-27.44C-5523.083,2909.449-5517.635,2895.449-5517.635,2895.449Z" transform="translate(5556.773 -2834.192)" fill="#2e49d2"/>
        <path id="Trazado_145116" data-name="Trazado 145116" d="M-5291.254,2861.724a22.976,22.976,0,0,0-4.071-.189,27.471,27.471,0,0,1-4.264-3.483c-4.481-4.473-11.012-11.745-12.208-12.752-2.054-1.729-5.605-19.244-8.663-29.06a6.34,6.34,0,0,0-11.429-1.515,5.742,5.742,0,0,0-.855,2.882c-.155,6.062,11.8,29.526,13.388,31.6,2.889,3.779,20.327,12.865,20.327,12.865.4.221.422.892.6,1.173a2.2,2.2,0,0,0,.774.827h0a17.13,17.13,0,0,1,2.876,1.072l.648.41s.376-.419-.216-.885a4.834,4.834,0,0,1-.639-.6h1.013a1.317,1.317,0,0,0,.265-.025,7.369,7.369,0,0,1,1.778-.3,14.3,14.3,0,0,1,1.731.294c.479.07,2.7.03,2.7.03C-5287.366,2863.9-5290.642,2862.185-5291.254,2861.724Z" transform="translate(5398.136 -2781.089)" fill="#ff8484"/>
        <path id="Trazado_145117" data-name="Trazado 145117" d="M-5324.155,2800.964c-9.022-2.071-3.259-14.749-2.736-14.526,1.25-.255,4-2.449,6.452-6.737l.331.288,5.542,4.858s-1.282,1.889-2.359,3.74c-.842,1.449-1.558,2.877-1.444,3.367C-5317.923,2792.306-5321.75,2801.518-5324.155,2800.964Z" transform="translate(5395.591 -2758.195)" fill="#ff9490"/>
        <path id="Trazado_145118" data-name="Trazado 145118" d="M-5310.159,2821.172a45.584,45.584,0,0,1,2.433,5.843c.846,2.711,2.963,11.336,2.963,11.336s-4.368,4.983-10.442,4.693c0,0-3.267-5.114-2.116-9.731S-5310.159,2821.172-5310.159,2821.172Z" transform="translate(5387.291 -2787.82)" fill="#06c"/>
        <path id="Trazado_145119" data-name="Trazado 145119" d="M-5292.122,2785.573s-1.281,1.887-2.358,3.74c-3.445-2.124-3.449-6.389-3.183-8.6Z" transform="translate(5373.146 -2758.918)" fill="#ff8484"/>
        <path id="Trazado_145120" data-name="Trazado 145120" d="M-5292.542,2763.233s-8.365-4.655-5.386-9.82,3.906-9.244,9.372-6.49,5.359,5.318,4.784,7.283S-5290.29,2764.311-5292.542,2763.233Z" transform="translate(5373.721 -2734.145)" fill="#ff9490"/>
        <path id="Trazado_145121" data-name="Trazado 145121" d="M-5284.559,2749.444c-.383-2.293-1.548-2.512-2.36-2.359a6.69,6.69,0,0,0-8.136-3.115,11.391,11.391,0,0,1-6.594,3.96s.971,1.806,4.971,2.925a6.835,6.835,0,0,0,3.945-.316,22.33,22.33,0,0,1-5.677,2.14c5.271.482,10.285-4.337,10.806-4.852a7.5,7.5,0,0,1,.414,3.453c-.347,1.553-1.725,4.366-.883,4.73C-5288.073,2756.01-5283.984,2752.883-5284.559,2749.444Z" transform="translate(5375.92 -2732.394)" fill="#1f3765"/>
        <path id="Trazado_145122" data-name="Trazado 145122" d="M-5546.792,3205.415H-5561.6a8.129,8.129,0,0,1,.418-3.969c.742-1.644,1.9-2.39,1.625-4.379a5.334,5.334,0,0,0,4.617,1.766,16.248,16.248,0,0,0,2.569,3.331C-5551.405,3202.86-5547.09,3202.612-5546.792,3205.415Z" transform="translate(5561.684 -3056.352)" fill="#153cbb"/>
        <path id="Trazado_145123" data-name="Trazado 145123" d="M-5469.1,2823.258a36.036,36.036,0,0,1-7.315,1.327c-3.9.426-7.916.715-10.022,1.556a13.33,13.33,0,0,0-2.81,1.533v0a.886.886,0,0,0-.083.062,9.063,9.063,0,0,0-1.161,1,6.343,6.343,0,0,0-1.359,2.017c-.772,1.908.251,7.2.905,10.091a2.627,2.627,0,0,1-1.344,2.916q-2.221,1.148-4.366,2.119l-.225.1c.014-.294.018-.586.018-.871a26.772,26.772,0,0,0-.25-3.656,15.32,15.32,0,0,1-2.916,5.863c-19.875,7.976-33.762,4.509-33.534.536.784-13.795,10.086-25.527,10.086-25.527,17.35-20.175,52.442-25.485,52.442-25.485s1.681-.2,3.709,2.234c2.917,3.511,3.063,4.426,3.063,4.426S-5463.489,2821.3-5469.1,2823.258Z" transform="translate(5541.594 -2770.438)" fill="#5f89d3"/>
        <path id="Trazado_145124" data-name="Trazado 145124" d="M-5358.752,2841.5c-3.895.425-7.916.716-10.022,1.556a41.071,41.071,0,0,1,5.209-22.537S-5359.6,2836.635-5358.752,2841.5Z" transform="translate(5423.933 -2787.355)" fill="#06c"/>
        <path id="Trazado_145125" data-name="Trazado 145125" d="M-5399.831,2920.64a2.628,2.628,0,0,1-1.345,2.915q-2.221,1.148-4.366,2.12c-.076-.244-.145-.5-.208-.77a13.412,13.412,0,0,1-.25-3.655c.331-6.107,4.49-10.73,6.621-12.717a6.35,6.35,0,0,0-1.359,2.016C-5401.51,2912.458-5400.486,2917.748-5399.831,2920.64Z" transform="translate(5450.484 -2850.229)" fill="#06c"/>
        <path id="Trazado_145126" data-name="Trazado 145126" d="M-5314.629,2792.175s1.528-1.932,2.561-1.869c0,0,4.176,5.847,4.21,8.53C-5307.858,2798.836-5313.067,2791.9-5314.629,2792.175Z" transform="translate(5385.192 -2765.769)" fill="#06c"/>
        <path id="Trazado_145127" data-name="Trazado 145127" d="M-5318.593,2876.809c-.224-.5-1.621-4.022-2.849-4.325a9.069,9.069,0,0,1-2.846-1.739s-11.042-18.694-12.752-20.443c-2.684-2.746-5.291-36.3-8.6-38.492,0,0-9.761.964-10.543,7.306s9.357,32.174,10.81,34.513c2.644,4.259,18.212,18.855,18.212,18.855,1.883,2.49,1.282,2.575,2.1,5s4.8,3.389,5.475,3.464.112-1.08-.82-2.384a6.563,6.563,0,0,1-1.029-3.836c.163-.187.545.149,1.1,1.006S-5318.37,2877.312-5318.593,2876.809Z" transform="translate(5414.905 -2781.132)" fill="#ff9490"/>
        <path id="Trazado_145128" data-name="Trazado 145128" d="M-5343.2,2821.677s1-16.352-11.513-12.4,1.942,32.08,1.942,32.08,7.346-.363,9.951-6.773Z" transform="translate(5417.473 -2778.883)" fill="#5f89d3"/>
      </g>
      <g id="Grupo_73239" data-name="Grupo 73239" transform="translate(221.936 241.659)">
        <path id="Trazado_145129" data-name="Trazado 145129" d="M-4929.088,3192.769a5.017,5.017,0,0,1-1.479,3.554,5.017,5.017,0,0,1-3.554,1.479h-23.765a5.048,5.048,0,0,1-5.032-5.032,5.019,5.019,0,0,1,1.479-3.554,5.019,5.019,0,0,1,3.553-1.478h23.765A5.048,5.048,0,0,1-4929.088,3192.769Z" transform="translate(4962.918 -3187.737)" fill="#ff5549"/>
        <path id="Trazado_145130" data-name="Trazado 145130" d="M-4941.349,3192.769a5.023,5.023,0,0,1-1.477,3.554,5.017,5.017,0,0,1-3.553,1.479h-11.508a5.048,5.048,0,0,1-5.032-5.032,5.019,5.019,0,0,1,1.479-3.554,5.019,5.019,0,0,1,3.553-1.478h11.508A5.046,5.046,0,0,1-4941.349,3192.769Z" transform="translate(4962.918 -3187.737)" fill="#449ff2"/>
        <rect id="Rectángulo_32483" data-name="Rectángulo 32483" width="24.095" height="1.587" rx="0.794" transform="translate(5.817 1.116)" fill="#d2e9ff"/>
      </g>
      <g id="Grupo_73240" data-name="Grupo 73240" transform="translate(202.86 229.495)">
        <path id="Trazado_145131" data-name="Trazado 145131" d="M-4997.082,3148.091a5.315,5.315,0,0,1,.287,4.071,5.318,5.318,0,0,1-2.666,3.09l-22.525,11.288a5.351,5.351,0,0,1-7.159-2.38,5.321,5.321,0,0,1-.288-4.07,5.324,5.324,0,0,1,2.666-3.088l22.526-11.288A5.35,5.35,0,0,1-4997.082,3148.091Z" transform="translate(5029.708 -3145.151)" fill="#00448c"/>
        <path id="Trazado_145132" data-name="Trazado 145132" d="M-5008.7,3168.477a5.32,5.32,0,0,1,.288,4.07,5.321,5.321,0,0,1-2.666,3.09l-10.907,5.466a5.352,5.352,0,0,1-7.159-2.38,5.321,5.321,0,0,1-.288-4.07,5.324,5.324,0,0,1,2.666-3.089l10.907-5.465A5.349,5.349,0,0,1-5008.7,3168.477Z" transform="translate(5029.708 -3159.714)" fill="#2e49d2"/>
        <path id="Trazado_145133" data-name="Trazado 145133" d="M-4991.046,3150.444l-.076-.153a.758.758,0,0,0-1.015-.337l-21.486,10.767a.758.758,0,0,0-.337,1.015l.076.152a.758.758,0,0,0,1.014.337l21.486-10.767A.757.757,0,0,0-4991.046,3150.444Z" transform="translate(5018.515 -3148.525)" fill="#ffe2cb" opacity="0.5"/>
      </g>
      <rect id="Rectángulo_32484" data-name="Rectángulo 32484" width="587" height="1.557" rx="0.119" transform="translate(0 251.692)" fill="#263252"/>
    </g>
  </g>
</svg>
