<svg xmlns="http://www.w3.org/2000/svg" xmlns:xlink="http://www.w3.org/1999/xlink" width="433.211" height="210.537" viewBox="0 0 433.211 210.537">
  <defs>
    <linearGradient id="linear-gradient" x1="0.798" y1="0.995" x2="0.115" y2="0.11" gradientUnits="objectBoundingBox">
      <stop offset="0" stop-color="#0386e9"/>
      <stop offset="0.117" stop-color="#1f95ed"/>
      <stop offset="0.285" stop-color="#41a6f2"/>
      <stop offset="0.456" stop-color="#5cb5f6"/>
      <stop offset="0.63" stop-color="#6ebff9"/>
      <stop offset="0.809" stop-color="#7ac5fb"/>
      <stop offset="1" stop-color="#7ec7fc"/>
    </linearGradient>
    <linearGradient id="linear-gradient-2" x1="-0.023" y1="0.674" x2="1.006" y2="0.186" xlink:href="#linear-gradient"/>
  </defs>
  <g id="Grupo_73071" data-name="Grupo 73071" transform="translate(86.014 -5883.318)">
    <g id="Grupo_73056" data-name="Grupo 73056" transform="translate(-86.014 5883.317)">
      <path id="Trazado_144683" data-name="Trazado 144683" d="M1070.227,5915.308h49.548c.689-2,2.958-3.878,3.856-5.792s1.359-4.251.32-6.093c-1.3-2.306-4.525-2.9-7.025-2.028s-4.441,2.831-6.287,4.729c3-4.875,2.571-11.854-.507-16.68s-9.53-7.384-14.939-5.51c-4.293,1.488-7.416,5.363-9.089,9.586s-2.1,8.822-2.51,13.346c-.321-2.093-2.911-3.508-4.843-4.373a6.487,6.487,0,0,0-6.075.475,8.021,8.021,0,0,0-3.325,5.679A15.332,15.332,0,0,0,1070.227,5915.308Z" transform="translate(-811.529 -5883.317)" fill="#fff"/>
      <path id="Trazado_144684" data-name="Trazado 144684" d="M353.672,6083.826h54.577a26.03,26.03,0,0,0,4.208-6.681,8.922,8.922,0,0,0-.193-7.706c-1.608-2.738-5.109-3.976-8.255-3.546a15.174,15.174,0,0,0-8.228,4.471c3.992-6.356,2-15.687-3.759-20.505a16.236,16.236,0,0,0-20.633.418c-5.482,4.981-6.756,13.124-6.372,20.522-1.029-3.416-5.473-4.965-8.943-4.135a9.57,9.57,0,0,0-6.768,7.533C348.63,6077.7,351.7,6080.854,353.672,6083.826Z" transform="translate(-252.116 -6009.99)" fill="#fff"/>
      <g id="Grupo_73055" data-name="Grupo 73055" transform="translate(0 208.705)">
        <path id="Trazado_144685" data-name="Trazado 144685" d="M347.2,6819.754c0,.133-6.683.259-18.7.373l-3.809.034-1.122.01-.691.006-1.719.013-2.806.021-1.842.013-4.362.03h-.034l-9.294.056q-6.757.037-14.373.071c-6.5.029-13.452.057-20.806.082-29.158.1-64.648.172-103.565.2-10.913.006-22.093.01-33.48.01h-5.915c-53.641-.006-102.416-.094-139.5-.237-10.916-.043-20.818-.088-29.533-.139l-1.423-.008-3.331-.021q-1.045-.005-2.065-.014l-1.21-.006-5.251-.038q-1.892-.013-3.669-.027c-.983-.006-1.938-.017-2.866-.024l-1.608-.013q-3.879-.034-7.064-.073l-.187,0c-8.4-.1-12.985-.2-12.985-.313s4.176-.207,11.865-.3c1-.013,2.052-.025,3.166-.037l4.049-.042,1.831-.016,3.1-.026,3.693-.029,4.7-.033,2.427-.017h.039l4.318-.026.358,0c9.31-.055,20.056-.107,32.009-.154,36.8-.14,85.043-.228,138.1-.234h6.953c11.115,0,22.033,0,32.7.01,39.4.027,75.318.1,104.745.2,7.582.027,14.736.055,21.4.085q6.976.032,13.231.066,4.508.026,8.611.052l.706,0q2.136.013,4.156.028l3.547.026h0l1.271.01,1.269.01,1.986.017.955.007q2.262.018,4.309.04C340.88,6819.5,347.2,6819.625,347.2,6819.754Z" transform="translate(86.014 -6818.838)" fill="#ffcce0"/>
      </g>
    </g>
    <g id="Grupo_73070" data-name="Grupo 73070" transform="translate(-83.227 5893.827)">
      <g id="Grupo_73058" data-name="Grupo 73058" transform="translate(81.939 96.974)">
        <path id="Trazado_144686" data-name="Trazado 144686" d="M400.118,6412.043a19.46,19.46,0,0,0,0,8.207v.01l.007.031a17.436,17.436,0,0,0,5.228,9.5,11.571,11.571,0,0,0,7.422,2.847,9.234,9.234,0,0,0,3.261-.581,17.054,17.054,0,0,0,4.393-2.754c.347-.271.707-.552,1.06-.814a13.914,13.914,0,0,1,2.024-1.282v39.974H383.488l-.267-.483a3.236,3.236,0,0,1-.408-1.321c-.1-1.468.534-3.073,2.009-5.053.263-.353.543-.711.815-1.06a17.026,17.026,0,0,0,2.753-4.392,10.855,10.855,0,0,0-2.265-10.686,17.433,17.433,0,0,0-9.5-5.227l-.033-.007h-.008a19.315,19.315,0,0,0-8.207,0h-.008l-.033.007a17.427,17.427,0,0,0-9.5,5.228,10.852,10.852,0,0,0-2.265,10.684,17.021,17.021,0,0,0,2.754,4.392c.271.349.551.708.814,1.06,1.474,1.98,2.112,3.585,2.009,5.053a3.236,3.236,0,0,1-.408,1.321l-.267.483H321.444v-41.166a4.237,4.237,0,0,0-1.734-.529c-2.083-.149-4.045.957-5.719,2.2s-3.256,2.7-5.209,3.434a9.9,9.9,0,0,1-9.681-2.086,16.3,16.3,0,0,1-4.905-8.961c0-.013,0-.026-.008-.039a18.367,18.367,0,0,1,0-7.784c0-.013.006-.026.008-.039a16.3,16.3,0,0,1,4.905-8.96,9.9,9.9,0,0,1,9.681-2.086c1.953.735,3.534,2.187,5.209,3.435s3.636,2.352,5.719,2.2a4.231,4.231,0,0,0,1.734-.53v-41.165h102.07v39.975a14,14,0,0,1-2.024-1.283c-.353-.263-.713-.543-1.06-.814a17.039,17.039,0,0,0-4.392-2.754,9.234,9.234,0,0,0-3.262-.582,11.581,11.581,0,0,0-7.423,2.847,17.439,17.439,0,0,0-5.227,9.5l-.007.031Z" transform="translate(-293.771 -6365.112)" fill="#e1dcf1"/>
        <g id="Grupo_73057" data-name="Grupo 73057" transform="translate(56.176 28.683)">
          <path id="Trazado_144687" data-name="Trazado 144687" d="M587.918,6512.443a20.554,20.554,0,0,0-.736-3.448c-.152-.528-.344-1.024-.519-1.5-.2-.47-.381-.924-.594-1.343-.2-.426-.419-.816-.623-1.19-.1-.187-.218-.361-.322-.535s-.205-.342-.315-.5l-.317-.46-.152-.22c-.05-.071-.105-.138-.156-.206l-.3-.389-.143-.184c-.048-.06-.1-.116-.146-.171-.193-.223-.369-.428-.536-.611s-.331-.337-.474-.478c-.072-.07-.138-.137-.2-.2l-.187-.162c-.117-.1-.217-.179-.3-.24-.166-.123-.265-.171-.294-.144s.013.132.121.307c.054.087.124.192.211.314l.141.2.156.229q.166.243.376.537l.434.658c.039.06.081.119.119.182l.116.193.247.4c.042.07.087.139.128.212l.124.225.26.468c.091.16.169.332.257.5s.181.347.263.533c.164.372.348.755.5,1.171.173.41.315.851.474,1.3.136.461.288.936.4,1.439a19.869,19.869,0,0,1,.455,6.927,19.876,19.876,0,0,1-.832,3.937,19.187,19.187,0,0,1-1.787,3.959c-.1.161-.188.326-.292.485l-.314.476-.158.24-.17.232-.341.468c-.117.154-.243.3-.364.456s-.241.308-.375.452l-.393.443-.1.112-.1.106-.209.214a19.774,19.774,0,0,1-1.793,1.633c-.327.247-.646.509-.992.739-.172.117-.338.242-.515.353l-.532.334c-.175.116-.362.213-.546.318l-.276.156c-.092.053-.184.1-.28.15l-.571.287-.143.071-.147.065-.294.13c-.389.183-.8.328-1.2.486-.2.076-.412.139-.618.208l-.311.1c-.1.033-.211.059-.316.089l-.635.177-.647.145c-.108.023-.216.051-.325.071l-.329.057c-.22.036-.438.081-.66.11-.444.051-.889.118-1.341.14l-.338.024-.169.012-.17,0-.682.014c-.114,0-.228,0-.342,0l-.343-.01c-.229-.007-.458-.009-.687-.032l-.688-.054c-.229-.026-.458-.06-.687-.088-.115-.016-.23-.028-.344-.046l-.342-.062-.343-.062c-.114-.021-.23-.039-.342-.068l-.682-.159c-.114-.024-.226-.058-.339-.091l-.338-.1-.339-.1-.335-.113c-.222-.079-.448-.147-.669-.233l-.661-.262c-.221-.087-.434-.194-.652-.29a18.63,18.63,0,0,1-2.512-1.394,19.7,19.7,0,0,1-2.278-1.752,20.854,20.854,0,0,1-1.971-2.041,19.229,19.229,0,0,1-2.895-4.717,19.523,19.523,0,0,1-1.382-10.3c.01-.1.028-.208.046-.311l.052-.31.052-.308.026-.154.034-.152c.091-.4.171-.809.288-1.2a19.832,19.832,0,0,1,.775-2.3,20.282,20.282,0,0,1,2.265-4.047,20.029,20.029,0,0,1,6.207-5.551,19.62,19.62,0,0,1,3.348-1.513,20.732,20.732,0,0,1,3.19-.814l.752-.119.73-.079c.239-.031.474-.04.705-.055s.457-.032.68-.037a21.511,21.511,0,0,1,2.435.061,26.566,26.566,0,0,1,3.36.5c.767.16,1.18.242,1.209.164s-.331-.3-1.071-.611a16.136,16.136,0,0,0-3.383-.954,19.289,19.289,0,0,0-2.543-.271c-.234-.012-.474-.007-.718-.011s-.495-.008-.749.008l-.779.036-.806.078a20.848,20.848,0,0,0-3.457.692,20.339,20.339,0,0,0-3.683,1.478,21.213,21.213,0,0,0-6.964,5.839,21.78,21.78,0,0,0-2.6,4.4,21.4,21.4,0,0,0-.911,2.526c-.137.434-.236.88-.344,1.328l-.04.168-.032.17-.064.341-.064.343c-.022.114-.044.229-.057.344-.06.462-.135.927-.165,1.4-.018.236-.044.471-.054.708s-.015.476-.023.714c0,.12-.01.239-.008.359l.006.36c.005.241.007.481.016.723s.034.483.05.726c.01.121.015.243.028.364l.044.363a20.94,20.94,0,0,0,.542,2.916l.2.724c.031.122.073.24.113.36l.12.359.12.359c.041.12.09.237.135.355.093.235.183.474.279.709a21.246,21.246,0,0,0,3.209,5.3,22.832,22.832,0,0,0,2.2,2.292,21.768,21.768,0,0,0,2.551,1.967,20.733,20.733,0,0,0,2.818,1.561c.245.107.484.225.732.322l.742.292c.247.1.5.172.751.259l.376.125.381.107.38.107c.127.036.253.073.381.1l.766.175c.127.032.256.052.384.075l.385.068.384.067c.128.02.257.033.386.05.257.031.514.066.77.093l.77.057c.256.023.512.024.768.031l.383.008c.128,0,.255.006.382,0l.761-.022.19-.006.189-.015.378-.03c.5-.03,1-.107,1.5-.171.247-.036.491-.087.736-.13l.366-.068c.122-.024.242-.055.362-.083l.72-.17.707-.205c.117-.035.236-.066.351-.1l.346-.12c.23-.081.461-.154.687-.242.449-.182.9-.351,1.331-.561l.325-.149.162-.075.159-.082.631-.329c.106-.053.208-.111.309-.171l.3-.178c.2-.12.408-.232.6-.364l.584-.381c.194-.127.377-.269.565-.4.379-.262.728-.558,1.084-.84a21.258,21.258,0,0,0,1.948-1.846l.225-.241.112-.12.106-.125.423-.5c.144-.163.27-.338.4-.508s.264-.339.389-.512l.364-.524.181-.261.168-.267.332-.533c.109-.178.205-.362.307-.541a20.555,20.555,0,0,0,1.831-4.4,20.911,20.911,0,0,0,.754-4.314A21.158,21.158,0,0,0,587.918,6512.443Z" transform="translate(-545.581 -6493.684)" fill="#fff"/>
          <path id="Trazado_144688" data-name="Trazado 144688" d="M625.191,6536.847c-.065-.113-.129-.228-.2-.338a7.01,7.01,0,0,0-.458-.623c-.084-.1-.163-.2-.253-.293l-.27-.276a8.576,8.576,0,0,0-2.519-1.647c-.225-.1-.453-.187-.678-.277s-.453-.163-.68-.229c-.453-.144-.9-.254-1.35-.356s-.9-.18-1.308-.25-.8-.143-1.163-.23a3.81,3.81,0,0,1-1.7-.775,2.037,2.037,0,0,1-.263-.288,2.44,2.44,0,0,1-.218-.349,3.641,3.641,0,0,1-.3-.843,4.89,4.89,0,0,1-.07-1.831,5.657,5.657,0,0,1,.533-1.7,5.561,5.561,0,0,1,.963-1.377,5.055,5.055,0,0,1,1.225-.941,5.432,5.432,0,0,1,1.34-.511,6.365,6.365,0,0,1,3.442.178,10.719,10.719,0,0,1,1.311.552c.3.154.481.22.538.162s-.022-.236-.244-.527a4.72,4.72,0,0,0-1.229-1.008,6.278,6.278,0,0,0-1.641-.656,2.93,2.93,0,0,0-.036-1,6.929,6.929,0,0,0-.413-1.346c-.148-.344-.27-.557-.392-.557s-.245.213-.392.557a6.924,6.924,0,0,0-.413,1.346,3.22,3.22,0,0,0-.059.806,7.093,7.093,0,0,0-.715.042c-.112.014-.226.031-.341.052a3.086,3.086,0,0,0-.052-.9,6.921,6.921,0,0,0-.413-1.346c-.148-.344-.27-.557-.393-.557s-.245.213-.392.557a6.916,6.916,0,0,0-.413,1.346,2.4,2.4,0,0,0,.059,1.346c.006.016.014.029.021.044a6.835,6.835,0,0,0-3.05,2.825,7.4,7.4,0,0,0-.852,2.272,6.823,6.823,0,0,0-.011,2.624,5.731,5.731,0,0,0,.439,1.358,4.6,4.6,0,0,0,.387.668,4.214,4.214,0,0,0,.524.613,4.761,4.761,0,0,0,1.3.886,7.758,7.758,0,0,0,1.368.487c.449.117.887.2,1.31.283s.812.154,1.21.245.786.193,1.166.316c.193.057.377.128.566.193s.371.14.546.224a6.487,6.487,0,0,1,1.858,1.189l.183.183c.062.061.111.129.168.192a4.869,4.869,0,0,1,.305.4l.124.209.062.1.052.111c.034.074.073.145.1.22l.085.229a4.224,4.224,0,0,1,.213.958,4.689,4.689,0,0,1,.031.492c0,.083-.005.165-.007.247a2.218,2.218,0,0,1-.016.246,4.955,4.955,0,0,1-.54,1.837c-.037.068-.071.139-.11.206l-.124.194-.061.1-.069.09-.136.181c-.047.059-.1.113-.151.171a2.164,2.164,0,0,1-.155.167c-.112.1-.213.215-.334.307a5.585,5.585,0,0,1-1.53.91,6.266,6.266,0,0,1-3.246.359,6.55,6.55,0,0,1-1.415-.395,7.49,7.49,0,0,1-1.193-.618,8.826,8.826,0,0,1-1.7-1.412c-.845-.9-1.21-1.537-1.372-1.464-.072.03-.074.227.013.576a5.661,5.661,0,0,0,.639,1.432,7.742,7.742,0,0,0,1.644,1.91,7.906,7.906,0,0,0,1.329.908q.218.117.451.223c-.008.018-.018.035-.026.053a2.4,2.4,0,0,0-.059,1.346,6.926,6.926,0,0,0,.413,1.346c.148.344.27.558.392.558s.245-.213.393-.558a6.932,6.932,0,0,0,.413-1.346,3.113,3.113,0,0,0,.053-.882,7.342,7.342,0,0,0,1.05.139,3.34,3.34,0,0,0,.063.743,6.935,6.935,0,0,0,.413,1.346c.148.344.27.558.392.558s.245-.213.392-.558a6.94,6.94,0,0,0,.413-1.346,3.186,3.186,0,0,0,.057-.832,7.81,7.81,0,0,0,1.131-.274,7.339,7.339,0,0,0,2.154-1.125c.174-.123.33-.271.495-.412.084-.069.155-.152.234-.229s.155-.155.228-.239l.215-.258.107-.131.1-.138.193-.279c.061-.1.116-.195.174-.293a6.972,6.972,0,0,0,.871-2.625c.02-.118.024-.237.033-.356s.02-.239.019-.359a6.9,6.9,0,0,0-.026-.729,6.372,6.372,0,0,0-.294-1.464l-.128-.361c-.047-.12-.1-.236-.156-.354l-.082-.176C625.256,6536.96,625.223,6536.9,625.191,6536.847Z" transform="translate(-596.819 -6513.743)" fill="#fff"/>
        </g>
      </g>
      <g id="Grupo_73060" data-name="Grupo 73060" transform="translate(188.843 96.974)">
        <path id="Trazado_144689" data-name="Trazado 144689" d="M874.479,6412.043a19.5,19.5,0,0,0,0,8.207l0,.013.006.027a17.435,17.435,0,0,0,5.228,9.5,11.571,11.571,0,0,0,7.422,2.847,9.242,9.242,0,0,0,3.262-.581,17.049,17.049,0,0,0,4.393-2.754c.348-.271.707-.552,1.061-.814a8.2,8.2,0,0,1,4.743-2.019c.1,0,.206,0,.308.011a3.223,3.223,0,0,1,1.322.407l.483.267v40.026H800.638v-41.166a4.238,4.238,0,0,0-1.734-.529c-2.082-.149-4.045.957-5.718,2.2s-3.256,2.7-5.209,3.434a9.9,9.9,0,0,1-9.681-2.086,16.3,16.3,0,0,1-4.905-8.961c0-.013,0-.026-.008-.039a18.359,18.359,0,0,1,0-7.784c0-.013.006-.026.008-.039a16.3,16.3,0,0,1,4.905-8.96,9.9,9.9,0,0,1,9.681-2.086c1.953.735,3.534,2.187,5.209,3.435s3.636,2.352,5.718,2.2a4.231,4.231,0,0,0,1.734-.53v-41.165h102.07v40.025l-.483.268a3.221,3.221,0,0,1-1.322.406c-.1.008-.205.011-.308.011a8.2,8.2,0,0,1-4.743-2.019c-.354-.263-.713-.543-1.061-.814a17.023,17.023,0,0,0-4.393-2.754,9.231,9.231,0,0,0-3.262-.582,11.576,11.576,0,0,0-7.422,2.847,17.433,17.433,0,0,0-5.228,9.5l-.006.028Z" transform="translate(-772.965 -6365.112)" fill="#81d4fa"/>
        <g id="Grupo_73059" data-name="Grupo 73059" transform="translate(62.003 24.166)">
          <path id="Trazado_144690" data-name="Trazado 144690" d="M1102.9,6539.432l.226.469.224-.492a35.071,35.071,0,0,1,2.593-4.663c.324.792.638,1.624.932,2.49.47,1.386.852,2.739,1.157,4l.348,1.443.371-1.429a21.4,21.4,0,0,1,1.692-4.368c.8.275,1.459.457,1.923.587.507.139.79.2.809.157s-.231-.2-.712-.422-1.192-.507-2.053-.883l-.2-.087-.124.2a18.743,18.743,0,0,0-1.636,3.357c-.231-.912-.5-1.854-.829-2.812-.382-1.125-.808-2.2-1.255-3.187l-.284-.631-.377.573a27.6,27.6,0,0,0-2.644,5.03,5.691,5.691,0,0,0-1.06-1.154c-.378-.3-.62-.414-.646-.379s.154.223.459.573A7.32,7.32,0,0,1,1102.9,6539.432Z" transform="translate(-1090.096 -6519.84)" fill="#fff"/>
          <path id="Trazado_144691" data-name="Trazado 144691" d="M1084.118,6483.527a14.985,14.985,0,0,0-1.021-2.169,15.666,15.666,0,0,0-1.387-2.017,15.383,15.383,0,0,0-3.768-3.346c-.18-.118-.371-.222-.557-.333l-.573-.3-.288-.15c-.1-.052-.2-.091-.295-.137l-.6-.265c-.2-.088-.406-.157-.609-.236s-.407-.16-.618-.22l-.628-.195-.158-.048-.16-.04-.32-.08-.321-.079-.16-.04-.162-.031-.651-.123-.163-.031-.164-.022-.329-.044-.329-.044c-.11-.016-.22-.03-.331-.037-.442-.036-.886-.08-1.332-.084l-.335-.01c-.112,0-.223-.007-.335,0l-.671.014c-.224,0-.447.024-.67.037l-.334.023c-.111.007-.222.015-.333.03-.441.053-.883.1-1.317.178a21.441,21.441,0,0,0-2.562.585c-.414.134-.831.255-1.234.407s-.805.3-1.2.477a18.973,18.973,0,0,0-2.278,1.169,16.623,16.623,0,0,0-2.07,1.463,14.625,14.625,0,0,0-1.794,1.751,13.432,13.432,0,0,0-2.479,4.191,11.165,11.165,0,0,0-.571,2.309l-.072.58a2.9,2.9,0,0,0-.021.29l-.013.289-.013.287c0,.1-.01.191,0,.286.006.19.011.379.017.568a14.977,14.977,0,0,0,.845,4.217,24.136,24.136,0,0,0,1.589,3.58c.589,1.1,1.212,2.1,1.827,3.043s1.211,1.806,1.765,2.631,1.064,1.6,1.521,2.34.857,1.435,1.206,2.086c.168.328.337.64.476.945l.213.444.184.429c.952,2.231,1.119,3.6,1.309,3.582q.06-.007.085-.265c.008-.086.014-.193.016-.32a3.893,3.893,0,0,0-.008-.441,12.831,12.831,0,0,0-.552-2.865l-.144-.468-.174-.485c-.114-.335-.259-.673-.4-1.031-.3-.708-.658-1.467-1.079-2.255-.828-1.586-1.9-3.306-3.019-5.194-.555-.942-1.111-1.937-1.627-2.994a23.285,23.285,0,0,1-1.352-3.357,13.32,13.32,0,0,1-.636-3.694q0-.238,0-.477a2.074,2.074,0,0,1,.01-.239l.017-.239.016-.24a2.006,2.006,0,0,1,.023-.239l.071-.477a9.21,9.21,0,0,1,.509-1.885,11.441,11.441,0,0,1,2.142-3.475,12.621,12.621,0,0,1,1.549-1.471,14.613,14.613,0,0,1,1.811-1.25,18.528,18.528,0,0,1,4.2-1.791,19.518,19.518,0,0,1,2.287-.514c.387-.072.78-.108,1.173-.157.1-.014.2-.02.3-.026l.3-.021c.2-.011.4-.033.595-.033l.595-.012c.1,0,.2,0,.3,0l.3.009c.395,0,.785.042,1.175.071.1.006.194.018.291.032l.289.038.289.038.144.02.143.026.569.106.142.026.14.034.28.068.279.067.139.034.137.041.546.167c.184.05.358.124.536.187s.356.125.528.2l.514.226c.085.039.173.071.255.115l.248.127.495.255c.158.093.32.178.474.278a13.358,13.358,0,0,1,5.379,6.367,11.315,11.315,0,0,1,.81,3.812c.006.158,0,.315,0,.472s-.01.312-.018.468-.028.313-.042.467c-.007.078-.012.156-.022.233l-.035.23c-.023.154-.046.307-.07.459s-.063.3-.094.453c-.016.076-.03.151-.047.226l-.059.223-.117.444a19.938,19.938,0,0,1-1.355,3.322c-.533,1.042-1.115,2.024-1.688,2.959s-1.141,1.824-1.67,2.677-1.018,1.671-1.452,2.453-.806,1.535-1.119,2.24l-.223.522c-.07.171-.132.341-.2.505s-.124.326-.174.487l-.153.466c-.09.306-.17.6-.238.87s-.118.534-.16.776-.068.466-.1.671-.029.393-.038.56c0,.083-.007.161-.01.235s0,.143.007.206c.006.127.014.234.024.32.021.172.052.26.091.263s.088-.079.145-.24c.028-.081.058-.181.09-.3.015-.06.031-.124.049-.192l.065-.219.145-.519q.093-.283.2-.617c.073-.221.165-.456.253-.708s.206-.514.323-.792l.193-.424c.063-.146.136-.293.212-.443s.149-.3.23-.46l.256-.476c.357-.646.768-1.335,1.239-2.062s1-1.494,1.571-2.308,1.185-1.673,1.815-2.6,1.277-1.917,1.889-3.005a20.98,20.98,0,0,0,1.615-3.6l.15-.5.075-.252c.022-.085.042-.172.063-.258l.124-.521c.035-.176.065-.354.1-.533q.024-.133.047-.269c.014-.09.023-.181.034-.272l.063-.548c.015-.185.026-.372.036-.56s.011-.376.009-.565A13.213,13.213,0,0,0,1084.118,6483.527Z" transform="translate(-1050.894 -6473.438)" fill="#fff"/>
          <path id="Trazado_144692" data-name="Trazado 144692" d="M1108.864,6578.188a1.4,1.4,0,0,0-.182-.286,1.7,1.7,0,0,0,.264-1.034,1.642,1.642,0,0,0-.5-1.062,2.409,2.409,0,0,0,.155-.847,1.677,1.677,0,0,0-.077-.494,1.446,1.446,0,0,0-.181-.374l-.034-.046c.04-.043.078-.088.116-.136a1.925,1.925,0,0,0,.365-.788,1.531,1.531,0,0,0-.117-.976,1.554,1.554,0,0,0-.711-.7,2.03,2.03,0,0,0-.886-.209,2.507,2.507,0,0,0-.849.146c-.516.174-.915.431-1.307.6-.06.028-.119.055-.179.082-.006-.436-.013-.932-.016-1.478,0-.278,0-.568,0-.87s.012-.619.018-.945c0-.651.044-1.347.073-2.08.084-1.463.218-3.067.431-4.744s.506-3.261.8-4.7c.158-.715.3-1.4.462-2.028.079-.316.147-.624.225-.917l.225-.841a22.652,22.652,0,0,0,.9-3.5,13.077,13.077,0,0,0-1.429,3.338c-.088.269-.181.547-.277.838s-.178.6-.272.915c-.192.633-.359,1.317-.539,2.038-.338,1.447-.648,3.053-.875,4.753s-.33,3.334-.375,4.819c-.011.742-.025,1.448,0,2.108.009.33.011.649.028.954s.035.6.052.88c.043.614.094,1.164.149,1.637a10.754,10.754,0,0,1-1.824.535,11.118,11.118,0,0,1-2.383.2,10.944,10.944,0,0,1-1.609-.157c.051-.563.095-1.273.118-2.1q.008-.422.016-.882c0-.306-.007-.625-.013-.955,0-.659-.048-1.364-.089-2.106-.107-1.481-.288-3.106-.577-4.8s-.674-3.281-1.072-4.713c-.21-.712-.406-1.39-.625-2.014-.106-.312-.2-.616-.31-.9l-.31-.823a13,13,0,0,0-1.568-3.275,22.9,22.9,0,0,0,1.041,3.46l.26.83c.089.29.171.594.263.907.188.624.358,1.3.547,2.008.355,1.422.7,2.994,1,4.658s.484,3.266.629,4.724c.06.729.128,1.424.161,2.074.019.326.045.641.057.942s.024.593.035.871c.029.789.045,1.472.059,2.024l-.169-.035-.488-.123c-.158-.044-.312-.1-.464-.141s-.3-.1-.441-.155l-.213-.077-.214-.085a4.352,4.352,0,0,0-.907-.28,1.7,1.7,0,0,0-.952.094,1.407,1.407,0,0,0-.634.553,1.281,1.281,0,0,0-.195.662,1.214,1.214,0,0,0,.11.519,1.035,1.035,0,0,0,.211.311c.145.143.253.168.276.14s-.023-.116-.082-.271a1.138,1.138,0,0,1-.064-.656.881.881,0,0,1,.608-.649,1.041,1.041,0,0,1,.572.021,4.092,4.092,0,0,1,.722.3l.207.1.224.1c.151.066.3.145.466.2s.326.129.5.187.347.11.525.167c.145.041.292.079.442.115.076.02.153.036.23.053a11.02,11.02,0,0,0,6.1-.4c.093-.033.185-.068.277-.1q.329-.129.655-.281c.111-.052.224-.1.33-.157l.3-.156a4.322,4.322,0,0,1,.549-.243,1.5,1.5,0,0,1,.469-.093.929.929,0,0,1,.394.082.442.442,0,0,1,.209.184.417.417,0,0,1,.033.268.846.846,0,0,1-.146.339,1.323,1.323,0,0,1-.308.291,4.429,4.429,0,0,1-.946.443c-.344.135-.684.247-1.015.354a19.213,19.213,0,0,1-1.877.479,24.046,24.046,0,0,1-2.8.38c-.671.058-1.051.095-1.058.179s.363.191,1.052.273a13.04,13.04,0,0,0,2.936-.021,15.656,15.656,0,0,0,2.009-.363c.356-.092.724-.192,1.1-.317a5.1,5.1,0,0,0,1.194-.514c.055-.035.109-.073.163-.113a1.326,1.326,0,0,1,.023.6,2.312,2.312,0,0,1-.35.827l-.16.25.272.231a.867.867,0,0,1,.3.675.827.827,0,0,1-.4.674l-.537.307.7.58a.254.254,0,0,1,.036.034.369.369,0,0,1,.06.108.483.483,0,0,1,.032.159.432.432,0,0,1-.021.155.826.826,0,0,1-.221.342,1.71,1.71,0,0,1-.445.294,5.976,5.976,0,0,1-.631.256l-.341.125-.172.063c-.058.02-.117.037-.176.056-.236.071-.471.153-.714.219s-.488.133-.738.191a18.635,18.635,0,0,1-3.982.484,20.3,20.3,0,0,1-3.289-.239c-.936-.136-1.68-.331-2.208-.435-.52-.127-.827-.167-.858-.093s.218.254.7.518a12.215,12.215,0,0,0,1.561.629,1.314,1.314,0,0,0,.105.33,3.614,3.614,0,0,0,.738,1.028,5.091,5.091,0,0,0,.677.572,5.542,5.542,0,0,0,.892.5,5.3,5.3,0,0,0,4.6-.109,5.571,5.571,0,0,0,.867-.545,5.127,5.127,0,0,0,.649-.6,3.628,3.628,0,0,0,.689-1.062c.012-.032.023-.063.033-.094.216-.064.428-.14.64-.207.063-.021.125-.041.187-.063l.183-.071.363-.142a6.554,6.554,0,0,0,.725-.321,2.7,2.7,0,0,0,.718-.528,1.856,1.856,0,0,0,.464-.842,1.477,1.477,0,0,0,.03-.512A1.5,1.5,0,0,0,1108.864,6578.188Zm-5.082,4.125a6.627,6.627,0,0,1-.771.369,5.242,5.242,0,0,1-3.764.09,6.633,6.633,0,0,1-.788-.333,7.092,7.092,0,0,1-.652-.381c-.3-.2-.548-.391-.745-.547l.008,0a15.59,15.59,0,0,0,3.447.5,16.479,16.479,0,0,0,4.26-.424c.016,0,.031-.008.046-.012-.122.1-.257.208-.408.317A7.223,7.223,0,0,1,1103.782,6582.313Z" transform="translate(-1083.948 -6532.888)" fill="#fff"/>
        </g>
      </g>
      <g id="Grupo_73064" data-name="Grupo 73064" transform="translate(179.105)">
        <path id="Trazado_144693" data-name="Trazado 144693" d="M1012.858,5946.5a9.357,9.357,0,0,1-.554,5.47,7.981,7.981,0,0,1-3.467,3.882A13.083,13.083,0,0,1,1012.858,5946.5Z" transform="translate(-946.478 -5942.917)" fill="#462261"/>
        <path id="Trazado_144694" data-name="Trazado 144694" d="M1023.941,6339.378a10,10,0,0,1,1.548,5.68,33.885,33.885,0,0,1-6.042.064,4.7,4.7,0,0,1,.485-2.807,5.178,5.178,0,0,0,.495-2.821C1021.562,6339.422,1022.8,6339.341,1023.941,6339.378Z" transform="translate(-954.659 -6248.138)" fill="#311649"/>
        <path id="Trazado_144695" data-name="Trazado 144695" d="M954.52,6336.634a13.684,13.684,0,0,0,.3,6.27,25.413,25.413,0,0,1-8.633.348,1.361,1.361,0,0,1,.142-1.607,2.825,2.825,0,0,1,1.428-.847,10.376,10.376,0,0,0,1.6-.521,3.19,3.19,0,0,0,1.7-3.2A5.949,5.949,0,0,1,954.52,6336.634Z" transform="translate(-897.643 -6245.953)" fill="#311649"/>
        <path id="Trazado_144696" data-name="Trazado 144696" d="M976.123,6158.777l-.1.092a5.11,5.11,0,0,1-5.287.957l-.693-3.032,0-.007c-1.473-5.461-3.324-14.783-4.661-29.952q-.321-3.669-.6-7.8c-.39,2.327-.771,4.951-1.1,7.827a152.672,152.672,0,0,0-.545,30.032c.012.143.023.285.036.428l.3,2.656-.261.145a4.927,4.927,0,0,1-.6.285,5.221,5.221,0,0,1-4.648-.378l-.3-2.743a164.977,164.977,0,0,1-1.237-29.957q.121-2.52.327-5.153.194-2.44.467-4.967.042-.384.086-.768.125-1.1.268-2.218h0q.129-1.009.274-2.029.2-1.454.44-2.93c.074-.46.149-.92.228-1.383.008-.056.019-.114.027-.17.043-.247.086-.493.128-.74l6.058-.128,9.3-.2c-.087.644-.2,1.53-.3,2.678-.021.245-.043.5-.066.768,0,.049-.009.1-.012.149-.036.427-.068.883-.1,1.369-.007.108-.014.218-.021.33q-.111,1.705-.186,3.882c-.01.329-.021.666-.029,1.01-.044,1.7-.065,3.6-.049,5.7q.014,2.162.084,4.618c.215,7.421.85,16.9,2.268,28.661Z" transform="translate(-905.6 -6067.328)" fill="#462261"/>
        <path id="Trazado_144697" data-name="Trazado 144697" d="M980.136,6167.733a152.783,152.783,0,0,0-.545,30.033c.012.142.023.284.037.427l.3,2.656-.261.145a5.074,5.074,0,0,1-.6.286l-.165-1.354v0c-3.173-16.934-.294-40.674-.294-40.674l2.633.656C980.849,6162.234,980.468,6164.857,980.136,6167.733Z" transform="translate(-922.061 -6108.202)" fill="#311649"/>
        <path id="Trazado_144698" data-name="Trazado 144698" d="M979.662,6106.64c-.087.644-.2,1.53-.3,2.678-.021.245-.043.5-.066.768,0,.049-.008.1-.012.149-.036.427-.068.883-.1,1.369-.007.108-.014.218-.021.33q-.111,1.705-.186,3.882c-.011.329-.021.666-.029,1.01-5.537-3.614-12.668-4.444-15.469-4.634q.2-1.454.44-2.93c.075-.46.149-.92.228-1.383.008-.056.019-.114.027-.17.043-.247.086-.493.128-.74l6.058-.128Z" transform="translate(-911.237 -6067.328)" fill="#311649"/>
        <path id="Trazado_144699" data-name="Trazado 144699" d="M994.91,5996.321a9.495,9.495,0,0,0-5.493.751v1.192h5.493Z" transform="translate(-931.391 -5981.528)" fill="#0386e9"/>
        <path id="Trazado_144700" data-name="Trazado 144700" d="M805.463,6033.214s2.141,14.968,1.33,23.44c-.26,2.713.615,5.58-.981,7.79a87.857,87.857,0,0,1-1.823-14.874l-.715-13.672a4.14,4.14,0,0,1,.252-2.089A1.56,1.56,0,0,1,805.463,6033.214Z" transform="translate(-786.758 -6010.183)" fill="#f17785"/>
        <path id="Trazado_144701" data-name="Trazado 144701" d="M730.869,6339.378a10.006,10.006,0,0,0-1.548,5.68,33.888,33.888,0,0,0,6.042.064,4.707,4.707,0,0,0-.485-2.807,5.178,5.178,0,0,1-.5-2.821C733.248,6339.422,732.005,6339.341,730.869,6339.378Z" transform="translate(-729.315 -6248.138)" fill="#311649"/>
        <path id="Trazado_144702" data-name="Trazado 144702" d="M790.848,6336.634a13.684,13.684,0,0,1-.3,6.27,25.412,25.412,0,0,0,8.633.348,1.362,1.362,0,0,0-.142-1.607,2.826,2.826,0,0,0-1.429-.847,10.394,10.394,0,0,1-1.6-.521,3.19,3.19,0,0,1-1.7-3.2A5.949,5.949,0,0,0,790.848,6336.634Z" transform="translate(-776.89 -6245.953)" fill="#311649"/>
        <path id="Trazado_144703" data-name="Trazado 144703" d="M749.854,6158.451a1.219,1.219,0,0,1-1.113,1.039q-1.511.116-3.058.182a1.222,1.222,0,0,1-1.268-1.335,152.137,152.137,0,0,0-.417-31.476c-.331-2.877-.712-5.5-1.1-7.827q-.276,4.138-.6,7.8c-1.506,17.1-3.668,26.772-5.2,31.856a1.22,1.22,0,0,1-1.248.862q-1.5-.1-2.961-.247a1.219,1.219,0,0,1-1.082-1.366c1.6-12.757,2.3-22.93,2.531-30.8q.071-2.458.084-4.617c.018-2.535-.016-4.768-.079-6.713-.048-1.452-.112-2.745-.185-3.883-.008-.111-.014-.222-.021-.329q-.05-.729-.1-1.369c0-.05-.008-.1-.012-.149-.023-.266-.045-.522-.066-.767-.106-1.147-.214-2.034-.3-2.678l9.3.2,6.057.128.129.74c.008.057.019.114.028.17.078.463.153.923.227,1.383q.4,2.511.714,4.961h0q.143,1.116.269,2.217c.029.257.058.514.086.769q.274,2.527.468,4.968.209,2.632.328,5.153A163.789,163.789,0,0,1,749.854,6158.451Z" transform="translate(-731.238 -6067.33)" fill="#703cd5"/>
        <path id="Trazado_144704" data-name="Trazado 144704" d="M783.815,6200.441a1.219,1.219,0,0,1-.723-1.233,152.077,152.077,0,0,0-.417-31.475c-.331-2.877-.712-5.5-1.1-7.827l2.633-.656S787.147,6183.478,783.815,6200.441Z" transform="translate(-769.916 -6108.202)" fill="#5229b7"/>
        <path id="Trazado_144705" data-name="Trazado 144705" d="M756.936,6117.208a13.691,13.691,0,0,0-3.946-2.574c-3.888-1.655-8.349-1.471-12.366-2.7-.008-.111-.014-.222-.021-.329q-.05-.729-.1-1.369c0-.05-.008-.1-.012-.149-.023-.266-.045-.522-.066-.767-.106-1.147-.214-2.034-.3-2.678l9.3.2,6.057.128.129.74c.008.057.019.114.028.17.078.463.153.923.227,1.383q.4,2.511.714,4.961h0q.143,1.116.269,2.217C756.879,6116.7,756.908,6116.953,756.936,6117.208Z" transform="translate(-737.712 -6067.33)" fill="#5229b7"/>
        <path id="Trazado_144706" data-name="Trazado 144706" d="M756.346,5958.7l.98,3.656a4.055,4.055,0,0,0,1.2,2.3,2.056,2.056,0,0,0,2.28.1,7.907,7.907,0,0,1-2.16-3.364,8.747,8.747,0,0,0-.643-1.8A1.841,1.841,0,0,0,756.346,5958.7Z" transform="translate(-750.316 -5952.386)" fill="#fb446c"/>
        <g id="Grupo_73061" data-name="Grupo 73061" transform="translate(32.856 21.607)">
          <path id="Trazado_144707" data-name="Trazado 144707" d="M899.293,6030.354c0,.082,0,.164,0,.248s-.011.167-.017.252c-.014.17-.03.346-.05.527a9.922,9.922,0,0,1-.2,1.135c-.023.1-.044.2-.066.3s-.057.2-.086.3q-.088.3-.186.619c-.032.106-.069.21-.11.313l-.12.316c-.085.211-.165.432-.263.645-.2.425-.4.874-.654,1.3-.124.217-.244.443-.381.659s-.279.434-.425.654l-.109.165-.117.161-.141.191-.1.132c-.161.216-.321.436-.5.643s-.351.425-.534.636-.38.41-.574.617a22.415,22.415,0,0,1-2.616,2.314,26.7,26.7,0,0,1-2.871,1.853,28.862,28.862,0,0,1-2.809,1.37l-.675.278-.661.252c-.434.168-.861.306-1.271.446-.825.266-1.6.489-2.307.664s-1.356.313-1.928.413a14.413,14.413,0,0,1-1.489.191,4.143,4.143,0,0,1-.99-.026c-.242-.045-.39-.127-.438-.252s.008-.286.155-.481a4.427,4.427,0,0,1,.707-.684c.321-.26.722-.552,1.19-.875s1-.675,1.594-1.06l1.909-1.242c.336-.228.689-.45,1.041-.693l.537-.362.545-.378c.729-.515,1.485-1.051,2.229-1.635s1.494-1.2,2.226-1.849c.717-.648,1.383-1.31,2-1.965l.454-.492c.144-.166.288-.33.429-.494s.277-.327.411-.488l.2-.241.1-.119.093-.122c.125-.161.249-.321.375-.477s.233-.318.352-.472c.241-.306.441-.621.658-.915.107-.148.2-.3.3-.445q.075-.108.148-.216c.05-.071.1-.142.141-.214.09-.143.179-.282.27-.419.045-.068.09-.137.135-.2l.122-.2c.041-.068.082-.134.123-.2.123-.194.248-.382.352-.567.074-.123.148-.242.223-.358.036-.059.076-.115.11-.172l.1-.17c.132-.223.273-.43.4-.624s.245-.376.37-.54c.061-.081.126-.158.185-.232s.114-.142.172-.208a2.49,2.49,0,0,1,.348-.326,1.044,1.044,0,0,1,.7-.25.893.893,0,0,1,.626.381,2.252,2.252,0,0,1,.263.438c.042.087.08.181.118.282s.063.206.092.318a7.252,7.252,0,0,1,.14.758C899.283,6029.732,899.29,6030.031,899.293,6030.354Z" transform="translate(-876.593 -6027.276)" fill="#f68895"/>
        </g>
        <path id="Trazado_144708" data-name="Trazado 144708" d="M963.587,6030.354c0,.082,0,.164,0,.248s-.011.167-.017.252c-.014.17-.03.346-.05.527a9.908,9.908,0,0,1-.2,1.135c-.022.1-.044.2-.066.3s-.057.2-.086.3q-.088.3-.186.619c-.032.106-.069.21-.11.313l-.12.316c-.085.211-.165.432-.263.645-.2.425-.4.874-.654,1.3-.124.217-.244.443-.381.659s-.279.434-.425.654l-.109.165-.117.161-.141.191a10.668,10.668,0,0,0,.449-2.169,6.369,6.369,0,0,0-1.763-5.247c.123-.194.248-.382.352-.567.074-.123.148-.242.223-.358.036-.059.076-.115.11-.172l.1-.17c.132-.223.273-.43.4-.624s.245-.376.37-.54c.061-.081.126-.158.185-.232s.114-.142.172-.208a2.487,2.487,0,0,1,.348-.326,1.044,1.044,0,0,1,.7-.25.893.893,0,0,1,.626.381,2.261,2.261,0,0,1,.263.438c.042.087.08.181.118.282s.063.206.092.318a7.251,7.251,0,0,1,.14.758A8.976,8.976,0,0,1,963.587,6030.354Z" transform="translate(-908.031 -6005.669)" fill="#f17785"/>
        <path id="Trazado_144709" data-name="Trazado 144709" d="M860.14,6106.076a6.516,6.516,0,0,0,2.865-.417,1.61,1.61,0,0,1,.9-.075,11.863,11.863,0,0,1,3.542,1.326,1.514,1.514,0,0,1,.627.548.624.624,0,0,1,.063.469c-.114.394-.592.484-.954.656-.8.377-1.207,1.338-2.025,1.668a2.262,2.262,0,0,1-1.857-.214c-.57-.3-1.058-.73-1.6-1.083a2.9,2.9,0,0,0-1.8-.577A3.356,3.356,0,0,0,860.14,6106.076Z" transform="translate(-830.772 -6066.482)" fill="#f17785"/>
        <path id="Trazado_144710" data-name="Trazado 144710" d="M751.948,6006.336l-2.307.579a110.623,110.623,0,0,0,.935,11.6c.319,2.374.737,4.883,1.282,7.47q-1.932.24-3.877.36a62.293,62.293,0,0,1-12.7-.519c-.109-4.534-.469-13.656-1.08-18.151-.331-2.431-.648-5.191.922-7.074a8.622,8.622,0,0,1,3.58-2.175l1.5-.6.044-.019,2.679-1.075c1.034.526,2.192,1.051,3.345,1.574l.764.348c.423.192,1.1.517,1.662.792a4.453,4.453,0,0,1,1.9,1.751A9.681,9.681,0,0,1,751.948,6006.336Z" transform="translate(-732.897 -5981.943)" fill="#462261"/>
        <path id="Trazado_144711" data-name="Trazado 144711" d="M764.281,6077.378c-12.677-3.374-14.366-14.5-14.366-14.5L763,6069.908C763.317,6072.282,763.736,6074.791,764.281,6077.378Z" transform="translate(-745.319 -6033.332)" fill="#311649"/>
        <path id="Trazado_144712" data-name="Trazado 144712" d="M768.86,5981.145a12.883,12.883,0,0,1-5.456-.182,7.587,7.587,0,0,0,.707-2.913,7.745,7.745,0,0,0-.924-4.017c2.1-.064,4.383.8,5.323,2.428a10.02,10.02,0,0,0-.12,1.24,10.265,10.265,0,0,0,.47,3.444Z" transform="translate(-755.63 -5964.301)" fill="#f68895"/>
        <g id="Grupo_73062" data-name="Grupo 73062" transform="translate(4.595 26.743)">
          <path id="Trazado_144713" data-name="Trazado 144713" d="M778.823,6065c-.046.283-.641.468-1.687.576a31.431,31.431,0,0,1-4.406.056c-.931-.045-1.953-.124-3.055-.255s-2.284-.317-3.527-.59a30.8,30.8,0,0,1-3.886-1.111c-.667-.237-1.341-.514-2.021-.816-.169-.077-.337-.158-.507-.238s-.339-.161-.508-.251l-.508-.263-.506-.283c-.17-.093-.336-.192-.5-.294s-.331-.2-.494-.3c-.323-.213-.646-.421-.955-.648a20.057,20.057,0,0,1-1.782-1.429c-.2-.184-.393-.367-.585-.551-.077-.073-.152-.146-.225-.22q-.381-.4-.751-.8c-.233-.272-.462-.546-.685-.817s-.422-.554-.626-.828a20.907,20.907,0,0,1-1.7-2.827,12.4,12.4,0,0,0,4.162-2.807c.173.285.353.563.541.837,6.374,9.332,20.621,11.967,20.936,12.023h.005c.726.275,1.352.525,1.853.755C778.36,6064.354,778.87,6064.715,778.823,6065Z" transform="translate(-749.911 -6050.302)" fill="#f17785"/>
        </g>
        <path id="Trazado_144714" data-name="Trazado 144714" d="M877.446,6103.71a2.94,2.94,0,0,0-4.312.222c-.165.2-.305.485-.163.7.16.241.527.181.8.074a6.587,6.587,0,0,0,1.474-.813l1.852.688Z" transform="translate(-840.877 -6064.402)" fill="#f68895"/>
        <path id="Trazado_144715" data-name="Trazado 144715" d="M869.959,6120.691a1.5,1.5,0,0,0-.458-1.306,2.042,2.042,0,0,0-1.305-.533,3.248,3.248,0,0,0-1.4.271,1.468,1.468,0,0,0,.534,1.242,2.161,2.161,0,0,0,1.266.492A4.685,4.685,0,0,0,869.959,6120.691Z" transform="translate(-836.115 -6076.813)" fill="#f68895"/>
        <path id="Trazado_144716" data-name="Trazado 144716" d="M768.871,5998.661a3,3,0,0,1-.429.722,3.543,3.543,0,0,1-2.969,1.235,3.909,3.909,0,0,1-2.809-1.525,3.856,3.856,0,0,1-.624-1.262.408.408,0,0,1,.044-.018q1.339-.539,2.679-1.075c1.034.525,2.192,1.051,3.344,1.574Z" transform="translate(-754.739 -5981.944)" fill="#f68895"/>
        <path id="Trazado_144717" data-name="Trazado 144717" d="M768.53,5979.782a6.617,6.617,0,0,1-4.469-3.008,7.751,7.751,0,0,0-.874-2.742c2.1-.064,4.383.8,5.323,2.428a10.02,10.02,0,0,0-.12,1.24A10.268,10.268,0,0,0,768.53,5979.782Z" transform="translate(-755.63 -5964.301)" fill="#f17785"/>
        <path id="Trazado_144718" data-name="Trazado 144718" d="M787.385,5945.486a4.464,4.464,0,0,1-.317,3.688c-.137-.892-.278-1.747-.415-2.638a1.338,1.338,0,0,1,.2-1.187.388.388,0,0,1,.347-.119C787.321,5945.262,787.451,5945.377,787.385,5945.486Z" transform="translate(-773.827 -5941.921)" fill="#e5295b"/>
        <path id="Trazado_144719" data-name="Trazado 144719" d="M767.932,5944.255a8.29,8.29,0,0,0,.829,5.165,5.341,5.341,0,0,1,1.03,2.785,2.579,2.579,0,0,1-2.914,2.045,4.864,4.864,0,0,1-3.182-2.186,9.121,9.121,0,0,1-1.517-6.913A10.067,10.067,0,0,1,767.932,5944.255Z" transform="translate(-754.727 -5941.09)" fill="#f68895"/>
        <path id="Trazado_144720" data-name="Trazado 144720" d="M756.635,5940.582a6.686,6.686,0,0,0,.361-3.834,4.893,4.893,0,0,0,3.881-.091,4.78,4.78,0,0,0,2.529-2.884,10.719,10.719,0,0,0-4.521-1.265,3.493,3.493,0,0,0-1.954.355,2.134,2.134,0,0,0-.951,2.292,1.271,1.271,0,0,0-1.353.815,2.571,2.571,0,0,0-.049,1.679A5.045,5.045,0,0,0,756.635,5940.582Z" transform="translate(-748.852 -5932.036)" fill="#fb446c"/>
        <path id="Trazado_144721" data-name="Trazado 144721" d="M760.189,5966.375a.544.544,0,0,0-.463-.54.706.706,0,0,0-.667.322,1.021,1.021,0,0,0-.126.752,1.889,1.889,0,0,0,.324.706,1.769,1.769,0,0,0,.883.719.935.935,0,0,0,1.04-.3C760.713,5967.538,760.143,5967.051,760.189,5966.375Z" transform="translate(-752.308 -5957.93)" fill="#f68895"/>
        <path id="Trazado_144722" data-name="Trazado 144722" d="M785.979,5974.343a2.728,2.728,0,0,0,1.1-.286.118.118,0,0,1,.17.1.724.724,0,0,1-.2.564.846.846,0,0,1-.762.233c-.216-.044-.325-.239-.41-.447A.117.117,0,0,1,785.979,5974.343Z" transform="translate(-773.251 -5964.313)" fill="#f9dee4"/>
        <path id="Trazado_144723" data-name="Trazado 144723" d="M753.4,6056.2a8.748,8.748,0,0,0,.5,2.4c-.077-.073-.152-.146-.225-.22q-.381-.4-.751-.8c-.233-.272-.462-.546-.685-.817s-.422-.554-.626-.828a20.907,20.907,0,0,1-1.7-2.827,12.4,12.4,0,0,0,4.162-2.807c.173.285.353.563.541.837A9,9,0,0,0,753.4,6056.2Z" transform="translate(-745.316 -6023.559)" fill="#ea687b"/>
        <path id="Trazado_144724" data-name="Trazado 144724" d="M980.38,6006.955a8.708,8.708,0,0,1-2.139,1.082c-.049.393-.1.816-.144,1.265-.5,4.806-.793,12.488-.889,16.528-1.3.188-2.621.334-3.955.437a64.772,64.772,0,0,1-8.958.083q-1.943-.12-3.878-.361c.546-2.587.964-5.1,1.283-7.47a110.68,110.68,0,0,0,.934-11.6l-2.622-.579a9.69,9.69,0,0,1,1.354-5.134,4.461,4.461,0,0,1,1.9-1.752c.567-.274,1.555-.6,1.978-.791.253-.115.508-.231.763-.349,1.153-.523,2.31-1.049,3.344-1.575q1.342.541,2.679,1.075c.016,0,.029.012.044.018l1.5.6c.316.127.648.256.982.4a8.9,8.9,0,0,1,1.4.255,4.319,4.319,0,0,1,2.135,1.258,6.464,6.464,0,0,1,1.139,2.572C979.607,6004.27,980,6005.595,980.38,6006.955Z" transform="translate(-908.542 -5981.942)" fill="url(#linear-gradient)"/>
        <path id="Trazado_144725" data-name="Trazado 144725" d="M994.171,5976.767a7.59,7.59,0,0,0,.7,2.785,12.858,12.858,0,0,1-5.455.182,10.189,10.189,0,0,0,.461-2.551c.017-.3.019-.6.009-.893v-.006a9.972,9.972,0,0,0-.121-1.234c.939-1.634,3.227-2.492,5.323-2.428a7.74,7.74,0,0,0-.874,2.742c-.019.158-.034.318-.043.479a7.691,7.691,0,0,0-.007.8C994.167,5976.682,994.169,5976.725,994.171,5976.767Z" transform="translate(-931.391 -5963.206)" fill="#f68895"/>
        <path id="Trazado_144726" data-name="Trazado 144726" d="M999.107,5996.737a4.7,4.7,0,0,1-4.288,1.9l.84,2.11s3.032-.418,4.087-2.663Z" transform="translate(-935.588 -5981.943)" fill="#bde9ff"/>
        <path id="Trazado_144727" data-name="Trazado 144727" d="M987.953,6001.247a1.6,1.6,0,0,1-1.205-1.144l-.766.919a3.131,3.131,0,0,0,.69,2.1Z" transform="translate(-928.721 -5984.559)" fill="#bde9ff"/>
        <path id="Trazado_144728" data-name="Trazado 144728" d="M1024.221,6050.376c-.5,4.805-.793,12.488-.889,16.527-1.3.188-2.621.334-3.955.438,2.51-7.922,2-17.737,2-17.737Z" transform="translate(-954.666 -6023.017)" fill="#0386e9" opacity="0.5"/>
        <g id="Grupo_73063" data-name="Grupo 73063" transform="translate(64.204 25.287)">
          <path id="Trazado_144729" data-name="Trazado 144729" d="M1025.063,6050.75q0,.511,0,1.03t-.012,1.05c0,.175-.006.353-.01.53s-.02.355-.029.534c-.043.715-.091,1.44-.147,2.172q-.12,1.1-.253,2.164c-.023.177-.045.354-.067.53s-.059.35-.087.524q-.088.522-.175,1.035t-.178,1.013q-.108.5-.214.989t-.216.965c-.075.317-.137.632-.225.94q-.253.921-.493,1.8c-.041.145-.081.289-.122.431s-.089.284-.133.423c-.09.278-.181.552-.268.822l-.264.792c-.047.138-.091.274-.136.408a4.029,4.029,0,0,1-.071,3.016,3.469,3.469,0,0,1-2.727,2.047,1.164,1.164,0,0,1-1.076-.342,1.4,1.4,0,0,1-.037-1.315,4.873,4.873,0,0,0,.45-1.288c.041-.459-.235-1-.662-1-.259,0-.574.181-.74-.034a.382.382,0,0,1,.018-.427.994.994,0,0,1,.34-.274l1.725-1c1.2-8.173.588-19.7.408-22.553-.027-.426-.044-.659-.044-.659a9,9,0,0,0,4.709-1.3c.026.14.055.279.082.421q.077.42.155.853c.025.145.053.291.074.438s.039.3.058.447q.114.9.211,1.853c.038.316.049.639.069.966,0,.089.01.178.014.268.013.238.024.479.037.721Q1025.043,6050.239,1025.063,6050.75Z" transform="translate(-1017.108 -6043.774)" fill="#f68895"/>
        </g>
        <path id="Trazado_144730" data-name="Trazado 144730" d="M1033.707,6049.019a5.04,5.04,0,0,0-5.327-3.285c-.027-.426-.044-.659-.044-.659a9,9,0,0,0,4.709-1.3c.026.14.055.279.082.421q.077.42.155.853c.026.145.053.291.074.438s.039.3.058.447q.114.9.211,1.853c.038.316.049.639.069.966C1033.7,6048.84,1033.7,6048.93,1033.707,6049.019Z" transform="translate(-961.628 -6018.487)" fill="#f17785"/>
        <path id="Trazado_144731" data-name="Trazado 144731" d="M996.307,5972.622a7.74,7.74,0,0,0-.874,2.742c-.019.158-.034.318-.043.479a7.709,7.709,0,0,0-.007.8c0,.043,0,.086.006.128a7.5,7.5,0,0,1-4.293.416c.017-.3.019-.6.009-.893v-.006a9.984,9.984,0,0,0-.121-1.234C991.923,5973.416,994.211,5972.558,996.307,5972.622Z" transform="translate(-932.608 -5963.206)" fill="#f17785"/>
        <path id="Trazado_144732" data-name="Trazado 144732" d="M987.294,5954.44a3.614,3.614,0,0,0,.4,2.571,9.074,9.074,0,0,0,.755-2.188c.033-.16.039-.369-.108-.439a.379.379,0,0,0-.231,0C987.759,5954.448,987.65,5954.373,987.294,5954.44Z" transform="translate(-929.678 -5949.023)" fill="#462261"/>
        <path id="Trazado_144733" data-name="Trazado 144733" d="M983.027,5946.138a8.287,8.287,0,0,1-.828,5.165,5.343,5.343,0,0,0-1.03,2.785,2.579,2.579,0,0,0,2.914,2.045,4.863,4.863,0,0,0,3.181-2.185,9.121,9.121,0,0,0,1.517-6.914A10.062,10.062,0,0,0,983.027,5946.138Z" transform="translate(-924.976 -5942.552)" fill="#f68895"/>
        <path id="Trazado_144734" data-name="Trazado 144734" d="M987.25,5976.225a2.729,2.729,0,0,1-1.1-.285.117.117,0,0,0-.17.1.725.725,0,0,0,.2.564.849.849,0,0,0,.762.232c.216-.044.324-.239.41-.446A.118.118,0,0,0,987.25,5976.225Z" transform="translate(-928.723 -5965.776)" fill="#f9dee4"/>
        <path id="Trazado_144735" data-name="Trazado 144735" d="M985.129,5936.492a6.921,6.921,0,0,0,4.561-1.768,8.077,8.077,0,0,0,1.9,4.9,7.021,7.021,0,0,0,2.82-4.906,2.736,2.736,0,0,0-.208-1.531,1.267,1.267,0,0,0-1.275-.717,3.62,3.62,0,0,0-3.366-2.039,4.625,4.625,0,0,0-3.536,2A6.354,6.354,0,0,0,985.129,5936.492Z" transform="translate(-928.042 -5930.425)" fill="#462261"/>
        <path id="Trazado_144736" data-name="Trazado 144736" d="M1010.551,5966.243a1.672,1.672,0,0,1,.7-1.1.706.706,0,0,1,.711.209,1.02,1.02,0,0,1,.248.721,1.887,1.887,0,0,1-.2.75,1.779,1.779,0,0,1-.754.854.937.937,0,0,1-1.075-.13C1010.55,5966.979,1010.707,5966.9,1010.551,5966.243Z" transform="translate(-947.516 -5957.373)" fill="#f68895"/>
      </g>
      <g id="Grupo_73065" data-name="Grupo 73065" transform="translate(317.434 113.262)">
        <path id="Trazado_144737" data-name="Trazado 144737" d="M1355.266,6491.395c-.659-.138-1-.854-1.236-1.484-.293-.769-.613-1.949-.925-3a.507.507,0,0,0-.98.036,12.632,12.632,0,0,0-.234,3.848,4.5,4.5,0,0,0,.61,1.9,2.49,2.49,0,0,0,1.586,1.148,1.739,1.739,0,0,0,1.764-.7C1355.63,6492.573,1355.486,6491.967,1355.266,6491.395Z" transform="translate(-1351.285 -6475.746)" fill="#f17785"/>
        <path id="Trazado_144738" data-name="Trazado 144738" d="M1352.713,6493.405c-.648-.181-.937-.919-1.134-1.563-.241-.787-.481-1.986-.722-3.055a.507.507,0,0,0-.981-.03,12.648,12.648,0,0,0-.49,3.825,4.5,4.5,0,0,0,.482,1.938,2.489,2.489,0,0,0,1.506,1.251,1.737,1.737,0,0,0,1.807-.579C1353,6494.607,1352.9,6493.992,1352.713,6493.405Z" transform="translate(-1349.377 -6477.178)" fill="#f68895"/>
        <path id="Trazado_144739" data-name="Trazado 144739" d="M1619.487,6783.259a2.377,2.377,0,0,1,.321,4.214c-.627.386-1.409.467-2.018.88a2.228,2.228,0,0,0-.854,2.431,12.968,12.968,0,0,0,5.779-.464,5.859,5.859,0,0,0,3.851-4.116,19.572,19.572,0,0,1-2.654-4.763Z" transform="translate(-1557.177 -6704.852)" fill="#311649"/>
        <path id="Trazado_144740" data-name="Trazado 144740" d="M1469.494,6786.312a16.625,16.625,0,0,0,.361,7.617,30.911,30.911,0,0,1-10.487.422,1.655,1.655,0,0,1,.173-1.953,3.428,3.428,0,0,1,1.735-1.028,12.734,12.734,0,0,0,1.945-.634,3.876,3.876,0,0,0,2.067-3.882A7.231,7.231,0,0,1,1469.494,6786.312Z" transform="translate(-1434.636 -6708.562)" fill="#311649"/>
        <path id="Trazado_144741" data-name="Trazado 144741" d="M1400.914,6487.773l-37.821,3.529.222,3.223,38.059-.083Z" transform="translate(-1360.033 -6476.697)" fill="#5229b7"/>
        <path id="Trazado_144742" data-name="Trazado 144742" d="M1562.263,6629.67a13.916,13.916,0,0,1-6.705,2.251,73.457,73.457,0,0,1-10.5-14,42.242,42.242,0,0,1-3.593-8.138l-6.772-22.626,8.3-2.515,3.758,2.832s-.4,15.084,2.163,20.245c0,0,1.579,3.012,3.842,7A141.937,141.937,0,0,0,1562.263,6629.67Z" transform="translate(-1493.347 -6551.955)" fill="#311649"/>
        <path id="Trazado_144743" data-name="Trazado 144743" d="M1500.806,6583.079h0c-7.919,11.055-14.117,15.29-14.214,15.355h0a78.564,78.564,0,0,0-2.163,11.186,119.875,119.875,0,0,0-.983,13.248,9.928,9.928,0,0,1-7.321-.111,73.915,73.915,0,0,1,.9-13.8c1.007-7.222,2.434-13.694,2.434-13.694a65.033,65.033,0,0,1,12.391-18.626c1.979-2.118,3.35-3.327,3.408-3.378h0l3.912-1.211a7.684,7.684,0,0,1,2.626,5.525A13.62,13.62,0,0,1,1500.806,6583.079Z" transform="translate(-1447.794 -6542.172)" fill="#462261"/>
        <path id="Trazado_144744" data-name="Trazado 144744" d="M1502.231,6474.636a11.05,11.05,0,0,0-3.043,3.078c-.075-.078-.153-.155-.231-.228a6.86,6.86,0,0,0-3.2-1.7,15.548,15.548,0,0,1,2.637-3.272c.5.092,1.058.167,1.567.258l.08.014c.092.133.188.26.29.382l.04.048A5.235,5.235,0,0,0,1502.231,6474.636Z" transform="translate(-1463.1 -6464.843)" fill="#f68895"/>
        <path id="Trazado_144745" data-name="Trazado 144745" d="M1522.182,6503.349a18.038,18.038,0,0,1-11.721,4.4c-.31-4.065-3.811-7.189-5.541-10.881a15.371,15.371,0,0,1-.7-10.633c.012-.042.024-.083.037-.124a12.536,12.536,0,0,1,2.058-4.027c.665-.027,1.332-.055,2-.059h.2c.026,0,.054,0,.085,0,1.339.035,7.075.6,9.537,7.55a.016.016,0,0,1,0,.007l.508,1.731q1.627,5.544,3.255,11.086Q1522.043,6502.873,1522.182,6503.349Z" transform="translate(-1469.188 -6472.228)" fill="#703cd5"/>
        <path id="Trazado_144746" data-name="Trazado 144746" d="M1510.518,6482.027c0,.056-.1,2.273-4.095,4.21a12.57,12.57,0,0,1,2.095-4.15C1509.184,6482.059,1509.852,6482.031,1510.518,6482.027Z" transform="translate(-1471.388 -6472.232)" fill="#f68895"/>
        <path id="Trazado_144747" data-name="Trazado 144747" d="M1522.183,6517.585a18.039,18.039,0,0,1-11.721,4.4c-.31-4.065-3.811-7.189-5.541-10.881a15.375,15.375,0,0,1-.7-10.633c.012-.042.025-.083.038-.123a7.11,7.11,0,0,1,.96.35c1.91.855,3.554,2.649,5.034,4.129a5.269,5.269,0,0,0-3.1,4.065,9.966,9.966,0,0,0,.715,5.234,8.911,8.911,0,0,0,2.254,3.573,7.6,7.6,0,0,0,6.757,1.376,14.788,14.788,0,0,0,5.021-2.44Q1522.043,6517.11,1522.183,6517.585Z" transform="translate(-1469.188 -6486.464)" fill="#5229b7"/>
        <path id="Trazado_144748" data-name="Trazado 144748" d="M1500.369,6473.217a5.656,5.656,0,0,0-1.412,4.269,6.86,6.86,0,0,0-3.2-1.7,15.548,15.548,0,0,1,2.637-3.272c.5.092,1.058.167,1.567.258a.575.575,0,0,0,.036.13.468.468,0,0,0,.333.266.243.243,0,0,0,.086,0Z" transform="translate(-1463.1 -6464.843)" fill="#f17785"/>
        <path id="Trazado_144749" data-name="Trazado 144749" d="M1400.914,6491.581l-37.821,3.529.222,3.223,38.059-.083Z" transform="translate(-1360.033 -6479.655)" fill="#703cd5"/>
        <path id="Trazado_144750" data-name="Trazado 144750" d="M1484.03,6455.4a4.255,4.255,0,0,1-1.072,1.039,2.05,2.05,0,0,1-1.431.328,2.556,2.556,0,0,1-1.612-1.325c-.072-.115-.138-.234-.2-.352-.05-.094-.1-.188-.145-.284a11.529,11.529,0,0,1-.986-7.179,8.876,8.876,0,0,1,7.034-.6A9.577,9.577,0,0,1,1484.03,6455.4Z" transform="translate(-1449.609 -6444.68)" fill="#f68895"/>
        <path id="Trazado_144751" data-name="Trazado 144751" d="M1479.723,6445.805a1.528,1.528,0,0,0,1.094-1.776.9.9,0,0,0-.333-.574.744.744,0,0,0-.925.123,1.026,1.026,0,0,0-.223.946,2.091,2.091,0,0,1-1.363-.793,2.045,2.045,0,0,1-.361-1.516,3.893,3.893,0,0,1-3.051.308,3.738,3.738,0,0,1-2.306-1.923,12.783,12.783,0,0,1,1.969-1.768,4.377,4.377,0,0,1,2.481-.705,2.68,2.68,0,0,1,2.176,1.254,2.452,2.452,0,0,1,2.952.6,4.563,4.563,0,0,1,1,3.225,13.546,13.546,0,0,1-.719,3.378A7.267,7.267,0,0,1,1479.723,6445.805Z" transform="translate(-1444.842 -6438.122)" fill="#462261"/>
        <path id="Trazado_144752" data-name="Trazado 144752" d="M1484.937,6482.5a.721.721,0,0,1-.218.557.846.846,0,0,1-.694.217c-.072-.115-.138-.234-.2-.352-.05-.094-.1-.188-.145-.285a2.719,2.719,0,0,0,1.092-.241A.116.116,0,0,1,1484.937,6482.5Z" transform="translate(-1453.718 -6472.515)" fill="#f9dee4"/>
      </g>
      <g id="Grupo_73066" data-name="Grupo 73066" transform="translate(289.656 133.36)">
        <path id="Trazado_144753" data-name="Trazado 144753" d="M1227.949,6556.557a2.068,2.068,0,0,1-.506-1.864c.054-.822.254-2.028.408-3.112a.507.507,0,0,0-.906-.375,12.641,12.641,0,0,0-1.814,3.4,4.5,4.5,0,0,0-.237,1.983,2.493,2.493,0,0,0,.964,1.7,1.739,1.739,0,0,0,1.895.1C1227.79,6557.781,1227.911,6557.169,1227.949,6556.557Z" transform="translate(-1224.862 -6545.918)" fill="#f68895"/>
        <path id="Trazado_144754" data-name="Trazado 144754" d="M1242.747,6533.665a2.069,2.069,0,0,1,.166-1.925c.333-.752.936-1.816,1.454-2.782a.507.507,0,0,0-.722-.664,12.62,12.62,0,0,0-2.874,2.57,4.5,4.5,0,0,0-.9,1.78,2.492,2.492,0,0,0,.319,1.932,1.738,1.738,0,0,0,1.745.745C1242.177,6534.759,1242.5,6534.227,1242.747,6533.665Z" transform="translate(-1236.467 -6528.211)" fill="#f17785"/>
        <path id="Trazado_144755" data-name="Trazado 144755" d="M1545.947,6790.86a1.983,1.983,0,0,1-1.935-1.229c-.235-.61-.148-1.3-.356-1.926a2.164,2.164,0,0,0-1.685-1.418,2.011,2.011,0,0,0-.405-.02l-1.783-.085-.528-3.246a17.411,17.411,0,0,0,4.66-1.342,5.211,5.211,0,0,1,2.791,4.165A11.535,11.535,0,0,1,1545.947,6790.86Z" transform="translate(-1469.117 -6725.067)" fill="#311649"/>
        <path id="Trazado_144756" data-name="Trazado 144756" d="M1342.751,6790.459a14.787,14.787,0,0,0,.321,6.775,27.476,27.476,0,0,1-9.328.375,1.472,1.472,0,0,1,.154-1.737,3.053,3.053,0,0,1,1.543-.915,11.362,11.362,0,0,0,1.73-.563,3.448,3.448,0,0,0,1.838-3.454A6.432,6.432,0,0,1,1342.751,6790.459Z" transform="translate(-1309.281 -6731.89)" fill="#311649"/>
        <path id="Trazado_144757" data-name="Trazado 144757" d="M1415.309,6704.4a67.536,67.536,0,0,0,8.575,24.362,64.007,64.007,0,0,0,20.765-4.778c-.444-1.214-.772-2.458-1.216-3.672-5.248.668-10.62,1.269-15.868,1.937a58.728,58.728,0,0,1-2.362-20.787A19.418,19.418,0,0,1,1415.309,6704.4Z" transform="translate(-1372.822 -6662.81)" fill="#5229b7"/>
        <path id="Trazado_144758" data-name="Trazado 144758" d="M1272.706,6566.328l-25.993-16.963-1.835,2.586,23.991,18.882Z" transform="translate(-1240.412 -6544.645)" fill="#e0245e"/>
        <path id="Trazado_144759" data-name="Trazado 144759" d="M1351.538,6691.934a6.58,6.58,0,0,1-3.732,4.738,17.661,17.661,0,0,1-6.064,1.489c-4.816.548-9.19-.218-14.013-.706,0,0,3.2,8.123,5.3,13.475a9.223,9.223,0,0,1-6.028,2.122l-.193,0v0l0-.007c-.2-.318-5.535-9.994-6.9-16.853a5.057,5.057,0,0,1,4.129-5.973c.193-.031.389-.063.586-.091.165-.025.333-.049.5-.07h.008a54.076,54.076,0,0,1,7.024.036c2.71.14,5.213.346,5.969.41a8.027,8.027,0,0,0,1.385-.263c2.931-.845,6.178-1.395,8.817-2.926l.671-.4,1.041,1.15.389.431a4.425,4.425,0,0,1,1.116,2.332A4.13,4.13,0,0,1,1351.538,6691.934Z" transform="translate(-1298.616 -6651.506)" fill="#703cd5"/>
        <path id="Trazado_144760" data-name="Trazado 144760" d="M1311.521,6614.345a11.993,11.993,0,0,0,3.4,6.869,3.154,3.154,0,0,0,2.933,1.17,2.931,2.931,0,0,0,1.7-2.141,7.772,7.772,0,0,0-1.545-7.081c-.468-.04-.893-.04-1.36-.079a10.255,10.255,0,0,0-2.657.011A3.925,3.925,0,0,0,1311.521,6614.345Z" transform="translate(-1292.188 -6594.085)" fill="#f68895"/>
        <path id="Trazado_144761" data-name="Trazado 144761" d="M1310.932,6608.291a14.687,14.687,0,0,0-.861-3.345,2.06,2.06,0,0,0-1.129-1.361,2.213,2.213,0,0,0-1.8.585,4.982,4.982,0,0,0-4.488-1.724,4.851,4.851,0,0,0-3.714,2.945,5.5,5.5,0,0,0,3.464,1.753,5.819,5.819,0,0,0,3.884-.944,4.851,4.851,0,0,0,1.739,1.9,3.184,3.184,0,0,0,1.356.482A2.294,2.294,0,0,0,1310.932,6608.291Z" transform="translate(-1282.414 -6585.847)" fill="#462261"/>
        <path id="Trazado_144762" data-name="Trazado 144762" d="M1282.254,6597.917a45.516,45.516,0,0,1-11.233,3.272,18.875,18.875,0,0,1-10.594-8.861l-27.284-17.31.833-3.086,26.86,12.345a8.606,8.606,0,0,1,6.859-.938c3.139.943,5.42,3.589,7.515,6.109l5.086,6.114Q1281.275,6596.74,1282.254,6597.917Z" transform="translate(-1231.295 -6562.179)" fill="#f23b6b"/>
        <path id="Trazado_144763" data-name="Trazado 144763" d="M1377.269,6668.944a45.516,45.516,0,0,1-11.233,3.272,18.872,18.872,0,0,1-10.595-8.862l2.835,1.638a6.907,6.907,0,0,0,4.666,5.1,10.706,10.706,0,0,0,7.175-.4,20.779,20.779,0,0,0,5.193-3.1Z" transform="translate(-1326.311 -6633.206)" fill="#e0245e"/>
      </g>
      <g id="Grupo_73068" data-name="Grupo 73068" transform="translate(0 118.491)">
        <g id="Grupo_73067" data-name="Grupo 73067" transform="translate(52.855 14.182)">
          <path id="Trazado_144764" data-name="Trazado 144764" d="M301.749,6532.835a10.4,10.4,0,0,1,3.367-1.9c.193-.042.43-.059.554.1.156.2,0,.478-.156.674-.837,1.062-1.674,1.624-2.511,2.685a1.86,1.86,0,0,1-1.058.813.958.958,0,0,1-1.06-.918C301.565,6533.486,301.407,6533.831,301.749,6532.835Z" transform="translate(-270.214 -6529.622)" fill="#f68895"/>
          <path id="Trazado_144765" data-name="Trazado 144765" d="M163.784,6525.132l31.474,2.937-.185,2.683-31.672-.07Z" transform="translate(-163.401 -6525.132)" fill="#0f9df4"/>
        </g>
        <path id="Trazado_144766" data-name="Trazado 144766" d="M-66.443,6783.343a2.429,2.429,0,0,0-1.446,2.009,2.429,2.429,0,0,0,1.125,2.206c.627.385,1.409.467,2.018.88a2.228,2.228,0,0,1,.854,2.431,12.981,12.981,0,0,1-5.778-.464,5.858,5.858,0,0,1-3.851-4.115,19.563,19.563,0,0,0,2.654-4.763Z" transform="translate(73.522 -6710.145)" fill="#311649"/>
        <path id="Trazado_144767" data-name="Trazado 144767" d="M156.846,6787.736a16.627,16.627,0,0,1-.361,7.618,30.924,30.924,0,0,0,10.487.422,1.655,1.655,0,0,0-.173-1.954,3.434,3.434,0,0,0-1.735-1.028,12.68,12.68,0,0,1-1.945-.633,3.876,3.876,0,0,1-2.067-3.883A7.236,7.236,0,0,0,156.846,6787.736Z" transform="translate(-105.173 -6714.897)" fill="#311649"/>
        <path id="Trazado_144768" data-name="Trazado 144768" d="M-12.07,6610.6c-.6,7.645-2.438,23.61-2.438,23.61a15.038,15.038,0,0,1-6.338.2c-.635-.1-1.02-.2-1.02-.2,2.817-6.9,2.374-22.433,2.374-22.433-3.467-6.716-12.233-11.727-12.233-11.727-18.093,18.959-32.085,33.688-32.085,33.688-2.012.971-5.031-.235-6.941-1.228a1.4,1.4,0,0,1-.262-2.315c17.6-14.826,31.263-35.465,35.307-41.9.8-1.278,1.228-2,1.228-2l10.413,7.686q1.947,2.169,3.595,4.075c3.418,3.94,5.857,6.959,7.233,8.7A5.512,5.512,0,0,1-12.07,6610.6Z" transform="translate(71.958 -6558.471)" fill="#462261"/>
        <path id="Trazado_144769" data-name="Trazado 144769" d="M104.22,6598.059a18.734,18.734,0,0,1-15.236-9.764c.8-1.278,1.228-2,1.228-2l10.413,7.686Q102.572,6596.153,104.22,6598.059Z" transform="translate(-52.731 -6558.471)" fill="#311649"/>
        <path id="Trazado_144770" data-name="Trazado 144770" d="M117.707,6675.52c-.635-.1-1.02-.2-1.02-.2,2.816-6.9,2.374-22.432,2.374-22.432-3.467-6.716-12.233-11.727-12.233-11.727l1.51-1.95s10.368,7.373,12.029,13.222C120.368,6652.428,121.16,6667.242,117.707,6675.52Z" transform="translate(-66.594 -6599.576)" fill="#311649"/>
        <path id="Trazado_144771" data-name="Trazado 144771" d="M174.8,6483.257a8.526,8.526,0,0,0,.716,3.192,2.9,2.9,0,0,0,2.607,1.693c-.3-1.041-.588-2.2-.891-3.241a2.421,2.421,0,0,0-.495-1.038A2.776,2.776,0,0,0,174.8,6483.257Z" transform="translate(-119.399 -6478.417)" fill="#462261"/>
        <path id="Trazado_144772" data-name="Trazado 144772" d="M291.549,6558.343a6.526,6.526,0,0,1,2.048-2.267c.163-.111.376-.217.549-.121.218.122.18.442.111.683l-1.116,3.9a1.863,1.863,0,0,1-.671,1.154.959.959,0,0,1-1.329-.448A7.42,7.42,0,0,0,291.549,6558.343Z" transform="translate(-209.788 -6534.868)" fill="#f68895"/>
        <path id="Trazado_144773" data-name="Trazado 144773" d="M179.916,6500.973c-.321.584-.682,1.164-1.035,1.745-.235.388-.469.778-.684,1.17a7.978,7.978,0,0,1-2.657-2.285c-.3-.349-.686-.661-.987-1.009a3.875,3.875,0,0,0,1.518-1.881,3.716,3.716,0,0,0,.236-1.041C177.874,6498.354,178.537,6499.965,179.916,6500.973Z" transform="translate(-119.21 -6489.617)" fill="#f68895"/>
        <path id="Trazado_144774" data-name="Trazado 144774" d="M134.675,6525.808a64.113,64.113,0,0,1-17.136.481,43.907,43.907,0,0,1-8.1-4.072c-.423.579-.85,1.153-1.255,1.742a29.075,29.075,0,0,0-4.791,12.153,16.9,16.9,0,0,1-14.121-8.136c1.856-1.45,2.847-3.59,3.879-5.708,7.426-14.068,15.309-12.41,15.309-12.41a10.783,10.783,0,0,1,2.949,2.249,4.978,4.978,0,0,1,.995,2.69,3.377,3.377,0,0,1-.04,1.76c1.881,1.69,3.772,3.955,6.068,5.017a83.606,83.606,0,0,0,16.3.6A6.65,6.65,0,0,1,134.675,6525.808Z" transform="translate(-52.956 -6499.037)" fill="url(#linear-gradient-2)"/>
        <path id="Trazado_144775" data-name="Trazado 144775" d="M179.23,6515.007c-3.1-.969-3.944-4.938-3.944-4.938a10.773,10.773,0,0,1,2.949,2.249A4.978,4.978,0,0,1,179.23,6515.007Z" transform="translate(-119.779 -6499.247)" fill="#f68895"/>
        <path id="Trazado_144776" data-name="Trazado 144776" d="M185.2,6500.973c-.321.584-.682,1.164-1.035,1.745a5.828,5.828,0,0,1-2.81-4,3.717,3.717,0,0,0,.236-1.041C183.162,6498.354,183.825,6499.965,185.2,6500.973Z" transform="translate(-124.498 -6489.617)" fill="#f17785"/>
        <path id="Trazado_144777" data-name="Trazado 144777" d="M187.993,6473.673l.592,3.781a12.36,12.36,0,0,1,.216,2.36,4.06,4.06,0,0,1-.672,2.221,3.055,3.055,0,0,1-4.026.664,5.673,5.673,0,0,1-2.352-3.9,16.219,16.219,0,0,1,.073-4.8A8.941,8.941,0,0,1,187.993,6473.673Z" transform="translate(-124.684 -6470.665)" fill="#f68895"/>
        <path id="Trazado_144778" data-name="Trazado 144778" d="M176.319,6468.746a1.987,1.987,0,0,0,.452-2.407,6.155,6.155,0,0,0,3.65-.372,6.012,6.012,0,0,0,2.788-2.32,4.021,4.021,0,0,0-3.148-2.082,3.8,3.8,0,0,0-3.283,1.628,1.484,1.484,0,0,0-1.3-.322,1.539,1.539,0,0,0-1.135.755,2.864,2.864,0,0,0-.231,1.6,5.682,5.682,0,0,0,.444,2.132A2.588,2.588,0,0,0,176.319,6468.746Z" transform="translate(-118.859 -6461.561)" fill="#462261"/>
        <path id="Trazado_144779" data-name="Trazado 144779" d="M180,6491.023a.705.705,0,0,0-.872-.49.881.881,0,0,0-.583.87,1.188,1.188,0,0,0,.568.923,1.839,1.839,0,0,0,1.081.248C180.1,6492.044,180.105,6491.553,180,6491.023Z" transform="translate(-122.312 -6484.049)" fill="#f68895"/>
        <path id="Trazado_144780" data-name="Trazado 144780" d="M109.442,6559.32c-.423.578-.85,1.153-1.255,1.742a29.07,29.07,0,0,0-4.791,12.152,16.9,16.9,0,0,1-14.121-8.135c12.852,12.311,17.39-7.525,17.39-7.525Z" transform="translate(-52.956 -6536.14)" fill="#0386e9" opacity="0.5"/>
        <path id="Trazado_144781" data-name="Trazado 144781" d="M204.559,6503.2a2.744,2.744,0,0,0,1.106-.242.117.117,0,0,1,.166.1.724.724,0,0,1-.219.556.846.846,0,0,1-.77.2c-.214-.052-.315-.252-.393-.463A.117.117,0,0,1,204.559,6503.2Z" transform="translate(-142.432 -6493.714)" fill="#f9dee4"/>
      </g>
      <g id="Grupo_73069" data-name="Grupo 73069" transform="translate(49.13 135.861)">
        <path id="Trazado_144782" data-name="Trazado 144782" d="M480.969,6741.9a2.728,2.728,0,0,0,.865,2.618,6.1,6.1,0,0,0,1.666,1.086.92.92,0,0,0,1.311-.7,2.681,2.681,0,0,0-.149-1.208,6.72,6.72,0,0,0-1.369-2.044C482.431,6741.714,481.83,6741.846,480.969,6741.9Z" transform="translate(-406.335 -6696.538)" fill="#f68895"/>
        <path id="Trazado_144783" data-name="Trazado 144783" d="M219.594,6787.143a16.623,16.623,0,0,0,.361,7.617,30.887,30.887,0,0,1-10.487.422,1.654,1.654,0,0,1,.173-1.953,3.435,3.435,0,0,1,1.735-1.028,12.625,12.625,0,0,0,1.945-.633,3.877,3.877,0,0,0,2.067-3.883A7.236,7.236,0,0,1,219.594,6787.143Z" transform="translate(-195.272 -6731.806)" fill="#311649"/>
        <path id="Trazado_144784" data-name="Trazado 144784" d="M156.86,6785.741a16.62,16.62,0,0,0-6.313,1.579,1.116,1.116,0,0,1-1.511-.557,31.271,31.271,0,0,1-2.332-9.025,1.655,1.655,0,0,1,1.941-.281,3.428,3.428,0,0,1,1.4,1.452,12.753,12.753,0,0,0,1.064,1.746,3.876,3.876,0,0,0,4.254,1.117A7.232,7.232,0,0,1,156.86,6785.741Z" transform="translate(-146.705 -6724.211)" fill="#311649"/>
        <path id="Trazado_144785" data-name="Trazado 144785" d="M263.734,6683.959s-7.477-6.221-20.661-6.706a3.711,3.711,0,0,0-3.538,2.241c-1.944,4.5-6.045,14.957-6.725,24.557h6.533s1.61-14.257,5.564-18.843c0,0,7.894,3.128,11.93,8.873Z" transform="translate(-213.601 -6646.503)" fill="#5229b7"/>
        <path id="Trazado_144786" data-name="Trazado 144786" d="M229.694,6711.968c-2.115,2.509-5.21,3.948-8.236,5.222-12.3,5.189-28.678,8.535-41.826,10.845-.284-1.517-.792-3.148-1.165-4.711,34.836-10.553,43.075-20.751,43.146-20.917h0c3.039.247,6.135.219,9.172.467C232.651,6705.575,231.809,6709.458,229.694,6711.968Z" transform="translate(-171.381 -6666.045)" fill="#703cd5"/>
        <path id="Trazado_144787" data-name="Trazado 144787" d="M395.533,6583.029a13.536,13.536,0,0,1-5.26.319,7.384,7.384,0,0,0-.462-4.22,2.1,2.1,0,0,1,1.137-.938c.993-.477,1.922-.936,2.914-1.415a19.22,19.22,0,0,0,.576,3.309A15.9,15.9,0,0,0,395.533,6583.029Z" transform="translate(-335.577 -6568.442)" fill="#f68895"/>
        <path id="Trazado_144788" data-name="Trazado 144788" d="M394.438,6580.084a8.962,8.962,0,0,1-4.075,1.224,7.385,7.385,0,0,0-.551-2.179,2.1,2.1,0,0,1,1.137-.938c.993-.477,1.922-.936,2.914-1.415A19.22,19.22,0,0,0,394.438,6580.084Z" transform="translate(-335.577 -6568.442)" fill="#f17785"/>
        <path id="Trazado_144789" data-name="Trazado 144789" d="M385.316,6555.712a6.539,6.539,0,0,0-.613,1.9,2.212,2.212,0,0,0,.572,1.846c.315-.912.661-1.8.976-2.712a.652.652,0,0,0,.042-.453c-.084-.2-.335-.265-.549-.312S385.353,6555.928,385.316,6555.712Z" transform="translate(-331.595 -6552.078)" fill="#e5295b"/>
        <path id="Trazado_144790" data-name="Trazado 144790" d="M379.183,6555.405a9.557,9.557,0,0,1-1.669,4.33c-.589.835-1.356,1.722-1.192,2.73a2.027,2.027,0,0,0,1.208,1.457,3.513,3.513,0,0,0,1.936.2,5.6,5.6,0,0,0,4.646-6.793,3.208,3.208,0,0,0-1.756-2.135A4.115,4.115,0,0,0,379.183,6555.405Z" transform="translate(-325.079 -6551.499)" fill="#f68895"/>
        <path id="Trazado_144791" data-name="Trazado 144791" d="M406.735,6575.849a.694.694,0,0,1,1.323-.117.9.9,0,0,1-.111.8,2.034,2.034,0,0,1-.609.571,1.672,1.672,0,0,1-.746.317.707.707,0,0,1-.7-.328C406.105,6576.662,406.637,6576.32,406.735,6575.849Z" transform="translate(-348.071 -6567.293)" fill="#f68895"/>
        <path id="Trazado_144792" data-name="Trazado 144792" d="M390.078,6548.2a2.843,2.843,0,0,1-.448-3.451,8.526,8.526,0,0,1-2.505.271A3.169,3.169,0,0,1,384.9,6544a3.111,3.111,0,0,1-.611-2.274,7.316,7.316,0,0,1,.7-2.3c1.27.346,2.56.649,3.83,1a1.618,1.618,0,0,1,1.215,2.67,1.339,1.339,0,0,1,1.494.9,2.906,2.906,0,0,1-.127,1.821A8.257,8.257,0,0,1,390.078,6548.2Z" transform="translate(-331.276 -6539.422)" fill="#fb446c"/>
        <path id="Trazado_144793" data-name="Trazado 144793" d="M379.919,6610.383c-.7,4.305-1.8,9.953-2.5,14.257-4.015.953-7.837-.725-11.6-2.418a36.09,36.09,0,0,0,2.492-12.3,33.443,33.443,0,0,1,.457-6.175,8.024,8.024,0,0,1,1.983-3.829,5.447,5.447,0,0,1,.531-.476,5.091,5.091,0,0,1,.945-.59,5.6,5.6,0,0,1,4.532.378l.016.007a5.869,5.869,0,0,1,1.948,1.445,7.945,7.945,0,0,1,1.645,4.682A23.657,23.657,0,0,1,379.919,6610.383Z" transform="translate(-316.938 -6585.336)" fill="#462261"/>
        <path id="Trazado_144794" data-name="Trazado 144794" d="M428.5,6633.7c-.9.179-1.7.466-2.6.646q-.231-.613-.451-1.235a.12.12,0,0,1-.007-.02,72.879,72.879,0,0,1-3.991-19.52,16.227,16.227,0,0,1-6.836-1.676,15.789,15.789,0,0,1-4.46-3.254c.038-2.2,1.391-3.869,1.429-6.068a73.283,73.283,0,0,0,13.155,6.656,2.971,2.971,0,0,1,1.864,2.856A97.516,97.516,0,0,0,428.5,6633.7Z" transform="translate(-351.383 -6588.486)" fill="#462261"/>
        <path id="Trazado_144795" data-name="Trazado 144795" d="M395.783,6599.229a5.432,5.432,0,0,1-1.795,1.834,2.657,2.657,0,0,1-2.654.289,2.32,2.32,0,0,1-1.026-1.864c0-.016,0-.031,0-.047a5.09,5.09,0,0,1,.945-.59A5.6,5.6,0,0,1,395.783,6599.229Z" transform="translate(-335.96 -6585.336)" fill="#f68895"/>
        <path id="Trazado_144796" data-name="Trazado 144796" d="M440.977,6661.017a72.875,72.875,0,0,1-3.991-19.52,16.22,16.22,0,0,1-6.836-1.676l.215-1.3s3.763,2.292,7.353,1.944C437.718,6640.462,438.479,6653.541,440.977,6661.017Z" transform="translate(-366.916 -6616.411)" fill="#311649"/>
        <path id="Trazado_144797" data-name="Trazado 144797" d="M381.754,6583.435a2.728,2.728,0,0,0,1.04.447.118.118,0,0,1,.074.182.725.725,0,0,1-.5.325.848.848,0,0,1-.744-.284.632.632,0,0,1-.05-.6A.117.117,0,0,1,381.754,6583.435Z" transform="translate(-329.136 -6573.599)" fill="#f9dee4"/>
      </g>
    </g>
  </g>
</svg>
