<svg xmlns="http://www.w3.org/2000/svg" width="420" height="284.171" viewBox="0 0 420 284.171">
  <g id="Grupo_73091" data-name="Grupo 73091" transform="translate(-2124.308 -5812.301)">
    <g id="Grupo_73072" data-name="Grupo 73072" transform="translate(2159.984 6004.814)">
      <rect id="Rectángulo_32418" data-name="Rectángulo 32418" width="87.228" height="89.368" transform="translate(9.315 0)" fill="#da8b39"/>
      <rect id="Rectángulo_32419" data-name="Rectángulo 32419" width="81.898" height="89.368" transform="translate(0 0)" fill="#edcb76"/>
    </g>
    <g id="Grupo_73073" data-name="Grupo 73073" transform="translate(2272.473 6043.842)">
      <rect id="Rectángulo_32420" data-name="Rectángulo 32420" width="75.669" height="50.352" transform="translate(10.774 0)" fill="#da8b39"/>
      <rect id="Rectángulo_32421" data-name="Rectángulo 32421" width="71.825" height="50.352" transform="translate(0 0)" fill="#edcb76"/>
    </g>
    <g id="Grupo_73074" data-name="Grupo 73074" transform="translate(2379.564 6079.286)">
      <rect id="Rectángulo_32422" data-name="Rectángulo 32422" width="68.368" height="14.835" transform="translate(10.002 0)" fill="#da8b39"/>
      <rect id="Rectángulo_32423" data-name="Rectángulo 32423" width="66.681" height="14.835" transform="translate(0 0)" fill="#edcb76"/>
    </g>
    <g id="Grupo_73079" data-name="Grupo 73079" transform="translate(2306.842 5930.283)">
      <g id="Grupo_73075" data-name="Grupo 73075" transform="translate(31.645 0)">
        <path id="Trazado_144798" data-name="Trazado 144798" d="M3451.948,6566.034c7.668,7.27,15.673,16.772,18.818,26.459l1.218-.771a22.315,22.315,0,0,0-.41-4.387c.482.958,1.28,2.514,1.719,3.558l7.453-4.722-1.03-1.877a12.039,12.039,0,0,1,1.594,1.52l3.781-2.4,6.484-5.531-1.062-1.938a12.075,12.075,0,0,1,1.574,1.5l2.03-1.731,1.093-.933.142-.12c-2.084-3.3-6.854-9.039-6.944-9.149,1.412.517,5.959,5.391,8.226,8.054l1.3-1.112c-8.218-13.7-18.632-18.555-26.951-20.107a12.487,12.487,0,0,1-3.051-.978c-2.912-1.375-7.92-4.141-10.014-7.664-3.684-6.194-13.2-5.8-13.845-4.048,0,0-1.262,1.384-1.344,4.7C3442.717,6545.021,3441.553,6556.183,3451.948,6566.034Z" transform="translate(-3442.687 -6538.539)" fill="#d25c2a"/>
        <path id="Trazado_144799" data-name="Trazado 144799" d="M3470.921,6619.892s2.428,4.509-.4,8.151c0,0,2.375,3.418,3.623,3.43,2.146.02,6.341-5.784,6.341-5.784a80.578,80.578,0,0,0-3.782-7.708Z" transform="translate(-3465.996 -6605.075)" fill="#d4959a"/>
        <path id="Trazado_144800" data-name="Trazado 144800" d="M3455.113,6571.731s7.991,1.413,8.795-3.577,2.376-8.168-2.692-9.281-6.369.63-7.042,2.231S3453.055,6571.235,3455.113,6571.731Z" transform="translate(-3451.836 -6555.275)" fill="#e5b0b4"/>
        <path id="Trazado_144801" data-name="Trazado 144801" d="M3454.3,6547.639s10.514,8.093,9.636,13.536c-.825,5.113,4.289,4.067,5.55,3.928,4.737-.521,6.474-.543,8.993.959.944.563-4.2-5.053-6.013-7.382-4.823-6.2-6.61-11.268-7.573-11.871C3458.331,6542.7,3454.3,6547.639,3454.3,6547.639Z" transform="translate(-3452.411 -6544.099)" fill="#d25c2a"/>
      </g>
      <g id="Grupo_73076" data-name="Grupo 73076" transform="translate(37.496 53.981)">
        <path id="Trazado_144802" data-name="Trazado 144802" d="M3717.141,7270.714l2.971,8-3,1.458-5.208-5.839Z" transform="translate(-3674.017 -7205.75)" fill="#e5b0b4"/>
        <path id="Trazado_144803" data-name="Trazado 144803" d="M3740.229,7304.21l2.286,2.784-5.752,8.6S3734.369,7310.806,3740.229,7304.21Z" transform="translate(-3694.435 -7233.803)" fill="#d25c2a"/>
        <path id="Trazado_144804" data-name="Trazado 144804" d="M3478.7,6875.087l19.228-4.266s3.108,4.549,12.474,41.217l14.7,24.569-8.112,4.82-18.55-24.7Z" transform="translate(-3478.703 -6870.822)" fill="#333381"/>
      </g>
      <g id="Grupo_73077" data-name="Grupo 73077" transform="translate(0 19.174)">
        <path id="Trazado_144805" data-name="Trazado 144805" d="M3253.262,6699.21l-.817-1.3a3.788,3.788,0,0,0-3.553-3.181s-1.316-.019-.921.878.369.511.9,1.784a3.56,3.56,0,0,0,2.57,2.332l1.3,1.335Z" transform="translate(-3247.897 -6688.529)" fill="#e5b0b4"/>
        <path id="Trazado_144806" data-name="Trazado 144806" d="M3669.55,6834.737h0a.877.877,0,0,1,.009-.128,22.446,22.446,0,0,0-.406-2.5l3.384.215c.046.02.5,1.013.655,1.316a.563.563,0,0,1,.062.216l.156,1.895a.5.5,0,0,1-.378.529l-.47.119a.923.923,0,0,1-.166.042h0a.914.914,0,0,1-.518-.067l-1.78-.793A.928.928,0,0,1,3669.55,6834.737Z" transform="translate(-3600.717 -6803.592)" fill="#e5b0b4"/>
        <path id="Trazado_144807" data-name="Trazado 144807" d="M3267.946,6668.058a54.08,54.08,0,0,0,3.707,6.122c2.274,3.22,5.266,6.5,7.993,6.476,4.945-.048,14.52-10.082,14.542-10.046a.3.3,0,0,1,.04.142c.066.776-1.245,3.561,1.733,11.573,1.147,3.085,5.141,8.456,6.224,13.313l15.27-3.386,3.958-.881c-.179-.312-.536-1.032-1.224-2.545-.906-1.992-2.255-4.845-2.255-7.861a64.838,64.838,0,0,1,.763-11.268s0-.007,0-.012a49.15,49.15,0,0,0,8.736,3.88s3.714,7.3,5.82,12.4c.243.592,3.531-.192,3.531-.192s-1.927-15.528-4.085-17.3c-3.929-3.228-10.3-10.806-17.375-11.746,0,0,.142-.5-6.263.282-1.027.125.268,4.1-4.3,4.592-4.235.453-2.813-3.332-2.776-3.431-.068.014-4.488.95-6.227,1.457-1.709.5-2.471.351-3.843,1.49a107.713,107.713,0,0,0-12.3,12.224,72.013,72.013,0,0,0-9.63-6.732Z" transform="translate(-3264.689 -6656.563)" fill="#dde3f2"/>
        <path id="Trazado_144808" data-name="Trazado 144808" d="M3545.451,6748.973c.37,1.481,2.629,4.378,4.383,6.15l3.958-.88c-.179-.313-.536-1.033-1.224-2.545-.907-1.992-2.256-4.845-2.256-7.862a64.83,64.83,0,0,1,.763-11.267c-.478-.55-.959-.963-1.309-.937C3548.766,6731.708,3544.912,6746.815,3545.451,6748.973Z" transform="translate(-3497.069 -6719.435)" fill="#ced4ea"/>
        <path id="Trazado_144809" data-name="Trazado 144809" d="M3290.766,6727.55c2.274,3.22,5.266,6.5,7.993,6.476,4.945-.048,14.577-9.963,14.582-9.9.581-.76.492-2.767.294-3.713-.316-1.513-11.382,11.459-14.208,11.51S3292.073,6727.137,3290.766,6727.55Z" transform="translate(-3283.802 -6709.934)" fill="#ced4ea"/>
      </g>
      <g id="Grupo_73078" data-name="Grupo 73078" transform="translate(0.201 53.887)">
        <path id="Trazado_144810" data-name="Trazado 144810" d="M3296.891,7168.678l-6,6.829-2.884-2.077,2.838-7.829Z" transform="translate(-3281.695 -7117.618)" fill="#e5b0b4"/>
        <path id="Trazado_144811" data-name="Trazado 144811" d="M3260.794,7213.611l-1.365,3.333-10.3-.982S3252.208,7211.583,3260.794,7213.611Z" transform="translate(-3249.132 -7157.38)" fill="#d25c2a"/>
        <path id="Trazado_144812" data-name="Trazado 144812" d="M3344.458,6884.8a21.486,21.486,0,0,0-3.381-10.982l.013-.005-2.808-3.575-17.275,3.986s3.293,2.926,1.619,4.381l-20.963,11.325-13.514,32.159,10.574,4.256,15.4-27.021S3344.958,6895.065,3344.458,6884.8Z" transform="translate(-3281.81 -6870.242)" fill="#555ca3"/>
      </g>
    </g>
    <path id="Trazado_144813" data-name="Trazado 144813" d="M2678.567,5885.341s-8.112,6.33-22.516,6.275c-11.718-.045-27.6-4.315-46.67-19.66a41.984,41.984,0,0,0-13.4-7.2c-.363-.119-.729-.232-1.093-.342q-.874-.261-1.75-.487-1.372-.355-2.748-.626c-.114-.024-.23-.047-.345-.068q-.452-.086-.9-.164c-13.638-2.373-27.115.786-34.081,2.939-1.406.435-2.548.829-3.371,1.129-.941.341-1.467.559-1.5.57l.445-.655L2580.2,5823.6s.592-.332,1.694-.842h0c.4-.186.872-.4,1.406-.623.771-.328,1.674-.689,2.7-1.065a61.436,61.436,0,0,1,57,7.4,79.283,79.283,0,0,1,11.116,9.375s13.873,12.461,38.365,3.246C2692.479,5841.094,2673.395,5856.423,2678.567,5885.341Z" transform="translate(-356.698 -4.096)" fill="#ff9d00"/>
    <g id="Grupo_73080" data-name="Grupo 73080" transform="translate(2172.136 5845.341)">
      <path id="Trazado_144814" data-name="Trazado 144814" d="M2564.99,6320.279s42.518-1.621,47.935-9.119c0,0-19.8-9.505-15.281-29.6l-30.577-3.26S2562.148,6313.392,2564.99,6320.279Z" transform="translate(-2540.486 -6235.633)" fill="#2b295e"/>
      <path id="Trazado_144815" data-name="Trazado 144815" d="M2980.8,6729.1l3.744-1.026,5.932,9.439S2984.716,6737.768,2980.8,6729.1Z" transform="translate(-2889.487 -6612.343)" fill="#221e50"/>
      <path id="Trazado_144816" data-name="Trazado 144816" d="M2645.323,6910.881l1.712,3.484-8.155,7.6S2637.549,6916.354,2645.323,6910.881Z" transform="translate(-2603.04 -6765.449)" fill="#221e50"/>
      <path id="Trazado_144817" data-name="Trazado 144817" d="M2796.986,6026.737l-.206-3.061a5.721,5.721,0,0,1-.735-7.165s1.145-1.625,1.891-.346.3.9,1.382,2.681a6.284,6.284,0,0,1,.2,5.135l.375,2.438Z" transform="translate(-2733.955 -6015.675)" fill="#ad7041"/>
      <path id="Trazado_144818" data-name="Trazado 144818" d="M2635.9,6221.922a11.342,11.342,0,0,0,.9-4.932l6.861-4.716c.594,5.825,1.625,7.389,1.572,9.685C2645.232,6222.019,2635.88,6221.982,2635.9,6221.922Z" transform="translate(-2600.619 -6180.336)" fill="#9e5f32"/>
      <path id="Trazado_144819" data-name="Trazado 144819" d="M2625.8,6170.9s8.119,1.994,9.283-3.081,3-8.235-2.139-9.723-6.589.217-7.39,1.816S2623.721,6170.248,2625.8,6170.9Z" transform="translate(-2591.136 -6134.478)" fill="#ad7041"/>
      <path id="Trazado_144820" data-name="Trazado 144820" d="M2638.336,6148.814a8.535,8.535,0,0,0-7.049-8.565c-5.074-1.148-1.639-5.2-1-5.833,0,0,3.866,1.049,7.814,2.236C2646.388,6139.146,2639.306,6147.86,2638.336,6148.814Z" transform="translate(-2594.468 -6115.125)" fill="#2b295e"/>
      <path id="Trazado_144821" data-name="Trazado 144821" d="M2529.823,6549.458s-7,12.793-9.379,17.208c-9.819,18.21-8.892,21.72-8.892,21.72s8.065,10.125,10.716,13c2.87,3.112,11.368,10.944,11.368,10.944l8.2-4.739s-5.628-9.253-7.922-12.338c-1.6-2.152-7.656-8.608-7.656-8.608s4.889-4.771,10.006-9.045c7.3-6.1,16.618-25,16.618-25Z" transform="translate(-2496.451 -6462.742)" fill="#2b295e"/>
      <path id="Trazado_144822" data-name="Trazado 144822" d="M2637.679,6500.751s12.457,47.754,17.845,50.057c9.334,3.989,41.288-8.024,41.288-8.024l-2.454-8.045s-8.252.107-14.25.211c-4.228.073-12.863,1.92-12.863,1.92s-2.833-26.483-7.419-34.133C2652.7,6490.842,2637.679,6500.751,2637.679,6500.751Z" transform="translate(-2602.107 -6418.707)" fill="#333381"/>
      <path id="Trazado_144823" data-name="Trazado 144823" d="M2578.471,6301.621a1.165,1.165,0,0,0,1.1.778,139.791,139.791,0,0,0,14.094,1.124c.535,0,1.039-.011,1.5-.035a81.479,81.479,0,0,0,10.32-1.088,1.015,1.015,0,0,0,.777-1.667,35.023,35.023,0,0,1-4.943-8.714c-2.717-6.329-.777-18.821,1.074-27.35,1.122-5.169,2.21-8.882,2.21-8.882-3.77-1.368-8.937-1.891-13.955-2.107-.761.417-3.859,2.253-6.744,1.7-1.531-.292-1.619-.891-1.486-1.25-6.934.21-8.041,3.128-8.041,3.128C2565.919,6272.86,2576.847,6297.021,2578.471,6301.621Z" transform="translate(-2546.429 -6215.014)" fill="#dde3f2"/>
      <path id="Trazado_144824" data-name="Trazado 144824" d="M2703.134,6100.592s8.523-6.352,10.86-8.742l5.809-22.6,2.827-.042s1.339,22.114.8,23.686c-2.765,8.027-16.369,20.8-16.369,20.8Z" transform="translate(-2656.928 -6060.514)" fill="#dde3f2"/>
      <path id="Trazado_144825" data-name="Trazado 144825" d="M2707.058,6360.14a.5.5,0,0,0-.053.034c.534,0,1.039-.01,1.5-.034a81.341,81.341,0,0,0,10.32-1.089,1.014,1.014,0,0,0,.777-1.667,35.009,35.009,0,0,1-4.943-8.713c-2.717-6.329-.777-18.821,1.074-27.35l-8.144.4s-2.249,17.6-.213,24.492S2708.966,6358.982,2707.058,6360.14Z" transform="translate(-2659.769 -6271.666)" fill="#ced4ea"/>
      <path id="Trazado_144826" data-name="Trazado 144826" d="M2694.721,6101.459s6.888,41.709,21.21,50.455c0,0,9.02-9.895,8.2-12.683,0,0-15.748-12.165-16.24-17.611s-1.194-11.869-.85-12.254,9.166-10.376,9.341-13.542.86-23.119.86-23.119-3.963.372-5.083,0c0,0-4.854,21.032-5.834,22.285s-8.03,7.268-8.833,6.987S2695.16,6100.911,2694.721,6101.459Z" transform="translate(-2649.882 -6063.441)" fill="#555ca3"/>
      <path id="Trazado_144827" data-name="Trazado 144827" d="M2440.7,6278.067c.638-1.147-1.1,9.863-.832,15.11.01.192.021.383.033.569,0,.053.005.1.009.155a39.862,39.862,0,0,0,1.2,8.058s5.071,2.349,7.221,2.069c0,0-7.242-21.828-3.741-36.216,0,0,5.54-10.611,9.294-11.389l-9.632,1.926s-5.648,7.245-7.29,9.783c-1.37,2.118-4.759,8.838-4.759,8.838l-5.212-5.93-5.628-5.137-2.644,2.342s6.572,18.017,14.5,18.356C2434.012,6286.638,2436.5,6285.612,2440.7,6278.067Z" transform="translate(-2418.715 -6217.313)" fill="#555ca3"/>
      <path id="Trazado_144828" data-name="Trazado 144828" d="M2694.67,6249.7s3.608,5.576,4.264,6.177l-1.073,1.422,1.4.681s.729,13.807,1.385,15.789C2700.647,6273.765,2694.379,6251.208,2694.67,6249.7Z" transform="translate(-2649.831 -6211.678)" fill="#333381"/>
      <path id="Trazado_144829" data-name="Trazado 144829" d="M2582.051,6255.26c.147.023-9.736,8.272-10.639,16.224,0,0-1.206-2.14,1.254-7.551a38.031,38.031,0,0,0,1.8-5.139l1.8-.054-1.256-.6s5.07-3.237,5.987-3.124A2.819,2.819,0,0,1,2582.051,6255.26Z" transform="translate(-2546.358 -6216.13)" fill="#333381"/>
      <path id="Trazado_144830" data-name="Trazado 144830" d="M2794.623,6457.706a7.73,7.73,0,0,0,3.36-2.908,18.257,18.257,0,0,0,1.4-2.229h0c-.021.042-2.355,4.08-4.835,4.93Z" transform="translate(-2733.495 -6381.593)" fill="#2b295e"/>
      <path id="Trazado_144831" data-name="Trazado 144831" d="M2549.111,6486.166q0,.078.009.155a6.777,6.777,0,0,0,3.566.326l-.054-.212a4.412,4.412,0,0,1-1.06.118A9.452,9.452,0,0,1,2549.111,6486.166Z" transform="translate(-2527.927 -6409.731)" fill="#2b295e"/>
      <path id="Trazado_144832" data-name="Trazado 144832" d="M2754.615,6582.481c.109.328,3.936,21.319,4.483,25.255l.656,3.5s-.055,1.694,1.148,1.421,13.5-1.745,16.563-1.8,12.9-.549,12.9-.549-10.24.748-11.006.748a18.563,18.563,0,0,0-2.624.109c-.437.109-12.245.861-14.285,1.523s-2.7.322-2.7,0a11.191,11.191,0,0,0-.546-2.361c-.255-.656-1.531-9.8-1.8-10.706S2754.615,6582.481,2754.615,6582.481Z" transform="translate(-2700.046 -6490.4)" fill="#2b295e"/>
      <path id="Trazado_144833" data-name="Trazado 144833" d="M2708.76,6572.008c.292,0,.462-.015.471-.015l-.031-.326a10.03,10.03,0,0,1-7.415-2.23h0A10.672,10.672,0,0,0,2708.76,6572.008Z" transform="translate(-2655.799 -6479.474)" fill="#2b295e"/>
    </g>
    <g id="Grupo_73081" data-name="Grupo 73081" transform="translate(2154.674 5812.301)">
      <path id="Trazado_144834" data-name="Trazado 144834" d="M2383.964,5815.09l-2.214,3.569h0l-26.835,43.251-.827,1.334L2333.7,5896.1l-3.017,4.862-14.967,24.124-4.495-2.789,16.98-27.368,3.52-5.673,16.435-26.489,31.31-50.464Z" transform="translate(-2311.223 -5812.301)" fill="#edcb76"/>
      <path id="Trazado_144835" data-name="Trazado 144835" d="M2413.071,6284.529s-1.813-1.284-3.928,1.284a2.87,2.87,0,0,0,.368,4.363S2412.467,6290.5,2413.071,6284.529Z" transform="translate(-2392.521 -6207.544)" fill="#ad7041"/>
    </g>
    <g id="Grupo_73090" data-name="Grupo 73090" transform="translate(2444.47 5935.031)">
      <g id="Grupo_73082" data-name="Grupo 73082" transform="translate(0 70.561)">
        <path id="Trazado_144836" data-name="Trazado 144836" d="M4110.555,7425.2l-2.128,4.086-13.357-2.413S4099.542,7421.649,4110.555,7425.2Z" transform="translate(-4095.07 -7355.429)" fill="#221e50"/>
        <path id="Trazado_144837" data-name="Trazado 144837" d="M4158.8,7002.109l-22.414,25.963-11.873,42.2,11.521,3.292,15.17-34.673s13.274-12.074,16.046-14.459c4.5-3.872,13.729-20.815,13.729-20.815Z" transform="translate(-4119.733 -7002.109)" fill="#2b295e"/>
      </g>
      <g id="Grupo_73083" data-name="Grupo 73083" transform="translate(14.523 23.953)">
        <path id="Trazado_144838" data-name="Trazado 144838" d="M4191.174,7005.527l-2.012,1.528a6.232,6.232,0,0,0-4.7,6.285s.16,2.16,1.573,1.382.783-.679,2.793-1.733,3.466-2.923,3.45-4.551l2-2.329Z" transform="translate(-4184.465 -6958.363)" fill="#e5b0b4"/>
        <path id="Trazado_144839" data-name="Trazado 144839" d="M4238.365,6715.208l-3.212,14.189-4.391,19.393-7.76,10.62-4.152,5.682-3.88-2.116,7.994-17.281c.735-7.524,4.765-26.276,6.348-27.391C4232.095,6716.343,4238.365,6715.208,4238.365,6715.208Z" transform="translate(-4210.015 -6715.208)" fill="#f0d170"/>
        <path id="Trazado_144840" data-name="Trazado 144840" d="M4276.559,6774.1l-4.391,19.393-7.76,10.62c.916-4.253,5.583-9.727,6.546-11.012,1.058-1.41-1.528-20.573,1.41-23.747s4.115,4.467,4.115,4.467Z" transform="translate(-4251.421 -6759.915)" fill="#dc8d39" opacity="0.2"/>
      </g>
      <g id="Grupo_73084" data-name="Grupo 73084" transform="translate(40.77)">
        <path id="Trazado_144841" data-name="Trazado 144841" d="M4362.928,6655.936a71.783,71.783,0,0,1,1.473,8.171s4.289,3.708,6.073,3.37c1.55-.292,3.355-5.214,3.355-5.214s-1.708-2.427-3.4-9.331Z" transform="translate(-4360.184 -6639.097)" fill="#d4959a"/>
        <path id="Trazado_144842" data-name="Trazado 144842" d="M4348.824,6615.2s8.56,1.8,9.6-3.551,2.841-8.718-2.581-10.091-6.882.46-7.663,2.161S4346.625,6614.6,4348.824,6615.2Z" transform="translate(-4347.164 -6595.67)" fill="#e5b0b4"/>
        <path id="Trazado_144843" data-name="Trazado 144843" d="M4357.291,6583.752a7.8,7.8,0,0,0-7.2-8.269c-7.725-.993-3.219-7.719,3.557-7.716,0,0-1.106,2.448,2.981,3.529C4365.205,6573.563,4358.25,6582.74,4357.291,6583.752Z" transform="translate(-4346.032 -6567.768)" fill="#555ca3"/>
      </g>
      <g id="Grupo_73088" data-name="Grupo 73088" transform="translate(40.639 70.584)">
        <path id="Trazado_144844" data-name="Trazado 144844" d="M4463.509,7518.128l-1.368,4.4h-13.573S4452.041,7516.593,4463.509,7518.128Z" transform="translate(-4431.779 -7434.107)" fill="#221e50"/>
        <path id="Trazado_144845" data-name="Trazado 144845" d="M4378.179,7086.811s-5.505-70.144-12.344-83.075l-20.612-1.488.392,12.7a7.947,7.947,0,0,1,3.354,3.2l17.591,68.528Z" transform="translate(-4345.224 -7002.247)" fill="#333381"/>
        <g id="Grupo_73085" data-name="Grupo 73085" transform="translate(11.777 6.048)">
          <path id="Trazado_144846" data-name="Trazado 144846" d="M4426.291,7044a10.094,10.094,0,0,1-8.57-4.366l.275-.16a16.942,16.942,0,0,0,3.994,3.356A10.575,10.575,0,0,0,4426.291,7044Z" transform="translate(-4417.72 -7039.473)" fill="#221e50"/>
        </g>
        <g id="Grupo_73087" data-name="Grupo 73087" transform="translate(19.903 15.021)">
          <g id="Grupo_73086" data-name="Grupo 73086">
            <path id="Trazado_144847" data-name="Trazado 144847" d="M4476.819,7158.218c-.113-6.362-.586-13.855-1.462-21.609-.134-1.185-.279-2.4-.431-3.621-.168-1.343-.346-2.7-.53-4.038a6.123,6.123,0,0,0-.486-1.456,5.9,5.9,0,0,1-.451-1.323c-.734-5.077-1.624-9.689-2.408-13.759q-.309-1.6-.6-3.137c-1.748-9.259-2.708-14.511-2.713-14.563h0c.006.052.665,5.328,2.416,14.6q.291,1.539.6,3.138c.784,4.065,1.674,8.673,2.405,13.742a6.19,6.19,0,0,0,.477,1.413,5.954,5.954,0,0,1,.461,1.363c.183,1.335.361,2.692.528,4.035.152,1.216.3,2.433.431,3.617.875,7.743,1.567,15.266,1.68,21.618Z" transform="translate(-4467.736 -7094.711)" fill="#2b295e"/>
          </g>
        </g>
      </g>
      <g id="Grupo_73089" data-name="Grupo 73089" transform="translate(33.814 23.166)">
        <path id="Trazado_144848" data-name="Trazado 144848" d="M4331.551,6761.625c-.136.049-3,2-16.1.235-2.908-.391-6.1-.564-7.407-4.193-2.7-8.7-4.963-43.359-4.82-43.418a40.237,40.237,0,0,1,10.962-3.468,3.786,3.786,0,0,0,3.183,1.978c1.983.055,4.9-1.477,6.451-2.392a43.453,43.453,0,0,1,6.207.943c.2.045.956,7.949,1.467,17.4.152,2.809.282,5.753.369,8.669C4332.2,6748.7,4333.734,6760.835,4331.551,6761.625Z" transform="translate(-4303.213 -6710.367)" fill="#f0d170"/>
        <path id="Trazado_144849" data-name="Trazado 144849" d="M4446.679,6821.883c-2.1.958-6.188,2.448-6.363-.386-.234-3.821,2.881-9.993,4.115-10.228.72-.138,1.42.984,1.879,1.944C4446.461,6816.022,4446.591,6818.967,4446.679,6821.883Z" transform="translate(-4418.031 -6794.867)" fill="#dc8d39" opacity="0.2"/>
        <rect id="Rectángulo_32424" data-name="Rectángulo 32424" width="19.113" height="25.438" transform="matrix(0.914, -0.405, 0.405, 0.914, 10.101, 30.389)" fill="#d25c2a"/>
        <path id="Trazado_144850" data-name="Trazado 144850" d="M4388.28,6948.436l-.625.778a6.271,6.271,0,0,0-7.681,1.824s-1.269,1.771.324,2.082,1.042-.02,3.274.463,4.562-.022,5.6-1.29l1.144-1.416Z" transform="translate(-4367.103 -6909.76)" fill="#e5b0b4"/>
        <path id="Trazado_144851" data-name="Trazado 144851" d="M4429.535,6710.367s8.915.072,10.106.954,13.106,20.63,13.3,28.213c0,0-7.393,7.808-20.9,12.393l-2.7-2.733s10.18-10.3,15.034-12.177c0,0-8.031-8.15-9.8-12.54S4429.535,6710.367,4429.535,6710.367Z" transform="translate(-4408.855 -6710.367)" fill="#f0d170"/>
      </g>
    </g>
    <path id="Trazado_144852" data-name="Trazado 144852" d="M2543.17,7547.3H2387.408c-.543-.02-1.1-.034-1.683-.034H2139.032a1.1,1.1,0,0,0-.113-.023h-13.456a1.157,1.157,0,0,0-1.148,1.126s-.007.007-.007.01v.07c0,.007.013.013.013.021a1.153,1.153,0,0,0,1.142,1.092h260.262c.37,0,.725-.008,1.081-.017H2543.17a1.118,1.118,0,0,0,1.138-1.089v-.067A1.118,1.118,0,0,0,2543.17,7547.3Z" transform="translate(0 -1453.088)" fill="#b7bed4"/>
  </g>
</svg>
