<svg xmlns="http://www.w3.org/2000/svg" width="258" height="222.788" viewBox="0 0 258 222.788">
  <g id="img7" transform="translate(892.385 -3934.718)">
    <g id="Grupo_73092" data-name="Grupo 73092" transform="translate(-892.346 4063.991)">
      <path id="Trazado_144853" data-name="Trazado 144853" d="M-817.452,4357.515a37.425,37.425,0,0,1-.892,8.15,37.154,37.154,0,0,1-3.183,8.846,37.569,37.569,0,0,1-9.151,11.548l-.288.238a37.365,37.365,0,0,1-5.108,3.574,37.243,37.243,0,0,1-18.787,5.053,37.253,37.253,0,0,1-18.012-4.612q-.4-.223-.8-.454a37.432,37.432,0,0,1-18.274-27.384,38.085,38.085,0,0,1-.325-4.959,37.451,37.451,0,0,1,.884-8.114c.023-.107.046-.214.072-.32a36.88,36.88,0,0,1,1.06-3.708q.156-.456.323-.9a37.351,37.351,0,0,1,3.861-7.583q.671-1.015,1.406-1.981a37.629,37.629,0,0,1,5.107-5.485c.131-.115.262-.229.4-.344.458-.392.929-.774,1.407-1.146a37.247,37.247,0,0,1,11.465-6.043c.13-.044.263-.085.395-.125a37.368,37.368,0,0,1,11.034-1.655q1.285,0,2.553.087c.982.065,1.955.17,2.913.31a37.236,37.236,0,0,1,9.763,2.833c.194.088.389.176.584.269a37.511,37.511,0,0,1,19.988,23.037,37.106,37.106,0,0,1,1.108,4.754c.021.129.041.261.061.393A37.485,37.485,0,0,1-817.452,4357.515Z" transform="translate(892.27 -4320.106)" fill="#00bcd4"/>
      <path id="Trazado_144854" data-name="Trazado 144854" d="M-758.183,4353.561a37.51,37.51,0,0,0-19.988-23.037,5.652,5.652,0,0,0-3.754,1.06c-1.779,1.336-1.13,3.829-1.235,5.773-2.289.11-6.258-.987-7.638,1.1a8.8,8.8,0,0,1-1.165,1.87,13.073,13.073,0,0,0-1.608,1.778c-.341.46-.492.826-1.013.955-.489,2.165,4.018,1.165,5.314,1.164,1.336,0,3.681.673,4.848.124.678-.318.795-1.493,1.392-1.667.853-.245,1.178,1.059,1.533,1.53a3.108,3.108,0,0,0,2.725,1.429c.891.047,1.837-.127,2.719,0a6.1,6.1,0,0,1,1.565.674c-.6.3-.931,1.19-1.656,1.424a15.723,15.723,0,0,1-3.78.272c-1.49.052-1.354-.7-2.3-1.506-1.086-.927-1.824-.906-3.252-.975-2.264-.106-6.492-.511-8.327.943-.894.709-.578,1.754-1.421,2.449-1.387,1.144-4.057.9-5.021,2.512-.846,1.418-.2,4.37,0,5.811.294,2.126.252,3.98,2.441,4.822,2.039.787,4.587.918,6.717,1.327,1.168.221,2.606-.005,2.987,1.26.187.619-.013,1.484.116,2.137.278,1.392,1.257,2.02,2.25,2.963,1.031.983.936,1.6.936,3.154a12.378,12.378,0,0,0,1.069,5.583,7.9,7.9,0,0,1,.586,2.952,4.789,4.789,0,0,1-1.77,4.108c-1.565,1.2-3.08,2.593-1.99,4.5,1.313.953,4.043.241,5.261-.542a16.383,16.383,0,0,1,6.179-2.633c4.465-.9,1.871-5.222,3.451-8.255.465-.894,1.408-1.335,1.864-2.165a7.113,7.113,0,0,0,.593-3.43c-.01-1.986-.351-3.895-.354-5.875-.005-1.842.469-1.681,1.653-2.51,1.383-.966,1.175-2.373,1.182-4.028,0-.452.006-.915-.019-1.36-.859-.33-1.673-.617-2.563-.937a8.059,8.059,0,0,1-2.125-.758c-1.184-1.121-1.678-4.795-1.537-6.342,2.9-.646,2.512,4.835,5.381,4.947,3.19.123,3.46-1.8,3.326-4.355-2.158-.114-2.688-.078-2.564-2.482,1.087-.186,2.054.583,2.85,1.169.54.395,1.388.572,1.869.964,1.191.974.516,2.918,1.547,4.1a1.2,1.2,0,0,1,.941.94c1.123.618,1.712,2.7,2.709,3.646a17.334,17.334,0,0,1,.182-1.824A37.156,37.156,0,0,0-758.183,4353.561Z" transform="translate(831.395 -4327.025)" fill="#dde4e8"/>
      <path id="Trazado_144855" data-name="Trazado 144855" d="M-869.693,4398.787c.273-1.759-1.8-2.8-1.991-4.351-.224-1.856,1.5-2.863,2.046-4.351a16.8,16.8,0,0,0,.215-2.96,3.245,3.245,0,0,0,2.219-1.1,10.246,10.246,0,0,1,2.644-1.625,5.015,5.015,0,0,0,2.776-5c-.229-2.3-1.014-5.206-3.267-6.229-1.1-.5-1.457-.075-1.816-1.245-.231-.751-.063-1.637-.227-2.4-1.209-.766-2.562-1.7-3.88-2.395s-3.078-1.867-4.648-2.092a3.858,3.858,0,0,0-2.1.237c-.211.086-.163.464-.456.569a2.867,2.867,0,0,1-1.321-.121c-1.662-.451-3.969-2.38-4.365-4.01a8.527,8.527,0,0,0-.251-1.666c-.174-.379-.668-.639-.919-1.035-.541-.855-.879-2.114.451-2.625,1.183-.454,1.521.429,2.5.744,1.357.442,2.761-.163,4-.642.056-1.052,1.235-2.351,1.973-3.013a33.312,33.312,0,0,1,3.352-2.187,21.1,21.1,0,0,1,2.138-1.516c1.2-.64,6.258-1.443,4.447-3.634-.678-.821-1.886-1.293-2.471-2.364a12.134,12.134,0,0,1-.439-1.212c-.758-1.78-1.881-1.542-3.575-.97-1.505.505-2.044,1.958-3.873,1.683a6.568,6.568,0,0,1-.875-.2c-.134.115-.265.23-.4.345a37.626,37.626,0,0,0-5.107,5.485q-.734.965-1.406,1.981a37.343,37.343,0,0,0-3.861,7.583q-.167.449-.323.9a36.949,36.949,0,0,0-1.06,3.708c-.026.105-.049.213-.072.32.754.279,1.406-.713,2.327-.25.967.486,1.11,2.613,2.01,3.432,1.419,1.3,4.014-.039,5.082,2,1.471,2.807-1.022,7.971,1.679,10.1,1.127.892,1.425.533,1.272,2.327a13.732,13.732,0,0,0,0,4.611c.417,1.641,1.552,2.719,1.686,4.429a6.78,6.78,0,0,0,.937,3.431c.777,1.349,1.541,2.625,2.224,4.024C-871.652,4399.088-871.393,4398.829-869.693,4398.787Z" transform="translate(890.518 -4334.105)" fill="#dde4e8"/>
      <path id="Trazado_144856" data-name="Trazado 144856" d="M-814.433,4328.218a4.011,4.011,0,0,0,4.276,1.056c1.055-.589,1.261-1.874,2.849-2.281,1.229-.315,3.84.265,4.7-.792.752-.92-.3-2.613.52-3.4.647-.618,2.088-.071,2.845-.6a10.064,10.064,0,0,0,1.271-1.577l.052-.114c-.959-.14-1.931-.245-2.913-.31q-1.266-.088-2.553-.087a37.367,37.367,0,0,0-11.034,1.655c-.132.04-.264.081-.395.125a4.489,4.489,0,0,1,.537,1.355C-813.96,4324.914-815.463,4326.544-814.433,4328.218Z" transform="translate(840.796 -4320.106)" fill="#dde4e8"/>
      <path id="Trazado_144857" data-name="Trazado 144857" d="M-806.7,4516a15.1,15.1,0,0,1-4.478-.115c-1.484-.222-4.051-.47-5.423.2-.879.427-.919,1.469-1.7,2.012-.714.49-2.034.273-2.9.521-.065.78.461,1.354.318,2.206-2.558.134-5.922.341-8.085-1.171-2.066-1.442.043-2.837-.634-4.724-.473-1.317-1.561-1.377-2.634-.792-1.247.685-1.578,1.955-2.339,2.934-.5.643-1.745.435-2.128,1.173a1.077,1.077,0,0,0-.113.327q.4.23.8.454a37.259,37.259,0,0,0,18.012,4.612,37.238,37.238,0,0,0,18.787-5.053,37.365,37.365,0,0,0,5.108-3.574,3.226,3.226,0,0,0-1.352-.31C-799.289,4514.313-803.041,4515.454-806.7,4516Z" transform="translate(855.423 -4448.813)" fill="#dde4e8"/>
    </g>
    <g id="Grupo_73093" data-name="Grupo 73093" transform="translate(-892.385 4063.991)">
      <path id="Trazado_144858" data-name="Trazado 144858" d="M-855.542,4320.1v74.819a38.581,38.581,0,0,1-17.709-4.612c-.267-.149-.383-.3-.648-.453a37.351,37.351,0,0,1-18.2-27.385,38.283,38.283,0,0,1-.287-4.96,37.456,37.456,0,0,1,.9-8.114c.023-.1.055-.213.081-.318a36.847,36.847,0,0,1,1.065-3.709c.1-.3.214-.6.324-.9a37.386,37.386,0,0,1,3.863-7.583q.672-1.014,1.407-1.981a37.687,37.687,0,0,1,5.108-5.484c.131-.115.262-.23.4-.345.458-.394.929-.775,1.406-1.146a37.222,37.222,0,0,1,11.466-6.044c.131-.044-.039-.084.092-.125A41.776,41.776,0,0,1-855.542,4320.1Z" transform="translate(892.385 -4320.105)" fill="#81d4fa"/>
      <path id="Trazado_144859" data-name="Trazado 144859" d="M-783.77,4366.781v1.554c0-.2-.736-.559-.6-1.172C-784.094,4367.095-783.77,4366.961-783.77,4366.781Z" transform="translate(820.613 -4351.124)" fill="#ced6da"/>
      <path id="Trazado_144860" data-name="Trazado 144860" d="M-794.79,4378.592v16.3a34.193,34.193,0,0,1-3.513-.878c-2.188-.842-2-2.7-2.289-4.823-.2-1.44-.774-4.392.073-5.81.965-1.616,3.37-1.368,4.757-2.513C-794.985,4380.231-795.126,4379.291-794.79,4378.592Z" transform="translate(831.633 -4358.973)" fill="#ced6da"/>
      <path id="Trazado_144861" data-name="Trazado 144861" d="M-869.693,4398.787c.273-1.759-1.8-2.8-1.991-4.351-.224-1.856,1.5-2.863,2.046-4.351a16.8,16.8,0,0,0,.215-2.96,3.245,3.245,0,0,0,2.219-1.1,10.246,10.246,0,0,1,2.644-1.625,5.015,5.015,0,0,0,2.776-5c-.229-2.3-1.014-5.206-3.267-6.229-1.1-.5-1.457-.075-1.816-1.245-.231-.751-.063-1.637-.227-2.4-1.209-.766-2.562-1.7-3.88-2.395s-3.078-1.867-4.648-2.092a3.858,3.858,0,0,0-2.1.237c-.211.086-.163.464-.456.569a2.867,2.867,0,0,1-1.321-.121c-1.662-.451-3.969-2.38-4.365-4.01a8.527,8.527,0,0,0-.251-1.666c-.174-.379-.668-.639-.919-1.035-.541-.855-.879-2.114.451-2.625,1.183-.454,1.521.429,2.5.744,1.357.442,2.761-.163,4-.642.056-1.052,1.235-2.351,1.973-3.013a33.312,33.312,0,0,1,3.352-2.187,21.1,21.1,0,0,1,2.138-1.516c1.2-.64,6.258-1.443,4.447-3.634-.678-.821-1.886-1.293-2.471-2.364a12.134,12.134,0,0,1-.439-1.212c-.758-1.78-1.881-1.542-3.575-.97-1.505.505-2.044,1.958-3.873,1.683a6.568,6.568,0,0,1-.875-.2c-.134.115-.265.23-.4.345a37.626,37.626,0,0,0-5.107,5.485q-.734.965-1.406,1.981a37.343,37.343,0,0,0-3.861,7.583q-.167.449-.323.9a36.949,36.949,0,0,0-1.06,3.708c-.026.105-.049.213-.072.32.754.279,1.406-.713,2.327-.25.967.486,1.11,2.613,2.01,3.432,1.419,1.3,4.014-.039,5.082,2,1.471,2.807-1.022,7.971,1.679,10.1,1.127.892,1.425.533,1.272,2.327a13.732,13.732,0,0,0,0,4.611c.417,1.641,1.552,2.719,1.686,4.429a6.78,6.78,0,0,0,.937,3.431c.777,1.349,1.541,2.625,2.224,4.024C-871.652,4399.088-871.393,4398.829-869.693,4398.787Z" transform="translate(890.557 -4334.105)" fill="#ced6da"/>
      <path id="Trazado_144862" data-name="Trazado 144862" d="M-804.1,4320.1v6.58c-.671.362-2.659.06-3.62.308-1.588.407-1.642,1.692-2.7,2.282a3.888,3.888,0,0,1-4.2-1.057c-1.031-1.673.512-3.3.193-4.978a4.488,4.488,0,0,0-.519-1.355c.131-.044-.029-.084.1-.125A41.843,41.843,0,0,1-804.1,4320.1Z" transform="translate(840.942 -4320.105)" fill="#ced6da"/>
      <path id="Trazado_144863" data-name="Trazado 144863" d="M-818.919,4517.834v5.8a38.586,38.586,0,0,1-17.709-4.612c-.267-.149-.383-.3-.648-.453.019-.109.131-.219.189-.328.384-.737,1.664-.53,2.166-1.172.762-.98,1.111-2.25,2.357-2.935,1.073-.585,2.172-.525,2.644.792.676,1.887-1.428,3.282.639,4.724,2.162,1.512,5.529,1.3,8.086,1.171.144-.853-.381-1.427-.316-2.208.869-.246,1.887-.028,2.6-.519C-818.8,4518.015-818.919,4517.927-818.919,4517.834Z" transform="translate(855.761 -4448.813)" fill="#ced6da"/>
    </g>
    <g id="Grupo_73094" data-name="Grupo 73094" transform="translate(-871.465 3998.113)">
      <path id="Trazado_144864" data-name="Trazado 144864" d="M-791.248,4143.058a19.116,19.116,0,0,0-19.115-19.116,19.116,19.116,0,0,0-19.116,19.116,19.113,19.113,0,0,0,10.555,17.094v4.367a1.843,1.843,0,0,0,1.81,1.876H-803a1.844,1.844,0,0,0,1.811-1.876v-4.688A19.11,19.11,0,0,0-791.248,4143.058Z" transform="translate(829.66 -4123.864)" fill="#cccbcc"/>
      <path id="Trazado_144865" data-name="Trazado 144865" d="M-810.406,4123.716v41.915h-7.3c-.563,0-1.067,0-1.4-.417-.007-.007-.011.11-.018.1a1.662,1.662,0,0,1-.374-.63s.063.024.063.02a1.48,1.48,0,0,1-.031-.419v-4.366a18.344,18.344,0,0,1-10.556-17.1,19.124,19.124,0,0,1,19.124-19.117C-810.728,4123.709-810.406,4123.711-810.406,4123.716Z" transform="translate(830.019 -4123.709)" fill="#b3b2b3"/>
      <rect id="Rectángulo_32425" data-name="Rectángulo 32425" width="17.698" height="17.318" transform="translate(10.736 37.942)" fill="#2e5a77"/>
      <path id="Trazado_144866" data-name="Trazado 144866" d="M-800.687,4286.674c.7,3.575,4.774,6.319,9.7,6.319s9-2.745,9.7-6.319Z" transform="translate(810.526 -4232.01)" fill="#0e303f"/>
      <path id="Trazado_144867" data-name="Trazado 144867" d="M-783.266,4238.408c0,.876-.98,1.585-2.189,1.585h-19.568c-1.209,0-2.19-.709-2.19-1.585h0c0-.876.98-1.586,2.19-1.586h19.568c1.209,0,2.189.71,2.189,1.586Z" transform="translate(814.863 -4198.879)" fill="#0e303f"/>
      <path id="Trazado_144868" data-name="Trazado 144868" d="M-783.521,4254.258c0,.876-.98,1.585-2.189,1.585h-19.568c-1.209,0-2.189-.709-2.189-1.585h0c0-.875.98-1.586,2.189-1.586h19.568c1.209,0,2.189.71,2.189,1.586Z" transform="translate(815.032 -4209.413)" fill="#0e303f"/>
      <path id="Trazado_144869" data-name="Trazado 144869" d="M-782.911,4271.018c0,.876-.98,1.586-2.189,1.586h-19.568c-1.209,0-2.19-.709-2.19-1.586h0c0-.876.98-1.585,2.19-1.585H-785.1c1.209,0,2.189.709,2.189,1.585Z" transform="translate(814.627 -4220.551)" fill="#0e303f"/>
      <path id="Trazado_144870" data-name="Trazado 144870" d="M-777.26,4176.569a.313.313,0,0,0,.072-.2.318.318,0,0,0-.315-.32c-.562,0-.823.454-1.032.818-.178.311-.3.5-.472.5s-.3-.195-.468-.508c-.2-.371-.457-.833-1.016-.838h0c-.562,0-.823.454-1.032.818-.178.312-.3.5-.472.5s-.3-.193-.468-.508c-.2-.371-.457-.833-1.016-.838s-.823.454-1.032.818c-.178.311-.3.5-.472.5s-.3-.195-.468-.508c-.2-.371-.457-.833-1.017-.838s-.823.454-1.032.818c-.178.311-.3.5-.472.5s-.3-.321-.468-.635c-.2-.371-.457-.964-1.017-.964h0c-.173,0-.316.269-.317.442a.514.514,0,0,0,.072.265,49.343,49.343,0,0,1,3.19,12.15,52.594,52.594,0,0,1-.231,9.9.322.322,0,0,0,.062.231.328.328,0,0,0,.2.134l.014.022h.023a.318.318,0,0,0,.3-.281,52.935,52.935,0,0,0,.232-10.032,48.169,48.169,0,0,0-2.672-10.841.862.862,0,0,0,.6.247c.563,0,.823-.455,1.032-.819.178-.312.3-.5.473-.5s.3.194.468.507c.2.371.457.832,1.017.838s.823-.454,1.032-.818c.178-.311.3-.5.472-.5s.3.193.468.508c.2.371.457.833,1.016.838s.823-.454,1.032-.818c.178-.312.3-.5.473-.5s.3.194.468.508c.2.371.457.832,1.016.838a.887.887,0,0,0,.643-.268,49.048,49.048,0,0,0-2.755,10.82,58.842,58.842,0,0,0-.112,10.005.3.3,0,0,0,.3.268h.009l.015.009a.3.3,0,0,0,.207-.1.3.3,0,0,0,.071-.219,58.631,58.631,0,0,1,.11-9.894A49.966,49.966,0,0,1-777.26,4176.569Zm-.535.315h0l-.031.079Zm-.041-.511h0a1.585,1.585,0,0,0-.5.612l-.043.075.043-.075A1.582,1.582,0,0,1-777.835,4176.374Zm-.18.425c-.01.015-.02.028-.03.043C-778.036,4176.828-778.026,4176.814-778.016,4176.8Zm-.068.106c-.033.054-.066.11-.1.167C-778.15,4177.016-778.117,4176.959-778.084,4176.905Zm-.206.349c-.015.025-.031.05-.046.075C-778.32,4177.3-778.305,4177.279-778.29,4177.254Zm-.721.348h0a.458.458,0,0,1-.215-.054A.458.458,0,0,0-779.011,4177.6Zm-2.6-.217a.514.514,0,0,1-.388.189h0A.514.514,0,0,0-781.606,4177.385Zm-.393.2h0a.569.569,0,0,1-.463-.289A.57.57,0,0,0-782,4177.587Zm-1.766-1.3a.753.753,0,0,0-.217.16A.753.753,0,0,1-783.765,4176.29Zm-1,1.2a.463.463,0,0,1-.215.051h0A.463.463,0,0,0-784.768,4177.494Zm-.435,0a.746.746,0,0,1-.247-.235A.746.746,0,0,0-785.2,4177.492Zm-.772-1.062a.656.656,0,0,0-.5-.228h0A.656.656,0,0,1-785.974,4176.43Zm-.5-.23h0a.637.637,0,0,0-.278.061A.637.637,0,0,1-786.476,4176.2Zm-2.166.463c.177.322.078.644.4.644,0,0,.269-.242.27-.242h0a.639.639,0,0,1-.666-.4m1.184,5.805c-.18-.673-.366-1.312-.549-1.907.183.595.369,1.234.549,1.907a40.658,40.658,0,0,1,1.173,6.083,34.826,34.826,0,0,1,.151,4.2c0,.277-.012.551-.021.82.009-.269.016-.543.021-.82a34.826,34.826,0,0,0-.151-4.2A40.658,40.658,0,0,0-787.458,4182.468Zm1,16.1h0a.07.07,0,0,0,.039-.011.068.068,0,0,1-.03.012Zm.081-.063a.07.07,0,0,1-.026.046.071.071,0,0,0,.026-.046c0-.009.019-.152.046-.406C-786.354,4198.354-786.372,4198.5-786.373,4198.506Zm.064-.571c.012-.118.026-.254.04-.4C-786.283,4197.682-786.3,4197.817-786.309,4197.936Zm-2.644-21.234.025.039-.025-.039Zm.975.99a.636.636,0,0,1-.394-.136.636.636,0,0,0,.394.136h0Zm1.038-1.036a2.564,2.564,0,0,0-.141.216l-.068.117c-.05.087-.1.174-.153.256.054-.082.1-.169.153-.256l.068-.117a2.564,2.564,0,0,1,.141-.216.909.909,0,0,1,.159-.17A.909.909,0,0,0-786.94,4176.655Zm.465-.282h0a.47.47,0,0,0-.113.013A.47.47,0,0,1-786.476,4176.374Zm.392.194a.627.627,0,0,0-.172-.14.627.627,0,0,1,.172.14,2.4,2.4,0,0,1,.278.434A2.4,2.4,0,0,0-786.083,4176.568Zm1.094,1.151a.629.629,0,0,1-.149-.018.629.629,0,0,0,.149.018h0Zm.285-.061a.775.775,0,0,0,.217-.161A.775.775,0,0,1-784.7,4177.658Zm.308-.268a2.463,2.463,0,0,0,.161-.244A2.463,2.463,0,0,1-784.4,4177.391Zm1.579-.383c-.176-.321-.343-.649-.666-.649h0c.323,0,.489.329.666.649a3.419,3.419,0,0,0,.231.38A3.365,3.365,0,0,1-782.817,4177.007Zm.819.74h0Zm1.5-1.389h0a.491.491,0,0,0-.348.151.491.491,0,0,1,.348-.151h0c.282,0,.445.235.6.508C-780.049,4176.593-780.211,4176.358-780.494,4176.358Zm1.482,1.229c-.159,0-.287.041-.394-.042a.671.671,0,0,0,.394.183c.03,0,.056-.076.084-.079-.026,0-.05-.062-.077-.062Zm.348.087a.665.665,0,0,1-.066.04A.665.665,0,0,0-778.664,4177.675Zm-.124.06a.611.611,0,0,1-.072.025A.611.611,0,0,0-778.788,4177.735Zm.173-.09c.021-.016.04-.035.059-.052C-778.575,4177.61-778.594,4177.629-778.615,4177.645Zm.1-.091c.019-.02.036-.042.055-.063C-778.476,4177.512-778.493,4177.535-778.512,4177.554Zm.144-.18c-.017.025-.034.05-.052.074C-778.4,4177.424-778.386,4177.4-778.368,4177.374Zm.269.3c-.1.276-.22.59-.344.937C-778.319,4178.262-778.2,4177.948-778.1,4177.672Zm-.469,1.294c-.129.369-.264.769-.4,1.2C-778.832,4179.735-778.7,4179.335-778.569,4178.966Zm-2.44,19.589a.074.074,0,0,0,.025.048A.073.073,0,0,1-781.009,4198.555Zm.073.066a.067.067,0,0,1-.032-.012.065.065,0,0,0,.037.012h-.006Z" transform="translate(803.276 -4158.251)" fill="#0e303f"/>
    </g>
    <g id="Grupo_73109" data-name="Grupo 73109" transform="translate(-716.639 4074.249)">
      <path id="Trazado_144871" data-name="Trazado 144871" d="M-286.2,4420.862c0,7.173-5.116,12.988-11.424,12.988h-59.405c-6.309,0-11.424-5.814-11.424-12.988V4378.6c0-6.041,28.92-22.226,38.062-27.189a5.59,5.59,0,0,1,5.324-.1c9.071,4.841,38.867,21.208,38.867,27.291Z" transform="translate(368.451 -4350.687)" fill="#00bcd4"/>
      <path id="Trazado_144872" data-name="Trazado 144872" d="M-281.5,4372.607H-335.27c-2.579,0-4.734,1.575-4.734,3.571v67.079c0,2,2.123,3.593,4.7,3.593l.032-.022H-281.5v.022c2.417,0,4.4-1.412,4.64-3.235a2.686,2.686,0,0,0,.018-.358v-67.079C-276.843,4374.182-278.923,4372.607-281.5,4372.607Z" transform="translate(349.547 -4365.254)" fill="#dde4e8"/>
      <g id="Grupo_73108" data-name="Grupo 73108" transform="translate(19.096 15.478)">
        <g id="Grupo_73107" data-name="Grupo 73107">
          <g id="Grupo_73095" data-name="Grupo 73095">
            <rect id="Rectángulo_32426" data-name="Rectángulo 32426" width="45.38" height="1.334" fill="#2f363e"/>
          </g>
          <g id="Grupo_73096" data-name="Grupo 73096" transform="translate(0 3.275)">
            <rect id="Rectángulo_32427" data-name="Rectángulo 32427" width="31.58" height="1.334" fill="#2f363e"/>
          </g>
          <g id="Grupo_73097" data-name="Grupo 73097" transform="translate(0 6.67)">
            <rect id="Rectángulo_32428" data-name="Rectángulo 32428" width="31.58" height="1.334" fill="#2f363e"/>
          </g>
          <g id="Grupo_73098" data-name="Grupo 73098" transform="translate(0 10.199)">
            <rect id="Rectángulo_32429" data-name="Rectángulo 32429" width="42.992" height="1.334" fill="#2f363e"/>
          </g>
          <g id="Grupo_73099" data-name="Grupo 73099" transform="translate(0 13.595)">
            <rect id="Rectángulo_32430" data-name="Rectángulo 32430" width="27.821" height="1.334" fill="#2f363e"/>
          </g>
          <g id="Grupo_73100" data-name="Grupo 73100" transform="translate(0 16.748)">
            <rect id="Rectángulo_32431" data-name="Rectángulo 32431" width="36.578" height="1.334" fill="#2f363e"/>
          </g>
          <g id="Grupo_73101" data-name="Grupo 73101" transform="translate(0 19.768)">
            <rect id="Rectángulo_32432" data-name="Rectángulo 32432" width="41.593" height="1.334" fill="#2f363e"/>
          </g>
          <g id="Grupo_73102" data-name="Grupo 73102" transform="translate(0 22.76)">
            <rect id="Rectángulo_32433" data-name="Rectángulo 32433" width="32.509" height="1.334" fill="#2f363e"/>
          </g>
          <g id="Grupo_73103" data-name="Grupo 73103" transform="translate(0 25.798)">
            <rect id="Rectángulo_32434" data-name="Rectángulo 32434" width="39.94" height="1.334" fill="#2f363e"/>
          </g>
          <g id="Grupo_73104" data-name="Grupo 73104" transform="translate(0 28.89)">
            <rect id="Rectángulo_32435" data-name="Rectángulo 32435" width="42.992" height="1.334" fill="#2f363e"/>
          </g>
          <g id="Grupo_73105" data-name="Grupo 73105" transform="translate(0 32.286)">
            <rect id="Rectángulo_32436" data-name="Rectángulo 32436" width="27.821" height="1.334" fill="#2f363e"/>
          </g>
          <g id="Grupo_73106" data-name="Grupo 73106" transform="translate(0 35.439)">
            <rect id="Rectángulo_32437" data-name="Rectángulo 32437" width="36.578" height="1.334" fill="#2f363e"/>
          </g>
        </g>
      </g>
      <rect id="Rectángulo_32438" data-name="Rectángulo 32438" width="41.593" height="1.334" transform="translate(19.096 53.938)" fill="#133849"/>
      <rect id="Rectángulo_32439" data-name="Rectángulo 32439" width="32.509" height="1.334" transform="translate(19.096 56.929)" fill="#133849"/>
      <rect id="Rectángulo_32440" data-name="Rectángulo 32440" width="39.94" height="1.334" transform="translate(19.096 59.967)" fill="#133849"/>
      <rect id="Rectángulo_32441" data-name="Rectángulo 32441" width="39.94" height="1.334" transform="translate(19.096 62.959)" fill="#133849"/>
      <path id="Trazado_144873" data-name="Trazado 144873" d="M-198.544,4374.967l1.816,14.237a1.753,1.753,0,0,0,1.879,1.985c2.148.118,12.026-2.218,12.026-2.218Z" transform="translate(255.537 -4366.822)" fill="#231f20" opacity="0.2"/>
      <path id="Trazado_144874" data-name="Trazado 144874" d="M-198.565,4372.656v12.795a1.753,1.753,0,0,0,1.88,1.985c2.148.118,13.841,0,13.841,0Z" transform="translate(255.559 -4365.287)" fill="#5e9ba3"/>
      <path id="Trazado_144875" data-name="Trazado 144875" d="M-204.715,4436.858v41.931a14.2,14.2,0,0,1-2.654,7.762,12.309,12.309,0,0,1-8.13,4.659l-30.34-30.022Z" transform="translate(286.969 -4407.953)" fill="#ff9d00"/>
      <path id="Trazado_144876" data-name="Trazado 144876" d="M-327.323,4461.187l-30.341,30.022a12.313,12.313,0,0,1-8.133-4.659,14.221,14.221,0,0,1-2.654-7.762v-41.931Z" transform="translate(368.452 -4407.953)" fill="#ff9d00"/>
      <path id="Trazado_144877" data-name="Trazado 144877" d="M-283.594,4534.75a12.308,12.308,0,0,1-8.13,4.66h-60.681a12.311,12.311,0,0,1-8.133-4.66l38.474-25.363Z" transform="translate(363.193 -4456.153)" fill="#ce8113"/>
    </g>
    <g id="Grupo_73111" data-name="Grupo 73111" transform="translate(-800.438 3934.718)">
      <path id="Trazado_144878" data-name="Trazado 144878" d="M-571.548,3960.786a20.656,20.656,0,0,1-20.657,20.656,20.656,20.656,0,0,1-20.655-20.656,20.655,20.655,0,0,1,20.655-20.655A20.655,20.655,0,0,1-571.548,3960.786Z" transform="translate(614.676 -3938.315)" fill="#fff"/>
      <path id="Trazado_144879" data-name="Trazado 144879" d="M-595.8,3936.534a20.656,20.656,0,0,1,20.657,20.655,20.656,20.656,0,0,1-20.657,20.656,20.656,20.656,0,0,1-20.654-20.656,20.655,20.655,0,0,1,20.654-20.655m0-1.816a22.638,22.638,0,0,0-4.526.456,22.385,22.385,0,0,0-4.22,1.31,22.487,22.487,0,0,0-3.818,2.072,22.669,22.669,0,0,0-3.324,2.743,22.643,22.643,0,0,0-2.743,3.324,22.478,22.478,0,0,0-2.072,3.818,22.387,22.387,0,0,0-1.31,4.22,22.636,22.636,0,0,0-.456,4.527,22.636,22.636,0,0,0,.456,4.527,22.393,22.393,0,0,0,1.31,4.22,22.487,22.487,0,0,0,2.072,3.818,22.617,22.617,0,0,0,2.743,3.324,22.637,22.637,0,0,0,3.324,2.743,22.508,22.508,0,0,0,3.818,2.073,22.348,22.348,0,0,0,4.22,1.31,22.6,22.6,0,0,0,4.526.457,22.612,22.612,0,0,0,4.527-.457,22.349,22.349,0,0,0,4.221-1.31,22.487,22.487,0,0,0,3.818-2.073,22.605,22.605,0,0,0,3.325-2.743,22.621,22.621,0,0,0,2.743-3.324,22.483,22.483,0,0,0,2.072-3.818,22.36,22.36,0,0,0,1.31-4.22,22.632,22.632,0,0,0,.457-4.527,22.631,22.631,0,0,0-.457-4.527,22.355,22.355,0,0,0-1.31-4.22,22.473,22.473,0,0,0-2.072-3.818,22.647,22.647,0,0,0-2.743-3.324,22.669,22.669,0,0,0-3.325-2.743,22.432,22.432,0,0,0-3.818-2.072,22.386,22.386,0,0,0-4.221-1.31,22.648,22.648,0,0,0-4.527-.456Z" transform="translate(618.273 -3934.718)" fill="#5b6375"/>
      <rect id="Rectángulo_32442" data-name="Rectángulo 32442" width="0.925" height="11.747" transform="matrix(0.866, -0.5, 0.5, 0.866, 22.039, 23.233)" fill="#d67040"/>
      <path id="Trazado_144880" data-name="Trazado 144880" d="M-568.479,3983.374h0l0,0-.005-.005-6.862-7.106a1.04,1.04,0,0,0-.808-.384,1.044,1.044,0,0,0-1.045,1.043,1.043,1.043,0,0,0,.337.767l6.888,7.133a.268.268,0,0,0,.055.042,1.037,1.037,0,0,0,.7.276,1.036,1.036,0,0,0,1.036-1.037A1.031,1.031,0,0,0-568.479,3983.374Z" transform="translate(590.978 -3962.07)" fill="#5b6375"/>
      <path id="Trazado_144881" data-name="Trazado 144881" d="M-540.082,3995.384h-.01l-8.92,1.113a.942.942,0,0,0-.72.378.95.95,0,0,0,.195,1.328.953.953,0,0,0,.743.174l8.953-1.117a.214.214,0,0,0,.06-.017.93.93,0,0,0,.584-.361.942.942,0,0,0-.193-1.319A.949.949,0,0,0-540.082,3995.384Z" transform="translate(572.848 -3975.029)" fill="#5b6375"/>
      <g id="Grupo_73110" data-name="Grupo 73110" transform="translate(20.038 19.994)">
        <circle id="Elipse_4506" data-name="Elipse 4506" cx="1.586" cy="1.586" r="1.586" transform="translate(1.173 1.173)" fill="#e3e4e3"/>
        <path id="Trazado_144882" data-name="Trazado 144882" d="M-555.778,3995.5a1.586,1.586,0,0,1,1.586,1.585,1.585,1.585,0,0,1-1.586,1.586,1.585,1.585,0,0,1-1.586-1.586,1.585,1.585,0,0,1,1.586-1.585m0-1.173a2.762,2.762,0,0,0-2.758,2.758,2.761,2.761,0,0,0,2.758,2.759,2.761,2.761,0,0,0,2.758-2.759,2.761,2.761,0,0,0-2.758-2.758Z" transform="translate(558.536 -3994.324)" fill="#2f363e"/>
      </g>
      <path id="Trazado_144883" data-name="Trazado 144883" d="M-551.313,3949.762h0a.53.53,0,0,1-.528-.528v-3.126a.53.53,0,0,1,.528-.529h0a.53.53,0,0,1,.529.529v3.126A.53.53,0,0,1-551.313,3949.762Z" transform="translate(574.125 -3941.935)" fill="#5b6375"/>
      <path id="Trazado_144884" data-name="Trazado 144884" d="M-519.751,3965.43h0a.53.53,0,0,1,0-.748l2.21-2.212a.53.53,0,0,1,.747,0h0a.53.53,0,0,1,0,.747L-519,3965.43A.53.53,0,0,1-519.751,3965.43Z" transform="translate(552.901 -3953.059)" fill="#5b6375"/>
      <path id="Trazado_144885" data-name="Trazado 144885" d="M-507.366,4001.5h0a.53.53,0,0,1,.528-.529l3.127,0a.53.53,0,0,1,.529.528h0a.529.529,0,0,1-.528.529l-3.127,0A.53.53,0,0,1-507.366,4001.5Z" transform="translate(544.568 -3978.745)" fill="#5b6375"/>
      <path id="Trazado_144886" data-name="Trazado 144886" d="M-520.486,4032.1h0a.53.53,0,0,1,.747,0l2.214,2.208a.53.53,0,0,1,0,.748h0a.53.53,0,0,1-.747,0l-2.214-2.208A.529.529,0,0,1-520.486,4032.1Z" transform="translate(553.39 -3999.329)" fill="#5b6375"/>
      <path id="Trazado_144887" data-name="Trazado 144887" d="M-551.218,4045.5h0a.53.53,0,0,1,.53.528l.006,3.126a.53.53,0,0,1-.527.53h0a.531.531,0,0,1-.53-.528l-.006-3.126A.53.53,0,0,1-551.218,4045.5Z" transform="translate(574.061 -4008.339)" fill="#5b6375"/>
      <path id="Trazado_144888" data-name="Trazado 144888" d="M-587.288,4033.331h0a.53.53,0,0,1,0,.748l-2.205,2.217a.53.53,0,0,1-.747,0h0a.531.531,0,0,1,0-.748l2.205-2.217A.53.53,0,0,1-587.288,4033.331Z" transform="translate(599.745 -4000.15)" fill="#5b6375"/>
      <path id="Trazado_144889" data-name="Trazado 144889" d="M-602.92,4001.7h0a.53.53,0,0,1-.527.53l-3.127.01a.53.53,0,0,1-.53-.527h0a.53.53,0,0,1,.527-.53l3.127-.01A.531.531,0,0,1-602.92,4001.7Z" transform="translate(610.85 -3978.879)" fill="#5b6375"/>
      <path id="Trazado_144890" data-name="Trazado 144890" d="M-588.067,3965.066h0a.53.53,0,0,1-.747,0l-2.219-2.2a.53.53,0,0,1,0-.747h0a.53.53,0,0,1,.747,0l2.219,2.2A.53.53,0,0,1-588.067,3965.066Z" transform="translate(600.274 -3952.824)" fill="#5b6375"/>
    </g>
    <path id="Trazado_144891" data-name="Trazado 144891" d="M-725.174,4022.763h-2.244a15.95,15.95,0,0,0-1.466-3.539l.007-.03,1.587-1.6a.91.91,0,0,0,0-1.283l-2.759-2.762a.9.9,0,0,0-1.277,0l-1.475,1.586a10.171,10.171,0,0,0-3.395-1.434v-2.255c0-.5-.627-.758-1.126-.758h-3.9c-.5,0-.338.26-.338.758v2.244a17.586,17.586,0,0,0-3.775,1.466l-.149-.007-1.657-1.587a.947.947,0,0,0-1.313,0l-2.777,2.759a.9.9,0,0,0-.009,1.277l1.582,1.623a15.219,15.219,0,0,0-1.437,3.542h-2.254c-.5,0-.288.332-.288.831v3.9c0,.5-.211,1.3.288,1.3h2.244a9.959,9.959,0,0,0,1.466,3.292l-.007-.094-1.587,1.537a.873.873,0,0,0,0,1.252l2.76,2.747a.9.9,0,0,0,1.277-.006l1.859-1.59a16.67,16.67,0,0,0,3.778,1.43v2.254c0,.5-.14,1.253.359,1.253h3.9c.5,0,1.105-.754,1.105-1.253v-2.244a10.463,10.463,0,0,0,3.391-1.466l-.043.008,1.562,1.586a.887.887,0,0,0,1.264,0l2.753-2.759a.9.9,0,0,0,0-1.277l-1.588-1.375a9.668,9.668,0,0,0,1.432-3.295h2.254c.5,0,1.725-.827,1.725-1.325v-3.9C-723.449,4023.074-724.675,4022.763-725.174,4022.763Zm-16.353,7.937c-.054-.024-.108-.049-.162-.075-.164-.079-.323-.166-.478-.259q-.116-.071-.228-.146t-.22-.157l-.107-.082a5.629,5.629,0,0,1-.578-.523,5.681,5.681,0,0,1-.5-.6c-.061-.084-.12-.17-.177-.258a5.557,5.557,0,0,1-.443-.832,5.6,5.6,0,0,1-.452-2.211,5.605,5.605,0,0,1,1.841-4.16c.1-.091.2-.178.309-.261l.107-.082q.108-.081.22-.157a5.689,5.689,0,0,1,.706-.406c.082-.04.165-.077.249-.112a5.6,5.6,0,0,1,2.187-.442,5.594,5.594,0,0,1,2.558.615c.081.042.16.084.239.13q.177.1.345.215.112.075.22.157l.107.082q.106.083.208.171.153.133.3.276.1.1.186.2a5.511,5.511,0,0,1,.423.525c.052.073.1.148.152.224s.1.153.141.231c.067.118.131.238.19.361a5.594,5.594,0,0,1,.554,2.436,5.635,5.635,0,0,1-.177,1.4q-.035.135-.076.267-.061.2-.137.39-.05.127-.107.252c-.025.055-.051.11-.078.164-.053.108-.11.216-.17.32q-.068.118-.141.232-.058.09-.12.179c-.036.052-.073.1-.111.155q-.04.054-.082.107c-.056.07-.113.14-.172.208l-.09.1q-.091.1-.186.2c-.031.032-.064.063-.1.094q-.2.186-.408.354l-.107.082q-.108.081-.22.157t-.228.146l-.117.068q-.118.068-.239.13a5.6,5.6,0,0,1-2.558.615,5.6,5.6,0,0,1-2.1-.405C-741.408,4030.751-741.467,4030.726-741.526,4030.7Z" transform="translate(-92.177 -50.486)" fill="#48505a"/>
    <path id="Trazado_144892" data-name="Trazado 144892" d="M-223.982,4241.763h-2.244a16.525,16.525,0,0,0-1.466-3.625l.007-.074,1.587-1.62a.923.923,0,0,0,0-1.294l-2.759-2.767a.9.9,0,0,0-1.277,0l-1.366,1.584a9.607,9.607,0,0,0-3.286-1.435v-2.254c0-.5-.845-.587-1.344-.587h-3.9c-.5,0-.791.087-.791.587v2.243a11.367,11.367,0,0,0-3.548,1.466l-.035-.007-1.6-1.587a.912.912,0,0,0-1.284,0l-2.763,2.76a.9.9,0,0,0,0,1.277l1.586,1.709a15.747,15.747,0,0,0-1.434,3.628h-2.254c-.5,0-.4.16-.4.659v3.9c0,.5-.094,1.477.4,1.477h2.244a9.5,9.5,0,0,0,1.466,3.206l-.007-.136-1.587,1.515a.861.861,0,0,0,0,1.241l2.76,2.742a.9.9,0,0,0,1.277-.009l1.632-1.591a11.007,11.007,0,0,0,3.551,1.428v2.254c0,.5.313,1.425.812,1.425h3.9c.5,0,1.323-.926,1.323-1.425v-2.244a9.891,9.891,0,0,0,3.282-1.466l-.1.008,1.534,1.586a.87.87,0,0,0,1.251,0l2.746-2.759a.9.9,0,0,0-.006-1.277l-1.59-1.29a9.229,9.229,0,0,0,1.43-3.208h2.254c.5,0,1.607-1,1.607-1.5v-3.9C-222.375,4241.9-223.483,4241.763-223.982,4241.763Zm-16.353,7.765c-.054-.024-.108-.049-.162-.075q-.246-.118-.478-.259c-.077-.047-.153-.1-.228-.146s-.148-.1-.22-.157l-.107-.082a5.749,5.749,0,0,1-.578-.522,5.59,5.59,0,0,1-.5-.6q-.092-.127-.177-.258a5.646,5.646,0,0,1-.443-.833,5.6,5.6,0,0,1-.452-2.21,5.6,5.6,0,0,1,1.841-4.16q.149-.136.309-.261c.035-.028.071-.056.107-.083.072-.054.146-.106.22-.157a5.752,5.752,0,0,1,.706-.406q.123-.059.249-.112a5.6,5.6,0,0,1,2.187-.441,5.6,5.6,0,0,1,2.558.614q.121.062.239.13.177.1.345.215c.075.05.148.1.22.157.036.027.072.054.107.083q.106.083.208.171.153.133.3.275.1.1.186.2a5.639,5.639,0,0,1,.423.525c.052.074.1.148.152.224s.1.153.141.231c.067.118.131.238.19.361a5.594,5.594,0,0,1,.554,2.437,5.632,5.632,0,0,1-.177,1.4c-.023.089-.048.179-.076.267-.041.132-.087.261-.137.389-.034.085-.069.169-.107.252-.025.055-.051.11-.078.165-.053.109-.11.215-.17.32-.045.078-.092.156-.141.231q-.058.091-.12.179c-.036.052-.073.1-.111.155s-.054.072-.082.107q-.084.106-.172.208c-.03.034-.059.067-.09.1q-.091.1-.186.2l-.1.094c-.13.124-.266.242-.408.353l-.107.082q-.108.081-.22.157c-.075.051-.151.1-.228.146-.039.023-.077.047-.117.069q-.118.068-.239.13a5.6,5.6,0,0,1-2.558.615,5.607,5.607,0,0,1-2.1-.4C-240.217,4249.578-240.276,4249.554-240.335,4249.527Z" transform="translate(-425.197 -196.026)" fill="#48505a"/>
    <g id="Grupo_73114" data-name="Grupo 73114" transform="translate(-726.313 3962.675)">
      <line id="Línea_145" data-name="Línea 145" x1="41.168" y1="0.096" transform="translate(0.003 9.078)" fill="#12263f"/>
      <g id="Grupo_73113" data-name="Grupo 73113">
        <rect id="Rectángulo_32443" data-name="Rectángulo 32443" width="2.471" height="21.023" transform="translate(0 10.314) rotate(-89.866)" fill="#12263f"/>
        <g id="Grupo_73112" data-name="Grupo 73112" transform="translate(11.155)">
          <path id="Trazado_144893" data-name="Trazado 144893" d="M-358.6,4027.181l-5.436,8.891.3.2,14.531-5.732,15.182-3.3-15.166-3.374-14.5-5.8-.3.151Z" transform="translate(364.039 -4018.064)" fill="#12263f"/>
        </g>
      </g>
    </g>
    <g id="Grupo_73117" data-name="Grupo 73117" transform="translate(-822.333 4134.947)">
      <line id="Línea_146" data-name="Línea 146" y1="0.096" x2="41.168" transform="translate(0 9.078)" fill="#12263f"/>
      <g id="Grupo_73116" data-name="Grupo 73116" transform="translate(0)">
        <rect id="Rectángulo_32444" data-name="Rectángulo 32444" width="21.023" height="2.471" transform="matrix(1, -0.002, 0.002, 1, 20.142, 7.892)" fill="#12263f"/>
        <g id="Grupo_73115" data-name="Grupo 73115">
          <path id="Trazado_144894" data-name="Trazado 144894" d="M-658.967,4540.756l5.436,8.891-.3.2-14.531-5.732-15.182-3.3,15.166-3.375,14.5-5.8.3.151Z" transform="translate(683.548 -4531.639)" fill="#12263f"/>
        </g>
      </g>
    </g>
    <g id="Grupo_73118" data-name="Grupo 73118" transform="translate(-846.554 3969.466)">
      <path id="Trazado_144895" data-name="Trazado 144895" d="M-592.459,4119.955a81.648,81.648,0,0,1-81.646,81.649,81.649,81.649,0,0,1-81.648-81.649,81.647,81.647,0,0,1,81.648-81.647A81.647,81.647,0,0,1-592.459,4119.955Z" transform="translate(755.753 -4038.308)" fill="#7e5ee3"/>
      <circle id="Elipse_4507" data-name="Elipse 4507" cx="57.367" cy="57.367" r="57.367" transform="translate(22.571 26.043) rotate(-1.734)" fill="#f1f1f1"/>
      <circle id="Elipse_4508" data-name="Elipse 4508" cx="40.496" cy="40.496" r="40.496" transform="translate(38.119 118.864) rotate(-85.53)" fill="#7e5ee3"/>
      <path id="Trazado_144896" data-name="Trazado 144896" d="M-531.3,4243.448a19.315,19.315,0,0,1-19.314,19.315,19.315,19.315,0,0,1-19.315-19.315,19.315,19.315,0,0,1,19.315-19.314A19.315,19.315,0,0,1-531.3,4243.448Z" transform="translate(632.261 -4161.801)" fill="#f6f4f4"/>
      <path id="Trazado_144897" data-name="Trazado 144897" d="M-389.688,4083.8l-10.481-7.215a5.677,5.677,0,0,0-.455-3.917,5.673,5.673,0,0,0-2.031-2.229l1.234-13c.171-1.781-1.023-2.627-2.647-1.888l-27.369,12.485a7.126,7.126,0,0,0-3.579,4.54l-2.647,13.632-74.137,40.521c-2.809,1.425-5.562,1.646-4.136,4.456s3.231.718,6.04-.708L-434.341,4095l10.435,6.185a6.617,6.617,0,0,0,5.694.2l28.3-14.271C-388.318,4086.3-388.215,4084.815-389.688,4083.8Z" transform="translate(596.637 -4049.593)" fill="#81d4fa"/>
      <path id="Trazado_144898" data-name="Trazado 144898" d="M-400.62,4072.669a5.674,5.674,0,0,0-2.031-2.229l1.234-13c.171-1.781-1.023-2.627-2.647-1.888l-27.369,12.485a7.126,7.126,0,0,0-3.579,4.54l-2.647,13.632-74.136,40.521c-2.744,1.392-5.432,1.636-4.226,4.267l115.559-57.983C-400.512,4072.9-400.562,4072.784-400.62,4072.669Z" transform="translate(596.633 -4049.593)" fill="#00bcd4"/>
    </g>
  </g>
</svg>
