<svg xmlns="http://www.w3.org/2000/svg" width="250.942" height="225.038" viewBox="0 0 250.942 225.038">
  <g id="img8" transform="translate(671.364 -4787.723)">
    <g id="Grupo_73120" data-name="Grupo 73120" transform="translate(-671.364 4787.723)">
      <path id="Trazado_144899" data-name="Trazado 144899" d="M-523.254,5258.223l-10.652-1.729c-2.2-.356-3.492-1.692-2.878-2.968l44.156-91.742c.614-1.275,2.914-2.028,5.111-1.671l10.652,1.729c2.2.357,3.492,1.692,2.878,2.968l-44.157,91.742C-518.758,5257.827-521.057,5258.579-523.254,5258.223Z" transform="translate(567.897 -5033.273)" fill="#004261"/>
      <path id="Trazado_144900" data-name="Trazado 144900" d="M-329.668,5258.223l10.652-1.729c2.2-.356,3.492-1.692,2.878-2.968l-44.156-91.742c-.614-1.275-2.914-2.028-5.111-1.671l-10.652,1.729c-2.2.357-3.492,1.692-2.878,2.968l44.157,91.742C-334.165,5257.827-331.865,5258.579-329.668,5258.223Z" transform="translate(470.919 -5033.273)" fill="#004261"/>
      <ellipse id="Elipse_4510" data-name="Elipse 4510" cx="91.31" cy="89.703" rx="91.31" ry="89.703" transform="translate(0 0)" fill="#00bcd4"/>
      <ellipse id="Elipse_4511" data-name="Elipse 4511" cx="60.263" cy="59.202" rx="60.263" ry="59.202" transform="translate(31.047 30.501)" fill="#ffab00"/>
      <ellipse id="Elipse_4512" data-name="Elipse 4512" cx="33.515" cy="32.925" rx="33.515" ry="32.925" transform="translate(57.795 56.778)" fill="#fff"/>
      <ellipse id="Elipse_4513" data-name="Elipse 4513" cx="18.36" cy="18.037" rx="18.36" ry="18.037" transform="translate(72.95 71.667)" fill="#00bcd4"/>
      <path id="Trazado_144901" data-name="Trazado 144901" d="M-276.138,4882.229l2.336,4.614,51.6-25.242-16.743-.843,9.411-13.637-51.6,25.242,2.346,4.633-83.264,40.769-2.349-4.63-18.306,18.01,25.659-3.517L-359.4,4923Z" transform="translate(473.143 -4841.036)" fill="#003646"/>
    </g>
  </g>
</svg>
