<svg xmlns="http://www.w3.org/2000/svg" width="285.854" height="250.913" viewBox="0 0 285.854 250.913">
  <g id="img9" transform="translate(2154.165 -3965.876)">
    <path id="Trazado_144902" data-name="Trazado 144902" d="M-1864.782,4091.333a124.857,124.857,0,0,1-17.726,64.324,125.919,125.919,0,0,1-18.838,24.2c-.033.036-.066.069-.1.105q-3.352,3.357-6.951,6.455-3.018,2.609-6.2,5.009-4,3.029-8.234,5.733a124.5,124.5,0,0,1-11,6.262,124.34,124.34,0,0,1-28.045,10.145,125.418,125.418,0,0,1-23.656,3.135q-1.531.054-3.073.077-.815.01-1.629.011a126.264,126.264,0,0,1-21.889-1.9q-4.15-.733-8.2-1.731a123.926,123.926,0,0,1-20.9-7.167,125.122,125.122,0,0,1-27.258-16.588l-.437-.35a126.034,126.034,0,0,1-10.214-9.2,126.24,126.24,0,0,1-12.914-15.207,124.88,124.88,0,0,1-23.642-73.313,125.454,125.454,0,0,1,125.456-125.457A125.454,125.454,0,0,1-1864.782,4091.333Z" transform="translate(-24.447)" fill="#81d4fa"/>
    <path id="Trazado_144903" data-name="Trazado 144903" d="M-2079.738,4149.278a15.317,15.317,0,0,1-9.42,14.135,8.225,8.225,0,0,1-4.251,1.175h-45.871a8.345,8.345,0,0,1-1.122-.077,15.312,15.312,0,0,1-13.762-15.233,15.311,15.311,0,0,1,13.152-15.158,12.989,12.989,0,0,1,12.768-10.622,12.923,12.923,0,0,1,5.89,1.414,18.379,18.379,0,0,1,14.321-6.841,18.41,18.41,0,0,1,17.9,14.118,5.417,5.417,0,0,1,4.763,5.227A15.272,15.272,0,0,1-2079.738,4149.278Z" transform="translate(0 -96.719)" fill="#f6f4f4"/>
    <path id="Trazado_144904" data-name="Trazado 144904" d="M-1524.923,4188.628a18.294,18.294,0,0,1-11.251,16.882,9.815,9.815,0,0,1-5.077,1.4h-54.787a9.88,9.88,0,0,1-1.341-.092,18.288,18.288,0,0,1-16.436-18.193,18.285,18.285,0,0,1,15.707-18.1,15.513,15.513,0,0,1,15.249-12.687,15.434,15.434,0,0,1,7.035,1.688,21.955,21.955,0,0,1,17.1-8.17,21.988,21.988,0,0,1,21.379,16.862,6.469,6.469,0,0,1,5.688,6.243A18.238,18.238,0,0,1-1524.923,4188.628Z" transform="translate(-343.388 -117.871)" fill="#f6f4f4"/>
    <path id="Trazado_144905" data-name="Trazado 144905" d="M-1678.185,4007.07a8.116,8.116,0,0,1-4.992,7.489,4.356,4.356,0,0,1-2.252.623h-24.3a4.4,4.4,0,0,1-.6-.041,8.113,8.113,0,0,1-7.291-8.071,8.112,8.112,0,0,1,6.968-8.031,6.881,6.881,0,0,1,6.764-5.628,6.851,6.851,0,0,1,3.121.749,9.739,9.739,0,0,1,7.588-3.625,9.755,9.755,0,0,1,9.484,7.48,2.87,2.87,0,0,1,2.524,2.77A8.092,8.092,0,0,1-1678.185,4007.07Z" transform="translate(-277.421 -15.671)" fill="#f6f4f4"/>
    <path id="Trazado_144906" data-name="Trazado 144906" d="M-1738.6,4110.989h20.414l-7.1-8.212,7.1-8.213H-1738.6Z" transform="translate(-264.091 -81.779)" fill="#ff9d00"/>
    <path id="Trazado_144907" data-name="Trazado 144907" d="M-1738.6,4129.942v-5.555h9.5Z" transform="translate(-264.09 -100.733)" fill="#bc5c36"/>
    <path id="Trazado_144908" data-name="Trazado 144908" d="M-1762.293,4079.392h-11.1v16.4h22.176v-16.4Z" transform="translate(-241.977 -72.138)" fill="#ff9d00"/>
    <path id="Trazado_144909" data-name="Trazado 144909" d="M-1701.288,4287.1l-11.02,71-7.677,49.455h-42.943l16.31-31.875,22.028-43.049Z" transform="translate(-248.628 -204.132)" fill="#7e6c68"/>
    <path id="Trazado_144910" data-name="Trazado 144910" d="M-1550.864,4359.79a125.891,125.891,0,0,1-18.838,24.2c-.033.037-.066.069-.1.106q-3.352,3.356-6.951,6.455l-17.07-103.455Z" transform="translate(-356.092 -204.133)" fill="#332524"/>
    <path id="Trazado_144911" data-name="Trazado 144911" d="M-1609.349,4390.551q-3.018,2.608-6.2,5.008-4,3.029-8.234,5.734a124.647,124.647,0,0,1-11,6.262h-10.33l7.677-49.456.933-6.011,10.086-64.992Z" transform="translate(-323.497 -204.133)" fill="#473735"/>
    <path id="Trazado_144912" data-name="Trazado 144912" d="M-2015.638,4364.826l-12.069,77.753a125.9,125.9,0,0,1-10.214-9.2,126.024,126.024,0,0,1-12.915-15.207Z" transform="translate(-65.665 -253.53)" fill="#7e6c68"/>
    <path id="Trazado_144913" data-name="Trazado 144913" d="M-1882.955,4470.231q-1.531.055-3.073.077-.815.011-1.629.011a126.31,126.31,0,0,1-21.889-1.9q-4.15-.733-8.2-1.731a124.018,124.018,0,0,1-20.9-7.167l-5.118-31.012-3.871-23.464-6.638-40.216,15.2,22.461,8.869,13.1,18.506,27.353,13.224,19.545Z" transform="translate(-127.028 -253.53)" fill="#332524"/>
    <path id="Trazado_144914" data-name="Trazado 144914" d="M-1959.69,4459.518a125.19,125.19,0,0,1-27.258-16.589l-.437-.35,12.069-77.753,6.638,40.216,3.871,23.464Z" transform="translate(-105.987 -253.53)" fill="#473735"/>
    <rect id="Rectángulo_32445" data-name="Rectángulo 32445" width="1.675" height="25.891" transform="translate(-2017.217 4004.94)" fill="#12263f"/>
    <path id="Trazado_144915" data-name="Trazado 144915" d="M-1909.729,4144.076l-22.253,143.383-3.543,22.826-2.5,16.114a123.925,123.925,0,0,1-20.9-7.166,125.154,125.154,0,0,1-27.258-16.588l5.373-11.144,12.9-26.744.66-1.371,7.9-16.385Z" transform="translate(-106.75 -113.245)" fill="#7e6c68"/>
    <path id="Trazado_144916" data-name="Trazado 144916" d="M-1699,4304.671q-4,3.029-8.234,5.734a124.52,124.52,0,0,1-11,6.262,124.319,124.319,0,0,1-28.045,10.145l-1.673-10.145-2.949-17.864-2.8-16.946-22.734-137.78,45.235,93.813,5.562,11.536,5.679,11.774,8.409,17.438Z" transform="translate(-240.044 -113.245)" fill="#332524"/>
    <path id="Trazado_144917" data-name="Trazado 144917" d="M-1795.616,4326.811a125.337,125.337,0,0,1-23.656,3.135q-1.531.055-3.073.077-.815.011-1.629.011a126.264,126.264,0,0,1-21.889-1.9q-4.15-.732-8.2-1.731l2.5-16.114,3.543-22.826,22.253-143.383,22.734,137.78,2.8,16.946,2.949,17.864Z" transform="translate(-190.711 -113.245)" fill="#473735"/>
    <path id="Trazado_144918" data-name="Trazado 144918" d="M-1728.191,4177.2c-1.738-1.2-2.4-1.085-3.608.648,1.209-1.734,1.09-2.394-.647-3.6,1.737,1.205,2.4,1.085,3.608-.648C-1730.047,4175.338-1729.928,4176-1728.191,4177.2Z" transform="translate(-267.999 -132.01)" fill="#727997"/>
    <path id="Trazado_144919" data-name="Trazado 144919" d="M-1812.315,4088.581c-1.738-1.2-2.4-1.086-3.609.648,1.209-1.734,1.09-2.394-.647-3.6,1.737,1.2,2.4,1.085,3.609-.648C-1814.172,4086.717-1814.053,4087.377-1812.315,4088.581Z" transform="translate(-214.538 -75.691)" fill="#727997"/>
    <path id="Trazado_144920" data-name="Trazado 144920" d="M-1839.825,4156.237c-3.674-2.546-5.073-2.295-7.63,1.371,2.556-3.666,2.3-5.061-1.368-7.608,3.672,2.547,5.072,2.3,7.629-1.37C-1843.75,4152.294-1843.5,4153.69-1839.825,4156.237Z" transform="translate(-194.043 -116.138)" fill="#727997"/>
  </g>
</svg>
