<svg xmlns="http://www.w3.org/2000/svg" xmlns:xlink="http://www.w3.org/1999/xlink" width="179" height="179" viewBox="0 0 179 179">
  <defs>
    <filter id="Elipse_4062" x="0" y="0" width="179" height="179" filterUnits="userSpaceOnUse">
      <feOffset dy="3" input="SourceAlpha"/>
      <feGaussianBlur stdDeviation="3" result="blur"/>
      <feFlood flood-opacity="0.161"/>
      <feComposite operator="in" in2="blur"/>
      <feComposite in="SourceGraphic"/>
    </filter>
  </defs>
  <g id="Grupo_76080" data-name="Grupo 76080" transform="translate(-2341 3235.227)">
    <g transform="matrix(1, 0, 0, 1, 2341, -3235.23)" filter="url(#Elipse_4062)">
      <circle id="Elipse_4062-2" data-name="Elipse 4062" cx="80.5" cy="80.5" r="80.5" transform="translate(9 6)" fill="#fff"/>
    </g>
    <circle id="Elipse_4063" data-name="Elipse 4063" cx="62" cy="62" r="62" transform="translate(2367 -3210.227)" fill="#7e5ee3"/>
    <path id="Trazado_148059" data-name="Trazado 148059" d="M2616.816,1262.323a1.546,1.546,0,0,1-1.516-1.843c2.147-10.879,7.685-10.73,12.135-10.611a15.411,15.411,0,0,0,3.793-.193c1.547-.36,2.52-.989,2.892-1.869a4.167,4.167,0,0,0-.332-3.148,1.681,1.681,0,0,1-.19-1.465c.333-1,1.36-1.363,2.783-1.867.343-.121.884-.313,1.143-.437a1.544,1.544,0,0,1,2.623,1.51c-.328.985-1.338,1.342-2.735,1.837l-.408.146a6.733,6.733,0,0,1,.006,4.516c-.519,1.308-1.821,3.027-5.082,3.786a17.909,17.909,0,0,1-4.574.273c-1.993-.053-3.874-.1-5.349.809-1.711,1.059-2.913,3.452-3.675,7.313A1.544,1.544,0,0,1,2616.816,1262.323Zm20.4-20.9h0Z" transform="translate(-215.957 -4372.313)" fill="#fff"/>
    <path id="Trazado_148060" data-name="Trazado 148060" d="M2607.336,1275.233a1.545,1.545,0,0,1-.354-.041l-15.965-3.744a1.544,1.544,0,1,1,.7-3.006l15.965,3.744a1.544,1.544,0,0,1-.351,3.047Z" transform="translate(-195.749 -4394.577)" fill="#fff"/>
    <path id="Trazado_148061" data-name="Trazado 148061" d="M2689.094,1087.841a1.541,1.541,0,0,1-.568-.109c-.321-.127-7.877-3.194-9.722-9.963a1.543,1.543,0,0,1,1.513-1.949,15.057,15.057,0,0,0,8.625-2.675.309.309,0,0,1,.026-.02,1.025,1.025,0,0,0,.082-.076,7.38,7.38,0,0,1-2.225-3.7,5.171,5.171,0,0,1-.1-2.024,1.544,1.544,0,0,1,1-1.167c1.547-.555,3.965-1.854,4.49-3a.64.64,0,0,0,.033-.554c-.315-.816-2.114-2.47-3.7-3.93-3.882-3.569-8.713-8.011-8.086-12.9a1.544,1.544,0,0,1,3.063.393c-.424,3.307,3.933,7.313,7.114,10.237,2.188,2.012,3.917,3.6,4.492,5.09a3.725,3.725,0,0,1-.107,2.956c-.945,2.06-3.649,3.506-5.193,4.19a4.371,4.371,0,0,0,1.414,2.237,2.792,2.792,0,0,1,1,2.267,3.531,3.531,0,0,1-1.434,2.463,18.2,18.2,0,0,1-8.292,3.188c2.179,4.041,7.09,6.052,7.146,6.074a1.544,1.544,0,0,1-.573,2.978Z" transform="translate(-266.37 -4216.699)" fill="#fff"/>
    <path id="Trazado_148062" data-name="Trazado 148062" d="M2526.764,1096.2a4.713,4.713,0,0,1-4.593-3.615l-.165-.682a3.452,3.452,0,0,0-1.313-1.97,6.557,6.557,0,0,1-2.672-5.271V1082.1a7.948,7.948,0,1,1,15.9,0v5.046a1.544,1.544,0,0,1-3.087,0V1082.1a4.86,4.86,0,0,0-9.721,0v2.567a3.459,3.459,0,0,0,1.409,2.78,6.544,6.544,0,0,1,2.489,3.735l.165.681a1.638,1.638,0,0,0,3.187-.007l.413-1.74a1.544,1.544,0,0,1,3,.712l-.413,1.74A4.709,4.709,0,0,1,2526.764,1096.2Z" transform="translate(-138.725 -4240.309)" fill="#fff"/>
    <path id="Trazado_148063" data-name="Trazado 148063" d="M2722.947,992.317a1.544,1.544,0,0,1-1.282-2.4,17.155,17.155,0,0,0,1.647-15.8,1.544,1.544,0,1,1,2.8-1.3,20.089,20.089,0,0,1-1.88,18.817A1.543,1.543,0,0,1,2722.947,992.317Z" transform="translate(-300.245 -4159.122)" fill="#fff"/>
    <path id="Trazado_148064" data-name="Trazado 148064" d="M2581.788,1028.56a1.544,1.544,0,0,1-.435-3.025c1.145-.337,2.268-.716,3.337-1.126a32.145,32.145,0,0,0,14.473-10.518,27.6,27.6,0,0,0,5.579-13.973,1.544,1.544,0,0,1,3.085.125,30.431,30.431,0,0,1-6.2,15.708,35.178,35.178,0,0,1-15.83,11.539c-1.146.44-2.348.846-3.572,1.206A1.542,1.542,0,0,1,2581.788,1028.56Z" transform="translate(-188.14 -4180.181)" fill="#fff"/>
    <path id="Trazado_148065" data-name="Trazado 148065" d="M2811.188,1262.323a1.546,1.546,0,0,1-1.516-1.843c.953-4.826,2.174-7.66,3.959-9.19,1.809-1.55,3.886-1.482,5.718-1.421a12.761,12.761,0,0,0,3.369-.193c1.547-.36,2.52-.989,2.892-1.869a4.165,4.165,0,0,0-.332-3.148,1.681,1.681,0,0,1-.19-1.465c.333-1,1.36-1.363,2.783-1.867.343-.121.884-.313,1.143-.437a1.544,1.544,0,0,1,2.623,1.51c-.328.985-1.338,1.342-2.735,1.837l-.408.146a6.731,6.731,0,0,1,.006,4.516c-.519,1.308-1.821,3.027-5.082,3.786a15.409,15.409,0,0,1-4.17.271c-1.73-.057-2.751-.054-3.607.68-1.19,1.02-2.152,3.455-2.939,7.444A1.544,1.544,0,0,1,2811.188,1262.323Zm17.52-20.9v0Zm0,0h0Z" transform="translate(-370.321 -4372.313)" fill="#fff"/>
    <path id="Trazado_148066" data-name="Trazado 148066" d="M2870.213,1087.841a1.535,1.535,0,0,1-.718-.178,36.315,36.315,0,0,1-4.706-3.044c-3.4-2.618-4.975-5.095-4.695-7.361a1.541,1.541,0,0,1,1.629-1.352,11.119,11.119,0,0,0,8.186-2.628,1.1,1.1,0,0,1,.177-.154.931.931,0,0,0,.083-.076,7.38,7.38,0,0,1-2.225-3.7,5.171,5.171,0,0,1-.1-2.024,1.544,1.544,0,0,1,1-1.167c1.547-.555,3.965-1.854,4.49-3a.64.64,0,0,0,.033-.554c-.315-.816-2.114-2.47-3.7-3.93-3.882-3.569-8.713-8.011-8.086-12.9a1.544,1.544,0,0,1,3.063.393c-.424,3.307,3.933,7.313,7.114,10.237,2.188,2.012,3.917,3.6,4.492,5.09a3.725,3.725,0,0,1-.107,2.956c-.945,2.06-3.649,3.506-5.193,4.19a4.37,4.37,0,0,0,1.415,2.237,2.792,2.792,0,0,1,1,2.267,3.485,3.485,0,0,1-1.351,2.4,14.073,14.073,0,0,1-8.478,3.45c1.172,2.01,4.755,4.554,7.4,5.944a1.544,1.544,0,0,1-.72,2.91Z" transform="translate(-410.364 -4216.699)" fill="#fff"/>
    <path id="Trazado_148067" data-name="Trazado 148067" d="M2903.318,992.324a1.544,1.544,0,0,1-1.282-2.4,16.974,16.974,0,0,0,1.645-15.8,1.544,1.544,0,0,1,2.8-1.3,20.089,20.089,0,0,1-1.88,18.817A1.543,1.543,0,0,1,2903.318,992.324Z" transform="translate(-443.49 -4159.129)" fill="#fff"/>
    <path id="Trazado_148068" data-name="Trazado 148068" d="M2777.33,1022.825a1.544,1.544,0,0,1-.385-3.039c8.535-2.2,14.733-6.312,17.924-11.885a16.257,16.257,0,0,0,2.292-7.841,1.544,1.544,0,0,1,3.084-.137,18.947,18.947,0,0,1-2.594,9.331c-2.5,4.468-7.991,10.44-19.935,13.522A1.549,1.549,0,0,1,2777.33,1022.825Z" transform="translate(-343.434 -4180.194)" fill="#fff"/>
    <path id="Trazado_148069" data-name="Trazado 148069" d="M2751.33,1207.1a1.544,1.544,0,0,1-1.141-2.584,1.988,1.988,0,0,0-.021-2.714,1.544,1.544,0,1,1,2.249-2.115,5.075,5.075,0,0,1,.054,6.909A1.54,1.54,0,0,1,2751.33,1207.1Z" transform="translate(-322.755 -4339.618)" fill="#fff"/>
    <path id="Trazado_148070" data-name="Trazado 148070" d="M2774.583,1194.2a1.543,1.543,0,0,1-1.14-2.583,8.546,8.546,0,0,0-.094-11.612,1.544,1.544,0,1,1,2.249-2.115,11.632,11.632,0,0,1,.127,15.807A1.54,1.54,0,0,1,2774.583,1194.2Z" transform="translate(-341.164 -4322.308)" fill="#fff"/>
    <path id="Trazado_148071" data-name="Trazado 148071" d="M2799.284,1180.492a1.544,1.544,0,0,1-1.141-2.584,15.5,15.5,0,0,0-.168-21.063,1.544,1.544,0,1,1,2.249-2.116,18.592,18.592,0,0,1,.2,25.258A1.541,1.541,0,0,1,2799.284,1180.492Z" transform="translate(-360.722 -4303.917)" fill="#fff"/>
    <path id="Trazado_148072" data-name="Trazado 148072" d="M2931.825,1207.1a1.544,1.544,0,0,1-1.14-2.584,1.988,1.988,0,0,0-.021-2.714,1.544,1.544,0,1,1,2.249-2.115,5.075,5.075,0,0,1,.054,6.909A1.54,1.54,0,0,1,2931.825,1207.1Z" transform="translate(-466.099 -4339.618)" fill="#fff"/>
    <path id="Trazado_148073" data-name="Trazado 148073" d="M2955.079,1194.2a1.544,1.544,0,0,1-1.141-2.583,8.545,8.545,0,0,0-.094-11.612,1.544,1.544,0,1,1,2.249-2.115,11.632,11.632,0,0,1,.127,15.807A1.539,1.539,0,0,1,2955.079,1194.2Z" transform="translate(-484.508 -4322.308)" fill="#fff"/>
    <path id="Trazado_148074" data-name="Trazado 148074" d="M2979.781,1180.492a1.544,1.544,0,0,1-1.14-2.584,15.5,15.5,0,0,0-.168-21.063,1.544,1.544,0,1,1,2.249-2.116,18.592,18.592,0,0,1,.2,25.258A1.54,1.54,0,0,1,2979.781,1180.492Z" transform="translate(-504.067 -4303.917)" fill="#fff"/>
    <path id="Trazado_148075" data-name="Trazado 148075" d="M2648.862,1102.76a1.542,1.542,0,0,1-1.221-.6,3.871,3.871,0,0,0-4.608-.911,1.544,1.544,0,1,1-1.134-2.872,7.093,7.093,0,0,1,6,.153,6.726,6.726,0,0,1,2.189,1.749,1.544,1.544,0,0,1-1.228,2.478Z" transform="translate(-236.328 -4259.086)" fill="#fff"/>
    <path id="Trazado_148076" data-name="Trazado 148076" d="M2823.774,1090.238a1.541,1.541,0,0,1-1.221-.6,3.87,3.87,0,0,0-4.609-.911,1.544,1.544,0,1,1-1.134-2.872,7.1,7.1,0,0,1,6,.153,6.729,6.729,0,0,1,2.189,1.749,1.544,1.544,0,0,1-1.228,2.478Z" transform="translate(-375.238 -4249.143)" fill="#fff"/>
  </g>
</svg>
