<svg xmlns="http://www.w3.org/2000/svg" xmlns:xlink="http://www.w3.org/1999/xlink" width="128" height="128" viewBox="0 0 128 128">
  <defs>
    <clipPath id="clip-path">
      <circle id="Elipse_4481" data-name="Elipse 4481" cx="64" cy="64" r="64" transform="translate(0 -0.001)" fill="none"/>
    </clipPath>
    <radialGradient id="radial-gradient" cx="0.5" cy="0.5" r="0.633" gradientTransform="translate(0.299 0.072) scale(0.737 0.855)" gradientUnits="objectBoundingBox">
      <stop offset="0" stop-color="#f29788"/>
      <stop offset="0.612" stop-color="#f2a288"/>
      <stop offset="0.92" stop-color="#f2ab88"/>
    </radialGradient>
    <radialGradient id="radial-gradient-2" cx="0.5" cy="0.5" r="0.633" gradientTransform="matrix(-0.737, 0, 0, 0.855, 6.109, 0.072)" xlink:href="#radial-gradient"/>
  </defs>
  <g id="Grupo_72870" data-name="Grupo 72870" transform="translate(-16.095 -9.96)">
    <g id="Grupo_72869" data-name="Grupo 72869" transform="translate(16.095 9.961)" clip-path="url(#clip-path)">
      <g id="Grupo_72868" data-name="Grupo 72868" transform="translate(-1.125 7.029)">
        <path id="Trazado_144166" data-name="Trazado 144166" d="M136.87,114c-3.552-7.459-27.346-4.262-36.935-8.168S90.347,83.1,90.347,83.1H69.039s0,18.822-9.589,22.729-33.383.71-36.934,8.168-6.037,18.112-7.458,25.214h129.27C142.907,132.114,140.421,121.46,136.87,114Z" transform="translate(-15.058 -10.746)" fill="#f2ab88"/>
        <path id="Trazado_144167" data-name="Trazado 144167" d="M137.809,112.143c-3.245-6.777-23.292-4.757-34.161-7.262-9.352,4.851-17.136,6.562-23.466,6.627-6.329-.065-14.113-1.777-23.465-6.627-10.869,2.505-30.917.485-34.161,7.262-3.571,7.458-6.07,18.112-7.5,25.214h130.25C143.879,130.255,141.38,119.6,137.809,112.143Z" transform="translate(-15.058 -8.887)" fill="#33b5b7"/>
        <path id="Trazado_144168" data-name="Trazado 144168" d="M74.823,103.672c9.6,0,13.939-3.125,15.188-3.868-3.591-6.924-3.595-16.7-3.595-16.7H65.107s0,10.5-4,17.442C61.761,100.819,68.912,103.672,74.823,103.672Z" transform="translate(-11.127 -10.746)" fill="#dcb890" opacity="0.55" style="mix-blend-mode: multiply;isolation: isolate"/>
        <g id="Grupo_72860" data-name="Grupo 72860" transform="translate(32.397 49.658)">
          <path id="Trazado_144169" data-name="Trazado 144169" d="M45.947,63.731c3.5-4.75,11.451,2.986,11.451,2.986s4.933,5.763-.812,12.732c-2.873,3.484-6.191.85-8.411-3.292S43.448,67.118,45.947,63.731Z" transform="translate(-44.907 -62.189)" fill="#f2ab88"/>
          <path id="Trazado_144170" data-name="Trazado 144170" d="M50.776,76.312a3.314,3.314,0,0,0,2.92,1.2,1.163,1.163,0,0,0,.811-1.23c-.332-1.031-3.618-2.865-2.8-5.742.826-2.9-2.862-5.686-4.012-4.089C46.8,67.7,47.884,73.379,50.776,76.312Z" transform="translate(-44.695 -61.865)" fill="#db7a5b"/>
        </g>
        <g id="Grupo_72861" data-name="Grupo 72861" transform="translate(82.381 49.658)">
          <path id="Trazado_144171" data-name="Trazado 144171" d="M104.381,63.731c-3.506-4.75-11.451,2.986-11.451,2.986S88,72.48,93.742,79.45c2.872,3.484,6.19.85,8.409-3.292S106.879,67.118,104.381,63.731Z" transform="translate(-90.959 -62.189)" fill="#f2ab88"/>
          <path id="Trazado_144172" data-name="Trazado 144172" d="M98.975,76.312a3.316,3.316,0,0,1-2.921,1.2,1.163,1.163,0,0,1-.81-1.23c.332-1.031,3.618-2.865,2.8-5.742-.827-2.9,2.861-5.686,4.01-4.089C102.951,67.7,101.867,73.379,98.975,76.312Z" transform="translate(-90.595 -61.865)" fill="#db7a5b"/>
        </g>
        <path id="Trazado_144173" data-name="Trazado 144173" d="M102.578,44.164c-.694-3.886-3.351-7.167-6.713-9.854a30.574,30.574,0,0,0-38.306,0C54.2,37,51.539,40.279,50.846,44.164c0,0-1.648,30.534,5.968,42.241,5.9,9.068,13.328,13.988,19.9,13.988s14-4.92,19.9-13.988C104.225,74.7,102.578,44.164,102.578,44.164Z" transform="translate(-12.016 -15.487)" fill="#f2ab88"/>
        <path id="Trazado_144174" data-name="Trazado 144174" d="M53.7,68.9c-.839-13.354.6-23.279,1.365-24.46a29.851,29.851,0,0,0,8.865-11.79s10.984,5.327,28.364,3.2c0,0,3.23,4.551,6.155,9.233,1.416,2.266,2.029,15.316,1.635,23.783a4.171,4.171,0,0,0,1.331,3.281l.57.519c2.144-4.337,4.266-22.608,3.181-28.647C102.1,26.99,89.794,25.19,77.542,25.19a34.835,34.835,0,0,0-14.76,3.378c-.942-.278-2.373-.61-2.349-.8-6.553.437-9.907,9.752-11.842,16.241-1.959,6.57,1.037,24.31,3.18,28.647l.022-.013A4.107,4.107,0,0,0,53.7,68.9Z" transform="translate(-12.25 -15.69)" fill="#995235"/>
        <path id="Trazado_144175" data-name="Trazado 144175" d="M60.2,34.551q.928.4,1.825.843a27.543,27.543,0,0,0,1.322-2.747s10.984,5.327,28.364,3.2c0,0,2.741,3.864,5.46,8.134a24.582,24.582,0,0,0,6.682-3.146C99.894,26.764,88.406,25.19,76.965,25.19a34.835,34.835,0,0,0-14.76,3.378c-.942-.278-2.373-.61-2.349-.8a8,8,0,0,0-5.14,2.552l.061.078A14.107,14.107,0,0,0,60.2,34.551Z" transform="translate(-11.672 -15.69)" fill="#995235" opacity="0.35" style="mix-blend-mode: multiply;isolation: isolate"/>
        <path id="Trazado_144176" data-name="Trazado 144176" d="M105.483,25.25c0,5.979-9.816,3.462-22.652-3.777-12.581-7.1-18.829-.937-21.368,3.144a25.929,25.929,0,0,1,2.945-8.18c-6.519,3.068-6.082,8.373-5.216,11.313-2.324-.47-5.79-.585-8.5,1.828,0,0,6.645-1.044,9.094,1.057.317.271,1.345.751,1.463.861,6.88,7.572,13.679,11.252,27.848,10.226,7.829-.568,10.436-1.477,14.155-5.456C107.67,31.544,105.483,25.25,105.483,25.25Z" transform="translate(-12.016 -16.437)" fill="#995235"/>
        <path id="Trazado_144177" data-name="Trazado 144177" d="M88.076,40.522c7.375-.534,10.117-1.375,13.519-4.8a20.538,20.538,0,0,1-14.7-5.231c-.13,1.954.847,4.559,3.451,7.554-6.252-1.042-11.807-3-17.016-7.163,1.042,2.084,2.1,5.535,3.146,6.577-3.232,0-11.837-3.767-13.773-4.633C68.84,38.667,75.6,41.425,88.076,40.522Z" transform="translate(-10.99 -15.237)" fill="#995235" opacity="0.5" style="mix-blend-mode: multiply;isolation: isolate"/>
        <g id="Grupo_72863" data-name="Grupo 72863" transform="translate(69.652 42.004)">
          <path id="Trazado_144178" data-name="Trazado 144178" d="M90.243,61.395a5.514,5.514,0,1,1-5.5-5.212A5.365,5.365,0,0,1,90.243,61.395Z" transform="translate(-79.232 -55.048)" fill="#fdfaee"/>
          <path id="Trazado_144179" data-name="Trazado 144179" d="M86.715,64.584a14.352,14.352,0,0,1-2.9.318A5.339,5.339,0,0,1,79.7,62.994a5.632,5.632,0,0,0,10.078-.147A6.782,6.782,0,0,1,86.715,64.584Z" transform="translate(-79.192 -54.479)" fill="#e78660"/>
          <g id="Grupo_72862" data-name="Grupo 72862" transform="translate(2.278 3.435)">
            <path id="Trazado_144180" data-name="Trazado 144180" d="M87.787,61.486A3.228,3.228,0,1,1,84.559,58.3,3.206,3.206,0,0,1,87.787,61.486Z" transform="translate(-81.331 -58.302)" fill="#633837"/>
            <path id="Trazado_144181" data-name="Trazado 144181" d="M86.419,61.388a1.96,1.96,0,1,1-1.96-1.934A1.948,1.948,0,0,1,86.419,61.388Z" transform="translate(-81.231 -58.204)" fill="#321413"/>
          </g>
          <path id="Trazado_144182" data-name="Trazado 144182" d="M81.117,59.907a11.348,11.348,0,0,1,3.925-.534,9.69,9.69,0,0,1,5.187,1.876c-.131-2.769-1.188-5.814-5.456-6.1-4.118-.272-5.234,3.173-5.515,5.8A4.62,4.62,0,0,1,81.117,59.907Z" transform="translate(-79.23 -55.137)" fill="#e78660"/>
        </g>
        <g id="Grupo_72865" data-name="Grupo 72865" transform="translate(48.202 42.004)">
          <path id="Trazado_144183" data-name="Trazado 144183" d="M59.469,61.395a5.514,5.514,0,1,0,5.506-5.212A5.365,5.365,0,0,0,59.469,61.395Z" transform="translate(-59.469 -55.048)" fill="#fdfaee"/>
          <path id="Trazado_144184" data-name="Trazado 144184" d="M62.925,64.584a14.343,14.343,0,0,0,2.9.318,5.339,5.339,0,0,0,4.115-1.908,5.633,5.633,0,0,1-10.079-.147A6.791,6.791,0,0,0,62.925,64.584Z" transform="translate(-59.435 -54.479)" fill="#e78660"/>
          <g id="Grupo_72864" data-name="Grupo 72864" transform="translate(2.278 3.435)">
            <path id="Trazado_144185" data-name="Trazado 144185" d="M61.568,61.486A3.228,3.228,0,1,0,64.8,58.3,3.206,3.206,0,0,0,61.568,61.486Z" transform="translate(-61.568 -58.302)" fill="#633837"/>
            <path id="Trazado_144186" data-name="Trazado 144186" d="M62.735,61.388A1.961,1.961,0,1,0,64.7,59.454,1.948,1.948,0,0,0,62.735,61.388Z" transform="translate(-61.468 -58.204)" fill="#321413"/>
          </g>
          <path id="Trazado_144187" data-name="Trazado 144187" d="M68.592,59.907a11.342,11.342,0,0,0-3.924-.534,9.69,9.69,0,0,0-5.187,1.876c.131-2.769,1.188-5.814,5.456-6.1,4.118-.272,5.234,3.173,5.514,5.8A4.606,4.606,0,0,0,68.592,59.907Z" transform="translate(-59.468 -55.137)" fill="#e78660"/>
        </g>
        <g id="Grupo_72866" data-name="Grupo 72866" transform="translate(59.385 40.93)">
          <path id="Trazado_144188" data-name="Trazado 144188" d="M74.173,77.29a6.314,6.314,0,0,1-2.265-.421,3.083,3.083,0,0,1-2.127-2.212c-.228-1.34,3.982-19.8,3.967-19.879a.533.533,0,0,1,1.047-.2c.064.34-4.115,19.009-3.964,19.9a2.114,2.114,0,0,0,1.468,1.4,4.226,4.226,0,0,0,3.682-.137.533.533,0,0,1,.644.849A4.071,4.071,0,0,1,74.173,77.29Z" transform="translate(-69.772 -54.147)" fill="#ce7959"/>
        </g>
        <path id="Trazado_144189" data-name="Trazado 144189" d="M79.235,46.854s7.48-.443,9.282.32,5.649,3.835,5.4,5-6.25-1.566-6.984-1.429-7.833.494-8.4-.507C77.887,49.081,77.979,46.863,79.235,46.854Z" transform="translate(-9.673 -13.851)" fill="#884627"/>
        <path id="Trazado_144190" data-name="Trazado 144190" d="M70.947,47.032s-7.469-.694-9.286.008-5.729,3.642-5.508,4.813,6.28-1.355,7.013-1.193,7.819.758,8.405-.224C72.247,49.3,72.2,47.084,70.947,47.032Z" transform="translate(-11.551 -13.851)" fill="#884627"/>
        <path id="Trazado_144191" data-name="Trazado 144191" d="M66.55,60.584a.633.633,0,1,1-.633-.634A.633.633,0,0,1,66.55,60.584Z" transform="translate(-10.77 -12.722)" fill="#fdfaee"/>
        <circle id="Elipse_4480" data-name="Elipse 4480" cx="0.633" cy="0.633" r="0.633" transform="translate(75.73 47.228)" fill="#fdfaee"/>
        <path id="Trazado_144192" data-name="Trazado 144192" d="M86.432,77.066c-.6-.056-.828-.828-.835-.848a.532.532,0,0,0-1.027.281,2.509,2.509,0,0,0,.294.659c-9.29,7.338-18.359.99-19.73-.056a2.49,2.49,0,0,0,.259-.6.533.533,0,0,0-1.028-.282c0,.009-.231.792-.834.849a.532.532,0,0,0,.049,1.063l.05,0a1.77,1.77,0,0,0,.762-.253,19.563,19.563,0,0,0,11.063,3.793,15.984,15.984,0,0,0,10.174-3.756,1.779,1.779,0,0,0,.7.216l.05,0a.532.532,0,0,0,.049-1.063Z" transform="translate(-10.961 -11.367)" fill="#ce7959"/>
        <g id="Grupo_72867" data-name="Grupo 72867" transform="translate(59.626 71.175)">
          <path id="Trazado_144193" data-name="Trazado 144193" d="M74.713,84.057a8.189,8.189,0,0,1-4.58-1.406.355.355,0,1,1,.432-.563,7.381,7.381,0,0,0,8.35-.02.355.355,0,1,1,.377.6A8.518,8.518,0,0,1,74.713,84.057Z" transform="translate(-69.994 -82.014)" fill="#ce7959"/>
        </g>
        <path id="Trazado_144194" data-name="Trazado 144194" d="M94.248,70.74c0,2.492-2.743,4.513-6.126,4.513S82,73.232,82,70.74s2.743-4.513,6.126-4.513S94.248,68.247,94.248,70.74Z" transform="translate(-9.344 -12.186)" fill="url(#radial-gradient)"/>
        <path id="Trazado_144195" data-name="Trazado 144195" d="M55.933,70.74c0,2.492,2.743,4.513,6.127,4.513s6.126-2.021,6.126-4.513-2.743-4.513-6.126-4.513S55.933,68.247,55.933,70.74Z" transform="translate(-11.569 -12.186)" fill="url(#radial-gradient-2)"/>
        <path id="Trazado_144196" data-name="Trazado 144196" d="M53.427,56.148a17.387,17.387,0,0,1-4.993-.928c.738,6.286,2.139,12.534,3.3,14.876l.022-.013a4.107,4.107,0,0,0,1.9-3.749C53.421,62.624,53.371,59.208,53.427,56.148Z" transform="translate(-12.209 -13.126)" fill="#995235" opacity="0.35" style="mix-blend-mode: multiply;isolation: isolate"/>
        <path id="Trazado_144197" data-name="Trazado 144197" d="M96.028,56.49c.1,3.417.09,6.926-.048,9.886a4.171,4.171,0,0,0,1.331,3.281l.57.519c1.207-2.441,2.4-9.286,3.025-15.885A15.079,15.079,0,0,1,96.028,56.49Z" transform="translate(-8.15 -13.206)" fill="#995235" opacity="0.35" style="mix-blend-mode: multiply;isolation: isolate"/>
      </g>
    </g>
  </g>
</svg>
