<svg xmlns="http://www.w3.org/2000/svg" xmlns:xlink="http://www.w3.org/1999/xlink" width="128.999" height="128.999" viewBox="0 0 128.999 128.999">
  <defs>
    <clipPath id="clip-path">
      <circle id="Elipse_4497" data-name="Elipse 4497" cx="64.5" cy="64.5" r="64.5" fill="none"/>
    </clipPath>
    <radialGradient id="radial-gradient" cx="0.5" cy="0.5" r="0.633" gradientTransform="translate(-0.208 0.072) scale(0.737 0.855)" gradientUnits="objectBoundingBox">
      <stop offset="0" stop-color="#f29788"/>
      <stop offset="0.612" stop-color="#f2a288"/>
      <stop offset="0.92" stop-color="#f2ab88"/>
    </radialGradient>
    <radialGradient id="radial-gradient-2" cx="0.5" cy="0.5" r="0.633" gradientTransform="matrix(-0.737, 0, 0, 0.855, -36.68, 0.072)" xlink:href="#radial-gradient"/>
  </defs>
  <g id="icon13" transform="translate(-166.034 -11.919)">
    <g id="Grupo_72944" data-name="Grupo 72944" transform="translate(166.034 11.919)" clip-path="url(#clip-path)">
      <g id="Grupo_72943" data-name="Grupo 72943" transform="translate(-1.153 5.025)">
        <path id="Trazado_144417" data-name="Trazado 144417" d="M289.834,114.77c-3.64-7.644-28.024-4.368-37.851-8.371S242.157,83.1,242.157,83.1H220.318s0,19.29-9.826,23.293-34.212.727-37.851,8.371-6.188,18.561-7.643,25.84H297.477C296.022,133.331,293.474,122.412,289.834,114.77Z" transform="translate(-164.998 -8.949)" fill="#f2ab88"/>
        <path id="Trazado_144418" data-name="Trazado 144418" d="M290.8,112.324c-3.325-6.945-23.869-4.875-35.009-7.443-9.584,4.971-17.561,6.725-24.047,6.792-6.486-.067-14.465-1.821-24.047-6.792-11.14,2.567-31.685.5-35.009,7.443-3.66,7.643-6.221,18.561-7.685,25.84H298.481C297.018,130.885,294.456,119.966,290.8,112.324Z" transform="translate(-164.998 -6.503)" fill="#33b5b7"/>
        <path id="Trazado_144419" data-name="Trazado 144419" d="M225.1,104.182c9.836,0,14.286-3.2,15.566-3.964-3.681-7.1-3.684-17.113-3.684-17.113H215.146s0,10.761-4.1,17.875C211.716,101.259,219.046,104.182,225.1,104.182Z" transform="translate(-159.825 -8.949)" fill="#dcb890" opacity="0.55" style="mix-blend-mode: multiply;isolation: isolate"/>
        <g id="Grupo_72932" data-name="Grupo 72932" transform="translate(33.2 50.891)">
          <path id="Trazado_144420" data-name="Trazado 144420" d="M195.912,63.77c3.592-4.868,11.735,3.06,11.735,3.06s5.057,5.906-.832,13.049c-2.944,3.571-6.344.871-8.618-3.374S193.351,67.24,195.912,63.77Z" transform="translate(-194.846 -62.189)" fill="#f2ab88"/>
          <path id="Trazado_144421" data-name="Trazado 144421" d="M200.8,76.568a3.4,3.4,0,0,0,2.993,1.232,1.191,1.191,0,0,0,.83-1.26c-.34-1.057-3.707-2.937-2.869-5.884.848-2.977-2.932-5.827-4.11-4.19C196.725,67.742,197.835,73.563,200.8,76.568Z" transform="translate(-194.567 -61.762)" fill="#db7a5b"/>
        </g>
        <g id="Grupo_72933" data-name="Grupo 72933" transform="translate(84.426 50.891)">
          <path id="Trazado_144422" data-name="Trazado 144422" d="M254.653,63.77c-3.592-4.868-11.735,3.06-11.735,3.06s-5.056,5.906.832,13.049c2.944,3.571,6.345.871,8.619-3.374S257.214,67.24,254.653,63.77Z" transform="translate(-240.899 -62.189)" fill="#f2ab88"/>
          <path id="Trazado_144423" data-name="Trazado 144423" d="M249.008,76.568a3.4,3.4,0,0,1-2.992,1.232,1.192,1.192,0,0,1-.831-1.26c.34-1.057,3.707-2.937,2.869-5.884-.846-2.977,2.933-5.827,4.111-4.19C253.082,67.742,251.972,73.563,249.008,76.568Z" transform="translate(-240.42 -61.762)" fill="#db7a5b"/>
        </g>
        <path id="Trazado_144424" data-name="Trazado 144424" d="M253.805,44.577c-.711-3.982-3.433-7.345-6.88-10.1a31.332,31.332,0,0,0-39.256,0c-3.447,2.754-6.169,6.117-6.88,10.1,0,0-1.688,31.292,6.117,43.291,6.047,9.293,13.659,14.336,20.391,14.336s14.345-5.042,20.391-14.336C255.494,75.869,253.805,44.577,253.805,44.577Z" transform="translate(-160.995 -15.187)" fill="#f2ab88"/>
        <path id="Trazado_144425" data-name="Trazado 144425" d="M203.778,69.983c-.861-13.686.611-23.857,1.4-25.067a30.613,30.613,0,0,0,9.085-12.083s11.257,5.459,29.067,3.276c0,0,3.31,4.664,6.309,9.463,1.452,2.323,2.079,15.7,1.675,24.373a4.271,4.271,0,0,0,1.364,3.363l.584.532c2.2-4.445,4.371-23.17,3.259-29.359-3.132-17.446-15.748-19.29-28.3-19.29a35.7,35.7,0,0,0-15.127,3.462c-.965-.285-2.432-.625-2.407-.816-6.716.448-10.153,9.994-12.137,16.645-2.008,6.733,1.062,24.914,3.259,29.359l.021-.013A4.208,4.208,0,0,0,203.778,69.983Z" transform="translate(-161.303 -15.454)" fill="#995235"/>
        <path id="Trazado_144426" data-name="Trazado 144426" d="M210.278,34.784q.953.414,1.871.864a28.465,28.465,0,0,0,1.355-2.815s11.257,5.459,29.067,3.276c0,0,2.81,3.96,5.6,8.336a25.224,25.224,0,0,0,6.847-3.225c-4.059-14.417-15.833-16.03-27.558-16.03a35.7,35.7,0,0,0-15.127,3.462c-.965-.285-2.432-.625-2.407-.816a8.194,8.194,0,0,0-5.268,2.615l.062.08A14.454,14.454,0,0,0,210.278,34.784Z" transform="translate(-160.543 -15.454)" fill="#995235" opacity="0.35" style="mix-blend-mode: multiply;isolation: isolate"/>
        <path id="Trazado_144427" data-name="Trazado 144427" d="M256.783,25.469c0,6.128-10.059,3.548-23.213-3.871-12.893-7.271-19.3-.96-21.9,3.222a26.561,26.561,0,0,1,3.019-8.384c-6.681,3.145-6.233,8.58-5.347,11.594-2.382-.482-5.933-.6-8.707,1.873,0,0,6.811-1.07,9.321,1.083.325.278,1.378.77,1.5.882,7.051,7.76,14.019,11.531,28.539,10.48,8.024-.582,10.7-1.514,14.508-5.592C259.025,31.919,256.783,25.469,256.783,25.469Z" transform="translate(-160.995 -16.437)" fill="#995235"/>
        <path id="Trazado_144428" data-name="Trazado 144428" d="M238.645,40.771c7.559-.547,10.368-1.409,13.855-4.915a21.047,21.047,0,0,1-15.062-5.361c-.133,2,.868,4.672,3.537,7.742-6.407-1.068-12.1-3.07-17.439-7.341,1.068,2.136,2.156,5.673,3.224,6.741-3.313,0-12.131-3.861-14.114-4.749C218.933,38.87,225.86,41.7,238.645,40.771Z" transform="translate(-159.646 -14.858)" fill="#995235" opacity="0.5" style="mix-blend-mode: multiply;isolation: isolate"/>
        <path id="Trazado_144429" data-name="Trazado 144429" d="M240.457,61.482c0,2.72-2.526,4.924-5.642,4.924s-5.643-2.2-5.643-4.924,2.526-4.924,5.643-4.924S240.457,58.763,240.457,61.482Z" transform="translate(-157.79 -11.93)" fill="#fdfaee"/>
        <path id="Trazado_144430" data-name="Trazado 144430" d="M236.828,64.343a15.949,15.949,0,0,1-2.977.3,5.67,5.67,0,0,1-4.216-1.8,6,6,0,0,0,10.328-.138A7.137,7.137,0,0,1,236.828,64.343Z" transform="translate(-157.738 -11.24)" fill="#e78660"/>
        <g id="Grupo_72934" data-name="Grupo 72934" transform="translate(73.717 46.047)">
          <path id="Trazado_144431" data-name="Trazado 144431" d="M237.886,61.1a3.308,3.308,0,1,1-3.307-3.264A3.286,3.286,0,0,1,237.886,61.1Z" transform="translate(-231.271 -57.834)" fill="#633837"/>
          <path id="Trazado_144432" data-name="Trazado 144432" d="M236.457,60.968a2.01,2.01,0,1,1-2.009-1.982A2,2,0,0,1,236.457,60.968Z" transform="translate(-231.14 -57.705)" fill="#321413"/>
        </g>
        <path id="Trazado_144433" data-name="Trazado 144433" d="M209.409,61.482c0,2.72,2.526,4.924,5.642,4.924s5.643-2.2,5.643-4.924-2.526-4.924-5.643-4.924S209.409,58.763,209.409,61.482Z" transform="translate(-160.01 -11.93)" fill="#fdfaee"/>
        <path id="Trazado_144434" data-name="Trazado 144434" d="M212.941,64.343a15.949,15.949,0,0,0,2.977.3,5.67,5.67,0,0,0,4.216-1.8A6,6,0,0,1,209.8,62.7,7.13,7.13,0,0,0,212.941,64.343Z" transform="translate(-159.965 -11.24)" fill="#e78660"/>
        <g id="Grupo_72935" data-name="Grupo 72935" transform="translate(51.734 46.047)">
          <path id="Trazado_144435" data-name="Trazado 144435" d="M211.508,61.1a3.308,3.308,0,1,0,3.307-3.264A3.286,3.286,0,0,0,211.508,61.1Z" transform="translate(-211.508 -57.834)" fill="#633837"/>
          <path id="Trazado_144436" data-name="Trazado 144436" d="M212.675,60.968a2.01,2.01,0,1,0,2.009-1.982A2,2,0,0,0,212.675,60.968Z" transform="translate(-211.377 -57.705)" fill="#321413"/>
        </g>
        <g id="Grupo_72936" data-name="Grupo 72936" transform="translate(60.86 41.946)">
          <path id="Trazado_144437" data-name="Trazado 144437" d="M224.221,77.865a6.48,6.48,0,0,1-2.321-.432,3.158,3.158,0,0,1-2.179-2.267c-.234-1.374,4.081-20.29,4.066-20.372a.546.546,0,0,1,1.073-.2c.065.348-4.217,19.481-4.062,20.39a2.166,2.166,0,0,0,1.5,1.435,4.331,4.331,0,0,0,3.773-.14.546.546,0,0,1,.661.87A4.176,4.176,0,0,1,224.221,77.865Z" transform="translate(-219.712 -54.147)" fill="#ce7959"/>
        </g>
        <path id="Trazado_144438" data-name="Trazado 144438" d="M216.521,60.6a.649.649,0,1,1-.648-.65A.648.648,0,0,1,216.521,60.6Z" transform="translate(-159.356 -11.549)" fill="#fdfaee"/>
        <path id="Trazado_144439" data-name="Trazado 144439" d="M236.069,60.6a.648.648,0,1,1-.648-.65A.648.648,0,0,1,236.069,60.6Z" transform="translate(-157.161 -11.549)" fill="#fdfaee"/>
        <path id="Trazado_144440" data-name="Trazado 144440" d="M244.492,70.852c0,2.554-2.811,4.625-6.278,4.625s-6.279-2.071-6.279-4.625,2.811-4.625,6.279-4.625S244.492,68.3,244.492,70.852Z" transform="translate(-157.479 -10.844)" fill="url(#radial-gradient)"/>
        <path id="Trazado_144441" data-name="Trazado 144441" d="M205.873,70.852c0,2.554,2.811,4.625,6.278,4.625s6.279-2.071,6.279-4.625-2.811-4.625-6.279-4.625S205.873,68.3,205.873,70.852Z" transform="translate(-160.407 -10.844)" fill="url(#radial-gradient-2)"/>
        <path id="Trazado_144442" data-name="Trazado 144442" d="M203.491,56.171a17.833,17.833,0,0,1-5.118-.951c.756,6.443,2.192,12.845,3.379,15.246l.021-.013a4.208,4.208,0,0,0,1.951-3.842C203.485,62.808,203.433,59.307,203.491,56.171Z" transform="translate(-161.249 -12.081)" fill="#995235" opacity="0.35" style="mix-blend-mode: multiply;isolation: isolate"/>
        <path id="Trazado_144443" data-name="Trazado 144443" d="M245.968,56.545c.1,3.5.093,7.1-.048,10.131a4.271,4.271,0,0,0,1.364,3.363l.584.532c1.236-2.5,2.462-9.517,3.1-16.28A15.459,15.459,0,0,1,245.968,56.545Z" transform="translate(-155.909 -12.185)" fill="#995235" opacity="0.35" style="mix-blend-mode: multiply;isolation: isolate"/>
        <g id="Grupo_72937" data-name="Grupo 72937" transform="translate(58.975 67.664)">
          <path id="Trazado_144444" data-name="Trazado 144444" d="M227.918,79.954a1.076,1.076,0,0,1-.2-.018c-5.445-.964-8.2-.053-8.228-.046a1.112,1.112,0,0,1-.743-2.1c.13-.047,3.255-1.128,9.36-.048a1.113,1.113,0,0,1-.194,2.208Z" transform="translate(-218.017 -77.268)" fill="#ce7959"/>
        </g>
        <g id="Grupo_72938" data-name="Grupo 72938" transform="translate(61.388 71.121)">
          <path id="Trazado_144445" data-name="Trazado 144445" d="M225.957,82.364a.547.547,0,0,1-.314-.1,4.274,4.274,0,0,0-4.594-.172.556.556,0,1,1-.611-.93,5.334,5.334,0,0,1,5.834.186.556.556,0,0,1-.316,1.014Z" transform="translate(-220.187 -80.376)" fill="#ce7959"/>
        </g>
        <g id="Grupo_72939" data-name="Grupo 72939" transform="translate(61.185 38.074)">
          <path id="Trazado_144446" data-name="Trazado 144446" d="M220.56,56.844a.556.556,0,0,1-.365-.976c2.735-2.385,2.3-4.431,2.277-4.517a.556.556,0,0,1,1.079-.27c.029.112.66,2.763-2.625,5.626A.553.553,0,0,1,220.56,56.844Z" transform="translate(-220.004 -50.666)" fill="#ce7959"/>
        </g>
        <g id="Grupo_72940" data-name="Grupo 72940" transform="translate(66.719 38.07)">
          <path id="Trazado_144447" data-name="Trazado 144447" d="M228.036,56.844a.55.55,0,0,1-.365-.137c-3.285-2.863-2.653-5.514-2.624-5.626a.556.556,0,0,1,1.079.27c-.021.09-.455,2.136,2.276,4.517a.557.557,0,0,1-.366.976Z" transform="translate(-224.98 -50.663)" fill="#ce7959"/>
        </g>
        <path id="Trazado_144448" data-name="Trazado 144448" d="M221.3,55.2s-7.814-.3-9.691.385-5.771,3.037-5.569,4.24,6.287-.682,7.033-.5,8.172.368,8.794-.624C222.586,57.555,222.587,55.281,221.3,55.2Z" transform="translate(-160.388 -12.09)" fill="#884627"/>
        <path id="Trazado_144449" data-name="Trazado 144449" d="M229.07,55.2s7.814-.3,9.691.385,5.771,3.037,5.569,4.24-6.288-.682-7.033-.5-8.173.368-8.794-.624C227.786,57.555,227.784,55.281,229.07,55.2Z" transform="translate(-157.919 -12.09)" fill="#884627"/>
        <g id="Grupo_72941" data-name="Grupo 72941" transform="translate(54.213 52.883)">
          <path id="Trazado_144450" data-name="Trazado 144450" d="M214.124,66.73a.389.389,0,0,1-.027-.778,13.378,13.378,0,0,0,4.96-1.921.39.39,0,0,1,.388.676,13.784,13.784,0,0,1-5.295,2.022Z" transform="translate(-213.736 -63.98)" fill="#ce7959"/>
        </g>
        <g id="Grupo_72942" data-name="Grupo 72942" transform="translate(71.503 52.756)">
          <path id="Trazado_144451" data-name="Trazado 144451" d="M234.8,66.615h-.028a14.907,14.907,0,0,1-5.285-2.017.39.39,0,1,1,.372-.685,14.686,14.686,0,0,0,4.972,1.927.389.389,0,0,1-.031.776Z" transform="translate(-229.281 -63.865)" fill="#ce7959"/>
        </g>
      </g>
    </g>
  </g>
</svg>
