<svg xmlns="http://www.w3.org/2000/svg" xmlns:xlink="http://www.w3.org/1999/xlink" width="125.999" height="125.999" viewBox="0 0 125.999 125.999">
  <defs>
    <clipPath id="clip-path">
      <circle id="Elipse_4494" data-name="Elipse 4494" cx="63" cy="63" r="63" fill="none"/>
    </clipPath>
    <radialGradient id="radial-gradient" cx="0.5" cy="0.5" r="0.633" gradientTransform="translate(-0.208 0.072) scale(0.737 0.855)" gradientUnits="objectBoundingBox">
      <stop offset="0" stop-color="#f29788"/>
      <stop offset="0.612" stop-color="#f2a288"/>
      <stop offset="0.92" stop-color="#f2ab88"/>
    </radialGradient>
    <radialGradient id="radial-gradient-2" cx="0.5" cy="0.5" r="0.633" gradientTransform="matrix(-0.737, 0, 0, 0.855, -36.68, 0.072)" xlink:href="#radial-gradient"/>
  </defs>
  <g id="icon11" transform="translate(-163.938 -146.188)">
    <g id="Grupo_72919" data-name="Grupo 72919" transform="translate(163.938 146.189)" clip-path="url(#clip-path)">
      <g id="Grupo_72918" data-name="Grupo 72918" transform="translate(1.133 6.92)">
        <path id="Trazado_144350" data-name="Trazado 144350" d="M284.906,249.747c-3.5-7.341-26.918-4.2-36.357-8.041s-9.438-22.374-9.438-22.374H218.134s0,18.528-9.438,22.374-32.861.7-36.357,8.041S166.4,267.576,165,274.568H292.247C290.849,267.576,288.4,257.088,284.906,249.747Z" transform="translate(-164.998 -148.104)" fill="#f2ab88"/>
        <path id="Trazado_144351" data-name="Trazado 144351" d="M285.83,248.258c-3.193-6.671-22.927-4.683-33.627-7.149-9.205,4.775-16.868,6.461-23.1,6.524-6.23-.063-13.894-1.749-23.1-6.524-10.7,2.466-30.434.478-33.627,7.149-3.515,7.341-5.976,17.829-7.382,24.82H293.212C291.805,266.086,289.345,255.6,285.83,248.258Z" transform="translate(-164.998 -146.615)" fill="#33b5b7"/>
        <path id="Trazado_144352" data-name="Trazado 144352" d="M224.547,239.578c9.448,0,13.722-3.076,14.951-3.808-3.535-6.815-3.539-16.438-3.539-16.438H214.984s0,10.336-3.935,17.169C211.69,236.771,218.73,239.578,224.547,239.578Z" transform="translate(-161.848 -148.104)" fill="#dcb890" opacity="0.55" style="mix-blend-mode: multiply;isolation: isolate"/>
        <g id="Grupo_72911" data-name="Grupo 72911" transform="translate(31.89 48.882)">
          <path id="Trazado_144353" data-name="Trazado 144353" d="M195.87,199.935c3.45-4.675,11.272,2.939,11.272,2.939s4.857,5.673-.8,12.534c-2.828,3.43-6.093.837-8.278-3.239S193.41,203.269,195.87,199.935Z" transform="translate(-194.846 -198.417)" fill="#f2ab88"/>
          <path id="Trazado_144354" data-name="Trazado 144354" d="M200.662,212.379a3.261,3.261,0,0,0,2.875,1.184,1.144,1.144,0,0,0,.8-1.21c-.327-1.015-3.561-2.821-2.755-5.652.814-2.858-2.816-5.6-3.948-4.025C196.749,203.9,197.815,209.492,200.662,212.379Z" transform="translate(-194.676 -198.157)" fill="#db7a5b"/>
        </g>
        <g id="Grupo_72912" data-name="Grupo 72912" transform="translate(81.093 48.882)">
          <path id="Trazado_144355" data-name="Trazado 144355" d="M254.11,199.935c-3.45-4.675-11.272,2.939-11.272,2.939s-4.856,5.673.8,12.534c2.828,3.43,6.094.837,8.279-3.239S256.569,203.269,254.11,199.935Z" transform="translate(-240.899 -198.417)" fill="#f2ab88"/>
          <path id="Trazado_144356" data-name="Trazado 144356" d="M248.856,212.379a3.259,3.259,0,0,1-2.874,1.184,1.145,1.145,0,0,1-.8-1.21c.327-1.015,3.561-2.821,2.755-5.652-.813-2.858,2.817-5.6,3.949-4.025C252.769,203.9,251.7,209.492,248.856,212.379Z" transform="translate(-240.607 -198.157)" fill="#db7a5b"/>
        </g>
        <path id="Trazado_144357" data-name="Trazado 144357" d="M251.706,180.133c-.683-3.825-3.3-7.055-6.608-9.7a30.1,30.1,0,0,0-37.706,0c-3.311,2.645-5.925,5.875-6.608,9.7,0,0-1.622,30.057,5.875,41.581,5.808,8.927,13.12,13.77,19.586,13.77s13.778-4.843,19.586-13.77C253.328,210.19,251.706,180.133,251.706,180.133Z" transform="translate(-162.56 -151.903)" fill="#f2ab88"/>
        <path id="Trazado_144358" data-name="Trazado 144358" d="M203.546,204.443c-.827-13.146.587-22.915,1.344-24.078a29.4,29.4,0,0,0,8.727-11.606s10.812,5.244,27.92,3.146c0,0,3.18,4.48,6.06,9.09,1.394,2.23,2,15.075,1.609,23.41a4.1,4.1,0,0,0,1.31,3.23l.561.511c2.11-4.269,4.2-22.255,3.13-28.2-3.009-16.757-15.127-18.528-27.187-18.528a34.29,34.29,0,0,0-14.529,3.325c-.927-.273-2.336-.6-2.312-.784-6.451.431-9.752,9.6-11.657,15.988-1.928,6.467,1.02,23.93,3.13,28.2l.02-.013A4.042,4.042,0,0,0,203.546,204.443Z" transform="translate(-162.747 -152.066)" fill="#995235"/>
        <path id="Trazado_144359" data-name="Trazado 144359" d="M210.056,170.633q.915.4,1.8.83a27.35,27.35,0,0,0,1.3-2.7s10.812,5.244,27.92,3.146c0,0,2.7,3.8,5.376,8.007a24.228,24.228,0,0,0,6.577-3.1c-3.9-13.848-15.208-15.4-26.47-15.4a34.29,34.29,0,0,0-14.529,3.325c-.927-.273-2.336-.6-2.312-.784a7.871,7.871,0,0,0-5.06,2.512c.012.016.032.043.06.077A13.883,13.883,0,0,0,210.056,170.633Z" transform="translate(-162.285 -152.066)" fill="#995235" opacity="0.35" style="mix-blend-mode: multiply;isolation: isolate"/>
        <path id="Trazado_144360" data-name="Trazado 144360" d="M254.566,161.34c0,5.887-9.662,3.408-22.3-3.718-12.384-6.984-18.535-.922-21.035,3.1a25.512,25.512,0,0,1,2.9-8.053c-6.417,3.02-5.987,8.242-5.136,11.136-2.287-.462-5.7-.576-8.364,1.8,0,0,6.542-1.028,8.953,1.041.312.268,1.324.739,1.44.847,6.773,7.453,13.465,11.076,27.412,10.067,7.707-.559,10.274-1.454,13.935-5.371C256.72,167.537,254.566,161.34,254.566,161.34Z" transform="translate(-162.56 -152.665)" fill="#995235"/>
        <path id="Trazado_144361" data-name="Trazado 144361" d="M237.619,176.593c7.261-.526,9.959-1.354,13.308-4.721a20.216,20.216,0,0,1-14.467-5.15c-.128,1.923.833,4.487,3.4,7.436-6.154-1.026-11.622-2.949-16.751-7.052,1.026,2.051,2.071,5.449,3.1,6.475-3.182,0-11.652-3.708-13.557-4.561C218.685,174.767,225.339,177.482,237.619,176.593Z" transform="translate(-161.738 -151.703)" fill="#995235" opacity="0.5" style="mix-blend-mode: multiply;isolation: isolate"/>
        <g id="Grupo_72913" data-name="Grupo 72913" transform="translate(58.457 40.29)">
          <path id="Trazado_144362" data-name="Trazado 144362" d="M224.043,213.157a6.224,6.224,0,0,1-2.23-.415,3.033,3.033,0,0,1-2.093-2.177c-.224-1.319,3.92-19.489,3.905-19.568a.524.524,0,0,1,1.031-.193c.062.334-4.05,18.712-3.9,19.585a2.081,2.081,0,0,0,1.444,1.378,4.16,4.16,0,0,0,3.624-.135.525.525,0,0,1,.635.835A4.011,4.011,0,0,1,224.043,213.157Z" transform="translate(-219.712 -190.375)" fill="#ce7959"/>
        </g>
        <path id="Trazado_144363" data-name="Trazado 144363" d="M228.782,188.359s6.784-2.9,8.708-2.79,6.509,1.674,6.668,2.832-6.311.626-6.946,1-7.093,3.062-7.95,2.323C228.274,190.87,227.621,188.785,228.782,188.359Z" transform="translate(-160.677 -150.414)" fill="#884627"/>
        <path id="Trazado_144364" data-name="Trazado 144364" d="M220.927,189.1s-6.43-3.629-8.344-3.731-6.612.966-6.885,2.106,6.186,1.311,6.779,1.75,6.719,3.829,7.641,3.184C221.18,191.661,222.034,189.65,220.927,189.1Z" transform="translate(-162.214 -150.428)" fill="#884627"/>
        <g id="Grupo_72915" data-name="Grupo 72915" transform="translate(47.449 41.347)">
          <path id="Trazado_144365" data-name="Trazado 144365" d="M209.409,197.541a5.428,5.428,0,1,0,5.419-5.131A5.281,5.281,0,0,0,209.409,197.541Z" transform="translate(-209.409 -191.293)" fill="#fdfaee"/>
          <path id="Trazado_144366" data-name="Trazado 144366" d="M212.817,200.786a14.194,14.194,0,0,0,2.859.312,5.255,5.255,0,0,0,4.049-1.878,5.544,5.544,0,0,1-9.92-.144A6.686,6.686,0,0,0,212.817,200.786Z" transform="translate(-209.382 -190.838)" fill="#e78660"/>
          <g id="Grupo_72914" data-name="Grupo 72914" transform="translate(2.243 3.382)">
            <path id="Trazado_144367" data-name="Trazado 144367" d="M211.508,197.665a3.177,3.177,0,1,0,3.176-3.135A3.155,3.155,0,0,0,211.508,197.665Z" transform="translate(-211.508 -194.53)" fill="#633837"/>
            <path id="Trazado_144368" data-name="Trazado 144368" d="M212.675,197.586a1.93,1.93,0,1,0,1.93-1.9A1.917,1.917,0,0,0,212.675,197.586Z" transform="translate(-211.428 -194.451)" fill="#321413"/>
          </g>
          <path id="Trazado_144369" data-name="Trazado 144369" d="M214.526,193.253c-2-.034-3.9,1.12-5.1,4.128.128-2.726,1.17-5.723,5.371-6,4.052-.268,5.152,3.123,5.428,5.712C220.219,197.092,218.52,193.319,214.526,193.253Z" transform="translate(-209.408 -191.365)" fill="#e78660"/>
          <path id="Trazado_144370" data-name="Trazado 144370" d="M216.47,196.8a.623.623,0,1,1-.623-.624A.623.623,0,0,1,216.47,196.8Z" transform="translate(-209.011 -191.036)" fill="#fdfaee"/>
        </g>
        <g id="Grupo_72917" data-name="Grupo 72917" transform="translate(69.06 41.347)">
          <path id="Trazado_144371" data-name="Trazado 144371" d="M229.636,197.541a5.427,5.427,0,1,0,5.419-5.131A5.281,5.281,0,0,0,229.636,197.541Z" transform="translate(-229.636 -191.293)" fill="#fdfaee"/>
          <path id="Trazado_144372" data-name="Trazado 144372" d="M233.043,200.786a14.194,14.194,0,0,0,2.859.312,5.256,5.256,0,0,0,4.05-1.878,5.544,5.544,0,0,1-9.92-.144A6.688,6.688,0,0,0,233.043,200.786Z" transform="translate(-229.609 -190.838)" fill="#e78660"/>
          <g id="Grupo_72916" data-name="Grupo 72916" transform="translate(2.242 3.382)">
            <path id="Trazado_144373" data-name="Trazado 144373" d="M231.734,197.665a3.178,3.178,0,1,0,3.177-3.135A3.156,3.156,0,0,0,231.734,197.665Z" transform="translate(-231.734 -194.53)" fill="#633837"/>
            <path id="Trazado_144374" data-name="Trazado 144374" d="M232.9,197.586a1.93,1.93,0,1,0,1.93-1.9A1.917,1.917,0,0,0,232.9,197.586Z" transform="translate(-231.654 -194.451)" fill="#321413"/>
          </g>
          <path id="Trazado_144375" data-name="Trazado 144375" d="M234.753,193.253c-2-.034-3.9,1.12-5.106,4.128.129-2.726,1.17-5.723,5.371-6,4.054-.268,5.152,3.123,5.428,5.712C240.445,197.092,238.747,193.319,234.753,193.253Z" transform="translate(-229.635 -191.365)" fill="#e78660"/>
          <circle id="Elipse_4493" data-name="Elipse 4493" cx="0.623" cy="0.623" r="0.623" transform="translate(6.212 5.143)" fill="#fdfaee"/>
        </g>
        <path id="Trazado_144376" data-name="Trazado 144376" d="M244,206.9c0,2.453-2.7,4.442-6.03,4.442s-6.031-1.989-6.031-4.442,2.7-4.442,6.031-4.442S244,204.443,244,206.9Z" transform="translate(-160.419 -149.259)" fill="url(#radial-gradient)"/>
        <path id="Trazado_144377" data-name="Trazado 144377" d="M205.873,206.9c0,2.453,2.7,4.442,6.03,4.442s6.031-1.989,6.031-4.442-2.7-4.442-6.031-4.442S205.873,204.443,205.873,206.9Z" transform="translate(-162.202 -149.259)" fill="url(#radial-gradient-2)"/>
        <path id="Trazado_144378" data-name="Trazado 144378" d="M203.289,192.361a17.13,17.13,0,0,1-4.916-.913c.727,6.188,2.106,12.338,3.246,14.644l.02-.013a4.042,4.042,0,0,0,1.874-3.69C203.283,198.737,203.233,195.373,203.289,192.361Z" transform="translate(-162.715 -150.012)" fill="#995235" opacity="0.35" style="mix-blend-mode: multiply;isolation: isolate"/>
        <path id="Trazado_144379" data-name="Trazado 144379" d="M245.966,192.684c.1,3.363.09,6.818-.046,9.731a4.1,4.1,0,0,0,1.31,3.23l.561.511c1.187-2.4,2.364-9.141,2.978-15.637A14.849,14.849,0,0,1,245.966,192.684Z" transform="translate(-159.462 -150.075)" fill="#995235" opacity="0.35" style="mix-blend-mode: multiply;isolation: isolate"/>
        <path id="Trazado_144380" data-name="Trazado 144380" d="M221.558,224.421h4.8c2.754,0,4.041-2.172,4.064-4.926v-.048a6.466,6.466,0,0,0-12.931,0v.048C217.518,222.249,218.8,224.421,221.558,224.421Z" transform="translate(-161.407 -148.535)" fill="#e8936b"/>
        <path id="Trazado_144381" data-name="Trazado 144381" d="M221.888,223.595h4.149a4.385,4.385,0,0,0,4.432-4.254V219.3c0-3.061-2.914-5.542-6.508-5.542s-6.507,2.481-6.507,5.542v.042A4.385,4.385,0,0,0,221.888,223.595Z" transform="translate(-161.409 -148.486)" fill="#9f1818"/>
        <path id="Trazado_144382" data-name="Trazado 144382" d="M221.927,221.44a12.551,12.551,0,0,1-4.017-.68,4.445,4.445,0,0,0,3.947,2.394h4.149a4.428,4.428,0,0,0,4.189-2.969A19.065,19.065,0,0,1,221.927,221.44Z" transform="translate(-161.378 -148.046)" fill="#fdfaee"/>
        <path id="Trazado_144383" data-name="Trazado 144383" d="M223.908,213.757a6.689,6.689,0,0,0-5.665,2.878,24.751,24.751,0,0,0,11.421.131A6.67,6.67,0,0,0,223.908,213.757Z" transform="translate(-161.355 -148.486)" fill="#fdfaee"/>
      </g>
    </g>
  </g>
</svg>
