<svg xmlns="http://www.w3.org/2000/svg" width="820" height="456" viewBox="0 0 820 456">
  <g id="Grupo_76120" data-name="Grupo 76120" transform="translate(-2320 2860.813)">
    <path id="Trazado_148241" data-name="Trazado 148241" d="M0,0H820V456H0Z" transform="translate(2320 -2860.813)" fill="#f6f6f6"/>
    <path id="Trazado_148242" data-name="Trazado 148242" d="M0,0H284" transform="translate(2580.094 -2640.313)" fill="none" stroke="#707070" stroke-width="1"/>
    <path id="Trazado_148245" data-name="Trazado 148245" d="M0,0V263" transform="translate(2737.594 -2766.313)" fill="none" stroke="#707070" stroke-width="1"/>
    <path id="Trazado_148246" data-name="Trazado 148246" d="M50,0A50,50,0,1,1,0,50,50,50,0,0,1,50,0Z" transform="translate(2687.594 -2821.813)" fill="#81d4fa"/>
    <path id="Trazado_148247" data-name="Trazado 148247" d="M50,0A50,50,0,1,1,0,50,50,50,0,0,1,50,0Z" transform="translate(2687.594 -2542.813)" fill="#81d4fa"/>
    <path id="Trazado_148248" data-name="Trazado 148248" d="M50,0A50,50,0,1,1,0,50,50,50,0,0,1,50,0Z" transform="translate(2687.594 -2690.813)" fill="#81d4fa"/>
    <path id="Trazado_148243" data-name="Trazado 148243" d="M50,0A50,50,0,1,1,0,50,50,50,0,0,1,50,0Z" transform="translate(2536.594 -2690.813)" fill="#81d4fa"/>
    <path id="Trazado_148249" data-name="Trazado 148249" d="M50,0A50,50,0,1,1,0,50,50,50,0,0,1,50,0Z" transform="translate(2823.594 -2690.813)" fill="#81d4fa"/>
    <path id="Trazado_148250" data-name="Trazado 148250" d="M34.983,44H28.052V21.934l-6.809,1.989v-5.25l13.1-4.532h.636Z" transform="translate(2704.594 -2802.813)" fill="#12263f"/>
    <path id="Trazado_148244" data-name="Trazado 148244" d="M20.074,29.414,21.9,14.141H39.352v5.373H27.519l-.677,5.932a8.151,8.151,0,0,1,1.938-.762,8.842,8.842,0,0,1,2.348-.33,8.76,8.76,0,0,1,6.839,2.635q2.389,2.635,2.389,7.393a10.6,10.6,0,0,1-1.282,5.2,8.81,8.81,0,0,1-3.6,3.579A11.363,11.363,0,0,1,30,44.41a12.227,12.227,0,0,1-5.271-1.158,9.455,9.455,0,0,1-3.855-3.176A7.718,7.718,0,0,1,19.5,35.517h6.932a3.92,3.92,0,0,0,1.046,2.6,3.32,3.32,0,0,0,2.481.962q3.486,0,3.486-5.157,0-4.768-4.266-4.768a4.256,4.256,0,0,0-3.609,1.555Z" transform="translate(2553.594 -2667.813)" fill="#12263f"/>
    <path id="Trazado_148251" data-name="Trazado 148251" d="M25.98,26.179h3.261q3.876,0,3.876-3.794a3.281,3.281,0,0,0-.923-2.41,3.5,3.5,0,0,0-2.6-.933,3.746,3.746,0,0,0-2.389.8,2.44,2.44,0,0,0-1.015,1.989H19.274a7.075,7.075,0,0,1,1.313-4.2,8.667,8.667,0,0,1,3.64-2.881,12.446,12.446,0,0,1,5.117-1.036q4.983,0,7.834,2.276a7.567,7.567,0,0,1,2.851,6.255,6.307,6.307,0,0,1-1.179,3.64,8.4,8.4,0,0,1-3.435,2.779,8.028,8.028,0,0,1,3.732,2.615A6.886,6.886,0,0,1,40.5,35.612a7.7,7.7,0,0,1-3.076,6.4,12.769,12.769,0,0,1-8.08,2.4A13.242,13.242,0,0,1,23.9,43.292a8.531,8.531,0,0,1-3.8-3.1,8.051,8.051,0,0,1-1.292-4.5h6.952a3.112,3.112,0,0,0,1.107,2.379,3.91,3.91,0,0,0,2.728,1A4.1,4.1,0,0,0,32.5,38.063a3.393,3.393,0,0,0,1.087-2.594,3.967,3.967,0,0,0-1.128-3.2,4.715,4.715,0,0,0-3.117-.943H25.98Z" transform="translate(2707.594 -2667.813)" fill="#12263f"/>
    <path id="Trazado_148252" data-name="Trazado 148252" d="M40.5,44H19.664V39.488l9.6-10.09q3.548-4.04,3.548-6.419a4.465,4.465,0,0,0-.841-2.933,3,3,0,0,0-2.44-1,3.04,3.04,0,0,0-2.563,1.343,5.52,5.52,0,0,0-.984,3.353H19.049a9.806,9.806,0,0,1,1.374-5.076,9.635,9.635,0,0,1,3.814-3.64,11.331,11.331,0,0,1,5.455-1.312q4.84,0,7.455,2.235a7.98,7.98,0,0,1,2.615,6.419,9.321,9.321,0,0,1-.656,3.435,15.064,15.064,0,0,1-2.041,3.507,51.4,51.4,0,0,1-4.46,4.912l-3.855,4.45H40.5Z" transform="translate(2843.594 -2667.813)" fill="#12263f"/>
    <path id="Trazado_148253" data-name="Trazado 148253" d="M37.916,32.331h3.035v5.332H37.916V44H31V37.663H19.459l-.41-4.225L31,14.2v-.062h6.911Zm-12.284,0H31V23.144l-.431.7Z" transform="translate(2707.594 -2519.813)" fill="#12263f"/>
  </g>
</svg>
