<svg xmlns="http://www.w3.org/2000/svg" xmlns:xlink="http://www.w3.org/1999/xlink" width="642.042" height="386.844" viewBox="0 0 642.042 386.844">
  <defs>
    <clipPath id="clip-path">
      <path id="Trazado_147765" data-name="Trazado 147765" d="M1229.009,565.645l-2.112,322.9-194.134-.177c-59.192,7.577-7.2,12.85-15.993,12.85l-200.665-.735a22.433,22.433,0,0,1-22.433-22.433v-312.4a22.432,22.432,0,0,1,22.433-22.432h390.472A22.431,22.431,0,0,1,1229.009,565.645Z" transform="translate(-793.673 -543.213)" fill="none"/>
    </clipPath>
    <clipPath id="clip-path-2">
      <circle id="Elipse_4610" data-name="Elipse 4610" cx="39.649" cy="39.649" r="39.649" fill="none"/>
    </clipPath>
  </defs>
  <g id="Grupo_76119" data-name="Grupo 76119" transform="translate(-11225.406 -3798.676)">
    <g id="Grupo_75712" data-name="Grupo 75712" transform="translate(11489.784 4147.935)">
      <g id="Grupo_75708" data-name="Grupo 75708" transform="translate(4.156)">
        <path id="Rectángulo_33035" data-name="Rectángulo 33035" d="M11.558,0H163.1A13.425,13.425,0,0,1,176.53,13.425v8.5A13.425,13.425,0,0,1,163.1,35.352H11.558A11.558,11.558,0,0,1,0,23.794V11.558A11.558,11.558,0,0,1,11.558,0Z" transform="translate(100.06 2.235) rotate(-0.449)" fill="#fff" opacity="0.7"/>
        <path id="Rectángulo_33036" data-name="Rectángulo 33036" d="M5.1,0H9.124a0,0,0,0,1,0,0V18.912a0,0,0,0,1,0,0H5.1a5.1,5.1,0,0,1-5.1-5.1V5.1A5.1,5.1,0,0,1,5.1,0Z" transform="matrix(1, -0.008, 0.008, 1, 90.965, 10.039)" fill="#566cd2"/>
        <rect id="Rectángulo_33037" data-name="Rectángulo 33037" width="7.217" height="35.352" rx="2.741" transform="translate(315.867 0.057) rotate(-0.45)" fill="#566cd2"/>
        <rect id="Rectángulo_33038" data-name="Rectángulo 33038" width="9.223" height="50.488" transform="matrix(-0.008, -1, 1, -0.008, 270.07, 22.704)" fill="#566cd2"/>
        <path id="Rectángulo_33039" data-name="Rectángulo 33039" d="M0,0H16.89a6.484,6.484,0,0,1,6.484,6.484V10.59a6.484,6.484,0,0,1-6.484,6.484H0a0,0,0,0,1,0,0V0A0,0,0,0,1,0,0Z" transform="translate(273.214 9.614) rotate(-0.449)" fill="#566cd2"/>
        <path id="Trazado_147710" data-name="Trazado 147710" d="M1065.34,891.095l-91.047-.27,91.031-1.7Z" transform="translate(-974.293 -870.617)" fill="#121f54"/>
      </g>
      <path id="Rectángulo_33040" data-name="Rectángulo 33040" d="M7.4,0h39.3a7.4,7.4,0,0,1,7.4,7.4V21.221a7.4,7.4,0,0,1-7.4,7.4H7.4a7.4,7.4,0,0,1-7.4-7.4V7.4A7.4,7.4,0,0,1,7.4,0Z" transform="matrix(1, -0.008, 0.008, 1, 112.081, 5.927)" fill="#f7c45d"/>
      <path id="Rectángulo_33041" data-name="Rectángulo 33041" d="M1.717,0H2.805A1.717,1.717,0,0,1,4.522,1.717v25.19A1.717,1.717,0,0,1,2.8,28.624H1.718A1.718,1.718,0,0,1,0,26.907V1.717A1.717,1.717,0,0,1,1.717,0Z" transform="translate(166.268 4.821) rotate(-0.448)" fill="#566cd2"/>
      <rect id="Rectángulo_33042" data-name="Rectángulo 33042" width="103.977" height="4.612" transform="translate(168.771 16.367) rotate(-0.449)" fill="#566cd2"/>
      <path id="Rectángulo_33043" data-name="Rectángulo 33043" d="M.657,0H5.6a0,0,0,0,1,0,0V8.123a0,0,0,0,1,0,0H.657A.657.657,0,0,1,0,7.466V.657A.657.657,0,0,1,.657,0Z" transform="translate(90.623 15.535) rotate(-0.448)" fill="#566cd2"/>
      <path id="Rectángulo_33044" data-name="Rectángulo 33044" d="M.657,0H90.986a0,0,0,0,1,0,0V8.123a0,0,0,0,1,0,0H.657A.657.657,0,0,1,0,7.466V.657A.657.657,0,0,1,.657,0Z" transform="translate(0 16.22) rotate(-0.449)" fill="#566cd2" opacity="0.2"/>
      <g id="Grupo_75711" data-name="Grupo 75711" transform="translate(111.668 4.05)">
        <g id="Grupo_75709" data-name="Grupo 75709" transform="translate(0 1.191)">
          <rect id="Rectángulo_33045" data-name="Rectángulo 33045" width="0.983" height="9.504" transform="translate(0 0.008) rotate(-0.451)" fill="#566cd2"/>
        </g>
        <rect id="Rectángulo_33046" data-name="Rectángulo 33046" width="0.983" height="9.504" transform="translate(13.822 1.091) rotate(-0.452)" fill="#566cd2"/>
        <rect id="Rectángulo_33047" data-name="Rectángulo 33047" width="0.983" height="9.504" transform="translate(27.645 0.983) rotate(-0.452)" fill="#566cd2"/>
        <rect id="Rectángulo_33048" data-name="Rectángulo 33048" width="0.983" height="9.504" transform="translate(41.467 0.874) rotate(-0.452)" fill="#566cd2"/>
        <rect id="Rectángulo_33049" data-name="Rectángulo 33049" width="0.983" height="9.504" transform="translate(55.289 0.766) rotate(-0.451)" fill="#566cd2"/>
        <rect id="Rectángulo_33050" data-name="Rectángulo 33050" width="0.983" height="9.504" transform="translate(69.111 0.658) rotate(-0.452)" fill="#566cd2"/>
        <rect id="Rectángulo_33051" data-name="Rectángulo 33051" width="0.983" height="9.504" transform="translate(82.934 0.549) rotate(-0.452)" fill="#566cd2"/>
        <rect id="Rectángulo_33052" data-name="Rectángulo 33052" width="0.983" height="9.504" transform="matrix(1, -0.008, 0.008, 1, 96.756, 0.441)" fill="#566cd2"/>
        <rect id="Rectángulo_33053" data-name="Rectángulo 33053" width="0.983" height="9.504" transform="translate(110.578 0.333) rotate(-0.451)" fill="#566cd2"/>
        <rect id="Rectángulo_33054" data-name="Rectángulo 33054" width="0.983" height="9.504" transform="translate(124.401 0.224) rotate(-0.452)" fill="#566cd2"/>
        <rect id="Rectángulo_33055" data-name="Rectángulo 33055" width="0.983" height="9.504" transform="translate(138.223 0.116) rotate(-0.452)" fill="#566cd2"/>
        <g id="Grupo_75710" data-name="Grupo 75710" transform="translate(152.045)">
          <rect id="Rectángulo_33056" data-name="Rectángulo 33056" width="0.983" height="9.504" transform="translate(0 0.008) rotate(-0.451)" fill="#566cd2"/>
        </g>
      </g>
    </g>
    <path id="Rectángulo_33057" data-name="Rectángulo 33057" d="M0,0H54.109a0,0,0,0,1,0,0V1.661a5.246,5.246,0,0,1-5.246,5.246H5.246A5.246,5.246,0,0,1,0,1.661V0A0,0,0,0,1,0,0Z" transform="translate(11602.116 4175.052) rotate(-0.449)" fill="#f7c45d" opacity="0.5" style="mix-blend-mode: multiply;isolation: isolate"/>
    <g id="Grupo_75713" data-name="Grupo 75713" transform="translate(11770.043 4154.054)">
      <rect id="Rectángulo_33058" data-name="Rectángulo 33058" width="0.983" height="20.219" transform="matrix(1, -0.008, 0.008, 1, 0, 0.008)" fill="#fff"/>
    </g>
    <g id="Grupo_75716" data-name="Grupo 75716" transform="translate(11413.576 3828.155)">
      <g id="Grupo_75715" data-name="Grupo 75715" transform="translate(58.401 40.899)">
        <path id="Trazado_147711" data-name="Trazado 147711" d="M1098.081,652.423a.98.98,0,0,1-.69-.283c-45.025-44.384-71.25-64.092-107.659-63.521l-36.779.573a.983.983,0,1,1-.031-1.966l36.78-.573c.523-.007,1.045-.012,1.564-.012,36.3,0,62.715,19.947,107.506,64.1a.983.983,0,0,1-.69,1.683Z" transform="translate(-951.954 -586.641)" fill="#b8b9f1"/>
      </g>
      <path id="Trazado_147712" data-name="Trazado 147712" d="M917.4,577.943A62.049,62.049,0,0,1,944.538,584c3.858,1.955,5.049,3.745,4.909,4.471-.028.142-.862,3.5-17.286,4.932-3.54.309-6.972.465-10.2.465-15.192,0-23.646-3.415-26.271-6.338a3.876,3.876,0,0,1-1.143-3.05,2.536,2.536,0,0,1,1.407-1.777c5.472-3.069,13.089-4.759,21.446-4.759Zm0-1.966c-8.306,0-16.31,1.591-22.407,5.011-3.236,1.815-3.011,5.351-.765,7.854,3.119,3.474,12.184,6.991,27.734,6.991,3.183,0,6.637-.148,10.368-.473,24.419-2.128,21.335-8.942,13.094-13.116-7.992-4.049-18.218-6.268-28.024-6.268Z" transform="translate(-892.552 -545.562)" fill="#b8b9f1"/>
      <path id="Trazado_147713" data-name="Trazado 147713" d="M931.688,548.5c13.249.772,29.612,14.294,35.758,29.529.919,2.278.943,4.418.061,5.724a3.619,3.619,0,0,1-3.226,1.394c-3.082,0-7.5-1.987-12.426-5.594-17.52-12.819-20.1-21.652-21.981-28.1a2.962,2.962,0,0,1,.669-2.135,1.774,1.774,0,0,1,1.145-.816Zm0-1.966c-2.37,0-4.3,3.406-3.7,5.469,2.2,7.536,5.435,16.5,22.708,29.137,5.872,4.3,10.392,5.974,13.587,5.974,5.4,0,7.017-4.793,4.989-9.82-6.093-15.1-22.606-29.89-37.439-30.756-.048,0-.1,0-.144,0Z" transform="translate(-893.147 -545.066)" fill="#b8b9f1"/>
      <path id="Trazado_147714" data-name="Trazado 147714" d="M972.537,547.007a6.976,6.976,0,0,1,1.007.09c13.015,1.945,27.732,16.877,32.137,32.607.636,2.273.45,4.377-.5,5.628a3.422,3.422,0,0,1-2.9,1.263c-1.793,0-5.769-.87-12.255-6.7-16.326-14.677-18.31-24.731-18.382-31.018-.017-1.443.293-1.773.3-1.776a1.134,1.134,0,0,1,.595-.094Zm0-1.966c-1.721,0-2.891.791-2.857,3.859.09,7.831,3.295,18.308,19.034,32.457,5.785,5.2,10.341,7.206,13.57,7.206,4.808,0,6.677-4.441,5.291-9.388-4.371-15.608-19.115-31.836-33.74-34.021a8.826,8.826,0,0,0-1.3-.112Z" transform="translate(-893.851 -545.041)" fill="#b8b9f1"/>
      <path id="Trazado_147715" data-name="Trazado 147715" d="M1028.093,557.048a2.14,2.14,0,0,1,.818.165c13.344,5.474,24.883,25.255,25.2,43.2a5.2,5.2,0,0,1-1.044,3.7,2.5,2.5,0,0,1-1.888.7c-3.146,0-8.884-3.474-15.551-13.225-11.411-16.69-11.1-22.786-9.482-32.976a1.942,1.942,0,0,1,1.951-1.561Zm0-1.966a3.915,3.915,0,0,0-3.892,3.219c-1.751,11.034-1.593,17.73,9.8,34.395,6.782,9.92,13.061,14.082,17.174,14.082,3.1,0,4.969-2.362,4.9-6.4-.31-17.747-11.475-38.852-26.414-44.981a4.124,4.124,0,0,0-1.565-.312Z" transform="translate(-894.756 -545.21)" fill="#b8b9f1"/>
      <path id="Trazado_147716" data-name="Trazado 147716" d="M979.119,589.161c2.492,0,4.319.78,4.766,2.034.675,1.895-1.121,5.976-8.188,11.749-16.609,13.568-28.151,14.975-36.578,16a2.021,2.021,0,0,1-.254.016,1.678,1.678,0,0,1-1.323-.589.817.817,0,0,1-.162-.756c3.109-11.59,20.92-24.483,38.894-28.154a14.321,14.321,0,0,1,2.845-.3Zm0-1.966a16.227,16.227,0,0,0-3.239.343c-17.724,3.62-36.9,16.517-40.4,29.57-.536,2,1.182,3.821,3.385,3.821a3.977,3.977,0,0,0,.492-.031c8.7-1.061,20.658-2.605,37.584-16.431,13.631-11.136,9.717-17.272,2.178-17.272Z" transform="translate(-893.273 -545.751)" fill="#b8b9f1"/>
    </g>
    <path id="Trazado_147717" data-name="Trazado 147717" d="M703.748,901.661c-13.914-40.429,29.912-90.544,91.248-107.6,59.409-16.518,44.182-77,93.507-126.849,54.96-55.551,255.078-99.533,320.791,34.071,24,48.8,55.4,46.509,90.173,100.582,38.43,59.766,3.548,100.53,3.548,100.53Z" transform="translate(10524.248 3281.965)" fill="#dcdff7"/>
    <path id="Trazado_147718" data-name="Trazado 147718" d="M1017.865,594.007c1.1,0,3.055.214,3.706,1.649.4.882,1.158,4.392-5.931,12.516-13.823,15.839-24.969,18.992-33.108,21.294a2.063,2.063,0,0,1-.555.078,1.729,1.729,0,0,1-1.258-.5.829.829,0,0,1-.252-.663c.854-11.811,15.988-27.156,33.047-33.508a12.729,12.729,0,0,1,4.351-.864Zm0-1.966a14.679,14.679,0,0,0-5.038.987c-16.85,6.276-33.357,21.871-34.322,35.209a3.26,3.26,0,0,0,3.472,3.273,3.985,3.985,0,0,0,1.091-.152c8.41-2.379,19.948-5.732,34.054-21.893,10.363-11.875,7.068-17.423.743-17.423Z" transform="translate(10519.576 3282.322)" fill="#b8b9f1"/>
    <g id="Grupo_75724" data-name="Grupo 75724" transform="translate(11726.229 3920.255)">
      <g id="Grupo_75719" data-name="Grupo 75719">
        <path id="Trazado_147719" data-name="Trazado 147719" d="M1229.026,840.4c48.392-33.066,72.021-69.786,93.8-123.775,4.75-11.772,8.786-24.137,8.538-36.861s-5.406-25.976-15.945-33.472c-16.71-11.885-41.337-5.209-55.4,9.288s-20.154,34.613-25.8,53.936c-14.63,50.09-25.556,78.275-21.212,130.452Z" transform="translate(-1210.588 -638.743)" fill="#fff"/>
        <g id="Grupo_75718" data-name="Grupo 75718">
          <path id="Trazado_147720" data-name="Trazado 147720" d="M1229.745,841.645A250.911,250.911,0,0,0,1265.853,812a217.746,217.746,0,0,0,27.184-33.366,291.488,291.488,0,0,0,21.493-39.1c3.375-7.308,6.533-14.716,9.549-22.179,3.628-8.977,6.836-18.2,8.135-27.837,2.156-15.994-1.875-33.82-15.322-43.975-12.141-9.17-28.7-8.257-41.983-2.207-15.035,6.847-25.008,20.406-31.59,35.156a200.158,200.158,0,0,0-8.592,24.014c-2.677,8.9-5.269,17.828-7.922,26.735-4.657,15.632-9.3,31.315-12.346,47.357a224.377,224.377,0,0,0-3.77,49.277c.154,4.695.442,9.384.828,14.066.155,1.879,3.107,1.9,2.949,0a234.72,234.72,0,0,1,.936-50.927c2.086-15.349,5.935-30.374,10.207-45.241,2.4-8.366,4.929-16.7,7.407-25.042,2.491-8.388,4.828-16.831,7.62-25.126,5.115-15.192,12.207-30.995,25.061-41.222,11.01-8.759,26.686-13.526,40.433-9.123,14.935,4.782,22.949,20.08,23.687,35.007.465,9.4-1.62,18.715-4.579,27.584-2.709,8.118-6.1,16.031-9.518,23.87a327.682,327.682,0,0,1-20.124,39.393,219.755,219.755,0,0,1-24.954,33.584,229.5,229.5,0,0,1-32.887,29.631q-4.678,3.483-9.5,6.772c-1.557,1.066-.084,3.623,1.488,2.547Z" transform="translate(-1210.563 -638.719)" fill="#b8b9f1"/>
        </g>
      </g>
      <g id="Grupo_75720" data-name="Grupo 75720" transform="translate(29.085 128.805)">
        <path id="Trazado_147721" data-name="Trazado 147721" d="M1242.782,794.184a1.474,1.474,0,0,1-1.472-1.394l-1.162-21.506a1.475,1.475,0,0,1,2.947-.159l1.161,21.5a1.476,1.476,0,0,1-1.393,1.553Z" transform="translate(-1240.146 -769.731)" fill="#b8b9f1"/>
      </g>
      <g id="Grupo_75721" data-name="Grupo 75721" transform="translate(59.365 55.696)">
        <path id="Trazado_147722" data-name="Trazado 147722" d="M1275.31,727.8a1.474,1.474,0,0,1-1.466-1.33l-2.892-29.478a1.475,1.475,0,0,1,2.937-.288l2.891,29.478a1.477,1.477,0,0,1-1.324,1.612A1.441,1.441,0,0,1,1275.31,727.8Z" transform="translate(-1270.945 -695.369)" fill="#b8b9f1"/>
      </g>
      <g id="Grupo_75722" data-name="Grupo 75722" transform="translate(52.637 86.492)">
        <path id="Trazado_147723" data-name="Trazado 147723" d="M1265.578,749.415a1.475,1.475,0,0,1-.859-2.675l27.694-19.772a1.475,1.475,0,0,1,1.716,2.4l-27.694,19.772A1.471,1.471,0,0,1,1265.578,749.415Z" transform="translate(-1264.101 -726.693)" fill="#b8b9f1"/>
      </g>
      <g id="Grupo_75723" data-name="Grupo 75723" transform="translate(8.565 34.983)">
        <path id="Trazado_147724" data-name="Trazado 147724" d="M1220.748,829.057a1.475,1.475,0,0,1-1.142-2.406c28.592-35.109,73.552-150.252,74-151.41a1.475,1.475,0,1,1,2.75,1.07c-.453,1.162-45.582,116.737-74.464,152.2A1.471,1.471,0,0,1,1220.748,829.057Z" transform="translate(-1219.274 -674.301)" fill="#b8b9f1"/>
      </g>
    </g>
    <g id="Grupo_75728" data-name="Grupo 75728" transform="translate(11709.928 4025.11)">
      <path id="Trazado_147725" data-name="Trazado 147725" d="M1346.59,760.658c-5.991-9.045-17.065-14.031-28-15.06-23.218-2.187-45.276,11.646-58.974,29.8s-20.656,40.234-27.781,61.741-21.369,21.8-36.355,38.96l16.292,22.747c27.178-8.2,50.352-25.475,75.122-38.99s47.032-32.828,58.811-58.024C1351.771,788.863,1354.625,772.789,1346.59,760.658Z" transform="translate(-1194.006 -745.37)" fill="#f7c45d"/>
      <g id="Grupo_75725" data-name="Grupo 75725" transform="translate(0 32.322)">
        <path id="Trazado_147726" data-name="Trazado 147726" d="M1207.208,884.05a17.5,17.5,0,0,1-2.458-.169,15.087,15.087,0,0,1-10.559-6.466,1.475,1.475,0,0,1,2.53-1.517,12.117,12.117,0,0,0,8.5,5.071c6.939.941,15.733-3.351,25.419-12.405,23.261-21.741,82.548-86.106,85.74-89.806a1.475,1.475,0,1,1,2.234,1.926c-3.2,3.711-62.635,68.235-85.959,90.035C1223.183,879.577,1214.635,884.05,1207.208,884.05Z" transform="translate(-1193.981 -778.246)" fill="#fff"/>
      </g>
      <g id="Grupo_75726" data-name="Grupo 75726" transform="translate(92.429 34.066)">
        <path id="Trazado_147727" data-name="Trazado 147727" d="M1289.47,813.265a1.483,1.483,0,0,1-1.475-1.519l.9-30.292a1.454,1.454,0,0,1,1.518-1.43,1.474,1.474,0,0,1,1.429,1.518l-.9,30.292A1.474,1.474,0,0,1,1289.47,813.265Z" transform="translate(-1287.994 -780.02)" fill="#fff"/>
      </g>
      <g id="Grupo_75727" data-name="Grupo 75727" transform="translate(68.938 76.951)">
        <path id="Trazado_147728" data-name="Trazado 147728" d="M1265.577,838.845a1.475,1.475,0,0,1-.512-2.858l33.132-12.256a1.475,1.475,0,1,1,1.023,2.768l-33.132,12.256A1.483,1.483,0,0,1,1265.577,838.845Z" transform="translate(-1264.101 -823.639)" fill="#fff"/>
      </g>
    </g>
    <g id="Grupo_75730" data-name="Grupo 75730" transform="translate(11381.774 3921.602)">
      <rect id="Rectángulo_33059" data-name="Rectángulo 33059" width="352.192" height="249.978" rx="16.316" transform="translate(6.391 6.39)" fill="#566cd2"/>
      <path id="Trazado_147729" data-name="Trazado 147729" d="M1202.748,652.87a9.662,9.662,0,0,1,9.651,9.651V880.415a9.662,9.662,0,0,1-9.651,9.651H882.638a9.662,9.662,0,0,1-9.651-9.651V662.521a9.662,9.662,0,0,1,9.651-9.651Zm0-12.781H882.638a22.432,22.432,0,0,0-22.432,22.432V880.415a22.432,22.432,0,0,0,22.432,22.432h320.11a22.431,22.431,0,0,0,22.432-22.432V662.521a22.432,22.432,0,0,0-22.432-22.432Z" transform="translate(-860.206 -640.089)" fill="#b8b9f1"/>
    </g>
    <g id="Grupo_75760" data-name="Grupo 75760" transform="translate(11316.362 3826.358)">
      <g id="Grupo_75759" data-name="Grupo 75759" clip-path="url(#clip-path)">
        <g id="Grupo_75758" data-name="Grupo 75758" transform="translate(27.115 39.122)">
          <g id="Grupo_75731" data-name="Grupo 75731" transform="translate(214.719 194.842)">
            <path id="Trazado_147730" data-name="Trazado 147730" d="M1073.2,1078.687l.723,6.9h-34.271s7.672-6.354,14.589-6.886Z" transform="translate(-1039.651 -786.198)" fill="#2748b3"/>
            <path id="Trazado_147731" data-name="Trazado 147731" d="M1071.695,781.509c19.552.75,38.573-1.562,58.1,1.034,1.194.158,2.385.329,3.578.495-.25,2.2-.572,4.438-1.04,6.773-7.655,38.138-10.919,88.5-21.536,109.353-10.546,20.715-26.584,28.741-23.943,33.135,18.151,30.2-5.134,86.352-13.815,141.376l-16.271.01-11.124-140.619a88.865,88.865,0,0,1,.131-15.657c2.289-19.1,11.983-69.5,15.791-90.872,3.735-20.956,8.783-31.507,7.559-45.352A15.7,15.7,0,0,0,1071.695,781.509Z" transform="translate(-1039.747 -781.186)" fill="#121f54"/>
          </g>
          <g id="Grupo_75733" data-name="Grupo 75733" transform="translate(266.21 188.991)">
            <path id="Trazado_147732" data-name="Trazado 147732" d="M1143.4,1078.687l.723,6.9h-34.27s7.672-6.354,14.588-6.886Z" transform="translate(-1092.324 -780.347)" fill="#2748b3"/>
            <path id="Trazado_147733" data-name="Trazado 147733" d="M1125.59,775.452c15.921,2.117,17.844,5.719,33.832,6.261,4.776,12.357,12.3,25.932,12.129,41.249-.294,26.7-10.655,37.9-13.844,86-.935,14.093-6.048,29.011-6.08,33.807-.03,4.455,2.587,12.38,4.6,21.262,8.412,37.145-6.657,77.835-13.193,109.541l-15.071.01s-13.64-74.116-16.375-105.241c0,0-12.271-114.568-19.2-161.583-1.228-8.328.82-16.677,3.636-25.415C1107.51,781.095,1113.962,773.907,1125.59,775.452Z" transform="translate(-1092.024 -775.235)" fill="#121f54"/>
            <g id="Grupo_75732" data-name="Grupo 75732" transform="translate(1.953 66.697)">
              <path id="Trazado_147734" data-name="Trazado 147734" d="M1112.4,977.863a.737.737,0,0,1-.729-.64l-17.658-133.313a.737.737,0,1,1,1.461-.194l17.657,133.312a.737.737,0,0,1-.634.828A.645.645,0,0,1,1112.4,977.863Z" transform="translate(-1094.01 -843.075)" fill="#fff"/>
            </g>
          </g>
          <path id="Trazado_147735" data-name="Trazado 147735" d="M1085.855,651.994c1.066-.377-14.257,7.438-20.863,25.843s-32.489,46.315-32.489,46.315L963.53,705.208l-11.1,21.7s73.8,43.736,86.1,44.759,49.581-76.155,50.525-75.554S1085.855,651.994,1085.855,651.994Z" transform="translate(-823.463 -584.168)" fill="#fff"/>
          <g id="Grupo_75739" data-name="Grupo 75739" transform="translate(0 68.619)">
            <g id="Grupo_75734" data-name="Grupo 75734">
              <path id="Trazado_147736" data-name="Trazado 147736" d="M920.929,653.8l132.579,0V791.895s16.955,94.6-49.672,98.672c-44.761,2.739-50.9,13.27-50.9,13.27l-129.94-.388s24.1-41.237,55.679-41.237c34.909,0,41.824-1.352,41.824-1.352Z" transform="translate(-821.282 -652.817)" fill="#fff"/>
              <path id="Trazado_147737" data-name="Trazado 147737" d="M952.9,904.8l-131.646-.393.861-1.475c1-1.7,24.747-41.724,56.527-41.724,28.293,0,38.213-.9,40.844-1.223l.433-207.186,134.544,0V791.793c.42,2.467,8.707,53.346-13.3,81.339-8.832,11.235-21.381,17.425-37.3,18.4-43.288,2.648-50.06,12.7-50.123,12.8l-.29.462Zm-128.174-2.35,127.686.381c1.823-2.184,11.474-10.828,51.334-13.266,15.334-.938,27.4-6.876,35.871-17.652,21.9-27.864,12.986-79.349,12.894-79.866l-.016-.174V654.766l-130.615,0-.433,206.884-.793.155c-.286.055-7.407,1.37-42.013,1.37C851.361,863.177,829.392,895.143,824.726,902.453Z" transform="translate(-821.253 -652.8)" fill="#b8b9f1"/>
            </g>
            <g id="Grupo_75738" data-name="Grupo 75738" transform="translate(49.132 17.45)">
              <g id="Grupo_75736" data-name="Grupo 75736" transform="translate(0 198.498)">
                <path id="Trazado_147738" data-name="Trazado 147738" d="M872.384,880.153a2.48,2.48,0,0,1,3.113-1.762c-.838,1.359.134,3.246,1.565,3.952a8.694,8.694,0,0,0,4.705.415l9.645-.934A151.433,151.433,0,0,1,879.587,894.3c-1.673,1.575-4.182,3.188-6.057,1.86-1.554-1.1-1.359-3.618-.144-5.085s3.087-2.181,4.831-2.947a45.782,45.782,0,0,0,18.264-14.571,6.157,6.157,0,1,0,2.638,12.022Z" transform="translate(-871.247 -872.466)" fill="#fff"/>
                <g id="Grupo_75735" data-name="Grupo 75735">
                  <path id="Trazado_147739" data-name="Trazado 147739" d="M873.431,880.428a1.385,1.385,0,0,1,1.752-.989l-.662-1.625c-1.583,3.066,1.295,5.776,4.221,6.1a29.1,29.1,0,0,0,5.9-.345l6.751-.654q-.392-.944-.783-1.889-4.06,4.787-8.491,9.238c-1.052,1.054-7.268,8-8.515,4.2-1.125-3.431,4.258-4.943,6.425-5.979a46.894,46.894,0,0,0,9.027-5.69,47.376,47.376,0,0,0,8.36-8.694c.625-.835-.4-1.81-1.249-1.625a7.262,7.262,0,1,0,3.226,14.155c1.39-.307.8-2.44-.588-2.133a5.053,5.053,0,1,1-2.05-9.889l-1.25-1.625a44.61,44.61,0,0,1-8.9,8.931,63.915,63.915,0,0,1-10.9,6.106c-2.82,1.368-5.831,4.638-3.835,7.944,2.281,3.779,6.789.709,8.983-1.376a153.513,153.513,0,0,0,11.318-12c.552-.651.26-1.989-.782-1.888q-4.7.456-9.4.91a10.2,10.2,0,0,1-3.918-.065c-1.017-.312-2.237-1.458-1.64-2.614a1.121,1.121,0,0,0-.661-1.625,3.641,3.641,0,0,0-4.473,2.535,1.107,1.107,0,0,0,2.133.588Z" transform="translate(-871.227 -872.448)" fill="#b8b9f1"/>
                </g>
              </g>
              <rect id="Rectángulo_33060" data-name="Rectángulo 33060" width="23.473" height="2.561" transform="translate(63.454)" fill="#b8b9f1"/>
              <rect id="Rectángulo_33061" data-name="Rectángulo 33061" width="23.473" height="2.561" transform="translate(148.171)" fill="#b8b9f1"/>
              <rect id="Rectángulo_33062" data-name="Rectángulo 33062" width="23.473" height="2.561" transform="translate(120.216 11.594)" fill="#b8b9f1"/>
              <rect id="Rectángulo_33063" data-name="Rectángulo 33063" width="20.059" height="2.561" transform="translate(151.585 11.594)" fill="#b8b9f1"/>
              <rect id="Rectángulo_33064" data-name="Rectángulo 33064" width="46.405" height="2.561" transform="translate(95.436)" fill="#b8b9f1"/>
              <rect id="Rectángulo_33065" data-name="Rectángulo 33065" width="46.405" height="2.561" transform="translate(63.725 11.594)" fill="#b8b9f1"/>
              <rect id="Rectángulo_33066" data-name="Rectángulo 33066" width="23.473" height="2.561" transform="translate(63.454 26.318)" fill="#b8b9f1"/>
              <rect id="Rectángulo_33067" data-name="Rectángulo 33067" width="23.473" height="2.561" transform="translate(148.171 26.318)" fill="#b8b9f1"/>
              <rect id="Rectángulo_33068" data-name="Rectángulo 33068" width="23.473" height="2.561" transform="translate(120.216 37.913)" fill="#b8b9f1"/>
              <rect id="Rectángulo_33069" data-name="Rectángulo 33069" width="20.059" height="2.561" transform="translate(151.585 37.913)" fill="#b8b9f1"/>
              <rect id="Rectángulo_33070" data-name="Rectángulo 33070" width="46.405" height="2.561" transform="translate(95.436 26.318)" fill="#b8b9f1"/>
              <rect id="Rectángulo_33071" data-name="Rectángulo 33071" width="46.405" height="2.561" transform="translate(63.725 37.913)" fill="#b8b9f1"/>
              <rect id="Rectángulo_33072" data-name="Rectángulo 33072" width="23.473" height="2.561" transform="translate(63.454 52.637)" fill="#b8b9f1"/>
              <rect id="Rectángulo_33073" data-name="Rectángulo 33073" width="23.473" height="2.561" transform="translate(148.171 52.637)" fill="#b8b9f1"/>
              <rect id="Rectángulo_33074" data-name="Rectángulo 33074" width="23.473" height="2.561" transform="translate(120.216 64.231)" fill="#b8b9f1"/>
              <rect id="Rectángulo_33075" data-name="Rectángulo 33075" width="20.059" height="2.561" transform="translate(151.585 64.231)" fill="#b8b9f1"/>
              <rect id="Rectángulo_33076" data-name="Rectángulo 33076" width="46.405" height="2.561" transform="translate(95.436 52.637)" fill="#b8b9f1"/>
              <rect id="Rectángulo_33077" data-name="Rectángulo 33077" width="46.405" height="2.561" transform="translate(63.725 64.231)" fill="#b8b9f1"/>
              <rect id="Rectángulo_33078" data-name="Rectángulo 33078" width="23.473" height="2.561" transform="translate(63.454 78.955)" fill="#b8b9f1"/>
              <rect id="Rectángulo_33079" data-name="Rectángulo 33079" width="23.473" height="2.561" transform="translate(148.171 78.955)" fill="#b8b9f1"/>
              <rect id="Rectángulo_33080" data-name="Rectángulo 33080" width="23.473" height="2.561" transform="translate(120.216 90.55)" fill="#b8b9f1"/>
              <rect id="Rectángulo_33081" data-name="Rectángulo 33081" width="20.059" height="2.561" transform="translate(151.585 90.55)" fill="#b8b9f1"/>
              <rect id="Rectángulo_33082" data-name="Rectángulo 33082" width="46.405" height="2.561" transform="translate(95.436 78.955)" fill="#b8b9f1"/>
              <rect id="Rectángulo_33083" data-name="Rectángulo 33083" width="46.405" height="2.561" transform="translate(63.725 90.55)" fill="#b8b9f1"/>
              <rect id="Rectángulo_33084" data-name="Rectángulo 33084" width="23.473" height="2.561" transform="translate(63.454 105.274)" fill="#b8b9f1"/>
              <rect id="Rectángulo_33085" data-name="Rectángulo 33085" width="23.473" height="2.561" transform="translate(148.171 105.274)" fill="#b8b9f1"/>
              <rect id="Rectángulo_33086" data-name="Rectángulo 33086" width="23.473" height="2.561" transform="translate(120.216 116.868)" fill="#b8b9f1"/>
              <rect id="Rectángulo_33087" data-name="Rectángulo 33087" width="20.059" height="2.561" transform="translate(151.585 116.868)" fill="#b8b9f1"/>
              <rect id="Rectángulo_33088" data-name="Rectángulo 33088" width="46.405" height="2.561" transform="translate(95.436 105.274)" fill="#b8b9f1"/>
              <rect id="Rectángulo_33089" data-name="Rectángulo 33089" width="46.405" height="2.561" transform="translate(63.725 116.868)" fill="#b8b9f1"/>
              <rect id="Rectángulo_33090" data-name="Rectángulo 33090" width="23.473" height="2.561" transform="translate(63.454 131.592)" fill="#b8b9f1"/>
              <rect id="Rectángulo_33091" data-name="Rectángulo 33091" width="23.473" height="2.561" transform="translate(148.171 131.592)" fill="#b8b9f1"/>
              <rect id="Rectángulo_33092" data-name="Rectángulo 33092" width="23.473" height="2.561" transform="translate(120.216 143.187)" fill="#b8b9f1"/>
              <rect id="Rectángulo_33093" data-name="Rectángulo 33093" width="20.059" height="2.561" transform="translate(151.585 143.187)" fill="#b8b9f1"/>
              <rect id="Rectángulo_33094" data-name="Rectángulo 33094" width="46.405" height="2.561" transform="translate(95.436 131.592)" fill="#b8b9f1"/>
              <rect id="Rectángulo_33095" data-name="Rectángulo 33095" width="46.405" height="2.561" transform="translate(63.725 143.187)" fill="#b8b9f1"/>
              <rect id="Rectángulo_33096" data-name="Rectángulo 33096" width="23.473" height="2.561" transform="translate(63.454 157.911)" fill="#b8b9f1"/>
              <rect id="Rectángulo_33097" data-name="Rectángulo 33097" width="23.473" height="2.561" transform="translate(148.171 157.911)" fill="#b8b9f1"/>
              <rect id="Rectángulo_33098" data-name="Rectángulo 33098" width="23.473" height="2.561" transform="translate(120.216 169.505)" fill="#b8b9f1"/>
              <rect id="Rectángulo_33099" data-name="Rectángulo 33099" width="20.059" height="2.561" transform="translate(151.585 169.505)" fill="#b8b9f1"/>
              <rect id="Rectángulo_33100" data-name="Rectángulo 33100" width="46.405" height="2.561" transform="translate(95.436 157.911)" fill="#b8b9f1"/>
              <rect id="Rectángulo_33101" data-name="Rectángulo 33101" width="23.473" height="2.561" transform="translate(63.454 181.181)" fill="#b8b9f1"/>
              <rect id="Rectángulo_33102" data-name="Rectángulo 33102" width="23.473" height="2.561" transform="translate(148.171 181.181)" fill="#b8b9f1"/>
              <rect id="Rectángulo_33103" data-name="Rectángulo 33103" width="46.405" height="2.561" transform="translate(95.436 181.181)" fill="#b8b9f1"/>
              <rect id="Rectángulo_33104" data-name="Rectángulo 33104" width="46.405" height="2.561" transform="translate(63.725 169.505)" fill="#b8b9f1"/>
              <g id="Grupo_75737" data-name="Grupo 75737" transform="translate(50.21 189.801)">
                <path id="Trazado_147740" data-name="Trazado 147740" d="M922.3,864.789s66.586-.427,81.736,0Z" transform="translate(-922.297 -863.618)" fill="#fff"/>
                <path id="Trazado_147741" data-name="Trazado 147741" d="M922.31,865.755l-.013-1.966c.669,0,66.779-.42,81.772,0l-.056,1.966C989.05,865.331,922.975,865.751,922.31,865.755Z" transform="translate(-922.297 -863.601)" fill="#b8b9f1"/>
              </g>
            </g>
          </g>
          <g id="Grupo_75746" data-name="Grupo 75746" transform="translate(208.187 64.901)">
            <g id="Grupo_75740" data-name="Grupo 75740" transform="translate(36.298)">
              <path id="Trazado_147742" data-name="Trazado 147742" d="M1075.786,800.388s-22.291-141.952,20.088-149.352c44.741-7.812,77.774,8.177,82.076,28.956,4.8,23.2-11.108,121.322-11.108,121.322s-54.875,15.086-88.518-.061Z" transform="translate(-1069.927 -649.019)" fill="#b8b9f1"/>
              <path id="Trazado_147743" data-name="Trazado 147743" d="M1081.681,751.624l-.466,9.1c-.02.387-4.651,44.942-4.308,45.122,5.675,2.963,50.135,13.055,57.193,1.043,3.991-6.791,7.315-141.574,7.315-141.574s-14.2,38.393-58.391,60.822Z" transform="translate(-1070.044 -649.293)" fill="#b8b9f1" opacity="0.5" style="mix-blend-mode: multiply;isolation: isolate"/>
              <path id="Trazado_147744" data-name="Trazado 147744" d="M1110.453,666.94s-14.4,36.572-17.284,60.525c-2.539,21.072-3.406,32.9-3.406,32.9l4.269,10.981,6.935-13.223s7.027-52.658,9.5-62.205,7.306-26.12,7.306-26.12Z" transform="translate(-1070.261 -649.321)" fill="#f7b75d"/>
              <path id="Trazado_147745" data-name="Trazado 147745" d="M1123.512,661.58l-5.526-7.1-7.266,4.846s-1.154,6.9.853,8.737,6.03,2.056,6.03,2.056S1124.044,663.421,1123.512,661.58Z" transform="translate(-1070.609 -649.111)" fill="#f7b75d"/>
            </g>
            <g id="Grupo_75742" data-name="Grupo 75742" transform="translate(77.585 1.186)">
              <path id="Trazado_147746" data-name="Trazado 147746" d="M1142.617,650.225s-26.027,93.19-25.982,153.4-4.714,124.619-4.714,124.619,50.123,11.233,55.574,3.382c0,0,10.989-14.394,12.066-84.619.267-17.463-7.979-47.076-7.672-60.94.364-16.445-1.153-15.07,7.192-45.914,8.941-33.046,11.338-67.35-10.566-77.92C1152.083,654.3,1142.617,650.225,1142.617,650.225Z" transform="translate(-1111.921 -650.225)" fill="#fff"/>
              <g id="Grupo_75741" data-name="Grupo 75741" transform="translate(8.971 4.514)">
                <path id="Trazado_147747" data-name="Trazado 147747" d="M1121.783,748.6a.737.737,0,0,1-.672-1.04l3.469-7.712c3.255-7.241,22.6-55.153,24.665-60.259l-5.082-5.422,9.94-10.217-3.57-8.1a.738.738,0,0,1,1.35-.595l3.971,9.009-9.652,9.921,4.763,5.081-.176.437c-.214.531-21.432,53.11-24.866,60.749l-3.469,7.713A.735.735,0,0,1,1121.783,748.6Z" transform="translate(-1121.046 -654.817)" fill="#b8b9f1"/>
              </g>
            </g>
            <g id="Grupo_75745" data-name="Grupo 75745" transform="translate(0 0.923)">
              <path id="Trazado_147748" data-name="Trazado 147748" d="M1095.419,650.56l7.349-.6s-21.432,41.86-22.394,116.454c-.72,55.8-32.51,140.444-32.51,140.444l-14.857-3.051s17.547-55.516,27.041-86.8c4.542-14.969,3.81-40.057,3.512-55.7-.462-24.171.183-45.44,2.789-58.963C1070.528,680.658,1071.434,650.45,1095.419,650.56Z" transform="translate(-1033.007 -649.958)" fill="#fff"/>
              <g id="Grupo_75743" data-name="Grupo 75743" transform="translate(43.569 1.115)">
                <path id="Trazado_147749" data-name="Trazado 147749" d="M1079.128,747.716a.738.738,0,0,1-.73-.635c-3.259-23.471,1.919-56.021,1.972-56.348l.025-.153,8.628-13.24-3.5-7.3,10.574-18.571a.737.737,0,1,1,1.281.73l-10.192,17.9,3.529,7.354-8.908,13.674c-.382,2.448-5.058,33.329-1.943,55.755a.736.736,0,0,1-.731.839Z" transform="translate(-1077.323 -651.092)" fill="#b8b9f1"/>
              </g>
              <g id="Grupo_75744" data-name="Grupo 75744" transform="translate(29.64 45.678)">
                <path id="Trazado_147750" data-name="Trazado 147750" d="M1064.066,762.826a.737.737,0,0,1-.734-.683c-1.213-16.6,4.194-64.588,4.248-65.071a.738.738,0,0,1,1.466.167c-.055.481-5.447,48.329-4.243,64.8a.738.738,0,0,1-.681.789Z" transform="translate(-1063.155 -696.418)" fill="#b8b9f1"/>
              </g>
            </g>
          </g>
          <g id="Grupo_75754" data-name="Grupo 75754" transform="translate(270.09)">
            <path id="Trazado_147751" data-name="Trazado 147751" d="M1139.316,650.465s-6.776-35.13-8.04-40.644-20.882-7.082-20.776,1.722-.658,38.214-.658,38.214S1125.617,662.252,1139.316,650.465Z" transform="translate(-1096.204 -583.381)" fill="#ea759c"/>
            <g id="Grupo_75747" data-name="Grupo 75747" transform="translate(3.494 7.167)">
              <path id="Trazado_147752" data-name="Trazado 147752" d="M1113.55,644.714c-9.789.951-10.65-2.866-12.624-7.552-1.534-3.64-1.164-12.466-1.393-21.221s4.233-19.676,10.272-23.808,23.421-.879,27.834,5.633a30.705,30.705,0,0,1,3.82,24.973,26.976,26.976,0,0,1-14.208,16.653C1122.772,641.552,1118.77,644.206,1113.55,644.714Z" transform="translate(-1099.524 -590.296)" fill="#f698b3"/>
            </g>
            <g id="Grupo_75748" data-name="Grupo 75748" transform="translate(6.908 63.996)">
              <path id="Trazado_147753" data-name="Trazado 147753" d="M1117.894,655.095s-7.918-3.35-8.953-6.076l-5.149,1.56s1.1,13.762,2.641,16.108Z" transform="translate(-1103.01 -648.114)" fill="#b8b9f1"/>
              <path id="Trazado_147754" data-name="Trazado 147754" d="M1106.3,667.839l-.5-.762c-1.6-2.434-2.646-15.027-2.76-16.454l-.047-.591,6.377-1.934.244.644c.672,1.772,5.6,4.41,8.551,5.659l1,.424Zm-1.74-16.742c.4,4.783,1.213,11.611,2.091,14.29l9.95-10.065c-2.077-.952-6.588-3.207-8.043-5.437Z" transform="translate(-1102.997 -648.098)" fill="#fff"/>
            </g>
            <g id="Grupo_75749" data-name="Grupo 75749" transform="translate(20.643 63.046)">
              <path id="Trazado_147755" data-name="Trazado 147755" d="M1118.136,655.08s14.706,1.321,20.929-6.928l5.629,3.812-19.833,19.3Z" transform="translate(-1116.988 -647.149)" fill="#b8b9f1"/>
              <path id="Trazado_147756" data-name="Trazado 147756" d="M1124.578,672.535l-7.61-18.314,1.213.108c.144.013,14.373,1.185,20.276-6.638l.422-.558,6.959,4.712Zm-5.33-16.668,5.858,14.1,18.407-17.913-4.315-2.921C1133.638,655.765,1122.867,655.986,1119.248,655.866Z" transform="translate(-1116.968 -647.132)" fill="#fff"/>
            </g>
            <path id="Trazado_147757" data-name="Trazado 147757" d="M1110.149,589.049a3.023,3.023,0,0,0-3.474-1.425,2.882,2.882,0,0,0-1.961,3.121,17.933,17.933,0,0,1,.5,1.925c.091,1.534-1.485,2.614-3.037,3.152-1.5.521-3.225.75-4.313,1.882a3.331,3.331,0,0,0-.633,3.607,3.534,3.534,0,0,0,3.167,2,3.786,3.786,0,0,0-1.6,5.28,6.047,6.047,0,0,0,5.446,2.657,8.99,8.99,0,0,0,1.507-.178,11.008,11.008,0,0,1,7.63.828,12.385,12.385,0,0,0,12.062.121c.545-.318,1.2-.693,1.771-.413a1.471,1.471,0,0,1,.607,1.462,3.2,3.2,0,0,0,.107,1.644c.255.5,1.1.727,1.38.242a.776.776,0,0,0,.447.9c-3.666,5.294,2.614,11.55,7.445,15.88.351-.529-.355-.526,0,0,5.091-5.62,6.763-7.288,5.948-13.471a6.238,6.238,0,0,1,.241-2.964c.75-1.729,2.388-2.259,2.409-4.135.04-3.769-1.773-3.649-1.319-4.513,2.422-4.616-1.172-6.962-2.656-11.507-.679-2.079-1.42-4.256-3.063-5.748a6.734,6.734,0,0,0-3.33-1.6,10.658,10.658,0,0,1-5.29-2.859,7.055,7.055,0,0,0-5.4-1.892,2.516,2.516,0,0,0-1.679.692,1.066,1.066,0,0,0,.131,1.586,5.653,5.653,0,0,0-5.417-1.717,5.457,5.457,0,0,0-4.01,3.924,2.263,2.263,0,0,0-3.077-.26,2.094,2.094,0,0,0-.092,2.99Z" transform="translate(-1095.987 -583.006)" fill="#121f54"/>
            <path id="Trazado_147758" data-name="Trazado 147758" d="M1138.15,626.485c-2.5,5.377-4.66,5.223-5.68,4.192a7.506,7.506,0,0,1-1.656-6.766,5.692,5.692,0,0,1,5.115-3.79C1139.6,620.149,1139.236,624.154,1138.15,626.485Z" transform="translate(-1096.554 -583.631)" fill="#f698b3"/>
            <g id="Grupo_75753" data-name="Grupo 75753" transform="translate(0 30.942)">
              <g id="Grupo_75750" data-name="Grupo 75750">
                <path id="Trazado_147759" data-name="Trazado 147759" d="M1106.6,624.844a1.282,1.282,0,0,1-.137-.007l-9.314-.979a1.318,1.318,0,0,1-1.17-1.444l.712-6.76a1.3,1.3,0,0,1,.48-.884,1.32,1.32,0,0,1,.965-.285l9.314.979a1.313,1.313,0,0,1,1.168,1.445l-.711,6.758A1.316,1.316,0,0,1,1106.6,624.844Zm-.035-.984a.335.335,0,0,0,.365-.3l.711-6.758a.331.331,0,0,0-.294-.364l-9.315-.98a.347.347,0,0,0-.242.073.329.329,0,0,0-.121.221l-.711,6.76a.332.332,0,0,0,.295.364Z" transform="translate(-1095.971 -614.478)" fill="#2748b3"/>
              </g>
              <g id="Grupo_75751" data-name="Grupo 75751" transform="translate(15.367 1.616)">
                <path id="Trazado_147760" data-name="Trazado 147760" d="M1123.023,626.572a1.38,1.38,0,0,1-.142-.008l-10.1-1.063a1.315,1.315,0,0,1-1.17-1.444l.712-6.759a1.315,1.315,0,0,1,1.444-1.169l10.1,1.063a1.311,1.311,0,0,1,1.169,1.445l-.711,6.758a1.314,1.314,0,0,1-1.3,1.177Zm-9.4-9.468a.331.331,0,0,0-.329.3l-.711,6.759a.331.331,0,0,0,.294.364l10.106,1.063a.346.346,0,0,0,.242-.072.336.336,0,0,0,.122-.224l.71-6.758a.323.323,0,0,0-.072-.243.327.327,0,0,0-.221-.121l-10.106-1.063Z" transform="translate(-1111.601 -616.122)" fill="#2748b3"/>
              </g>
              <g id="Grupo_75752" data-name="Grupo 75752" transform="translate(11.781 4.974)">
                <rect id="Rectángulo_33105" data-name="Rectángulo 33105" width="0.983" height="4.442" transform="translate(0 0.978) rotate(-83.996)" fill="#2748b3"/>
              </g>
            </g>
          </g>
          <g id="Grupo_75757" data-name="Grupo 75757" transform="translate(185.651 84.71)">
            <g id="Grupo_75755" data-name="Grupo 75755" transform="translate(0 57.819)">
              <path id="Trazado_147761" data-name="Trazado 147761" d="M1045.858,731.8a17.231,17.231,0,0,1-6.108-.543c-5.274-1.5-9.455-3.56-12.019-2.7-2.542.856,3.811,3.417,6.347,5.42.16.127-9.389-.382-13.649-.534-6.027-.214-11.3,1.749-9.665,6.156.944,2.551,13.626,6.88,20.859,8.685s20.866-2.366,20.866-2.366Z" transform="translate(-1010.091 -727.982)" fill="#f698b3"/>
              <path id="Trazado_147762" data-name="Trazado 147762" d="M1036,749.1a18.812,18.812,0,0,1-4.476-.467c-6.845-1.708-20.065-6.076-21.116-8.915a3.844,3.844,0,0,1,.361-3.779c1.42-1.963,5.013-3.032,9.664-2.873,1.6.058,3.95.165,6.25.27s4.823.22,6.23.265c-.684-.445-1.483-.907-2.264-1.36-2.538-1.469-3.97-2.343-3.881-3.23.036-.366.318-.639.836-.814,1.959-.663,4.662.239,8.081,1.378,1.319.44,2.683.895,4.157,1.313a17.043,17.043,0,0,0,5.962.531l.265-.032,6.924,14.749-.407.124C1052.132,746.4,1043.208,749.1,1036,749.1Zm-16.466-15.313c-3.911,0-7,.964-8.168,2.584a3.149,3.149,0,0,0-.267,3.091c.826,2.229,12.755,6.5,20.6,8.455,6.356,1.586,17.943-1.574,20.26-2.242l-6.336-13.5a17.661,17.661,0,0,1-5.985-.581c-1.489-.422-2.861-.879-4.188-1.322-3.288-1.1-5.89-1.962-7.613-1.378-.294.1-.338.188-.338.189-.066.444,2.265,1.794,3.518,2.518a30.152,30.152,0,0,1,3.279,2.076l.211.166-.092.256c-.12.32-.118.322-7.768-.029-2.3-.105-4.643-.212-6.242-.269C1020.114,733.8,1019.823,733.79,1019.537,733.79Z" transform="translate(-1010.085 -727.976)" fill="#fff"/>
            </g>
            <path id="Trazado_147763" data-name="Trazado 147763" d="M1046.7,745.916c61.675,14.529,77.288,9.977,94.514-1.027,26.713-17.066,45.585-32.023,43.228-57.124-.483-5.143-4.848-12.5-6.636-14.1-9.1-8.14-18.661-4.877-28.79,6.915-14.965,17.422-27.91,32.616-39.483,37.789,0,0-17.45,9.1-62.85,12.38Z" transform="translate(-1010.702 -669.167)" fill="#fff"/>
            <g id="Grupo_75756" data-name="Grupo 75756" transform="translate(35.247 6.3)">
              <path id="Trazado_147764" data-name="Trazado 147764" d="M1114.681,756.29h-.166c-26.592-.151-48.583-5.144-67.986-9.547l-.573-.131-.02-16.52.765.027a164.309,164.309,0,0,0,37.495-4.241c17.659-3.982,23.475-7.094,27.323-9.153.5-.27.971-.521,1.428-.753,3.135-1.594,29.559-29.532,39.475-40.162a.738.738,0,1,1,1.079,1.006c-1.464,1.568-35.877,38.432-39.887,40.472-.446.226-.905.473-1.4.737-3.919,2.1-9.839,5.266-27.693,9.292a170.2,170.2,0,0,1-37.107,4.29l.016,13.829c19.189,4.354,40.925,9.232,67.093,9.38h.156c24.488,0,55.032-32.462,55.339-32.791a.738.738,0,1,1,1.079,1.007C1169.827,724.392,1139.808,756.288,1114.681,756.29Z" transform="translate(-1045.936 -675.574)" fill="#b8b9f1"/>
            </g>
          </g>
        </g>
      </g>
    </g>
    <path id="Trazado_147766" data-name="Trazado 147766" d="M775.65,679.516c-6.789,2.557-9.7,10.952-8.681,19.19.52,4.186-6.635,9.322-9.378,11.194-3.349,2.286-7.459,2.785-11.219,4.116-2.924,1.036-5.813,2.539-7.675,5.02s-2.441,6.121-.707,8.694c1.4,2.072,4.2,3.63,3.922,6.112-.341,3.01-5.2,4.36-3.623,7.91a3.438,3.438,0,0,0,1.621,1.657,25.192,25.192,0,0,0,17.274,1.484,36.454,36.454,0,0,0,14.019-7.369c2.563-2.107,5.1-5.158,4.3-8.375-.71-2.826-3.9-5.074-2.668-8.027a3.851,3.851,0,0,1,1.132-1.477c1.913-1.562,4.4-1.616,6.505-2.657a7.938,7.938,0,0,0,4.314-7.073c-.027-1.766-.649-3.576-.113-5.259.583-1.833-.266-.654,1.18-1.922,1.72-1.508,2.312-2.188,3.951-3.475,1-.786,3.64-1.456,4.122-6.038.42-4-1.317-5.321-1.989-6.642a5.46,5.46,0,0,1-.756-2.222C790.459,680.742,786.344,675.489,775.65,679.516Z" transform="translate(10523.646 3280.873)" fill="#121f54"/>
    <g id="Grupo_75762" data-name="Grupo 75762" transform="translate(11306.409 3990.948)">
      <path id="Trazado_147767" data-name="Trazado 147767" d="M802.369,781.622l-1.039-.156a7.918,7.918,0,0,0,1.224,2.835c.9,1.269,3.732,1.438,3.732,1.438l-2.242-3.67s2.928,3.176,3.583,2.139c.88-1.394-1.512-4-1.512-4Z" transform="translate(-783.848 -711.795)" fill="#f698b3"/>
      <path id="Rectángulo_33106" data-name="Rectángulo 33106" d="M2.935,0H14.674A2.936,2.936,0,0,1,17.61,2.936V24.081a2.936,2.936,0,0,1-2.936,2.936H2.936A2.936,2.936,0,0,1,0,24.081V2.935A2.935,2.935,0,0,1,2.935,0Z" transform="translate(33.653 69.615) rotate(84.551)" fill="#121f54"/>
      <path id="Trazado_147768" data-name="Trazado 147768" d="M789.342,710.623s6.078.718,8.613,14.218c2.133,11.361-.88,22.436.714,26.943s3.243,9.93,7.146,27.256l-4.655,1.732c-5.569-7.414-11.771-19.395-12.9-30.9C787.507,742.242,777.4,714.848,789.342,710.623Z" transform="translate(-783.549 -710.623)" fill="#f698b3"/>
      <path id="Trazado_147769" data-name="Trazado 147769" d="M803.1,781.48a2.363,2.363,0,0,0,2.145,1.86,5.378,5.378,0,0,1,2.073.23c.548.2,1.206.73,1.7.615s.021-1.109-.354-1.455-1.9-.831-1.815-1.251c.128-.653-.7-1.267-.7-1.267Z" transform="translate(-783.878 -711.795)" fill="#f698b3"/>
    </g>
    <g id="Grupo_75764" data-name="Grupo 75764" transform="translate(11291.617 4035.105)">
      <path id="Trazado_147770" data-name="Trazado 147770" d="M789.918,902.936l-.094,3.765h12.935s-4.239-3.814-6.359-3.814Z" transform="translate(-768.862 -758.019)" fill="#121f54"/>
      <path id="Trazado_147771" data-name="Trazado 147771" d="M782.489,845.307c-2.167,10.926.369,25.963,2.867,37.35.45,2.051,1.212,5.395,1.612,7.135h10.088c2.625-28.4,5.343-46.961,5.343-55.394,0-15.176.068-39.525-2.561-52.292-2.3-11.154-6.745-26.569-6.745-26.569l-22.678,1.708s-.836,4.672-1.151,8.152c-4.5,31.889,12.213,61.056,16.707,68.208a3.229,3.229,0,0,1,.008,3.411C783.819,840.527,783.186,841.8,782.489,845.307Z" transform="translate(-768.503 -755.537)" fill="#2748b3"/>
      <path id="Trazado_147772" data-name="Trazado 147772" d="M787.285,892.092c1.559,6.7,2.6,10.613,2.6,10.613h6.564c.3-3.7.612-7.23.921-10.613Z" transform="translate(-768.82 -757.837)" fill="#f698b3"/>
      <g id="Grupo_75763" data-name="Grupo 75763" transform="translate(23.989 6.072)">
        <path id="Trazado_147773" data-name="Trazado 147773" d="M797.063,771.021a.489.489,0,0,1-.152-.025c-3.3-1.068-3.977-8.435-4.005-8.748a.492.492,0,0,1,.446-.533.5.5,0,0,1,.533.446c.172,1.953,1.105,7.18,3.33,7.9a.492.492,0,0,1-.151.96Z" transform="translate(-792.903 -761.713)" fill="#fff"/>
      </g>
    </g>
    <g id="Grupo_75767" data-name="Grupo 75767" transform="translate(11278.093 4036.149)">
      <path id="Trazado_147774" data-name="Trazado 147774" d="M758.116,902.936l-.093,3.765h12.934s-4.239-3.814-6.359-3.814Z" transform="translate(-754.803 -759.063)" fill="#121f54"/>
      <path id="Trazado_147775" data-name="Trazado 147775" d="M756.965,889.81h10.388c3.589-15.913,9.861-44.379,10.868-53.06,1.567-13.518,5.49-41.524,3.533-50.544-3.81-17.57,3.37-29.138,3.37-29.138l-20.386-.469s-2.041,5.9-5.627,15.836c-5.2,14.407-3.719,21.223-3.586,30.529a92.039,92.039,0,0,0,5.143,28.929,3.3,3.3,0,0,1-.318,2.881,30.168,30.168,0,0,0-4.259,9.3C753.961,852.191,754.445,865.611,756.965,889.81Z" transform="translate(-754.747 -756.599)" fill="#2748b3"/>
      <path id="Trazado_147776" data-name="Trazado 147776" d="M757,892.092c.351,3.325.739,6.865,1.169,10.66l6.8-.049s.987-4.262,2.422-10.611Z" transform="translate(-754.786 -758.881)" fill="#f698b3"/>
      <g id="Grupo_75765" data-name="Grupo 75765" transform="translate(23.822 20.016)">
        <path id="Trazado_147777" data-name="Trazado 147777" d="M779.47,832.307a.492.492,0,0,1-.484-.585c.035-.182,3.546-18.6,5.814-46.077l2.378-8.328a.485.485,0,0,1,.608-.337.492.492,0,0,1,.337.609l-2.361,8.233c-2.256,27.441-5.775,45.9-5.81,46.088A.492.492,0,0,1,779.47,832.307Z" transform="translate(-778.977 -776.957)" fill="#fff"/>
      </g>
      <g id="Grupo_75766" data-name="Grupo 75766" transform="translate(14.985 7.859)">
        <path id="Trazado_147778" data-name="Trazado 147778" d="M770.48,773.9a.492.492,0,0,1-.089-.976c.078-.013,7.728-1.5,9.163-7.946a.491.491,0,1,1,.96.213c-1.578,7.091-9.6,8.638-9.945,8.7A.53.53,0,0,1,770.48,773.9Z" transform="translate(-769.99 -764.592)" fill="#fff"/>
      </g>
    </g>
    <g id="Grupo_75769" data-name="Grupo 75769" transform="translate(11283.007 3990.19)">
      <path id="Trazado_147779" data-name="Trazado 147779" d="M764.823,755.813s-.865-7.768-1.88-14.439c-1.725-11.352-5.489-25.878-1.264-28.585,4.594-2.943,7.81-2.918,23.515-2.937,4.851-.006,6.727,2.851,8.15,7.185a23.663,23.663,0,0,1,1.026,4.07c1.115,5.8,5.227,5.458,1.289,14.93-2.941,7.073-2.416,19.775-2.416,19.775-7.019,2.8-13.126,2.426-20.541,1.306Z" transform="translate(-759.746 -709.852)" fill="#b8b9f1"/>
      <g id="Grupo_75768" data-name="Grupo 75768" transform="translate(4.586 45.468)">
        <path id="Trazado_147780" data-name="Trazado 147780" d="M781.991,758.964a93.209,93.209,0,0,1-17.191-1.892.492.492,0,1,1,.205-.963c.194.041,19.548,4.123,28.105.037a.492.492,0,0,1,.425.888C790.5,758.482,786.272,758.964,781.991,758.964Z" transform="translate(-764.41 -756.099)" fill="#fff"/>
      </g>
    </g>
    <g id="Grupo_75772" data-name="Grupo 75772" transform="translate(11281.852 3990.872)">
      <path id="Trazado_147781" data-name="Trazado 147781" d="M810.917,735a11.87,11.87,0,0,0-1.586-3.809c-.189-.32-.437-.671-.806-.7-.559-.047-.919.659-1.475.739a1.068,1.068,0,0,1-1-.621c-.2-.366-.285-.787-.458-1.168a2.634,2.634,0,0,0-5.021,1.35l-.632,1.155c.729-.318.8.951.973,1.725s1.39.272,1.444,1.065a6.852,6.852,0,0,0,1.634,3.5,5.383,5.383,0,0,0,2.61,2.183,3.444,3.444,0,0,0,3.61-1.441A5.292,5.292,0,0,0,810.917,735Z" transform="translate(-759.267 -710.838)" fill="#566cd2"/>
      <path id="Trazado_147782" data-name="Trazado 147782" d="M797.794,731.216a6.781,6.781,0,0,0,1.319-1.1c.218-.365,1.947-2.26,3.18-2.224s-.226,1.131-.627,1.66-.827,2.387-1.38,2.715-2.156,1.094-2.156,1.094Z" transform="translate(-759.231 -710.838)" fill="#f698b3"/>
      <path id="Trazado_147783" data-name="Trazado 147783" d="M773.708,729.778a48.366,48.366,0,0,0-2.2-11.407c-1.425-4.979-2.834-8.291-5.705-7.773-7.537,1.359-8.009,9.606-6.61,23.211s4.386,18.386,7.077,19.771,6.044-.275,33.355-17.465l-2.415-5.03s-17.392,6.678-22.321,8.2Z" transform="translate(-758.571 -710.546)" fill="#f698b3"/>
      <path id="Trazado_147784" data-name="Trazado 147784" d="M797.517,731.3a3.857,3.857,0,0,1,3.026-.425c2.63.972,4.659.067,4.659-.833,0-1.6,1.489-.1.744,1.146,0,0,1.161.408.208,1.786,0,0,.39.7.031,1.1s-.36.8-.36.6-.132.678-.624,1-1.64,1.65-3.081,1.277a3.922,3.922,0,0,0-2.911.488S797.594,731.706,797.517,731.3Z" transform="translate(-759.227 -710.863)" fill="#f698b3"/>
      <g id="Grupo_75770" data-name="Grupo 75770" transform="translate(2.156 25.897)">
        <path id="Trazado_147785" data-name="Trazado 147785" d="M768.23,754.992c-5.809,0-7.441-8.609-7.459-8.7a.493.493,0,0,1,.4-.571.5.5,0,0,1,.572.4c.016.088,1.658,8.713,7.318,7.828,6.912-1.08,28.879-16.8,29.1-16.963a.492.492,0,0,1,.574.8c-.911.654-22.382,16.019-29.523,17.136A6.414,6.414,0,0,1,768.23,754.992Z" transform="translate(-760.763 -736.886)" fill="#fff"/>
      </g>
      <g id="Grupo_75771" data-name="Grupo 75771" transform="translate(14.579 14.407)">
        <path id="Trazado_147786" data-name="Trazado 147786" d="M774.666,740.219l-.019-.674c-.066-2.383-1.234-13.688-1.246-13.8a.491.491,0,0,1,.977-.1c.045.433,1.021,9.891,1.22,13.208l3.038-1.068a32.746,32.746,0,0,0,4.183-1.6c1.892-.8,4.246-1.785,6.668-2.674,1.1-.4,7.542-2.546,7.816-2.638a.492.492,0,1,1,.311.933c-.067.022-6.706,2.232-7.79,2.629-2.4.879-4.742,1.864-6.624,2.656a30.76,30.76,0,0,1-4.322,1.643Z" transform="translate(-773.399 -725.2)" fill="#fff"/>
      </g>
    </g>
    <g id="Grupo_75775" data-name="Grupo 75775" transform="translate(11292.688 3958.571)">
      <g id="Grupo_75773" data-name="Grupo 75773" transform="translate(4.301 12.715)">
        <path id="Trazado_147787" data-name="Trazado 147787" d="M776.775,698.688s-1.317,8.79-2.808,10.936a10.889,10.889,0,0,0,8.943,3.363c4.567-.546,3.762-3.394,3.762-3.394l-.2-14.684C788,694,780.928,683.72,776.775,698.688Z" transform="translate(-773.967 -690.624)" fill="#ea759c"/>
      </g>
      <path id="Trazado_147788" data-name="Trazado 147788" d="M775.737,700.158c2.051,3.638,7.608,6.848,10.628,6.827a4.776,4.776,0,0,0,3.929-2.158c2.94-4.537,1.629-15.741-.31-19.122s-7.424-9.2-13.172-4.945-5.33,10.652-3.37,15.655A22.981,22.981,0,0,0,775.737,700.158Z" transform="translate(-769.635 -677.717)" fill="#f698b3"/>
      <path id="Trazado_147789" data-name="Trazado 147789" d="M787.833,678.65c2.73,1.485,2.272,3.191,2.837,6.248.444,2.4-3.1,5.225-10.644,9.034-3.234,1.633-4.248,7.979-4.248,7.979l-3.027-3.969c-5.577-7.316-3.726-17.319,5.191-19.578C780.54,677.707,785.058,677.14,787.833,678.65Z" transform="translate(-769.592 -677.691)" fill="#121f54"/>
      <path id="Trazado_147790" data-name="Trazado 147790" d="M780.206,698.653a5.538,5.538,0,0,0-1.505-3.643,1.905,1.905,0,0,0-1.379-.721c-1.266.1-1.968,2.267-.947,3.938s1.888,2.882,3.462,1.928C780.167,699.955,780.237,699.323,780.206,698.653Z" transform="translate(-769.698 -677.971)" fill="#f698b3"/>
      <g id="Grupo_75774" data-name="Grupo 75774" transform="translate(3.368 31.237)">
        <path id="Trazado_147791" data-name="Trazado 147791" d="M781.793,713.793a12.118,12.118,0,0,1-8.649-3.508.492.492,0,0,1,.73-.659,11.551,11.551,0,0,0,9.876,3.033c.16-.013,2.975-.232,2.836-2.666a.492.492,0,0,1,.463-.518.467.467,0,0,1,.518.462c.155,2.73-2.362,3.613-3.714,3.7A13.848,13.848,0,0,1,781.793,713.793Z" transform="translate(-773.018 -709.463)" fill="#fff"/>
      </g>
    </g>
    <g id="Grupo_75779" data-name="Grupo 75779" transform="translate(11700.018 3798.676)">
      <g id="Grupo_75778" data-name="Grupo 75778">
        <g id="Grupo_75777" data-name="Grupo 75777" transform="translate(12.692 12.709)">
          <circle id="Elipse_4607" data-name="Elipse 4607" cx="39.881" cy="39.881" r="39.881" transform="translate(1.475 1.475)" fill="#fff"/>
          <path id="Trazado_147792" data-name="Trazado 147792" d="M1238.167,610.695a41.355,41.355,0,1,1,41.355-41.355A41.4,41.4,0,0,1,1238.167,610.695Zm0-79.761a38.406,38.406,0,1,0,38.406,38.406A38.45,38.45,0,0,0,1238.167,530.933Z" transform="translate(-1196.811 -527.984)" fill="#b8b9f1"/>
        </g>
        <path id="Trazado_147793" data-name="Trazado 147793" d="M1231.7,621.363a51.362,51.362,0,0,1-37.751-24.834c-.039.143-.066.285-.111.431a3.4,3.4,0,0,1-1.68,1.995,54.148,54.148,0,0,0,38.773,25.131C1231.179,623.177,1231.429,622.267,1231.7,621.363Z" transform="translate(-1184.041 -516.429)" fill="#b8b9f1"/>
        <path id="Trazado_147794" data-name="Trazado 147794" d="M1290.665,574.781a50.912,50.912,0,0,1-8.07,23.232c.622.747,1.256,1.482,1.9,2.21a53.684,53.684,0,0,0,9.014-25.826A22.946,22.946,0,0,1,1290.665,574.781Z" transform="translate(-1185.565 -516.057)" fill="#b8b9f1"/>
        <path id="Trazado_147795" data-name="Trazado 147795" d="M1215.448,520.172c0-.034.009-.068.011-.1a54.128,54.128,0,0,0-31.557,48.46,12.183,12.183,0,0,0,2.812-.738,51.338,51.338,0,0,1,29.2-44.861A8.762,8.762,0,0,1,1215.448,520.172Z" transform="translate(-1183.902 -515.141)" fill="#b8b9f1"/>
        <path id="Trazado_147796" data-name="Trazado 147796" d="M1238.649,515.057a53.9,53.9,0,0,0-13.173,1.635c.209.915.386,1.835.519,2.761a51.074,51.074,0,0,1,50.068,14.662,3.078,3.078,0,0,1,1.888-2.072A53.906,53.906,0,0,0,1238.649,515.057Z" transform="translate(-1184.602 -515.057)" fill="#b8b9f1"/>
        <path id="Trazado_147797" data-name="Trazado 147797" d="M1277.975,603.849a51.255,51.255,0,0,1-32.442,17.6,9.1,9.1,0,0,1,.3,2.783,54.03,54.03,0,0,0,34-18.255Q1278.9,604.92,1277.975,603.849Z" transform="translate(-1184.94 -516.553)" fill="#b8b9f1"/>
      </g>
      <rect id="Rectángulo_33107" data-name="Rectángulo 33107" width="13.022" height="48.874" rx="4.389" transform="translate(61.805 77.825) rotate(180)" fill="#566cd2"/>
      <rect id="Rectángulo_33108" data-name="Rectángulo 33108" width="13.022" height="48.874" rx="4.389" transform="translate(79.731 46.877) rotate(90)" fill="#566cd2"/>
    </g>
    <g id="Grupo_75784" data-name="Grupo 75784" transform="translate(11350.997 3889.722)">
      <g id="Grupo_75780" data-name="Grupo 75780" transform="translate(1.161 3.821)" opacity="0.4" style="mix-blend-mode: multiply;isolation: isolate">
        <circle id="Elipse_4608" data-name="Elipse 4608" cx="43.867" cy="43.867" r="43.867" fill="#b8b9f1"/>
      </g>
      <g id="Grupo_75781" data-name="Grupo 75781">
        <circle id="Elipse_4609" data-name="Elipse 4609" cx="42.393" cy="42.393" r="42.393" transform="translate(1.475 1.475)" fill="#fff"/>
        <path id="Trazado_147798" data-name="Trazado 147798" d="M872.768,610.612a40.918,40.918,0,1,1-40.918,40.918,40.965,40.965,0,0,1,40.918-40.918Zm0-2.949a43.867,43.867,0,1,0,43.868,43.867,43.868,43.868,0,0,0-43.868-43.867Z" transform="translate(-828.901 -607.663)" fill="#b8b9f1"/>
      </g>
      <g id="Grupo_75783" data-name="Grupo 75783" transform="translate(4.502 3.935)">
        <g id="Grupo_75782" data-name="Grupo 75782" clip-path="url(#clip-path-2)">
          <path id="Trazado_147799" data-name="Trazado 147799" d="M874.686,629.564a1.394,1.394,0,0,1,1.394,1.394V646.02a1.394,1.394,0,0,0,1.394,1.394h15.062a1.394,1.394,0,0,1,1.394,1.394v6.643a1.394,1.394,0,0,1-1.394,1.394H877.474a1.394,1.394,0,0,0-1.394,1.394V673.3a1.394,1.394,0,0,1-1.394,1.394h-6.643a1.394,1.394,0,0,1-1.394-1.394V658.24a1.394,1.394,0,0,0-1.394-1.394H850.193a1.394,1.394,0,0,1-1.394-1.394v-6.643a1.394,1.394,0,0,1,1.394-1.394h15.061a1.394,1.394,0,0,0,1.394-1.394V630.958a1.394,1.394,0,0,1,1.394-1.394Zm0-1.966h-6.643a3.365,3.365,0,0,0-3.36,3.36v14.49H850.193a3.364,3.364,0,0,0-3.36,3.36v6.643a3.364,3.364,0,0,0,3.36,3.36h14.489V673.3a3.364,3.364,0,0,0,3.36,3.36h6.643a3.364,3.364,0,0,0,3.36-3.36V658.812h14.49a3.364,3.364,0,0,0,3.36-3.36v-6.643a3.364,3.364,0,0,0-3.36-3.36h-14.49v-14.49a3.364,3.364,0,0,0-3.36-3.36Z" transform="translate(-833.705 -611.934)" fill="#b8b9f1"/>
        </g>
      </g>
    </g>
    <path id="Trazado_147800" data-name="Trazado 147800" d="M1325.13,908.316H706.721a.983.983,0,0,1,0-1.966H1325.13a.983.983,0,0,1,0,1.966Z" transform="translate(10524.171 3277.027)" fill="#b8b9f1"/>
  </g>
</svg>
