<svg xmlns="http://www.w3.org/2000/svg" width="85" height="85" viewBox="0 0 85 85">
  <g id="Grupo_76129" data-name="Grupo 76129" transform="translate(8992 7279)">
    <circle id="Elipse_4677" data-name="Elipse 4677" cx="42.5" cy="42.5" r="42.5" transform="translate(-8992 -7279)" fill="#00bcd4"/>
    <path id="Trazado_146031" data-name="Trazado 146031" d="M253.157,103.871a25.587,25.587,0,1,1,25.587-25.587A25.616,25.616,0,0,1,253.157,103.871Zm0-50.174a24.587,24.587,0,1,0,24.587,24.587A24.615,24.615,0,0,0,253.157,53.7Z" transform="translate(-9202.657 -7312.271)" fill="#fff"/>
    <path id="Trazado_146032" data-name="Trazado 146032" d="M253.157,97.105a18.823,18.823,0,0,1-15.726-29.166.5.5,0,1,1,.835.55,17.8,17.8,0,1,0,7.67-6.5.5.5,0,1,1-.4-.914,18.823,18.823,0,1,1,7.626,36.033Z" transform="translate(-9202.657 -7312.271)" fill="#fff"/>
    <path id="Trazado_146033" data-name="Trazado 146033" d="M231.117,66.124a.5.5,0,0,1-.354-.146A7.133,7.133,0,0,1,240.851,55.89a.5.5,0,0,1-.707.707,6.133,6.133,0,0,0-8.674,8.674.5.5,0,0,1,0,.707A.494.494,0,0,1,231.117,66.124Z" transform="translate(-9202.657 -7312.271)" fill="#fff"/>
    <path id="Trazado_146034" data-name="Trazado 146034" d="M275.2,66.124a.5.5,0,0,1-.354-.853A6.133,6.133,0,1,0,266.17,56.6a.5.5,0,0,1-.707-.707A7.133,7.133,0,1,1,275.55,65.978.494.494,0,0,1,275.2,66.124Z" transform="translate(-9202.657 -7312.271)" fill="#fff"/>
    <path id="Trazado_146035" data-name="Trazado 146035" d="M253.157,53.7a.5.5,0,0,1-.5-.5V50.785a.5.5,0,1,1,1,0V53.2A.5.5,0,0,1,253.157,53.7Z" transform="translate(-9202.657 -7312.271)" fill="#fff"/>
    <path id="Trazado_146036" data-name="Trazado 146036" d="M255.535,51.084h-4.757a.5.5,0,0,1-.5-.5V48.172a.5.5,0,0,1,.5-.5h4.757a.5.5,0,0,1,.5.5v2.412A.5.5,0,0,1,255.535,51.084Zm-4.257-1h3.757V48.672h-3.757Z" transform="translate(-9202.657 -7312.271)" fill="#fff"/>
    <path id="Trazado_146037" data-name="Trazado 146037" d="M258.355,85.232a.5.5,0,0,1-.39-.186l-5.2-6.448a.5.5,0,0,1-.055-.545l6.973-13.4a.5.5,0,0,1,.887.462l-6.822,13.111,4.993,6.193a.5.5,0,0,1-.389.814Z" transform="translate(-9202.657 -7312.271)" fill="#fff"/>
    <path id="Trazado_146038" data-name="Trazado 146038" d="M235.484,103.871a.5.5,0,0,1-.307-.106l-2.043-1.592a.5.5,0,0,1-.16-.572l1.295-3.408a.5.5,0,0,1,.935.356l-1.164,3.062,1.46,1.138,2.685-1.877a.5.5,0,1,1,.573.819l-2.987,2.089A.5.5,0,0,1,235.484,103.871Z" transform="translate(-9202.657 -7312.271)" fill="#fff"/>
    <path id="Trazado_146039" data-name="Trazado 146039" d="M270.83,103.871a.494.494,0,0,1-.287-.091l-2.987-2.089a.5.5,0,0,1,.573-.819l2.684,1.877,1.461-1.138-1.165-3.062a.5.5,0,0,1,.935-.356l1.3,3.408a.5.5,0,0,1-.16.572l-2.043,1.592A.5.5,0,0,1,270.83,103.871Z" transform="translate(-9202.657 -7312.271)" fill="#fff"/>
  </g>
</svg>
