<svg xmlns="http://www.w3.org/2000/svg" width="660" height="292" viewBox="0 0 660 292">
  <g id="Grupo_76088" data-name="Grupo 76088" transform="translate(-2102.594 1966.5)">
    <g id="Grupo_76087" data-name="Grupo 76087">
      <path id="Trazado_148090" data-name="Trazado 148090" d="M40,0A40,40,0,1,1,0,40,40,40,0,0,1,40,0Z" transform="translate(2203.594 -1965.5)" fill="#c7eafa"/>
      <path id="Trazado_148088" data-name="Trazado 148088" d="M40,0A40,40,0,1,1,0,40,40,40,0,0,1,40,0Z" transform="translate(2102.594 -1885.5)" fill="#c7eafa"/>
      <path id="Trazado_148091" data-name="Trazado 148091" d="M40,0A40,40,0,1,1,0,40,40,40,0,0,1,40,0Z" transform="translate(2142.594 -1754.5)" fill="#c7eafa"/>
      <path id="Trazado_148092" data-name="Trazado 148092" d="M40,0A40,40,0,1,1,0,40,40,40,0,0,1,40,0Z" transform="translate(2327.594 -1885.5)" fill="#c7eafa"/>
      <path id="Trazado_148093" data-name="Trazado 148093" d="M40,0A40,40,0,1,1,0,40,40,40,0,0,1,40,0Z" transform="translate(2292.594 -1754.5)" fill="#c7eafa"/>
      <g id="Trazado_148104" data-name="Trazado 148104" transform="translate(2500.594 -1936.5)" fill="none">
        <path d="M116,0A116,116,0,1,1,0,116,116,116,0,0,1,116,0Z" stroke="none"/>
        <path d="M 116 1 C 108.1967315673828 1 100.398681640625 1.786087036132812 92.82244873046875 3.336410522460938 C 85.43923950195312 4.84722900390625 78.1768798828125 7.101593017578125 71.23712158203125 10.03684997558594 C 64.42311096191406 12.9189453125 57.85090637207031 16.4862060546875 51.703125 20.63958740234375 C 45.61343383789062 24.75370788574219 39.88694763183594 29.47850036621094 34.6827392578125 34.6827392578125 C 29.47850036621094 39.88694763183594 24.75370788574219 45.61343383789062 20.63958740234375 51.703125 C 16.4862060546875 57.85090637207031 12.9189453125 64.42311096191406 10.03684997558594 71.23712158203125 C 7.101593017578125 78.1768798828125 4.84722900390625 85.43923950195312 3.336410522460938 92.82244873046875 C 1.786087036132812 100.398681640625 1 108.1967315673828 1 116 C 1 123.8032684326172 1.786087036132812 131.601318359375 3.336410522460938 139.1775512695312 C 4.84722900390625 146.5607604980469 7.101593017578125 153.8231201171875 10.03684997558594 160.7628784179688 C 12.9189453125 167.5768737792969 16.4862060546875 174.1490936279297 20.63958740234375 180.296875 C 24.75370788574219 186.3865661621094 29.47850036621094 192.1130676269531 34.6827392578125 197.3172607421875 C 39.88694763183594 202.5214996337891 45.61343383789062 207.2462921142578 51.703125 211.3604125976562 C 57.85090637207031 215.5137939453125 64.42311096191406 219.0810546875 71.23712158203125 221.9631500244141 C 78.1768798828125 224.8984069824219 85.43923950195312 227.1527709960938 92.82244873046875 228.6635894775391 C 100.398681640625 230.2139129638672 108.1967315673828 231 116 231 C 123.8032684326172 231 131.601318359375 230.2139129638672 139.1775512695312 228.6635894775391 C 146.5607604980469 227.1527709960938 153.8231201171875 224.8984069824219 160.7628784179688 221.9631500244141 C 167.5768737792969 219.0810546875 174.1490936279297 215.5137939453125 180.296875 211.3604125976562 C 186.3865661621094 207.2462921142578 192.1130676269531 202.5214996337891 197.3172607421875 197.3172607421875 C 202.5214996337891 192.1130676269531 207.2462921142578 186.3865661621094 211.3604125976562 180.296875 C 215.5137939453125 174.1490936279297 219.0810546875 167.5768737792969 221.9631500244141 160.7628784179688 C 224.8984069824219 153.8231201171875 227.1527709960938 146.5607604980469 228.6635894775391 139.1775512695312 C 230.2139129638672 131.601318359375 231 123.8032684326172 231 116 C 231 108.1967315673828 230.2139129638672 100.398681640625 228.6635894775391 92.82244873046875 C 227.1527709960938 85.43923950195312 224.8984069824219 78.1768798828125 221.9631500244141 71.23712158203125 C 219.0810546875 64.42311096191406 215.5137939453125 57.85090637207031 211.3604125976562 51.703125 C 207.2462921142578 45.61343383789062 202.5214996337891 39.88694763183594 197.3172607421875 34.6827392578125 C 192.1130676269531 29.47850036621094 186.3865661621094 24.75370788574219 180.296875 20.63958740234375 C 174.1490936279297 16.4862060546875 167.5768737792969 12.9189453125 160.7628784179688 10.03684997558594 C 153.8231201171875 7.101593017578125 146.5607604980469 4.84722900390625 139.1775512695312 3.336410522460938 C 131.601318359375 1.786087036132812 123.8032684326172 1 116 1 M 116 0 C 180.0650329589844 0 232 51.93496704101562 232 116 C 232 180.0650329589844 180.0650329589844 232 116 232 C 51.93496704101562 232 0 180.0650329589844 0 116 C 0 51.93496704101562 51.93496704101562 0 116 0 Z" stroke="none" fill="#afafaf"/>
      </g>
      <path id="Trazado_148119" data-name="Trazado 148119" d="M0,33V0" transform="translate(2617.094 -1890)" fill="none" stroke="#afafaf" stroke-width="1"/>
      <path id="Trazado_148105" data-name="Trazado 148105" d="M37,11,0,0" transform="translate(2541.094 -1840)" fill="none" stroke="#afafaf" stroke-width="1"/>
      <path id="Trazado_148106" data-name="Trazado 148106" d="M31,0,0,27" transform="translate(2560.094 -1785)" fill="none" stroke="#afafaf" stroke-width="1"/>
      <path id="Trazado_148120" data-name="Trazado 148120" d="M0,0,32,24" transform="translate(2639.094 -1782)" fill="none" stroke="#afafaf" stroke-width="1"/>
      <path id="Trazado_148121" data-name="Trazado 148121" d="M0,21,38,0" transform="translate(2658.094 -1850)" fill="none" stroke="#afafaf" stroke-width="1"/>
      <path id="Trazado_148115" data-name="Trazado 148115" d="M40,0A40,40,0,1,1,0,40,40,40,0,0,1,40,0Z" transform="translate(2577.594 -1966.5)" fill="#e4dff7"/>
      <path id="Trazado_148107" data-name="Trazado 148107" d="M40,0A40,40,0,1,1,0,40,40,40,0,0,1,40,0Z" transform="translate(2470.594 -1890.5)" fill="#e4dff7"/>
      <path id="Trazado_148108" data-name="Trazado 148108" d="M40,0A40,40,0,1,1,0,40,40,40,0,0,1,40,0Z" transform="translate(2510.594 -1771.5)" fill="#e4dff7"/>
      <path id="Trazado_148122" data-name="Trazado 148122" d="M40,0A40,40,0,1,1,0,40,40,40,0,0,1,40,0Z" transform="translate(2682.594 -1890.5)" fill="#e4dff7"/>
      <path id="Trazado_148123" data-name="Trazado 148123" d="M40,0A40,40,0,1,1,0,40,40,40,0,0,1,40,0Z" transform="translate(2646.594 -1771.5)" fill="#e4dff7"/>
      <path id="Trazado_148116" data-name="Trazado 148116" d="M51,0A51,51,0,1,1,0,51,51,51,0,0,1,51,0Z" transform="translate(2568.594 -1868.5)" fill="#e4dff7"/>
      <path id="Trazado_148117" data-name="Trazado 148117" d="M34.983,44H28.052V21.934l-6.809,1.989v-5.25l13.1-4.532h.636Z" transform="translate(2586.594 -1953.5)" fill="#12263f"/>
      <path id="Trazado_148094" data-name="Trazado 148094" d="M34.983,44H28.052V21.934l-6.809,1.989v-5.25l13.1-4.532h.636Z" transform="translate(2213.594 -1953.5)" fill="#12263f"/>
      <path id="Trazado_148095" data-name="Trazado 148095" d="M40.5,44H19.664V39.488l9.6-10.09q3.548-4.04,3.548-6.419a4.465,4.465,0,0,0-.841-2.933,3,3,0,0,0-2.44-1,3.04,3.04,0,0,0-2.563,1.343,5.52,5.52,0,0,0-.984,3.353H19.049a9.806,9.806,0,0,1,1.374-5.076,9.635,9.635,0,0,1,3.814-3.64,11.331,11.331,0,0,1,5.455-1.312q4.84,0,7.455,2.235a7.98,7.98,0,0,1,2.615,6.419,9.321,9.321,0,0,1-.656,3.435,15.064,15.064,0,0,1-2.041,3.507,51.4,51.4,0,0,1-4.46,4.912l-3.855,4.45H40.5Z" transform="translate(2339.594 -1875.5)" fill="#12263f"/>
      <path id="Trazado_148109" data-name="Trazado 148109" d="M25.98,26.179h3.261q3.876,0,3.876-3.794a3.281,3.281,0,0,0-.923-2.41,3.5,3.5,0,0,0-2.6-.933,3.746,3.746,0,0,0-2.389.8,2.44,2.44,0,0,0-1.015,1.989H19.274a7.075,7.075,0,0,1,1.313-4.2,8.667,8.667,0,0,1,3.64-2.881,12.446,12.446,0,0,1,5.117-1.036q4.983,0,7.834,2.276a7.567,7.567,0,0,1,2.851,6.255,6.307,6.307,0,0,1-1.179,3.64,8.4,8.4,0,0,1-3.435,2.779,8.028,8.028,0,0,1,3.732,2.615A6.886,6.886,0,0,1,40.5,35.612a7.7,7.7,0,0,1-3.076,6.4,12.769,12.769,0,0,1-8.08,2.4A13.242,13.242,0,0,1,23.9,43.292a8.531,8.531,0,0,1-3.8-3.1,8.051,8.051,0,0,1-1.292-4.5h6.952a3.112,3.112,0,0,0,1.107,2.379,3.91,3.91,0,0,0,2.728,1A4.1,4.1,0,0,0,32.5,38.063a3.393,3.393,0,0,0,1.087-2.594,3.967,3.967,0,0,0-1.128-3.2,4.715,4.715,0,0,0-3.117-.943H25.98Z" transform="translate(2302.594 -1746.5)" fill="#12263f"/>
      <path id="Trazado_148110" data-name="Trazado 148110" d="M37.916,32.331h3.035v5.332H37.916V44H31V37.663H19.459l-.41-4.225L31,14.2v-.062h6.911Zm-12.284,0H31V23.144l-.431.7Z" transform="translate(2152.594 -1741.5)" fill="#12263f"/>
      <path id="Trazado_148089" data-name="Trazado 148089" d="M20.074,29.414,21.9,14.141H39.352v5.373H27.519l-.677,5.932a8.151,8.151,0,0,1,1.938-.762,8.842,8.842,0,0,1,2.348-.33,8.76,8.76,0,0,1,6.839,2.635q2.389,2.635,2.389,7.393a10.6,10.6,0,0,1-1.282,5.2,8.81,8.81,0,0,1-3.6,3.579A11.363,11.363,0,0,1,30,44.41a12.227,12.227,0,0,1-5.271-1.158,9.455,9.455,0,0,1-3.855-3.176A7.718,7.718,0,0,1,19.5,35.517h6.932a3.92,3.92,0,0,0,1.046,2.6,3.32,3.32,0,0,0,2.481.962q3.486,0,3.486-5.157,0-4.768-4.266-4.768a4.256,4.256,0,0,0-3.609,1.555Z" transform="translate(2112.594 -1875.5)" fill="#12263f"/>
      <path id="Trazado_148124" data-name="Trazado 148124" d="M40.5,44H19.664V39.488l9.6-10.09q3.548-4.04,3.548-6.419a4.465,4.465,0,0,0-.841-2.933,3,3,0,0,0-2.44-1,3.04,3.04,0,0,0-2.563,1.343,5.52,5.52,0,0,0-.984,3.353H19.049a9.806,9.806,0,0,1,1.374-5.076,9.635,9.635,0,0,1,3.814-3.64,11.331,11.331,0,0,1,5.455-1.312q4.84,0,7.455,2.235a7.98,7.98,0,0,1,2.615,6.419,9.321,9.321,0,0,1-.656,3.435,15.064,15.064,0,0,1-2.041,3.507,51.4,51.4,0,0,1-4.46,4.912l-3.855,4.45H40.5Z" transform="translate(2692.594 -1877.5)" fill="#12263f"/>
      <path id="Trazado_148125" data-name="Trazado 148125" d="M37.916,32.331h3.035v5.332H37.916V44H31V37.663H19.459l-.41-4.225L31,14.2v-.062h6.911Zm-12.284,0H31V23.144l-.431.7Z" transform="translate(2656.594 -1758.5)" fill="#12263f"/>
      <path id="Trazado_148111" data-name="Trazado 148111" d="M20.074,29.414,21.9,14.141H39.352v5.373H27.519l-.677,5.932a8.151,8.151,0,0,1,1.938-.762,8.842,8.842,0,0,1,2.348-.33,8.76,8.76,0,0,1,6.839,2.635q2.389,2.635,2.389,7.393a10.6,10.6,0,0,1-1.282,5.2,8.81,8.81,0,0,1-3.6,3.579A11.363,11.363,0,0,1,30,44.41a12.227,12.227,0,0,1-5.271-1.158,9.455,9.455,0,0,1-3.855-3.176A7.718,7.718,0,0,1,19.5,35.517h6.932a3.92,3.92,0,0,0,1.046,2.6,3.32,3.32,0,0,0,2.481.962q3.486,0,3.486-5.157,0-4.768-4.266-4.768a4.256,4.256,0,0,0-3.609,1.555Z" transform="translate(2517.594 -1758.5)" fill="#12263f"/>
      <path id="Trazado_148112" data-name="Trazado 148112" d="M25.98,26.179h3.261q3.876,0,3.876-3.794a3.281,3.281,0,0,0-.923-2.41,3.5,3.5,0,0,0-2.6-.933,3.746,3.746,0,0,0-2.389.8,2.44,2.44,0,0,0-1.015,1.989H19.274a7.075,7.075,0,0,1,1.313-4.2,8.667,8.667,0,0,1,3.64-2.881,12.446,12.446,0,0,1,5.117-1.036q4.983,0,7.834,2.276a7.567,7.567,0,0,1,2.851,6.255,6.307,6.307,0,0,1-1.179,3.64,8.4,8.4,0,0,1-3.435,2.779,8.028,8.028,0,0,1,3.732,2.615A6.886,6.886,0,0,1,40.5,35.612a7.7,7.7,0,0,1-3.076,6.4,12.769,12.769,0,0,1-8.08,2.4A13.242,13.242,0,0,1,23.9,43.292a8.531,8.531,0,0,1-3.8-3.1,8.051,8.051,0,0,1-1.292-4.5h6.952a3.112,3.112,0,0,0,1.107,2.379,3.91,3.91,0,0,0,2.728,1A4.1,4.1,0,0,0,32.5,38.063a3.393,3.393,0,0,0,1.087-2.594,3.967,3.967,0,0,0-1.128-3.2,4.715,4.715,0,0,0-3.117-.943H25.98Z" transform="translate(2480.594 -1877.5)" fill="#12263f"/>
      <path id="Trazado_148118" data-name="Trazado 148118" d="M36.357,13.71v5.435H36.05A10.376,10.376,0,0,0,29.682,21a7.836,7.836,0,0,0-3.066,5.158,8.082,8.082,0,0,1,5.906-2.3,7.538,7.538,0,0,1,6.173,2.83,11.415,11.415,0,0,1,2.3,7.424,10.453,10.453,0,0,1-1.343,5.229A9.585,9.585,0,0,1,35.9,43.067a10.784,10.784,0,0,1-5.342,1.343,11.145,11.145,0,0,1-5.681-1.446,9.94,9.94,0,0,1-3.9-4.132,13.607,13.607,0,0,1-1.436-6.193V29.87a17.237,17.237,0,0,1,1.979-8.3A14.347,14.347,0,0,1,27.17,15.8a16.153,16.153,0,0,1,8.142-2.092ZM30.123,29.152a3.954,3.954,0,0,0-2.3.636,4.036,4.036,0,0,0-1.374,1.559v2.071q0,5.66,3.917,5.66A3.178,3.178,0,0,0,33,37.663a5.767,5.767,0,0,0,1.056-3.548,5.661,5.661,0,0,0-1.077-3.579A3.444,3.444,0,0,0,30.123,29.152Z" transform="translate(2590.594 -1844.5)" fill="#12263f"/>
      <path id="Trazado_148096" data-name="Trazado 148096" d="M0,0H35.23" transform="translate(2292.208 -1902.324) rotate(30)" fill="none" stroke="#84d4f8" stroke-width="3"/>
      <path id="Trazado_148097" data-name="Trazado 148097" d="M6.074,0l6.074,12.148H0Z" transform="translate(2332.594 -1886.021) rotate(120)" fill="#81d4fa"/>
      <path id="Trazado_148098" data-name="Trazado 148098" d="M0,0H35.23" transform="matrix(-0.438, 0.899, -0.899, -0.438, 2358.36, -1797.923)" fill="none" stroke="#84d4f8" stroke-width="3"/>
      <path id="Trazado_148099" data-name="Trazado 148099" d="M6.074,0l6.074,12.148H0Z" transform="matrix(-0.899, -0.438, 0.438, -0.899, 2344.914, -1756.498)" fill="#81d4fa"/>
      <path id="Trazado_148113" data-name="Trazado 148113" d="M0,0H35.23" transform="translate(2280.07 -1719.456) rotate(-180)" fill="none" stroke="#84d4f8" stroke-width="3"/>
      <path id="Trazado_148114" data-name="Trazado 148114" d="M6.074,0l6.074,12.148H0Z" transform="translate(2236.943 -1713.382) rotate(-90)" fill="#81d4fa"/>
      <path id="Trazado_148100" data-name="Trazado 148100" d="M0,0H35.23" transform="matrix(-0.454, -0.891, 0.891, -0.454, 2162.383, -1759.402)" fill="none" stroke="#84d4f8" stroke-width="3"/>
      <path id="Trazado_148101" data-name="Trazado 148101" d="M6.074,0l6.074,12.148H0Z" transform="matrix(0.891, -0.454, 0.454, 0.891, 2137.392, -1795.071)" fill="#81d4fa"/>
      <path id="Trazado_148102" data-name="Trazado 148102" d="M0,0H35.23" transform="translate(2167.061 -1882.228) rotate(-41)" fill="none" stroke="#84d4f8" stroke-width="3"/>
      <path id="Trazado_148103" data-name="Trazado 148103" d="M6.074,0l6.074,12.148H0Z" transform="translate(2195.624 -1915.106) rotate(49)" fill="#81d4fa"/>
    </g>
  </g>
</svg>
