<svg xmlns="http://www.w3.org/2000/svg" xmlns:xlink="http://www.w3.org/1999/xlink" width="179" height="179" viewBox="0 0 179 179">
  <defs>
    <filter id="Elipse_4062" x="0" y="0" width="179" height="179" filterUnits="userSpaceOnUse">
      <feOffset dy="3" input="SourceAlpha"/>
      <feGaussianBlur stdDeviation="3" result="blur"/>
      <feFlood flood-opacity="0.161"/>
      <feComposite operator="in" in2="blur"/>
      <feComposite in="SourceGraphic"/>
    </filter>
  </defs>
  <g id="Grupo_76120" data-name="Grupo 76120" transform="translate(-10694.406 -4313.613)">
    <g transform="matrix(1, 0, 0, 1, 10694.41, 4313.61)" filter="url(#Elipse_4062)">
      <circle id="Elipse_4062-2" data-name="Elipse 4062" cx="80.5" cy="80.5" r="80.5" transform="translate(9 6)" fill="#fff"/>
    </g>
    <circle id="Elipse_4063" data-name="Elipse 4063" cx="62" cy="62" r="62" transform="translate(10720.406 4338.613)" fill="#7e5ee3"/>
    <path id="Trazado_148045" data-name="Trazado 148045" d="M163.48,131.166a5.288,5.288,0,0,1-2.884-.855l-16.618-10.837a1.3,1.3,0,1,1,1.416-2.169l16.618,10.837a2.679,2.679,0,1,0,2.89-4.511l-23.042-14.506a6.4,6.4,0,0,0-3.407-.983H127.666v2.782a5,5,0,0,1-9.992,0v-8.271a3.4,3.4,0,0,1,1.942-3.061l9.465-4.455a1.316,1.316,0,0,1,.551-.122h25.841a1.295,1.295,0,1,1,0,2.59H129.921l-9.2,4.331a.8.8,0,0,0-.457.717v8.271a2.406,2.406,0,1,0,4.812,0v-4.076a1.3,1.3,0,0,1,1.3-1.3h12.082a8.965,8.965,0,0,1,4.786,1.381l23.042,14.5a5.268,5.268,0,0,1-2.8,9.729Z" transform="translate(10644.289 4292.612)" fill="#fff"/>
    <path id="Trazado_148046" data-name="Trazado 148046" d="M144.482,124.744a5.468,5.468,0,0,1-3.063-.939l-11.729-7.883a1.3,1.3,0,0,1,1.443-2.151l11.73,7.883a2.923,2.923,0,1,0,3.227-4.875l-10.659-6.952a1.3,1.3,0,1,1,1.416-2.169l10.659,6.952a5.518,5.518,0,0,1-3.024,10.134Z" transform="translate(10653.67 4302.803)" fill="#fff"/>
    <path id="Trazado_148047" data-name="Trazado 148047" d="M138.366,125.7a5.425,5.425,0,0,1-2.946-.864l-8.058-5.19a1.294,1.294,0,1,1,1.4-2.176l8.058,5.188a2.883,2.883,0,0,0,3.856-.69,2.873,2.873,0,0,0-.7-4.113l-5.256-3.532a1.295,1.295,0,0,1,1.445-2.149l5.256,3.53a5.46,5.46,0,0,1-3.061,10Z" transform="translate(10651.744 4306.495)" fill="#fff"/>
    <path id="Trazado_148048" data-name="Trazado 148048" d="M129.648,126.362a5.264,5.264,0,0,1-2.773-.784l-.875-.539a1.3,1.3,0,1,1,1.359-2.206l.873.539a2.724,2.724,0,0,0,4.1-2.835,2.693,2.693,0,0,0-1.2-1.776l-1.976-1.274a1.295,1.295,0,1,1,1.4-2.176l1.976,1.272a5.316,5.316,0,0,1,1.454,7.55A5.326,5.326,0,0,1,129.648,126.362Z" transform="translate(10650.609 4309.08)" fill="#fff"/>
    <path id="Trazado_148049" data-name="Trazado 148049" d="M125.878,126.585a4.936,4.936,0,0,1-3.674-8.227l.406-.453a4.934,4.934,0,0,1,6.773-.551l-.806,1.014.812-1.008a4.937,4.937,0,0,1,.542,7.183l-.411.448A4.931,4.931,0,0,1,125.878,126.585Zm.4-7.73a2.337,2.337,0,0,0-1.743.779l-.406.453a2.346,2.346,0,0,0,.28,3.394,2.352,2.352,0,0,0,3.2-.242l.411-.448a2.348,2.348,0,0,0-.257-3.416A2.382,2.382,0,0,0,126.282,118.855Z" transform="translate(10646.971 4310.028)" fill="#fff"/>
    <path id="Trazado_148050" data-name="Trazado 148050" d="M122.155,127.144a4.953,4.953,0,0,1-3.711-8.229l5.092-5.765a4.992,4.992,0,1,1,7.45,6.646l-5.155,5.712A4.94,4.94,0,0,1,122.155,127.144Zm5.09-13.082a2.355,2.355,0,0,0-1.769.8l-5.09,5.767a2.36,2.36,0,0,0,3.521,3.143l5.155-5.712a2.359,2.359,0,0,0-.253-3.4A2.427,2.427,0,0,0,127.245,114.062Z" transform="translate(10643.904 4306.101)" fill="#fff"/>
    <path id="Trazado_148051" data-name="Trazado 148051" d="M119.425,122.618a5.031,5.031,0,0,1-3.905-8.2l1.731-2.135a5.09,5.09,0,1,1,7.769,6.575l-1.818,2.06A5.027,5.027,0,0,1,119.425,122.618ZM121.21,113a2.5,2.5,0,0,0-1.947.919l-1.732,2.135a2.442,2.442,0,0,0,3.729,3.154l1.818-2.06A2.491,2.491,0,0,0,121.21,113Z" transform="translate(10641.602 4305.233)" fill="#fff"/>
    <path id="Trazado_148052" data-name="Trazado 148052" d="M116.511,118.806a4.735,4.735,0,0,1-3.632-7.783l.781-.924a4.715,4.715,0,0,1,7.286,5.985l-.755.944A4.7,4.7,0,0,1,116.511,118.806Zm.752-7.792a2.119,2.119,0,0,0-1.623.755l-.783.924a2.128,2.128,0,0,0,.355,3.075,2.125,2.125,0,0,0,2.955-.359l.757-.944a2.126,2.126,0,0,0-1.661-3.452Z" transform="translate(10639.446 4303.602)" fill="#fff"/>
    <path id="Trazado_148053" data-name="Trazado 148053" d="M117.012,122.709a1.293,1.293,0,0,1-.934-.4l-6.831-7.092a1.294,1.294,0,0,1-.124-1.647l12.293-17.39a1.293,1.293,0,0,1,1.057-.548h11.965a1.3,1.3,0,0,1,0,2.591h-11.3l-11.286,15.967,6.087,6.322a1.294,1.294,0,0,1-.932,2.193Z" transform="translate(10637.084 4293.121)" fill="#fff"/>
    <path id="Trazado_148054" data-name="Trazado 148054" d="M155.4,124.928a4.289,4.289,0,0,1-3.558-1.9c-3.126-4.619-9.783-14.664-13.474-20.242a4.315,4.315,0,0,1,.983-5.8l10.928-8.327a1.295,1.295,0,0,1,1.569,2.06l-10.928,8.329a1.72,1.72,0,0,0-.391,2.309c3.687,5.572,10.34,15.608,13.459,20.218a1.707,1.707,0,0,0,2.331.49l8.9-5.59a1.295,1.295,0,0,1,1.378,2.193l-8.9,5.59A4.3,4.3,0,0,1,155.4,124.928Z" transform="translate(10660.673 4287.187)" fill="#fff"/>
    <path id="Trazado_148055" data-name="Trazado 148055" d="M113.267,123.355a4.313,4.313,0,0,1-2.126-.562l-8.327-4.708a1.3,1.3,0,0,1,1.276-2.257l8.327,4.71a1.711,1.711,0,0,0,2.249-.51l12.5-17.845a1.706,1.706,0,0,0-.3-2.3l-11.991-9.876a1.3,1.3,0,1,1,1.647-2l12,9.883a4.286,4.286,0,0,1,.77,5.778l-12.5,17.845A4.293,4.293,0,0,1,113.267,123.355Z" transform="translate(10631.568 4286.626)" fill="#fff"/>
    <path id="Trazado_148056" data-name="Trazado 148056" d="M143.024,113.524a1.3,1.3,0,0,1-.924-2.2l5.432-5.53a1.3,1.3,0,0,1,1.847,1.816l-5.43,5.53A1.294,1.294,0,0,1,143.024,113.524Z" transform="translate(10664.01 4301.126)" fill="#fff"/>
    <path id="Trazado_148057" data-name="Trazado 148057" d="M106.634,109.195a1.3,1.3,0,0,1-1.066-2.029l6.451-9.412a1.3,1.3,0,1,1,2.136,1.465l-6.451,9.412A1.3,1.3,0,0,1,106.634,109.195Z" transform="translate(10634.178 4294.395)" fill="#fff"/>
    <path id="Trazado_148058" data-name="Trazado 148058" d="M152.115,110.086a1.294,1.294,0,0,1-1.1-.608l-6.1-9.774a1.295,1.295,0,1,1,2.2-1.372l6.105,9.774a1.3,1.3,0,0,1-.413,1.783A1.277,1.277,0,0,1,152.115,110.086Z" transform="translate(10666.456 4294.83)" fill="#fff"/>
  </g>
</svg>
