<svg xmlns="http://www.w3.org/2000/svg" width="128" height="128" viewBox="0 0 128 128">
  <g id="Grupo_76125" data-name="Grupo 76125" transform="translate(-6860 6332)">
    <path id="Trazado_148229" data-name="Trazado 148229" d="M64,0A64,64,0,1,1,0,64,64,64,0,0,1,64,0Z" transform="translate(6860 -6332)" fill="#fff"/>
    <path id="Trazado_148220" data-name="Trazado 148220" d="M505.291,317.232l0,0a1.535,1.535,0,0,0,2.256,0l0,0,14.611-15.477.022-.03a11.222,11.222,0,0,0,2.4-4.04,11.666,11.666,0,0,0,.615-3.759c0-6.113-4.655-11.077-10.391-11.079a10.182,10.182,0,0,0-8.414,4.628,10.178,10.178,0,0,0-8.414-4.628c-5.731,0-10.388,4.966-10.391,11.079a11.722,11.722,0,0,0,.587,3.677,11.292,11.292,0,0,0,1.93,3.544l0,0a10.736,10.736,0,0,0,1.091,1.157l0,0Zm-14.6-20.554a8.682,8.682,0,0,1-.442-2.752,8.51,8.51,0,0,1,2.278-5.854,7.458,7.458,0,0,1,5.459-2.421,7.765,7.765,0,0,1,7.049,4.862,1.467,1.467,0,0,0,2.732,0,7.763,7.763,0,0,1,7.046-4.86,7.461,7.461,0,0,1,5.459,2.419,8.523,8.523,0,0,1,2.276,5.857,8.722,8.722,0,0,1-.457,2.809,8.479,8.479,0,0,1-1.826,3.055l-13.843,14.665-13.35-14.14-.074-.074a8.314,8.314,0,0,1-.871-.918A8.431,8.431,0,0,1,490.69,296.678Z" transform="translate(6409.397 -6593.748)" fill="#00bcd4"/>
    <path id="Trazado_148221" data-name="Trazado 148221" d="M563.329,310.4a1.707,1.707,0,0,0-1.382-.7c-4.218,0-7.1-2.278-10.43-4.919-.728-.573-1.459-1.153-2.214-1.715-3.1-2.3-7.014-4.655-12.639-4.655-2.416,0-4.275.022-5.793.074H519.03a5.058,5.058,0,0,0,0,10.107h10.951a3.237,3.237,0,0,1,2.409,3.25,3.38,3.38,0,0,1-1.436,2.8l-4.043,1.145c-1.362.348-2.747.738-4.2,1.182l-.281.079c-7.52,2.122-10.1,2.833-10.877,3.036a4.406,4.406,0,0,1-.775-.032L493.6,308.175l-3.135-2.416a1.429,1.429,0,0,0-.18-.121c-.17-.111-.346-.212-.528-.313a6.571,6.571,0,0,0-1.032-.449,7.056,7.056,0,0,0-.869-.2,5.7,5.7,0,0,0-2.118.035,6.934,6.934,0,0,0-6.076,7.041,7.18,7.18,0,0,0,1.938,4.936l.084.091a7,7,0,0,0,1.505,1.182l28.551,22.072a1.737,1.737,0,0,0,.508.269l.284.116a7.268,7.268,0,0,0,2.552.486,7.432,7.432,0,0,0,1.528-.163c.035-.007.072-.015.1-.025l.133-.037c10.235-2.779,28.714-7.784,37.483-10.089a1.809,1.809,0,0,0,.185-.062l.563-.22a31.374,31.374,0,0,1,6.849-1.264,1.711,1.711,0,0,0,1.71-1.71v-1.116a1.611,1.611,0,0,0,.022-.309l-.022-14.214A1.709,1.709,0,0,0,563.329,310.4Zm-3.1,15.334a46.338,46.338,0,0,0-6.126,1.288c-.062.017-.126.04-.185.062l-.553.217c-8.818,2.323-27.21,7.3-37.421,10.075l-.079.022a3.746,3.746,0,0,1-2.088-.17l-.138-.057-28.452-22a1.531,1.531,0,0,0-.225-.148,3.552,3.552,0,0,1-.8-.62l-.04-.044a3.776,3.776,0,0,1-1.032-2.616,3.526,3.526,0,0,1,3.07-3.643,1.9,1.9,0,0,0,.2-.032,2.8,2.8,0,0,1,.958-.022,3.112,3.112,0,0,1,.363.081,3.066,3.066,0,0,1,.449.2,3.425,3.425,0,0,1,.3.18l.039.027,3.078,2.374.072.052,17.506,12.1a1.749,1.749,0,0,0,.538.249,7.348,7.348,0,0,0,2.246.18,1.578,1.578,0,0,0,.321-.049c.8-.2,4.549-1.244,11.138-3.1l.318-.091c1.431-.439,2.764-.815,4.117-1.16l4.327-1.227a1.682,1.682,0,0,0,.4-.17,6.793,6.793,0,0,0,3.287-5.857,6.632,6.632,0,0,0-5.37-6.647,1.5,1.5,0,0,0-.3-.025H519.03a1.648,1.648,0,0,1,0-3.265h11.894c1.518-.049,3.4-.074,5.741-.074,4.613,0,7.819,1.913,10.6,3.979.728.543,1.434,1.1,2.132,1.656,3.125,2.473,6.343,5.02,10.82,5.553V324.03l.022,1.636Z" transform="translate(6397.747 -6570.902)" fill="#00bcd4"/>
  </g>
</svg>
