<svg xmlns="http://www.w3.org/2000/svg" xmlns:xlink="http://www.w3.org/1999/xlink" width="581.778" height="320.867" viewBox="0 0 581.778 320.867">
  <defs>
    <clipPath id="clip-path">
      <path id="Trazado_147647" data-name="Trazado 147647" d="M409.877,116.416l-246.308.127c-9.066,0-15.791,12-13.8,24.621l36.3,230.349c.6,3.838,2.994,6.565,5.751,6.563l263.237-.136c3.776,0,6.576-5,5.748-10.252l-37.117-235.51C422.237,122.961,416.5,116.412,409.877,116.416Z" transform="translate(-149.416 -116.416)" fill="none"/>
    </clipPath>
    <clipPath id="clip-path-2">
      <circle id="Elipse_4602" data-name="Elipse 4602" cx="39.844" cy="39.844" r="39.844" fill="none"/>
    </clipPath>
    <clipPath id="clip-path-3">
      <path id="Trazado_147683" data-name="Trazado 147683" d="M574.057,231.363s1.191,10.383,11.783,19.585c0,0,10.032-15.255,8.512-24.7C594.352,226.244,581.664,228.449,574.057,231.363Z" transform="translate(-574.057 -226.244)" fill="none"/>
    </clipPath>
  </defs>
  <g id="Grupo_75707" data-name="Grupo 75707" transform="translate(-39.372 -79.96)">
    <path id="Trazado_147593" data-name="Trazado 147593" d="M603.251,404.827c8.383-77.919-118.528-74.023-161.456-106.258-48.679-36.554-38.408-94.117-90.455-141.4-57.477-52.22-182.855-36.108-223.442,61.488-18.283,43.963-47.565,49.36-73.275,77.481C24.1,329.519,40.335,404.625,94.89,404.207Z" transform="translate(0 -4.7)" fill="#d9eff8"/>
    <g id="Grupo_75610" data-name="Grupo 75610" transform="translate(64.265 399.023)">
      <path id="Trazado_147594" data-name="Trazado 147594" d="M608.926,435.484H67.871a.9.9,0,1,1,0-1.8H608.926a.9.9,0,1,1,0,1.8Z" transform="translate(-66.969 -433.68)" fill="#b8b9f1"/>
    </g>
    <g id="Grupo_75657" data-name="Grupo 75657" transform="translate(61.334 112.844)">
      <g id="Grupo_75622" data-name="Grupo 75622" transform="translate(0 136.55)">
        <g id="Grupo_75614" data-name="Grupo 75614" transform="translate(0 57.383)">
          <path id="Trazado_147595" data-name="Trazado 147595" d="M216.854,422.748c-23.462-.328-57.582,1.561-80.472-3.6S91.135,403.566,75.577,386c-8.011-9.045-14.265-21.326-10.951-32.945,2.471-8.663,9.957-15.231,18.319-18.582,17.756-7.116,38.587-1.069,53.9,10.389s26.3,27.623,37.273,43.293,22.273,12.622,38.357,22.977Z" transform="translate(-63.719 -331.414)" fill="#f7c45d"/>
          <g id="Grupo_75611" data-name="Grupo 75611" transform="translate(27.069 28.484)">
            <path id="Trazado_147596" data-name="Trazado 147596" d="M203.073,423.666c-5.131,0-11.336-1.847-18.546-5.532-23.791-12.158-86.733-50.4-90.183-52.655a1.353,1.353,0,1,1,1.478-2.267c3.441,2.245,66.215,40.388,89.936,52.511,9.883,5.05,17.851,6.468,23.043,4.106a9.59,9.59,0,0,0,5.3-5.922,1.353,1.353,0,0,1,2.631.631,12.318,12.318,0,0,1-6.749,7.723A16.334,16.334,0,0,1,203.073,423.666Z" transform="translate(-93.729 -362.992)" fill="#fff"/>
          </g>
          <g id="Grupo_75612" data-name="Grupo 75612" transform="translate(50.137 23.269)">
            <path id="Trazado_147597" data-name="Trazado 147597" d="M128.241,382.129a1.354,1.354,0,0,1-1.281-.916L119.375,359a1.353,1.353,0,0,1,2.561-.875l7.585,22.211a1.354,1.354,0,0,1-1.28,1.79Z" transform="translate(-119.302 -357.211)" fill="#fff"/>
          </g>
          <g id="Grupo_75613" data-name="Grupo 75613" transform="translate(53.928 59.803)">
            <path id="Trazado_147598" data-name="Trazado 147598" d="M147.424,400.679l-22.581-.259a1.354,1.354,0,0,1-1.338-1.368,1.333,1.333,0,0,1,1.368-1.338l22.566.259a1.353,1.353,0,0,1-.015,2.706Z" transform="translate(-123.505 -397.714)" fill="#fff"/>
          </g>
        </g>
        <g id="Grupo_75621" data-name="Grupo 75621" transform="translate(40.712 0)">
          <g id="Grupo_75616" data-name="Grupo 75616">
            <path id="Trazado_147599" data-name="Trazado 147599" d="M221.423,416.664c-43.987-17.619-69.344-42.474-96.516-81.294-5.924-8.465-11.405-17.523-13.61-27.617s-.68-21.468,6.128-29.241c10.8-12.323,31.267-11.375,44.969-2.394s22.249,23.8,30.3,38.073c20.857,37,34.7,57.34,41.143,99.319Z" transform="translate(-109.001 -267.947)" fill="#fff"/>
            <g id="Grupo_75615" data-name="Grupo 75615">
              <path id="Trazado_147600" data-name="Trazado 147600" d="M221.636,415.211A201.473,201.473,0,0,1,188,398.1a176.564,176.564,0,0,1-27.314-21.641A243.8,243.8,0,0,1,136.721,349.3q-6.052-7.881-11.7-16.07c-4.206-6.109-8.152-12.526-10.687-19.53-4.386-12.119-4.185-27.515,6.163-36.65,8.714-7.692,21.789-7.876,32.282-4.233,12.438,4.318,21.608,14.715,28.709,25.383,3.821,5.742,7.2,11.761,10.587,17.762,3.468,6.136,6.988,12.244,10.465,18.376A336.411,336.411,0,0,1,219.344,367,182.086,182.086,0,0,1,230.5,403.1c.711,3.525,1.329,7.068,1.877,10.621.265,1.716,2.873.988,2.61-.719a195.22,195.22,0,0,0-10.122-39.519,258.9,258.9,0,0,0-16.09-33.561c-3.339-6.022-6.775-11.991-10.187-17.971-3.6-6.308-7.086-12.688-10.842-18.906-7.007-11.6-15.555-23.419-27.753-29.991-10.361-5.583-23.553-7.258-34.5-2.371a27.071,27.071,0,0,0-12.961,12.268,35.84,35.84,0,0,0-3.529,19.464c1.3,14.956,10.313,27.686,18.847,39.482a293.425,293.425,0,0,0,24.179,29.659,181.783,181.783,0,0,0,59.708,42.373q4.546,2.042,9.175,3.891c1.616.649,2.318-1.967.72-2.609Z" transform="translate(-108.854 -267.798)" fill="#f7b75d"/>
            </g>
          </g>
          <g id="Grupo_75617" data-name="Grupo 75617" transform="translate(88.155 93.115)">
            <path id="Trazado_147601" data-name="Trazado 147601" d="M211.084,390.925a1.352,1.352,0,0,1-1.329-1.109l-3.149-17.191a1.353,1.353,0,1,1,2.662-.487l3.149,17.191a1.353,1.353,0,0,1-1.088,1.574A1.334,1.334,0,0,1,211.084,390.925Z" transform="translate(-206.584 -371.028)" fill="#b8b9f1"/>
          </g>
          <g id="Grupo_75618" data-name="Grupo 75618" transform="translate(50.749 40.685)">
            <path id="Trazado_147602" data-name="Trazado 147602" d="M169.769,339.4a1.354,1.354,0,0,1-1.339-1.167l-3.3-23.794a1.353,1.353,0,1,1,2.681-.372l3.3,23.794a1.353,1.353,0,0,1-1.155,1.526A1.31,1.31,0,0,1,169.769,339.4Z" transform="translate(-165.116 -312.903)" fill="#fff"/>
          </g>
          <g id="Grupo_75619" data-name="Grupo 75619" transform="translate(40.198 68.694)">
            <path id="Trazado_147603" data-name="Trazado 147603" d="M180.105,357.414a1.351,1.351,0,0,1-.528-.108l-25.334-10.753a1.353,1.353,0,0,1,1.057-2.491l25.334,10.754a1.353,1.353,0,0,1-.529,2.6Z" transform="translate(-153.418 -343.954)" fill="#f7b75d"/>
          </g>
          <g id="Grupo_75620" data-name="Grupo 75620" transform="translate(28.563 28.441)">
            <path id="Trazado_147604" data-name="Trazado 147604" d="M228.406,408.908a1.345,1.345,0,0,1-.834-.29c-29.236-22.956-84.479-103.747-86.816-107.175a1.353,1.353,0,1,1,2.235-1.525c.571.837,57.344,83.875,86.251,106.572a1.353,1.353,0,0,1-.836,2.417Z" transform="translate(-140.52 -299.328)" fill="#f7b75d"/>
          </g>
        </g>
      </g>
      <g id="Grupo_75626" data-name="Grupo 75626" transform="translate(77.3 117.556)">
        <rect id="Rectángulo_33023" data-name="Rectángulo 33023" width="177.031" height="13.443" rx="4.42" transform="translate(35.675 156.266)" fill="#b8b9f1"/>
        <rect id="Rectángulo_33024" data-name="Rectángulo 33024" width="174.067" height="13.443" rx="5.62" transform="translate(203.325 156.266)" fill="#566cd2"/>
        <g id="Grupo_75623" data-name="Grupo 75623">
          <path id="Trazado_147605" data-name="Trazado 147605" d="M186.026,398.938a.506.506,0,0,1-.5-.4L154.6,261.017a7.544,7.544,0,0,1,7.358-9.2l209.806-.077a7.5,7.5,0,0,1,7.362,5.889l31.617,140.605a.509.509,0,0,1-.5.621Z" transform="translate(-149.906 -247.231)" fill="#566cd2"/>
          <path id="Trazado_147606" data-name="Trazado 147606" d="M371.28,255.761a3.017,3.017,0,0,1,2.96,2.37l30.52,135.728-216.024.078-30.221-134.4a3.034,3.034,0,0,1,2.96-3.7l209.8-.077Zm0-9.02-209.809.077a12.055,12.055,0,0,0-11.757,14.7L180.638,399.04a5.02,5.02,0,0,0,4.9,3.918l224.227-.081a5.019,5.019,0,0,0,4.9-6.121l-31.616-140.6a12.056,12.056,0,0,0-11.761-9.411Z" transform="translate(-149.416 -246.741)" fill="#b8b9f1"/>
        </g>
        <path id="Trazado_147607" data-name="Trazado 147607" d="M199.141,427.012a2.522,2.522,0,1,1-2.522-2.522A2.522,2.522,0,0,1,199.141,427.012Z" transform="translate(-153.794 -264.156)" fill="#566cd2"/>
        <path id="Rectángulo_33025" data-name="Rectángulo 33025" d="M1.164,0h9.378a1.164,1.164,0,0,1,1.164,1.164V2.674a1.165,1.165,0,0,1-1.165,1.165H1.164A1.164,1.164,0,0,1,0,2.674V1.164A1.164,1.164,0,0,1,1.164,0Z" transform="translate(101.08 160.936)" fill="#566cd2"/>
        <path id="Rectángulo_33026" data-name="Rectángulo 33026" d="M1.164,0h9.378a1.165,1.165,0,0,1,1.165,1.165V2.674a1.165,1.165,0,0,1-1.165,1.165H1.164A1.164,1.164,0,0,1,0,2.674V1.164A1.164,1.164,0,0,1,1.164,0Z" transform="translate(125.553 160.936)" fill="#566cd2"/>
        <g id="Grupo_75624" data-name="Grupo 75624" transform="translate(39.264 167.615)">
          <path id="Trazado_147608" data-name="Trazado 147608" d="M193.531,434.637a.586.586,0,0,1,0-1.173l166.249-.9a.586.586,0,0,1,.006,1.173l-166.249.9Z" transform="translate(-192.945 -432.562)" fill="#566cd2"/>
        </g>
        <g id="Grupo_75625" data-name="Grupo 75625" transform="translate(39.36 155.364)">
          <path id="Trazado_147609" data-name="Trazado 147609" d="M525.251,420.785h-331.3a.9.9,0,1,1,0-1.8h331.3a.9.9,0,1,1,0,1.8Z" transform="translate(-193.051 -418.981)" fill="#fff"/>
        </g>
      </g>
      <g id="Grupo_75656" data-name="Grupo 75656" transform="translate(77.3)">
        <g id="Grupo_75655" data-name="Grupo 75655" clip-path="url(#clip-path)">
          <g id="Grupo_75654" data-name="Grupo 75654" transform="translate(54.184 26.634)">
            <g id="Grupo_75629" data-name="Grupo 75629" transform="translate(96.438 69.517)">
              <path id="Trazado_147610" data-name="Trazado 147610" d="M336.372,223.011c13.1,5.269,19.808,11.783,24.26,25.188,1.223,3.682,2.512,11.788,3.487,16.581,2.149,10.556,6.922,16.485,15.195,21.031,16.971,9.326,45.334,9.893,45.334,9.893l1,14.517s-65.512,28.7-86.682,4.178c-49.211-57.006-2.59-91.388-2.59-91.388Z" transform="translate(-316.398 -223.011)" fill="#fff"/>
              <path id="Trazado_147611" data-name="Trazado 147611" d="M433.692,322.93c.173.259,8.891-1.122,10.272-6.475s-9.5-11.412-9.409-11.489S433.692,322.93,433.692,322.93Z" transform="translate(-327.891 -231.041)" fill="#f698b3"/>
              <g id="Grupo_75627" data-name="Grupo 75627" transform="translate(81.862 22.352)">
                <rect id="Rectángulo_33027" data-name="Rectángulo 33027" width="3.505" height="10.451" rx="1.206" transform="translate(45.59 0) rotate(19.727)" fill="#b8b9f1"/>
                <rect id="Rectángulo_33028" data-name="Rectángulo 33028" width="109.734" height="5.119" rx="1.44" transform="translate(0 109.044) rotate(-70.067)" fill="#fff"/>
                <rect id="Rectángulo_33029" data-name="Rectángulo 33029" width="112.445" height="8.046" rx="1.391" transform="translate(2.348 111.812) rotate(-70.068)" fill="#121f54"/>
              </g>
              <path id="Trazado_147612" data-name="Trazado 147612" d="M438.515,306.54c-1.856.008-5.055,1.32-3.289,3.511-2.207.788-2.608,2.851-.313,3.855-3.011,1.6,2.563,4.5,5.623,5.887a1.718,1.718,0,0,0,2.293-.908l.2-.483c2.558.614,3.191-1.74,2.856-3.5,2.252-.029,3.9-2.929,1.823-4.5,2.88-2.511-.4-4.34-3.41-6.036C441.992,303.061,435.8,303.2,438.515,306.54Z" transform="translate(-327.859 -230.907)" fill="#f698b3"/>
              <g id="Grupo_75628" data-name="Grupo 75628" transform="translate(82.125 28.573)">
                <path id="Trazado_147613" data-name="Trazado 147613" d="M410.01,358.944l-1.632-.6a1.432,1.432,0,0,1-.852-1.822l35.891-100.56a1.914,1.914,0,0,1,2.375-1.188l1.773.548-.267.861-1.773-.548a1.015,1.015,0,0,0-1.258.63L408.376,356.827a.529.529,0,0,0,.314.672l1.632.6Z" transform="translate(-407.444 -254.687)" fill="#b8b9f1"/>
              </g>
            </g>
            <g id="Grupo_75630" data-name="Grupo 75630" transform="translate(7.096 194.869)">
              <path id="Trazado_147614" data-name="Trazado 147614" d="M243.1,707.288l35.035-7.929s-1.939-8.186-13-6.994c-7.667.826-7.644,1.038-7.644,1.038l-13.453,2.251S240.712,703.827,243.1,707.288Z" transform="translate(-219.79 -394.338)" fill="#566cd2"/>
              <path id="Trazado_147615" data-name="Trazado 147615" d="M263.366,362.16c-15.625,1.909-17.547,5.419-33.221,5.784-4.809,12.062-12.321,25.286-12.314,40.3.012,26.174-3.1,32.488,6.4,78.774,3.734,18.192,13.372,23.668,7.252,38.584-12.266,29.895,3.49,88.191,9.794,137.7l17.9-2.809s26.146-177.358,40.239-266.47c1.289-8.15-4.464-17.187-7.133-25.779C281.026,367.876,274.777,360.766,263.366,362.16Z" transform="translate(-217.352 -361.979)" fill="#121f54"/>
            </g>
            <g id="Grupo_75632" data-name="Grupo 75632" transform="translate(44.631 200.82)">
              <path id="Trazado_147616" data-name="Trazado 147616" d="M321.3,693.369l35.879-4.967s-1.911-8.193-13.308-7.009c-7.9.822-7.881,1.033-7.881,1.033l-13.875,2.243S318.881,689.9,321.3,693.369Z" transform="translate(-264.984 -399.214)" fill="#566cd2"/>
              <path id="Trazado_147617" data-name="Trazado 147617" d="M319.428,369.194c-19.169.532-37.786-1.93-56.952.411-1.173.143-2.341.3-3.511.448.222,2.154.514,4.355.949,6.648,7.107,37.455,12.145,89.752,23.989,109.393,6.673,11.065,14.972,19.914,18.32,24.538,1.607,2.22,2.215,5.3.778,7.629-17.182,27.885,5.6,83.993,13.206,135.754l16.419-2.748L346.466,515.4a64.36,64.36,0,0,0-.284-13.176c-2.046-18.746-13.785-67.823-17.3-88.8-3.444-20.575-8.281-30.967-6.939-44.523A15.386,15.386,0,0,1,319.428,369.194Z" transform="translate(-258.965 -368.576)" fill="#121f54"/>
              <g id="Grupo_75631" data-name="Grupo 75631" transform="translate(5.374 48.289)">
                <path id="Trazado_147618" data-name="Trazado 147618" d="M265.261,655.409a.282.282,0,0,1-.048,0,.338.338,0,0,1-.287-.383c1.17-8.134,28.691-199.355,31.619-208.9a31.591,31.591,0,0,1,5.689-10.684,68.911,68.911,0,0,0,7.831-13.135.338.338,0,1,1,.613.286,70.458,70.458,0,0,1-7.9,13.249,31.022,31.022,0,0,0-5.589,10.482c-2.914,9.492-31.31,206.8-31.6,208.8A.339.339,0,0,1,265.261,655.409Z" transform="translate(-264.923 -422.111)" fill="#fff"/>
              </g>
            </g>
            <g id="Grupo_75641" data-name="Grupo 75641" transform="translate(0 60.17)">
              <g id="Grupo_75633" data-name="Grupo 75633" transform="translate(19.973 2.229)">
                <path id="Trazado_147619" data-name="Trazado 147619" d="M236.438,237.5c-1.884-16.31,48.983-31.013,91.012-16.355,39.81,13.886-2.389,145.843-2.389,145.843l-7.817,1.068c-34.943,9.308-85.617-13.995-85.617-13.995S243.611,299.592,236.438,237.5Z" transform="translate(-231.628 -215.12)" fill="#b8b9f1"/>
                <path id="Trazado_147620" data-name="Trazado 147620" d="M288.728,338.3l-2.593-53.213L282.6,262.84c7.215,20.1,47.27,40.924,47.27,40.924l-.052,3.981s7.121,66.152-3.271,73.3-43.081,14.721-43.081,14.721Z" transform="translate(-236.622 -219.795)" fill="#b8b9f1" opacity="0.5" style="mix-blend-mode: multiply;isolation: isolate"/>
                <path id="Trazado_147621" data-name="Trazado 147621" d="M315.431,235.7s8.618,40.638,7.905,66.053c-.628,22.359-1.522,34.808-1.522,34.808l-5.757,10.626-4.8-15.01s.9-56-.1-66.374-3.263-28.477-3.263-28.477Z" transform="translate(-239.101 -217.136)" fill="#121f54"/>
                <path id="Trazado_147622" data-name="Trazado 147622" d="M303.518,227.287l6.471-5.985,6.258,5.841s.02,6.858-2.213,8.315-6.158,1.03-6.158,1.03S302.711,228.982,303.518,227.287Z" transform="translate(-238.663 -215.726)" fill="#121f54"/>
              </g>
              <g id="Grupo_75636" data-name="Grupo 75636">
                <path id="Trazado_147623" data-name="Trazado 147623" d="M276.6,212.649s11.951,89.241,2.347,147.463-6.837,123.765-6.837,123.765-55.775,4.769-59.8-3.69c0,0-7.852-19.024,2.645-92.21,3.965-27.643,13.14-37.554,15.821-50.877,5.076-25.225-9.682-65.7-.808-97.936,2.941-10.68,9.042-16.578,22.062-20.251C269.235,214.056,276.6,212.649,276.6,212.649Z" transform="translate(-209.486 -212.649)" fill="#fff"/>
                <g id="Grupo_75634" data-name="Grupo 75634" transform="translate(56.443 114.535)">
                  <path id="Trazado_147624" data-name="Trazado 147624" d="M273.347,492.167a.676.676,0,0,1-.675-.634c-.625-10-1.318-55.532.942-65.9,1.6-7.332,3.613-25.532,5.082-38.82.556-5.02,1.035-9.355,1.383-12.105,1.247-9.869,3.4-34.223,3.42-34.468a.676.676,0,0,1,1.348.119c-.022.244-2.176,24.624-3.426,34.519-.346,2.74-.825,7.07-1.38,12.084-1.473,13.318-3.491,31.559-5.1,38.959-2.237,10.261-1.536,55.563-.914,65.527a.675.675,0,0,1-.632.716A.343.343,0,0,1,273.347,492.167Z" transform="translate(-272.059 -339.625)" fill="#b8b9f1"/>
                </g>
                <g id="Grupo_75635" data-name="Grupo 75635" transform="translate(55.592 0.67)">
                  <path id="Trazado_147625" data-name="Trazado 147625" d="M287.628,290.075a.338.338,0,0,1-.326-.246l-12.5-44.292,3.433-8.585-7.121-10.8L276.3,213.6a.338.338,0,1,1,.625.258l-5.051,12.222L279,236.873l-3.479,8.7,12.435,44.07a.339.339,0,0,1-.234.418A.36.36,0,0,1,287.628,290.075Z" transform="translate(-271.116 -213.392)" fill="#b8b9f1"/>
                </g>
              </g>
              <g id="Grupo_75640" data-name="Grupo 75640" transform="translate(103.946 4.052)">
                <path id="Trazado_147626" data-name="Trazado 147626" d="M334.5,220.636l-9.78-3.5s17.622,59.993,4.593,116.976c-12.19,53.313,9.142,140.985,9.142,140.985l26.047-4.359s-13.018-45.686-17.233-77.45c-2.016-15.2-4.293-39.03-1.521-54.109,4.285-23.3,13.387-50.574,13.013-64.064-.4-14.323,1.514-23.84-2.048-35.716C354.754,232.864,345.952,224.123,334.5,220.636Z" transform="translate(-324.722 -217.141)" fill="#fff"/>
                <g id="Grupo_75637" data-name="Grupo 75637" transform="translate(19.466 45.704)">
                  <path id="Trazado_147627" data-name="Trazado 147627" d="M346.98,351.706a.719.719,0,0,1-.1-.007.677.677,0,0,1-.573-.767c.016-.106,1.573-10.737,4.978-25.732.843-3.716,1.892-7.748,3-12.017,2.07-7.961,4.21-16.193,5-22.448,2.159-17.154,1.027-22.038,1.017-22.085a.676.676,0,0,1,1.311-.334c.051.2,1.223,5.051-.985,22.588-.8,6.34-2.949,14.615-5.03,22.618-1.107,4.258-2.152,8.281-2.992,11.976-3.392,14.939-4.942,25.522-4.957,25.627A.677.677,0,0,1,346.98,351.706Z" transform="translate(-346.302 -267.81)" fill="#b8b9f1"/>
                </g>
                <g id="Grupo_75638" data-name="Grupo 75638" transform="translate(7.621 3.462)">
                  <path id="Trazado_147628" data-name="Trazado 147628" d="M336.982,296.148a.339.339,0,0,1-.328-.421c2.215-8.711,5.491-39.49,5.718-41.632l-7.439-11.981,5.39-4.991L333.2,221.457a.338.338,0,1,1,.616-.281l7.324,16.112-5.338,4.943,7.267,11.7-.013.115c-.034.327-3.45,32.814-5.747,41.842A.338.338,0,0,1,336.982,296.148Z" transform="translate(-333.17 -220.979)" fill="#b8b9f1"/>
                </g>
                <g id="Grupo_75639" data-name="Grupo 75639" transform="translate(9.441 3.157)">
                  <path id="Trazado_147629" data-name="Trazado 147629" d="M350.142,323.149a.348.348,0,0,1-.1-.014.338.338,0,0,1-.224-.423c.115-.373,11.491-37.589,9.714-58.819a77.691,77.691,0,0,0-1.835-20.316c-2.436-10.319-22.145-22.188-22.344-22.307a.338.338,0,1,1,.347-.58c.821.49,20.154,12.136,22.655,22.732a78.169,78.169,0,0,1,1.851,20.465c1.788,21.31-9.626,58.65-9.742,59.025A.338.338,0,0,1,350.142,323.149Z" transform="translate(-335.188 -220.641)" fill="#b8b9f1"/>
                </g>
              </g>
            </g>
            <g id="Grupo_75648" data-name="Grupo 75648" transform="translate(17.276 73.057)">
              <path id="Trazado_147630" data-name="Trazado 147630" d="M369.73,328.238a9.471,9.471,0,0,0,3.654-2.759c.518-1.022,4.067-5.212,5.737-5.554s3.234-.948,2.918.69-5.893,9.038-5.893,9.038l-6.351-.867Z" transform="translate(-242.462 -236.008)" fill="#f698b3"/>
              <g id="Grupo_75644" data-name="Grupo 75644" transform="translate(110.99 68.416)">
                <rect id="Rectángulo_33030" data-name="Rectángulo 33030" width="1.964" height="4.452" rx="0.675" transform="translate(42.693 35.655) rotate(-52.277)" fill="#b8b9f1"/>
                <rect id="Rectángulo_33031" data-name="Rectángulo 33031" width="4.964" height="55.043" rx="1.706" transform="matrix(0.612, -0.791, 0.791, 0.612, 0, 4.523)" fill="#121f54"/>
                <g id="Grupo_75642" data-name="Grupo 75642" transform="translate(0.444 0.953)">
                  <path id="Trazado_147631" data-name="Trazado 147631" d="M372.88,316.88l-3.632,4.7L352.89,308.92a1.84,1.84,0,0,1-.329-2.582l1.38-1.784a1.84,1.84,0,0,1,2.581-.329Z" transform="translate(-352.176 -303.84)" fill="#b8b9f1"/>
                  <path id="Trazado_147632" data-name="Trazado 147632" d="M355.4,303.84a1.837,1.837,0,0,0-1.456.714l-1.38,1.784a1.84,1.84,0,0,0,.329,2.582l16.357,12.654,3.632-4.7-16.358-12.654a1.834,1.834,0,0,0-1.125-.385Z" transform="translate(-352.176 -303.84)" fill="#566cd2"/>
                </g>
                <g id="Grupo_75643" data-name="Grupo 75643" transform="translate(3.914)">
                  <path id="Trazado_147633" data-name="Trazado 147633" d="M368.425,311.7a.446.446,0,0,1-.271-.09l-10.292-7.749-1.034,1.319a.451.451,0,0,1-.71-.557l1.307-1.667a.451.451,0,0,1,.626-.082l10.645,8.015a.451.451,0,0,1-.272.811Z" transform="translate(-356.022 -302.783)" fill="#566cd2"/>
                </g>
              </g>
              <g id="Grupo_75647" data-name="Grupo 75647">
                <path id="Trazado_147634" data-name="Trazado 147634" d="M359,329.544a10.521,10.521,0,0,1,5.424-1.022c.31.024,3.34,1.8,5.954.688a15.117,15.117,0,0,1,5.443-3.42c1.756-.53,2.588-1.8,4.848-2.4,1.731-.458,2.873,1.634,4.111,2.412.817.514,2.431,1.047,3,1.883a9.814,9.814,0,0,1,.694,2.373,20.232,20.232,0,0,1,.861,2.869c.1.8-1.737,2.665-1.843,3.4a33.463,33.463,0,0,1-.75,3.6c-1.075,3.1-2.833,1.691-11.215,2.074-5.988.272-19.853,1.982-19.853,1.982Z" transform="translate(-241.085 -236.38)" fill="#f698b3"/>
                <path id="Trazado_147635" data-name="Trazado 147635" d="M356.258,333.223c-53.177,7.672-83.622.04-97.912-15.974-18.52-20.755-31.984-40.116-29.387-72.5.434-5.407,7.21-14.417,9.469-15.53,11.5-5.671,21.234-.8,25.677,14.907,5.683,20.087,22.017,45.586,30.379,52.9,6.312,5.524,20.977,8.807,61.706,19.52Z" transform="translate(-228.638 -226.936)" fill="#fff"/>
                <g id="Grupo_75645" data-name="Grupo 75645" transform="translate(34.79 16.513)">
                  <path id="Trazado_147636" data-name="Trazado 147636" d="M359.97,319.018a.722.722,0,0,1-.131-.013c-2.246-.439-55.126-10.9-65.469-23.189-14.163-16.824-25.951-46.11-27.129-49.686a.676.676,0,1,1,1.284-.424c1.169,3.546,12.852,32.575,26.879,49.24,10.039,11.925,64.148,22.625,64.694,22.732a.677.677,0,0,1-.129,1.34Z" transform="translate(-267.207 -245.243)" fill="#b8b9f1"/>
                </g>
                <g id="Grupo_75646" data-name="Grupo 75646" transform="translate(10.008 62.07)">
                  <path id="Trazado_147637" data-name="Trazado 147637" d="M317.229,344.169c-17.208,0-35.861-2.327-47.025-10.747-15.545-11.723-23.957-18.682-30.432-36.769a.676.676,0,0,1,1.274-.456c6.345,17.724,14.64,24.583,29.972,36.145,23.955,18.067,85.585,7.072,86.2,6.958a.677.677,0,0,1,.243,1.331A248.377,248.377,0,0,1,317.229,344.169Z" transform="translate(-239.733 -295.748)" fill="#b8b9f1"/>
                </g>
              </g>
            </g>
            <g id="Grupo_75653" data-name="Grupo 75653" transform="translate(63.351)">
              <g id="Grupo_75652" data-name="Grupo 75652">
                <path id="Trazado_147638" data-name="Trazado 147638" d="M289.468,207.064s11.807-28.252,14.42-33.184,23.843-5.045,21.529,3.292-7.582,38.3-7.582,38.3S301.809,225.7,289.468,207.064Z" transform="translate(-280.673 -148.347)" fill="#ea759c"/>
                <g id="Grupo_75649" data-name="Grupo 75649" transform="translate(12.998 6.407)">
                  <path id="Trazado_147639" data-name="Trazado 147639" d="M317.48,208.557c4.357,1.963,10.074.057,12.868-4.162,2.17-3.278,4.775-16.008,6.7-24.593s-1.7-17.35-6.659-22.649-22.169-5.617-27.645-.092a31.458,31.458,0,0,0-8.5,23.845c.828,8.939,3.852,14.025,8.776,18.925C306.607,203.405,312.792,206.444,317.48,208.557Z" transform="translate(-294.128 -153.046)" fill="#f698b3"/>
                </g>
                <g id="Grupo_75650" data-name="Grupo 75650" transform="translate(27.778 63.566)">
                  <path id="Trazado_147640" data-name="Trazado 147640" d="M311.7,222.243s9.054-2.392,10.591-4.8l4.916,3.056s-4.883,13.218-6.831,15.16Z" transform="translate(-310.63 -216.515)" fill="#b8b9f1"/>
                  <path id="Trazado_147641" data-name="Trazado 147641" d="M320.15,236.627l-9.637-14.9.9-.238c3.4-.9,9.177-2.92,10.193-4.511l.36-.564,5.953,3.7-.191.517c-.505,1.367-4.993,13.416-6.988,15.406Zm-7.494-14.079,7.654,11.835c1.65-2.59,4.631-10.155,5.959-13.7l-3.946-2.453C320.377,220.186,314.9,221.9,312.656,222.549Z" transform="translate(-310.513 -216.414)" fill="#fff"/>
                </g>
                <g id="Grupo_75651" data-name="Grupo 75651" transform="translate(0 58.002)">
                  <path id="Trazado_147642" data-name="Trazado 147642" d="M307.931,221.846s-13.882-2.1-19.116-10.667l-7.9,3.191,17.353,22.3Z" transform="translate(-279.836 -210.337)" fill="#b8b9f1"/>
                  <path id="Trazado_147643" data-name="Trazado 147643" d="M298.2,237.748l-18.486-23.76,9.258-3.742.3.49c5.005,8.2,18.5,10.331,18.639,10.351l1.039.158ZM281.886,214.57l16.22,20.848,8.584-13.179c-3.294-.657-13.547-3.218-18.261-10.314Z" transform="translate(-279.718 -210.245)" fill="#fff"/>
                </g>
                <path id="Trazado_147644" data-name="Trazado 147644" d="M293.889,164.915c1.014-3.357,2.292-6.277,5.938-8.815a36.146,36.146,0,0,1,4.282-1.857c1.912-.918,2.054-3.248,3.54-4.763,2.36-2.4,5.977-2.949,9.324-3.339,2.341-.272,4.923-.475,6.844.89A4.014,4.014,0,0,1,325.3,150.8a.83.83,0,0,0,1.071.985,19.088,19.088,0,0,1,8.442-1.4c3.781.414,7.584,3.3,7.641,7.107a11.94,11.94,0,0,0,.042,3c.424,1.541,1.952,2.449,3.235,3.4s2.53,2.469,2.039,3.989c-.52,1.612-2.592,2.045-4.283,1.977s-3.6-.294-4.875.824a2.19,2.19,0,0,1,.22,2.832c-2.638,3.652-18.3,3.262-26.109-.953a3.222,3.222,0,0,0-4.762,2.6q-.031.52-.093,1.035c-.375,3.127-2.327,5.5-3.45,8.441-4.1,3.079-4.849,1.147-8.273,4.96C292.4,179.78,290.254,176.956,293.889,164.915Z" transform="translate(-280.923 -145.943)" fill="#121f54"/>
                <path id="Trazado_147645" data-name="Trazado 147645" d="M297.672,182.88a2.586,2.586,0,0,1,1.492-1.7,2.715,2.715,0,0,1,2.449.65,8.378,8.378,0,0,1,2.832,7.473,15.813,15.813,0,0,0-1.283,2.621,2.177,2.177,0,0,1-.613,1.06,2.045,2.045,0,0,1-1.881.255,3.281,3.281,0,0,1-1.385-1.047A9.246,9.246,0,0,1,297.672,182.88Z" transform="translate(-281.418 -149.386)" fill="#f698b3"/>
              </g>
              <path id="Trazado_147646" data-name="Trazado 147646" d="M334.723,196.148a68.572,68.572,0,0,0-10.565-2.279c-6.428-1.031-13.688-1.4-15.556-3.144s-.967-2.976-.6-6.32.691-4.909.691-4.909l-3.68,6.341s-2.7,6.9-3.923,9.34c-1.774,3.549-.13,5.227,3,7.686s9.392,9.688,19.231,9.937S334.723,196.148,334.723,196.148Z" transform="translate(-281.74 -149.231)" fill="#121f54"/>
            </g>
          </g>
        </g>
      </g>
    </g>
    <g id="Grupo_75677" data-name="Grupo 75677" transform="translate(84.417 79.96)">
      <g id="Grupo_75661" data-name="Grupo 75661" transform="translate(0 5.416)">
        <g id="Grupo_75658" data-name="Grupo 75658" transform="translate(2.756 181.855)">
          <path id="Trazado_147648" data-name="Trazado 147648" d="M94.1,294.154c-.033-.1-.817-2.4-1.731-6.155l1.754-.427c.892,3.672,1.676,5.974,1.684,6Z" transform="translate(-92.365 -287.572)" fill="#b8b9f1"/>
        </g>
        <g id="Grupo_75659" data-name="Grupo 75659">
          <path id="Trazado_147649" data-name="Trazado 147649" d="M471.04,263.3l-1.234-1.315a80.646,80.646,0,0,0,8.559-9.4l1.426,1.1A82.337,82.337,0,0,1,471.04,263.3Zm-381.234-7.84a81.219,81.219,0,0,1-.5-8.769c0-1.44.044-2.865.132-4.235l1.8.115c-.085,1.332-.128,2.719-.128,4.12a79.472,79.472,0,0,0,.485,8.575Zm397.077-12.67-1.588-.855a75.386,75.386,0,0,0,5.059-11.651l1.71.575A77.219,77.219,0,0,1,486.884,242.793ZM93.573,230.2l-1.708-.585a32.881,32.881,0,0,1,6.472-11.325l.063-.07,1.349,1.2-.063.071A31.055,31.055,0,0,0,93.573,230.2ZM495.15,218.228l-1.782-.277a74.961,74.961,0,0,0,.88-11.444q0-.614-.01-1.229l1.8-.029q.009.629.01,1.257A76.758,76.758,0,0,1,495.15,218.228Zm-386.622-8.193-1.3-1.252c2.821-2.923,5.855-6.016,9.007-9.224l1.286,1.264C114.374,204.027,111.344,207.116,108.528,210.035Zm384.446-17.4a80.828,80.828,0,0,0-3.291-12.279l1.7-.6a82.766,82.766,0,0,1,3.364,12.553Zm-366.436-1.025-1.294-1.256c3.38-3.477,6.293-6.516,8.9-9.292l1.314,1.237C132.843,185.083,129.923,188.13,126.537,191.612Zm17.642-18.832-1.349-1.2c3.144-3.546,5.857-6.75,8.291-9.8l1.409,1.128C150.077,165.984,147.344,169.212,144.179,172.781Zm340.377-4.068a94.826,94.826,0,0,0-6.718-10.82l1.467-1.051a96.878,96.878,0,0,1,6.846,11.026ZM160.178,152.445l-1.514-.981a65.731,65.731,0,0,0,3.611-6.227,47.625,47.625,0,0,1,2.849-4.906l1.505.995a45.872,45.872,0,0,0-2.741,4.718A67.435,67.435,0,0,1,160.178,152.445Zm309.606-4.436a118.054,118.054,0,0,0-9.141-8.907l1.188-1.358a120.209,120.209,0,0,1,9.282,9.044ZM174.7,131.557l-1.28-1.271a96.087,96.087,0,0,1,9.786-8.535l1.1,1.433A94.358,94.358,0,0,0,174.7,131.557Zm275.936-.392c-3.377-2.429-6.976-4.786-10.7-7.007l.925-1.549c3.764,2.247,7.406,4.633,10.825,7.091Zm-21.923-13.173c-3.794-1.95-7.676-3.836-11.539-5.606l.751-1.641c3.888,1.782,7.794,3.68,11.612,5.642ZM194.846,115.98l-.943-1.538c3.561-2.183,7.37-4.3,11.32-6.279l.809,1.612C202.129,111.737,198.364,113.824,194.846,115.98Zm210.543-8.67c-3.96-1.6-8-3.122-12-4.525l.6-1.7c4.03,1.413,8.095,2.945,12.081,4.554ZM217.68,104.455l-.691-1.666c3.9-1.617,7.975-3.149,12.1-4.552l.58,1.708C225.582,101.336,221.547,102.853,217.68,104.455Zm163.506-5.628c-4.084-1.219-8.247-2.352-12.375-3.373l.432-1.751c4.156,1.027,8.347,2.168,12.458,3.394ZM241.926,96.189l-.477-1.739c4.1-1.126,8.327-2.156,12.554-3.061l.378,1.764C250.187,94.052,246,95.074,241.926,96.189Zm114.363-3.508c-4.182-.821-8.435-1.55-12.641-2.165l.261-1.785c4.235.62,8.518,1.353,12.728,2.179Zm-89.3-1.874-.281-1.781c4.213-.667,8.522-1.233,12.807-1.683l.189,1.794C275.447,89.584,271.169,90.146,266.986,90.808Zm63.931-1.837c-4.242-.41-8.546-.72-12.793-.919l.085-1.8c4.276.2,8.611.512,12.881.925Zm-38.432-.843-.1-1.8c4.271-.227,8.615-.349,12.911-.362l.005,1.8C301.038,87.78,296.725,87.9,292.484,88.127Z" transform="translate(-89.31 -85.964)" fill="#b8b9f1"/>
        </g>
        <g id="Grupo_75660" data-name="Grupo 75660" transform="translate(365.297 184.009)">
          <path id="Trazado_147650" data-name="Trazado 147650" d="M495.2,294.872l-.915-1.554c1.794-1.056,3.568-2.186,5.271-3.358l1.023,1.487C498.84,292.643,497.031,293.8,495.2,294.872Z" transform="translate(-494.285 -289.96)" fill="#b8b9f1"/>
        </g>
      </g>
      <g id="Grupo_75668" data-name="Grupo 75668" transform="translate(303.738 0.011)">
        <g id="Grupo_75662" data-name="Grupo 75662" transform="translate(0 0)" opacity="0.4" style="mix-blend-mode: multiply;isolation: isolate">
          <circle id="Elipse_4599" data-name="Elipse 4599" cx="44.083" cy="44.083" r="44.083" transform="translate(0 62.342) rotate(-45)" fill="#b8b9f1"/>
        </g>
        <g id="Grupo_75663" data-name="Grupo 75663" transform="translate(17.093 14.42)">
          <circle id="Elipse_4600" data-name="Elipse 4600" cx="42.73" cy="42.73" r="42.73" transform="translate(1.353 1.353)" fill="#fff"/>
          <path id="Trazado_147651" data-name="Trazado 147651" d="M489.073,98.665A41.376,41.376,0,1,1,447.7,140.041a41.423,41.423,0,0,1,41.377-41.376Zm0-2.706a44.082,44.082,0,1,0,44.083,44.082,44.083,44.083,0,0,0-44.083-44.082Z" transform="translate(-444.99 -95.959)" fill="#b8b9f1"/>
        </g>
        <g id="Grupo_75667" data-name="Grupo 75667" transform="translate(21.617 18.374)">
          <g id="Grupo_75666" data-name="Grupo 75666" clip-path="url(#clip-path-2)">
            <g id="Grupo_75664" data-name="Grupo 75664" transform="translate(17.549 14.355)">
              <path id="Trazado_147652" data-name="Trazado 147652" d="M494.77,219.747l-.4-.505c-1.514-.421-9.522-.173-16.7.329l-.977.069.012-.98c.05-4.019-.8-78.081-4.212-84.316-2.161-3.946-4.592-12.834-1.746-16.493.8-1.026,2.356-2.093,5.262-1.342,5.188,1.339,10.1.718,14.04.22,3.31-.417,5.7-.719,7.183.269,3.227,2.151,2.757,10.871,0,15.158-2.213,3.89-1.376,82.186-1.26,86.446,0,.023,0,.046,0,.069v.642Zm-.59-1.074a.765.765,0,0,0,.092.364,2.6,2.6,0,0,1-.051-.364ZM474.186,118.058a2.383,2.383,0,0,0-2.008.9c-2.133,2.742-.266,10.555,1.9,14.52,3.617,6.606,4.359,75.183,4.429,84.227,7.971-.539,13.213-.63,15.657-.276-.043-1.669-.071-5-.128-11.794-.059-7.122-.125-17.937-.1-29,.079-42.787,1.322-44.721,1.79-45.45,2.353-3.665,2.661-11.251.514-12.682-.922-.615-3.254-.319-5.956.021-3.88.488-9.194,1.16-14.716-.263A5.554,5.554,0,0,0,474.186,118.058Z" transform="translate(-469.461 -116.257)" fill="#b8b9f1"/>
            </g>
            <g id="Grupo_75665" data-name="Grupo 75665" transform="translate(26.536 29.044)">
              <circle id="Elipse_4601" data-name="Elipse 4601" cx="9.881" cy="9.881" r="9.881" transform="translate(9.775 10.233)" fill="#f25e77"/>
              <path id="Trazado_147653" data-name="Trazado 147653" d="M499.652,141.335c6.87,0,12.6,5.129,12.909,11.653.314,6.675-5.17,12.282-12.249,12.525-.158.005-.318.008-.474.008-6.87,0-12.6-5.129-12.91-11.654-.313-6.674,5.171-12.282,12.249-12.525.159-.005.318-.008.475-.008Zm0-.677c-.166,0-.333,0-.5.009a13.582,13.582,0,0,0-9.62,4.331,12.221,12.221,0,0,0-3.282,8.9c.324,6.9,6.292,12.3,13.585,12.3.165,0,.332,0,.5-.009a13.589,13.589,0,0,0,9.621-4.331,12.213,12.213,0,0,0,3.281-8.9c-.324-6.9-6.291-12.3-13.584-12.3Z" transform="translate(-480.092 -133.336)" fill="#f25e77"/>
              <path id="Trazado_147654" data-name="Trazado 147654" d="M510.481,136.881a18.442,18.442,0,0,0-11.86-4.34c-.215,0-.431,0-.647.011a18.177,18.177,0,0,0-12.768,5.935c-.316.342-.6.709-.892,1.073a17.6,17.6,0,0,1,2.533.916,15.674,15.674,0,0,1,11.217-5.392c.187-.007.373-.01.557-.01a15.806,15.806,0,0,1,9.843,3.554A6.591,6.591,0,0,1,510.481,136.881Z" transform="translate(-479.903 -132.541)" fill="#f25e77"/>
              <path id="Trazado_147655" data-name="Trazado 147655" d="M519.32,154.292a17.764,17.764,0,0,1-3.019,10.59l2.323.98c.029.027.033.067.06.095a20.718,20.718,0,0,0,3.154-11.349Z" transform="translate(-483.037 -134.672)" fill="#f25e77"/>
              <path id="Trazado_147656" data-name="Trazado 147656" d="M504.674,172.478a15.243,15.243,0,0,1-4.9,1.074c-.186.006-.373.01-.557.01a16.04,16.04,0,0,1-11.365-4.836,2,2,0,0,1-.309.208,15.8,15.8,0,0,0-1.59,1.526,18.56,18.56,0,0,0,13.265,5.635q.322,0,.647-.012a17.893,17.893,0,0,0,6.256-1.423Q505.415,173.558,504.674,172.478Z" transform="translate(-480.063 -136.086)" fill="#f25e77"/>
              <path id="Trazado_147657" data-name="Trazado 147657" d="M483.45,161a18.477,18.477,0,0,1-.492-13.275c-.8-.24-1.616-.446-2.429-.648a20.892,20.892,0,0,0-1.084,7.584,21.17,21.17,0,0,0,1.928,7.948Z" transform="translate(-479.424 -133.966)" fill="#f25e77"/>
            </g>
          </g>
        </g>
      </g>
      <g id="Grupo_75673" data-name="Grupo 75673" transform="translate(8.881)">
        <g id="Grupo_75669" data-name="Grupo 75669" transform="translate(2.207 5.278)" opacity="0.4" style="mix-blend-mode: multiply;isolation: isolate">
          <circle id="Elipse_4603" data-name="Elipse 4603" cx="58.84" cy="58.84" r="58.84" fill="#b8b9f1"/>
        </g>
        <g id="Grupo_75670" data-name="Grupo 75670">
          <circle id="Elipse_4604" data-name="Elipse 4604" cx="57.487" cy="57.487" r="57.487" transform="translate(1.353 1.353)" fill="#fff"/>
          <path id="Trazado_147658" data-name="Trazado 147658" d="M158,82.666A56.134,56.134,0,1,1,101.862,138.8,56.2,56.2,0,0,1,158,82.666Zm0-2.706a58.84,58.84,0,1,0,58.84,58.84A58.84,58.84,0,0,0,158,79.96Z" transform="translate(-99.156 -79.96)" fill="#b8b9f1"/>
        </g>
        <path id="Trazado_147659" data-name="Trazado 147659" d="M196.73,115.9a2.017,2.017,0,0,1,2.014,2.014v48.458a2.017,2.017,0,0,1-2.014,2.014H127.482a2.017,2.017,0,0,1-2.015-2.014V117.916a2.017,2.017,0,0,1,2.015-2.014Zm0-1.8H127.482a3.819,3.819,0,0,0-3.819,3.818v48.458a3.819,3.819,0,0,0,3.819,3.818H196.73a3.818,3.818,0,0,0,3.818-3.818V117.916a3.818,3.818,0,0,0-3.818-3.818Z" transform="translate(-101.557 -83.305)" fill="#b8b9f1"/>
        <g id="Grupo_75671" data-name="Grupo 75671" transform="translate(23.265 49.355)">
          <path id="Trazado_147660" data-name="Trazado 147660" d="M154.633,157.34a.456.456,0,0,1-.428-.307l-4.7-13.846-2.306,3.374a.444.444,0,0,1-.387.2.451.451,0,0,1-.374-.221l-1.7-2.881-1.568,2.591a.451.451,0,0,1-.8-.06l-2.194-5.307-5.313,10.631a.452.452,0,0,1-.381.249.433.433,0,0,1-.4-.209l-3.179-5-5.126,7.756a.451.451,0,1,1-.752-.5l5.51-8.336a.45.45,0,0,1,.757.006l3.123,4.917,5.4-10.8a.411.411,0,0,1,.419-.248.45.45,0,0,1,.4.278l2.232,5.4,1.5-2.473a.452.452,0,0,1,.775,0l1.721,2.919,2.417-3.533a.451.451,0,0,1,.8.11l4.587,13.52,4.589-11.967a.451.451,0,0,1,.824-.04l2.655,5.326,3.894-8.645a.452.452,0,0,1,.8-.041l4.757,8.241,4.341-13.449a.442.442,0,0,1,.447-.312.452.452,0,0,1,.421.346l3.374,14.14,3.494-7.461a.451.451,0,0,1,.845.082l1.128,4.514,1.88-2.334a.452.452,0,0,1,.314-.166.435.435,0,0,1,.336.112c.212.187.493.475.81.8.639.658,1.932,2.029,2.439,1.993.584-.04,2.122-1.7,2.95-2.6.421-.455.785-.849,1.04-1.075a.451.451,0,0,1,.713.155l1.343,3.062a3.352,3.352,0,0,0,.643-.656.451.451,0,0,1,.767.476,4.323,4.323,0,0,1-.882.915c-.134.115-.265.226-.376.335a.452.452,0,0,1-.729-.142l-1.327-3.025c-.16.168-.338.361-.529.567-1.478,1.6-2.679,2.828-3.551,2.888-.814.056-1.866-.946-3.147-2.264-.15-.153-.29-.3-.419-.428l-2.14,2.657a.451.451,0,0,1-.789-.173l-1.04-4.162-3.5,7.48a.451.451,0,0,1-.847-.087l-3.3-13.832-4.159,12.884a.451.451,0,0,1-.819.087l-4.825-8.357-3.925,8.71a.452.452,0,0,1-.4.265.443.443,0,0,1-.413-.25l-2.62-5.26-4.669,12.175A.453.453,0,0,1,154.633,157.34Z" transform="translate(-124.948 -134.675)" fill="#b8b9f1"/>
        </g>
        <g id="Grupo_75672" data-name="Grupo 75672" transform="translate(19.63 34.684)">
          <path id="Trazado_147661" data-name="Trazado 147661" d="M153.4,158.545a.452.452,0,0,1-.442-.36l-5.169-25.067-2.524,6.072a.474.474,0,0,1-.428.278.449.449,0,0,1-.413-.3l-1.863-5.2-1.718,4.669a.444.444,0,0,1-.447.295.451.451,0,0,1-.413-.341l-2.421-9.636-5.834,19.2a.449.449,0,0,1-.415.319.435.435,0,0,1-.437-.288l-3.479-9.008-5.611,13.964a.451.451,0,1,1-.837-.336l6.038-15.027a.485.485,0,0,1,.421-.282.45.45,0,0,1,.418.288l3.42,8.856,5.926-19.508a.456.456,0,0,1,.443-.319.451.451,0,0,1,.426.341l2.462,9.8,1.643-4.463a.451.451,0,0,1,.848,0l1.888,5.267,2.638-6.348a.451.451,0,0,1,.858.082l5.05,24.492,5.054-21.675a.451.451,0,0,1,.425-.348.441.441,0,0,1,.446.32l2.92,9.641,4.283-15.64a.45.45,0,0,1,.419-.331.435.435,0,0,1,.442.3l5.221,14.876,4.779-24.361a.436.436,0,0,1,.454-.364.451.451,0,0,1,.436.386l3.723,25.668,3.851-13.529a.451.451,0,0,1,.879.056l1.26,8.3,2.048-4.184a.451.451,0,0,1,.778-.057c.228.333.532.846.875,1.427.627,1.061,2.1,3.548,2.638,3.62.617-.113,2.431-3.341,3.2-4.72.457-.815.853-1.518,1.126-1.917a.451.451,0,0,1,.808.138l1.492,5.6a5.6,5.6,0,0,0,.7-1.2.451.451,0,0,1,.844.318,7.207,7.207,0,0,1-.922,1.563c-.151.211-.3.416-.421.615a.456.456,0,0,1-.449.208.451.451,0,0,1-.37-.33l-1.472-5.52c-.166.29-.351.618-.548.968-1.662,2.96-2.915,5.063-3.9,5.175-.956.116-2.012-1.537-3.5-4.058-.149-.252-.29-.491-.42-.707l-2.329,4.755a.451.451,0,0,1-.851-.13l-1.165-7.672-3.86,13.561a.466.466,0,0,1-.464.327.451.451,0,0,1-.417-.385l-3.646-25.138L173.2,144.937a.45.45,0,0,1-.41.364.445.445,0,0,1-.458-.3l-5.291-15.077-4.314,15.754a.451.451,0,0,1-.867.012l-2.884-9.525L153.841,158.2A.45.45,0,0,1,153.4,158.545Z" transform="translate(-120.918 -118.411)" fill="#566cd2"/>
        </g>
        <path id="Trazado_147662" data-name="Trazado 147662" d="M182.995,176.658a.247.247,0,0,1,.247.247v6.677a.247.247,0,0,1-.247.246H146.027a.247.247,0,0,1-.247-.246v-6.677a.247.247,0,0,1,.247-.247Zm0-1.8H146.027a2.053,2.053,0,0,0-2.051,2.051v6.677a2.053,2.053,0,0,0,2.051,2.05h36.968a2.053,2.053,0,0,0,2.051-2.05v-6.677a2.053,2.053,0,0,0-2.051-2.051Z" transform="translate(-103.547 -89.257)" fill="#b8b9f1"/>
      </g>
      <g id="Grupo_75676" data-name="Grupo 75676" transform="translate(473.336 26.343)">
        <g id="Grupo_75675" data-name="Grupo 75675">
          <g id="Grupo_75674" data-name="Grupo 75674" transform="translate(1.962 1.971)">
            <circle id="Elipse_4605" data-name="Elipse 4605" cx="23.422" cy="23.422" r="23.422" transform="translate(0 15.28) rotate(-19.037)" fill="#fff"/>
            <path id="Trazado_147663" data-name="Trazado 147663" d="M646.56,166.45a24.775,24.775,0,1,1,24.775-24.776A24.8,24.8,0,0,1,646.56,166.45Zm0-46.845a22.069,22.069,0,1,0,22.069,22.069A22.093,22.093,0,0,0,646.56,119.605Z" transform="translate(-616.779 -111.893)" fill="#b8b9f1"/>
          </g>
          <path id="Trazado_147664" data-name="Trazado 147664" d="M642.567,175.9a30.163,30.163,0,0,1-22.172-14.586c-.022.085-.039.168-.065.253a2,2,0,0,1-.987,1.171A31.8,31.8,0,0,0,642.115,177.5C642.263,176.967,642.41,176.433,642.567,175.9Z" transform="translate(-614.578 -114.274)" fill="#b8b9f1"/>
          <path id="Trazado_147665" data-name="Trazado 147665" d="M681.977,147.375a29.9,29.9,0,0,1-4.74,13.645c.365.438.738.87,1.116,1.3a31.531,31.531,0,0,0,5.293-15.167A13.4,13.4,0,0,1,681.977,147.375Z" transform="translate(-620.25 -112.886)" fill="#b8b9f1"/>
          <path id="Trazado_147666" data-name="Trazado 147666" d="M632.588,112.433c0-.02.005-.04.006-.06a31.79,31.79,0,0,0-18.535,28.461,7.153,7.153,0,0,0,1.652-.434,30.153,30.153,0,0,1,17.152-26.347A5.146,5.146,0,0,1,632.588,112.433Z" transform="translate(-614.06 -109.478)" fill="#b8b9f1"/>
          <path id="Trazado_147667" data-name="Trazado 147667" d="M648.411,109.164a31.632,31.632,0,0,0-7.738.961c.124.537.227,1.077.306,1.621a29.992,29.992,0,0,1,29.405,8.611,1.806,1.806,0,0,1,1.109-1.217A31.656,31.656,0,0,0,648.411,109.164Z" transform="translate(-616.668 -109.164)" fill="#b8b9f1"/>
          <path id="Trazado_147668" data-name="Trazado 147668" d="M672.566,166a30.1,30.1,0,0,1-19.053,10.338,5.359,5.359,0,0,1,.175,1.634,31.734,31.734,0,0,0,19.968-10.721C673.29,166.838,672.925,166.422,672.566,166Z" transform="translate(-617.925 -114.733)" fill="#b8b9f1"/>
        </g>
        <rect id="Rectángulo_33032" data-name="Rectángulo 33032" width="7.648" height="28.704" rx="3.136" transform="translate(36.299 45.707) rotate(180)" fill="#566cd2"/>
        <rect id="Rectángulo_33033" data-name="Rectángulo 33033" width="7.648" height="28.704" rx="3.136" transform="translate(46.827 27.531) rotate(90)" fill="#566cd2"/>
      </g>
    </g>
    <g id="Grupo_75706" data-name="Grupo 75706" transform="translate(469.284 191.307)">
      <g id="Grupo_75678" data-name="Grupo 75678" transform="translate(50.631 77.745)">
        <path id="Trazado_147669" data-name="Trazado 147669" d="M578.151,292.583c8.39-.834,16.372-2.944,24.861-2.99.52,0,1.037,0,1.556,0,.023.952.018,1.929-.044,2.952-1.015,16.73-.3,39.819-4.374,49.044-2.294,5.2-5.42,9.518-6.624,11.721a3.574,3.574,0,0,0,.086,3.371c7.591,14.8-5.16,35.229-7.374,60.327l-7.917.239-6.026-61.818c-.429-1.95.037-1.474,0-3.473-.151-8.29,3.413-28.757,3.777-38.1.357-9.165.915-9.4.648-15.241C577.078,298.636,577.765,292.622,578.151,292.583Z" transform="translate(-572.111 -289.592)" fill="#121f54"/>
        <path id="Trazado_147670" data-name="Trazado 147670" d="M587.534,433.689l-12.559.181s.225-2.909,4.193-3.1a15.049,15.049,0,0,1,2.756-.06l4.874.041S588.181,432.374,587.534,433.689Z" transform="translate(-572.392 -303.416)" fill="#2748b3"/>
      </g>
      <g id="Grupo_75680" data-name="Grupo 75680" transform="translate(64.757 75.057)">
        <path id="Trazado_147671" data-name="Trazado 147671" d="M602,286.612c6.92-.037,15.532,3.1,22.387,2.382.06,4.9,1.973,2.8,3.925,15.633,1.1,7.238-1.082,12.581-3.775,26.429-1,5.118-.936,9.781-1.87,17.25-.739,5.906.821,5.744,2.335,7.811,7.26,9.905,5.046,23.192,3.393,60.6h-7.933s-21.3-76.123-32.41-114.2c-1.016-3.483.99-7.745,1.677-11.64C594.617,290.088,596.947,286.639,602,286.612Z" transform="translate(-587.772 -286.612)" fill="#121f54"/>
        <g id="Grupo_75679" data-name="Grupo 75679" transform="translate(2.894 33.31)">
          <path id="Trazado_147672" data-name="Trazado 147672" d="M620.777,420.643a.452.452,0,0,1-.433-.325c-1.033-3.531-25.3-86.5-25.521-88.893-.2-2.231-3.723-7.12-3.758-7.169a.451.451,0,0,1,.731-.529c.151.209,3.7,5.14,3.926,7.616.169,1.85,16.746,58.843,25.489,88.722a.451.451,0,0,1-.307.559A.442.442,0,0,1,620.777,420.643Z" transform="translate(-590.98 -323.54)" fill="#fff"/>
        </g>
        <path id="Trazado_147673" data-name="Trazado 147673" d="M632.21,433.689l-12.559.181s.225-2.909,4.193-3.1a15.049,15.049,0,0,1,2.756-.06l4.874.041S632.857,432.374,632.21,433.689Z" transform="translate(-590.895 -300.728)" fill="#2748b3"/>
      </g>
      <g id="Grupo_75682" data-name="Grupo 75682" transform="translate(0 27.183)">
        <path id="Trazado_147674" data-name="Trazado 147674" d="M569.859,233.537s-6.133,4.257-7.683,10.083-.089,20.333.473,33.794c.43,10.316,15.792,9.533,16.1-4.345C579,261.437,576.181,236.563,569.859,233.537Z" transform="translate(-520.44 -233.537)" fill="#b8b9f1"/>
        <g id="Grupo_75681" data-name="Grupo 75681" transform="translate(0 17.899)">
          <path id="Trazado_147675" data-name="Trazado 147675" d="M516.517,256.607c.687-.716,1.189-.654,3.521.031,2.107.619,3.438,1.414,4.671.634.168-.105-.047-.018.168-.105-.622-.778-.622-.778-1-1.049-.759-.538-1.323-1.339-.982-2,.49-.946,1.595-.4,3.521.668a61.373,61.373,0,0,1,9.146,6.863l3.273,2.126-4.714,5.538c-1.919-1.431-5.38-3.411-5.38-3.411a13.69,13.69,0,0,1-7.377-2c-1.087-.461-2.889-3.01-3.589-3.66a4.7,4.7,0,0,1-.964-1.181C516.113,257.793,516.085,257.056,516.517,256.607Z" transform="translate(-516.006 -253.405)" fill="#f698b3"/>
          <path id="Trazado_147676" data-name="Trazado 147676" d="M534.125,269.6l-.17-.125c-1.76-1.312-4.868-3.116-5.306-3.367a13.151,13.151,0,0,1-6.889-1.754c-.21-.115-.38-.21-.515-.267a10.679,10.679,0,0,1-2.723-2.646c-.385-.461-.718-.859-.932-1.057a4.851,4.851,0,0,1-1.012-1.246c-.7-1.287-.785-2.15-.249-2.708.811-.845,1.5-.691,3.746-.03.472.138.9.286,1.306.422,1.321.449,2.279.775,3.135.266a2.906,2.906,0,0,0-.8-.808c-.993-.7-1.406-1.6-1.052-2.286a1.056,1.056,0,0,1,.635-.563c.7-.209,1.671.289,3.2,1.137a62.009,62.009,0,0,1,9.187,6.893l3.459,2.244ZM517.59,256.3a1.157,1.157,0,0,0-.935.442c-.239.248-.465.745.324,2.186a4.5,4.5,0,0,0,.919,1.123,14.548,14.548,0,0,1,.971,1.1,10.831,10.831,0,0,0,2.553,2.519c.145.061.329.162.557.288a12.756,12.756,0,0,0,6.732,1.7h.06l.051.03c.033.019,3.3,1.891,5.233,3.3l4.411-5.183-3.057-1.986a62.012,62.012,0,0,0-9.133-6.855c-1.336-.742-2.322-1.257-2.845-1.1a.61.61,0,0,0-.365.337c-.278.538.258,1.247.912,1.711a3.881,3.881,0,0,1,1.05,1.092l.188.235-.312.127a.637.637,0,0,1-.1.075c-1.05.663-2.159.286-3.568-.192-.4-.135-.824-.281-1.288-.417A10.077,10.077,0,0,0,517.59,256.3Z" transform="translate(-515.981 -253.38)" fill="#fff"/>
        </g>
        <path id="Trazado_147677" data-name="Trazado 147677" d="M572.43,287.625c7.534.05,9.6-7.508,3.583-12.261l-.042-.036c-1.816-1.592-4.954-4.692-7.261-5.4-9.863-3.038-12.3-1.321-33.424-10.064l-3.442,8.017s10.03,8.281,18.391,12.552C564.11,287.517,564.586,287.575,572.43,287.625Z" transform="translate(-517.535 -236.116)" fill="#b8b9f1"/>
      </g>
      <g id="Grupo_75688" data-name="Grupo 75688" transform="translate(44.422 20.439)">
        <path id="Trazado_147678" data-name="Trazado 147678" d="M617.244,235.328c-.5-3.1-3.508-6.155-6.7-7.449-8.646-3.508-25.871-1.874-39.253,4.323-4.494,2.082-7.02,8.17-5.727,14.679,1.172,5.894,2.008,8.593,4.078,16.222,4.156,15.325,6.4,29.284,6.4,29.284l5.867.325a35.941,35.941,0,0,1,4.556.244c15.785,1.719,35.954-8.941,35.954-8.941A452.506,452.506,0,0,0,617.244,235.328Z" transform="translate(-565.228 -226.061)" fill="#566cd2"/>
        <path id="Trazado_147679" data-name="Trazado 147679" d="M574.057,231.363s1.191,10.383,11.783,19.585c0,0,10.032-15.255,8.512-24.7C594.352,226.244,581.664,228.449,574.057,231.363Z" transform="translate(-566.093 -226.079)" fill="#fff"/>
        <g id="Grupo_75683" data-name="Grupo 75683" transform="translate(10.381 56.55)">
          <path id="Trazado_147680" data-name="Trazado 147680" d="M584.791,299.6c-4.306,0-7.249-.22-7.639-.252a.451.451,0,0,1,.071-.9c.327.026,32.828,2.445,45.778-9.579a.451.451,0,1,1,.614.661C614.2,298.274,595.376,299.6,584.791,299.6Z" transform="translate(-576.737 -288.753)" fill="#fff"/>
        </g>
        <g id="Grupo_75686" data-name="Grupo 75686" transform="translate(7.964 0.165)">
          <g id="Grupo_75685" data-name="Grupo 75685" clip-path="url(#clip-path-3)">
            <g id="Grupo_75684" data-name="Grupo 75684" transform="translate(5.935 7.627)">
              <path id="Trazado_147681" data-name="Trazado 147681" d="M581.212,235.205s1.213,2.23,1.9,3.323,3.659-2.089,2.782-3.287S581.212,235.205,581.212,235.205Z" transform="translate(-580.693 -234.699)" fill="#f7b75d"/>
              <path id="Trazado_147682" data-name="Trazado 147682" d="M585.212,237.045s4.743,9.839,3.632,12.395a20.31,20.31,0,0,1-4.887,7.284l-3.319-5.827,2.42-12.792Z" transform="translate(-580.637 -234.929)" fill="#f7b75d"/>
            </g>
          </g>
        </g>
        <g id="Grupo_75687" data-name="Grupo 75687" transform="translate(7.092 1.803)">
          <path id="Trazado_147684" data-name="Trazado 147684" d="M585.758,251.62l-.253-.257c-.469-.476-11.505-11.74-12.415-17.334l.668-.108c.8,4.929,10.291,14.959,11.974,16.706,6.241-7.285,8.505-22.413,8.528-22.567l.669.1c-.094.645-2.372,15.869-8.932,23.194Z" transform="translate(-573.09 -228.06)" fill="#b8b9f1"/>
        </g>
      </g>
      <g id="Grupo_75700" data-name="Grupo 75700" transform="translate(44.392)">
        <path id="Trazado_147685" data-name="Trazado 147685" d="M578.06,231.729s-6.909-15.269-7.95-17.893,5.882-10.832,8.332-7.206c1.877,2.779,9.035,10.83,11.421,15.72.705,1.444,1.811,1.957.676,4.083C588.976,229.357,585.553,232.64,578.06,231.729Z" transform="translate(-565.667 -203.629)" fill="#ea759c"/>
        <path id="Trazado_147686" data-name="Trazado 147686" d="M570.6,224.849s-11.927-13.179-.355-18.154c4.275-1.837,1.163,7.7,1.163,7.7L569.43,221.6Z" transform="translate(-565.196 -203.701)" fill="#e0e0e0"/>
        <g id="Grupo_75689" data-name="Grupo 75689" transform="translate(1.6 0.649)">
          <path id="Trazado_147687" data-name="Trazado 147687" d="M580.012,232.019a6.015,6.015,0,0,1-5.979-2.144,36.694,36.694,0,0,1-5.83-10.895c-2.1-7.16-1.309-8.244.8-11.245s11.664-4.927,14.792-2.542,4.74,8.715,4.949,13.252-.513,5.067-2.1,8.194C585.273,229.347,582.266,231.638,580.012,232.019Z" transform="translate(-566.97 -204.121)" fill="#f698b3"/>
        </g>
        <g id="Grupo_75692" data-name="Grupo 75692" transform="translate(5.791 0.537)">
          <path id="Trazado_147688" data-name="Trazado 147688" d="M583.144,204.9a3.459,3.459,0,0,0-1.173,4.2,23.614,23.614,0,0,0,3.688,5.988c1.9,2.2,3.129,1.279,4.561,5.684a16.033,16.033,0,0,0,.281-9.657c-1.042-4.071-3.643-8.508-6.62-6.693C583.612,204.58,583.367,204.741,583.144,204.9Z" transform="translate(-572.603 -203.997)" fill="#e0e0e0"/>
          <path id="Trazado_147689" data-name="Trazado 147689" d="M571.616,226.384s.4-1.485,3.339-2.964,5.054-.048,7.34-1.048,3.136-1.965,1.4-7.506,1.127-.451,1.127-.451,1.042,4.514,2.576,6.431,1.737,2.9.124,5.74c-1.476,2.6-2.167,4.491-7.052,6.232-1.216.433-4.324.1-5.306-.678C573.554,230.873,572.857,229.256,571.616,226.384Z" transform="translate(-571.616 -204.809)" fill="#e0e0e0"/>
          <g id="Grupo_75691" data-name="Grupo 75691" transform="translate(7.792 9.137)">
            <g id="Grupo_75690" data-name="Grupo 75690" transform="translate(0 0)">
              <rect id="Rectángulo_33034" data-name="Rectángulo 33034" width="7.952" height="0.451" transform="matrix(0.921, -0.389, 0.389, 0.921, 0, 3.09)" fill="#566cd2"/>
            </g>
          </g>
          <path id="Trazado_147690" data-name="Trazado 147690" d="M586.49,215.907a2.23,2.23,0,0,1,1.163-2.592,1.489,1.489,0,0,1,.842-.142,1.844,1.844,0,0,1,1.25,1.171,4.66,4.66,0,0,1-.216,4.194c-.223.382-.483.851-.917.929C587.3,219.706,586.49,215.907,586.49,215.907Z" transform="translate(-573.065 -204.895)" fill="#f698b3"/>
        </g>
        <g id="Grupo_75699" data-name="Grupo 75699" transform="translate(1.383 11.212)">
          <g id="Grupo_75693" data-name="Grupo 75693" transform="translate(14.974 8.872)">
            <path id="Trazado_147691" data-name="Trazado 147691" d="M584.317,233.695s7.9-3.555,8.114-7.634l3.884.18-3.884,10.469Z" transform="translate(-583.427 -225.707)" fill="#fff"/>
            <path id="Trazado_147692" data-name="Trazado 147692" d="M592.533,237.107l-9.2-3.42.751-.338c.077-.035,7.715-3.518,7.914-7.344l.018-.336,4.682.218Zm-7.451-3.491,7.052,2.62,3.605-9.718-3.1-.143C592.147,229.757,587.018,232.641,585.083,233.617Z" transform="translate(-583.33 -225.668)" fill="#b8b9f1"/>
          </g>
          <g id="Grupo_75694" data-name="Grupo 75694" transform="translate(4.94 13.975)">
            <path id="Trazado_147693" data-name="Trazado 147693" d="M582.281,234.2s-5.1.644-7.165-2.389l-2.4,1.223,3.6,6.98Z" transform="translate(-572.256 -231.372)" fill="#fff"/>
            <path id="Trazado_147694" data-name="Trazado 147694" d="M576.167,240.526l-3.961-7.688,2.972-1.513.168.246c1.922,2.829,6.793,2.25,6.843,2.243l1-.126Zm-3.048-7.394,3.231,6.272,4.989-4.857c-1.56.042-4.7-.19-6.376-2.352Z" transform="translate(-572.206 -231.325)" fill="#b8b9f1"/>
          </g>
          <g id="Grupo_75698" data-name="Grupo 75698">
            <g id="Grupo_75695" data-name="Grupo 75695" transform="translate(6.991)">
              <path id="Trazado_147695" data-name="Trazado 147695" d="M579.972,218.952a2.372,2.372,0,1,1-2.372-2.372A2.373,2.373,0,0,1,579.972,218.952Z" transform="translate(-574.552 -215.905)" fill="#fff" opacity="0.3"/>
              <path id="Trazado_147696" data-name="Trazado 147696" d="M577.526,216.507a2.372,2.372,0,1,1-2.372,2.372,2.372,2.372,0,0,1,2.372-2.372Zm0-.675a3.047,3.047,0,1,0,3.047,3.047,3.051,3.051,0,0,0-3.047-3.047Z" transform="translate(-574.479 -215.832)" fill="#566cd2"/>
            </g>
            <g id="Grupo_75696" data-name="Grupo 75696" transform="translate(0 2.769)">
              <path id="Trazado_147697" data-name="Trazado 147697" d="M572.2,222.021a2.362,2.362,0,1,1-2.362-2.372A2.367,2.367,0,0,1,572.2,222.021Z" transform="translate(-566.802 -218.975)" fill="#fff" opacity="0.3"/>
              <path id="Trazado_147698" data-name="Trazado 147698" d="M569.765,219.576a2.372,2.372,0,1,1-2.361,2.372,2.368,2.368,0,0,1,2.361-2.372Zm0-.674a3.047,3.047,0,1,0,3.035,3.046,3.045,3.045,0,0,0-3.035-3.046Z" transform="translate(-566.729 -218.902)" fill="#566cd2"/>
            </g>
            <g id="Grupo_75697" data-name="Grupo 75697" transform="translate(5.504 3.91)">
              <path id="Trazado_147699" data-name="Trazado 147699" d="M573.115,221.37l-.284-.35a4.611,4.611,0,0,1,2.3-.853l-.016.451A4.277,4.277,0,0,0,573.115,221.37Z" transform="translate(-572.831 -220.167)" fill="#566cd2"/>
            </g>
          </g>
        </g>
        <path id="Trazado_147700" data-name="Trazado 147700" d="M566.42,208.958s1.707-3.192,6.646-4.394c4.975-1.21,12.282-2.655,12,2.4C584.85,210.743,562.859,216.371,566.42,208.958Z" transform="translate(-565.277 -203.402)" fill="#e0e0e0"/>
      </g>
      <g id="Grupo_75702" data-name="Grupo 75702" transform="translate(87.272 69.702)">
        <ellipse id="Elipse_4606" data-name="Elipse 4606" cx="6.134" cy="7.721" rx="6.134" ry="7.721" transform="translate(6.035 5.121)" fill="#f25e77"/>
        <g id="Grupo_75701" data-name="Grupo 75701" transform="translate(3.581 2.941)">
          <path id="Trazado_147701" data-name="Trazado 147701" d="M624.662,303.737c-4.388,0-7.959-4.442-7.959-9.9s3.57-9.9,7.959-9.9,7.958,4.442,7.958,9.9S629.05,303.737,624.662,303.737Zm0-18.9c-3.891,0-7.057,4.037-7.057,9s3.165,9,7.057,9,7.056-4.037,7.056-9S628.552,284.837,624.662,284.837Z" transform="translate(-616.703 -283.935)" fill="#f25e77"/>
        </g>
        <path id="Trazado_147702" data-name="Trazado 147702" d="M623.554,281.737a7.484,7.484,0,0,1,3.326.8c.064-.228.11-.461.187-.685.038-.112.089-.222.131-.335a8.495,8.495,0,0,0-3.643-.843,8.861,8.861,0,0,0-5.618,2.088c.309.2.617.409.916.628A7.757,7.757,0,0,1,623.554,281.737Z" transform="translate(-613.243 -280.675)" fill="#f25e77"/>
        <path id="Trazado_147703" data-name="Trazado 147703" d="M620.324,305.229c-3.777-1.483-6.53-5.969-6.53-11.259a13.594,13.594,0,0,1,2.537-8.08c-.29-.2-.577-.4-.873-.587a14.63,14.63,0,0,0-2.726,8.668c0,5.778,3.081,10.675,7.3,12.282C620.13,305.909,620.227,305.569,620.324,305.229Z" transform="translate(-612.733 -281.128)" fill="#f25e77"/>
        <path id="Trazado_147704" data-name="Trazado 147704" d="M629.69,305.333a8.011,8.011,0,0,1-5.473,2.375q-.153.525-.3,1.052c.074,0,.147.014.222.014a8.984,8.984,0,0,0,6.071-2.486A1.508,1.508,0,0,1,629.69,305.333Z" transform="translate(-613.829 -283.091)" fill="#f25e77"/>
        <path id="Trazado_147705" data-name="Trazado 147705" d="M634,289.7a1.318,1.318,0,0,1,.594-.157,12.4,12.4,0,0,0-3.4-5.558q-.162.548-.292,1.105a11.591,11.591,0,0,1,2.773,4.9A1.258,1.258,0,0,1,634,289.7Z" transform="translate(-614.512 -280.999)" fill="#ef3f3f"/>
      </g>
      <g id="Grupo_75705" data-name="Grupo 75705" transform="translate(80.369 20.969)">
        <g id="Grupo_75703" data-name="Grupo 75703" transform="translate(16.993 47.23)">
          <path id="Trazado_147706" data-name="Trazado 147706" d="M629.614,302.885c-.853.16-1.756-2.613-2.481-4.933-.5-1.6-1.154-2.047-.6-4.663.831-2.919.371-5.836,0-6.124-2.34-1.821-2.626-3.934-2.2-4.431.483-.566.507-.209,2.442.846,4.173,2.275,3.22-.872,3.22-.872l2.043-3.327,5.655,4.573c-1.382,1.955-3.275,5.465-3.275,5.465-.668,2.418-1.491,6.6-1.818,7.426-.433,1.1-1.192,3.5-1.825,4.218S630.227,302.771,629.614,302.885Z" transform="translate(-623.943 -279.046)" fill="#f698b3"/>
          <path id="Trazado_147707" data-name="Trazado 147707" d="M629.516,303.081c-.952,0-1.722-2.217-2.622-5.1-.111-.357-.23-.654-.345-.94a5.4,5.4,0,0,1-.26-3.837c.832-2.928.338-5.648.079-5.9a5.7,5.7,0,0,1-2.437-3.735,1.371,1.371,0,0,1,.206-1.018c.472-.552.749-.381,1.491.076.29.179.685.422,1.229.719,1.849,1.009,2.513.845,2.745.657.418-.34.154-1.257.152-1.266l-.03-.1,2.232-3.632,6.019,4.867-.122.172c-1.358,1.922-3.244,5.408-3.262,5.443-.3,1.109-.659,2.685-.975,4.076-.352,1.544-.655,2.878-.832,3.325-.1.253-.216.577-.345.934a13.57,13.57,0,0,1-1.519,3.351,2.915,2.915,0,0,0-.5.946c-.158.422-.322.86-.787.947A.631.631,0,0,1,629.516,303.081Zm-4.8-20.414c-.088,0-.143.064-.24.177a1.008,1.008,0,0,0-.1.68,5.471,5.471,0,0,0,2.268,3.427c.522.406.881,3.539.078,6.363a4.97,4.97,0,0,0,.241,3.561c.113.281.24.6.357.973.45,1.441,1.494,4.782,2.186,4.782.244-.042.337-.269.486-.666a3.308,3.308,0,0,1,.585-1.086,13.868,13.868,0,0,0,1.432-3.207c.132-.36.25-.688.352-.944.163-.415.477-1.8.81-3.26.318-1.4.677-2.978,1-4.143.037-.08,1.826-3.392,3.188-5.363l-5.292-4.278-1.859,3.025c.072.3.226,1.2-.326,1.644-.574.467-1.634.267-3.245-.611-.555-.3-.957-.55-1.25-.731C625,282.772,624.833,282.668,624.719,282.668Z" transform="translate(-623.918 -279.009)" fill="#fff"/>
        </g>
        <path id="Trazado_147708" data-name="Trazado 147708" d="M609.709,226.649s6.873.488,19.313,9.029c10.175,6.986,21.757,14.414,21.253,20.928-.687,8.878-1.891,10.22-15.7,26.819l-6.615-6.686s.405-5.335,3.793-15.7c0,0-24.285-5.7-26.385-19.926C603.713,229.9,609.709,226.649,609.709,226.649Z" transform="translate(-605.079 -226.649)" fill="#b8b9f1"/>
        <g id="Grupo_75704" data-name="Grupo 75704" transform="translate(22.656 32.46)">
          <path id="Trazado_147709" data-name="Trazado 147709" d="M630.422,280.491a.233.233,0,0,1-.222-.269c.116-.6,2.865-14.67,4.425-17.471a.225.225,0,0,1,.393.219c-1.525,2.739-4.348,17.193-4.376,17.339A.226.226,0,0,1,630.422,280.491Z" transform="translate(-630.196 -262.635)" fill="#fff"/>
        </g>
      </g>
    </g>
  </g>
</svg>
