<svg xmlns="http://www.w3.org/2000/svg" xmlns:xlink="http://www.w3.org/1999/xlink" width="452.024" height="342.14" viewBox="0 0 452.024 342.14">
  <defs>
    <linearGradient id="linear-gradient" y1="0.5" x2="1" y2="0.5" gradientUnits="objectBoundingBox">
      <stop offset="0.25" stop-color="#00bcd4" stop-opacity="0.102"/>
      <stop offset="1" stop-color="#81d4fa" stop-opacity="0.2"/>
    </linearGradient>
  </defs>
  <g id="Grupo_75609" data-name="Grupo 75609" transform="translate(-2837.895 -2100.554)">
    <path id="Trazado_147482" data-name="Trazado 147482" d="M2858.235,2420.528c13.348-40.308-25.57-86.929-19.74-131.157,6.2-47.044,45.271-26.919,58.095-101.3,2.495-14.475,9.422-33.275,23.7-39.458,28.39-12.293,43.611,3.5,63.654-.938,38.072-8.424,72.351-61.391,115.391-43.426,31.35,13.086,36.578,58.873,74.884,44.727,31.78-11.735,75.512-3.381,75.875,36.175.642,69.9,37.631,74.639,39.729,118.522,2.55,53.354-47.509,48.015-36.114,117.832" fill="url(#linear-gradient)"/>
    <g id="Grupo_75608" data-name="Grupo 75608">
      <g id="Grupo_75562" data-name="Grupo 75562">
        <g id="Grupo_75545" data-name="Grupo 75545">
          <path id="Trazado_147483" data-name="Trazado 147483" d="M3136.942,2189.743c-14.372,16.731-29.868,76.726-37.98,88.911-2.667,4.006-32.266,28.024-54.664,3.379-7.741-8.517-15.393-70.343-32-94.495-16.5,7.5-1.578-2.207-19.578,2.293h-2c1.4,57.32,23.578,108.7,26.578,165.7,1.5,27-.683,64.5-.683,64.5,24.977,1.408,76.679,1.5,97.678,0,5.427-80,25.558-134.449,41-200.99,2.352-10.139,4.078-18.941,3.487-26.892C3150.425,2191.19,3145.135,2191.678,3136.942,2189.743Z" fill="#fff"/>
          <path id="Trazado_147484" data-name="Trazado 147484" d="M3051.721,2290.91c-7.22-22.166-18.332-45.06-11-69.5,4.577-18.815,30.424-23.331,45-17.5,43.325,18.011,11.574,69.114-4,91.5" fill="#fff"/>
        </g>
        <g id="Grupo_75548" data-name="Grupo 75548">
          <g id="Grupo_75546" data-name="Grupo 75546">
            <path id="Trazado_147485" data-name="Trazado 147485" d="M3005.595,2165.219c2.366-5.174,3.444-6.584,6.15-5.55.609,4.986-.087,13.738-1.712,18.152-.484,1.315,5.321,15.2,8.6,19.636-5.908,3.771-18.408,7.491-29.45,5.906,2.219-9.343.839-16.128.126-20.832-3.592-2.891-14.921-25.944-10.779-27.362,2.2-1.144,5.752,6.387,7.138,8.555-2.341-2.617-3.188-12.005-1.359-12.566,2.215-.486,5.512,7.776,6.923,10.654-1.268-2.9-3.359-11.885-1.36-12.857,2.451-.565,5.906,7.627,7.616,11.488-1.316-3.143-2.593-12.715-.486-13.285,2.631-1.1,6.34,9.824,8.6,18.061Z" fill="#5080ec"/>
            <path id="Trazado_147486" data-name="Trazado 147486" d="M2989.554,2206.243c10.42-.042,20.543-2.725,30.332-6.089a2.56,2.56,0,0,0,1.746-3.075,2.523,2.523,0,0,0-3.075-1.746c-9.375,3.221-19.022,5.87-29,5.91-3.216.013-3.223,5.013,0,5Z" fill="#62a7ff"/>
          </g>
          <g id="Grupo_75547" data-name="Grupo 75547">
            <path id="Trazado_147487" data-name="Trazado 147487" d="M3144.239,2165.219c-2.365-5.174-3.443-6.584-6.149-5.55-.61,4.986.086,13.738,1.711,18.152.485,1.315-5.321,15.2-8.595,19.636,5.907,3.771,18.407,7.491,29.449,5.906-2.219-9.343-.839-16.128-.126-20.832,3.593-2.891,14.921-25.944,10.779-27.362-2.2-1.144-5.752,6.387-7.137,8.555,2.34-2.617,3.187-12.005,1.358-12.566-2.215-.486-5.512,7.776-6.923,10.654,1.269-2.9,3.36-11.885,1.361-12.857-2.452-.565-5.907,7.627-7.617,11.488,1.317-3.143,2.593-12.715.487-13.285-2.631-1.1-6.34,9.824-8.6,18.061Z" fill="#5080ec"/>
            <path id="Trazado_147488" data-name="Trazado 147488" d="M3130.059,2199.487c9.808,3.028,19.979,6.04,30.33,6.089,3.218.016,3.222-4.984,0-5-9.9-.047-19.62-3.014-29-5.91-3.082-.952-4.4,3.873-1.329,4.821Z" fill="#62a7ff"/>
          </g>
        </g>
        <g id="Grupo_75559" data-name="Grupo 75559">
          <path id="Trazado_147489" data-name="Trazado 147489" d="M3084.5,2222.559c-7.861-2.047-16.563-2.31-24.661-1.787-6.358.41-10.088,3.419-13.093,8.905a3.294,3.294,0,0,1-1.43,1.415c-2.977,22.149,1.617,36.768,24.806,38.783,18.145,1.577,23.557-5.315,26.749-21.017C3098.223,2235.911,3096.94,2225.8,3084.5,2222.559Z" fill="#ffb49b"/>
          <g id="Grupo_75550" data-name="Grupo 75550">
            <path id="Trazado_147490" data-name="Trazado 147490" d="M3069.221,2248.41c-9.5,1-17,2.5-17.5,13.5-.5,10.5,7,11.5,16,12,10,1,20.5,2.5,20-11.5-.5-9.5-9-14-18.5-14" fill="#7bb3ff"/>
            <g id="Grupo_75549" data-name="Grupo 75549" opacity="0.6">
              <path id="Trazado_147491" data-name="Trazado 147491" d="M3058.83,2257.379a21.918,21.918,0,0,1,5.588-2.563,17.323,17.323,0,0,1,6.231-.711,19.456,19.456,0,0,1,6.068,1.483,24.316,24.316,0,0,1,5.338,3.026c-2-.48-3.914-1.065-5.827-1.543a33.418,33.418,0,0,0-5.717-.971,26.446,26.446,0,0,0-5.76.235C3062.811,2256.613,3060.856,2257.043,3058.83,2257.379Z" fill="#5080ec"/>
              <path id="Trazado_147492" data-name="Trazado 147492" d="M3058.055,2261.908a34.561,34.561,0,0,1,5.861-1.728,25.977,25.977,0,0,1,6.156-.576,20.949,20.949,0,0,1,6.121,1.155,21.7,21.7,0,0,1,5.474,2.795c-2.012-.426-3.945-.922-5.877-1.287a38.72,38.72,0,0,0-5.789-.664c-1.936-.074-3.9.011-5.886.119S3060.109,2261.965,3058.055,2261.908Z" fill="#5080ec"/>
              <path id="Trazado_147493" data-name="Trazado 147493" d="M3058.055,2264.379c2,.3,3.916.691,5.832,1a54.821,54.821,0,0,0,5.727.623,51.145,51.145,0,0,0,5.754-.024c1.935-.109,3.894-.308,5.913-.362a25.247,25.247,0,0,1-5.709,1.909,23.074,23.074,0,0,1-6.065.473,23.918,23.918,0,0,1-5.977-1.106A23.558,23.558,0,0,1,3058.055,2264.379Z" fill="#5080ec"/>
            </g>
          </g>
          <path id="Trazado_147494" data-name="Trazado 147494" d="M3060.223,2220.41c.166,2.667.5,5.5,3.333,6.834,2.667,1.166,4.5,0,5.333-2.5.167,5,9,6.666,8.667,1,1.333,3.333,4.5,4.666,8,3.666,3.167-1.166,3.333-3.666,3.333-6.666" fill="#3b438c"/>
          <path id="Trazado_147495" data-name="Trazado 147495" d="M3045.221,2238.91c-.121-.846-.231-1.7-.289-2.566-.031-.862-.066-1.733-.016-2.608a20.717,20.717,0,0,1,.843-5.278,17.535,17.535,0,0,1,6.369-9.262,23.18,23.18,0,0,1,10.57-4.132,42.734,42.734,0,0,1,10.793-.057,63.966,63.966,0,0,1,10.34,2.031,31.186,31.186,0,0,1,5.194,2.023,18.415,18.415,0,0,1,4.779,3.532,9.5,9.5,0,0,1,.98,1.161,8.635,8.635,0,0,1,.857,1.241l.742,1.295.554,1.352a8.588,8.588,0,0,1,.445,1.357c.122.455.252.906.357,1.36.124.91.317,1.809.364,2.7a30.307,30.307,0,0,1-.072,5.259c-.107.861-.17,1.716-.315,2.563-.166.848-.3,1.691-.5,2.528a87.566,87.566,0,0,0-2.486-9.654,14.578,14.578,0,0,0-4.68-7.133l-.814-.577c-.28-.183-.6-.327-.893-.493a18.24,18.24,0,0,0-1.889-.879,33.855,33.855,0,0,0-4.31-1.213c-.754-.157-1.508-.334-2.3-.457-.773-.142-1.557-.277-2.369-.394-1.6-.26-3.188-.483-4.767-.648-6.265-.685-12.59-.776-17.6,1.833a15.61,15.61,0,0,0-6.215,6.016A37.262,37.262,0,0,0,3045.221,2238.91Z" fill="#7bb3ff"/>
          <g id="Grupo_75558" data-name="Grupo 75558">
            <g id="Grupo_75553" data-name="Grupo 75553">
              <g id="Grupo_75551" data-name="Grupo 75551">
                <path id="Trazado_147496" data-name="Trazado 147496" d="M3037.557,2238.116l6.117,1.019.883.147a1.282,1.282,0,0,0,1.538-.873,1.267,1.267,0,0,0-.873-1.538l-6.117-1.018-.883-.148a1.281,1.281,0,0,0-1.538.874,1.264,1.264,0,0,0,.873,1.537Z" fill="#3b438c"/>
                <path id="Trazado_147497" data-name="Trazado 147497" d="M3038.389,2244.449l5.4-.876.767-.124a1.254,1.254,0,0,0,.873-1.537,1.287,1.287,0,0,0-1.538-.874l-5.4.876-.767.124a1.255,1.255,0,0,0-.873,1.538,1.286,1.286,0,0,0,1.538.873Z" fill="#3b438c"/>
              </g>
              <g id="Grupo_75552" data-name="Grupo 75552">
                <path id="Trazado_147498" data-name="Trazado 147498" d="M3096.389,2242.994c3.319-.079,6.649-.221,9.969-.173.122,0,.244.006.365.006a1.251,1.251,0,0,0,0-2.5q-2.577,0-5.153.052t-5.181.115a1.251,1.251,0,0,0,0,2.5Z" fill="#3b438c"/>
                <path id="Trazado_147499" data-name="Trazado 147499" d="M3096.224,2247.116l7.874,2.187,1.126.313a1.25,1.25,0,0,0,.665-2.411l-7.874-2.187-1.126-.313a1.25,1.25,0,0,0-.665,2.411Z" fill="#3b438c"/>
              </g>
            </g>
            <g id="Grupo_75557" data-name="Grupo 75557">
              <g id="Grupo_75555" data-name="Grupo 75555">
                <g id="Grupo_75554" data-name="Grupo 75554">
                  <path id="Trazado_147500" data-name="Trazado 147500" d="M3070.63,2246.905c6.513-.9,9.408,6.143,16.4,6.748,6.492.6,8.728-4.3,9.164-10.864,1.075-16.152-15.863-9.239-24.885-7.874l-.47-.008c-8.976-1.635-25.7-9.053-25.11,7.124.239,6.572,2.327,11.536,8.834,11.134,7.007-.4,10.112-7.35,16.6-6.252" fill="#ffd2c4"/>
                  <path id="Trazado_147501" data-name="Trazado 147501" d="M3070.63,2248.78c2.626-.314,4.629.828,6.712,2.3,2.227,1.568,4.4,3.2,7.052,3.979a10.925,10.925,0,0,0,8.387-.651,10.219,10.219,0,0,0,4.349-5.989c1.438-4.564,1.868-11-1.483-14.869-2.65-3.057-7.116-3.377-10.873-3.026-4.259.4-8.374,1.554-12.564,2.346-.2.038-.408.076-.613.112a4.48,4.48,0,0,1-.5.079c.022,0-.083-.018-.05-.013-.235-.034-.468-.092-.7-.141-.939-.2-1.872-.427-2.8-.659-2.1-.524-4.19-1.077-6.309-1.513-3.98-.82-8.507-1.5-12.315.335-4.443,2.141-5.306,7.389-5.022,11.835.345,5.4,2.366,11.261,8.473,12.054a13.764,13.764,0,0,0,8.454-1.829c2.2-1.221,4.142-3,6.489-3.947a6.472,6.472,0,0,1,3.346-.458,1.94,1.94,0,0,0,2.307-1.31,1.887,1.887,0,0,0-1.31-2.306,11.317,11.317,0,0,0-7.448,1.439c-2.089,1.164-3.936,2.723-6.094,3.772a8.548,8.548,0,0,1-6.7.584c-1.861-.773-2.761-2.662-3.241-4.5a19.007,19.007,0,0,1-.47-7.256,6.3,6.3,0,0,1,2.046-4.206c-.126.1.427-.289.553-.362a4.994,4.994,0,0,1,.773-.374,8.335,8.335,0,0,1,2.3-.49,21.6,21.6,0,0,1,5.277.339c3.746.645,7.372,1.81,11.095,2.556a13.2,13.2,0,0,0,5.394-.516c1.886-.405,3.764-.845,5.658-1.211,3.326-.642,7.112-1.3,10.214-.106a4.84,4.84,0,0,1,2.667,2.582,13.064,13.064,0,0,1,.579,6.134c-.206,2.328-.673,5.133-2.366,6.883-1.717,1.774-4.453,1.712-6.663,1.025-2.572-.8-4.639-2.671-6.845-4.136a11.523,11.523,0,0,0-7.761-2.227,1.933,1.933,0,0,0-1.875,1.875,1.886,1.886,0,0,0,1.875,1.875Z" fill="#3b438c"/>
                </g>
              </g>
              <g id="Grupo_75556" data-name="Grupo 75556">
                <path id="Trazado_147502" data-name="Trazado 147502" d="M3057.838,2243.2a3,3,0,0,1,.153-1c.025-.081.054-.162.084-.242.006-.016.052-.124.021-.054s.039-.08.037-.076a3.714,3.714,0,0,1,.24-.415c.02-.03.14-.185.056-.081.048-.06.1-.117.15-.173a3.086,3.086,0,0,1,.345-.321c-.1.083.029-.019.07-.047.06-.041.121-.079.184-.115s.125-.07.19-.1c.028-.014.057-.027.086-.04.144-.068-.124.043.025-.01a3.651,3.651,0,0,1,.381-.117c.068-.016.137-.026.2-.041.033-.008.12-.011-.029,0,.046,0,.092-.01.138-.013a2.968,2.968,0,0,1,.367,0c.028,0,.233.026.144.012s.128.027.164.035a3.145,3.145,0,0,1,.371.117c-.154-.059.044.024.081.043a2.2,2.2,0,0,1,.2.116c.06.038.118.078.174.121-.108-.082.02.02.058.055.054.05.106.1.156.155.023.024.045.049.066.074s.111.139.062.074a2.7,2.7,0,0,1,.412.849,3.877,3.877,0,0,1,.157,1.282.625.625,0,0,0,1.25,0,3.948,3.948,0,0,0-2.415-4.022,3.64,3.64,0,0,0-3.878,1.183,4.44,4.44,0,0,0-.957,2.749.625.625,0,0,0,1.25,0Z" fill="#3b438c"/>
                <path id="Trazado_147503" data-name="Trazado 147503" d="M3085.3,2243.616a4.084,4.084,0,0,0-2.31-3.877,3.39,3.39,0,0,0-3.979.858,4.691,4.691,0,0,0-.96,2.929.625.625,0,0,0,1.25,0,3.545,3.545,0,0,1,.538-1.963c.021-.03.141-.186.056-.082.048-.059.1-.116.15-.17s.1-.1.158-.154l.074-.063c.121-.1-.106.07.025-.019a3.563,3.563,0,0,1,.341-.2c.034-.018.07-.033.1-.05-.018.008-.128.049-.022.01.072-.026.144-.051.218-.073.058-.016.117-.031.177-.044.033-.007.234-.038.142-.027s.118-.008.145-.009c.076,0,.152,0,.229,0,.061,0,.122.01.183.012.113,0-.008,0-.029,0l.092.014a3.561,3.561,0,0,1,.428.11c.037.013.24.094.092.03.058.025.115.052.171.081a3.8,3.8,0,0,1,.39.236c.117.078-.046-.05.085.066.049.044.1.087.146.132s.106.106.156.162c.023.025.044.051.066.076.088.1,0,0,.029.033a3.278,3.278,0,0,1,.277.443,1.492,1.492,0,0,1,.168.411,3.014,3.014,0,0,1,.159,1.139.625.625,0,0,0,1.25,0Z" fill="#3b438c"/>
              </g>
            </g>
          </g>
        </g>
        <g id="Grupo_75561" data-name="Grupo 75561">
          <path id="Trazado_147504" data-name="Trazado 147504" d="M3048.96,2287.568a37.661,37.661,0,0,0,20.261,6.342,36.607,36.607,0,0,0,20.262-4.842c2.743-1.672.234-6-2.523-4.317-10.443,6.367-25.558,5.488-35.477-1.5a2.521,2.521,0,0,0-3.42.9,2.552,2.552,0,0,0,.9,3.42Z" fill="#7bb3ff"/>
          <path id="Trazado_147505" data-name="Trazado 147505" d="M3066.721,2293.41c0,30.63-.916,61.25-1.316,91.876q-.168,12.812-.184,25.624c0,3.217,5,3.222,5,0,.005-30.631.917-61.25,1.317-91.876q.166-12.812.183-25.624c0-3.217-5-3.223-5,0Z" fill="#7bb3ff"/>
          <g id="Grupo_75560" data-name="Grupo 75560">
            <path id="Trazado_147506" data-name="Trazado 147506" d="M3094.063,2288.515c2.179,3.311,4.324,6.546,6.592,9.682l1.723,2.328c.592.762,1.165,1.537,1.77,2.285l1.8,2.251,1.874,2.188a98.524,98.524,0,0,0,8.017,8.253,88.013,88.013,0,0,0,9.142,7.223,35.552,35.552,0,0,1-10.613-5.4,51.679,51.679,0,0,1-8.809-8.107c-1.278-1.534-2.529-3.088-3.684-4.713-1.119-1.649-2.228-3.3-3.187-5.048A48.425,48.425,0,0,1,3094.063,2288.515Z" fill="#c9e0ff"/>
            <path id="Trazado_147507" data-name="Trazado 147507" d="M3044.063,2289.173c-1.392,3.818-2.773,7.58-4.353,11.3a90.225,90.225,0,0,1-5.4,10.925,43.415,43.415,0,0,1-7.614,9.728c-3.022,2.823-6.839,5.088-10.926,5.544a27.1,27.1,0,0,0,9.249-7.177,68.07,68.07,0,0,0,6.715-9.629c1.037-1.683,2-3.421,2.961-5.165l2.915-5.248A83.568,83.568,0,0,1,3044.063,2289.173Z" fill="#c9e0ff"/>
            <path id="Trazado_147508" data-name="Trazado 147508" d="M3033.537,2342.463c1.665,1.611,3.179,3.205,4.766,4.7,1.571,1.5,3.173,2.93,4.835,4.281s3.382,2.625,5.179,3.842c1.792,1.233,3.668,2.367,5.615,3.624a18.9,18.9,0,0,1-6.732-1.547,24.509,24.509,0,0,1-5.954-3.592,25.192,25.192,0,0,1-4.733-5.084A20.014,20.014,0,0,1,3033.537,2342.463Z" fill="#c9e0ff"/>
            <path id="Trazado_147509" data-name="Trazado 147509" d="M3030.906,2355.62a31.292,31.292,0,0,1,4.477,2.7l4.045,2.876c1.332.928,2.662,1.812,4.064,2.622s2.874,1.543,4.518,2.324a10.54,10.54,0,0,1-5.409-.14,15.833,15.833,0,0,1-4.892-2.349,20.92,20.92,0,0,1-3.912-3.6A20.134,20.134,0,0,1,3030.906,2355.62Z" fill="#c9e0ff"/>
            <path id="Trazado_147510" data-name="Trazado 147510" d="M3103.932,2371.41a18.516,18.516,0,0,1-3.421,6.864,29.324,29.324,0,0,1-5.457,5.431,29.753,29.753,0,0,1-6.655,3.856,19.424,19.424,0,0,1-7.493,1.612c2.269-1.186,4.369-2.39,6.408-3.707s4-2.689,5.918-4.143,3.758-3,5.538-4.628A63.611,63.611,0,0,0,3103.932,2371.41Z" fill="#c9e0ff"/>
            <path id="Trazado_147511" data-name="Trazado 147511" d="M3105.906,2382.594a14.339,14.339,0,0,1-2.8,6.011,19.71,19.71,0,0,1-4.948,4.517,21.727,21.727,0,0,1-6.081,2.712,17.564,17.564,0,0,1-6.569.576c1.991-.973,3.894-1.826,5.727-2.78,1.836-.938,3.6-1.936,5.3-3.027a44.233,44.233,0,0,0,4.86-3.606A53.006,53.006,0,0,0,3105.906,2382.594Z" fill="#c9e0ff"/>
          </g>
        </g>
      </g>
      <g id="Grupo_75582" data-name="Grupo 75582">
        <g id="Grupo_75566" data-name="Grupo 75566">
          <path id="Trazado_147512" data-name="Trazado 147512" d="M3157.6,2421.026c1.5-13.5,1.38-61.756,3.938-93.808,4.311-27.187,14.811-31.436,41.06-29.186,24,2.25,33.748,1.874,37.5,26.061,2.17,26.509,1.5,79.934,1.5,96.433" fill="#00d8bb"/>
          <g id="Grupo_75563" data-name="Grupo 75563" opacity="0.5">
            <path id="Trazado_147513" data-name="Trazado 147513" d="M3223.123,2368.831a46.063,46.063,0,0,1-10.443,7.445,59.227,59.227,0,0,1-5.87,2.7c-2.014.773-4.074,1.421-6.153,2a54.742,54.742,0,0,1-12.788,1.809,44.506,44.506,0,0,1-12.746-1.456c4.271-.112,8.446-.356,12.576-.879a95.909,95.909,0,0,0,12.2-2.373c1.006-.244,1.994-.552,2.993-.824s1.964-.653,2.959-.946c.988-.313,1.956-.685,2.937-1.025l2.909-1.122C3215.554,2372.6,3219.326,2370.789,3223.123,2368.831Z" fill="#00a28c"/>
            <path id="Trazado_147514" data-name="Trazado 147514" d="M3221.106,2385.194a34.4,34.4,0,0,1-8.949,5.1,50.977,50.977,0,0,1-9.921,2.871,50.169,50.169,0,0,1-10.291.866,34.874,34.874,0,0,1-10.182-1.559c3.434-.17,6.76-.413,10.075-.779q4.965-.58,9.855-1.478c3.263-.6,6.5-1.321,9.732-2.135C3214.653,2387.239,3217.846,2386.281,3221.106,2385.194Z" fill="#00a28c"/>
          </g>
          <path id="Trazado_147515" data-name="Trazado 147515" d="M3260.185,2258.122c-.9,19.288-.791,40.788-2.586,49.91-2.815,6.128-20.565-15.6-43.565-9.122l17.573,42.783c34.5,1.5,55.068,2.967,54.991-22.161-.056-18.4.233-46.68-6.385-63.13C3269.87,2256.653,3270.53,2258.012,3260.185,2258.122Z" fill="#00d8bb"/>
          <g id="Grupo_75565" data-name="Grupo 75565">
            <path id="Trazado_147516" data-name="Trazado 147516" d="M3208.409,2328.722l.491,23.5,22.509.191-.643-23.546-22.357-.142" fill="#00a28c" opacity="0.5"/>
            <path id="Trazado_147517" data-name="Trazado 147517" d="M3208.284,2331.41h22.5c3.217,0,3.222-5,0-5h-22.5c-3.217,0-3.223,5,0,5Z" fill="#00a28c"/>
            <g id="Grupo_75564" data-name="Grupo 75564">
              <rect id="Rect치ngulo_33021" data-name="Rect치ngulo 33021" width="4.619" height="12" transform="translate(3217.974 2335.535)" fill="#fff"/>
              <rect id="Rect치ngulo_33022" data-name="Rect치ngulo 33022" width="12" height="4.619" transform="translate(3214.283 2339.225)" fill="#fff"/>
            </g>
          </g>
          <path id="Trazado_147518" data-name="Trazado 147518" d="M3147.447,2258.122c.9,19.288.791,40.788,2.586,49.91,2.815,6.128,20.565-15.6,43.565-9.122l-17.573,42.783c-34.5,1.5-55.068,2.967-54.991-22.161.057-18.4-.233-46.68,6.386-63.13C3137.762,2256.653,3137.1,2258.012,3147.447,2258.122Z" fill="#00d8bb"/>
        </g>
        <g id="Grupo_75578" data-name="Grupo 75578">
          <path id="Trazado_147519" data-name="Trazado 147519" d="M3231.534,2270.41c10.964,2.528,17,10,8.5,20.5-6.109,7.546-18.415,4.991-23.5-6.5" fill="#3150a5"/>
          <g id="Grupo_75567" data-name="Grupo 75567">
            <path id="Trazado_147520" data-name="Trazado 147520" d="M3180.034,2258.91c-10.875-2.875-12.875,12,0,10" fill="#ffb49b"/>
            <path id="Trazado_147521" data-name="Trazado 147521" d="M3233.034,2266.91c15.5-1.5,9.5,14.5-.5,9" fill="#ffb49b"/>
            <path id="Trazado_147522" data-name="Trazado 147522" d="M3181.99,2239.25c-6.647,29.876-5.544,50.37,22.237,52.784,25.88,2.249,31.978-10.664,31.335-45.623" fill="#ffb49b"/>
            <path id="Trazado_147523" data-name="Trazado 147523" d="M3212.7,2301.294c.535-4.957,1.264-9.889,1.331-14.884a10,10,0,0,0-20,0c-.063,4.671-.7,9.286-1.226,13.919q4.627,5.32,8.795,11.019A65.14,65.14,0,0,1,3212.7,2301.294Z" fill="#ffb49b"/>
          </g>
          <g id="Grupo_75570" data-name="Grupo 75570">
            <g id="Grupo_75568" data-name="Grupo 75568">
              <path id="Trazado_147524" data-name="Trazado 147524" d="M3196.534,2259.41" fill="none" stroke="#3b438c" stroke-miterlimit="10" stroke-width="1"/>
              <path id="Trazado_147525" data-name="Trazado 147525" d="M3214.534,2260.91" fill="none" stroke="#3b438c" stroke-miterlimit="10" stroke-width="1"/>
            </g>
            <path id="Trazado_147526" data-name="Trazado 147526" d="M3204.181,2259.994c-.51,2.811-.91,5.76-2.187,8.35-.354.719.723,1.354,1.079.631a32.2,32.2,0,0,0,2.313-8.649c.143-.787-1.061-1.124-1.205-.332Z" fill="#c98774" opacity="0.7"/>
            <g id="Grupo_75569" data-name="Grupo 75569">
              <path id="Trazado_147527" data-name="Trazado 147527" d="M3211.474,2255.824a7.237,7.237,0,0,1,8.618,1.653c.516.618,1.4-.27.884-.884-2.527-3.028-6.682-3.352-10.133-1.848-.735.321-.1,1.4.631,1.079Z" fill="#3b438c"/>
              <path id="Trazado_147528" data-name="Trazado 147528" d="M3201.849,2253.87c-2.78-1.953-6.951-2.664-9.881-.625-.655.457-.031,1.541.631,1.079,2.59-1.8,6.177-1.09,8.619.625.66.464,1.285-.619.631-1.079Z" fill="#3b438c"/>
            </g>
          </g>
          <g id="Grupo_75571" data-name="Grupo 75571">
            <path id="Trazado_147529" data-name="Trazado 147529" d="M3179.034,2241.41c-.5,7.375-1.375,13.5,0,24,3-8,8.5-18.5,11.5-26" fill="#3150a5"/>
            <path id="Trazado_147530" data-name="Trazado 147530" d="M3229.034,2246.41a120.483,120.483,0,0,0,3.5,26.5c3-6.5,4.875-14.37,6.5-22" fill="#3150a5"/>
          </g>
          <g id="Grupo_75574" data-name="Grupo 75574">
            <g id="Grupo_75572" data-name="Grupo 75572">
              <path id="Trazado_147531" data-name="Trazado 147531" d="M3177.288,2258.708l9.646,13.153,1.354,1.847a1.289,1.289,0,0,0,1.711.448,1.259,1.259,0,0,0,.448-1.71l-9.645-13.153-1.355-1.847a1.288,1.288,0,0,0-1.71-.449,1.261,1.261,0,0,0-.449,1.711Z" fill="#fff"/>
              <path id="Trazado_147532" data-name="Trazado 147532" d="M3218,2277.49l15.2-9.647,2.132-1.353c1.354-.86.1-3.024-1.262-2.159l-15.2,9.648-2.132,1.352c-1.355.86-.1,3.025,1.262,2.159Z" fill="#fff"/>
            </g>
            <path id="Trazado_147533" data-name="Trazado 147533" d="M3204.534,2266.41c-8-1-18-1-19.5,10-1.5,11.5,6,15.5,16,16.5,11,1,19.5,1,20.5-11,1-11.5-7-14.833-17-15.5" fill="#fff"/>
            <g id="Grupo_75573" data-name="Grupo 75573">
              <path id="Trazado_147534" data-name="Trazado 147534" d="M3191.034,2272.744a33.616,33.616,0,0,1,6.082-.877,41.233,41.233,0,0,1,6.146.076,34.086,34.086,0,0,1,6.077,1.082,21.828,21.828,0,0,1,5.695,2.386c-2.044-.3-4.02-.606-6-.856s-3.961-.437-5.947-.62l-5.986-.513C3195.091,2273.251,3193.074,2273.074,3191.034,2272.744Z" fill="#7bb3ff" opacity="0.5"/>
              <path id="Trazado_147535" data-name="Trazado 147535" d="M3192.489,2277.744a32.213,32.213,0,0,1,5.192-.285,48.461,48.461,0,0,1,5.149.348,42.911,42.911,0,0,1,5.087.926,26.169,26.169,0,0,1,4.935,1.678,47.92,47.92,0,0,1-5.177-.136c-1.7-.12-3.4-.271-5.089-.484s-3.377-.467-5.062-.785A36.431,36.431,0,0,1,3192.489,2277.744Z" fill="#7bb3ff" opacity="0.5"/>
              <path id="Trazado_147536" data-name="Trazado 147536" d="M3191.761,2281.744c1.77.056,3.479.242,5.18.444s3.39.423,5.077.68,3.372.548,5.06.888a37.271,37.271,0,0,1,5.048,1.321,31.42,31.42,0,0,1-5.226.229,42.238,42.238,0,0,1-5.182-.461,37.643,37.643,0,0,1-5.093-1.134A24.517,24.517,0,0,1,3191.761,2281.744Z" fill="#7bb3ff" opacity="0.5"/>
            </g>
          </g>
          <g id="Grupo_75577" data-name="Grupo 75577">
            <path id="Trazado_147537" data-name="Trazado 147537" d="M3180.034,2242.41c-1.427-50.054,76.629-34.75,58.5,11" fill="#00d8bb"/>
            <path id="Trazado_147538" data-name="Trazado 147538" d="M3239.16,2256.814a508.1,508.1,0,0,0-61.015-9.423l.777-7.962a516.167,516.167,0,0,1,61.984,9.577Z" fill="#00a28c"/>
            <g id="Grupo_75576" data-name="Grupo 75576">
              <path id="Trazado_147539" data-name="Trazado 147539" d="M3186.917,2225.528a63.714,63.714,0,0,1,12.839-1.2c2.155-.024,4.3.1,6.453.219,2.146.165,4.284.407,6.419.665a101.652,101.652,0,0,1,12.633,2.554,77.764,77.764,0,0,1,12.156,4.259c-4.268-.586-8.457-1.3-12.645-1.97s-8.368-1.289-12.55-1.872l-3.138-.434c-1.048-.129-2.1-.233-3.144-.382l-3.147-.371c-1.051-.093-2.1-.212-3.153-.339C3195.429,2226.231,3191.207,2225.893,3186.917,2225.528Z" fill="#00a28c" opacity="0.5"/>
              <g id="Grupo_75575" data-name="Grupo 75575" opacity="0.4">
                <path id="Trazado_147540" data-name="Trazado 147540" d="M3196.917,2233.028a62.858,62.858,0,0,1,10.357.3c1.714.2,3.427.425,5.126.767a24.927,24.927,0,0,1,5.017,1.433c-1.744-.084-3.453-.152-5.169-.272-1.715-.1-3.424-.266-5.134-.437-1.707-.2-3.415-.4-5.116-.69A42.206,42.206,0,0,1,3196.917,2233.028Z" fill="#00a28c"/>
                <path id="Trazado_147541" data-name="Trazado 147541" d="M3206.417,2237.528a30.307,30.307,0,0,1,3.932-.079c1.3.036,2.59.149,3.879.269a57.617,57.617,0,0,1,7.689,1.31,17.9,17.9,0,0,1-3.936.381,37.643,37.643,0,0,1-3.909-.2c-1.294-.15-2.584-.328-3.862-.6A23.006,23.006,0,0,1,3206.417,2237.528Z" fill="#00a28c"/>
              </g>
            </g>
          </g>
        </g>
        <path id="Trazado_147542" data-name="Trazado 147542" d="M3189.266,2299.678l11,13a2.537,2.537,0,0,0,3.536,0l12-11c2.377-2.179-1.167-5.708-3.536-3.536l-12,11h3.536l-11-13a2.521,2.521,0,0,0-3.536,0,2.552,2.552,0,0,0,0,3.536Z" fill="#00a28c"/>
        <g id="Grupo_75581" data-name="Grupo 75581">
          <g id="Grupo_75579" data-name="Grupo 75579">
            <path id="Trazado_147543" data-name="Trazado 147543" d="M3281.084,2256.845c.075-8.11-2.381-32.439-9.822-33.632-13.5-2.166-21.333,1.664-17.495,13.208-2.972-1.727-7.142,1.8-.735,8.214,5.436,4.544,6.5,2.2,6.387,14.362" fill="#5080ec"/>
            <path id="Trazado_147544" data-name="Trazado 147544" d="M3253.833,2230.674c.309,1.736.475,3.5.872,5.2a11.077,11.077,0,0,0,.831,2.454,3.5,3.5,0,0,0,1.685,1.742,1.871,1.871,0,0,0,1.1.234,1.181,1.181,0,0,0,.826-.611,5.749,5.749,0,0,0,.623-2.385,22.252,22.252,0,0,0-.264-5.166l.852-.134a30.073,30.073,0,0,0,.928,4.34,7.558,7.558,0,0,0,.887,1.916,2.131,2.131,0,0,0,1.457,1.021h.007l.036,0a1.27,1.27,0,0,0,1.485-.633,4.769,4.769,0,0,0,.481-2.03,22.662,22.662,0,0,0-.345-4.552l1.028-.161a39.833,39.833,0,0,0,.731,4.548,7.257,7.257,0,0,0,.8,2.012,1.632,1.632,0,0,0,1.458.932,1.392,1.392,0,0,0,1.253-1.08,6.691,6.691,0,0,0,.278-2.144,32.432,32.432,0,0,0-.468-4.567l.782-.122a40.78,40.78,0,0,0,.7,4.6,8.423,8.423,0,0,0,.757,2.121,2.13,2.13,0,0,0,.67.765,1.03,1.03,0,0,0,.9.054l.015-.006.007,0a1.939,1.939,0,0,0,1.1-1.619,10.033,10.033,0,0,0,.127-2.263c-.059-1.53-.313-3.056-.515-4.584a39.106,39.106,0,0,1,.785,4.567,10.31,10.31,0,0,1-.019,2.348,3.48,3.48,0,0,1-.365,1.165,1.785,1.785,0,0,1-.973.863l.022-.008a1.523,1.523,0,0,1-1.358-.042,2.649,2.649,0,0,1-.9-.943,9.009,9.009,0,0,1-.888-2.256,41.125,41.125,0,0,1-.847-4.643.4.4,0,0,1,.781-.128v.005a28.034,28.034,0,0,1,.588,4.684,7.493,7.493,0,0,1-.308,2.456,2.734,2.734,0,0,1-.732,1.17,2.087,2.087,0,0,1-1.342.551,2.38,2.38,0,0,1-.728-.068,3.1,3.1,0,0,1-.662-.3,3.326,3.326,0,0,1-.934-.981,8.163,8.163,0,0,1-.945-2.287,40.171,40.171,0,0,1-.8-4.641.52.52,0,0,1,1.028-.162,21.47,21.47,0,0,1,.329,4.781,5.637,5.637,0,0,1-.643,2.473,2.234,2.234,0,0,1-1.09.973,3.457,3.457,0,0,1-.729.159l-.7-.057.042.006a3.069,3.069,0,0,1-2.14-1.449,8.466,8.466,0,0,1-.988-2.17,27.779,27.779,0,0,1-.9-4.488l0-.02a.432.432,0,1,1,.855-.119v0a22.925,22.925,0,0,1,.113,5.371,6.3,6.3,0,0,1-.8,2.656,1.8,1.8,0,0,1-1.267.85,2.428,2.428,0,0,1-1.432-.326,3.433,3.433,0,0,1-1.112-.866,4.589,4.589,0,0,1-.718-1.18,11.476,11.476,0,0,1-.737-2.578C3254.086,2234.19,3254.017,2232.426,3253.833,2230.674Z" fill="#3150a5" opacity="0.5"/>
            <path id="Trazado_147545" data-name="Trazado 147545" d="M3259.409,2261.535c7.151-.775,14.285-1.976,21.5-1.875,3.218.045,3.22-4.955,0-5-7.215-.1-14.349,1.1-21.5,1.875a2.574,2.574,0,0,0-2.5,2.5,2.517,2.517,0,0,0,2.5,2.5Z" fill="#62a7ff"/>
          </g>
          <g id="Grupo_75580" data-name="Grupo 75580">
            <path id="Trazado_147546" data-name="Trazado 147546" d="M3126.549,2256.845c-.076-8.11,2.38-32.439,9.821-33.632,13.506-2.166,21.333,1.664,17.495,13.208,2.973-1.727,7.143,1.8.735,8.214-5.436,4.544-6.5,2.2-6.386,14.362" fill="#5080ec"/>
            <path id="Trazado_147547" data-name="Trazado 147547" d="M3153.8,2230.674c-.184,1.752-.253,3.516-.578,5.264a11.462,11.462,0,0,1-.737,2.578,4.6,4.6,0,0,1-.718,1.18,3.433,3.433,0,0,1-1.112.866,2.429,2.429,0,0,1-1.432.326,1.8,1.8,0,0,1-1.267-.85,6.3,6.3,0,0,1-.8-2.656,22.912,22.912,0,0,1,.113-5.371.431.431,0,1,1,.856.108v0l0,.023a27.754,27.754,0,0,1-.9,4.488,8.458,8.458,0,0,1-.988,2.17,3.068,3.068,0,0,1-2.14,1.449l.042-.006-.7.057a3.467,3.467,0,0,1-.729-.159,2.236,2.236,0,0,1-1.09-.973,5.65,5.65,0,0,1-.643-2.473,21.485,21.485,0,0,1,.329-4.781.52.52,0,0,1,1.028.162,40.172,40.172,0,0,1-.8,4.641,8.126,8.126,0,0,1-.945,2.287,3.313,3.313,0,0,1-.934.981,3.1,3.1,0,0,1-.661.3,2.39,2.39,0,0,1-.729.068,2.082,2.082,0,0,1-1.341-.551,2.728,2.728,0,0,1-.733-1.169,7.528,7.528,0,0,1-.308-2.457,28.136,28.136,0,0,1,.588-4.684v-.005a.4.4,0,0,1,.781.128,40.907,40.907,0,0,1-.847,4.643,9.009,9.009,0,0,1-.888,2.256,2.655,2.655,0,0,1-.9.943,1.525,1.525,0,0,1-1.359.042l.022.008a1.788,1.788,0,0,1-.973-.863,3.474,3.474,0,0,1-.365-1.165,10.31,10.31,0,0,1-.019-2.348,38.9,38.9,0,0,1,.786-4.567c-.2,1.528-.456,3.054-.516,4.584a10.005,10.005,0,0,0,.127,2.263,1.94,1.94,0,0,0,1.1,1.619l.007,0,.015.006a1.03,1.03,0,0,0,.9-.054,2.132,2.132,0,0,0,.67-.765,8.432,8.432,0,0,0,.757-2.121,40.78,40.78,0,0,0,.695-4.6l.782.122a32.431,32.431,0,0,0-.468,4.567,6.671,6.671,0,0,0,.279,2.144,1.39,1.39,0,0,0,1.252,1.08,1.632,1.632,0,0,0,1.458-.932,7.25,7.25,0,0,0,.8-2.012,39.888,39.888,0,0,0,.731-4.548l1.028.161a22.644,22.644,0,0,0-.345,4.552,4.762,4.762,0,0,0,.481,2.03,1.27,1.27,0,0,0,1.485.633l.036,0H3144a2.127,2.127,0,0,0,1.457-1.021,7.567,7.567,0,0,0,.887-1.916,30.106,30.106,0,0,0,.928-4.34l.852.134a22.252,22.252,0,0,0-.264,5.166,5.753,5.753,0,0,0,.623,2.385,1.18,1.18,0,0,0,.826.611,1.871,1.871,0,0,0,1.1-.234,3.506,3.506,0,0,0,1.686-1.742,11.113,11.113,0,0,0,.83-2.454C3153.324,2234.172,3153.491,2232.41,3153.8,2230.674Z" fill="#3150a5" opacity="0.5"/>
            <path id="Trazado_147548" data-name="Trazado 147548" d="M3148.223,2256.535c-7.151-.775-14.285-1.976-21.5-1.875-3.214.045-3.224,5.045,0,5,7.215-.1,14.349,1.1,21.5,1.875a2.516,2.516,0,0,0,2.5-2.5,2.557,2.557,0,0,0-2.5-2.5Z" fill="#62a7ff"/>
          </g>
        </g>
      </g>
      <g id="Grupo_75606" data-name="Grupo 75606">
        <g id="Grupo_75583" data-name="Grupo 75583">
          <path id="Trazado_147549" data-name="Trazado 147549" d="M2852.14,2401.094c6.8,3.075,11.418,2.864,18.251,5.861,17.4-36,24.289-51.374,29.644-74.358l5.892-45.231C2871.633,2286.76,2867.958,2333.791,2852.14,2401.094Z" fill="#7bb3ff"/>
          <path id="Trazado_147550" data-name="Trazado 147550" d="M2933.616,2287.032c27.168-9.622,48.5,10.5,60.5,9-6-18-7.5-36-9-55.5,6,0,17-4.5,17-4.5,7.017,9.875,20,48,21.5,58.5,4.5,21,4,24-20,30-13.5,4.5-25,5.5-40,5.5" fill="#7bb3ff"/>
          <path id="Trazado_147551" data-name="Trazado 147551" d="M2886.118,2419.526c1.5-19.5,6.05-48.866,4.437-84.308,0-37.808,3.979-50.794,39.061-51.186,26.668.392,36.623,3.25,40.935,30.436s7.335,79.025,7.063,105.058" fill="#7bb3ff"/>
        </g>
        <g id="Grupo_75591" data-name="Grupo 75591">
          <path id="Trazado_147552" data-name="Trazado 147552" d="M2909.684,2326.873c-.937-7.116-2.7-14.129-3.134-21.308-.347-5.8.085-12.83,5.442-16.233,3.428-2.177,7.865-2.581,11.81-2.992a41.086,41.086,0,0,1,11.424.119,17.184,17.184,0,0,1,7.753,3.152,13.826,13.826,0,0,1,3.9,5.167c2.644,6.292,1.725,13.787.523,20.419-.428,2.359,3.185,3.371,3.616,1,1.216-6.707,2.1-14.038.087-20.689a17.635,17.635,0,0,0-12.13-12.008,34.962,34.962,0,0,0-11.55-1.177,70.774,70.774,0,0,0-7.477.768,32.5,32.5,0,0,0-6.7,1.485,15.1,15.1,0,0,0-8.029,6.655,22.381,22.381,0,0,0-2.474,10.132c-.33,8.614,2.079,17.039,3.2,25.514a1.937,1.937,0,0,0,1.875,1.875,1.886,1.886,0,0,0,1.875-1.875Z" fill="#3150a5"/>
          <g id="Grupo_75586" data-name="Grupo 75586">
            <g id="Grupo_75584" data-name="Grupo 75584">
              <path id="Trazado_147553" data-name="Trazado 147553" d="M2908.794,2332.859c8.752,0,8.752-13.574,0-13.574s-8.752,13.574,0,13.574Z" fill="#fff"/>
            </g>
            <g id="Grupo_75585" data-name="Grupo 75585">
              <path id="Trazado_147554" data-name="Trazado 147554" d="M2908.794,2330.633c5.881,0,5.881-9.122,0-9.122s-5.881,9.122,0,9.122Z" fill="#5080ec"/>
            </g>
          </g>
          <g id="Grupo_75590" data-name="Grupo 75590">
            <path id="Trazado_147555" data-name="Trazado 147555" d="M2939.614,2342.838c-.018-3.876-.815-7.727-1.1-11.587-.276-3.7-.5-8.156,1.668-11.382,2.463-3.664,8.185-3.738,11.931-2.388,4.544,1.638,5.716,6.2,5.429,10.6a40.7,40.7,0,0,1-4.483,14.927c-.707,1.438,1.448,2.707,2.159,1.261a46.53,46.53,0,0,0,4.692-14.778c.594-4.922-.265-10.434-4.766-13.294-4.21-2.676-11.2-2.886-15.213.312-3.449,2.75-4.086,7.527-4.054,11.66.038,4.921,1.217,9.761,1.24,14.673a1.251,1.251,0,0,0,2.5,0Z" fill="#3150a5"/>
            <path id="Trazado_147556" data-name="Trazado 147556" d="M2951.606,2316.8a12.047,12.047,0,0,1,.115-1.551l-.089.664c.1-.71.241-1.412.385-2.114a2.666,2.666,0,0,0-.252-1.926,2.5,2.5,0,0,0-3.421-.9,2.487,2.487,0,0,0-1.149,1.494,22.232,22.232,0,0,0-.589,4.33,2.58,2.58,0,0,0,.732,1.768,2.5,2.5,0,0,0,3.536,0,2.606,2.606,0,0,0,.732-1.768Z" fill="#3b438c"/>
            <g id="Grupo_75589" data-name="Grupo 75589">
              <g id="Grupo_75587" data-name="Grupo 75587">
                <path id="Trazado_147557" data-name="Trazado 147557" d="M2938.8,2345.5c3.675,0,3.675-5.7,0-5.7s-3.676,5.7,0,5.7Z" fill="#3150a5"/>
              </g>
              <g id="Grupo_75588" data-name="Grupo 75588">
                <path id="Trazado_147558" data-name="Trazado 147558" d="M2953.63,2346.524c3.675,0,3.675-5.7,0-5.7s-3.676,5.7,0,5.7Z" fill="#3150a5"/>
              </g>
            </g>
          </g>
        </g>
        <g id="Grupo_75592" data-name="Grupo 75592">
          <path id="Trazado_147559" data-name="Trazado 147559" d="M3005.8,2242.1c-1.336-8-7.987-31.53-15.521-31.411-13.677.216-20.719,5.348-14.932,16.049-3.227-1.183-6.72,3.011.7,8.216,6.145,3.53,6.784,1.034,8.787,13.033" fill="#5080ec"/>
          <path id="Trazado_147560" data-name="Trazado 147560" d="M2974.415,2221.07c.606,1.655,1.077,3.361,1.764,4.971a11.125,11.125,0,0,0,1.245,2.272,3.507,3.507,0,0,0,1.963,1.422,1.878,1.878,0,0,0,1.13.039,1.186,1.186,0,0,0,.707-.746,5.756,5.756,0,0,0,.2-2.457,22.238,22.238,0,0,0-1.159-5.041l.817-.28a30.055,30.055,0,0,0,1.669,4.112,7.518,7.518,0,0,0,1.206,1.733,2.129,2.129,0,0,0,1.613.753h.042a1.271,1.271,0,0,0,1.352-.883,4.755,4.755,0,0,0,.12-2.083,22.683,22.683,0,0,0-1.13-4.423l.984-.337a39.956,39.956,0,0,0,1.511,4.351,7.251,7.251,0,0,0,1.136,1.843,1.632,1.632,0,0,0,1.6.665,1.392,1.392,0,0,0,1.046-1.282,6.671,6.671,0,0,0-.1-2.159,32.446,32.446,0,0,0-1.254-4.417l.748-.256a40.8,40.8,0,0,0,1.486,4.414,8.408,8.408,0,0,0,1.114,1.957,2.115,2.115,0,0,0,.793.637,1.027,1.027,0,0,0,.9-.1l.014-.008.006,0a1.942,1.942,0,0,0,.806-1.786,10.021,10.021,0,0,0-.269-2.251c-.325-1.5-.84-2.955-1.3-4.425a38.947,38.947,0,0,1,1.567,4.361,10.341,10.341,0,0,1,.391,2.315,3.484,3.484,0,0,1-.157,1.212,1.78,1.78,0,0,1-.808,1.018l.02-.011a1.523,1.523,0,0,1-1.345.2,2.665,2.665,0,0,1-1.05-.772,9,9,0,0,1-1.267-2.067,41.291,41.291,0,0,1-1.642-4.426.4.4,0,0,1,.747-.262l0,0a27.953,27.953,0,0,1,1.393,4.511,7.507,7.507,0,0,1,.125,2.472,2.748,2.748,0,0,1-.518,1.279,2.08,2.08,0,0,1-1.225.776,2.367,2.367,0,0,1-.73.06,3.1,3.1,0,0,1-.7-.181,3.343,3.343,0,0,1-1.09-.8,8.179,8.179,0,0,1-1.328-2.089,40.209,40.209,0,0,1-1.592-4.431.52.52,0,0,1,.984-.338,21.513,21.513,0,0,1,1.155,4.651,5.648,5.648,0,0,1-.2,2.547,2.227,2.227,0,0,1-.9,1.148,3.476,3.476,0,0,1-.69.284l-.7.065h.042a3.075,3.075,0,0,1-2.36-1.056,8.437,8.437,0,0,1-1.349-1.965,27.9,27.9,0,0,1-1.668-4.263l-.006-.02a.431.431,0,1,1,.821-.265l0,0a23.04,23.04,0,0,1,1.045,5.27,6.314,6.314,0,0,1-.326,2.754,1.791,1.791,0,0,1-1.1,1.057,2.42,2.42,0,0,1-1.467-.072,3.418,3.418,0,0,1-1.245-.659,4.621,4.621,0,0,1-.913-1.037,11.462,11.462,0,0,1-1.174-2.411C2975.276,2224.488,2974.9,2222.762,2974.415,2221.07Z" fill="#3150a5" opacity="0.5"/>
          <path id="Trazado_147561" data-name="Trazado 147561" d="M2985.7,2250.321c6.759-2.71,14.11-3.238,21-5.5a2.558,2.558,0,0,0,1.747-3.076,2.527,2.527,0,0,0-3.076-1.746c-6.89,2.262-14.241,2.79-21,5.5a2.579,2.579,0,0,0-1.746,3.075,2.518,2.518,0,0,0,3.075,1.747Z" fill="#62a7ff"/>
        </g>
        <g id="Grupo_75593" data-name="Grupo 75593">
          <path id="Trazado_147562" data-name="Trazado 147562" d="M2909.784,2355.66a64.853,64.853,0,0,0,10.834,7.137c1.912.981,3.827,1.954,5.8,2.825,1.957.89,3.953,1.806,5.925,2.6,3.937,1.576,8.073,2.846,12.245,4.092a96.83,96.83,0,0,1,12.443,4.35c-4.369-.634-8.678-1.239-13-2.076a68.8,68.8,0,0,1-12.825-3.593,73.674,73.674,0,0,1-11.785-6.192A35.115,35.115,0,0,1,2909.784,2355.66Z" fill="#62a7ff"/>
          <path id="Trazado_147563" data-name="Trazado 147563" d="M2914.284,2372.91a56.143,56.143,0,0,0,7.68,4.089c2.626,1.134,5.3,2.129,8.021,3.02s5.485,1.676,8.277,2.441l8.522,2.2a33.291,33.291,0,0,1-8.952.1,42.5,42.5,0,0,1-8.781-1.894,36.186,36.186,0,0,1-8.188-3.814A21.513,21.513,0,0,1,2914.284,2372.91Z" fill="#62a7ff"/>
        </g>
        <g id="Grupo_75601" data-name="Grupo 75601">
          <g id="Grupo_75594" data-name="Grupo 75594">
            <path id="Trazado_147564" data-name="Trazado 147564" d="M2895.534,2252.41c-12-3-11.026,14.334,2.5,9" fill="#ffb49b"/>
            <path id="Trazado_147565" data-name="Trazado 147565" d="M2950.034,2244.91c10-2,12,12.5-1,11" fill="#ffb49b"/>
            <path id="Trazado_147566" data-name="Trazado 147566" d="M2893.1,2232.035c0,30.691,5.443,50.375,32.664,46,25.361-4.077,28.46-18.124,20.364-52" fill="#ffb49b"/>
            <path id="Trazado_147567" data-name="Trazado 147567" d="M2915.534,2273.41c.393,4.245,1.03,8.464,1.6,12.688l-.357-2.659c.288,2.153.558,4.308.759,6.471a11.121,11.121,0,0,0,2.929,7.071,10,10,0,0,0,14.142,0c1.7-1.851,3.17-4.465,2.929-7.071-.394-4.245-1.03-8.464-1.6-12.688l.357,2.658c-.288-2.152-.558-4.307-.758-6.47a11.116,11.116,0,0,0-2.929-7.071,10,10,0,0,0-14.142,0c-1.7,1.85-3.171,4.465-2.929,7.071Z" fill="#ffb49b"/>
          </g>
          <g id="Grupo_75597" data-name="Grupo 75597">
            <g id="Grupo_75595" data-name="Grupo 75595">
              <path id="Trazado_147568" data-name="Trazado 147568" d="M2914.534,2248.91" fill="none" stroke="#3b438c" stroke-miterlimit="10" stroke-width="1"/>
              <path id="Trazado_147569" data-name="Trazado 147569" d="M2932.534,2247.41" fill="none" stroke="#3b438c" stroke-miterlimit="10" stroke-width="1"/>
            </g>
            <g id="Grupo_75596" data-name="Grupo 75596">
              <path id="Trazado_147570" data-name="Trazado 147570" d="M2917.6,2242.87a7.784,7.784,0,0,0-8.507.6c-.612.523.275,1.4.884.884,1.857-1.589,4.926-1.527,6.992-.4.707.385,1.339-.694.631-1.079Z" fill="#3b438c"/>
              <path id="Trazado_147571" data-name="Trazado 147571" d="M2936.6,2241.109c-2.683-1.188-6.3-.926-8.441,1.231a.625.625,0,0,0,.884.884,6.507,6.507,0,0,1,6.926-1.035.645.645,0,0,0,.855-.224.631.631,0,0,0-.224-.856Z" fill="#3b438c"/>
            </g>
            <path id="Trazado_147572" data-name="Trazado 147572" d="M2923.431,2247.826a42.623,42.623,0,0,1,2.5,8c.146.79,1.351.455,1.205-.332a42.623,42.623,0,0,0-2.5-8,.644.644,0,0,0-.768-.437.63.63,0,0,0-.437.769Z" fill="#c98774" opacity="0.7"/>
          </g>
          <g id="Grupo_75598" data-name="Grupo 75598">
            <path id="Trazado_147573" data-name="Trazado 147573" d="M2891.534,2235.91c0,6.5.832,16.429,3.5,22,4-7,5.107-16.5,7.5-25" fill="#3150a5"/>
            <path id="Trazado_147574" data-name="Trazado 147574" d="M2939.034,2227.41c4.332,9.952,6.832,19.309,11,25.5,1-7.5,2.167-16.5.5-25.5" fill="#3150a5"/>
          </g>
          <g id="Grupo_75600" data-name="Grupo 75600">
            <path id="Trazado_147575" data-name="Trazado 147575" d="M2891.564,2235.637c-.517-7.309-1.551-14.906,2.068-21.785,4.654-8.167,16.028-11.746,25.335-12.175,25.333-.861,32.054,12.467,32.054,30.52" fill="#7bb3ff"/>
            <path id="Trazado_147576" data-name="Trazado 147576" d="M2890.07,2240.41l-.073-8c15.688-.142,41.944-.381,62.255-4.423l1.563,7.846C2932.765,2240.023,2906.038,2240.265,2890.07,2240.41Z" fill="#62a7ff"/>
            <g id="Grupo_75599" data-name="Grupo 75599">
              <path id="Trazado_147577" data-name="Trazado 147577" d="M2898.461,2236.392c-.051-.693-.186-1.489-.319-2.261l-.432-2.351c-.287-1.574-.618-3.155-.793-4.752.655,1.457,1.446,2.838,2.206,4.248l1.147,2.123c.378.725.753,1.428,1.1,2.265Z" fill="#62a7ff"/>
              <path id="Trazado_147578" data-name="Trazado 147578" d="M2909.446,2235.234a13.345,13.345,0,0,0,.464-2.794c.091-1.021.148-2.063.2-3.107.1-2.09.114-4.205.311-6.3.3,2.077.79,4.117,1.185,6.192.2,1.038.4,2.081.557,3.147a15.581,15.581,0,0,1,.228,3.455Z" fill="#62a7ff"/>
              <path id="Trazado_147579" data-name="Trazado 147579" d="M2921.946,2235.734a10.568,10.568,0,0,0,.467-2.417c.093-.89.149-1.8.194-2.725.1-1.84.1-3.714.31-5.564.291,1.829.782,3.608,1.184,5.432.2.912.4,1.83.561,2.778a13.138,13.138,0,0,1,.225,3.084Z" fill="#62a7ff"/>
              <path id="Trazado_147580" data-name="Trazado 147580" d="M2933.917,2234.528c.117-.949.162-2,.2-3.033l.073-3.142c.05-2.1.031-4.222.228-6.325.3,2.079.816,4.114,1.265,6.172l.676,3.1c.213,1.048.423,2.085.559,3.227Z" fill="#62a7ff"/>
              <path id="Trazado_147581" data-name="Trazado 147581" d="M2942.441,2231.759l1.513-4.15,1.463-4.081,0-.035c.031-.007.011.019.018.026l0,.07,0,.138,0,.277v.554l0,1.1-.014,2.212-.038,4.422Z" fill="#62a7ff"/>
            </g>
          </g>
        </g>
        <g id="Grupo_75604" data-name="Grupo 75604">
          <g id="Grupo_75602" data-name="Grupo 75602">
            <path id="Trazado_147582" data-name="Trazado 147582" d="M2891.57,2252.156l16.893,9.03,2.44,1.3c1.418.758,2.683-1.4,1.262-2.159l-16.893-9.029-2.44-1.3c-1.419-.758-2.683,1.4-1.262,2.159Z" fill="#fff"/>
            <path id="Trazado_147583" data-name="Trazado 147583" d="M2938.418,2259.961,2950.382,2248l1.7-1.7a1.251,1.251,0,0,0-1.768-1.768l-11.964,11.963-1.7,1.7a1.251,1.251,0,0,0,1.768,1.768Z" fill="#fff"/>
          </g>
          <path id="Trazado_147584" data-name="Trazado 147584" d="M2924.417,2252.91c-22.926.5-27.044,27.5-2.943,28,8.231,0,19.988-2.5,22.926-10,3.529-8.5-4.7-19.458-19.983-18" fill="#fff"/>
          <g id="Grupo_75603" data-name="Grupo 75603" opacity="0.5">
            <path id="Trazado_147585" data-name="Trazado 147585" d="M2911.534,2262.744a28,28,0,0,1,6.221-2.434,36.45,36.45,0,0,1,6.6-1.137,33.313,33.313,0,0,1,6.712.159,22.515,22.515,0,0,1,6.464,1.745c-2.232-.117-4.4-.2-6.562-.188-2.162.024-4.314.1-6.462.277-2.151.144-4.295.4-6.45.669Z" fill="#7bb3ff"/>
            <path id="Trazado_147586" data-name="Trazado 147586" d="M2913.159,2267.411a30.313,30.313,0,0,1,5.672-1.071c1.905-.2,3.809-.3,5.7-.34s3.778-.025,5.663-.014,3.77.021,5.714.091a23.343,23.343,0,0,1-5.6,1.466,44.956,44.956,0,0,1-5.731.456c-1.908.042-3.8-.013-5.7-.1S2915.086,2267.669,2913.159,2267.411Z" fill="#7bb3ff"/>
            <path id="Trazado_147587" data-name="Trazado 147587" d="M2916.41,2272.744a31.045,31.045,0,0,1,4.684-.8c1.557-.165,3.106-.28,4.651-.356s3.087-.12,4.635-.16,3.1-.071,4.716-.02a17.3,17.3,0,0,1-4.53,1.57,29.136,29.136,0,0,1-4.721.607,35.917,35.917,0,0,1-4.732-.086A26.7,26.7,0,0,1,2916.41,2272.744Z" fill="#7bb3ff"/>
          </g>
        </g>
        <g id="Grupo_75605" data-name="Grupo 75605">
          <path id="Trazado_147588" data-name="Trazado 147588" d="M2910.73,2293.146c5.575,9.331,19.912,9.714,27.994,3.6a14.9,14.9,0,0,0,5.284-7.147c1.04-3.053-3.788-4.363-4.821-1.329a10.11,10.11,0,0,1-4.142,4.969,17.2,17.2,0,0,1-7.042,2.446,16.162,16.162,0,0,1-7.8-.861,10.267,10.267,0,0,1-5.16-4.2c-1.649-2.76-5.973-.248-4.317,2.523Z" fill="#62a7ff"/>
          <path id="Trazado_147589" data-name="Trazado 147589" d="M2926.784,2300.16c1.979,15.5,2,31.15,2,46.75,0,3.217,5,3.222,5,0,0-15.6-.021-31.25-2-46.75a2.581,2.581,0,0,0-2.5-2.5,2.515,2.515,0,0,0-2.5,2.5Z" fill="#62a7ff"/>
        </g>
      </g>
      <path id="Trazado_147590" data-name="Trazado 147590" d="M2862.176,2423.526h403.481c3.217,0,3.222-5,0-5H2862.176c-3.217,0-3.222,5,0,5Z" fill="#3150a5"/>
      <g id="Grupo_75607" data-name="Grupo 75607">
        <path id="Trazado_147591" data-name="Trazado 147591" d="M2870.16,2406.95c-3.2,12.691-2.989,20.773-2.336,22.783,2.149,6.593-3.048-.2-5.173-1.723-.75,3.037-1.456,14.038-5.179,14.667-2.827.48-.146-9.611-.378-12.28-1.8,3.473-5.065,12.717-7.182,11.863-2.609-.077,1.518-10.345,2.571-12.8-1.253,1.247-7.2,10.876-9.1,7.949-.917-1.412,4.725-8.582,6.079-10.47-1.994,1.785-7.7,6.589-8.128,4.358-1.306-1.955,10.18-18.69,10.3-29.324" fill="#5080ec"/>
        <path id="Trazado_147592" data-name="Trazado 147592" d="M2850.537,2404.607c6.132,2.938,13.1,2.718,19.458,4.9a2.5,2.5,0,1,0,1.329-4.821,61.8,61.8,0,0,0-9.418-2.072c-1.578-.278-3.157-.57-4.714-.953a24.418,24.418,0,0,1-4.132-1.373,2.568,2.568,0,0,0-3.42.9,2.522,2.522,0,0,0,.9,3.421Z" fill="#62a7ff"/>
      </g>
    </g>
  </g>
</svg>
