<svg xmlns="http://www.w3.org/2000/svg" width="85" height="85" viewBox="0 0 85 85">
  <g id="Grupo_76127" data-name="Grupo 76127" transform="translate(8782 7597)">
    <circle id="Elipse_4678" data-name="Elipse 4678" cx="42.5" cy="42.5" r="42.5" transform="translate(-8782 -7597)" fill="#00bcd4"/>
    <path id="Trazado_146021" data-name="Trazado 146021" d="M261.531,285.79H244.783a2.223,2.223,0,0,1-2.221-2.221v-1.341a2.223,2.223,0,0,1,2.221-2.22h16.748a2.223,2.223,0,0,1,2.221,2.22v1.341A2.223,2.223,0,0,1,261.531,285.79Zm-16.748-4.782a1.222,1.222,0,0,0-1.221,1.22v1.341a1.222,1.222,0,0,0,1.221,1.221h16.748a1.222,1.222,0,0,0,1.221-1.221v-1.341a1.222,1.222,0,0,0-1.221-1.22Z" transform="translate(-8994.285 -7820.817)" fill="#fff"/>
    <path id="Trazado_146022" data-name="Trazado 146022" d="M261.255,281.008h-16.2a.5.5,0,0,1-.406-.208l-1.944-2.7a73.392,73.392,0,0,0-5.053-6.436,20.869,20.869,0,0,1,14.171-34.8h0a20.692,20.692,0,0,1,15.621,5.619,20.87,20.87,0,0,1,1.175,29.224,69.231,69.231,0,0,0-4.8,6.1l-2.16,3A.5.5,0,0,1,261.255,281.008Zm-15.94-1H261l2.012-2.794a70.342,70.342,0,0,1,4.872-6.183,19.872,19.872,0,0,0-15.993-33.173h0a20.093,20.093,0,0,0-18.572,18.683,19.758,19.758,0,0,0,5.081,14.453,74.13,74.13,0,0,1,5.123,6.522Z" transform="translate(-8994.285 -7820.817)" fill="#fff"/>
    <path id="Trazado_146023" data-name="Trazado 146023" d="M244.879,287.858a.5.5,0,0,1-.063-1l16.053-2.068a.494.494,0,0,1,.56.433.5.5,0,0,1-.432.559l-16.053,2.068A.484.484,0,0,1,244.879,287.858Z" transform="translate(-8994.285 -7820.817)" fill="#fff"/>
    <path id="Trazado_146024" data-name="Trazado 146024" d="M244.879,290.275a.5.5,0,0,1-.063-1l16.053-2.068a.493.493,0,0,1,.56.433.5.5,0,0,1-.432.559l-16.053,2.069Z" transform="translate(-8994.285 -7820.817)" fill="#fff"/>
    <path id="Trazado_146025" data-name="Trazado 146025" d="M244.879,292.693a.5.5,0,0,1-.063-1l16.053-2.068a.5.5,0,0,1,.128.992l-16.053,2.069Z" transform="translate(-8994.285 -7820.817)" fill="#fff"/>
    <path id="Trazado_146026" data-name="Trazado 146026" d="M244.879,295.111a.5.5,0,0,1-.063-1l16.053-2.068a.493.493,0,0,1,.56.432.5.5,0,0,1-.432.56l-16.053,2.068A.484.484,0,0,1,244.879,295.111Z" transform="translate(-8994.285 -7820.817)" fill="#fff"/>
    <path id="Trazado_146027" data-name="Trazado 146027" d="M244.879,297.528a.5.5,0,0,1-.063-1l16.053-2.068a.5.5,0,0,1,.128.992l-16.053,2.068A.479.479,0,0,1,244.879,297.528Z" transform="translate(-8994.285 -7820.817)" fill="#fff"/>
    <path id="Trazado_146028" data-name="Trazado 146028" d="M253.157,302.234a5.211,5.211,0,0,1-5.206-5.206.5.5,0,1,1,1,0,4.206,4.206,0,0,0,8.412,0,.5.5,0,1,1,1,0A5.212,5.212,0,0,1,253.157,302.234Z" transform="translate(-8994.285 -7820.817)" fill="#fff"/>
    <path id="Trazado_146029" data-name="Trazado 146029" d="M236.459,257.224h-.028a.5.5,0,0,1-.471-.528,16.881,16.881,0,0,1,.968-4.765.5.5,0,1,1,.941.338,15.948,15.948,0,0,0-.911,4.484A.5.5,0,0,1,236.459,257.224Z" transform="translate(-8994.285 -7820.817)" fill="#fff"/>
    <path id="Trazado_146030" data-name="Trazado 146030" d="M239.537,248.52a.5.5,0,0,1-.406-.792,17.433,17.433,0,0,1,9.178-6.568.5.5,0,0,1,.284.959,16.429,16.429,0,0,0-8.649,6.191A.5.5,0,0,1,239.537,248.52Z" transform="translate(-8994.285 -7820.817)" fill="#fff"/>
  </g>
</svg>
