<svg xmlns="http://www.w3.org/2000/svg" xmlns:xlink="http://www.w3.org/1999/xlink" width="179" height="179" viewBox="0 0 179 179">
  <defs>
    <filter id="Elipse_4062" x="0" y="0" width="179" height="179" filterUnits="userSpaceOnUse">
      <feOffset dy="3" input="SourceAlpha"/>
      <feGaussianBlur stdDeviation="3" result="blur"/>
      <feFlood flood-opacity="0.161"/>
      <feComposite operator="in" in2="blur"/>
      <feComposite in="SourceGraphic"/>
    </filter>
  </defs>
  <g id="Grupo_76100" data-name="Grupo 76100" transform="translate(517 6869.727)">
    <g transform="matrix(1, 0, 0, 1, -517, -6869.73)" filter="url(#Elipse_4062)">
      <circle id="Elipse_4062-2" data-name="Elipse 4062" cx="80.5" cy="80.5" r="80.5" transform="translate(9 6)" fill="#fff"/>
    </g>
    <circle id="Elipse_4063" data-name="Elipse 4063" cx="62" cy="62" r="62" transform="translate(-491 -6844.727)" fill="#00bcd4"/>
    <path id="Trazado_146116" data-name="Trazado 146116" d="M276.088,87.544H229.924a.911.911,0,0,1-.91-.91V27.962a.909.909,0,0,1,.91-.909h46.163a.909.909,0,0,1,.91.909V86.634A.911.911,0,0,1,276.088,87.544Zm-45.254-1.819h44.346V28.872H230.833Z" transform="translate(-684.128 -6836.072)" fill="#fff"/>
    <path id="Trazado_146117" data-name="Trazado 146117" d="M238.113,36.975a.91.91,0,0,1,0-1.819c2.211,0,4.008-2.6,4.008-5.8s-1.8-5.8-4.008-5.8-4.007,2.6-4.007,5.8a.91.91,0,1,1-1.819,0c0-4.2,2.613-7.618,5.826-7.618s5.827,3.417,5.827,7.618S241.326,36.975,238.113,36.975Z" transform="translate(-683.27 -6837.466)" fill="#fff"/>
    <path id="Trazado_146118" data-name="Trazado 146118" d="M237.091,37.276a.908.908,0,0,1-.909-.909V31.25a.91.91,0,1,1,1.819,0v5.117A.909.909,0,0,1,237.091,37.276Z" transform="translate(-682.247 -6835.209)" fill="#fff"/>
    <path id="Trazado_146119" data-name="Trazado 146119" d="M249.23,36.975a.91.91,0,1,1,0-1.819c2.209,0,4.007-2.6,4.007-5.8s-1.8-5.8-4.007-5.8-4.008,2.6-4.008,5.8a.91.91,0,1,1-1.819,0c0-4.2,2.615-7.618,5.827-7.618s5.826,3.417,5.826,7.618S252.443,36.975,249.23,36.975Z" transform="translate(-680.352 -6837.466)" fill="#fff"/>
    <path id="Trazado_146120" data-name="Trazado 146120" d="M248.208,37.276a.909.909,0,0,1-.91-.909V31.25a.91.91,0,1,1,1.819,0v5.117A.908.908,0,0,1,248.208,37.276Z" transform="translate(-679.33 -6835.209)" fill="#fff"/>
    <path id="Trazado_146121" data-name="Trazado 146121" d="M260.346,36.975a.91.91,0,1,1,0-1.819c2.209,0,4.008-2.6,4.008-5.8s-1.8-5.8-4.008-5.8-4.008,2.6-4.008,5.8a.91.91,0,1,1-1.819,0c0-4.2,2.615-7.618,5.827-7.618s5.827,3.417,5.827,7.618S263.559,36.975,260.346,36.975Z" transform="translate(-677.435 -6837.466)" fill="#fff"/>
    <path id="Trazado_146122" data-name="Trazado 146122" d="M259.324,37.276a.909.909,0,0,1-.91-.909V31.25a.91.91,0,1,1,1.819,0v5.117A.908.908,0,0,1,259.324,37.276Z" transform="translate(-676.413 -6835.209)" fill="#fff"/>
    <path id="Trazado_146123" data-name="Trazado 146123" d="M240.589,50.894h-4.472a2.543,2.543,0,0,1-2.54-2.539V43.883a2.543,2.543,0,0,1,2.54-2.539h4.472a2.542,2.542,0,0,1,2.54,2.539v4.473A2.542,2.542,0,0,1,240.589,50.894Zm-4.472-7.731a.721.721,0,0,0-.721.72v4.473a.721.721,0,0,0,.721.72h4.472a.721.721,0,0,0,.721-.72V43.883a.721.721,0,0,0-.721-.72Z" transform="translate(-682.931 -6832.321)" fill="#fff"/>
    <path id="Trazado_146124" data-name="Trazado 146124" d="M265.781,48.026H244.935a.91.91,0,1,1,0-1.819h20.845a.91.91,0,1,1,0,1.819Z" transform="translate(-680.189 -6831.045)" fill="#fff"/>
    <path id="Trazado_146125" data-name="Trazado 146125" d="M265.781,44.424H244.935a.91.91,0,1,1,0-1.819h20.845a.91.91,0,1,1,0,1.819Z" transform="translate(-680.189 -6831.99)" fill="#fff"/>
    <path id="Trazado_146126" data-name="Trazado 146126" d="M240.589,61.4h-4.472a2.543,2.543,0,0,1-2.54-2.539V54.391a2.543,2.543,0,0,1,2.54-2.539h4.472a2.542,2.542,0,0,1,2.54,2.539v4.473A2.542,2.542,0,0,1,240.589,61.4Zm-4.472-7.731a.721.721,0,0,0-.721.72v4.473a.721.721,0,0,0,.721.72h4.472a.721.721,0,0,0,.721-.72V54.391a.721.721,0,0,0-.721-.72Z" transform="translate(-682.931 -6829.563)" fill="#fff"/>
    <path id="Trazado_146127" data-name="Trazado 146127" d="M265.781,58.535H244.935a.91.91,0,1,1,0-1.82h20.845a.91.91,0,0,1,0,1.82Z" transform="translate(-680.189 -6828.288)" fill="#fff"/>
    <path id="Trazado_146128" data-name="Trazado 146128" d="M265.781,54.932H244.935a.91.91,0,1,1,0-1.819h20.845a.91.91,0,1,1,0,1.819Z" transform="translate(-680.189 -6829.233)" fill="#fff"/>
    <path id="Trazado_146129" data-name="Trazado 146129" d="M240.589,71.911h-4.472a2.543,2.543,0,0,1-2.54-2.539V64.9a2.544,2.544,0,0,1,2.54-2.54h4.472a2.544,2.544,0,0,1,2.54,2.54v4.473A2.542,2.542,0,0,1,240.589,71.911Zm-4.472-7.731a.721.721,0,0,0-.721.72v4.473a.721.721,0,0,0,.721.72h4.472a.721.721,0,0,0,.721-.72V64.9a.721.721,0,0,0-.721-.72Z" transform="translate(-682.931 -6826.806)" fill="#fff"/>
    <path id="Trazado_146130" data-name="Trazado 146130" d="M265.781,69.042H244.935a.91.91,0,1,1,0-1.819h20.845a.91.91,0,1,1,0,1.819Z" transform="translate(-680.189 -6825.53)" fill="#fff"/>
    <path id="Trazado_146131" data-name="Trazado 146131" d="M265.781,65.44H244.935a.91.91,0,1,1,0-1.82h20.845a.91.91,0,1,1,0,1.82Z" transform="translate(-680.189 -6826.475)" fill="#fff"/>
    <path id="Trazado_146132" data-name="Trazado 146132" d="M279.361,30.6h-3.222v1.819h2.312V89.268H234.106V86.614h-1.819v3.563a.909.909,0,0,0,.909.91h46.165a.909.909,0,0,0,.909-.91V31.5A.908.908,0,0,0,279.361,30.6Z" transform="translate(-683.27 -6835.142)" fill="#fff"/>
  </g>
</svg>
