<svg xmlns="http://www.w3.org/2000/svg" width="285.157" height="139.345" viewBox="0 0 285.157 139.345">
  <g id="Grupo_76120" data-name="Grupo 76120" transform="translate(9293.684 9735.961)">
    <path id="Trazado_148228" data-name="Trazado 148228" d="M6.179-5.537a5.964,5.964,0,0,1-.268,2.026,3.026,3.026,0,0,1-.9,1.244l-.58.536A2.292,2.292,0,0,0,3.612-.1a1.221,1.221,0,0,0,.294.91,1.046,1.046,0,0,0,.76.286A1.161,1.161,0,0,0,5.585.725,1.615,1.615,0,0,0,5.933-.334H8.912A3.6,3.6,0,0,1,7.792,2.408a4.411,4.411,0,0,1-3.054.976,4.535,4.535,0,0,1-3.028-.91A3.192,3.192,0,0,1,.642-.1,2.953,2.953,0,0,1,.976-1.472a5.455,5.455,0,0,1,1.143-1.4l.747-.686A2.019,2.019,0,0,0,3.621-4.9l.044-.633ZM5-6.724a1.7,1.7,0,0,1-1.173-.417,1.364,1.364,0,0,1-.47-1.068,1.364,1.364,0,0,1,.47-1.068A1.7,1.7,0,0,1,5-9.694a1.674,1.674,0,0,1,1.182.426,1.383,1.383,0,0,1,.461,1.059A1.383,1.383,0,0,1,6.183-7.15,1.674,1.674,0,0,1,5-6.724ZM20.487-4.333a4.673,4.673,0,0,1-.721,2.36,4.35,4.35,0,0,1-1.85,1.586A6.3,6.3,0,0,1,15.2.176a5.025,5.025,0,0,1-3.973-1.644,6.786,6.786,0,0,1-1.45-4.641v-.633a7.746,7.746,0,0,1,.655-3.292,4.961,4.961,0,0,1,1.885-2.18,5.26,5.26,0,0,1,2.848-.769,5.516,5.516,0,0,1,3.744,1.226,4.844,4.844,0,0,1,1.608,3.379H17.438a2.292,2.292,0,0,0-.589-1.679,2.422,2.422,0,0,0-1.687-.51,1.843,1.843,0,0,0-1.687.861,5.536,5.536,0,0,0-.562,2.751v.905a6.126,6.126,0,0,0,.514,2.927,1.882,1.882,0,0,0,1.771.879,2.369,2.369,0,0,0,1.626-.5,2.126,2.126,0,0,0,.6-1.591Zm.949-.51a5.613,5.613,0,0,1,.554-2.536,3.96,3.96,0,0,1,1.591-1.709,4.791,4.791,0,0,1,2.435-.6,4.373,4.373,0,0,1,3.366,1.323,5.076,5.076,0,0,1,1.23,3.6v.105a4.925,4.925,0,0,1-1.235,3.529A4.384,4.384,0,0,1,26.033.176a4.434,4.434,0,0,1-3.261-1.217,4.761,4.761,0,0,1-1.327-3.3Zm2.962.185a3.538,3.538,0,0,0,.413,1.934,1.376,1.376,0,0,0,1.222.615q1.582,0,1.617-2.435v-.3q0-2.558-1.635-2.558-1.485,0-1.608,2.206ZM26.42-13.5h3.129l-2.443,2.76-2.417,0Zm8.3,3.99.1,1.116a3.27,3.27,0,0,1,2.716-1.292,2.407,2.407,0,0,1,2.435,1.433,3.165,3.165,0,0,1,2.795-1.433q2.892,0,2.971,3.5V0H42.759V-6a1.813,1.813,0,0,0-.246-1.063,1.048,1.048,0,0,0-.9-.334,1.4,1.4,0,0,0-1.31.782l.009.123V0H37.345V-5.985a1.906,1.906,0,0,0-.237-1.081A1.045,1.045,0,0,0,36.2-7.4a1.42,1.42,0,0,0-1.3.782V0H31.939V-9.51ZM47.048-4.843A5.613,5.613,0,0,1,47.6-7.378a3.96,3.96,0,0,1,1.591-1.709,4.791,4.791,0,0,1,2.435-.6,4.373,4.373,0,0,1,3.366,1.323,5.076,5.076,0,0,1,1.23,3.6v.105a4.925,4.925,0,0,1-1.235,3.529A4.384,4.384,0,0,1,51.645.176a4.434,4.434,0,0,1-3.261-1.217,4.761,4.761,0,0,1-1.327-3.3Zm2.962.185a3.538,3.538,0,0,0,.413,1.934,1.376,1.376,0,0,0,1.222.615q1.582,0,1.617-2.435v-.3q0-2.558-1.635-2.558-1.485,0-1.608,2.206Zm14.9-3.832a2.964,2.964,0,0,1,2.426-1.2,2.956,2.956,0,0,1,2.373.932A4.186,4.186,0,0,1,70.523-6V0H67.553V-5.933a1.674,1.674,0,0,0-.308-1.112A1.322,1.322,0,0,0,66.2-7.4a1.424,1.424,0,0,0-1.292.58V0H61.945V-13.5h2.962ZM77.528,0a3.344,3.344,0,0,1-.281-.853A2.754,2.754,0,0,1,74.962.176a3.374,3.374,0,0,1-2.285-.813,2.588,2.588,0,0,1-.94-2.043,2.66,2.66,0,0,1,1.143-2.338A5.821,5.821,0,0,1,76.2-5.81h.914v-.5q0-1.316-1.134-1.316a.927.927,0,0,0-1.055,1.042H71.965a2.655,2.655,0,0,1,1.173-2.239,4.931,4.931,0,0,1,2.993-.86A4.323,4.323,0,0,1,79-8.8a3.086,3.086,0,0,1,1.081,2.435v4.21a4.311,4.311,0,0,0,.4,2V0ZM75.674-1.934a1.652,1.652,0,0,0,.918-.237,1.487,1.487,0,0,0,.523-.536V-4.228h-.861q-1.547,0-1.547,1.389a.848.848,0,0,0,.272.655A.986.986,0,0,0,75.674-1.934Zm10.072-.176a1.317,1.317,0,0,0,.967-.338,1.241,1.241,0,0,0,.334-.945h2.777A3.288,3.288,0,0,1,88.7-.826a4.168,4.168,0,0,1-2.887,1,4.22,4.22,0,0,1-3.27-1.3,5.125,5.125,0,0,1-1.2-3.6v-.123A5.792,5.792,0,0,1,81.883-7.4a3.872,3.872,0,0,1,1.534-1.7,4.573,4.573,0,0,1,2.373-.593,4.116,4.116,0,0,1,2.944,1.028,3.647,3.647,0,0,1,1.09,2.786H87.047A1.626,1.626,0,0,0,86.687-7a1.244,1.244,0,0,0-.967-.4q-1.151,0-1.345,1.468a10.357,10.357,0,0,0-.062,1.283,4.068,4.068,0,0,0,.343,1.986A1.187,1.187,0,0,0,85.746-2.109ZM95.678.176a4.889,4.889,0,0,1-3.542-1.305,4.507,4.507,0,0,1-1.354-3.4v-.246a5.84,5.84,0,0,1,.541-2.575A3.955,3.955,0,0,1,92.9-9.075a4.763,4.763,0,0,1,2.461-.611,4.117,4.117,0,0,1,3.164,1.244,4.887,4.887,0,0,1,1.16,3.467v1.151H93.8a2.135,2.135,0,0,0,.694,1.257,2.066,2.066,0,0,0,1.389.457,2.662,2.662,0,0,0,2.2-.984l1.354,1.6A3.784,3.784,0,0,1,97.862-.277,5.3,5.3,0,0,1,95.678.176ZM95.344-7.4q-1.3,0-1.547,1.723h2.988v-.229a1.467,1.467,0,0,0-.36-1.1A1.434,1.434,0,0,0,95.344-7.4Zm11.285.571-.976-.07a1.752,1.752,0,0,0-1.793.879V0H100.9V-9.51h2.777l.1,1.222a2.294,2.294,0,0,1,2.083-1.4,2.888,2.888,0,0,1,.826.105ZM110.821,0h-2.971V-13.5h2.971Zm1.45-4.843a5.613,5.613,0,0,1,.554-2.536,3.96,3.96,0,0,1,1.591-1.709,4.791,4.791,0,0,1,2.435-.6,4.373,4.373,0,0,1,3.366,1.323,5.076,5.076,0,0,1,1.23,3.6v.105a4.925,4.925,0,0,1-1.235,3.529A4.384,4.384,0,0,1,116.868.176a4.434,4.434,0,0,1-3.261-1.217,4.761,4.761,0,0,1-1.327-3.3Zm2.962.185a3.538,3.538,0,0,0,.413,1.934,1.376,1.376,0,0,0,1.222.615q1.582,0,1.617-2.435v-.3q0-2.558-1.635-2.558-1.485,0-1.608,2.206Zm9.712.606a5.721,5.721,0,0,1,.29-2.026,3.168,3.168,0,0,1,.94-1.288,6.252,6.252,0,0,0,.989-1,1.628,1.628,0,0,0,.338-1q0-1.327-1.143-1.327a1.06,1.06,0,0,0-.853.387,1.645,1.645,0,0,0-.343,1.046h-2.971a3.544,3.544,0,0,1,1.107-2.738,4.415,4.415,0,0,1,3.059-.98,4.587,4.587,0,0,1,3.037.905,3.177,3.177,0,0,1,1.077,2.575,3,3,0,0,1-.29,1.327,4.485,4.485,0,0,1-.932,1.222L128.241-6a2.378,2.378,0,0,0-.6.848,3.361,3.361,0,0,0-.185,1.1Zm-.36,2.672a1.364,1.364,0,0,1,.47-1.068,1.7,1.7,0,0,1,1.173-.417,1.7,1.7,0,0,1,1.173.417,1.364,1.364,0,0,1,.47,1.068,1.364,1.364,0,0,1-.47,1.068,1.7,1.7,0,0,1-1.173.417,1.7,1.7,0,0,1-1.173-.417A1.364,1.364,0,0,1,124.585-1.38Z" transform="translate(-9139 -9600)" fill="#fff"/>
    <path id="Trazado_148227" data-name="Trazado 148227" d="M11.013-10.415H7.172V0H4.087V-10.415H.316V-12.8h10.7ZM17.534,0a3.344,3.344,0,0,1-.281-.853A2.754,2.754,0,0,1,14.968.176a3.374,3.374,0,0,1-2.285-.813,2.588,2.588,0,0,1-.94-2.043,2.66,2.66,0,0,1,1.143-2.338,5.821,5.821,0,0,1,3.322-.791h.914v-.5q0-1.316-1.134-1.316a.927.927,0,0,0-1.055,1.042H11.971a2.655,2.655,0,0,1,1.173-2.239,4.931,4.931,0,0,1,2.993-.86,4.323,4.323,0,0,1,2.874.888,3.086,3.086,0,0,1,1.081,2.435v4.21a4.311,4.311,0,0,0,.4,2V0ZM15.68-1.934a1.652,1.652,0,0,0,.918-.237,1.487,1.487,0,0,0,.523-.536V-4.228H16.26q-1.547,0-1.547,1.389a.848.848,0,0,0,.272.655A.986.986,0,0,0,15.68-1.934ZM16.418-13.5h3.129L17.1-10.74l-2.417,0ZM25.752-2.109a1.317,1.317,0,0,0,.967-.338,1.241,1.241,0,0,0,.334-.945H29.83A3.288,3.288,0,0,1,28.709-.826a4.168,4.168,0,0,1-2.887,1,4.22,4.22,0,0,1-3.27-1.3,5.125,5.125,0,0,1-1.2-3.6v-.123A5.792,5.792,0,0,1,21.889-7.4a3.872,3.872,0,0,1,1.534-1.7A4.573,4.573,0,0,1,25.8-9.686,4.116,4.116,0,0,1,28.74-8.657a3.647,3.647,0,0,1,1.09,2.786H27.053A1.626,1.626,0,0,0,26.692-7a1.244,1.244,0,0,0-.967-.4q-1.151,0-1.345,1.468a10.357,10.357,0,0,0-.062,1.283,4.068,4.068,0,0,0,.343,1.986A1.187,1.187,0,0,0,25.752-2.109Zm8.78-9.765V-9.51H36.1v2.057H34.532V-3.1a1.111,1.111,0,0,0,.193.747,1.037,1.037,0,0,0,.765.211,4.345,4.345,0,0,0,.738-.053V-.079a5.466,5.466,0,0,1-1.67.255A3.1,3.1,0,0,1,32.3-.545a2.954,2.954,0,0,1-.729-2.188v-4.72H30.357V-9.51H31.57v-2.364ZM40.386,0H37.415V-9.51h2.971ZM37.239-11.962A1.322,1.322,0,0,1,37.7-13a1.724,1.724,0,0,1,1.187-.4,1.724,1.724,0,0,1,1.187.4,1.322,1.322,0,0,1,.457,1.037,1.322,1.322,0,0,1-.457,1.037,1.724,1.724,0,0,1-1.187.4,1.724,1.724,0,0,1-1.187-.4A1.322,1.322,0,0,1,37.239-11.962ZM46.23-2.109a1.317,1.317,0,0,0,.967-.338,1.241,1.241,0,0,0,.334-.945h2.777A3.288,3.288,0,0,1,49.188-.826a4.168,4.168,0,0,1-2.887,1,4.22,4.22,0,0,1-3.27-1.3,5.125,5.125,0,0,1-1.2-3.6v-.123A5.792,5.792,0,0,1,42.368-7.4a3.872,3.872,0,0,1,1.534-1.7,4.573,4.573,0,0,1,2.373-.593,4.116,4.116,0,0,1,2.944,1.028,3.647,3.647,0,0,1,1.09,2.786H47.531A1.626,1.626,0,0,0,47.171-7a1.244,1.244,0,0,0-.967-.4q-1.151,0-1.345,1.468A10.357,10.357,0,0,0,44.8-4.649a4.068,4.068,0,0,0,.343,1.986A1.187,1.187,0,0,0,46.23-2.109ZM56.918,0a3.344,3.344,0,0,1-.281-.853A2.754,2.754,0,0,1,54.352.176a3.374,3.374,0,0,1-2.285-.813,2.588,2.588,0,0,1-.94-2.043,2.66,2.66,0,0,1,1.143-2.338,5.821,5.821,0,0,1,3.322-.791H56.5v-.5q0-1.316-1.134-1.316a.927.927,0,0,0-1.055,1.042H51.354a2.655,2.655,0,0,1,1.173-2.239,4.931,4.931,0,0,1,2.993-.86,4.323,4.323,0,0,1,2.874.888,3.086,3.086,0,0,1,1.081,2.435v4.21a4.311,4.311,0,0,0,.4,2V0ZM55.063-1.934a1.652,1.652,0,0,0,.918-.237,1.487,1.487,0,0,0,.523-.536V-4.228h-.861q-1.547,0-1.547,1.389a.848.848,0,0,0,.272.655A.986.986,0,0,0,55.063-1.934Z" transform="translate(-9294 -9600)" fill="#fff"/>
    <path id="Trazado_148229" data-name="Trazado 148229" d="M0,0H29" transform="translate(-9195.5 -9607)" fill="none" stroke="#fff" stroke-width="3"/>
    <path id="Trazado_148230" data-name="Trazado 148230" d="M5,0l5,10H0Z" transform="translate(-9160 -9612) rotate(90)" fill="#fff"/>
    <path id="Trazado_145852" data-name="Trazado 145852" d="M500.967,209.38a.356.356,0,0,0-.357-.356h-.423c4.18-15.952,19.766-21.335,18.906-39.239-.727-15.153-12.079-28.272-28.56-28.266-16.313.006-27.82,12.985-28.544,28.284-.782,16.521,12.146,22.151,17.607,35.3a30.382,30.382,0,0,1,1.325,3.926H480.5a.356.356,0,0,0-.356.357l0,4.956,20.827-.008Zm-5.758-3.8,0-12.872a2.148,2.148,0,0,0-.252-1.009c1.863-6.23,5.313-17.816,6.232-20.916,3.358-.129,7.31-.225,8.759-2.42,2.288-3.467-3.052-8.322-6.713-6.419-2.273,1.184-2.937,4.485-3.558,6.9-4.105.1-14.237.107-18.325.006-.652-2.516-1.8-9.01-7.272-6.919-3.317,1.267-4.162,4.688-3,6.445,1.461,2.21,5.461,2.288,8.76,2.415,2.394,8.021,3.7,12.427,6.27,20.987a2.119,2.119,0,0,0-.215.932l0,12.873-2.426,0c-2.184-6.235-5.806-10.786-9.371-15.241-5.312-6.638-9.075-11.677-8.662-20.372a27.065,27.065,0,0,1,7.454-17.639,24.035,24.035,0,0,1,17.642-7.359,24.472,24.472,0,0,1,14.152,4.367,26.613,26.613,0,0,1,10.963,20.614c.428,8.934-3.8,14.256-8.693,20.421-3.363,4.234-7.121,8.968-9.316,15.2Zm-6.29-28.306a1.614,1.614,0,0,0,.561,1.218l0,12.076-1.454,0a1.93,1.93,0,0,0-.21.011c-1.408-4.7-5.074-16.981-5.893-19.731,3.073.064,14.151.058,17.17-.006-.98,3.3-4.08,13.711-5.881,19.732-.051,0-.1-.008-.153-.008h-1.454l0-12.076a1.621,1.621,0,1,0-2.687-1.218Zm12.83-8.541c.638-2.533,1.343-5.221,3.243-5.221,2.452,0,4.033,2.63,3.294,3.757-.88,1.334-4.813,1.414-6.546,1.5Zm-29.016-1.454c-1.138-1.73,2.254-4.541,4.136-3.565,1.3.679,1.912,3.09,2.4,5.027C479.369,169.1,473.563,168.532,472.734,167.275Z" transform="translate(-9667.041 -9877.479)" fill="#fff"/>
    <path id="Trazado_148231" data-name="Trazado 148231" d="M0,0H20.828V2.592H0Z" transform="translate(-9186.899 -9661.133)" fill="#fff"/>
    <path id="Trazado_145853" data-name="Trazado 145853" d="M493.2,195.915h.7a.716.716,0,0,0,.741-.692v-1.912l-20.827.008v1.912a.718.718,0,0,0,.742.69h.713c1.829,3.751,3.418,7.745,7.463,7.744l3,0C489.882,203.662,491.356,199.664,493.2,195.915Z" transform="translate(-9660.714 -9849.852)" fill="#fff"/>
  </g>
</svg>
