<svg xmlns="http://www.w3.org/2000/svg" width="791.623" height="507.841" viewBox="0 0 791.623 507.841">
  <g id="Grupo_76111" data-name="Grupo 76111" transform="translate(-355.188 -5651.458)">
    <g id="Grupo_76110" data-name="Grupo 76110" transform="translate(-5230.122 4807.862)">
      <rect id="Rectángulo_33261" data-name="Rectángulo 33261" width="791.623" height="506.199" rx="48.12" transform="translate(5585.311 843.596)" fill="#f6f6f6"/>
      <path id="Trazado_148117" data-name="Trazado 148117" d="M6154.05,1034.8h183.065V1273.27H5879.128V1145.828" fill="none" stroke="#7c5ee3" stroke-linecap="round" stroke-linejoin="bevel" stroke-width="3" stroke-dasharray="12"/>
      <line id="Línea_227" data-name="Línea 227" x1="110.834" transform="translate(5812.058 909.803)" fill="none" stroke="#7c5ee3" stroke-linecap="round" stroke-linejoin="bevel" stroke-width="3" stroke-dasharray="12"/>
      <path id="Trazado_148118" data-name="Trazado 148118" d="M5696.98,1062.672h211.445V987.453h231.3" fill="none" stroke="#7c5ee3" stroke-linecap="round" stroke-linejoin="bevel" stroke-width="3" stroke-dasharray="12"/>
      <g id="Grupo_76086" data-name="Grupo 76086">
        <path id="Rectángulo_33254" data-name="Rectángulo 33254" d="M5.577,0h24.7a5.577,5.577,0,0,1,5.577,5.577V62.145a5.578,5.578,0,0,1-5.578,5.578H5.577A5.577,5.577,0,0,1,0,62.146V5.577A5.577,5.577,0,0,1,5.577,0Z" transform="translate(5992.048 951.582)" fill="#fff" stroke="#000" stroke-miterlimit="10" stroke-width="3"/>
        <g id="Grupo_76085" data-name="Grupo 76085">
          <path id="Trazado_148119" data-name="Trazado 148119" d="M6022.325,951.582h-24.7a5.585,5.585,0,0,0-5.579,5.577v56.569a5.583,5.583,0,0,0,5.579,5.577h24.7a5.582,5.582,0,0,0,5.577-5.577V957.159A5.583,5.583,0,0,0,6022.325,951.582Z" fill="#e0e6fe" stroke="#000" stroke-linecap="round" stroke-linejoin="round" stroke-width="3"/>
        </g>
        <rect id="Rectángulo_33255" data-name="Rectángulo 33255" width="35.854" height="42.172" transform="translate(5992.048 959.358)" fill="#fff" stroke="#000" stroke-miterlimit="10" stroke-width="3"/>
        <path id="Trazado_148120" data-name="Trazado 148120" d="M6009.88,1013.715a1.542,1.542,0,1,1,1.544-1.543A1.545,1.545,0,0,1,6009.88,1013.715Z" fill="#fff" stroke="#000" stroke-miterlimit="10" stroke-width="3"/>
        <path id="Trazado_148121" data-name="Trazado 148121" d="M6014.579,1010.293a4.7,4.7,0,1,1-4.7-4.694A4.7,4.7,0,0,1,6014.579,1010.293Z" fill="#fff" stroke="#000" stroke-miterlimit="10" stroke-width="3"/>
      </g>
      <g id="Grupo_76087" data-name="Grupo 76087">
        <path id="Trazado_148122" data-name="Trazado 148122" d="M5800.865,1119.938a2.71,2.71,0,0,0,2.834,2.581,2.77,2.77,0,0,0,2.66-2.875,1.883,1.883,0,0,1,1.236-1.865,14.745,14.745,0,0,0,2.953-1.463,1.847,1.847,0,0,1,2.237.082,2.753,2.753,0,1,0,3.74-4.041,2.056,2.056,0,0,1-.441-2.379,14.736,14.736,0,0,0,1.007-2.966,1.856,1.856,0,0,1,1.66-1.5,2.777,2.777,0,0,0,2.682-2.878,2.744,2.744,0,0,0-2.871-2.618,1.915,1.915,0,0,1-1.923-1.237,14.857,14.857,0,0,0-1.405-2.966,1.87,1.87,0,0,1,.1-2.243,2.751,2.751,0,1,0-4.055-3.718,1.818,1.818,0,0,1-2.14.4,14.719,14.719,0,0,0-3.427-1.211,1.66,1.66,0,0,1-1.279-1.557,2.68,2.68,0,0,0-2.8-2.555l-.121.006a2.7,2.7,0,0,0-2.572,2.817,1.806,1.806,0,0,1-1.29,1.737,14.842,14.842,0,0,0-3.322,1.606,1.61,1.61,0,0,1-1.957-.171,2.6,2.6,0,0,0-3.671.168l-.18.2a2.636,2.636,0,0,0,.17,3.722,1.775,1.775,0,0,1,.314,2.1,14.736,14.736,0,0,0-1.2,3.52,1.621,1.621,0,0,1-1.492,1.31,2.576,2.576,0,0,0-2.454,2.693l.012.283a2.644,2.644,0,0,0,2.763,2.519,1.663,1.663,0,0,1,1.665,1.1A14.8,14.8,0,0,0,5790,1112a1.626,1.626,0,0,1-.133,2,2.618,2.618,0,0,0,.172,3.7l.123.116a2.713,2.713,0,0,0,3.834-.179,1.81,1.81,0,0,1,2.108-.375,14.713,14.713,0,0,0,3.47,1.137A1.634,1.634,0,0,1,5800.865,1119.938Zm-3.961-15.913a5.579,5.579,0,1,1,5.908,5.233A5.582,5.582,0,0,1,5796.9,1104.025Z" fill="#e0e6fe"/>
        <path id="Trazado_148123" data-name="Trazado 148123" d="M5751.144,1088.843a2.751,2.751,0,1,0,4.838,2.622l.784-1.446a1.956,1.956,0,0,1,2.343-.866,23.981,23.981,0,0,0,3.285.8,1.886,1.886,0,0,1,1.551,1.831l.043,1.6a2.75,2.75,0,0,0,5.5-.147l-.039-1.552a1.938,1.938,0,0,1,1.594-1.908,24.171,24.171,0,0,0,3.287-.93,1.929,1.929,0,0,1,2.3.812l.754,1.233a2.753,2.753,0,0,0,4.694-2.877l-.7-1.144a1.922,1.922,0,0,1,.441-2.441,23.318,23.318,0,0,0,2.441-2.481,1.971,1.971,0,0,1,2.43-.484l1.051.575a2.752,2.752,0,0,0,2.624-4.838l-.944-.512a1.832,1.832,0,0,1-.879-2.209,23.386,23.386,0,0,0,.945-3.575,2,2,0,0,1,1.868-1.685l.927-.026a2.75,2.75,0,1,0-.143-5.5l-.831.02a1.842,1.842,0,0,1-1.872-1.472,23.614,23.614,0,0,0-1-3.626,2.022,2.022,0,0,1,.75-2.441l.611-.376a2.752,2.752,0,0,0-2.876-4.692l-.559.344a1.854,1.854,0,0,1-2.363-.325,23.359,23.359,0,0,0-2.864-2.752,1.907,1.907,0,0,1-.485-2.386l.3-.543a2.753,2.753,0,1,0-4.839-2.625l-.3.544a1.9,1.9,0,0,1-2.256.9,23.625,23.625,0,0,0-3.7-.876,1.969,1.969,0,0,1-1.738-1.827l-.017-.652a2.752,2.752,0,0,0-5.5.142l.022.719a1.9,1.9,0,0,1-1.463,1.918,23.94,23.94,0,0,0-3.6,1.113,1.959,1.959,0,0,1-2.421-.7l-.435-.708a2.748,2.748,0,0,0-4.687,2.872l.488.8a2.027,2.027,0,0,1-.424,2.514,23.319,23.319,0,0,0-2.385,2.631,1.9,1.9,0,0,1-2.4.553l-.948-.513a2.75,2.75,0,1,0-2.622,4.835l1.054.573a2.036,2.036,0,0,1,.889,2.4,23.223,23.223,0,0,0-.729,3.4,1.858,1.858,0,0,1-1.794,1.6l-1.339.038a2.751,2.751,0,1,0,.149,5.5l1.443-.039a2.008,2.008,0,0,1,1.961,1.585,23.491,23.491,0,0,0,1.027,3.259,1.87,1.87,0,0,1-.766,2.279l-1.321.812a2.751,2.751,0,0,0,2.876,4.69l1.368-.838a1.955,1.955,0,0,1,2.447.374,23.467,23.467,0,0,0,2.475,2.307,1.891,1.891,0,0,1,.468,2.373Zm7.631-26.059a8.621,8.621,0,1,1,3.469,11.689A8.623,8.623,0,0,1,5758.775,1062.784Z" fill="#d1bff3"/>
      </g>
      <path id="Trazado_148124" data-name="Trazado 148124" d="M5632.5,918.809a1.109,1.109,0,0,1,1.988,0l3.569,7.237a2.143,2.143,0,0,0,1.608,1.167l7.985,1.161a1.107,1.107,0,0,1,.614,1.888l-5.777,5.633a2.131,2.131,0,0,0-.615,1.889l1.364,7.953a1.108,1.108,0,0,1-1.607,1.167l-7.141-3.755a2.142,2.142,0,0,0-1.988,0l-7.141,3.755a1.107,1.107,0,0,1-1.607-1.167l1.364-7.953a2.139,2.139,0,0,0-.614-1.889l-5.778-5.633a1.106,1.106,0,0,1,.614-1.888l7.984-1.161a2.146,2.146,0,0,0,1.608-1.167Z" fill="#d1bff3"/>
      <g id="Grupo_76090" data-name="Grupo 76090">
        <g id="Grupo_76088" data-name="Grupo 76088">
          <path id="Rectángulo_33256" data-name="Rectángulo 33256" d="M2.669,0h37.5a2.668,2.668,0,0,1,2.668,2.668v37.5a2.671,2.671,0,0,1-2.671,2.671H2.671A2.671,2.671,0,0,1,0,40.168V2.669A2.669,2.669,0,0,1,2.669,0Z" transform="translate(5908.449 879.131)" fill="#fff" stroke="#0e1551" stroke-linecap="round" stroke-linejoin="round" stroke-width="3"/>
        </g>
        <g id="Grupo_76089" data-name="Grupo 76089">
          <path id="Trazado_148125" data-name="Trazado 148125" d="M5951.173,913.666l-11.912-11.912-5.065,5.064-10.506-10.5-15.065,15.064" fill="none" stroke="#0e1551" stroke-linecap="round" stroke-linejoin="round" stroke-width="3"/>
          <path id="Trazado_148126" data-name="Trazado 148126" d="M5939.355,894.72a4.762,4.762,0,1,0-4.763-4.762A4.764,4.764,0,0,0,5939.355,894.72Z" fill="#7c5ee3" stroke="#0e1551" stroke-miterlimit="10" stroke-width="1"/>
        </g>
      </g>
      <g id="Grupo_76091" data-name="Grupo 76091">
        <path id="Trazado_148127" data-name="Trazado 148127" d="M6249.829,964.288a8.087,8.087,0,1,0,7.712,8.438A8.1,8.1,0,0,0,6249.829,964.288Z" fill="#d1bff3"/>
        <path id="Trazado_148128" data-name="Trazado 148128" d="M6250.38,951.7a20.558,20.558,0,0,0-16.225,6.788,3.159,3.159,0,0,0,.913,4.74,4.405,4.405,0,0,0,5.3-.778,13.458,13.458,0,0,1,18.3.057,4.437,4.437,0,0,0,5.337.88,3.244,3.244,0,0,0,.824-4.89A20.566,20.566,0,0,0,6250.38,951.7Z" fill="#d1bff3"/>
        <path id="Trazado_148129" data-name="Trazado 148129" d="M6250.878,939.4a31.88,31.88,0,0,0-26.27,11.868,3.329,3.329,0,0,0,.924,4.888,4.05,4.05,0,0,0,5.2-.971,24.76,24.76,0,0,1,37.592.077,4.065,4.065,0,0,0,5.219,1.048,3.327,3.327,0,0,0,1-4.847A31.841,31.841,0,0,0,6250.878,939.4Z" fill="#d1bff3"/>
        <path id="Trazado_148130" data-name="Trazado 148130" d="M6251.368,927.29a42.934,42.934,0,0,0-36.144,16.957,3.416,3.416,0,0,0,.946,4.946,3.912,3.912,0,0,0,5.138-1.026,35.849,35.849,0,0,1,56.5.15,3.869,3.869,0,0,0,5.1,1.02,3.371,3.371,0,0,0,1.059-4.832A42.864,42.864,0,0,0,6251.368,927.29Z" fill="#d1bff3"/>
      </g>
      <g id="Grupo_76093" data-name="Grupo 76093">
        <path id="Trazado_148131" data-name="Trazado 148131" d="M5677.218,1187.932v-.036h-11.467v.008l-16.259.013-6.723,8.108c-1.562,1.951-3.831,3.494-3.831,7.126v6c0,3.194,1.015,3.2,3.16,3.2h24.462c3.01,0,10.608-4.706,10.608-4.706.671,0,1.044-.265,1.044-1.864V1191C5678.212,1188.6,5678.076,1188.056,5677.218,1187.932Z" fill="#fff" stroke="#0e1551" stroke-linecap="round" stroke-width="3"/>
        <path id="Trazado_148132" data-name="Trazado 148132" d="M5678.212,1191c0-2.381-.138-2.932-.994-3.067v-.04h-27.754l-6.695,8.129c-1.553,1.939-3.825,3.76-3.825,7.054.022,3.081,1.036,3.093,3.154,3.093h24.462c2.647,0,4.977-1.582,7.271-3.776l4.381-3.41Z" fill="#fff" stroke="#0e1551" stroke-linecap="round" stroke-width="3"/>
        <path id="Trazado_148133" data-name="Trazado 148133" d="M5724.492,1196.025l-6.726-8.108-16.257-.013v-.008h-11.467v.036c-.857.122-1,.663-1,3.071v14.773c0,1.6.375,1.864,1.045,1.864,0,0,7.6,4.706,10.608,4.706h24.461c2.148,0,3.161,0,3.161-3.2v-6C5728.321,1200.406,5726.052,1197.976,5724.492,1196.025Z" fill="#fff" stroke="#0e1551" stroke-linecap="round" stroke-width="3"/>
        <path id="Trazado_148134" data-name="Trazado 148134" d="M5689.046,1191c0-2.381.143-2.932,1-3.067v-.04h27.752l6.7,8.129c1.55,1.939,3.824,4.112,3.824,7.054-.024,3.081-1.035,3.093-3.156,3.093H5700.7c-2.647,0-4.974-1.582-7.272-3.776l-4.381-3.41Z" fill="#fff" stroke="#0e1551" stroke-linecap="round" stroke-width="3"/>
        <path id="Trazado_148135" data-name="Trazado 148135" d="M5637.552,1076.515a4.8,4.8,0,0,0-4.538-5.055l-12.988-.57-3.084,18.643s-1.048,10.8,6.509,11.133c.353.015.677.026.985.043,2.154.093,2.911-2.532,3.008-4.721l2.6-14.738a1.332,1.332,0,1,1,2.661.12l.7,5.7a2.312,2.312,0,1,0,4.619.2Z" fill="#fff" stroke="#0e1551" stroke-linecap="round" stroke-width="3"/>
        <path id="Trazado_148136" data-name="Trazado 148136" d="M5694.033,965.6l1.453-1.51-.35-20.229H5671.6l-.324,19.793,1.871,1.954a8.869,8.869,0,0,0,6.373,2.712h4.15v-.005h4A8.854,8.854,0,0,0,5694.033,965.6Z" fill="#fff" stroke="#0e1551" stroke-linecap="round" stroke-width="3"/>
        <path id="Trazado_148137" data-name="Trazado 148137" d="M5683.808,1050.066h-.223l-34.7.223v137.735c0,1.96,1.065,2,2.071,2l25.316-.036c1.939-.035,2.442.2,2.513-2.608l2.337-98.8c.19-4.206,4.511-4.039,4.7.167l2.765,98.933c0,2.312.741,2.5,2.533,2.5l24.922-.013c2.805-.007,2.464-1.068,2.464-2.242V1050.289Z" fill="#e0e6fe" stroke="#0e1551" stroke-linecap="round" stroke-linejoin="round" stroke-width="3"/>
        <path id="Trazado_148138" data-name="Trazado 148138" d="M5665.6,917.559l-1.375.086c-2.072.575-5.265,2.525-4.74,5.677.475,2.867.705,3.112,1.287,6.665.824,5.029,5.9,3.39,5.9,3.39Z" fill="#fff" stroke="#0e1551" stroke-linecap="round" stroke-width="3"/>
        <path id="Trazado_148139" data-name="Trazado 148139" d="M5683.511,900.551v.006l-18.734.077V936.3a9.384,9.384,0,0,0,2.607,6.477l5.76,6a8.866,8.866,0,0,0,6.373,2.713h4.15v-.006h4a8.86,8.86,0,0,0,6.371-2.713l5.761-6a9.378,9.378,0,0,0,2.606-6.48V900.63Z" fill="#fff" stroke="#0e1551" stroke-linecap="round" stroke-width="3"/>
        <path id="Trazado_148140" data-name="Trazado 148140" d="M5664.761,919.478v-9.567c-.056-4.318,2.933-8.669,7.683-8.739h9.124c2.419.887.035,6.233,2.439,5.313l14.383-5.441c2.58-.556,4.059,1.684,4.059,3.764V922.2c0,.722,2.787-1.2,3.754-5.3l1.724-24.424c.066-3.313-.9-6.579-5.527-6.579l-10.437,0h-14.158c-11.655-.2-20.434,5.48-18.473,18.005l1.271,11.011C5661.009,918.126,5664.761,920.117,5664.761,919.478Z" fill="#e0e6fe" stroke="#0e1551" stroke-linecap="round" stroke-linejoin="round" stroke-width="3"/>
        <path id="Trazado_148141" data-name="Trazado 148141" d="M5718.64,961.024l-17.09-1.841-1.146-.074c-2.16-.336-3.824-1.512-3.931-3.7l-12.884,12.567-12.884-12.567c-.108,2.183-1.713,3.359-3.875,3.7l-1.3.126-22.918,2.625c-8.488,1.12-15.414,6.64-15.592,19.48l-7.423,89.548,14.4,0c2.018,0,2.564.157,2.807-2.7l8.347-62.892c.073-.624,2.287-.682,2.287-.066v64.014c0,2.8.254,2.537,1.9,2.537h68.5c.9,0,1.8.264,1.8-2.537v-70.53c0-2.672,2.73-2.883,7.143-3.277,11.966-1.061,16.774-1.847,34.874-3.316,12.844-1.041,17.085-13.977,7.432-22.652-16.022-14.4-31.727-30.378-32.682-30.987L5724.263,951.1s25.254,22.048,23.857,23.445S5724.421,961.286,5718.64,961.024Z" fill="#d1bff3" stroke="#0e1551" stroke-linecap="round" stroke-linejoin="round" stroke-width="3"/>
        <path id="Trazado_148142" data-name="Trazado 148142" d="M5637.281,1071.869c-.147,1.489-.658,1.793-2,1.793h-15.469c-1.3-.005-1.5-.369-1.5-1.822v-7.7c0-1.454-.094-1.945,1.77-1.945h16.683c1.256,0,1.27.61,1.131,2.009Z" fill="#fff" stroke="#0e1551" stroke-linecap="round" stroke-width="3"/>
        <g id="Grupo_76092" data-name="Grupo 76092">
          <path id="Trazado_148143" data-name="Trazado 148143" d="M5671.22,953.425c-1-1.15-1.454-1.456-2.144-.078l-3.6,5.817,11.1,18.748c.764,1.3,1.376,1.221,2.066-.079l4.9-10.176Z" fill="#fff" stroke="#0e1551" stroke-linecap="round" stroke-width="3"/>
          <path id="Trazado_148144" data-name="Trazado 148144" d="M5695.786,953.425c.993-1.15,1.453-1.456,2.141-.078l3.6,5.817-11.094,18.748c-.767,1.3-1.379,1.221-2.067-.079l-4.9-10.176Z" fill="#fff" stroke="#0e1551" stroke-linecap="round" stroke-width="3"/>
        </g>
        <path id="Trazado_148145" data-name="Trazado 148145" d="M5707.143,945.881A3.14,3.14,0,0,1,5704,949.02h0a3.138,3.138,0,0,1-3.138-3.139V900.829a3.136,3.136,0,0,1,3.138-3.137h0a3.137,3.137,0,0,1,3.138,3.137Z" fill="#7c5ee3" stroke="#0e1551" stroke-miterlimit="10" stroke-width="1"/>
        <path id="Trazado_148146" data-name="Trazado 148146" d="M5730.07,940.059c-1.638-3.185-6.769-17.589-10.238-20.159l-9.475-7.13c-2.375-2.25-3.892-1.471-4.893-.377-1.021,1.114-.9,5.67,1.885,8.4,0,0,4.783,3.831,6.061,5.229,1.218,1.336,2.7,3.872,1.326,5.278-.629,1.219-2.006.243-3.641-1.15,0,0-5.863-6.256-7.738-3.256-.621.993-.75,2.75,2.375,5.625,0,0,11.258,10.167,11.916,10.7,3.586,2.891,3.873,4.09,5.4,4.114C5726,947.374,5730.07,940.059,5730.07,940.059Z" fill="#fff" stroke="#0e1551" stroke-linecap="round" stroke-width="3"/>
        <path id="Trazado_148147" data-name="Trazado 148147" d="M5730.6,933.241c-1.207-.881-1.783-.712-2.675.284L5717.3,945.417c-.861.973-.727,1.367.356,2.338l5.742,5.137c1.082.97,1.388,1.366,2.631-.022l11.445-12.791c.838-.935.391-1.354-.742-2.182Z" fill="#fff" stroke="#0e1551" stroke-linecap="round" stroke-width="3"/>
      </g>
      <g id="Grupo_76101" data-name="Grupo 76101">
        <path id="Trazado_148148" data-name="Trazado 148148" d="M5962.064,1230.227c4.6-6.267,16.844-26.219,16.844-26.219,1.8-1.782,6.17-4.61,9.645-1.769,3.537,2.894-.116,11.6-.116,11.6,2.249-2.573,9.391-11.974,14.145-6.913,3.428,3.649.322,7.877.322,7.877a4.349,4.349,0,0,1,5.788.24c3.613,3.2-.484,8.68-.484,8.68l-2.28,3.668s2.366-1.831,5.146,1.125c2.519,2.682-.935,7.506-.935,7.506l-13.494,21.139c.034,7.113,0,9.748,0,15.509,0,14.147-7.565,15.994-7.565,15.994v23.229l-32.392.08v-63.654S5956.027,1238.445,5962.064,1230.227Z" fill="#d1bff3" stroke="#0e1551" stroke-linecap="round" stroke-linejoin="round" stroke-width="3"/>
        <g id="Grupo_76095" data-name="Grupo 76095">
          <g id="Grupo_76094" data-name="Grupo 76094">
            <path id="Rectángulo_33257" data-name="Rectángulo 33257" d="M14.7,0H79.783a14.7,14.7,0,0,1,14.7,14.7V125.632a14.7,14.7,0,0,1-14.7,14.7H14.7A14.7,14.7,0,0,1,0,125.635V14.7A14.7,14.7,0,0,1,14.7,0Z" transform="translate(5975.297 1132.937)" fill="#fff" stroke="#0e1551" stroke-width="3"/>
          </g>
          <path id="Rectángulo_33258" data-name="Rectángulo 33258" d="M14.7,0H79.781a14.7,14.7,0,0,1,14.7,14.7V125.634a14.7,14.7,0,0,1-14.7,14.7H14.7A14.7,14.7,0,0,1,0,125.634V14.7A14.7,14.7,0,0,1,14.7,0Z" transform="translate(5975.297 1132.937)" fill="#e0e6fe" stroke="#0e1551" stroke-linecap="round" stroke-linejoin="round" stroke-width="3"/>
          <line id="Línea_228" data-name="Línea 228" x1="78.219" transform="translate(5983.283 1252.412)" fill="#fff" stroke="#0e1551" stroke-linecap="round" stroke-width="3"/>
          <line id="Línea_229" data-name="Línea 229" x1="78.219" transform="translate(5983.283 1145.828)" fill="#fff" stroke="#0e1551" stroke-linecap="round" stroke-width="3"/>
          <path id="Trazado_148149" data-name="Trazado 148149" d="M6022.392,1257.808a4.32,4.32,0,1,0,4.321,4.318A4.318,4.318,0,0,0,6022.392,1257.808Z" fill="#7c5ee3" stroke="#0e1551" stroke-miterlimit="10" stroke-width="1"/>
        </g>
        <path id="Trazado_148150" data-name="Trazado 148150" d="M5964.6,1253.677l23.565-22.06s4.363-5.041,8.822-.728c3.79,3.667,1.454,8.773-.96,11.536l-14.341,17.706v12.137s.722,7.821-2.413,11.237a14.425,14.425,0,0,1-5.947,4.113" fill="#d1bff3" stroke="#0e1551" stroke-linecap="round" stroke-linejoin="round" stroke-width="3"/>
        <path id="Trazado_148151" data-name="Trazado 148151" d="M5992.19,1316.675a1.049,1.049,0,0,0,1.048-1.052l-.05-16.532a1.051,1.051,0,0,0-1.054-1.047l-38.941.112a1.051,1.051,0,0,0-1.046,1.055l.049,16.532a1.051,1.051,0,0,0,1.054,1.045Z" fill="#fff" stroke="#0e1551" stroke-linecap="round" stroke-width="3"/>
        <path id="Trazado_148152" data-name="Trazado 148152" d="M5998.111,1349.8l-.1-36.769a1.047,1.047,0,0,0-1.051-1.045l-45.971.131a1.055,1.055,0,0,0-1.047,1.053l.1,36.772Z" fill="#7c5ee3" stroke="#0e1551" stroke-linecap="round" stroke-linejoin="round" stroke-width="3"/>
        <g id="Grupo_76099" data-name="Grupo 76099">
          <path id="Trazado_148153" data-name="Trazado 148153" d="M6050.534,1199.729a27.294,27.294,0,1,1-27.292-27.293A27.3,27.3,0,0,1,6050.534,1199.729Z" fill="#7c5ee3" stroke="#0e1551" stroke-linecap="round" stroke-linejoin="round" stroke-width="3"/>
          <g id="Grupo_76098" data-name="Grupo 76098">
            <path id="Trazado_148154" data-name="Trazado 148154" d="M6013.855,1193.836a9.384,9.384,0,1,1,9.387,9.388A9.388,9.388,0,0,1,6013.855,1193.836Z" fill="#fff" stroke="#0e1551" stroke-linecap="round" stroke-width="3"/>
            <g id="Grupo_76097" data-name="Grupo 76097">
              <g id="Grupo_76096" data-name="Grupo 76096">
                <path id="Trazado_148155" data-name="Trazado 148155" d="M6023.408,1207.345a19.676,19.676,0,0,0-18.332,12.565,27.174,27.174,0,0,0,36.664,0A19.67,19.67,0,0,0,6023.408,1207.345Z" fill="#fff" stroke="#0e1551" stroke-linecap="round" stroke-width="3"/>
              </g>
            </g>
          </g>
        </g>
        <g id="Grupo_76100" data-name="Grupo 76100">
          <path id="Trazado_148156" data-name="Trazado 148156" d="M6124.792,1294.325l-7.931-21.728s5.018-6.759.059-20.353l-5.2-14.243s-.339-1.008-.959-2.458l-3.416-9.4a5.3,5.3,0,0,0-6.3-3.629,5.38,5.38,0,0,0-4.1,3.644c-.466.719-.795-.029-.795-.029-1.373-2.789-3.423-4.167-6.068-3.98-3.357.239-4.969,2.09-5.373,4.859a.53.53,0,0,1-1.044.15l-.083-.091a6.736,6.736,0,0,0-7.994-3.15,6.484,6.484,0,0,0-3.692,8.187c.235.857.152,1.282-.478,1.512-1.041.381-1.6-1.4-1.6-1.4s-7.122-17.313-9.546-22.56c-1.39-3-3.863-8.574-4.779-9.971-3.632-5.543-10.039-.463-8.872,3.2.351,1.1,16.9,50.606,19.142,56.767.344.94.662,1.8.968,2.624-6.851-1.7-17.811-4.584-18.492-4.8-4.97-1.609-8.353.046-9.9,2.7-1.516,2.611-.072,5.87,2.048,7.482,6.919,3.446,22.44,9.363,30.57,12.682,7.358,2.932,12.948,4.02,17.064,4.258l7.476,20.477Z" fill="#d1bff3" stroke="#0e1551" stroke-linecap="round" stroke-linejoin="round" stroke-width="3"/>
          <path id="Trazado_148157" data-name="Trazado 148157" d="M6093.486,1308a1.042,1.042,0,0,1-1.332-.623l-5.562-15.388a1.038,1.038,0,0,1,.625-1.332l33.951-12.276a1.043,1.043,0,0,1,1.331.626l5.564,15.388a1.04,1.04,0,0,1-.625,1.33Z" fill="#fff" stroke="#0e1551" stroke-linecap="round" stroke-width="3"/>
          <path id="Trazado_148158" data-name="Trazado 148158" d="M6128.778,1291.42a1.039,1.039,0,0,0-1.329-.622l-40.707,14.72a1.037,1.037,0,0,0-.625,1.328l14.746,42.949H6149.4Z" fill="#7c5ee3" stroke="#0e1551" stroke-linecap="round" stroke-linejoin="round" stroke-width="3"/>
        </g>
      </g>
      <g id="Grupo_76103" data-name="Grupo 76103">
        <g id="Grupo_76102" data-name="Grupo 76102">
          <path id="Trazado_148159" data-name="Trazado 148159" d="M5882.663,1197.215v-.025H5875v.005l-10.872.008-4.5,5.422c-1.046,1.306-2.562,2.338-2.562,4.766v4.011c0,2.136.679,2.138,2.112,2.138h16.358c2.013,0,7.094-3.147,7.094-3.147.449,0,.7-.178.7-1.245v-9.88C5883.33,1197.657,5883.237,1197.3,5882.663,1197.215Z" fill="#fff" stroke="#000" stroke-linecap="round" stroke-width="3"/>
          <path id="Trazado_148160" data-name="Trazado 148160" d="M5883.33,1199.268c0-1.593-.094-1.961-.667-2.051v-.027h-18.557l-4.477,5.435c-1.039,1.3-2.559,2.516-2.559,4.718.015,2.06.694,2.068,2.109,2.068h16.358c1.771,0,3.329-1.057,4.861-2.525l2.932-2.279Z" fill="#fff" stroke="#000" stroke-linecap="round" stroke-width="3"/>
          <path id="Trazado_148161" data-name="Trazado 148161" d="M5914.278,1202.625l-4.5-5.422-10.871-.008v-.005h-7.668v.025c-.572.081-.666.442-.666,2.053v9.88c0,1.067.251,1.245.7,1.245,0,0,5.084,3.147,7.093,3.147h16.357c1.437,0,2.114,0,2.114-2.138v-4.011C5916.837,1205.557,5915.321,1203.931,5914.278,1202.625Z" fill="#fff" stroke="#000" stroke-linecap="round" stroke-width="3"/>
          <path id="Trazado_148162" data-name="Trazado 148162" d="M5890.574,1199.268c0-1.593.095-1.961.666-2.051v-.027H5909.8l4.48,5.435c1.036,1.3,2.555,2.751,2.555,4.718-.015,2.06-.691,2.068-2.11,2.068h-16.357c-1.769,0-3.326-1.057-4.862-2.525l-2.93-2.279Z" fill="#fff" stroke="#000" stroke-linecap="round" stroke-width="3"/>
          <path id="Trazado_148163" data-name="Trazado 148163" d="M5887.072,1105.022h-.149l-23.2.149v92.1c0,1.311.712,1.334,1.384,1.334l16.93-.023c1.3-.024,1.633.136,1.681-1.745l1.562-66.07c.127-2.813,3.016-2.7,3.146.112l1.848,66.156c0,1.547.5,1.67,1.693,1.67l16.666-.009c1.876,0,1.648-.714,1.648-1.5v-92.032Z" fill="#d1bff3" stroke="#000" stroke-linecap="round" stroke-linejoin="round" stroke-width="3"/>
        </g>
        <path id="Trazado_148164" data-name="Trazado 148164" d="M5867.97,1073.979a19.879,19.879,0,0,1,3.412-3.323c.965-.865.245-3.545,1.59-4.2,1.64-.8,2.846-1.552,4.292-2.173,1.186-.51,4.057,1.981,5.075,4.406.86,2.044.071,2.414-.927,3.116-3.5,2.453-5.985,2.977-6.449,3.51-.509.586.135,5.429-.324,5.933-5.414,5.945-9.785,2.552-9.526,1.488.13-.545,2.577-4.872,2.577-4.872A2.952,2.952,0,0,1,5867.97,1073.979Z" fill="#7c5ee3" stroke="#000" stroke-miterlimit="10" stroke-width="1"/>
        <path id="Trazado_148165" data-name="Trazado 148165" d="M5865.2,1081.912a2.894,2.894,0,0,0,3.538,2.345c3.1-.48,6.074-4.6,6.074-4.6s.366-.867.655.137a17.051,17.051,0,0,1,.068,3.8s-1.675,3.289-3.36,4.157-5.546,2.361-7.941.339-.33-5.406.139-6.157S5865.2,1081.912,5865.2,1081.912Z" fill="#7b6ce5" stroke="#000" stroke-miterlimit="10" stroke-width="1"/>
        <path id="Trazado_148166" data-name="Trazado 148166" d="M5861.614,1041.91s-4.637-.924-7.354,7.206c-3.338,9.984-6.043,20.7-8.088,25.844-2.548,6.407-3.018,14.731,5.376,15.39,0,0,17.443-6.938,18.678-7.478,3.776-1.648,0-11.217,0-11.217l-11.334,4.619c-2.308.22.047-1.649.841-3.079l6.221-9.889Z" fill="#e0e6fe" stroke="#000" stroke-linecap="round" stroke-linejoin="round" stroke-width="3"/>
        <path id="Trazado_148167" data-name="Trazado 148167" d="M5914.519,1041.384s4.48.247,5.664,7.176c.621,3.652,3.178,17.971,4.4,24.084,2.311,11.548,1.87,10.642-.109,15.509-.27.662,1.37-.5-.469,2.142-3.882,5.574-16.4,1.679-19.143-2.473-2.884-4.364-1.318-22.527-1.318-22.527Z" fill="#e0e6fe" stroke="#000" stroke-linecap="round" stroke-linejoin="round" stroke-width="3"/>
        <rect id="Rectángulo_33259" data-name="Rectángulo 33259" width="0.685" height="18.759" transform="translate(5888.637 1081.874)" fill="#7c5ee3" stroke="#000" stroke-miterlimit="10" stroke-width="1"/>
        <path id="Trazado_148168" data-name="Trazado 148168" d="M5903.6,1112.782l-3.465-55.071-.486-15.886-1.137-2.722c-3.062-.32-6.222-.6-9.164-.773l-7.837.307c-1.375.113-2.848.242-4.349.382l-.346,10.857-2.416,62.577Z" fill="#fff" stroke="#000" stroke-linecap="round" stroke-width="3"/>
        <path id="Trazado_148169" data-name="Trazado 148169" d="M5896.222,1038.914q1.1.116,2.189.236Q5897.322,1039.03,5896.222,1038.914Z" fill="#7c5ee3" stroke="#000" stroke-miterlimit="10" stroke-width="1"/>
        <path id="Trazado_148170" data-name="Trazado 148170" d="M5889.352,1038.33c2.195.138,4.513.345,6.821.58-2.59-.267-5.193-.491-7.621-.631a65.926,65.926,0,0,0-7.029.382Z" fill="#7c5ee3" stroke="#000" stroke-miterlimit="10" stroke-width="1"/>
        <path id="Trazado_148171" data-name="Trazado 148171" d="M5879.408,1038.855q1.039-.1,2.027-.185Q5880.448,1038.756,5879.408,1038.855Z" fill="#7c5ee3" stroke="#000" stroke-miterlimit="10" stroke-width="1"/>
        <path id="Trazado_148172" data-name="Trazado 148172" d="M5915.972,1051c.889-9.257-1.129-9.588-1.129-9.588a123.393,123.393,0,0,0-16.573-3.163l1.383,3.848.486,17.127,1.458,62.139s13.462.726,13.522,0C5915.166,1120.767,5915.4,1056.879,5915.972,1051Z" fill="#e0e6fe" stroke="#000" stroke-linecap="round" stroke-linejoin="round" stroke-width="3"/>
        <path id="Trazado_148173" data-name="Trazado 148173" d="M5876.82,1050.778l.346-11.7c-6.7.678-14.733,2.55-15.807,2.714-2.72.414-2.6,8.915-2.6,8.915s.606,69.926,1.616,69.926H5878.5l-.9-35.074Z" fill="#e0e6fe" stroke="#000" stroke-linecap="round" stroke-linejoin="round" stroke-width="3"/>
        <path id="Trazado_148174" data-name="Trazado 148174" d="M5877.184,1039.074q1.108-.114,2.186-.215Q5878.294,1038.961,5877.184,1039.074Z" fill="#7c5ee3" stroke="#000" stroke-miterlimit="10" stroke-width="1"/>
        <path id="Trazado_148175" data-name="Trazado 148175" d="M5880.867,1038.826s-4.07,1.8-3.741,11.368c.364,10.526.991,52.651.991,52.651l-9.792-39.57c-.493.753,2.749-6.137,2.749-6.137.573-.86.645-1.29.288-1.864a20.815,20.815,0,0,1-1.843-1.825,1.851,1.851,0,0,1-.318-2.03l3.747-7.972s2.392-7.186,7.2-8.63a8.608,8.608,0,0,1,6.25.919Z" fill="#fff" stroke="#000" stroke-linecap="round" stroke-width="3"/>
        <path id="Trazado_148176" data-name="Trazado 148176" d="M5896.7,1039.405s2.317,1.663,2.7,11.228c.351,8.7,1.341,39.609,1.341,39.609l4.48-5.03,3.364-22.055c0-2.049-3.725-6.1-3.725-6.1a.671.671,0,0,1,.012-1.194s3.377-3.008,3.377-3.174l-5.94-12.289s-2.172-5.3-5.774-5.578c-3.3-.254-3.94,1.919-3.94,1.919Z" fill="#fff" stroke="#000" stroke-linecap="round" stroke-width="3"/>
        <path id="Trazado_148177" data-name="Trazado 148177" d="M5880.9,1040.27l.413-17.382,15.8.482.277,17.106s-.413,4.671-7.745,4.944C5880.093,1045.774,5880.9,1040.27,5880.9,1040.27Z" fill="#fff" stroke="#000" stroke-linecap="round" stroke-width="3"/>
        <path id="Trazado_148178" data-name="Trazado 148178" d="M5866.246,1064.111l9.909-4.5a23.447,23.447,0,0,1,7.225-.937c5.363.111,9.715,3.716,8.563,5-.577.642-1,1.243-3.968-1.28-5.121-4.352-3.457.256-3.457.256l3.307,4.932a6.661,6.661,0,0,1-4.076,1.619c-1.559,0-3.432-2.46-4.527-1.834-2.727,1.559-6.171,2.875-8.6,2.58A4.629,4.629,0,0,1,5866.246,1064.111Z" fill="#fff" stroke="#000" stroke-linecap="round" stroke-width="3"/>
        <path id="Trazado_148179" data-name="Trazado 148179" d="M5902.234,1081.761a.621.621,0,0,1-.661.442h-24a.645.645,0,0,1-.679-.442l-2.7-28.19c-.04-.237.207-.441.528-.441h27.7c.323,0,.575.2.544.441Z" fill="#7c5ee3" stroke="#000" stroke-linecap="round" stroke-linejoin="round" stroke-width="3"/>
        <path id="Trazado_148180" data-name="Trazado 148180" d="M5910.224,1082.967l-3.654-.108a20.017,20.017,0,0,1-5.994-5.045c-5.7-7.139-7.287-6.287-7.287-6.287s-2.193.975.366,4.387c1.335,1.781,3.319,3.486,3.5,4.134.093.329.147,1.668-2.184,1.161-1.505-.326-6.316-2.963-8.582-3.523-3.86-.96-6.022.716-5.09,2.508.57,1.1,8.144,8.012,11.206,8.781,10.244,2.575,23.99,2.768,23.99,2.768Z" fill="#fff" stroke="#000" stroke-linecap="round" stroke-width="3"/>
        <path id="Trazado_148181" data-name="Trazado 148181" d="M5904.971,1082.42c.7-1.34,1.421-2.3,4.217-2.3,0,0,15.629-1.435,18.856,3.871,2.782,4.577,1.074,10.825-11.974,10.467-4.786-.131-8.146-.308-10.188-.583a3.083,3.083,0,0,1-2.678-2.823,21.546,21.546,0,0,1,.034-3.906A15.423,15.423,0,0,1,5904.971,1082.42Z" fill="#e0e6fe" stroke="#000" stroke-linecap="round" stroke-linejoin="round" stroke-width="3"/>
        <path id="Trazado_148182" data-name="Trazado 148182" d="M5866.228,1063.654a1.31,1.31,0,0,0-1.782-.1l-19.135,15.855a8.485,8.485,0,0,0,2.007,9.749c3.717,3.66,10.784.4,13.835-2.242,4.092-3.538,9.674-11.919,11.547-14.817a1.534,1.534,0,0,0-.2-1.888Z" fill="#e0e6fe" stroke="#000" stroke-linecap="round" stroke-linejoin="round" stroke-width="3"/>
        <path id="Trazado_148183" data-name="Trazado 148183" d="M5902.712,1016.419l.922.057a3.322,3.322,0,0,1,2.521,3.789c-.316,1.912-.468,2.076-.857,4.447-.552,3.355-3.3,2.261-3.3,2.261Z" fill="#fff" stroke="#000" stroke-linecap="round" stroke-width="3"/>
        <path id="Trazado_148184" data-name="Trazado 148184" d="M5876.059,1016.6l-.918.057a3.321,3.321,0,0,0-2.524,3.789c.316,1.912.47,2.076.859,4.447.55,3.355,3.295,2.261,3.295,2.261Z" fill="#fff" stroke="#000" stroke-linecap="round" stroke-width="3"/>
        <path id="Trazado_148185" data-name="Trazado 148185" d="M5889.163,1003.72v0l-12.5.051v23.8a6.258,6.258,0,0,0,1.74,4.322l3.842,4a5.91,5.91,0,0,0,4.253,1.811h2.769v0h2.665a5.907,5.907,0,0,0,4.251-1.81l3.844-4a6.256,6.256,0,0,0,1.738-4.324v-23.8Z" fill="#fff" stroke="#000" stroke-linecap="round" stroke-width="3"/>
        <path id="Trazado_148186" data-name="Trazado 148186" d="M5876.6,1020.718s-3.1-3.111-4.118-11.464c-.8-6.608,3.276-13.265,9.374-15.145,6.424-1.982,13.145,1.5,13.145,1.5s6.537-1.993,9.639,3.546c1.225,2.185,2,6.778,1.131,10.741-.9,4.1-1.665,7.041-3.458,7.553-1.331.381-.5-3.836-.887-8.708-.329-4.27-3.284-5.148-6.375-3.326-3.2,1.885-8.513,6.9-11.7,8.808-1.11.664-3.945-2.619-4.416-2.44C5876.837,1012.583,5876.6,1020.718,5876.6,1020.718Z" fill="#d1bff3" stroke="#000" stroke-linecap="round" stroke-linejoin="round" stroke-width="3"/>
      </g>
      <g id="Grupo_76106" data-name="Grupo 76106">
        <path id="Trazado_148187" data-name="Trazado 148187" d="M6133.251,1184.911l.728-9.884c-1.1,0-20.663,7.571-20.99,8.924-.74,3.075-2.155,8.349-2.313,8.88-1.37,4.719,1.978,5.566,4.283,5.566l9.2-.016s5.282.585,7.675-5.7A52.257,52.257,0,0,0,6133.251,1184.911Z" fill="#7c5ee3" stroke="#0e1551" stroke-linecap="round" stroke-linejoin="round" stroke-width="3"/>
        <path id="Trazado_148188" data-name="Trazado 148188" d="M6153.782,1184.355l-.727-9.884c1.1,0,20.662,7.572,20.989,8.924.742,3.076,2.156,8.35,2.312,8.881,1.371,4.721-1.976,5.565-4.281,5.565l-9.2-.014s-5.283.584-7.675-5.7A52.234,52.234,0,0,1,6153.782,1184.355Z" fill="#7c5ee3" stroke="#0e1551" stroke-linecap="round" stroke-linejoin="round" stroke-width="3"/>
        <path id="Trazado_148189" data-name="Trazado 148189" d="M6124.3,949.954h39.539l-.625-18.3-41.307.416Z" fill="#7c5ee3" stroke="#0e1551" stroke-linecap="round" stroke-linejoin="round" stroke-width="3"/>
        <path id="Trazado_148190" data-name="Trazado 148190" d="M6176.107,1051.277l-4.223-13.4c-2.681-9.013-3.646-12.981-.7-29.3l4.347-24.246-1.248-24.732c-.088-.011-.164-.043-.255-.054l-11.612-1.727-2.06-.439a7.108,7.108,0,0,1-5.6-6.61l-.249-5.493-.163-3.481h-21.449l-.16,3.481-.252,5.493a7.107,7.107,0,0,1-5.607,6.61l-2.057.439-11.484,2.455c-7.589,1.05-11.438,6.091-12.663,12.291l-12.622,89.673,0,19.955s-.273,6.01,2.969,6.29c.314.027.6.024.88.042,1.922.084,2.6-2.3,2.682-4.277l.6-13.477c.032-.675.577-2.065,1.23-2.036s1.606.321,2.108,2.143l.735,5.16a2.062,2.062,0,1,0,4.118.182l-.214-7.806c.071-1.61-.831-4.139-2.55-6.6l-2.041-2.059,14.924-64.622.051.211v0l2.508,13.236c2.785,16.323,2.516,18.9-.594,29.092l-4.332,13.608c-1.719,5.9-1.719,17.169-1.719,17.169l1.741,30.576h.021l4.234,73.289a43.583,43.583,0,0,1-2.052,10.295c-.933,3.072-.72,7.554,4.823,7.472h1.223c14.59,0,14.475-11.584,14.475-11.584l5.219-79.472,1.419-20.04a15.551,15.551,0,0,1,1.04-3.474,2.677,2.677,0,0,1,4.141,0,15.942,15.942,0,0,1,1.042,3.474l1.422,20.04s4.758,73.672,4.9,74.628l.319,4.844s2.39,11.557,14.417,11.557h.987c5.547.08,6.046-4.4,5.1-7.472a41.126,41.126,0,0,1-2.065-9.839l4.26-73.718h.023l1.739-30.576S6177.826,1057.176,6176.107,1051.277Z" fill="#fff" stroke="#0e1551" stroke-linecap="round" stroke-width="3"/>
        <path id="Trazado_148191" data-name="Trazado 148191" d="M6143.582,896.4l-17.355.072v31.662c0,1.7,1.018,6.735,2.245,8.782,0,0,4.64,10.517,15.11,10.517,11.189.009,15.691-11.9,15.691-11.9a36.051,36.051,0,0,0,1.662-7.4V896.473Z" fill="#fff" stroke="#0e1551" stroke-linecap="round" stroke-width="3"/>
        <path id="Trazado_148192" data-name="Trazado 148192" d="M6110.777,913.865c0-18.728,9.164-28.3,18.545-32.188s19.386-.683,21.4,5.326c1.856,5.534-.052,14.961-10.09,16.6-3.132.512-13.223,1.27-13.438,11.686-.055,2.634.006,25.349.116,28.122.161,4.064-1.136,6.629-3.008,6.763C6120.128,950.479,6110.777,940.832,6110.777,913.865Z" fill="#7c5ee3" stroke="#0e1551" stroke-linecap="round" stroke-linejoin="round" stroke-width="3"/>
        <path id="Trazado_148193" data-name="Trazado 148193" d="M6176.951,913.137c0-18.729-9.725-27.572-19.116-31.46s-18.884-1.656-22.962,3.482c-3.848,4.845-6.025,11.848.133,19.641,7.619,9.636,19.731,10.176,23.44,16.281,1.384,2.275,1.408,5.141,1.408,7.918C6159.854,967.6,6176.951,948.452,6176.951,913.137Z" fill="#7c5ee3" stroke="#0e1551" stroke-linecap="round" stroke-linejoin="round" stroke-width="3"/>
        <path id="Trazado_148194" data-name="Trazado 148194" d="M6177.826,1068.446s0-5.328-.557-10.572c-.421-3.958-.339-6.6-4.317-6.6h-58.677c-3.979,0-3.9,2.639-4.316,6.6-.56,5.244-.56,10.572-.56,10.572l1.19,41.83c0,2.941.805,2.816,3.239,2.816h59.747c2.233,0,3.126-.686,3.067-3.1Z" fill="#d1bff3" stroke="#0e1551" stroke-linecap="round" stroke-linejoin="round" stroke-width="3"/>
        <path id="Trazado_148195" data-name="Trazado 148195" d="M6176.107,1051.277l-4.223-13.4c-2.681-9.013-3.646-12.981-.7-29.3l2.507-14.239c.259-1.073,1.394-7.425,1.589-8.738l.2-1.053v-.005l.04-.169-.031-.262c.6-4.718-4.235-11.994-4.235-11.994-1.009,0-22-12.5-25.914-8.926h-3.619c-3.918-3.577-23.7,8.317-24.707,8.317,0,0-4.086,18.682-3.485,23.4l-.029.263.039.169v0l.2,1.053c.2,1.322.42,2.521.681,3.6l1.626,8.582c2.785,16.323,2.516,18.9-.594,29.092l-4.332,13.608c-.209.722-.394,1.529-.557,2.378l66.172.4A26.569,26.569,0,0,0,6176.107,1051.277Z" fill="#fff" stroke="#0e1551" stroke-linecap="round" stroke-width="3"/>
        <path id="Trazado_148196" data-name="Trazado 148196" d="M6111.118,1051.277a28.423,28.423,0,0,0-.627,2.776h22.329a6.9,6.9,0,0,0,6.9-6.9v-37.575a65.131,65.131,0,0,0-1.445-13.651l-8.538-39.905a7.015,7.015,0,0,1-2.869,1.358l-2.057.439h0l-11.484,2.455c-7.589,1.05-11.438,6.091-12.663,12.291l-12.949,81.489h13.213l12.556-58.925.051.211v0l2.508,13.236c2.785,16.323,2.516,18.9-.594,29.092Z" fill="#e0e6fe" stroke="#0e1551" stroke-linecap="round" stroke-linejoin="round" stroke-width="3"/>
        <g id="Grupo_76104" data-name="Grupo 76104">
          <path id="Trazado_148197" data-name="Trazado 148197" d="M6086.349,1047.359a.976.976,0,0,0-.973.974l1.147,7.369a.974.974,0,0,0,.973.97h14.528a1.133,1.133,0,0,0,1.119-.96l1.259-7.391a.84.84,0,0,0-.83-.962Z" fill="#fff" stroke="#0e1551" stroke-linecap="round" stroke-width="3"/>
        </g>
        <path id="Trazado_148198" data-name="Trazado 148198" d="M6174.471,990.169a8.464,8.464,0,0,1,6.6-6.784l24.062-4.465c15.029-2.7,16.524-9.713,10.646-15.564l-24.853-25.794-7.49,6.831,14.314,18.125s1.5,1.9-.732,1.654c-4.885-.529-17.047-3.8-23-4.627l-11.612-1.727h0l-2.06-.439a7.046,7.046,0,0,1-2.865-1.358l-8.425,39.806a65.82,65.82,0,0,0-1.43,13.653v37.672a6.9,6.9,0,0,0,6.9,6.9h22.2a26.569,26.569,0,0,0-.626-2.776l-4.223-13.4c-2.681-9.013-3.646-12.981-.7-29.3Z" fill="#e0e6fe" stroke="#0e1551" stroke-linecap="round" stroke-linejoin="round" stroke-width="3"/>
        <path id="Trazado_148199" data-name="Trazado 148199" d="M6128.048,954.236c.89-.586,1.257-.512,2.265.295l12.338,7.528c1.466,1.362,1.109,2.679-.424,4.533,0,0-11.16,13.333-15.942-2.559l-1.3-4.336c-.352-1.466-.561-1.68.409-2.8Z" fill="#fff" stroke="#0e1551" stroke-linecap="round" stroke-width="3"/>
        <path id="Trazado_148200" data-name="Trazado 148200" d="M6158.637,954.028c-.887-.587-1.257-.512-2.262.295l-11.873,7.736c-1.468,1.362-1.109,2.679.423,4.533,0,0,11.465,13.333,15.943-2.559l1.3-4.336c.351-1.466.562-1.68-.408-2.8Z" fill="#fff" stroke="#0e1551" stroke-linecap="round" stroke-width="3"/>
        <path id="Trazado_148201" data-name="Trazado 148201" d="M6168.867,937.033a2.617,2.617,0,0,1-2.622,2.617h0a2.619,2.619,0,0,1-2.613-2.63l1.742-37.2a2.619,2.619,0,0,1,2.624-2.612h0a2.617,2.617,0,0,1,2.615,2.625Z" fill="#fff" stroke="#0e1551" stroke-miterlimit="10" stroke-width="1"/>
        <path id="Trazado_148202" data-name="Trazado 148202" d="M6187.806,934.027l-.866.8c-1.344-2.615-5.559-14.447-8.409-16.558l-5.95-4.087a2.862,2.862,0,0,0-3.6.057,3.844,3.844,0,0,0,.277,5.549s2.823,2.492,3.994,3.511c3.279,2.848,2.863,6.386-1.1,4.047,0,0-7.03-4.806-7.516-4.2-.83,1.041-.361,2.772-.241,4.82,0,0,13.421,11.127,14.009,11.6,2.943,2.373,3.212.709,4.474.729C6185.3,940.33,6188.25,937.588,6187.806,934.027Z" fill="#fff" stroke="#0e1551" stroke-linecap="round" stroke-width="3"/>
        <g id="Grupo_76105" data-name="Grupo 76105">
          <path id="Trazado_148203" data-name="Trazado 148203" d="M6194.118,938.117a.977.977,0,0,0,.209-1.361l-4.694-4.429a.974.974,0,0,0-1.361-.207l-10.886,8.4a1.132,1.132,0,0,0-.331,1.438l3.873,5.114a.838.838,0,0,0,1.238.284Z" fill="#fff" stroke="#0e1551" stroke-linecap="round" stroke-width="3"/>
        </g>
      </g>
      <g id="Grupo_76107" data-name="Grupo 76107">
        <path id="Trazado_148204" data-name="Trazado 148204" d="M5866.486,908.117c0-11.051-12.185-20.014-27.213-20.014s-27.216,8.963-27.216,20.014c0,10.389,10.77,18.928,24.546,19.915,6.254,6.42,17.651,11.7,24.938,12.472-5.547-3.67-8.441-10.3-9.811-14.609C5860.488,922.57,5866.486,915.863,5866.486,908.117Z" fill="#7c5ee3"/>
        <path id="Trazado_148205" data-name="Trazado 148205" d="M5810.285,865.485c-18.721,0-33.9,11.415-33.9,25.5,0,9.711,7.222,18.157,17.849,22.461-1.949,4.764-5.209,10.433-10.44,13.9,7.13-.757,17.553-5.122,25.2-10.886.43.01.858.022,1.291.022,18.723,0,33.9-11.415,33.9-25.495S5829.008,865.485,5810.285,865.485Z" fill="#fff" stroke="#0e1551" stroke-linecap="round" stroke-linejoin="round" stroke-width="3"/>
        <path id="Trazado_148206" data-name="Trazado 148206" d="M5797.218,890.9a4.844,4.844,0,1,1-4.843-4.845A4.845,4.845,0,0,1,5797.218,890.9Z" fill="#7c5ee3"/>
        <path id="Trazado_148207" data-name="Trazado 148207" d="M5815.514,891.019a4.845,4.845,0,1,1-4.844-4.846A4.843,4.843,0,0,1,5815.514,891.019Z" fill="#7c5ee3"/>
        <path id="Trazado_148208" data-name="Trazado 148208" d="M5833.83,891.019a4.845,4.845,0,1,1-4.846-4.846A4.845,4.845,0,0,1,5833.83,891.019Z" fill="#7c5ee3"/>
      </g>
      <circle id="Elipse_4656" data-name="Elipse 4656" cx="6.25" cy="6.25" r="6.25" transform="translate(6088.982 923.645)" fill="#d1bff3"/>
      <circle id="Elipse_4657" data-name="Elipse 4657" cx="6.25" cy="6.25" r="6.25" transform="translate(5966.525 1069.672)" fill="none" stroke="#000" stroke-linecap="round" stroke-linejoin="bevel" stroke-width="3"/>
      <circle id="Elipse_4658" data-name="Elipse 4658" cx="6.25" cy="6.25" r="6.25" transform="translate(5994.275 1031.172)" fill="none" stroke="#000" stroke-linecap="round" stroke-linejoin="bevel" stroke-width="3"/>
      <circle id="Elipse_4659" data-name="Elipse 4659" cx="6.25" cy="6.25" r="6.25" transform="translate(5721.232 892.395)" fill="#d1bff3"/>
      <path id="Trazado_148209" data-name="Trazado 148209" d="M5985.276,1075.672h4.662a11.339,11.339,0,0,0,11.338-11.339v-14.661" fill="none" stroke="#000" stroke-linecap="round" stroke-linejoin="bevel" stroke-width="3"/>
      <circle id="Elipse_4660" data-name="Elipse 4660" cx="6.25" cy="6.25" r="6.25" transform="translate(6043.42 1002.037)" fill="#7c5ee3"/>
      <circle id="Elipse_4664" data-name="Elipse 4664" cx="6.25" cy="6.25" r="6.25" transform="translate(5821.437 1019.305) rotate(180)" fill="#7c5ee3"/>
      <line id="Línea_230" data-name="Línea 230" y2="73.627" transform="translate(6049.67 1012.173)" fill="none" stroke="#7c5ee3" stroke-linecap="round" stroke-linejoin="bevel" stroke-width="3" stroke-dasharray="12"/>
      <line id="Línea_232" data-name="Línea 232" y2="73.627" transform="translate(5815.187 1009.168) rotate(180)" fill="none" stroke="#7c5ee3" stroke-linecap="round" stroke-linejoin="bevel" stroke-width="3" stroke-dasharray="12"/>
      <circle id="Elipse_4661" data-name="Elipse 4661" cx="6.25" cy="6.25" r="6.25" transform="translate(6225.146 1040.321)" fill="#7c5ee3"/>
      <line id="Línea_231" data-name="Línea 231" y2="73.627" transform="translate(6231.396 1050.458)" fill="none" stroke="#7c5ee3" stroke-linecap="round" stroke-linejoin="bevel" stroke-width="3" stroke-dasharray="12"/>
      <g id="Grupo_76108" data-name="Grupo 76108">
        <path id="Trazado_148210" data-name="Trazado 148210" d="M6067.858,1103.966a3.22,3.22,0,0,1-3.22,3.222h-29.932a3.22,3.22,0,0,1-3.222-3.222v-20.08h36.374Z" fill="#fff" stroke="#000" stroke-linecap="round" stroke-linejoin="round" stroke-width="3"/>
        <path id="Trazado_148211" data-name="Trazado 148211" d="M6052.218,1099.411a3.616,3.616,0,0,1-5.093,0l-15.641-15.525v20.08a3.22,3.22,0,0,0,3.222,3.222h29.932a3.22,3.22,0,0,0,3.22-3.222v-20.079Z" fill="#e0e6fe" stroke="#000" stroke-linecap="round" stroke-linejoin="round" stroke-width="3"/>
        <path id="Trazado_148212" data-name="Trazado 148212" d="M6067.858,1084.032l-15.64-15.525a3.618,3.618,0,0,0-5.093,0l-15.643,15.525h36.376Z" fill="#fff" stroke="#000" stroke-linecap="round" stroke-linejoin="round" stroke-width="3"/>
      </g>
      <g id="Grupo_76109" data-name="Grupo 76109">
        <path id="Trazado_148213" data-name="Trazado 148213" d="M6256.867,1105.636h-38.228c-3.129,0-5.664,1.2-5.664,4.33V1138.2c0,3.127,2.535,4.332,5.664,4.332h29.47c2.893,0,5.238-1.014,5.238-3.906v-12.393c0-4.177-.908-7.523,2.9-7.565h.622c2.412,0,3.03.045,3.03-2.367V1108C6259.9,1105.591,6259.279,1105.636,6256.867,1105.636Z" fill="#d1bff3" stroke="#000" stroke-linecap="round" stroke-linejoin="round" stroke-width="3"/>
        <path id="Rectángulo_33260" data-name="Rectángulo 33260" d="M2.035,0H26.619a2.035,2.035,0,0,1,2.035,2.035V19.114a2.035,2.035,0,0,1-2.035,2.035H2.038A2.038,2.038,0,0,1,0,19.111V2.035A2.035,2.035,0,0,1,2.035,0Z" transform="translate(6218.873 1113.51)" fill="#fff" stroke="#000" stroke-linecap="round" stroke-linejoin="round" stroke-width="3"/>
        <path id="Trazado_148214" data-name="Trazado 148214" d="M6229.379,1130.329a.877.877,0,0,0,1.379.72l8.2-5.735a1.183,1.183,0,0,0,0-1.936l-8.2-5.733a.876.876,0,0,0-1.379.718Z" fill="#7c5ee3"/>
      </g>
    </g>
    <circle id="Elipse_4662" data-name="Elipse 4662" cx="14" cy="14" r="14" transform="translate(441 5797)" fill="#ff9d00"/>
    <circle id="Elipse_4673" data-name="Elipse 4673" cx="14" cy="14" r="14" transform="translate(573 5708)" fill="#ff9d00"/>
    <circle id="Elipse_4665" data-name="Elipse 4665" cx="14" cy="14" r="14" transform="translate(692 5708)" fill="#ff9d00"/>
    <circle id="Elipse_4666" data-name="Elipse 4666" cx="14" cy="14" r="14" transform="translate(637 5886)" fill="#ff9d00"/>
    <circle id="Elipse_4667" data-name="Elipse 4667" cx="14" cy="14" r="14" transform="translate(772 5788)" fill="#ff9d00"/>
    <circle id="Elipse_4668" data-name="Elipse 4668" cx="14" cy="14" r="14" transform="translate(810 5848)" fill="#ff9d00"/>
    <circle id="Elipse_4669" data-name="Elipse 4669" cx="14" cy="14" r="14" transform="translate(898 5795)" fill="#ff9d00"/>
    <circle id="Elipse_4670" data-name="Elipse 4670" cx="14" cy="14" r="14" transform="translate(1011 5905)" fill="#ff9d00"/>
    <circle id="Elipse_4671" data-name="Elipse 4671" cx="14" cy="14" r="14" transform="translate(800 6019)" fill="#ff9d00"/>
    <circle id="Elipse_4672" data-name="Elipse 4672" cx="14" cy="14" r="14" transform="translate(559 6101)" fill="#ff9d00"/>
  </g>
</svg>
