<svg xmlns="http://www.w3.org/2000/svg" width="85" height="85" viewBox="0 0 85 85">
  <g id="Grupo_76130" data-name="Grupo 76130" transform="translate(8677 7279)">
    <circle id="Elipse_4680" data-name="Elipse 4680" cx="42.5" cy="42.5" r="42.5" transform="translate(-8677 -7279)" fill="#00bcd4"/>
    <path id="Trazado_146040" data-name="Trazado 146040" d="M437.029,198.975A26.978,26.978,0,1,1,464.007,172,27.008,27.008,0,0,1,437.029,198.975Zm0-52.955A25.978,25.978,0,1,0,463.007,172,26.006,26.006,0,0,0,437.029,146.02Z" transform="translate(-9073.162 -7407.375)" fill="#fff"/>
    <path id="Trazado_146041" data-name="Trazado 146041" d="M437.029,193.1a21.1,21.1,0,1,1,21.1-21.1A21.123,21.123,0,0,1,437.029,193.1Zm0-41.2a20.1,20.1,0,1,0,20.1,20.1A20.123,20.123,0,0,0,437.029,151.9Z" transform="translate(-9073.162 -7407.375)" fill="#fff"/>
    <path id="Trazado_146042" data-name="Trazado 146042" d="M437.029,187.22A15.224,15.224,0,1,1,452.253,172,15.24,15.24,0,0,1,437.029,187.22Zm0-29.447A14.224,14.224,0,1,0,451.253,172,14.239,14.239,0,0,0,437.029,157.773Z" transform="translate(-9073.162 -7407.375)" fill="#fff"/>
    <path id="Trazado_146043" data-name="Trazado 146043" d="M437.029,181.343A9.346,9.346,0,1,1,446.376,172,9.356,9.356,0,0,1,437.029,181.343Zm0-17.692A8.346,8.346,0,1,0,445.376,172,8.355,8.355,0,0,0,437.029,163.651Z" transform="translate(-9073.162 -7407.375)" fill="#fff"/>
    <path id="Trazado_146044" data-name="Trazado 146044" d="M437.029,172.5a.5.5,0,0,1-.353-.853L463.619,144.7a.5.5,0,1,1,.707.707l-26.943,26.943A.5.5,0,0,1,437.029,172.5Z" transform="translate(-9073.162 -7407.375)" fill="#fff"/>
    <path id="Trazado_146045" data-name="Trazado 146045" d="M440.949,172.5h-3.92a.5.5,0,0,1-.5-.5v-3.92a.5.5,0,0,1,1,0v3.42h3.42a.5.5,0,0,1,0,1Z" transform="translate(-9073.162 -7407.375)" fill="#fff"/>
    <path id="Trazado_146046" data-name="Trazado 146046" d="M461.841,151.6h-3.92a.5.5,0,0,1-.5-.5v-3.92a.5.5,0,0,1,1,0v3.42h3.42a.5.5,0,0,1,0,1Z" transform="translate(-9073.162 -7407.375)" fill="#fff"/>
    <path id="Trazado_146047" data-name="Trazado 146047" d="M464.306,149.116h-3.92a.5.5,0,0,1-.5-.5V144.7a.5.5,0,0,1,1,0v3.42h3.42a.5.5,0,0,1,0,1Z" transform="translate(-9073.162 -7407.375)" fill="#fff"/>
    <path id="Trazado_146048" data-name="Trazado 146048" d="M466.77,146.636h-3.918a.5.5,0,0,1-.5-.5v-3.92a.5.5,0,0,1,1,0v3.42h3.418a.5.5,0,0,1,0,1Z" transform="translate(-9073.162 -7407.375)" fill="#fff"/>
    <path id="Trazado_146049" data-name="Trazado 146049" d="M418.516,198.975a.5.5,0,0,1-.308-.106l-2.141-1.669a.5.5,0,0,1-.16-.572l1.359-3.569a.5.5,0,1,1,.935.355l-1.227,3.225,1.558,1.214,2.827-1.977a.5.5,0,1,1,.573.82l-3.13,2.189A.509.509,0,0,1,418.516,198.975Z" transform="translate(-9073.162 -7407.375)" fill="#fff"/>
    <path id="Trazado_146050" data-name="Trazado 146050" d="M455.543,198.975a.5.5,0,0,1-.286-.09l-3.129-2.189a.5.5,0,1,1,.572-.82l2.827,1.977,1.559-1.214-1.228-3.225a.5.5,0,0,1,.936-.355l1.358,3.569a.5.5,0,0,1-.16.572l-2.141,1.669A.5.5,0,0,1,455.543,198.975Z" transform="translate(-9073.162 -7407.375)" fill="#fff"/>
  </g>
</svg>
