<svg xmlns="http://www.w3.org/2000/svg" width="1050.333" height="619.688" viewBox="0 0 1050.333 619.688">
  <g id="Grupo_76114" data-name="Grupo 76114" transform="translate(3410 7814.978)">
    <path id="Trazado_148222" data-name="Trazado 148222" d="M0,0H365.159V365.159H0Z" transform="translate(-2724.826 -7814.978)" fill="#f2eefc"/>
    <path id="Trazado_148223" data-name="Trazado 148223" d="M0,0H365.159V365.159H0Z" transform="translate(-3410 -7560.449)" fill="#f2eefc"/>
    <path id="Trazado_148224" data-name="Trazado 148224" d="M0,0H983V547H0Z" transform="translate(-3375 -7776)" fill="#fff"/>
    <path id="Trazado_146075" data-name="Trazado 146075" d="M-3552.834-9753.487v-13.457h431.017v16.316" transform="translate(457.388 2197.802)" fill="none" stroke="#707070" stroke-width="1"/>
    <path id="Trazado_146076" data-name="Trazado 146076" d="M-3552.834-9672.074v-94.868h431.017v125.384" transform="translate(457.388 2271.223)" fill="none" stroke="#707070" stroke-width="1"/>
    <path id="Trazado_148225" data-name="Trazado 148225" d="M0,0V214.579" transform="translate(-2887.191 -7709.935)" fill="none" stroke="#707070" stroke-width="1"/>
    <path id="Trazado_148226" data-name="Trazado 148226" d="M17.517,0H0" transform="translate(-2904.708 -7604.834)" fill="none" stroke="#707070" stroke-width="1"/>
    <path id="Trazado_148227" data-name="Trazado 148227" d="M0,0V16.057" transform="translate(-2955.069 -7569.071)" fill="none" stroke="#707070" stroke-width="1"/>
    <path id="Trazado_148228" data-name="Trazado 148228" d="M0,0V24.085" transform="translate(-2793.769 -7569.071)" fill="none" stroke="#707070" stroke-width="1"/>
    <path id="Trazado_148229" data-name="Trazado 148229" d="M0,0V138.673" transform="translate(-2955.069 -7495.355)" fill="none" stroke="#707070" stroke-width="1"/>
    <path id="Trazado_148230" data-name="Trazado 148230" d="M0,0V94.152" transform="translate(-2793.769 -7495.355)" fill="none" stroke="#707070" stroke-width="1"/>
    <path id="Trazado_146077" data-name="Trazado 146077" d="M-3621-9545.951v-13.277h112.32v18.261" transform="translate(475.803 2140.656)" fill="none" stroke="#707070" stroke-width="1"/>
    <path id="Trazado_146078" data-name="Trazado 146078" d="M-3393-9438.605v-28.656h54.739v28.656" transform="translate(414.211 2110.754)" fill="none" stroke="#707070" stroke-width="1"/>
    <path id="Trazado_146079" data-name="Trazado 146079" d="M-3215-9533.933v-17.98h113.9v17.98" transform="translate(366.126 2133.622)" fill="none" stroke="#707070" stroke-width="1"/>
    <path id="Trazado_146080" data-name="Trazado 146080" d="M-2998-9451.935v-33.416h58.713v39.324" transform="translate(307.506 2115.641)" fill="none" stroke="#707070" stroke-width="1"/>
    <path id="Trazado_146081" data-name="Trazado 146081" d="M-2998-9417.9v46.235h66.512v-50.589" transform="translate(303.407 2098.595)" fill="none" stroke="#707070" stroke-width="1"/>
    <path id="Trazado_148231" data-name="Trazado 148231" d="M13,0H96a13,13,0,0,1,13,13V35A13,13,0,0,1,96,48H13A13,13,0,0,1,0,35V13A13,13,0,0,1,13,0Z" transform="translate(-2942 -7759)" fill="#81d4fa"/>
    <path id="Trazado_148232" data-name="Trazado 148232" d="M13,0H96a13,13,0,0,1,13,13V37A13,13,0,0,1,96,50H13A13,13,0,0,1,0,37V13A13,13,0,0,1,13,0Z" transform="translate(-2942 -7697)" fill="#81d4fa"/>
    <path id="Trazado_148233" data-name="Trazado 148233" d="M13,0H96a13,13,0,0,1,13,13V36A13,13,0,0,1,96,49H13A13,13,0,0,1,0,36V13A13,13,0,0,1,13,0Z" transform="translate(-3015 -7629)" fill="#81d4fa"/>
    <path id="Trazado_148234" data-name="Trazado 148234" d="M13,0H96a13,13,0,0,1,13,13V35A13,13,0,0,1,96,48H13A13,13,0,0,1,0,35V13A13,13,0,0,1,13,0Z" transform="translate(-3136 -7551)" fill="#81d4fa"/>
    <path id="Trazado_148235" data-name="Trazado 148235" d="M13,0H96a13,13,0,0,1,13,13V37A13,13,0,0,1,96,50H13A13,13,0,0,1,0,37V13A13,13,0,0,1,13,0Z" transform="translate(-3136 -7477)" fill="#81d4fa"/>
    <path id="Trazado_148236" data-name="Trazado 148236" d="M13,0H96a13,13,0,0,1,13,13V35A13,13,0,0,1,96,48H13A13,13,0,0,1,0,35V13A13,13,0,0,1,13,0Z" transform="translate(-3007 -7551)" fill="#81d4fa"/>
    <path id="Trazado_148237" data-name="Trazado 148237" d="M13,0H96a13,13,0,0,1,13,13V37A13,13,0,0,1,96,50H13A13,13,0,0,1,0,37V13A13,13,0,0,1,13,0Z" transform="translate(-3007 -7477)" fill="#81d4fa"/>
    <path id="Trazado_148238" data-name="Trazado 148238" d="M13,0H97a13,13,0,0,1,13,13V35A13,13,0,0,1,97,48H13A13,13,0,0,1,0,35V13A13,13,0,0,1,13,0Z" transform="translate(-2849 -7551)" fill="#81d4fa"/>
    <path id="Trazado_148239" data-name="Trazado 148239" d="M13,0H97a13,13,0,0,1,13,13V37A13,13,0,0,1,97,50H13A13,13,0,0,1,0,37V13A13,13,0,0,1,13,0Z" transform="translate(-2849 -7477)" fill="#81d4fa"/>
    <path id="Trazado_148240" data-name="Trazado 148240" d="M13,0H96a13,13,0,0,1,13,13V35A13,13,0,0,1,96,48H13A13,13,0,0,1,0,35V13A13,13,0,0,1,13,0Z" transform="translate(-2719 -7551)" fill="#81d4fa"/>
    <path id="Trazado_148241" data-name="Trazado 148241" d="M13,0H96a13,13,0,0,1,13,13V37A13,13,0,0,1,96,50H13A13,13,0,0,1,0,37V13A13,13,0,0,1,13,0Z" transform="translate(-2719 -7477)" fill="#81d4fa"/>
    <path id="Trazado_148242" data-name="Trazado 148242" d="M0,0H48V47H0Z" transform="translate(-3169 -7407)" fill="#e7eef7"/>
    <path id="Trazado_148243" data-name="Trazado 148243" d="M0,0H46V47H0Z" transform="translate(-2872 -7407)" fill="#e7eef7"/>
    <path id="Trazado_148244" data-name="Trazado 148244" d="M0,0H46V47H0Z" transform="translate(-3113 -7407)" fill="#e7eef7"/>
    <path id="Trazado_148245" data-name="Trazado 148245" d="M0,0H48V47H0Z" transform="translate(-2818 -7407)" fill="#e7eef7"/>
    <path id="Trazado_148246" data-name="Trazado 148246" d="M0,0H45V47H0Z" transform="translate(-3002 -7341)" fill="#e7eef7"/>
    <path id="Trazado_148247" data-name="Trazado 148247" d="M0,0H45V45H0Z" transform="translate(-2710 -7350)" fill="#e7eef7"/>
    <path id="Trazado_148248" data-name="Trazado 148248" d="M0,0H47V47H0Z" transform="translate(-3059 -7407)" fill="#e7eef7"/>
    <path id="Trazado_148249" data-name="Trazado 148249" d="M0,0H46V47H0Z" transform="translate(-2762 -7407)" fill="#e7eef7"/>
    <path id="Trazado_148250" data-name="Trazado 148250" d="M0,0H46V47H0Z" transform="translate(-2947 -7341)" fill="#e7eef7"/>
    <path id="Trazado_148251" data-name="Trazado 148251" d="M0,0H47V45H0Z" transform="translate(-2657 -7350)" fill="#e7eef7"/>
    <path id="Trazado_148252" data-name="Trazado 148252" d="M0,0H47V47H0Z" transform="translate(-2683 -7290)" fill="#e7eef7"/>
    <path id="Trazado_148253" data-name="Trazado 148253" d="M7.289,11.881a2.6,2.6,0,0,1-1.21.929,4.887,4.887,0,0,1-1.808.308,3.506,3.506,0,0,1-1.852-.489,3.26,3.26,0,0,1-1.251-1.392A4.806,4.806,0,0,1,.715,9.145V8.4a4.487,4.487,0,0,1,.9-2.988A3.134,3.134,0,0,1,4.143,4.352a3.237,3.237,0,0,1,2.15.683,2.974,2.974,0,0,1,1,1.937H6.164a1.86,1.86,0,0,0-2.016-1.7,1.991,1.991,0,0,0-1.714.795,3.88,3.88,0,0,0-.589,2.3v.7A3.636,3.636,0,0,0,2.5,11.35a2.127,2.127,0,0,0,1.775.847,3.921,3.921,0,0,0,1.107-.14,1.713,1.713,0,0,0,.785-.473V9.672H4.2v-.92H7.289Zm4.336,1.236a2.77,2.77,0,0,1-2.1-.847,3.142,3.142,0,0,1-.809-2.265v-.2a3.8,3.8,0,0,1,.36-1.685,2.811,2.811,0,0,1,1.008-1.16,2.534,2.534,0,0,1,1.4-.419,2.374,2.374,0,0,1,1.922.814A3.526,3.526,0,0,1,14.1,9.689v.451H9.8a2.254,2.254,0,0,0,.548,1.515,1.722,1.722,0,0,0,1.333.577A1.888,1.888,0,0,0,12.656,12a2.444,2.444,0,0,0,.7-.621l.662.516A2.662,2.662,0,0,1,11.625,13.117ZM11.49,7.434a1.446,1.446,0,0,0-1.1.478A2.321,2.321,0,0,0,9.838,9.25h3.176V9.168a2.065,2.065,0,0,0-.445-1.28A1.361,1.361,0,0,0,11.49,7.434Zm6.926.2a3.248,3.248,0,0,0-.533-.041,1.428,1.428,0,0,0-1.447.908V13H15.352V6.66h1.055l.018.732a1.688,1.688,0,0,1,1.512-.85,1.107,1.107,0,0,1,.48.082Zm3.627,5.484a2.77,2.77,0,0,1-2.1-.847,3.142,3.142,0,0,1-.809-2.265v-.2a3.8,3.8,0,0,1,.36-1.685A2.811,2.811,0,0,1,20.5,6.962a2.534,2.534,0,0,1,1.4-.419,2.374,2.374,0,0,1,1.922.814,3.526,3.526,0,0,1,.686,2.332v.451H20.221a2.254,2.254,0,0,0,.548,1.515,1.722,1.722,0,0,0,1.333.577A1.888,1.888,0,0,0,23.074,12a2.444,2.444,0,0,0,.7-.621l.662.516A2.662,2.662,0,0,1,22.043,13.117Zm-.135-5.684a1.446,1.446,0,0,0-1.1.478,2.321,2.321,0,0,0-.551,1.339h3.176V9.168a2.065,2.065,0,0,0-.445-1.28A1.361,1.361,0,0,0,21.908,7.434Zm4.887-.773.035.8a2.31,2.31,0,0,1,1.9-.914q2.01,0,2.027,2.268V13H29.672V8.8a1.459,1.459,0,0,0-.313-1.014,1.256,1.256,0,0,0-.958-.328,1.564,1.564,0,0,0-.926.281,1.91,1.91,0,0,0-.621.738V13H25.77V6.66Zm7.066-1.535V6.66h1.184V7.5H33.861v3.937a.88.88,0,0,0,.158.572.666.666,0,0,0,.539.191,2.624,2.624,0,0,0,.516-.07V13a3.161,3.161,0,0,1-.832.116,1.35,1.35,0,0,1-1.1-.439,1.888,1.888,0,0,1-.369-1.248V7.5H31.623V6.66h1.154V5.125Zm5.08,7.992a2.77,2.77,0,0,1-2.1-.847,3.142,3.142,0,0,1-.809-2.265v-.2a3.8,3.8,0,0,1,.36-1.685A2.811,2.811,0,0,1,37.4,6.962a2.534,2.534,0,0,1,1.4-.419,2.374,2.374,0,0,1,1.922.814,3.526,3.526,0,0,1,.686,2.332v.451H37.119a2.254,2.254,0,0,0,.548,1.515A1.722,1.722,0,0,0,39,12.232,1.888,1.888,0,0,0,39.973,12a2.444,2.444,0,0,0,.7-.621l.662.516A2.662,2.662,0,0,1,38.941,13.117Zm-.135-5.684a1.446,1.446,0,0,0-1.1.478,2.321,2.321,0,0,0-.551,1.339H40.33V9.168a2.065,2.065,0,0,0-.445-1.28A1.361,1.361,0,0,0,38.807,7.434Z" transform="translate(-2909 -7741)" fill="#12263f"/>
    <path id="Trazado_148254" data-name="Trazado 148254" d="M-26.44-3.34V0h-1.125V-8.531h3.146a3.161,3.161,0,0,1,2.194.715,2.423,2.423,0,0,1,.794,1.893,2.391,2.391,0,0,1-.776,1.913,3.3,3.3,0,0,1-2.224.671Zm0-.92h2.021a2.021,2.021,0,0,0,1.383-.426,1.556,1.556,0,0,0,.48-1.23,1.608,1.608,0,0,0-.48-1.221,1.894,1.894,0,0,0-1.318-.475H-26.44Zm9.34-1.107a3.248,3.248,0,0,0-.533-.041,1.428,1.428,0,0,0-1.447.908V0h-1.084V-6.34h1.055l.018.732a1.688,1.688,0,0,1,1.512-.85,1.107,1.107,0,0,1,.48.082ZM-13.474.117a2.77,2.77,0,0,1-2.1-.847,3.142,3.142,0,0,1-.809-2.265v-.2a3.8,3.8,0,0,1,.36-1.685,2.811,2.811,0,0,1,1.008-1.16,2.534,2.534,0,0,1,1.4-.419,2.374,2.374,0,0,1,1.922.814A3.526,3.526,0,0,1-11-3.311v.451H-15.3a2.254,2.254,0,0,0,.548,1.515,1.722,1.722,0,0,0,1.333.577A1.888,1.888,0,0,0-12.442-1a2.444,2.444,0,0,0,.7-.621l.662.516A2.662,2.662,0,0,1-13.474.117Zm-.135-5.684a1.446,1.446,0,0,0-1.1.478,2.321,2.321,0,0,0-.551,1.339h3.176v-.082a2.065,2.065,0,0,0-.445-1.28A1.361,1.361,0,0,0-13.608-5.566Zm7.553,3.885a.8.8,0,0,0-.331-.683,3.187,3.187,0,0,0-1.154-.419,5.457,5.457,0,0,1-1.307-.422,1.859,1.859,0,0,1-.715-.586A1.4,1.4,0,0,1-9.794-4.6a1.645,1.645,0,0,1,.659-1.318A2.574,2.574,0,0,1-7.45-6.457,2.649,2.649,0,0,1-5.7-5.9,1.768,1.768,0,0,1-5.03-4.477H-6.12A.979.979,0,0,0-6.5-5.244a1.416,1.416,0,0,0-.952-.322,1.482,1.482,0,0,0-.926.258.812.812,0,0,0-.334.674.658.658,0,0,0,.311.592,3.821,3.821,0,0,0,1.122.381,5.847,5.847,0,0,1,1.315.434,1.919,1.919,0,0,1,.747.606,1.491,1.491,0,0,1,.243.864A1.623,1.623,0,0,1-5.651-.4,2.851,2.851,0,0,1-7.415.117a3.193,3.193,0,0,1-1.348-.27A2.192,2.192,0,0,1-9.68-.905a1.815,1.815,0,0,1-.331-1.046h1.084a1.122,1.122,0,0,0,.437.864,1.693,1.693,0,0,0,1.075.319,1.748,1.748,0,0,0,.987-.249A.765.765,0,0,0-6.056-1.682ZM-2.382,0H-3.466V-6.34h1.084ZM-3.554-8.021a.647.647,0,0,1,.161-.445.6.6,0,0,1,.478-.182.614.614,0,0,1,.48.182.64.64,0,0,1,.164.445.619.619,0,0,1-.164.439.626.626,0,0,1-.48.176.616.616,0,0,1-.478-.176A.626.626,0,0,1-3.554-8.021Zm2.643,4.8A3.714,3.714,0,0,1-.22-5.569a2.186,2.186,0,0,1,1.811-.888A2.2,2.2,0,0,1,3.354-5.7V-9H4.438V0h-1L3.39-.68a2.208,2.208,0,0,1-1.811.8,2.165,2.165,0,0,1-1.8-.9A3.756,3.756,0,0,1-.911-3.141ZM.173-3.1A2.812,2.812,0,0,0,.618-1.412,1.44,1.44,0,0,0,1.849-.8a1.581,1.581,0,0,0,1.506-.926V-4.641a1.593,1.593,0,0,0-1.494-.9,1.446,1.446,0,0,0-1.242.615A3.1,3.1,0,0,0,.173-3.1ZM8.751.117a2.77,2.77,0,0,1-2.1-.847,3.142,3.142,0,0,1-.809-2.265v-.2a3.8,3.8,0,0,1,.36-1.685,2.811,2.811,0,0,1,1.008-1.16,2.534,2.534,0,0,1,1.4-.419,2.374,2.374,0,0,1,1.922.814,3.526,3.526,0,0,1,.686,2.332v.451H6.929a2.254,2.254,0,0,0,.548,1.515A1.722,1.722,0,0,0,8.81-.768,1.888,1.888,0,0,0,9.782-1a2.444,2.444,0,0,0,.7-.621l.662.516A2.662,2.662,0,0,1,8.751.117ZM8.616-5.566a1.446,1.446,0,0,0-1.1.478A2.321,2.321,0,0,0,6.964-3.75H10.14v-.082a2.065,2.065,0,0,0-.445-1.28A1.361,1.361,0,0,0,8.616-5.566ZM13.5-6.34l.035.8a2.31,2.31,0,0,1,1.9-.914q2.01,0,2.027,2.268V0H16.38V-4.2a1.459,1.459,0,0,0-.313-1.014,1.256,1.256,0,0,0-.958-.328,1.564,1.564,0,0,0-.926.281,1.91,1.91,0,0,0-.621.738V0H12.478V-6.34Zm7.066-1.535V-6.34h1.184V-5.5H20.569v3.937a.88.88,0,0,0,.158.572.666.666,0,0,0,.539.191,2.624,2.624,0,0,0,.516-.07V0a3.161,3.161,0,0,1-.832.116,1.35,1.35,0,0,1-1.1-.439,1.888,1.888,0,0,1-.369-1.248V-5.5H18.331V-6.34h1.154V-7.875ZM25.649.117a2.77,2.77,0,0,1-2.1-.847,3.142,3.142,0,0,1-.809-2.265v-.2a3.8,3.8,0,0,1,.36-1.685,2.811,2.811,0,0,1,1.008-1.16,2.534,2.534,0,0,1,1.4-.419,2.374,2.374,0,0,1,1.922.814,3.526,3.526,0,0,1,.686,2.332v.451H23.827a2.254,2.254,0,0,0,.548,1.515,1.722,1.722,0,0,0,1.333.577A1.888,1.888,0,0,0,26.681-1a2.444,2.444,0,0,0,.7-.621l.662.516A2.662,2.662,0,0,1,25.649.117Zm-.135-5.684a1.446,1.446,0,0,0-1.1.478,2.321,2.321,0,0,0-.551,1.339h3.176v-.082a2.065,2.065,0,0,0-.445-1.28A1.361,1.361,0,0,0,25.515-5.566Z" transform="translate(-2891 -7671)" fill="#12263f"/>
    <path id="Trazado_148255" data-name="Trazado 148255" d="M-23.558-3.8a5.29,5.29,0,0,1-2.106-1.022,1.954,1.954,0,0,1-.659-1.5,2.064,2.064,0,0,1,.806-1.667,3.2,3.2,0,0,1,2.095-.659,3.5,3.5,0,0,1,1.567.34,2.577,2.577,0,0,1,1.066.938,2.4,2.4,0,0,1,.378,1.307h-1.131a1.56,1.56,0,0,0-.492-1.22,2,2,0,0,0-1.389-.444,2.049,2.049,0,0,0-1.3.367,1.224,1.224,0,0,0-.466,1.018,1.1,1.1,0,0,0,.442.883,4.339,4.339,0,0,0,1.506.66,6.987,6.987,0,0,1,1.664.66,2.525,2.525,0,0,1,.891.841,2.146,2.146,0,0,1,.29,1.131A1.993,1.993,0,0,1-21.2-.507a3.448,3.448,0,0,1-2.162.624A4.01,4.01,0,0,1-25-.22a2.761,2.761,0,0,1-1.175-.923,2.252,2.252,0,0,1-.413-1.33h1.131a1.469,1.469,0,0,0,.571,1.222A2.4,2.4,0,0,0-23.364-.8,2.211,2.211,0,0,0-22-1.166a1.18,1.18,0,0,0,.475-.99,1.158,1.158,0,0,0-.439-.97A5.066,5.066,0,0,0-23.558-3.8Zm7.066,3.92a2.77,2.77,0,0,1-2.1-.847A3.142,3.142,0,0,1-19.4-2.994v-.2a3.8,3.8,0,0,1,.36-1.685,2.811,2.811,0,0,1,1.008-1.16,2.534,2.534,0,0,1,1.4-.419,2.374,2.374,0,0,1,1.922.814,3.526,3.526,0,0,1,.686,2.332v.451h-4.295a2.254,2.254,0,0,0,.548,1.515,1.722,1.722,0,0,0,1.333.577A1.888,1.888,0,0,0-15.46-1a2.444,2.444,0,0,0,.7-.621l.662.516A2.662,2.662,0,0,1-16.491.117Zm-.135-5.684a1.446,1.446,0,0,0-1.1.478,2.321,2.321,0,0,0-.551,1.339H-15.1v-.082a2.065,2.065,0,0,0-.445-1.28A1.361,1.361,0,0,0-16.626-5.566Zm6.4,4.8a1.561,1.561,0,0,0,1.014-.352A1.237,1.237,0,0,0-8.728-2H-7.7A1.966,1.966,0,0,1-8.077-.961,2.47,2.47,0,0,1-9-.176a2.663,2.663,0,0,1-1.222.293,2.612,2.612,0,0,1-2.06-.864,3.442,3.442,0,0,1-.765-2.364v-.182a3.817,3.817,0,0,1,.34-1.646,2.588,2.588,0,0,1,.976-1.119,2.771,2.771,0,0,1,1.5-.4,2.543,2.543,0,0,1,1.772.639A2.283,2.283,0,0,1-7.7-4.16H-8.728a1.494,1.494,0,0,0-.466-1.011,1.449,1.449,0,0,0-1.034-.4,1.517,1.517,0,0,0-1.28.595,2.793,2.793,0,0,0-.454,1.72v.205a2.737,2.737,0,0,0,.451,1.688A1.524,1.524,0,0,0-10.222-.768Zm6.8-4.6a3.248,3.248,0,0,0-.533-.041A1.428,1.428,0,0,0-5.4-4.5V0H-6.483V-6.34h1.055l.018.732A1.688,1.688,0,0,1-3.9-6.457a1.107,1.107,0,0,1,.48.082ZM.208.117a2.77,2.77,0,0,1-2.1-.847A3.142,3.142,0,0,1-2.7-2.994v-.2a3.8,3.8,0,0,1,.36-1.685A2.811,2.811,0,0,1-1.33-6.038a2.534,2.534,0,0,1,1.4-.419A2.374,2.374,0,0,1,2-5.643a3.526,3.526,0,0,1,.686,2.332v.451H-1.614a2.254,2.254,0,0,0,.548,1.515A1.722,1.722,0,0,0,.267-.768,1.888,1.888,0,0,0,1.239-1a2.444,2.444,0,0,0,.7-.621l.662.516A2.662,2.662,0,0,1,.208.117ZM.073-5.566a1.446,1.446,0,0,0-1.1.478A2.321,2.321,0,0,0-1.579-3.75H1.6v-.082a2.065,2.065,0,0,0-.445-1.28A1.361,1.361,0,0,0,.073-5.566ZM5.405-7.875V-6.34H6.589V-5.5H5.405v3.937a.88.88,0,0,0,.158.572A.666.666,0,0,0,6.1-.8a2.624,2.624,0,0,0,.516-.07V0a3.161,3.161,0,0,1-.832.116,1.35,1.35,0,0,1-1.1-.439A1.888,1.888,0,0,1,4.321-1.57V-5.5H3.167V-6.34H4.321V-7.875ZM11.769,0a2.277,2.277,0,0,1-.152-.668,2.419,2.419,0,0,1-1.8.785,2.238,2.238,0,0,1-1.538-.53,1.716,1.716,0,0,1-.6-1.345A1.792,1.792,0,0,1,8.426-3.3a3.55,3.55,0,0,1,2.118-.548H11.6v-.5a1.217,1.217,0,0,0-.34-.905,1.366,1.366,0,0,0-1-.337,1.581,1.581,0,0,0-.973.293.863.863,0,0,0-.393.709H7.8A1.5,1.5,0,0,1,8.139-5.5a2.3,2.3,0,0,1,.914-.7,3.075,3.075,0,0,1,1.269-.258,2.506,2.506,0,0,1,1.717.548A1.976,1.976,0,0,1,12.683-4.4v2.918a3.567,3.567,0,0,0,.223,1.389V0ZM9.97-.826a1.905,1.905,0,0,0,.967-.264,1.6,1.6,0,0,0,.662-.686v-1.3h-.85q-1.992,0-1.992,1.166a.987.987,0,0,0,.34.8A1.306,1.306,0,0,0,9.97-.826Zm7.477-4.541a3.248,3.248,0,0,0-.533-.041,1.428,1.428,0,0,0-1.447.908V0H14.382V-6.34h1.055l.018.732a1.688,1.688,0,0,1,1.512-.85,1.107,1.107,0,0,1,.48.082ZM19.62,0H18.536V-6.34H19.62ZM18.448-8.021a.647.647,0,0,1,.161-.445.6.6,0,0,1,.478-.182.614.614,0,0,1,.48.182.64.64,0,0,1,.164.445.619.619,0,0,1-.164.439.626.626,0,0,1-.48.176.616.616,0,0,1-.478-.176A.626.626,0,0,1,18.448-8.021ZM25.269,0a2.277,2.277,0,0,1-.152-.668,2.419,2.419,0,0,1-1.8.785,2.238,2.238,0,0,1-1.538-.53,1.716,1.716,0,0,1-.6-1.345A1.792,1.792,0,0,1,21.926-3.3a3.55,3.55,0,0,1,2.118-.548H25.1v-.5a1.217,1.217,0,0,0-.34-.905,1.366,1.366,0,0,0-1-.337,1.581,1.581,0,0,0-.973.293.863.863,0,0,0-.393.709H21.3a1.5,1.5,0,0,1,.337-.917,2.3,2.3,0,0,1,.914-.7,3.075,3.075,0,0,1,1.269-.258,2.506,2.506,0,0,1,1.717.548A1.976,1.976,0,0,1,26.183-4.4v2.918a3.567,3.567,0,0,0,.223,1.389V0Zm-1.8-.826a1.905,1.905,0,0,0,.967-.264,1.6,1.6,0,0,0,.662-.686v-1.3h-.85q-1.992,0-1.992,1.166a.987.987,0,0,0,.34.8A1.306,1.306,0,0,0,23.47-.826Z" transform="translate(-2966 -7601)" fill="#12263f"/>
    <path id="Trazado_148256" data-name="Trazado 148256" d="M-14.982-3.451h-2V0h-1.131V-8.531h2.824a3.343,3.343,0,0,1,2.218.656,2.361,2.361,0,0,1,.776,1.91,2.3,2.3,0,0,1-.431,1.389,2.571,2.571,0,0,1-1.2.885l2,3.621V0h-1.207Zm-2-.92h1.729a1.95,1.95,0,0,0,1.333-.434,1.469,1.469,0,0,0,.5-1.162A1.547,1.547,0,0,0-13.9-7.183a2,2,0,0,0-1.362-.429h-1.723Zm9.393.92h-2V0h-1.131V-8.531H-7.9a3.343,3.343,0,0,1,2.218.656,2.361,2.361,0,0,1,.776,1.91,2.3,2.3,0,0,1-.431,1.389,2.571,2.571,0,0,1-1.2.885l2,3.621V0H-5.742Zm-2-.92h1.729a1.95,1.95,0,0,0,1.333-.434,1.469,1.469,0,0,0,.5-1.162,1.547,1.547,0,0,0-.472-1.215,2,2,0,0,0-1.362-.429H-9.6Zm6.117,3.8a.679.679,0,0,1,.167-.469.636.636,0,0,1,.5-.187.655.655,0,0,1,.507.188.665.665,0,0,1,.173.469.629.629,0,0,1-.173.451.667.667,0,0,1-.507.182.648.648,0,0,1-.5-.182A.641.641,0,0,1-3.48-.568ZM6.381,0H5.25V-3.943H.949V0H-.176V-8.531H.949v3.668h4.3V-8.531H6.381Zm8.555,0H13.8V-3.943H9.5V0H8.379V-8.531H9.5v3.668h4.3V-8.531h1.131Zm1.852-.568a.679.679,0,0,1,.167-.469.636.636,0,0,1,.5-.187.655.655,0,0,1,.507.188.665.665,0,0,1,.173.469.629.629,0,0,1-.173.451.667.667,0,0,1-.507.182.648.648,0,0,1-.5-.182A.641.641,0,0,1,16.787-.568Z" transform="translate(-3086 -7522)" fill="#12263f"/>
    <path id="Trazado_148257" data-name="Trazado 148257" d="M-26.361-2.707a3.139,3.139,0,0,1-1,2.089A3.274,3.274,0,0,1-29.6.117,3.006,3.006,0,0,1-32.019-.967a4.361,4.361,0,0,1-.911-2.9v-.82A4.861,4.861,0,0,1-32.5-6.779a3.173,3.173,0,0,1,1.2-1.386,3.353,3.353,0,0,1,1.8-.483,3.083,3.083,0,0,1,2.18.759,3.176,3.176,0,0,1,.955,2.1h-1.131a2.451,2.451,0,0,0-.636-1.481A1.924,1.924,0,0,0-29.5-7.729a2.013,2.013,0,0,0-1.69.8A3.661,3.661,0,0,0-31.8-4.661v.827a3.764,3.764,0,0,0,.58,2.211A1.874,1.874,0,0,0-29.6-.8a2.165,2.165,0,0,0,1.438-.425,2.357,2.357,0,0,0,.665-1.479Zm1.078-.521A3.745,3.745,0,0,1-24.917-4.9,2.732,2.732,0,0,1-23.9-6.053a2.775,2.775,0,0,1,1.491-.4,2.674,2.674,0,0,1,2.095.9,3.449,3.449,0,0,1,.8,2.385V-3.1a3.777,3.777,0,0,1-.354,1.661A2.692,2.692,0,0,1-20.88-.293a2.807,2.807,0,0,1-1.515.41,2.667,2.667,0,0,1-2.089-.9,3.432,3.432,0,0,1-.8-2.373Zm1.09.129A2.712,2.712,0,0,0-23.7-1.406a1.566,1.566,0,0,0,1.31.639,1.556,1.556,0,0,0,1.313-.647A2.966,2.966,0,0,0-20.6-3.229a2.708,2.708,0,0,0-.5-1.69,1.574,1.574,0,0,0-1.315-.647,1.557,1.557,0,0,0-1.295.639A2.944,2.944,0,0,0-24.193-3.1Zm7.066-3.24.035.8a2.31,2.31,0,0,1,1.9-.914q2.01,0,2.027,2.268V0H-14.25V-4.2a1.459,1.459,0,0,0-.313-1.014,1.256,1.256,0,0,0-.958-.328,1.564,1.564,0,0,0-.926.281,1.91,1.91,0,0,0-.621.738V0h-1.084V-6.34Zm7.066-1.535V-6.34h1.184V-5.5h-1.184v3.937A.88.88,0,0,0-9.9-.993.666.666,0,0,0-9.363-.8a2.624,2.624,0,0,0,.516-.07V0A3.161,3.161,0,0,1-9.68.117a1.35,1.35,0,0,1-1.1-.439,1.888,1.888,0,0,1-.369-1.248V-5.5H-12.3V-6.34h1.154V-7.875ZM-3.7,0A2.277,2.277,0,0,1-3.85-.668a2.419,2.419,0,0,1-1.8.785,2.238,2.238,0,0,1-1.538-.53,1.716,1.716,0,0,1-.6-1.345A1.792,1.792,0,0,1-7.04-3.3a3.55,3.55,0,0,1,2.118-.548h1.055v-.5a1.217,1.217,0,0,0-.34-.905,1.366,1.366,0,0,0-1-.337,1.581,1.581,0,0,0-.973.293.863.863,0,0,0-.393.709h-1.09A1.5,1.5,0,0,1-7.327-5.5a2.3,2.3,0,0,1,.914-.7,3.075,3.075,0,0,1,1.269-.258,2.506,2.506,0,0,1,1.717.548A1.976,1.976,0,0,1-2.783-4.4v2.918A3.567,3.567,0,0,0-2.561-.094V0ZM-5.5-.826a1.905,1.905,0,0,0,.967-.264,1.6,1.6,0,0,0,.662-.686v-1.3h-.85q-1.992,0-1.992,1.166a.987.987,0,0,0,.34.8A1.306,1.306,0,0,0-5.5-.826ZM4.283-3.1A3.77,3.77,0,0,1,3.615-.765,2.134,2.134,0,0,1,1.822.117,2.21,2.21,0,0,1-.035-.732L-.088,0h-1V-9H0v3.357a2.2,2.2,0,0,1,1.811-.814,2.147,2.147,0,0,1,1.813.873,3.883,3.883,0,0,1,.659,2.391ZM3.2-3.223a2.929,2.929,0,0,0-.428-1.711,1.416,1.416,0,0,0-1.23-.6A1.591,1.591,0,0,0,0-4.541V-1.8a1.636,1.636,0,0,0,1.553,1,1.408,1.408,0,0,0,1.213-.6A3.115,3.115,0,0,0,3.2-3.223ZM6.826,0H5.742V-6.34H6.826ZM5.654-8.021a.647.647,0,0,1,.161-.445.6.6,0,0,1,.478-.182.614.614,0,0,1,.48.182.64.64,0,0,1,.164.445.619.619,0,0,1-.164.439.626.626,0,0,1-.48.176.616.616,0,0,1-.478-.176A.626.626,0,0,1,5.654-8.021ZM9.738,0H8.654V-9H9.738ZM12.65,0H11.566V-6.34H12.65ZM11.479-8.021a.647.647,0,0,1,.161-.445.6.6,0,0,1,.478-.182.614.614,0,0,1,.48.182.64.64,0,0,1,.164.445.619.619,0,0,1-.164.439.626.626,0,0,1-.48.176.616.616,0,0,1-.478-.176A.626.626,0,0,1,11.479-8.021Zm2.643,4.8a3.714,3.714,0,0,1,.691-2.347,2.186,2.186,0,0,1,1.811-.888,2.2,2.2,0,0,1,1.764.762V-9h1.084V0h-1l-.053-.68a2.208,2.208,0,0,1-1.811.8,2.165,2.165,0,0,1-1.8-.9,3.756,3.756,0,0,1-.694-2.355Zm1.084.123a2.812,2.812,0,0,0,.445,1.688,1.44,1.44,0,0,0,1.23.609,1.581,1.581,0,0,0,1.506-.926V-4.641a1.593,1.593,0,0,0-1.494-.9,1.446,1.446,0,0,0-1.242.615A3.1,3.1,0,0,0,15.205-3.1ZM25.066,0a2.277,2.277,0,0,1-.152-.668,2.419,2.419,0,0,1-1.8.785,2.238,2.238,0,0,1-1.538-.53,1.716,1.716,0,0,1-.6-1.345A1.792,1.792,0,0,1,21.724-3.3a3.55,3.55,0,0,1,2.118-.548H24.9v-.5a1.217,1.217,0,0,0-.34-.905,1.366,1.366,0,0,0-1-.337,1.581,1.581,0,0,0-.973.293.863.863,0,0,0-.393.709H21.1a1.5,1.5,0,0,1,.337-.917,2.3,2.3,0,0,1,.914-.7,3.075,3.075,0,0,1,1.269-.258,2.506,2.506,0,0,1,1.717.548A1.976,1.976,0,0,1,25.98-4.4v2.918A3.567,3.567,0,0,0,26.2-.094V0Zm-1.8-.826a1.905,1.905,0,0,0,.967-.264,1.6,1.6,0,0,0,.662-.686v-1.3h-.85q-1.992,0-1.992,1.166a.987.987,0,0,0,.34.8A1.306,1.306,0,0,0,23.268-.826Zm4.148-2.4a3.714,3.714,0,0,1,.691-2.347,2.186,2.186,0,0,1,1.811-.888,2.2,2.2,0,0,1,1.764.762V-9h1.084V0h-1l-.053-.68a2.208,2.208,0,0,1-1.811.8,2.165,2.165,0,0,1-1.8-.9,3.756,3.756,0,0,1-.694-2.355ZM28.5-3.1a2.812,2.812,0,0,0,.445,1.688,1.44,1.44,0,0,0,1.23.609,1.581,1.581,0,0,0,1.506-.926V-4.641a1.593,1.593,0,0,0-1.494-.9,1.446,1.446,0,0,0-1.242.615A3.1,3.1,0,0,0,28.5-3.1Z" transform="translate(-2959 -7523)" fill="#12263f"/>
    <path id="Trazado_148258" data-name="Trazado 148258" d="M-24.4-8.531l2.789,6.961,2.789-6.961h1.459V0h-1.125V-3.322l.105-3.586L-21.185,0h-.861l-2.795-6.891.111,3.568V0h-1.125V-8.531ZM-11.634,0a2.277,2.277,0,0,1-.152-.668,2.419,2.419,0,0,1-1.8.785,2.238,2.238,0,0,1-1.538-.53,1.716,1.716,0,0,1-.6-1.345A1.792,1.792,0,0,1-14.977-3.3a3.55,3.55,0,0,1,2.118-.548H-11.8v-.5a1.217,1.217,0,0,0-.34-.905,1.366,1.366,0,0,0-1-.337,1.581,1.581,0,0,0-.973.293.863.863,0,0,0-.393.709H-15.6a1.5,1.5,0,0,1,.337-.917,2.3,2.3,0,0,1,.914-.7,3.075,3.075,0,0,1,1.269-.258,2.506,2.506,0,0,1,1.717.548A1.976,1.976,0,0,1-10.72-4.4v2.918A3.567,3.567,0,0,0-10.5-.094V0Zm-1.8-.826a1.905,1.905,0,0,0,.967-.264,1.6,1.6,0,0,0,.662-.686v-1.3h-.85q-1.992,0-1.992,1.166a.987.987,0,0,0,.34.8A1.306,1.306,0,0,0-13.433-.826Zm7.477-4.541a3.248,3.248,0,0,0-.533-.041A1.428,1.428,0,0,0-7.937-4.5V0H-9.021V-6.34h1.055l.018.732a1.688,1.688,0,0,1,1.512-.85,1.107,1.107,0,0,1,.48.082ZM-3.19-2.936l-.68.709V0H-4.954V-9H-3.87v5.443l.58-.7L-1.315-6.34H0L-2.464-3.691.29,0H-.981ZM3.753.117a2.77,2.77,0,0,1-2.1-.847A3.142,3.142,0,0,1,.847-2.994v-.2a3.8,3.8,0,0,1,.36-1.685,2.811,2.811,0,0,1,1.008-1.16,2.534,2.534,0,0,1,1.4-.419,2.374,2.374,0,0,1,1.922.814,3.526,3.526,0,0,1,.686,2.332v.451H1.931a2.254,2.254,0,0,0,.548,1.515,1.722,1.722,0,0,0,1.333.577A1.888,1.888,0,0,0,4.784-1a2.444,2.444,0,0,0,.7-.621l.662.516A2.662,2.662,0,0,1,3.753.117ZM3.618-5.566a1.446,1.446,0,0,0-1.1.478A2.321,2.321,0,0,0,1.966-3.75H5.142v-.082A2.065,2.065,0,0,0,4.7-5.112,1.361,1.361,0,0,0,3.618-5.566ZM8.95-7.875V-6.34h1.184V-5.5H8.95v3.937a.88.88,0,0,0,.158.572A.666.666,0,0,0,9.647-.8a2.624,2.624,0,0,0,.516-.07V0a3.161,3.161,0,0,1-.832.116,1.35,1.35,0,0,1-1.1-.439A1.888,1.888,0,0,1,7.866-1.57V-5.5H6.712V-6.34H7.866V-7.875ZM12.577,0H11.493V-6.34h1.084ZM11.405-8.021a.647.647,0,0,1,.161-.445.6.6,0,0,1,.478-.182.614.614,0,0,1,.48.182.64.64,0,0,1,.164.445.619.619,0,0,1-.164.439.626.626,0,0,1-.48.176.616.616,0,0,1-.478-.176A.626.626,0,0,1,11.405-8.021ZM15.337-6.34l.035.8a2.31,2.31,0,0,1,1.9-.914q2.01,0,2.027,2.268V0H18.214V-4.2A1.459,1.459,0,0,0,17.9-5.209a1.256,1.256,0,0,0-.958-.328,1.564,1.564,0,0,0-.926.281,1.91,1.91,0,0,0-.621.738V0H14.312V-6.34Zm5.338,3.117a3.726,3.726,0,0,1,.686-2.358,2.192,2.192,0,0,1,1.816-.876,2.181,2.181,0,0,1,1.811.82l.053-.7h.99V-.152A2.579,2.579,0,0,1,25.3,1.787a2.692,2.692,0,0,1-1.96.709A3.261,3.261,0,0,1,22,2.2a2.31,2.31,0,0,1-1-.8L21.56.75a2.12,2.12,0,0,0,1.705.861A1.661,1.661,0,0,0,24.5,1.166,1.7,1.7,0,0,0,24.94-.088V-.633a2.228,2.228,0,0,1-1.775.75,2.166,2.166,0,0,1-1.8-.9A3.918,3.918,0,0,1,20.675-3.223Zm1.09.123A2.843,2.843,0,0,0,22.2-1.415a1.428,1.428,0,0,0,1.23.612,1.588,1.588,0,0,0,1.506-.932V-4.629a1.606,1.606,0,0,0-1.494-.908,1.441,1.441,0,0,0-1.236.615A3.1,3.1,0,0,0,21.765-3.1Z" transform="translate(-2799 -7523)" fill="#12263f"/>
    <path id="Trazado_148259" data-name="Trazado 148259" d="M-22.292-.92h4.043V0h-5.174V-8.531h1.131Zm4.869-2.309A3.745,3.745,0,0,1-17.057-4.9a2.732,2.732,0,0,1,1.02-1.148,2.775,2.775,0,0,1,1.491-.4,2.674,2.674,0,0,1,2.095.9,3.449,3.449,0,0,1,.8,2.385V-3.1a3.777,3.777,0,0,1-.354,1.661A2.692,2.692,0,0,1-13.02-.293a2.807,2.807,0,0,1-1.515.41,2.667,2.667,0,0,1-2.089-.9,3.432,3.432,0,0,1-.8-2.373Zm1.09.129a2.712,2.712,0,0,0,.489,1.693,1.566,1.566,0,0,0,1.31.639,1.556,1.556,0,0,0,1.313-.647,2.966,2.966,0,0,0,.486-1.813,2.708,2.708,0,0,0-.5-1.69,1.574,1.574,0,0,0-1.315-.647,1.557,1.557,0,0,0-1.295.639A2.944,2.944,0,0,0-16.333-3.1Zm5.783-.123a3.726,3.726,0,0,1,.686-2.358,2.192,2.192,0,0,1,1.816-.876,2.181,2.181,0,0,1,1.811.82l.053-.7h.99V-.152a2.579,2.579,0,0,1-.729,1.939,2.692,2.692,0,0,1-1.96.709A3.261,3.261,0,0,1-9.226,2.2a2.31,2.31,0,0,1-1-.8l.563-.65a2.12,2.12,0,0,0,1.705.861,1.661,1.661,0,0,0,1.233-.445A1.7,1.7,0,0,0-6.284-.088V-.633A2.228,2.228,0,0,1-8.06.117a2.166,2.166,0,0,1-1.8-.9A3.918,3.918,0,0,1-10.55-3.223Zm1.09.123a2.843,2.843,0,0,0,.439,1.685A1.428,1.428,0,0,0-7.79-.8a1.588,1.588,0,0,0,1.506-.932V-4.629a1.606,1.606,0,0,0-1.494-.908,1.441,1.441,0,0,0-1.236.615A3.1,3.1,0,0,0-9.46-3.1ZM-2.382,0h-1.09V-6.34h1.09Zm.012-8.994h1.313l-1.57,1.723-.873,0ZM3.1-1.682a.8.8,0,0,0-.331-.683,3.187,3.187,0,0,0-1.154-.419A5.457,5.457,0,0,1,.3-3.205,1.859,1.859,0,0,1-.41-3.791,1.4,1.4,0,0,1-.642-4.6,1.645,1.645,0,0,1,.018-5.918,2.574,2.574,0,0,1,1.7-6.457,2.649,2.649,0,0,1,3.451-5.9a1.768,1.768,0,0,1,.671,1.424H3.032a.979.979,0,0,0-.378-.768A1.416,1.416,0,0,0,1.7-5.566a1.482,1.482,0,0,0-.926.258.812.812,0,0,0-.334.674.658.658,0,0,0,.311.592,3.821,3.821,0,0,0,1.122.381,5.847,5.847,0,0,1,1.315.434,1.919,1.919,0,0,1,.747.606,1.491,1.491,0,0,1,.243.864A1.623,1.623,0,0,1,3.5-.4,2.851,2.851,0,0,1,1.737.117,3.193,3.193,0,0,1,.39-.152,2.192,2.192,0,0,1-.527-.905,1.815,1.815,0,0,1-.858-1.951H.226a1.122,1.122,0,0,0,.437.864,1.693,1.693,0,0,0,1.075.319,1.748,1.748,0,0,0,.987-.249A.765.765,0,0,0,3.1-1.682ZM7.063-7.875V-6.34H8.247V-5.5H7.063v3.937a.88.88,0,0,0,.158.572A.666.666,0,0,0,7.761-.8a2.624,2.624,0,0,0,.516-.07V0a3.161,3.161,0,0,1-.832.116,1.35,1.35,0,0,1-1.1-.439A1.888,1.888,0,0,1,5.979-1.57V-5.5H4.825V-6.34H5.979V-7.875ZM10.69,0H9.606V-6.34H10.69ZM9.519-8.021a.647.647,0,0,1,.161-.445.6.6,0,0,1,.478-.182.614.614,0,0,1,.48.182.64.64,0,0,1,.164.445.619.619,0,0,1-.164.439.626.626,0,0,1-.48.176.616.616,0,0,1-.478-.176A.626.626,0,0,1,9.519-8.021ZM14.968-.768a1.561,1.561,0,0,0,1.014-.352A1.237,1.237,0,0,0,16.462-2h1.025a1.966,1.966,0,0,1-.375,1.037,2.47,2.47,0,0,1-.923.785,2.663,2.663,0,0,1-1.222.293,2.612,2.612,0,0,1-2.06-.864,3.442,3.442,0,0,1-.765-2.364v-.182a3.817,3.817,0,0,1,.34-1.646,2.588,2.588,0,0,1,.976-1.119,2.771,2.771,0,0,1,1.5-.4,2.543,2.543,0,0,1,1.772.639,2.283,2.283,0,0,1,.753,1.658H16.462A1.494,1.494,0,0,0,16-5.171a1.449,1.449,0,0,0-1.034-.4,1.517,1.517,0,0,0-1.28.595,2.793,2.793,0,0,0-.454,1.72v.205a2.737,2.737,0,0,0,.451,1.688A1.524,1.524,0,0,0,14.968-.768ZM22.62,0a2.277,2.277,0,0,1-.152-.668,2.419,2.419,0,0,1-1.8.785,2.238,2.238,0,0,1-1.538-.53,1.716,1.716,0,0,1-.6-1.345A1.792,1.792,0,0,1,19.277-3.3,3.55,3.55,0,0,1,21.4-3.844H22.45v-.5a1.217,1.217,0,0,0-.34-.905,1.366,1.366,0,0,0-1-.337,1.581,1.581,0,0,0-.973.293.863.863,0,0,0-.393.709h-1.09A1.5,1.5,0,0,1,18.99-5.5a2.3,2.3,0,0,1,.914-.7,3.075,3.075,0,0,1,1.269-.258,2.506,2.506,0,0,1,1.717.548A1.976,1.976,0,0,1,23.534-4.4v2.918a3.567,3.567,0,0,0,.223,1.389V0Zm-1.8-.826a1.905,1.905,0,0,0,.967-.264,1.6,1.6,0,0,0,.662-.686v-1.3H21.6q-1.992,0-1.992,1.166a.987.987,0,0,0,.34.8A1.306,1.306,0,0,0,20.821-.826Z" transform="translate(-2664 -7523)" fill="#12263f"/>
    <path id="Trazado_148260" data-name="Trazado 148260" d="M-14.81-1.494l2.438-7.037h1.23L-14.306,0h-1L-18.46-8.531h1.225ZM-7.538.117a2.77,2.77,0,0,1-2.1-.847,3.142,3.142,0,0,1-.809-2.265v-.2a3.8,3.8,0,0,1,.36-1.685,2.811,2.811,0,0,1,1.008-1.16,2.534,2.534,0,0,1,1.4-.419,2.374,2.374,0,0,1,1.922.814,3.526,3.526,0,0,1,.686,2.332v.451H-9.36a2.254,2.254,0,0,0,.548,1.515,1.722,1.722,0,0,0,1.333.577A1.888,1.888,0,0,0-6.507-1a2.444,2.444,0,0,0,.7-.621l.662.516A2.662,2.662,0,0,1-7.538.117Zm-.135-5.684a1.446,1.446,0,0,0-1.1.478A2.321,2.321,0,0,0-9.325-3.75h3.176v-.082a2.065,2.065,0,0,0-.445-1.28A1.361,1.361,0,0,0-7.673-5.566Zm4.887-.773.035.8a2.31,2.31,0,0,1,1.9-.914q2.01,0,2.027,2.268V0H.091V-4.2A1.459,1.459,0,0,0-.223-5.209a1.256,1.256,0,0,0-.958-.328,1.564,1.564,0,0,0-.926.281,1.91,1.91,0,0,0-.621.738V0H-3.812V-6.34ZM4.28-7.875V-6.34H5.464V-5.5H4.28v3.937a.88.88,0,0,0,.158.572A.666.666,0,0,0,4.978-.8a2.624,2.624,0,0,0,.516-.07V0a3.161,3.161,0,0,1-.832.116,1.35,1.35,0,0,1-1.1-.439A1.888,1.888,0,0,1,3.2-1.57V-5.5H2.042V-6.34H3.2V-7.875ZM10.644,0a2.277,2.277,0,0,1-.152-.668,2.419,2.419,0,0,1-1.8.785,2.238,2.238,0,0,1-1.538-.53,1.716,1.716,0,0,1-.6-1.345A1.792,1.792,0,0,1,7.3-3.3a3.55,3.55,0,0,1,2.118-.548h1.055v-.5a1.217,1.217,0,0,0-.34-.905,1.366,1.366,0,0,0-1-.337,1.581,1.581,0,0,0-.973.293.863.863,0,0,0-.393.709H6.677A1.5,1.5,0,0,1,7.014-5.5a2.3,2.3,0,0,1,.914-.7A3.075,3.075,0,0,1,9.2-6.457a2.506,2.506,0,0,1,1.717.548A1.976,1.976,0,0,1,11.558-4.4v2.918A3.567,3.567,0,0,0,11.78-.094V0Zm-1.8-.826a1.905,1.905,0,0,0,.967-.264,1.6,1.6,0,0,0,.662-.686v-1.3h-.85q-1.992,0-1.992,1.166a.987.987,0,0,0,.34.8A1.306,1.306,0,0,0,8.845-.826Zm8.1-.855a.8.8,0,0,0-.331-.683,3.187,3.187,0,0,0-1.154-.419,5.457,5.457,0,0,1-1.307-.422,1.859,1.859,0,0,1-.715-.586A1.4,1.4,0,0,1,13.21-4.6a1.645,1.645,0,0,1,.659-1.318,2.574,2.574,0,0,1,1.685-.539A2.649,2.649,0,0,1,17.3-5.9a1.768,1.768,0,0,1,.671,1.424h-1.09a.979.979,0,0,0-.378-.768,1.416,1.416,0,0,0-.952-.322,1.482,1.482,0,0,0-.926.258.812.812,0,0,0-.334.674.658.658,0,0,0,.311.592,3.821,3.821,0,0,0,1.122.381,5.847,5.847,0,0,1,1.315.434,1.919,1.919,0,0,1,.747.606,1.491,1.491,0,0,1,.243.864A1.623,1.623,0,0,1,17.353-.4a2.851,2.851,0,0,1-1.764.513,3.193,3.193,0,0,1-1.348-.27,2.192,2.192,0,0,1-.917-.753,1.815,1.815,0,0,1-.331-1.046h1.084a1.122,1.122,0,0,0,.437.864,1.693,1.693,0,0,0,1.075.319,1.748,1.748,0,0,0,.987-.249A.765.765,0,0,0,16.948-1.682Z" transform="translate(-3088 -7447)" fill="#12263f"/>
    <path id="Trazado_148261" data-name="Trazado 148261" d="M-18.375-7.611h-2.742V0h-1.119V-7.611h-2.736v-.92h6.6ZM-14.648.117a2.77,2.77,0,0,1-2.1-.847,3.142,3.142,0,0,1-.809-2.265v-.2a3.8,3.8,0,0,1,.36-1.685,2.811,2.811,0,0,1,1.008-1.16,2.534,2.534,0,0,1,1.4-.419,2.374,2.374,0,0,1,1.922.814,3.526,3.526,0,0,1,.686,2.332v.451h-4.295a2.254,2.254,0,0,0,.548,1.515,1.722,1.722,0,0,0,1.333.577A1.888,1.888,0,0,0-13.617-1a2.444,2.444,0,0,0,.7-.621l.662.516A2.662,2.662,0,0,1-14.648.117Zm-.135-5.684a1.446,1.446,0,0,0-1.1.478,2.321,2.321,0,0,0-.551,1.339h3.176v-.082a2.065,2.065,0,0,0-.445-1.28A1.361,1.361,0,0,0-14.783-5.566ZM-7.23-1.682a.8.8,0,0,0-.331-.683,3.187,3.187,0,0,0-1.154-.419,5.457,5.457,0,0,1-1.307-.422,1.859,1.859,0,0,1-.715-.586,1.4,1.4,0,0,1-.231-.809,1.645,1.645,0,0,1,.659-1.318,2.574,2.574,0,0,1,1.685-.539A2.649,2.649,0,0,1-6.876-5.9a1.768,1.768,0,0,1,.671,1.424h-1.09a.979.979,0,0,0-.378-.768,1.416,1.416,0,0,0-.952-.322,1.482,1.482,0,0,0-.926.258.812.812,0,0,0-.334.674.658.658,0,0,0,.311.592,3.821,3.821,0,0,0,1.122.381,5.847,5.847,0,0,1,1.315.434,1.919,1.919,0,0,1,.747.606,1.491,1.491,0,0,1,.243.864A1.623,1.623,0,0,1-6.826-.4,2.851,2.851,0,0,1-8.59.117a3.193,3.193,0,0,1-1.348-.27,2.192,2.192,0,0,1-.917-.753,1.815,1.815,0,0,1-.331-1.046H-10.1a1.122,1.122,0,0,0,.437.864A1.693,1.693,0,0,0-8.59-.768,1.748,1.748,0,0,0-7.6-1.017.765.765,0,0,0-7.23-1.682Zm2.209-1.547A3.745,3.745,0,0,1-4.655-4.9a2.732,2.732,0,0,1,1.02-1.148,2.775,2.775,0,0,1,1.491-.4,2.674,2.674,0,0,1,2.095.9,3.449,3.449,0,0,1,.8,2.385V-3.1A3.777,3.777,0,0,1,.4-1.438,2.692,2.692,0,0,1-.618-.293a2.807,2.807,0,0,1-1.515.41,2.667,2.667,0,0,1-2.089-.9,3.432,3.432,0,0,1-.8-2.373Zm1.09.129a2.712,2.712,0,0,0,.489,1.693,1.566,1.566,0,0,0,1.31.639A1.556,1.556,0,0,0-.82-1.415,2.966,2.966,0,0,0-.334-3.229a2.708,2.708,0,0,0-.5-1.69,1.574,1.574,0,0,0-1.315-.647,1.557,1.557,0,0,0-1.295.639A2.944,2.944,0,0,0-3.932-3.1ZM5.174-5.367a3.248,3.248,0,0,0-.533-.041A1.428,1.428,0,0,0,3.193-4.5V0H2.109V-6.34H3.164l.018.732a1.688,1.688,0,0,1,1.512-.85,1.107,1.107,0,0,1,.48.082ZM8.8.117A2.77,2.77,0,0,1,6.7-.729a3.142,3.142,0,0,1-.809-2.265v-.2a3.8,3.8,0,0,1,.36-1.685,2.811,2.811,0,0,1,1.008-1.16,2.534,2.534,0,0,1,1.4-.419,2.374,2.374,0,0,1,1.922.814,3.526,3.526,0,0,1,.686,2.332v.451H6.979a2.254,2.254,0,0,0,.548,1.515,1.722,1.722,0,0,0,1.333.577A1.888,1.888,0,0,0,9.832-1a2.444,2.444,0,0,0,.7-.621l.662.516A2.662,2.662,0,0,1,8.8.117ZM8.666-5.566a1.446,1.446,0,0,0-1.1.478A2.321,2.321,0,0,0,7.014-3.75h3.176v-.082a2.065,2.065,0,0,0-.445-1.28A1.361,1.361,0,0,0,8.666-5.566Zm6.926.2a3.248,3.248,0,0,0-.533-.041,1.428,1.428,0,0,0-1.447.908V0H12.527V-6.34h1.055l.018.732a1.688,1.688,0,0,1,1.512-.85,1.107,1.107,0,0,1,.48.082ZM17.766,0h-1.09V-6.34h1.09Zm.012-8.994H19.09L17.52-7.271l-.873,0ZM23.467,0a2.277,2.277,0,0,1-.152-.668,2.419,2.419,0,0,1-1.8.785,2.238,2.238,0,0,1-1.538-.53,1.716,1.716,0,0,1-.6-1.345A1.792,1.792,0,0,1,20.124-3.3a3.55,3.55,0,0,1,2.118-.548H23.3v-.5a1.217,1.217,0,0,0-.34-.905,1.366,1.366,0,0,0-1-.337,1.581,1.581,0,0,0-.973.293.863.863,0,0,0-.393.709H19.5a1.5,1.5,0,0,1,.337-.917,2.3,2.3,0,0,1,.914-.7,3.075,3.075,0,0,1,1.269-.258,2.506,2.506,0,0,1,1.717.548A1.976,1.976,0,0,1,24.381-4.4v2.918A3.567,3.567,0,0,0,24.6-.094V0Zm-1.8-.826a1.905,1.905,0,0,0,.967-.264,1.6,1.6,0,0,0,.662-.686v-1.3h-.85q-1.992,0-1.992,1.166a.987.987,0,0,0,.34.8A1.306,1.306,0,0,0,21.668-.826Z" transform="translate(-2958 -7447)" fill="#12263f"/>
    <path id="Trazado_148262" data-name="Trazado 148262" d="M-33.009-2.232h-3.574L-37.386,0h-1.16l3.258-8.531h.984L-31.04,0h-1.154Zm-3.234-.92h2.9L-34.8-7.143Zm5.918-.07a3.714,3.714,0,0,1,.691-2.347,2.186,2.186,0,0,1,1.811-.888A2.2,2.2,0,0,1-26.06-5.7V-9h1.084V0h-1l-.053-.68a2.208,2.208,0,0,1-1.811.8,2.165,2.165,0,0,1-1.8-.9,3.756,3.756,0,0,1-.694-2.355Zm1.084.123A2.812,2.812,0,0,0-28.8-1.412a1.44,1.44,0,0,0,1.23.609,1.581,1.581,0,0,0,1.506-.926V-4.641a1.593,1.593,0,0,0-1.494-.9,1.446,1.446,0,0,0-1.242.615A3.1,3.1,0,0,0-29.241-3.1Zm6.967-3.24.029.7a2.341,2.341,0,0,1,1.881-.82,1.813,1.813,0,0,1,1.811,1.02,2.4,2.4,0,0,1,.823-.738,2.431,2.431,0,0,1,1.2-.281q2.086,0,2.121,2.209V0H-15.5V-4.184A1.456,1.456,0,0,0-15.806-5.2a1.368,1.368,0,0,0-1.043-.337,1.437,1.437,0,0,0-1,.36,1.462,1.462,0,0,0-.463.97V0H-19.4V-4.154a1.209,1.209,0,0,0-1.354-1.383,1.45,1.45,0,0,0-1.459.908V0H-23.3V-6.34ZM-11.6,0h-1.084V-6.34H-11.6Zm-1.172-8.021a.647.647,0,0,1,.161-.445.6.6,0,0,1,.478-.182.614.614,0,0,1,.48.182.64.64,0,0,1,.164.445.619.619,0,0,1-.164.439.626.626,0,0,1-.48.176.616.616,0,0,1-.478-.176A.626.626,0,0,1-12.771-8.021ZM-8.839-6.34l.035.8a2.31,2.31,0,0,1,1.9-.914q2.01,0,2.027,2.268V0H-5.962V-4.2a1.459,1.459,0,0,0-.313-1.014,1.256,1.256,0,0,0-.958-.328,1.564,1.564,0,0,0-.926.281,1.91,1.91,0,0,0-.621.738V0H-9.864V-6.34ZM-2.065,0H-3.149V-6.34h1.084ZM-3.237-8.021a.647.647,0,0,1,.161-.445A.6.6,0,0,1-2.6-8.648a.614.614,0,0,1,.48.182.64.64,0,0,1,.164.445.619.619,0,0,1-.164.439.626.626,0,0,1-.48.176.616.616,0,0,1-.478-.176A.626.626,0,0,1-3.237-8.021Zm6.6,6.34a.8.8,0,0,0-.331-.683,3.187,3.187,0,0,0-1.154-.419A5.457,5.457,0,0,1,.568-3.205a1.859,1.859,0,0,1-.715-.586A1.4,1.4,0,0,1-.378-4.6,1.645,1.645,0,0,1,.281-5.918a2.574,2.574,0,0,1,1.685-.539A2.649,2.649,0,0,1,3.715-5.9a1.768,1.768,0,0,1,.671,1.424H3.3a.979.979,0,0,0-.378-.768,1.416,1.416,0,0,0-.952-.322,1.482,1.482,0,0,0-.926.258.812.812,0,0,0-.334.674.658.658,0,0,0,.311.592,3.821,3.821,0,0,0,1.122.381,5.847,5.847,0,0,1,1.315.434,1.919,1.919,0,0,1,.747.606,1.491,1.491,0,0,1,.243.864A1.623,1.623,0,0,1,3.765-.4,2.851,2.851,0,0,1,2,.117,3.193,3.193,0,0,1,.653-.152,2.192,2.192,0,0,1-.264-.905,1.815,1.815,0,0,1-.595-1.951H.489a1.122,1.122,0,0,0,.437.864A1.693,1.693,0,0,0,2-.768a1.748,1.748,0,0,0,.987-.249A.765.765,0,0,0,3.36-1.682ZM7.327-7.875V-6.34H8.511V-5.5H7.327v3.937a.88.88,0,0,0,.158.572A.666.666,0,0,0,8.024-.8a2.624,2.624,0,0,0,.516-.07V0a3.161,3.161,0,0,1-.832.116,1.35,1.35,0,0,1-1.1-.439A1.888,1.888,0,0,1,6.243-1.57V-5.5H5.089V-6.34H6.243V-7.875Zm5.514,2.508a3.248,3.248,0,0,0-.533-.041A1.428,1.428,0,0,0,10.86-4.5V0H9.776V-6.34h1.055l.018.732a1.688,1.688,0,0,1,1.512-.85,1.107,1.107,0,0,1,.48.082ZM17.517,0a2.277,2.277,0,0,1-.152-.668,2.419,2.419,0,0,1-1.8.785,2.238,2.238,0,0,1-1.538-.53,1.716,1.716,0,0,1-.6-1.345A1.792,1.792,0,0,1,14.174-3.3a3.55,3.55,0,0,1,2.118-.548h1.055v-.5a1.217,1.217,0,0,0-.34-.905,1.366,1.366,0,0,0-1-.337,1.581,1.581,0,0,0-.973.293.863.863,0,0,0-.393.709H13.55a1.5,1.5,0,0,1,.337-.917,2.3,2.3,0,0,1,.914-.7,3.075,3.075,0,0,1,1.269-.258,2.506,2.506,0,0,1,1.717.548A1.976,1.976,0,0,1,18.431-4.4v2.918a3.567,3.567,0,0,0,.223,1.389V0Zm-1.8-.826a1.905,1.905,0,0,0,.967-.264,1.6,1.6,0,0,0,.662-.686v-1.3H16.5Q14.5-3.076,14.5-1.91a.987.987,0,0,0,.34.8A1.306,1.306,0,0,0,15.718-.826ZM21.6-7.875V-6.34h1.184V-5.5H21.6v3.937a.88.88,0,0,0,.158.572A.666.666,0,0,0,22.3-.8a2.624,2.624,0,0,0,.516-.07V0a3.161,3.161,0,0,1-.832.116,1.35,1.35,0,0,1-1.1-.439,1.888,1.888,0,0,1-.369-1.248V-5.5H19.362V-6.34h1.154V-7.875ZM25.228,0H24.144V-6.34h1.084ZM24.056-8.021a.647.647,0,0,1,.161-.445.6.6,0,0,1,.478-.182.614.614,0,0,1,.48.182.64.64,0,0,1,.164.445.619.619,0,0,1-.164.439.626.626,0,0,1-.48.176.616.616,0,0,1-.478-.176A.626.626,0,0,1,24.056-8.021Zm5,6.551,1.57-4.869h1.107L29.458,0h-.826l-2.3-6.34h1.107ZM32.4-3.229A3.745,3.745,0,0,1,32.766-4.9a2.732,2.732,0,0,1,1.02-1.148,2.775,2.775,0,0,1,1.491-.4,2.674,2.674,0,0,1,2.095.9,3.449,3.449,0,0,1,.8,2.385V-3.1a3.777,3.777,0,0,1-.354,1.661A2.692,2.692,0,0,1,36.8-.293a2.807,2.807,0,0,1-1.515.41,2.667,2.667,0,0,1-2.089-.9,3.432,3.432,0,0,1-.8-2.373Zm1.09.129a2.712,2.712,0,0,0,.489,1.693,1.566,1.566,0,0,0,1.31.639A1.556,1.556,0,0,0,36.6-1.415a2.966,2.966,0,0,0,.486-1.813,2.708,2.708,0,0,0-.5-1.69,1.574,1.574,0,0,0-1.315-.647,1.557,1.557,0,0,0-1.295.639A2.944,2.944,0,0,0,33.489-3.1Z" transform="translate(-2795 -7447)" fill="#12263f"/>
    <path id="Trazado_148263" data-name="Trazado 148263" d="M-28.225-3.34V0H-29.35V-8.531H-26.2a3.161,3.161,0,0,1,2.194.715,2.423,2.423,0,0,1,.794,1.893,2.391,2.391,0,0,1-.776,1.913,3.3,3.3,0,0,1-2.224.671Zm0-.92H-26.2a2.021,2.021,0,0,0,1.383-.426,1.556,1.556,0,0,0,.48-1.23,1.608,1.608,0,0,0-.48-1.221,1.894,1.894,0,0,0-1.318-.475h-2.086Zm9.34-1.107a3.248,3.248,0,0,0-.533-.041,1.428,1.428,0,0,0-1.447.908V0h-1.084V-6.34h1.055l.018.732a1.688,1.688,0,0,1,1.512-.85,1.107,1.107,0,0,1,.48.082Zm.592,2.139A3.745,3.745,0,0,1-17.927-4.9a2.732,2.732,0,0,1,1.02-1.148,2.775,2.775,0,0,1,1.491-.4,2.674,2.674,0,0,1,2.095.9,3.449,3.449,0,0,1,.8,2.385V-3.1a3.777,3.777,0,0,1-.354,1.661A2.692,2.692,0,0,1-13.89-.293,2.807,2.807,0,0,1-15.4.117a2.667,2.667,0,0,1-2.089-.9,3.432,3.432,0,0,1-.8-2.373Zm1.09.129a2.712,2.712,0,0,0,.489,1.693,1.566,1.566,0,0,0,1.31.639,1.556,1.556,0,0,0,1.313-.647,2.966,2.966,0,0,0,.486-1.813,2.708,2.708,0,0,0-.5-1.69,1.574,1.574,0,0,0-1.315-.647,1.557,1.557,0,0,0-1.295.639A2.944,2.944,0,0,0-17.2-3.1Zm5.777-.123a3.714,3.714,0,0,1,.691-2.347,2.186,2.186,0,0,1,1.811-.888A2.2,2.2,0,0,1-7.16-5.7V-9h1.084V0h-1l-.053-.68a2.208,2.208,0,0,1-1.811.8,2.165,2.165,0,0,1-1.8-.9,3.756,3.756,0,0,1-.694-2.355Zm1.084.123A2.812,2.812,0,0,0-9.9-1.412,1.44,1.44,0,0,0-8.666-.8,1.581,1.581,0,0,0-7.16-1.729V-4.641a1.593,1.593,0,0,0-1.494-.9A1.446,1.446,0,0,0-9.9-4.922,3.1,3.1,0,0,0-10.342-3.1ZM-.48-.627A2.3,2.3,0,0,1-2.338.117,1.971,1.971,0,0,1-3.882-.472a2.549,2.549,0,0,1-.536-1.743V-6.34h1.084v4.1Q-3.334-.8-2.162-.8A1.623,1.623,0,0,0-.51-1.729V-6.34H.574V0H-.457ZM4.764-.768a1.561,1.561,0,0,0,1.014-.352A1.237,1.237,0,0,0,6.258-2H7.283A1.966,1.966,0,0,1,6.908-.961a2.47,2.47,0,0,1-.923.785A2.663,2.663,0,0,1,4.764.117,2.612,2.612,0,0,1,2.7-.747a3.442,3.442,0,0,1-.765-2.364v-.182a3.817,3.817,0,0,1,.34-1.646,2.588,2.588,0,0,1,.976-1.119,2.771,2.771,0,0,1,1.5-.4,2.543,2.543,0,0,1,1.772.639A2.283,2.283,0,0,1,7.283-4.16H6.258a1.494,1.494,0,0,0-.466-1.011,1.449,1.449,0,0,0-1.034-.4,1.517,1.517,0,0,0-1.28.595,2.793,2.793,0,0,0-.454,1.72v.205a2.737,2.737,0,0,0,.451,1.688A1.524,1.524,0,0,0,4.764-.768Zm6.281,0a1.561,1.561,0,0,0,1.014-.352A1.237,1.237,0,0,0,12.539-2h1.025a1.966,1.966,0,0,1-.375,1.037,2.47,2.47,0,0,1-.923.785,2.663,2.663,0,0,1-1.222.293,2.612,2.612,0,0,1-2.06-.864,3.442,3.442,0,0,1-.765-2.364v-.182a3.817,3.817,0,0,1,.34-1.646,2.588,2.588,0,0,1,.976-1.119,2.771,2.771,0,0,1,1.5-.4,2.543,2.543,0,0,1,1.772.639,2.283,2.283,0,0,1,.753,1.658H12.539a1.494,1.494,0,0,0-.466-1.011,1.449,1.449,0,0,0-1.034-.4,1.517,1.517,0,0,0-1.28.595A2.793,2.793,0,0,0,9.3-3.252v.205a2.737,2.737,0,0,0,.451,1.688A1.524,1.524,0,0,0,11.045-.768ZM15.961,0H14.877V-6.34h1.084ZM14.789-8.021a.647.647,0,0,1,.161-.445.6.6,0,0,1,.478-.182.614.614,0,0,1,.48.182.64.64,0,0,1,.164.445.619.619,0,0,1-.164.439.626.626,0,0,1-.48.176.616.616,0,0,1-.478-.176A.626.626,0,0,1,14.789-8.021Zm2.619,4.793A3.745,3.745,0,0,1,17.774-4.9a2.732,2.732,0,0,1,1.02-1.148,2.775,2.775,0,0,1,1.491-.4,2.674,2.674,0,0,1,2.095.9,3.449,3.449,0,0,1,.8,2.385V-3.1a3.777,3.777,0,0,1-.354,1.661A2.692,2.692,0,0,1,21.812-.293,2.807,2.807,0,0,1,20.3.117a2.667,2.667,0,0,1-2.089-.9,3.432,3.432,0,0,1-.8-2.373ZM18.5-3.1a2.712,2.712,0,0,0,.489,1.693,1.566,1.566,0,0,0,1.31.639,1.556,1.556,0,0,0,1.313-.647A2.966,2.966,0,0,0,22.1-3.229a2.708,2.708,0,0,0-.5-1.69,1.574,1.574,0,0,0-1.315-.647,1.557,1.557,0,0,0-1.295.639A2.944,2.944,0,0,0,18.5-3.1ZM20.777-9H22.09L20.52-7.277l-.873,0Zm4.787,2.66.035.8a2.31,2.31,0,0,1,1.9-.914q2.01,0,2.027,2.268V0H28.441V-4.2a1.459,1.459,0,0,0-.313-1.014,1.256,1.256,0,0,0-.958-.328,1.564,1.564,0,0,0-.926.281,1.91,1.91,0,0,0-.621.738V0H24.539V-6.34Z" transform="translate(-2670 -7447)" fill="#12263f"/>
  </g>
</svg>
