<svg xmlns="http://www.w3.org/2000/svg" width="128" height="128" viewBox="0 0 128 128">
  <g id="Grupo_76124" data-name="Grupo 76124" transform="translate(-6340 6332)">
    <path id="Trazado_148226" data-name="Trazado 148226" d="M64,0A64,64,0,1,1,0,64,64,64,0,0,1,64,0Z" transform="translate(6340 -6332)" fill="#fff"/>
    <path id="Trazado_148215" data-name="Trazado 148215" d="M103.989,505.873a33.19,33.19,0,0,0,1,8.513c1.487,6.035,5.1,14.29,6.368,17.094a4.567,4.567,0,0,0-.85,2.6,4.641,4.641,0,0,0,1.2,3.135,4.618,4.618,0,0,0-1.2,3.031,4.687,4.687,0,0,0,1.483,3.44,4.6,4.6,0,0,0-1.074,2.909,5.091,5.091,0,0,0,5.2,4.922l18.806.246H135a5.463,5.463,0,0,0,3.8-1.509,4.607,4.607,0,0,0-.054-6.726,4.589,4.589,0,0,0,1.074-2.909,4.652,4.652,0,0,0-1.19-3.136,4.576,4.576,0,0,0,.01-6.147c1.319-2.933,4.84-11.016,6.3-16.958a33.1,33.1,0,0,0,1-8.506,20.979,20.979,0,0,0-41.957,0Zm32.6,42.108a2.161,2.161,0,0,1-1.619.606l-18.808-.246a1.928,1.928,0,0,1-2.069-1.714,1.748,1.748,0,0,1,1.424-1.57,1.589,1.589,0,0,0-.148-3.1,1.86,1.86,0,0,1-1.685-1.675,1.741,1.741,0,0,1,1.334-1.543,1.588,1.588,0,0,0,.012-3.028,1.768,1.768,0,0,1-1.346-1.6,1.376,1.376,0,0,1,.239-.747h22.263a1.5,1.5,0,0,1,.467,1.059,1.736,1.736,0,0,1-1.329,1.538,1.587,1.587,0,0,0-.017,3.028,1.765,1.765,0,0,1,1.346,1.6,1.74,1.74,0,0,1-1.419,1.568,1.589,1.589,0,0,0,.148,3.1,1.861,1.861,0,0,1,1.68,1.677A1.473,1.473,0,0,1,136.588,547.981Zm-11.619-59.909a17.822,17.822,0,0,1,17.8,17.8,30.205,30.205,0,0,1-.91,7.756c-1.4,5.716-4.964,13.849-6.183,16.559H114.26c-1.222-2.709-4.776-10.838-6.183-16.552a30.186,30.186,0,0,1-.91-7.763A17.821,17.821,0,0,1,124.969,488.072Z" transform="translate(6280.167 -6781.816)" fill="#7e5ee3"/>
    <path id="Trazado_148216" data-name="Trazado 148216" d="M105.526,478.905a1.85,1.85,0,1,0-2.907,2.291l9.465,12.021a1.866,1.866,0,0,0,1.458.706h.063a1.855,1.855,0,0,0,1.078-.4,1.853,1.853,0,0,0,.312-2.6Zm8.177,13.372a.261.261,0,0,1-.156.058.245.245,0,0,1-.214-.1l-9.47-12.024a.263.263,0,0,1-.054-.192.268.268,0,0,1,.1-.175.258.258,0,0,1,.161-.056h.032a.267.267,0,0,1,.178.1l9.467,12.024a.264.264,0,0,1-.044.368Z" transform="translate(6277.632 -6791.428)" fill="#7e5ee3"/>
    <path id="Trazado_148217" data-name="Trazado 148217" d="M118.155,493.393h0a1.828,1.828,0,0,0,1.022.309h.063a1.861,1.861,0,0,0,1.48-.825l7.81-11.746a1.852,1.852,0,0,0-3.084-2.05l-7.807,11.744a1.851,1.851,0,0,0,.514,2.568Zm.808-1.687,7.807-11.749a.262.262,0,0,1,.168-.109.249.249,0,0,1,.195.036.254.254,0,0,1,.114.17.25.25,0,0,1-.037.2L119.4,492a.264.264,0,0,1-.212.117.272.272,0,0,1-.153-.044.258.258,0,0,1-.112-.168A.261.261,0,0,1,118.964,491.706Z" transform="translate(6299.304 -6791.346)" fill="#7e5ee3"/>
    <path id="Trazado_148218" data-name="Trazado 148218" d="M113.494,494.72h.139a1.859,1.859,0,0,0,1.789-1.772l.657-15.6a1.855,1.855,0,0,0-1.77-1.928,1.872,1.872,0,0,0-1.329.482,1.834,1.834,0,0,0-.6,1.29l-.657,15.6a1.847,1.847,0,0,0,1.772,1.928Zm-.185-1.86.657-15.6a.249.249,0,0,1,.085-.185.268.268,0,0,1,.187-.068.257.257,0,0,1,.185.088.251.251,0,0,1,.068.188l-.657,15.6a.267.267,0,0,1-.263.253h-.012a.263.263,0,0,1-.183-.085A.251.251,0,0,1,113.309,492.86Z" transform="translate(6291.257 -6795.417)" fill="#7e5ee3"/>
    <path id="Trazado_148219" data-name="Trazado 148219" d="M108.947,498.844h0a1.752,1.752,0,0,0,1.853-1.621,7.3,7.3,0,0,1,.209-1.334,6.154,6.154,0,0,1,4.883-4.443,8.2,8.2,0,0,1,1.553-.231,1.742,1.742,0,0,0-.075-3.484c-3.267.071-9.57,2.094-10.047,9.261A1.741,1.741,0,0,0,108.947,498.844Z" transform="translate(6284.944 -6777.752)" fill="#7e5ee3"/>
  </g>
</svg>
