<svg xmlns="http://www.w3.org/2000/svg" width="556.026" height="671.262" viewBox="0 0 556.026 671.262">
  <g id="Grupo_76078" data-name="Grupo 76078" transform="translate(678.949 -47.115)">
    <g id="freepik--character-3--inject-7" transform="translate(-321.359 103.273)">
      <path id="Trazado_146143" data-name="Trazado 146143" d="M-397.266,456.795l.91,31.4s-31.594,11.461-32,17.268l60.93.424.591-48.953Z" transform="translate(450.676 108.143)" fill="#455a64"/>
      <path id="Trazado_146144" data-name="Trazado 146144" d="M-412.13,479.045c0,.288,1.213.8,2.213,2.062s1.289,2.608,1.592,2.592.5-1.7-.788-3.244S-412.115,478.757-412.13,479.045Z" transform="translate(459.052 119.564)" fill="#263238"/>
      <path id="Trazado_146145" data-name="Trazado 146145" d="M-413.782,485.78c.273,0,.7-1.425,0-3.032s-2.153-2.289-2.274-2.047.728,1.137,1.319,2.486S-414.07,485.75-413.782,485.78Z" transform="translate(457.02 120.455)" fill="#263238"/>
      <path id="Trazado_146146" data-name="Trazado 146146" d="M-327.3,456.8l6.383,31.367s31.594,11.461,31.989,17.268l-60.915.424-7.414-48.923Z" transform="translate(487.367 108.148)" fill="#455a64"/>
      <path id="Trazado_146147" data-name="Trazado 146147" d="M-327.1,479.035c.076.288-1.213.8-2.213,2.062s-1.289,2.608-1.516,2.592-.5-1.7.773-3.244S-327.1,478.747-327.1,479.035Z" transform="translate(500.905 119.559)" fill="#263238"/>
      <path id="Trazado_146148" data-name="Trazado 146148" d="M-325.881,485.77c-.273,0-.7-1.425,0-3.032s2.138-2.289,2.259-2.047-.728,1.137-1.319,2.486S-325.577,485.74-325.881,485.77Z" transform="translate(503.365 120.45)" fill="#263238"/>
      <path id="Trazado_146149" data-name="Trazado 146149" d="M-322.666,260.126l46.058,330.454L-321.3,589.7l-50.2-281.227L-359.84,591.02l-48.938-3L-425.97,258.125Z" transform="translate(451.91 5.619)" fill="#00bcd4"/>
      <g id="Grupo_74187" data-name="Grupo 74187" transform="translate(27.046 284.908)" opacity="0.3">
        <path id="Trazado_146150" data-name="Trazado 146150" d="M-425.058,276.876l-.182-4.791,105.32,3.275,1.092,9.172Z" transform="translate(425.24 -272.085)"/>
      </g>
      <path id="Trazado_146151" data-name="Trazado 146151" d="M-398.106,576.615c-.227,0-3.472-65.751-7.262-146.875s-6.671-146.905-6.458-146.905,3.457,65.736,7.247,146.875S-397.894,576.615-398.106,576.615Z" transform="translate(459.203 18.371)" fill="#263238"/>
      <path id="Trazado_146152" data-name="Trazado 146152" d="M-325.346,573a2.918,2.918,0,0,0-.152-.743c-.152-.5-.2-1.243-.349-2.183-.288-1.956-.713-4.791-1.258-8.429-1.092-7.338-2.653-17.92-4.548-30.973-3.911-26.167-9.46-62.279-16.04-102.091s-12.947-75.8-17.662-101.833c-2.38-12.977-4.29-23.5-5.625-30.806-.652-3.623-1.167-6.428-1.516-8.384-.167-.94-.288-1.668-.379-2.183s-.106-.758-.106-.758.076.258.182.743l.455,2.168c.394,1.941.955,4.745,1.668,8.353,1.425,7.247,3.441,17.768,5.867,30.761,4.867,26,11.31,61.976,17.889,101.818s12.053,75.939,15.812,102.121c1.88,13.1,3.366,23.7,4.336,31.034.485,3.639.864,6.474,1.122,8.444.106.94.2,1.668.273,2.2A2.438,2.438,0,0,1-325.346,573Z" transform="translate(479.255 19.289)" fill="#263238"/>
      <path id="Trazado_146153" data-name="Trazado 146153" d="M-419.248,231.819s-23.074-5.5-23.832-6.474l18.966-48.862A35.643,35.643,0,0,1-401.98,154.91a62.471,62.471,0,0,1,22.407-3.457l32.034-1.7a63.283,63.283,0,0,1,25.257,6.989A50.867,50.867,0,0,1-298.555,182.9l14.372,35.885-36.234,7.58-1.38,38.553,16.57,73.877-115.629-3.775,5.17-101.227h0Z" transform="translate(443.08 -50.305)" fill="#00bcd4"/>
      <g id="Grupo_74188" data-name="Grupo 74188" transform="translate(3.911 168.653)" opacity="0.3">
        <path id="Trazado_146154" data-name="Trazado 146154" d="M-440.5,195.407c0,.106,5.943,2.062,13.372,4.366s13.447,4.063,13.478,3.957-5.943-2.062-13.356-4.351S-440.5,195.3-440.5,195.407Z" transform="translate(440.5 -195.402)" fill="#fff"/>
      </g>
      <path id="Trazado_146155" data-name="Trazado 146155" d="M-371.44,178.282a4.8,4.8,0,0,0,.622-.849c.364-.546.925-1.334,1.653-2.289a38.837,38.837,0,0,1,2.714-3.169,40.332,40.332,0,0,1,3.76-3.472,39.851,39.851,0,0,1,7.853-4.927c1.076-.515,1.971-.894,2.592-1.137a4.8,4.8,0,0,0,.955-.424,5.236,5.236,0,0,0-1.016.273c-.637.2-1.516.546-2.653,1.016a36.106,36.106,0,0,0-11.765,8.4,35.426,35.426,0,0,0-2.683,3.35,23.757,23.757,0,0,0-1.516,2.38A4.614,4.614,0,0,0-371.44,178.282Z" transform="translate(480.05 -43.978)" fill="#263238"/>
      <path id="Trazado_146156" data-name="Trazado 146156" d="M-368.317,180.435c-.121,0,1,11.78,2.486,26.288s2.789,26.258,2.911,26.243-1-11.78-2.5-26.288S-368.211,180.42-368.317,180.435Z" transform="translate(481.657 -34.473)" fill="#263238"/>
      <path id="Trazado_146157" data-name="Trazado 146157" d="M-420.271,171.346a16.766,16.766,0,0,0,.515-2.38,45.983,45.983,0,0,1,1.592-5.655,43.577,43.577,0,0,1,2.365-5.367c.7-1.334,1.167-2.138,1.122-2.168s-.167.167-.409.515-.576.864-.97,1.516a33.777,33.777,0,0,0-2.486,5.367,31.454,31.454,0,0,0-1.516,5.731c-.121.758-.2,1.364-.227,1.789A3.025,3.025,0,0,0-420.271,171.346Z" transform="translate(454.837 -47.2)" fill="#263238"/>
      <path id="Trazado_146158" data-name="Trazado 146158" d="M-421.593,203.315a6.889,6.889,0,0,0,.2-1.152c.106-.758.212-1.834.349-3.184.258-2.683.531-6.4.682-10.506s.136-7.838,0-10.537c0-1.349-.076-2.441-.121-3.184a5.486,5.486,0,0,0-.121-1.167,5.775,5.775,0,0,0,0,1.167v3.184c0,2.7,0,6.413-.182,10.521s-.379,7.823-.561,10.506l-.227,3.184A6.253,6.253,0,0,0-421.593,203.315Z" transform="translate(454.158 -38.008)" fill="#263238"/>
      <path id="Trazado_146159" data-name="Trazado 146159" d="M-389.65,188.775a164.894,164.894,0,0,0,25.227-.47v3.275H-389.65Z" transform="translate(470.653 -30.411)" fill="#fff"/>
      <g id="Grupo_74189" data-name="Grupo 74189" transform="translate(54.199 102.588)" opacity="0.3">
        <path id="Trazado_146160" data-name="Trazado 146160" d="M-405.617,153.144a2.694,2.694,0,0,0-.106.5c0,.364-.121.849-.212,1.516-.167,1.273-.379,3.138-.561,5.518-.379,4.73-.713,11.461-.834,19.421v.3l.273-.136c5.033-2.441,10.612-5.109,16.54-8.05l28.669-14.342,8.672-4.4,2.35-1.213.606-.318.2-.121-.227.091-.622.288-2.38,1.137-8.717,4.23L-390.7,171.807c-5.867,2.941-11.492,5.609-16.51,8.081l.258.167c.091-7.944.364-14.675.682-19.405.136-2.365.334-4.245.455-5.518a14.934,14.934,0,0,1,.152-1.516A4.063,4.063,0,0,0-405.617,153.144Z" transform="translate(407.33 -151.825)" fill="#fff"/>
      </g>
      <g id="Grupo_74190" data-name="Grupo 74190" transform="translate(116.099 162.32)" opacity="0.3">
        <path id="Trazado_146161" data-name="Trazado 146161" d="M-366.5,200.913a1.682,1.682,0,0,0,.409,0l1.182-.288,4.306-1.092c3.638-.925,8.672-2.213,14.251-3.548s10.612-2.517,14.281-3.35l4.336-1,1.182-.288c.258,0,.409-.106.394-.121h-.409l-1.2.212-4.366.864c-3.684.758-8.748,1.88-14.327,3.229s-10.612,2.668-14.221,3.684l-4.275,1.213-1.152.364A.925.925,0,0,1-366.5,200.913Z" transform="translate(366.5 -191.225)" fill="#fff"/>
      </g>
      <path id="Trazado_146162" data-name="Trazado 146162" d="M-399.811,148.765a10.611,10.611,0,0,0-4.26,4.109,38.734,38.734,0,0,0-5.064,13.387,54.461,54.461,0,0,0-.925,7.838v3.457c0,1.092.076,2.077.167,3.032s.182,1.728.273,2.456.212,1.334.3,1.85a5.456,5.456,0,0,0,.379,1.516,6.658,6.658,0,0,0,0-1.592l-.273-1.865c0-.728-.091-1.516-.152-2.441s0-1.91,0-3.032,0-2.2.091-3.4a60.26,60.26,0,0,1,.97-7.732,42.294,42.294,0,0,1,4.745-13.22,18.015,18.015,0,0,1,2.638-3.335A14.343,14.343,0,0,0-399.811,148.765Z" transform="translate(460.12 -50.816)" fill="#263238"/>
      <path id="Trazado_146163" data-name="Trazado 146163" d="M-379.66,148.915a19.2,19.2,0,0,0,1.668,2.4,32.4,32.4,0,0,1,3.714,6.928,47.461,47.461,0,0,1,2.759,11.325c.576,4.381.819,9.263,1.137,14.372s.273,9.991.288,14.433v11.825c0,3.366.091,6.064.2,7.974a11.9,11.9,0,0,0,.288,2.911,13.7,13.7,0,0,0,.182-2.926c0-1.91.121-4.624.212-7.959s.2-7.368.258-11.81.076-9.354-.2-14.509-.591-10.021-1.243-14.463a44.8,44.8,0,0,0-3.032-11.507,29.04,29.04,0,0,0-4.124-6.883A10.36,10.36,0,0,0-379.66,148.915Z" transform="translate(475.808 -50.739)" fill="#263238"/>
      <path id="Trazado_146164" data-name="Trazado 146164" d="M-414.473,202.314a14.3,14.3,0,0,0,.167-2.608c0-1.683.076-4.108.106-7.1V187.7c0-1.759,0-3.654.106-5.594a9.261,9.261,0,0,1,2.016-5.5,7.582,7.582,0,0,1,5.549-2.623,8.689,8.689,0,0,1,5.822,2.244,10.039,10.039,0,0,1,2.926,5.124c.485,1.865.7,3.76.985,5.488s.531,3.366.773,4.851c.47,3.032.879,5.352,1.167,7a13.655,13.655,0,0,0,.546,2.547,17.889,17.889,0,0,0-.227-2.592c-.2-1.668-.515-4.078-.91-7.05-.212-1.516-.424-3.032-.667-4.851a49.953,49.953,0,0,0-.925-5.594,10.682,10.682,0,0,0-3.138-5.518,9.461,9.461,0,0,0-6.352-2.486,8.355,8.355,0,0,0-6.155,2.926,10.007,10.007,0,0,0-2.168,5.973c-.121,2.031,0,3.9,0,5.655v4.912c0,3.032.091,5.412.152,7.1A17.9,17.9,0,0,0-414.473,202.314Z" transform="translate(457.619 -38.235)" fill="#263238"/>
      <path id="Trazado_146165" data-name="Trazado 146165" d="M-408.9,168.615a13.369,13.369,0,0,0,3.032,7.868,11.12,11.12,0,0,0-5.094.091,17.279,17.279,0,0,0,1.349-7.959" transform="translate(459.656 -40.572)" fill="#263238"/>
      <path id="Trazado_146166" data-name="Trazado 146166" d="M-414.633,183.36a25.989,25.989,0,0,1,1.258-3.123,9.543,9.543,0,0,1,2.289-2.668,8.444,8.444,0,0,1,3.881-1.85,8.332,8.332,0,0,1,4.275.424,9.379,9.379,0,0,1,3.032,1.85,25.135,25.135,0,0,1,2.168,2.577,5.663,5.663,0,0,0-1.774-3.032,9.1,9.1,0,0,0-3.169-2.122,8.568,8.568,0,0,0-4.685-.531,8.692,8.692,0,0,0-4.23,2.077,9.36,9.36,0,0,0-2.32,3.032A5.907,5.907,0,0,0-414.633,183.36Z" transform="translate(457.75 -37.398)" fill="#263238"/>
      <path id="Trazado_146167" data-name="Trazado 146167" d="M-423.651,259.1c-4.7,0-8.884-3.381-11.1-7.58a31.847,31.847,0,0,1-3.032-13.644,110.388,110.388,0,0,1,4.548-36.825l20.573,3.593-5.594,55.412Z" transform="translate(445.755 -23.832)" fill="#ffbe9d"/>
      <path id="Trazado_146168" data-name="Trazado 146168" d="M-345.329,271.447l-66.994-2.441-16.237-78.5L-358,194.432Z" transform="translate(450.573 -29.276)" fill="#263238"/>
      <path id="Trazado_146169" data-name="Trazado 146169" d="M-387.488,194.349l-1.016-2-5.352-.409s-1.349-3.517-8.99-3.866c-6.853-.318-7.125,3.123-7.125,3.123h-3.7v1.683Z" transform="translate(458.257 -30.542)" fill="#455a64"/>
      <path id="Trazado_146170" data-name="Trazado 146170" d="M-415.259,227.816l-5.079-1.516a6.229,6.229,0,0,0-2.941-.136h0a6.256,6.256,0,0,0-3.153,1.668,41.06,41.06,0,0,0-4.776,5.215,4.945,4.945,0,0,0,0,4c.561.773-1.243,4.669-1.016,5.973a8.06,8.06,0,0,0,1.016,3.153c.455.546,0,2.4,1.137,3.805a18.5,18.5,0,0,0,2.153,2.274s13.948.652,15.312,0a20.035,20.035,0,0,0,3.745-3.153s1.243-2.274-.682-2.486l7.929-3.032a1.864,1.864,0,0,0,1.155-2.371l0-.009a1.337,1.337,0,0,0-.7-.773s3.563-1.122,4.4-1.516c1.637-.728,2.259-4.548-1.137-4.063-1.8.258-4.245.773-4.245.773a2.5,2.5,0,0,0-.515-3.366c-1.107-.773-6.064.167-6.064.167l-6.534-4.654Z" transform="translate(448.672 -10.933)" fill="#ffbe9d"/>
      <path id="Trazado_146171" data-name="Trazado 146171" d="M-422.21,241.808a11.33,11.33,0,0,0,4.109-.606,10.5,10.5,0,0,0,3.805-1.713c0-.106-1.713.713-3.911,1.319S-422.225,241.7-422.21,241.808Z" transform="translate(453.85 -4.003)" fill="#eb996e"/>
      <path id="Trazado_146172" data-name="Trazado 146172" d="M-420.21,238.86a50.254,50.254,0,0,0,6.474-1.44,53.049,53.049,0,0,0,6.383-1.834,53.339,53.339,0,0,0-6.474,1.44A57.629,57.629,0,0,0-420.21,238.86Z" transform="translate(454.882 -6.013)" fill="#eb996e"/>
      <path id="Trazado_146173" data-name="Trazado 146173" d="M-421.3,235.6a63.44,63.44,0,0,0,6.974-1.425,60.185,60.185,0,0,0,6.883-1.819,63.524,63.524,0,0,0-6.974,1.425A64.576,64.576,0,0,0-421.3,235.6Z" transform="translate(454.32 -7.679)" fill="#eb996e"/>
      <path id="Trazado_146174" data-name="Trazado 146174" d="M-424.7,230.3a8.394,8.394,0,0,0,1.789.561l1.971.515,1.167.288a4.342,4.342,0,0,0,1.334.121,5.984,5.984,0,0,0,1.319-.212l1.167-.258,1.971-.485a9.121,9.121,0,0,0,1.8-.531,7.99,7.99,0,0,0-1.865.258l-2,.379a19.372,19.372,0,0,1-2.411.44,8.841,8.841,0,0,1-2.4-.364l-1.986-.424A8.254,8.254,0,0,0-424.7,230.3Z" transform="translate(452.565 -8.737)" fill="#eb996e"/>
      <path id="Trazado_146175" data-name="Trazado 146175" d="M-425.113,232.065a1.153,1.153,0,0,0-.394.515,2.339,2.339,0,0,0,0,1.516,2.293,2.293,0,0,0,.925,1.243c.349.227.606.258.622.212a3.622,3.622,0,0,1-1.152-1.516A4.526,4.526,0,0,1-425.113,232.065Z" transform="translate(452.083 -7.829)" fill="#eb996e"/>
      <path id="Trazado_146176" data-name="Trazado 146176" d="M-424.975,235.615c-.106,0-.409.5-.364,1.273s.409,1.289.5,1.228,0-.576-.091-1.258S-424.868,235.615-424.975,235.615Z" transform="translate(452.233 -5.997)" fill="#eb996e"/>
      <path id="Trazado_146177" data-name="Trazado 146177" d="M-425.065,239.485c-.106,0-.318.334-.227.834s.44.758.531.682,0-.379-.121-.773S-424.959,239.515-425.065,239.485Z" transform="translate(452.248 -4)" fill="#eb996e"/>
      <path id="Trazado_146178" data-name="Trazado 146178" d="M-426.16,230.335a5.288,5.288,0,0,0,1.349,0l1.425-.182a5.332,5.332,0,0,1,1.713-.091,4.154,4.154,0,0,1,1.516.682c.44.3.819.622,1.183.834a2.106,2.106,0,0,0,1.289.44,5.471,5.471,0,0,1-1.122-.682,7.051,7.051,0,0,0-2.8-1.683,5.184,5.184,0,0,0-.97,0,4.733,4.733,0,0,0-.849.136l-1.425.273A4.137,4.137,0,0,0-426.16,230.335Z" transform="translate(451.812 -9.086)" fill="#eb996e"/>
      <path id="Trazado_146179" data-name="Trazado 146179" d="M-431.1,246.485a6.524,6.524,0,0,0-.364-1,7.913,7.913,0,0,1-.561-2.774,8.487,8.487,0,0,1,.3-1.941c.167-.7.485-1.38.652-2.213a6.715,6.715,0,0,0-.167-2.577,4.539,4.539,0,0,1,.455-2.532,11.878,11.878,0,0,1,1.516-2.244c.546-.7,1.076-1.364,1.607-1.956a9.121,9.121,0,0,1,3.29-2.577,5.361,5.361,0,0,1,2.774-.424c.667.091,1.016.273,1.031.227s-.076,0-.243-.136a3.159,3.159,0,0,0-.758-.243,5.167,5.167,0,0,0-2.911.3,9.369,9.369,0,0,0-3.472,2.592c-.546.606-1.092,1.273-1.637,1.956a12.133,12.133,0,0,0-1.516,2.335,4.725,4.725,0,0,0-.485,2.744,7.362,7.362,0,0,1,.2,2.456c-.152.758-.47,1.516-.622,2.213a8,8,0,0,0-.258,2.016,7.194,7.194,0,0,0,.713,2.835A3.155,3.155,0,0,0-431.1,246.485Z" transform="translate(448.658 -10.955)" fill="#eb996e"/>
      <path id="Trazado_146180" data-name="Trazado 146180" d="M-398.193,222.714l55,8.732-2.441-28.7,30.594-5.913,3.714,42.449.652,9.748a19.041,19.041,0,0,1-7.99,16.768h0a18.98,18.98,0,0,1-16.889,2.562l-11.81-3.851-57.61-20.5" transform="translate(462.747 -26.01)" fill="#ffbe9d"/>
      <path id="Trazado_146181" data-name="Trazado 146181" d="M-420.1,210.635a1.516,1.516,0,0,1,1.145-1.813,1.529,1.529,0,0,1,.371-.036c3.032,0,11.477,0,14.433.879,3.654,1.031,17.283,6.883,17.283,6.883l-5.776,21.331-20.921.227s-7.58-3.517-7.732-5.033a25.943,25.943,0,0,1,.2-2.85l-2.3-1.243c-3.441-2.183-1.243-6.352-1.243-6.352a5.1,5.1,0,0,1-2.486-3.729,3.744,3.744,0,0,1,1.85-3.532s-.955-3.366.8-4.275,4.745.258,4.745.258A1.217,1.217,0,0,1-420.1,210.635Z" transform="translate(451.302 -19.843)" fill="#ffbe9d"/>
      <path id="Trazado_146182" data-name="Trazado 146182" d="M-423.29,210.239a2.668,2.668,0,0,0,.652.212c.424.121,1.031.258,1.8.394,1.516.273,3.684.5,6.064.758a51.589,51.589,0,0,1,5.973.91c1.516.349,2.35.819,2.38.758s-.2-.152-.576-.364a8.957,8.957,0,0,0-1.728-.667,36.189,36.189,0,0,0-6.064-1.046c-2.365-.258-4.548-.44-6.064-.637S-423.26,210.178-423.29,210.239Z" transform="translate(453.293 -19.098)" fill="#eb996e"/>
      <path id="Trazado_146183" data-name="Trazado 146183" d="M-425.88,213.045a4.874,4.874,0,0,0,1.516.758,23.711,23.711,0,0,0,3.805,1.107c1.516.318,2.911.515,3.911.652a6.593,6.593,0,0,0,1.637.121,52.779,52.779,0,0,0-5.458-1.167c-1.516-.318-2.85-.682-3.805-.985A9.715,9.715,0,0,0-425.88,213.045Z" transform="translate(451.956 -17.644)" fill="#eb996e"/>
      <path id="Trazado_146184" data-name="Trazado 146184" d="M-425.5,217.939a16.23,16.23,0,0,0,4.548,1.516,15.915,15.915,0,0,0,4.7.561c0-.121-2.092-.379-4.548-.955S-425.5,217.833-425.5,217.939Z" transform="translate(452.152 -15.125)" fill="#eb996e"/>
      <path id="Trazado_146185" data-name="Trazado 146185" d="M-424.64,222.11a10.318,10.318,0,0,0,3.426,1.273,10.7,10.7,0,0,0,3.639.44,35.743,35.743,0,0,0-3.532-.849C-423.063,222.519-424.61,222-424.64,222.11Z" transform="translate(452.596 -12.974)" fill="#eb996e"/>
      <path id="Trazado_146186" data-name="Trazado 146186" d="M-417.45,220.379a1.23,1.23,0,0,0,.637.227,2.4,2.4,0,0,0,2.517-1.789,1.2,1.2,0,0,0,0-.682,4.225,4.225,0,0,1-1.167,1.7A4.386,4.386,0,0,1-417.45,220.379Z" transform="translate(456.306 -15.018)" fill="#eb996e"/>
      <path id="Trazado_146187" data-name="Trazado 146187" d="M-417.16,224.656c0,.106.819.152,1.516-.485s.773-1.516.652-1.516-.318.637-.925,1.167S-417.175,224.535-417.16,224.656Z" transform="translate(456.456 -12.685)" fill="#eb996e"/>
      <path id="Trazado_146188" data-name="Trazado 146188" d="M-415.56,215.492c0,.106.531.3,1.061-.106s.515-1.016.409-1-.258.379-.652.667S-415.469,215.386-415.56,215.492Z" transform="translate(457.282 -16.953)" fill="#eb996e"/>
      <path id="Trazado_146189" data-name="Trazado 146189" d="M-386.711,216.59l-.167-.091-.5-.227-1.941-.864c-1.683-.728-4.169-1.8-7.292-3.032-1.516-.637-3.275-1.334-5.17-2.032a18.769,18.769,0,0,0-3.032-.94,32.6,32.6,0,0,0-3.32-.409c-2.289-.182-4.715-.258-7.247-.288h-2.88a2,2,0,0,0-1.046.212,1.668,1.668,0,0,0-.894,1.9.546.546,0,0,0,.243.273l.243.152.47.212a6.919,6.919,0,0,0,.985.349.183.183,0,0,0,.235-.106l.008-.03a.2.2,0,0,0-.136-.243,21,21,0,0,0-2.608-.591,9.843,9.843,0,0,0-2.759-.091,2.511,2.511,0,0,0-1.349.591,2.389,2.389,0,0,0-.667,1.319,6.823,6.823,0,0,0,.182,2.881l.106-.243a3.982,3.982,0,0,0-1.167,1.031,4.065,4.065,0,0,0-.591,3.729,5.415,5.415,0,0,0,2.4,2.85l-.091-.273a6.641,6.641,0,0,0-.652,3.654,4.169,4.169,0,0,0,1.971,3.032h0l2.3,1.228-.106-.2c0,.561-.106,1.107-.152,1.652v.819a3.693,3.693,0,0,0,0,.409,1.028,1.028,0,0,0,.167.455,4.928,4.928,0,0,0,1.182,1.137c.44.318.864.591,1.3.864a52.079,52.079,0,0,0,5.2,2.714h.076l15.161-.227,4.2-.091h1.486a1.76,1.76,0,0,0-.379,0h-5.321l-15.16.091h0c-1.668-.8-3.411-1.683-5.139-2.729-.44-.273-.864-.546-1.273-.849a4.8,4.8,0,0,1-1.092-1.046.772.772,0,0,1-.106-.273,3.452,3.452,0,0,1,0-.394v-.788a14.945,14.945,0,0,1,.152-1.637.168.168,0,0,0-.091-.182l-2.3-1.243h0a3.73,3.73,0,0,1-1.789-2.7,6.177,6.177,0,0,1,.622-3.4.212.212,0,0,0-.076-.273,5.119,5.119,0,0,1-2.213-2.638,3.7,3.7,0,0,1,.546-3.35,3.373,3.373,0,0,1,1.016-.91.2.2,0,0,0,.106-.227,6.538,6.538,0,0,1-.167-2.7,1.923,1.923,0,0,1,.622-1.228,2.169,2.169,0,0,1,1.122-.485,9.109,9.109,0,0,1,2.638.106,18.042,18.042,0,0,1,2.562.561l.091-.394a5.55,5.55,0,0,1-.925-.318l-.44-.2c-.136,0-.273-.212-.333-.2a1.624,1.624,0,0,1,.136-.834,1.516,1.516,0,0,1,.606-.606,1.807,1.807,0,0,1,.864-.167h2.88c2.532,0,4.942.091,7.216.258,1.137.091,2.244.2,3.29.379a19.753,19.753,0,0,1,2.956.894c1.9.7,3.623,1.38,5.185,1.986l7.338,3.032,1.971.788.5.2Z" transform="translate(451.264 -19.886)" fill="#eb996e"/>
      <path id="Trazado_146190" data-name="Trazado 146190" d="M-364.4,219.615a21.277,21.277,0,0,1,4.063,3.5,20.84,20.84,0,0,1,2.7,4.639,3.894,3.894,0,0,0-.409-1.516,12.26,12.26,0,0,0-4.9-5.9A4.572,4.572,0,0,0-364.4,219.615Z" transform="translate(483.683 -14.254)" fill="#eb996e"/>
      <path id="Trazado_146191" data-name="Trazado 146191" d="M-411.117,116.161A27.791,27.791,0,0,1-383.4,90.555h1.44c15.524.879,23.453,14.539,22.149,30.018l-2.683,62.158a2.8,2.8,0,0,1-1.607,2.411l-34.869,16.343,1.076-32.58s-14.918-2.289-15.161-17.207C-413.163,144.435-412.208,129.593-411.117,116.161Z" transform="translate(458.569 -80.855)" fill="#ffbe9d"/>
      <path id="Trazado_146192" data-name="Trazado 146192" d="M-403.16,144.136a36.08,36.08,0,0,0,19.527-5.761s-4.548,10.749-19.451,9.43Z" transform="translate(463.681 -56.178)" fill="#eb996e"/>
      <path id="Trazado_146193" data-name="Trazado 146193" d="M-409.4,115.8a2.138,2.138,0,0,0,2.062,2.138,2.047,2.047,0,0,0,2.2-1.886l0-.039a2.138,2.138,0,0,0-2.062-2.138,2.047,2.047,0,0,0-2.2,1.886Z" transform="translate(460.461 -68.823)" fill="#263238"/>
      <path id="Trazado_146194" data-name="Trazado 146194" d="M-409.649,113.019c.273.273,1.88-.925,4.169-.925s3.972,1.152,4.23.864-.152-.622-.879-1.152a5.8,5.8,0,0,0-3.381-1.031,5.463,5.463,0,0,0-3.32,1.076C-409.543,112.4-409.771,112.9-409.649,113.019Z" transform="translate(460.316 -70.421)" fill="#263238"/>
      <path id="Trazado_146195" data-name="Trazado 146195" d="M-395.21,116.162a2.123,2.123,0,0,0,2.047,2.153,2.047,2.047,0,0,0,2.2-1.886l0-.039a2.138,2.138,0,0,0-2.062-2.153,2.032,2.032,0,0,0-2.18,1.871Z" transform="translate(467.783 -68.637)" fill="#263238"/>
      <path id="Trazado_146196" data-name="Trazado 146196" d="M-394.789,113.269c.273.273,1.88-.925,4.169-.91s3.972,1.137,4.23.849-.152-.622-.894-1.152a5.752,5.752,0,0,0-3.381-1.031,5.549,5.549,0,0,0-3.305,1.076C-394.683,112.647-394.911,113.148-394.789,113.269Z" transform="translate(467.984 -70.292)" fill="#263238"/>
      <path id="Trazado_146197" data-name="Trazado 146197" d="M-398.281,130.222a16.323,16.323,0,0,0-3.729-.667c-.576,0-1.137-.167-1.228-.561a3.029,3.029,0,0,1,.379-1.743l1.728-4.457c2.38-6.352,4.109-11.567,3.851-11.658s-2.4,4.973-4.791,11.325q-.864,2.274-1.637,4.548a3.29,3.29,0,0,0-.3,2.289,1.427,1.427,0,0,0,.97.849,3.492,3.492,0,0,0,.985.136A14.636,14.636,0,0,0-398.281,130.222Z" transform="translate(463.198 -70.236)" fill="#263238"/>
      <path id="Trazado_146198" data-name="Trazado 146198" d="M-393.328,124.765c-.379,0-.379,2.471-2.5,4.23s-4.776,1.516-4.791,1.85.591.485,1.713.515a6.2,6.2,0,0,0,4-1.41,5.365,5.365,0,0,0,1.925-3.548C-392.858,125.356-393.161,124.75-393.328,124.765Z" transform="translate(464.991 -63.201)" fill="#263238"/>
      <path id="Trazado_146199" data-name="Trazado 146199" d="M-395.2,107.226c.227.622,2.517.318,5.2.637s4.867,1.046,5.23.485c.152-.258-.227-.849-1.107-1.516a8.685,8.685,0,0,0-3.866-1.334,8.533,8.533,0,0,0-4.078.485C-394.8,106.392-395.3,106.877-395.2,107.226Z" transform="translate(467.784 -73.179)" fill="#263238"/>
      <path id="Trazado_146200" data-name="Trazado 146200" d="M-409.09,108.671c.409.531,1.986,0,3.881,0s3.5.334,3.881-.2c.152-.273-.106-.788-.8-1.289a5.489,5.489,0,0,0-3.153-.849,5.387,5.387,0,0,0-3.032,1.061C-409.044,107.883-409.272,108.429-409.09,108.671Z" transform="translate(460.59 -72.714)" fill="#263238"/>
      <path id="Trazado_146201" data-name="Trazado 146201" d="M-379.314,117.775c.258-.106,10.249-3.032,9.945,7.141s-10.476,7.792-10.491,7.489S-379.314,117.775-379.314,117.775Z" transform="translate(475.705 -67.051)" fill="#ffbe9d"/>
      <path id="Trazado_146202" data-name="Trazado 146202" d="M-378.287,127.565a3.652,3.652,0,0,0,.47.273,1.729,1.729,0,0,0,1.319,0,4.4,4.4,0,0,0,2.153-3.881,5.76,5.76,0,0,0-.409-2.547,2.08,2.08,0,0,0-1.3-1.41.91.91,0,0,0-1.061.455c-.152.288-.091.485-.136.5s-.212-.167-.121-.591a1.042,1.042,0,0,1,.424-.622,1.336,1.336,0,0,1,.985-.243,2.532,2.532,0,0,1,1.8,1.637,6.05,6.05,0,0,1,.531,2.865,4.545,4.545,0,0,1-2.714,4.321,1.882,1.882,0,0,1-1.622-.318C-378.272,127.808-378.318,127.581-378.287,127.565Z" transform="translate(476.512 -65.926)" fill="#eb996e"/>
      <path id="Trazado_146203" data-name="Trazado 146203" d="M-369.395,102.115l-42.525.94a19.521,19.521,0,0,1,6.246-7.232A33.356,33.356,0,0,1-386.42,88.9c6.928-.121,21.043,8.323,26.076,13.114,4.018,3.82,3.987,7.125,3.987,7.125.637,5.518-2.441,11.78-3.669,17.192-.637,2.79-1.85,11.234-1.85,11.234h0c-2.35,0-3.214-1.865-2.865-4.184l.44-9.1a13.72,13.72,0,0,1-4.2-16.025C-367.894,107.5-366.59,103.722-369.395,102.115Z" transform="translate(459.16 -81.713)" fill="#263238"/>
      <path id="Trazado_146204" data-name="Trazado 146204" d="M-389.691,119.108a.272.272,0,0,0,.333-.194.272.272,0,0,0-.193-.334.275.275,0,0,0-.335.194l0,.015A.274.274,0,0,0-389.691,119.108Z" transform="translate(470.527 -66.398)" fill="#eb996e"/>
      <path id="Trazado_146205" data-name="Trazado 146205" d="M-392.583,118.487a.289.289,0,0,0,.3-.258.288.288,0,0,0-.182-.364.289.289,0,0,0-.3.258A.288.288,0,0,0-392.583,118.487Z" transform="translate(469.037 -66.762)" fill="#eb996e"/>
      <path id="Trazado_146206" data-name="Trazado 146206" d="M-394.531,118.5c.136,0,.273-.152.3-.379s0-.424-.2-.44-.273.152-.3.379S-394.667,118.489-394.531,118.5Z" transform="translate(468.029 -66.855)" fill="#eb996e"/>
      <path id="Trazado_146207" data-name="Trazado 146207" d="M-391.092,120.843c.136,0,.258-.076.258-.152s-.121-.167-.258-.167-.258,0-.258.167S-391.229,120.843-391.092,120.843Z" transform="translate(469.775 -65.389)" fill="#eb996e"/>
      <path id="Trazado_146208" data-name="Trazado 146208" d="M-393.751,120.316a.273.273,0,0,0,.273-.258.258.258,0,0,0-.206-.3l-.021,0a.273.273,0,0,0-.273.258.258.258,0,0,0,.206.3Z" transform="translate(468.417 -65.787)" fill="#eb996e"/>
      <path id="Trazado_146209" data-name="Trazado 146209" d="M-407.555,118.707a.273.273,0,0,0,.3-.24v0a.258.258,0,0,0-.179-.317l0,0a.272.272,0,0,0-.3.227A.273.273,0,0,0-407.555,118.707Z" transform="translate(461.314 -66.618)" fill="#eb996e"/>
      <path id="Trazado_146210" data-name="Trazado 146210" d="M-409.5,118.552a.3.3,0,0,0,.273-.288c.015-.167-.076-.334-.212-.349a.3.3,0,0,0-.288.3A.288.288,0,0,0-409.5,118.552Z" transform="translate(460.289 -66.737)" fill="#eb996e"/>
      <path id="Trazado_146211" data-name="Trazado 146211" d="M-405.812,118.707a.227.227,0,0,0,.284-.152l0-.015a.242.242,0,0,0-.2-.273.243.243,0,0,0-.288.182.227.227,0,0,0,.193.258Z" transform="translate(462.209 -66.558)" fill="#eb996e"/>
      <path id="Trazado_146212" data-name="Trazado 146212" d="M-407.277,120.708a.288.288,0,0,0,.393-.106.288.288,0,0,0-.106-.394.288.288,0,0,0-.393.108l-.015.029a.258.258,0,0,0,.1.352Z" transform="translate(461.476 -65.573)" fill="#eb996e"/>
      <path id="Trazado_146213" data-name="Trazado 146213" d="M-408.9,120.339a.242.242,0,0,0,.182-.273.242.242,0,0,0-.3-.136.227.227,0,0,0-.183.264l0,.009A.242.242,0,0,0-408.9,120.339Z" transform="translate(460.557 -65.704)" fill="#eb996e"/>
      <path id="Trazado_146214" data-name="Trazado 146214" d="M-357.3,105.091a12.569,12.569,0,0,0-9.043-15.3,12.564,12.564,0,0,0-3.51-.39,37.309,37.309,0,0,1-5.943.424c-3.669-.394-6.5-3.35-9.915-4.776a12.992,12.992,0,0,0-15.3,4.548c-1.289,1.941-2.138,4.321-4.124,5.534-1.713,1.061-3.866.97-5.791,1.516a9.46,9.46,0,0,0-6.352,9.43,11.143,11.143,0,0,0,6.777,9.369,13.644,13.644,0,0,0,11.749-.834c3.214-1.789,6.064-4.821,9.763-4.715s7.11,3.76,10.794,3a10.477,10.477,0,0,0,4.9-3.275,8.5,8.5,0,0,1,5.064-2.926c2-.106,3.032,2.623,2.32,4.548l8.566-6.064" transform="translate(456.39 -84.157)" fill="#263238"/>
      <path id="Trazado_146215" data-name="Trazado 146215" d="M-411.37,96.811v.152l.258.409a6.7,6.7,0,0,0,1.213,1.38,7.576,7.576,0,0,0,2.532,1.516,7.323,7.323,0,0,0,3.851.227,7.682,7.682,0,0,0,4.078-2.32,49.58,49.58,0,0,0,3.032-4.548,5.533,5.533,0,0,1,4.882-2.486,6.424,6.424,0,0,1,2.9.773,5.389,5.389,0,0,1,2.122,2.2,30.651,30.651,0,0,0,1.516,2.865,3.518,3.518,0,0,0,2.729,1.652,5.321,5.321,0,0,0,2.956-.849,10.978,10.978,0,0,0,2.259-1.865,9.365,9.365,0,0,1,4.215-3.032,5.338,5.338,0,0,1,4.275,1,7.313,7.313,0,0,1,2.35,2.9,12.532,12.532,0,0,1,.879,2.744c.152.773.227,1.38.273,1.8a3.078,3.078,0,0,0,.091.622v-.637a17.877,17.877,0,0,0-.212-1.819,11.552,11.552,0,0,0-.834-2.8,7.374,7.374,0,0,0-2.38-3.032,5.654,5.654,0,0,0-4.548-1.092,9.549,9.549,0,0,0-4.4,3.032,10.971,10.971,0,0,1-2.2,1.8,4.9,4.9,0,0,1-2.744.788,3.143,3.143,0,0,1-2.411-1.516c-.576-.849-.94-1.865-1.516-2.835a5.716,5.716,0,0,0-2.289-2.35,6.836,6.836,0,0,0-3.032-.834,6.372,6.372,0,0,0-3.032.682,6.278,6.278,0,0,0-2.183,1.986,52.232,52.232,0,0,1-2.88,4.472,7.341,7.341,0,0,1-3.881,2.259,6.931,6.931,0,0,1-3.729-.167,7.594,7.594,0,0,1-2.486-1.364A9.768,9.768,0,0,1-411.37,96.811Z" transform="translate(459.444 -80.804)" fill="#455a64"/>
      <path id="Trazado_146216" data-name="Trazado 146216" d="M-416.382,94.815a1.933,1.933,0,0,0-.182.819,6.887,6.887,0,0,0,.212,2.274,7.936,7.936,0,0,0,1.592,3.032,9.38,9.38,0,0,0,3.366,2.441,13.743,13.743,0,0,0,7.414.849,19.221,19.221,0,0,0,2.229-.455,2.733,2.733,0,0,0,.788-.258s-1.152.212-3.032.424a14.517,14.517,0,0,1-7.216-.925,9.455,9.455,0,0,1-3.244-2.32,8.17,8.17,0,0,1-1.592-2.835A8.843,8.843,0,0,1-416.382,94.815Z" transform="translate(456.754 -78.657)" fill="#455a64"/>
      <path id="Trazado_146217" data-name="Trazado 146217" d="M-364.022,207.727a8.383,8.383,0,0,1-1.789,4.427,5.835,5.835,0,0,1-4.245,2.259,6.49,6.49,0,0,1-5.731-2.88,16.318,16.318,0,0,1-.819-12.462c1.016-2.441,3.26-4.715,5.9-4.776a6.5,6.5,0,0,1,6.383,5.033" transform="translate(476.938 -27.32)" fill="#e0e0e0"/>
      <path id="Trazado_146218" data-name="Trazado 146218" d="M-364.257,199.357a5.209,5.209,0,0,0-.637-1.7,7.435,7.435,0,0,0-1.3-1.713,6.257,6.257,0,0,0-2.456-1.44,5.814,5.814,0,0,0-1.653-.258,5.017,5.017,0,0,0-1.8.227,7.179,7.179,0,0,0-3.214,2.32,9.287,9.287,0,0,0-1.9,3.942,16.948,16.948,0,0,0-.349,4.669,12.738,12.738,0,0,0,2.016,6.807,6.062,6.062,0,0,0,2.608,1.971,7.1,7.1,0,0,0,3.032.5h0a4.43,4.43,0,0,0,2.122-.531,7.042,7.042,0,0,0,1.592-1.107,8.1,8.1,0,0,0,1.743-2.592,7.15,7.15,0,0,0,.546-1.925,4.873,4.873,0,0,0,0-.515v-.182a10.849,10.849,0,0,1-.758,2.532,8.153,8.153,0,0,1-1.759,2.471,6.72,6.72,0,0,1-1.516,1.046,4.28,4.28,0,0,1-1.971.47h0a6.292,6.292,0,0,1-5.246-2.38,12.655,12.655,0,0,1-1.91-6.58,11.964,11.964,0,0,1,2.122-8.353,6.769,6.769,0,0,1,3.032-2.229,4.4,4.4,0,0,1,1.7-.243,5.9,5.9,0,0,1,1.516.227,6.07,6.07,0,0,1,2.38,1.319A7.755,7.755,0,0,1-365,197.735,14.9,14.9,0,0,1-364.257,199.357Z" transform="translate(476.87 -27.349)" fill="#263238"/>
      <path id="Trazado_146219" data-name="Trazado 146219" d="M-362.8,207.842a8.46,8.46,0,0,1-1.789,4.412,5.791,5.791,0,0,1-4.26,2.259,6.5,6.5,0,0,1-5.731-2.88,16.372,16.372,0,0,1-.8-12.462c1-2.441,3.26-4.715,5.9-4.776a6.52,6.52,0,0,1,6.383,4.957" transform="translate(477.567 -27.269)" fill="#e0e0e0"/>
      <path id="Trazado_146220" data-name="Trazado 146220" d="M-363.037,199.406a5.341,5.341,0,0,0-.637-1.7,7.068,7.068,0,0,0-1.3-1.7,6.064,6.064,0,0,0-2.456-1.44,6.365,6.365,0,0,0-1.652-.273,5.058,5.058,0,0,0-1.8.243,6.883,6.883,0,0,0-3.214,2.3,9.1,9.1,0,0,0-1.9,3.942,16.95,16.95,0,0,0-.349,4.669,12.859,12.859,0,0,0,2,6.807,6.062,6.062,0,0,0,2.623,1.971,7.043,7.043,0,0,0,2.956.5h0a4.43,4.43,0,0,0,2.122-.531,6.884,6.884,0,0,0,1.592-1.107,7.916,7.916,0,0,0,1.743-2.592,7.543,7.543,0,0,0,.546-1.91,4.448,4.448,0,0,0,0-.531V207.9a10.819,10.819,0,0,1-.773,2.532,7.968,7.968,0,0,1-1.743,2.471,7.213,7.213,0,0,1-1.516,1.031,4.323,4.323,0,0,1-1.971.47h0a6.29,6.29,0,0,1-5.23-2.38,12.655,12.655,0,0,1-1.91-6.58,11.9,11.9,0,0,1,2.122-8.353,6.859,6.859,0,0,1,3.032-2.229,4.679,4.679,0,0,1,1.7-.243,5.771,5.771,0,0,1,1.516.227,5.666,5.666,0,0,1,2.38,1.334,6.93,6.93,0,0,1,1.319,1.607A13.791,13.791,0,0,1-363.037,199.406Z" transform="translate(477.499 -27.322)" fill="#263238"/>
      <path id="Trazado_146221" data-name="Trazado 146221" d="M-368.22,197.1a4.064,4.064,0,0,1,4.245,2.441,7,7,0,0,1,0,5.139,6.2,6.2,0,0,1-1.319,2.32,3.381,3.381,0,0,1-2.35,1.137,4.1,4.1,0,0,1-3.259-1.925,7.335,7.335,0,0,1-1.107-6.064c.364-1.38,1.364-2.774,2.774-2.8" transform="translate(479.635 -25.891)" fill="#e0e0e0"/>
      <path id="Trazado_146222" data-name="Trazado 146222" d="M-369.192,197.4h-.3a2.108,2.108,0,0,0-.864.288,4.261,4.261,0,0,0-1.8,2.714,7.419,7.419,0,0,0,.5,4.821,6.064,6.064,0,0,0,1.759,2.32,3.365,3.365,0,0,0,3.032.728,4.18,4.18,0,0,0,2.426-1.986,9.06,9.06,0,0,0,1.016-2.714,6.068,6.068,0,0,0-.788-4.76,4.261,4.261,0,0,0-2.744-1.759,3.05,3.05,0,0,0-.91,0l-.3.091a4.908,4.908,0,0,1,1.182.076,4.106,4.106,0,0,1,2.532,1.759,5.761,5.761,0,0,1,.652,4.548,8.205,8.205,0,0,1-.985,2.592,3.82,3.82,0,0,1-2.183,1.789,3.028,3.028,0,0,1-2.7-.652,6.05,6.05,0,0,1-1.668-2.153,7.308,7.308,0,0,1-.546-4.548,4.138,4.138,0,0,1,1.607-2.638A3.171,3.171,0,0,1-369.192,197.4Z" transform="translate(479.576 -25.918)" fill="#263238"/>
      <path id="Trazado_146223" data-name="Trazado 146223" d="M-372.2,206.3a4.483,4.483,0,0,1,.424-.576,2.912,2.912,0,0,1,1.334-.864,8.734,8.734,0,0,1,1.668-.258c.44,0,.713,0,.713-.121s-.273-.121-.713-.167a4.914,4.914,0,0,0-1.789.167,2.649,2.649,0,0,0-1.516,1.076C-372.261,206.01-372.245,206.3-372.2,206.3Z" transform="translate(479.642 -22.161)" fill="#263238"/>
      <path id="Trazado_146224" data-name="Trazado 146224" d="M-372.62,196.375a1.646,1.646,0,0,0,.485.576,3.979,3.979,0,0,0,1.668.728,3.788,3.788,0,0,0,1.8-.106c.455-.136.682-.318.667-.364a10.549,10.549,0,0,1-2.4,0A9.682,9.682,0,0,1-372.62,196.375Z" transform="translate(479.441 -26.247)" fill="#263238"/>
      <path id="Trazado_146225" data-name="Trazado 146225" d="M-312.651,275.734c0,.227-25.985-.44-58.034-1.516s-58-2.047-58-2.259,25.985.44,58.034,1.516S-312.651,275.521-312.651,275.734Z" transform="translate(450.506 12.737)" fill="#263238"/>
    </g>
    <g id="freepik--character-2--inject-7" transform="translate(-536.714 116.548)">
      <path id="Trazado_146226" data-name="Trazado 146226" d="M-512.5,461.944l13.22,30.23s-18.041,13.781-16.677,19.405l57.746-17.237-13.644-46.5Z" transform="translate(620.79 90.25)" fill="#263238"/>
      <path id="Trazado_146227" data-name="Trazado 146227" d="M-503.5,475.926c0,.288,1.395.409,2.7,1.319s1.971,2.077,2.244,1.986,0-1.743-1.668-2.835S-503.619,475.607-503.5,475.926Z" transform="translate(627.253 104.588)" fill="#263238"/>
      <path id="Trazado_146228" data-name="Trazado 146228" d="M-503.131,482.728c.273,0,.258-1.516-.94-2.865s-2.683-1.516-2.729-1.289,1.016.864,1.971,1.971S-503.419,482.789-503.131,482.728Z" transform="translate(625.552 106.063)" fill="#263238"/>
      <path id="Trazado_146229" data-name="Trazado 146229" d="M-485.264,457.3l1.167,31.049s-31.155,11.613-31.5,17.359l60.278-.091.167-48.514Z" transform="translate(621.011 95.028)" fill="#455a64"/>
      <path id="Trazado_146230" data-name="Trazado 146230" d="M-499.63,479.287c0,.288,1.213.773,2.213,2.016s1.289,2.562,1.592,2.547.47-1.668-.8-3.2S-499.615,479-499.63,479.287Z" transform="translate(629.252 106.411)" fill="#263238"/>
      <path id="Trazado_146231" data-name="Trazado 146231" d="M-501.191,485.965c.273,0,.682-1.41-.076-3.032s-2.138-2.244-2.259-2,.728,1.107,1.319,2.441S-501.479,485.935-501.191,485.965Z" transform="translate(627.236 107.298)" fill="#263238"/>
      <path id="Trazado_146232" data-name="Trazado 146232" d="M-518.188,162.1s-10.976,7.353-13.857,20.649c-2.274,10.446-8.49,65.6-8.49,65.6l-10.885,21.225,7.11,16.9h0a26.018,26.018,0,0,0,17.025-4.912l4.776-3.472,8.778-13.008Z" transform="translate(602.526 -57.212)" fill="#ebebeb"/>
      <path id="Trazado_146233" data-name="Trazado 146233" d="M-408.4,227.112l8.945-1.516s-18.875-52.107-30.094-57.2l-8.156-3.745V164.5l-13.447-5.488-15.737-5.776h0l-1.2-.44.5.485-31.534,2.016-2.456,1.865-16.176,8.46h0s-7.2,2.4-13.735,10.9-16.07,51.955-16.07,51.955l21.149,8.7,5.261,35.112-13.432,67.025,115.22-2.2L-444.271,267.5l3.866-34.763Z" transform="translate(604.518 -62.011)" fill="#00bcd4"/>
      <g id="Grupo_74191" data-name="Grupo 74191" transform="translate(81.397 216.919)" opacity="0.3">
        <path id="Trazado_146234" data-name="Trazado 146234" d="M-531.44,242.029a98.152,98.152,0,0,0,37.553,9.218c4.548.182,9.506,0,13.387-2.5a30.5,30.5,0,0,1,4.851-3.2c2.456-.985,5.215-.515,7.838-.227a52.925,52.925,0,0,0,18.268-1.2,4.848,4.848,0,0,0,2.471-1.152,1.76,1.76,0,0,0,.076-2.441,2.706,2.706,0,0,0-1.592-.424l-82.231-4.109Z" transform="translate(531.44 -235.995)"/>
      </g>
      <path id="Trazado_146235" data-name="Trazado 146235" d="M-536.352,185.215c.227,0,1.865,10.779,3.669,24.151s3.108,24.257,2.9,24.257-1.865-10.779-3.669-24.151S-536.565,185.245-536.352,185.215Z" transform="translate(610.29 -45.281)" fill="#263238"/>
      <path id="Trazado_146236" data-name="Trazado 146236" d="M-501.6,190.957a6.392,6.392,0,0,1-1.167-1.122c-.728-.758-1.728-1.865-3.032-3.244l-4.336-4.882c-1.607-1.85-3.426-3.866-5.124-6.155a26.173,26.173,0,0,1-3.881-7.08,16.245,16.245,0,0,1-.819-6.565,11.241,11.241,0,0,1,1.2-4.275,4.559,4.559,0,0,1,.925-1.349,14.9,14.9,0,0,0-1.516,5.67,16.844,16.844,0,0,0,.955,6.276,27.086,27.086,0,0,0,3.836,6.853c1.668,2.259,3.457,4.275,5.048,6.14l4.2,5c1.183,1.425,2.122,2.592,2.774,3.411A7.894,7.894,0,0,1-501.6,190.957Z" transform="translate(618.733 -60.21)" fill="#263238"/>
      <path id="Trazado_146237" data-name="Trazado 146237" d="M-480.323,154.795a7.927,7.927,0,0,1-.182,1.834,25.716,25.716,0,0,1-1.41,4.851,43.967,43.967,0,0,1-9.475,13.644c-4.442,4.7-8.551,8.869-11.537,11.871l-3.563,3.532a8.7,8.7,0,0,1-1.38,1.228,8.046,8.046,0,0,1,1.152-1.44l3.4-3.7,11.355-12.037a47.119,47.119,0,0,0,9.536-13.281A55.043,55.043,0,0,0-480.323,154.795Z" transform="translate(625 -60.979)" fill="#263238"/>
      <path id="Trazado_146238" data-name="Trazado 146238" d="M-462.194,207.571l3.654,20.391-48.62,7.156,2.8,22.377s60.051,3.29,66.706,1.819c8.384-1.85,14.8-11.9,14.584-26.576-.076-5.806-2.774-17.4-6.2-30.912Z" transform="translate(625.366 -36.709)" fill="#ebebeb"/>
      <path id="Trazado_146239" data-name="Trazado 146239" d="M-468.19,161.668c0,.091-1.061.121-2.865.682a16.227,16.227,0,0,0-6.64,4.245,19.617,19.617,0,0,0-5.079,10.43,29.147,29.147,0,0,0-.333,6.959,47.343,47.343,0,0,0,1.2,7.429c2.229,10.112,4.26,19.254,5.746,26.015.713,3.335,1.258,6.064,1.516,7.929.167.94.288,1.668.349,2.168a2.542,2.542,0,0,1,0,.773s-.258-1.031-.7-2.88-1.061-4.639-1.819-7.868c-1.516-6.64-3.76-15.782-5.973-25.97a47.472,47.472,0,0,1-1.2-7.58,29.119,29.119,0,0,1,.394-7.141,19.816,19.816,0,0,1,5.4-10.688,15.793,15.793,0,0,1,7.11-4.124,12.671,12.671,0,0,1,2.183-.364A4.142,4.142,0,0,1-468.19,161.668Z" transform="translate(637.29 -57.437)" fill="#263238"/>
      <path id="Trazado_146240" data-name="Trazado 146240" d="M-423.707,274.381c0,.227-25.849.834-57.731,1.349s-57.762.788-57.762.561,25.773-.819,57.746-1.349S-423.707,274.169-423.707,274.381Z" transform="translate(608.832 0.694)" fill="#263238"/>
      <path id="Trazado_146241" data-name="Trazado 146241" d="M-524.822,271.185-550.489,406.7a80.786,80.786,0,0,0,4.7,45.876l54.457,131.9L-448.4,557.1l-43.966-130.38L-464.529,311.1l-9.1-48.438Z" transform="translate(602.277 -5.313)" fill="#00bcd4"/>
      <path id="Trazado_146242" data-name="Trazado 146242" d="M-519.852,305.962-500.219,461.8l3.4,126.363,48.847.758s-1.759-128-1.759-135.717v-126.2a162.587,162.587,0,0,0,9.809-15.479c2.8-5.609,0-33.641,0-33.641s-10.415-21.331-49.772-14.8S-519.852,305.962-519.852,305.962Z" transform="translate(618.335 -5.736)" fill="#00bcd4"/>
      <path id="Trazado_146243" data-name="Trazado 146243" d="M-496.023,579.9a7.326,7.326,0,0,1,0-.773,20.136,20.136,0,0,0-.106-2.3c-.091-2.062-.212-5.033-.364-8.839-.273-7.717-.667-18.814-1.167-32.5s-1-30.078-1.607-48.226c-.333-9.1-.652-18.6-1.122-28.456s-1.061-20.088-2.289-30.473c-.606-5.2-1.38-10.309-2.229-15.342s-1.743-9.991-2.592-14.857c-1.622-9.748-2.941-19.193-4.093-28.214-2.289-18.011-3.927-34.293-5.427-47.938s-2.82-24.7-3.82-32.307c-.516-3.775-.91-6.731-1.183-8.763-.121-.97-.227-1.728-.288-2.274a2.516,2.516,0,0,1,0-.788,3.106,3.106,0,0,0,.152.773c.152.516.212,1.289.379,2.274.318,1.986.788,4.927,1.319,8.732,1.107,7.58,2.517,18.632,4.063,32.292s3.275,29.912,5.594,47.907c1.167,9.005,2.517,18.435,4.154,28.183.849,4.867,1.713,9.824,2.608,14.842s1.607,10.173,2.213,15.388c1.243,10.415,1.8,20.649,2.289,30.518s.773,19.405,1.076,28.471c.546,18.193,1.031,34.49,1.44,48.226s.7,24.818.91,32.519c.091,3.82.167,6.792.212,8.854v2.289A1.924,1.924,0,0,1-496.023,579.9Z" transform="translate(617.534 2.521)" fill="#263238"/>
      <path id="Trazado_146244" data-name="Trazado 146244" d="M-489.649,575.537c-.212,0-3.836-64.735-8.065-144.586S-505.2,286.32-504.976,286.3s3.82,64.72,8.05,144.6S-489.437,575.537-489.649,575.537Z" transform="translate(626.488 6.887)" fill="#263238"/>
      <path id="Trazado_146245" data-name="Trazado 146245" d="M-471.61,280.129a4.99,4.99,0,0,1-1,1.3,20.766,20.766,0,0,1-3.381,2.911,22.454,22.454,0,0,1-27.592-1.364,19.77,19.77,0,0,1-3.032-3.244,5.5,5.5,0,0,1-.864-1.38,45.791,45.791,0,0,0,4.29,4.2,22.831,22.831,0,0,0,26.925,1.334A41.968,41.968,0,0,0-471.61,280.129Z" transform="translate(625.201 2.784)" fill="#263238"/>
      <path id="Trazado_146246" data-name="Trazado 146246" d="M-484.038,569.124l-.349-.713-.955-2.122-3.578-8.2c-3.032-7.156-7.58-17.465-13.023-30.2s-11.9-28-19.072-44.89-15.009-35.506-22.741-55.245c-.455-1.243-.925-2.486-1.395-3.714a22.294,22.294,0,0,1-.819-3.942,50.313,50.313,0,0,1-.243-7.838c.2-5.185.788-10.248,1.425-15.161,1.395-9.915,3.2-19.39,5.048-28.38,3.729-18,7.717-34.051,11.143-47.513s6.443-24.257,8.551-31.761l2.471-8.6c.288-.955.516-1.683.667-2.213a5.762,5.762,0,0,1,.258-.758,2.547,2.547,0,0,1-.182.773c-.182.5-.334,1.289-.591,2.244-.546,2.016-1.319,4.912-2.335,8.642-2,7.489-4.912,18.344-8.293,31.837s-7.292,29.533-10.976,47.513c-1.834,8.99-3.608,18.465-4.988,28.35-.637,4.942-1.213,9.991-1.41,15.161a50.457,50.457,0,0,0,.318,7.6,19.773,19.773,0,0,0,.773,3.76c.47,1.228.925,2.471,1.395,3.7,7.717,19.709,15.6,38.311,22.741,55.245s13.538,32.155,18.92,44.951l12.8,30.321c1.516,3.563,2.638,6.337,3.441,8.247l.879,2.153A4.392,4.392,0,0,0-484.038,569.124Z" transform="translate(605.186 2.536)" fill="#263238"/>
      <path id="Trazado_146247" data-name="Trazado 146247" d="M-508.655,376.068c-.212.273-3.032-3.138-6.246-7.414a59.347,59.347,0,0,1-5.518-8.02,62.586,62.586,0,0,1,6.064,7.58c1.622,2.138,3.032,4.108,4.063,5.534A18.329,18.329,0,0,1-508.655,376.068Z" transform="translate(618.524 45.245)" fill="#263238"/>
      <g id="Grupo_74192" data-name="Grupo 74192" transform="translate(96.421 289.629)" opacity="0.3">
        <path id="Trazado_146248" data-name="Trazado 146248" d="M-521.53,283.955l7.065,121.072,6.383,10.612,2.32-9.581Z" transform="translate(521.53 -283.955)"/>
      </g>
      <g id="Grupo_74193" data-name="Grupo 74193" transform="translate(74.362 275.211)" opacity="0.3">
        <path id="Trazado_146249" data-name="Trazado 146249" d="M-535.11,276.37l-.97,5.079h104.85l-.531-7Z" transform="translate(536.08 -274.445)"/>
      </g>
      <path id="Trazado_146250" data-name="Trazado 146250" d="M-585.13,219.055l70.254,26.015,59.232,9.051L-526.065,219.8Z" transform="translate(585.13 -27.818)" fill="#263238"/>
      <path id="Trazado_146251" data-name="Trazado 146251" d="M-563.667,242.818a29.855,29.855,0,0,0-3.73-10.612,8.147,8.147,0,0,1-.97-2,2.317,2.317,0,0,1,.409-2.107c.895-.97,2.547-.546,3.654.2a12.93,12.93,0,0,1,4.73,6.625,38.686,38.686,0,0,1,1.516,8.126" transform="translate(593.731 -23.443)" fill="#ffbe9d"/>
      <path id="Trazado_146252" data-name="Trazado 146252" d="M-536.939,237.385h-3.442a6.791,6.791,0,0,0-3.032-1.759,2.408,2.408,0,0,0-2.3.91c1.516-2.577,3.244-5.412,3.563-6.185.637-1.516-.758-2.638-3.032-2.638s-12.2,14.084-12.2,14.084,6.185-11.325,6.777-13.068c1.516-4.321-3.229-4.639-4.942-2.547-2.138,2.577-10.749,15.615-10.749,15.615a6.063,6.063,0,0,0-.516,5.155c1.137,2.517,4.412,1.516,4.412,1.516a4.217,4.217,0,0,0,2.3,3.5c2.517,1.395,5.837-.227,5.837-.227l12.856,2.9,4.654-.47a14.265,14.265,0,0,0,12.689-12.128h0Z" transform="translate(594.398 -24.787)" fill="#ffbe9d"/>
      <path id="Trazado_146253" data-name="Trazado 146253" d="M-550.236,232.455a41.973,41.973,0,0,1-3.775,6.064c-1.122,1.607-2.138,3.032-2.911,4.093a11.068,11.068,0,0,1-1.289,1.622,10.8,10.8,0,0,1,1.061-1.789c.7-1.076,1.7-2.547,2.8-4.154s2.122-3.032,2.865-4.108l.895-1.228C-550.357,232.591-550.266,232.455-550.236,232.455Z" transform="translate(599.022 -20.903)" fill="#eb996e"/>
      <path id="Trazado_146254" data-name="Trazado 146254" d="M-553.45,246.72a11.845,11.845,0,0,1,1.137-2.092c.758-1.273,1.834-3.032,3.032-4.912.591-.955,1.152-1.865,1.622-2.7a3.167,3.167,0,0,0,.288-2.4,5.878,5.878,0,0,0-1.107-2.047,1.7,1.7,0,0,1,.5.424,3.994,3.994,0,0,1,.879,1.516,3.349,3.349,0,0,1-.227,2.638c-.47.879-1.031,1.789-1.622,2.744-1.183,1.925-2.3,3.623-3.123,4.851A19.3,19.3,0,0,1-553.45,246.72Z" transform="translate(601.478 -20.841)" fill="#eb996e"/>
      <path id="Trazado_146255" data-name="Trazado 146255" d="M-548.443,246.3a7.924,7.924,0,0,1,.682-2l.925-2.092a16.927,16.927,0,0,0,.94-2.608,3.031,3.031,0,0,0-.409-2.5,2.157,2.157,0,0,0-.91-.652,2.481,2.481,0,0,0-.955-.273,4.034,4.034,0,0,0-1.395.485c-.318.167-.516.243-.516.212s.136-.152.44-.349a5.7,5.7,0,0,1,.576-.349,2.307,2.307,0,0,1,.894-.288,2.911,2.911,0,0,1,1.092.243,2.945,2.945,0,0,1,1.076.728,3.35,3.35,0,0,1,.5,2.835,14.182,14.182,0,0,1-1,2.653c-.364.788-.713,1.516-.985,2.077C-548.079,245.573-548.382,246.315-548.443,246.3Z" transform="translate(603.218 -19.133)" fill="#eb996e"/>
      <path id="Trazado_146256" data-name="Trazado 146256" d="M-547.427,234.735a1.427,1.427,0,0,1,.546.167,6.42,6.42,0,0,1,1.334.788A7.292,7.292,0,0,1-543.47,245a5.616,5.616,0,0,1-.879,1.289c-.242.273-.409.394-.424.379a11.069,11.069,0,0,0,1.046-1.789,7.412,7.412,0,0,0-2-8.975C-546.7,235.084-547.533,234.8-547.427,234.735Z" transform="translate(604.582 -19.726)" fill="#eb996e"/>
      <path id="Trazado_146257" data-name="Trazado 146257" d="M-560.265,229.855a73.173,73.173,0,0,1-6.155,9.1A76.356,76.356,0,0,1-560.265,229.855Z" transform="translate(594.785 -22.244)" fill="#eb996e"/>
      <path id="Trazado_146258" data-name="Trazado 146258" d="M-491.056,228.279l-8.02-1.819-7.747-7.262a5.515,5.515,0,0,0-3.441-1.516l-14.039-.8a5.5,5.5,0,0,0-3.851,1.289l-10.036,8.475,43.8,21.376,6.064.531Z" transform="translate(609.353 -28.946)" fill="#ffbe9d"/>
      <path id="Trazado_146259" data-name="Trazado 146259" d="M-517.326,222.226s-1.046-.121-2.714-.334a11.758,11.758,0,0,0-6.352.652,16.961,16.961,0,0,0-3.032,1.9c-.879.667-1.683,1.289-2.38,1.759a14.278,14.278,0,0,1-1.744,1.016,2.292,2.292,0,0,1-.682.243,17.239,17.239,0,0,0,2.259-1.516c.667-.5,1.516-1.137,2.335-1.819a15.526,15.526,0,0,1,3.032-1.971,9.3,9.3,0,0,1,3.593-.8,15.628,15.628,0,0,1,3.032.227,19.786,19.786,0,0,1,1.956.409A2.368,2.368,0,0,1-517.326,222.226Z" transform="translate(611.397 -26.637)" fill="#eb996e"/>
      <path id="Trazado_146260" data-name="Trazado 146260" d="M-517.846,227.3a8.138,8.138,0,0,0-1.516-.273,7.938,7.938,0,0,0-3.608.5,18.389,18.389,0,0,0-3.3,1.7,6.9,6.9,0,0,1-1.365.758,5.421,5.421,0,0,1,1.2-1,13.807,13.807,0,0,1,3.335-1.834,7.18,7.18,0,0,1,3.775-.409A3.157,3.157,0,0,1-517.846,227.3Z" transform="translate(614.798 -23.901)" fill="#eb996e"/>
      <path id="Trazado_146261" data-name="Trazado 146261" d="M-507.433,230.4c-.091,0-1.228-1.622-2.714-3.608a44.87,44.87,0,0,1-2.683-3.639A27.111,27.111,0,0,1-507.433,230.4Z" transform="translate(622.44 -25.702)" fill="#eb996e"/>
      <path id="Trazado_146262" data-name="Trazado 146262" d="M-522.023,224.089l17.8-16.57a1.7,1.7,0,0,0,.091-2.4,1.709,1.709,0,0,0-.212-.193h0a1.7,1.7,0,0,0-2.168.076L-527.39,223.71" transform="translate(614.927 -35.292)" fill="#00bcd4"/>
      <g id="Grupo_74194" data-name="Grupo 74194" transform="translate(87.537 169.279)" opacity="0.3">
        <path id="Trazado_146263" data-name="Trazado 146263" d="M-522.023,224.089l17.8-16.57a1.7,1.7,0,0,0,.091-2.4,1.709,1.709,0,0,0-.212-.193h0a1.7,1.7,0,0,0-2.168.076L-527.39,223.71" transform="translate(527.39 -204.571)"/>
      </g>
      <path id="Trazado_146264" data-name="Trazado 146264" d="M-525.856,122.805a21.227,21.227,0,0,1,4.685-18.86,27.666,27.666,0,0,1,12.917-7.686,29.9,29.9,0,0,1,20.042.455c6.292,2.653,11.4,8.52,12.128,15.3.318,3.032-.243,6.292.743,9.233a6.86,6.86,0,0,1,.773,3.881,3.2,3.2,0,0,1-2.774,2.107,7.207,7.207,0,0,1-3.578-.728,38.709,38.709,0,0,1-10.173-7.307" transform="translate(615.425 -91.966)" fill="#263238"/>
      <path id="Trazado_146265" data-name="Trazado 146265" d="M-525.895,122.372c.621-9.612,7.019-21.376,16.586-20.345l29.866,7.58a5.639,5.639,0,0,1,5.018,5.716l-3.35,72.058h0l-19.557,23.211s-12.492-14.539-13.281-18.951h0a12.16,12.16,0,0,1-.212-1.516,47.144,47.144,0,0,1-.121-9.885h0v-8.156c0,.045-12.265-2.062-14.766-18.071C-527.016,146.1-526.592,133.045-525.895,122.372Z" transform="translate(615.357 -88.243)" fill="#ffbe9d"/>
      <path id="Trazado_146266" data-name="Trazado 146266" d="M-523,123.717a2.077,2.077,0,0,0,1.986,2.077,1.987,1.987,0,0,0,2.122-1.84v-.009a2.062,2.062,0,0,0-1.986-2.077,1.97,1.97,0,0,0-2.119,1.81Z" transform="translate(617.192 -77.975)" fill="#263238"/>
      <path id="Trazado_146267" data-name="Trazado 146267" d="M-524.248,120.638c.243.273,1.8-.879,4.018-.864s3.82,1.122,4.063.849-.136-.606-.849-1.122a5.569,5.569,0,0,0-3.244-1.016,5.481,5.481,0,0,0-3.2,1.031C-524.141,120.031-524.384,120.517-524.248,120.638Z" transform="translate(616.53 -79.717)" fill="#263238"/>
      <path id="Trazado_146268" data-name="Trazado 146268" d="M-508.67,123.717a2.062,2.062,0,0,0,1.971,2.077,1.971,1.971,0,0,0,2.119-1.81l0-.039a2.047,2.047,0,0,0-1.971-2.077,1.956,1.956,0,0,0-2.118,1.78Z" transform="translate(624.587 -77.975)" fill="#263238"/>
      <path id="Trazado_146269" data-name="Trazado 146269" d="M-509.929,120.948c.258.258,1.819-.879,4.018-.879s3.836,1.122,4.078.849-.136-.606-.849-1.122a5.783,5.783,0,0,0-3.26-1,5.38,5.38,0,0,0-3.2,1.016C-509.823,120.341-510.051,120.827-509.929,120.948Z" transform="translate(623.921 -79.557)" fill="#263238"/>
      <path id="Trazado_146270" data-name="Trazado 146270" d="M-513.345,137.27a14.914,14.914,0,0,0-3.593-.652c-.561,0-1.092-.182-1.182-.561a2.828,2.828,0,0,1,.379-1.668c.531-1.364,1.092-2.79,1.668-4.29,2.335-6.064,4.018-11.143,3.775-11.234s-2.335,4.791-4.669,10.9l-1.607,4.321a3.266,3.266,0,0,0-.288,2.213,1.381,1.381,0,0,0,.925.819,3.4,3.4,0,0,0,.955.136A14.122,14.122,0,0,0-513.345,137.27Z" transform="translate(619.287 -79.521)" fill="#263238"/>
      <path id="Trazado_146271" data-name="Trazado 146271" d="M-516.3,150.175a40.613,40.613,0,0,0,21.452-5.67s-5.412,11.067-21.422,9.536Z" transform="translate(620.65 -66.289)" fill="#eb996e"/>
      <path id="Trazado_146272" data-name="Trazado 146272" d="M-514.561,135.039A3.973,3.973,0,0,1-511,133.523a3.656,3.656,0,0,1,2.517,1.364,2.289,2.289,0,0,1,.167,2.623,2.654,2.654,0,0,1-2.9.728,8.355,8.355,0,0,1-2.82-1.683,2.427,2.427,0,0,1-.637-.667.727.727,0,0,1,0-.819" transform="translate(621.427 -71.969)" fill="#eb996e"/>
      <path id="Trazado_146273" data-name="Trazado 146273" d="M-508.568,132.025c-.349,0-.364,2.38-2.411,4.078s-4.548,1.425-4.639,1.759.576.47,1.652.5a6.06,6.06,0,0,0,3.866-1.334,5.3,5.3,0,0,0,1.88-3.426C-508.128,132.6-508.4,132.01-508.568,132.025Z" transform="translate(620.998 -72.73)" fill="#263238"/>
      <path id="Trazado_146274" data-name="Trazado 146274" d="M-510.586,118.17c.212.606,2.426.318,5.018.637s4.685,1.031,5.033.5c.152-.258-.212-.819-1.061-1.41a8.759,8.759,0,0,0-7.58-.864C-510.192,117.472-510.677,117.942-510.586,118.17Z" transform="translate(623.593 -80.721)" fill="#263238"/>
      <path id="Trazado_146275" data-name="Trazado 146275" d="M-523.7,116.46c.394.5,1.91,0,3.745,0s3.381.349,3.729-.182c.167-.243-.076-.758-.758-1.228a5.233,5.233,0,0,0-3.032-.834,5.316,5.316,0,0,0-3.032,1C-523.656,115.687-523.868,116.2-523.7,116.46Z" transform="translate(616.802 -81.922)" fill="#263238"/>
      <path id="Trazado_146276" data-name="Trazado 146276" d="M-464.076,153.874c-4.154,1.713-7.853-11.082-11.658-13.463s-7.58,5.731-7.944,1.243c-.258-3.942,1.061-8.278-.985-11.674-2.714-4.548-9.763-4.654-12.507-9.1-1.516-2.592-1.273-6.064-3.032-8.566s-4.548-3.335-7.444-3.775-5.791-.546-8.353-1.85-4.548-4.275-3.608-6.974a151.858,151.858,0,0,1,35.961,1.668c2.759.47,5.67,1.092,7.58,3.032s2.592,5.23,3.032,8.156c2.092,14.236,6.807,27.046,8.884,41.282" transform="translate(618.82 -89.606)" fill="#263238"/>
      <path id="Trazado_146277" data-name="Trazado 146277" d="M-526.127,129.149c.8-9.384,6.443-21.225,14.979-25.288s18.587-4.457,26.364.894c8.4,5.776,10.612,15.509,11.689,25.652s-.531,13.8-2.9,23.726l-1.016,21.846c5.867,6.686,13.538-.879,14.66-1.41s5.261-7.58,5.852-8.641c6.064-11.431-3.305-13.114-1.7-19.542a31.151,31.151,0,0,0-1.2-19.481c-1.213-2.88-2.926-5.564-3.9-8.52-1.076-3.244-1.228-6.762-2.577-9.9a18.081,18.081,0,0,0-7.732-8.247,37.394,37.394,0,0,0-10.779-3.866c-8.657-1.941-14.4-5.276-22.741-2.229s-14.145,7.429-18.026,18.3a39.414,39.414,0,0,0-1,16.677" transform="translate(615.331 -92.913)" fill="#00bcd4"/>
      <path id="Trazado_146278" data-name="Trazado 146278" d="M-524.09,108.891a4.452,4.452,0,0,1,.516-.894,19.793,19.793,0,0,1,1.8-2.365,27.611,27.611,0,0,1,8.626-6.686,27.122,27.122,0,0,1,15.888-2.623,28.182,28.182,0,0,1,17.268,9.354,36.7,36.7,0,0,1,7.792,18.193,59.8,59.8,0,0,1,.591,16.191,33.99,33.99,0,0,1-2.774,10.612,21.593,21.593,0,0,1-1.38,2.638,4.278,4.278,0,0,1-.591.849,35.334,35.334,0,0,0,1.7-3.608,36.574,36.574,0,0,0,2.5-10.491,61.719,61.719,0,0,0-.758-16.009,36.251,36.251,0,0,0-7.686-17.738,27.73,27.73,0,0,0-16.768-9.1,26.748,26.748,0,0,0-15.54,2.411,28.513,28.513,0,0,0-8.641,6.383C-523.2,107.723-524.029,108.936-524.09,108.891Z" transform="translate(616.63 -91.287)" fill="#263238"/>
      <path id="Trazado_146279" data-name="Trazado 146279" d="M-478.228,145.652a4.5,4.5,0,0,1-1.9,1.516,10.174,10.174,0,0,1-5.837,1.213,10.279,10.279,0,0,1-5.488-2.3c-1.167-1-1.637-1.85-1.516-1.91a20.226,20.226,0,0,1,1.91,1.516,10.688,10.688,0,0,0,10.718,1.046C-479.031,146.137-478.3,145.561-478.228,145.652Z" transform="translate(632.683 -66.466)" fill="#263238"/>
      <path id="Trazado_146280" data-name="Trazado 146280" d="M-485.214,141.327a35.411,35.411,0,0,1-3.532-3.032,34.754,34.754,0,0,1-3.623-2.85,8.911,8.911,0,0,1,4.124,2.244A8.771,8.771,0,0,1-485.214,141.327Z" transform="translate(632.999 -70.965)" fill="#263238"/>
      <path id="Trazado_146281" data-name="Trazado 146281" d="M-485.118,133.506a10.068,10.068,0,0,0-1.516-3.805,9.975,9.975,0,0,0-3.4-2.35c0-.091.531-.182,1.349,0a5.419,5.419,0,0,1,2.668,1.8,5.527,5.527,0,0,1,1.213,3.032C-484.83,133.036-485.027,133.521-485.118,133.506Z" transform="translate(634.206 -75.196)" fill="#263238"/>
      <path id="Trazado_146282" data-name="Trazado 146282" d="M-485.863,128.178c-.2.106-.758-.682-1.683-1.334s-1.8-.985-1.774-1.213,1.152-.243,2.244.576S-485.666,128.1-485.863,128.178Z" transform="translate(634.573 -76.099)" fill="#263238"/>
      <path id="Trazado_146283" data-name="Trazado 146283" d="M-492.166,101.213c.076.212-.561.622-1.289,1.167s-1.3,1.046-1.516.91.182-.91,1.016-1.516S-492.227,101.016-492.166,101.213Z" transform="translate(631.628 -88.672)" fill="#263238"/>
      <path id="Trazado_146284" data-name="Trazado 146284" d="M-494.019,100.743c.136.167-.152.667-.667,1.107s-1.046.682-1.183.515.152-.667.667-1.107S-494.171,100.576-494.019,100.743Z" transform="translate(631.176 -88.9)" fill="#263238"/>
      <path id="Trazado_146285" data-name="Trazado 146285" d="M-495.2,129.97c0-1.2,1.395-4,2.562-4.184,3.153-.485,8.823-.212,8.854,7.762,0,10.916-10.916,8.717-10.946,8.4S-495.215,134.078-495.2,129.97Z" transform="translate(631.538 -76.026)" fill="#ffbe9d"/>
      <path id="Trazado_146286" data-name="Trazado 146286" d="M-492.7,136.637s.2.121.516.273a1.885,1.885,0,0,0,1.425,0,4.733,4.733,0,0,0,2.153-4.23,6.476,6.476,0,0,0-.546-2.714,2.183,2.183,0,0,0-1.44-1.516.956.956,0,0,0-1.122.531c-.136.3-.076.515-.121.531s-.243-.167-.152-.622a1.124,1.124,0,0,1,.424-.682,1.364,1.364,0,0,1,1.046-.288,2.652,2.652,0,0,1,2,1.683,6.384,6.384,0,0,1,.667,3.032c0,2.213-1.182,4.275-2.744,4.73a2,2,0,0,1-1.743-.273C-492.68,136.895-492.741,136.652-492.7,136.637Z" transform="translate(632.824 -74.855)" fill="#eb996e"/>
      <path id="Trazado_146287" data-name="Trazado 146287" d="M-484.661,132.855s-12.811,11.507-25.166,9.809-16.677-9.809-16.677-9.809-1.956,11.81,3.517,17.662c6.064,6.489,8.839,8.278,21.71,6.064s19.83-16.8,19.83-16.8Z" transform="translate(615.208 -72.301)" fill="#f5f5f5"/>
      <path id="Trazado_146288" data-name="Trazado 146288" d="M-492.394,126.615a22.346,22.346,0,0,1-3.032,5.109,22.573,22.573,0,0,1-3.684,4.669,23.456,23.456,0,0,1,3.032-5.109A22.767,22.767,0,0,1-492.394,126.615Z" transform="translate(629.521 -75.522)" fill="#f5f5f5"/>
      <path id="Trazado_146289" data-name="Trazado 146289" d="M-491.572,136.682c0,.227-1.2.455-2.638.788s-2.608.667-2.7.455,1-.864,2.532-1.213S-491.572,136.47-491.572,136.682Z" transform="translate(630.654 -70.428)" fill="#f5f5f5"/>
      <path id="Trazado_146290" data-name="Trazado 146290" d="M-487.738,136.556a8.486,8.486,0,0,1-1.182,1.38,34.5,34.5,0,0,1-3.714,3.26,28.7,28.7,0,0,1-14.994,6.185,20.464,20.464,0,0,1-15.251-5.124,14.153,14.153,0,0,1-3.032-3.911,6.441,6.441,0,0,1-.7-1.683,22.174,22.174,0,0,0,4.109,5.185,20.56,20.56,0,0,0,14.827,4.745,30.061,30.061,0,0,0,14.736-5.837C-489.618,138.345-487.845,136.45-487.738,136.556Z" transform="translate(615.329 -70.394)" fill="#263238"/>
      <path id="Trazado_146291" data-name="Trazado 146291" d="M-497.11,141.9a10.619,10.619,0,0,1-3.032,2.138,24.36,24.36,0,0,1-17.632,1.986,11.043,11.043,0,0,1-3.457-1.41c0-.121,1.38.394,3.593.864a27.476,27.476,0,0,0,17.222-1.941C-498.353,142.581-497.185,141.778-497.11,141.9Z" transform="translate(618.106 -67.64)" fill="#263238"/>
    </g>
    <g id="freepik--character-1--inject-7" transform="translate(-678.949 107.883)">
      <path id="Trazado_146292" data-name="Trazado 146292" d="M-626.52,98.443c1.122-5.276,4.9-8.065,9.9-10.082a16.8,16.8,0,0,1,15.448,1.653c3.032,2.016,5.412,5.064,8.869,6.064,5.715,1.637,12.128-2.911,17.571-.7a7.657,7.657,0,0,1,4.272,9.95,7.658,7.658,0,0,1-7.092,4.816c3.729,1.137,5.139,6.292,3.184,9.672s-6.276,4.836-10.142,4.336a21.417,21.417,0,0,1-10.37-5.094c-3.032-2.441-5.791-5.23-9.021-7.429a16.681,16.681,0,0,0-10.946-3.35c-5.246.561-9.551,4.791-11.628,9.627s-2.335,10.279-2.335,15.555.2,10.612-1.092,15.752a2,2,0,0,1-.97,1.516c-.834.3-1.622-.561-2.077-1.334a77.163,77.163,0,0,1-10.355-28.32c-.91-5.806-1.061-11.34,1.88-16.419s10.84-9.1,14.979-6.261" transform="translate(697.046 -87.198)" fill="#263238"/>
      <path id="Trazado_146293" data-name="Trazado 146293" d="M-634.2,117.539c-.273-.106-10.612-2.835-10.036,7.686s11.052,7.717,11.052,7.413S-634.2,117.539-634.2,117.539Z" transform="translate(696.853 -71.744)" fill="#b78876"/>
      <path id="Trazado_146294" data-name="Trazado 146294" d="M-637.548,127.671a3.386,3.386,0,0,1-.47.3,1.8,1.8,0,0,1-1.365.106,4.549,4.549,0,0,1-2.35-3.942,6.082,6.082,0,0,1,.364-2.653,2.122,2.122,0,0,1,1.289-1.516.954.954,0,0,1,1.122.44c.152.273.091.5.152.515s.212-.2.106-.622a1.172,1.172,0,0,0-.455-.637,1.365,1.365,0,0,0-1.031-.212,2.608,2.608,0,0,0-1.819,1.743,6.345,6.345,0,0,0-.455,3.032c.2,2.122,1.395,4.033,2.941,4.381a1.954,1.954,0,0,0,1.668-.379C-637.548,127.928-637.5,127.686-637.548,127.671Z" transform="translate(697.765 -70.565)" fill="#aa6550"/>
      <path id="Trazado_146295" data-name="Trazado 146295" d="M-612.719,93.189a28.366,28.366,0,0,1,30.291,26.3c.011.167.021.335.03.5.7,13.174,1.3,27.425,1.152,34.611-.318,15.4-15.737,17.677-15.737,17.677s.334,4.548.713,10.233a20.3,20.3,0,0,1-18.89,21.617q-.3.02-.591.032h0a20.284,20.284,0,0,1-21.041-19.5l0-.029-2.289-62.158A28.365,28.365,0,0,1-612.7,93.129Z" transform="translate(699.512 -84.143)" fill="#b78876"/>
      <path id="Trazado_146296" data-name="Trazado 146296" d="M-604.621,147.4a36.713,36.713,0,0,1-19.709-6.064s4.654,11.2,20.042,9.945Z" transform="translate(707.136 -59.26)" fill="#aa6550"/>
      <path id="Trazado_146297" data-name="Trazado 146297" d="M-603.629,118.678a2.2,2.2,0,0,1-2.138,2.213,2.107,2.107,0,0,1-2.242-1.963l0-.038a2.214,2.214,0,0,1,2.138-2.213,2.091,2.091,0,0,1,2.239,1.933Z" transform="translate(715.558 -71.988)" fill="#263238"/>
      <path id="Trazado_146298" data-name="Trazado 146298" d="M-601.212,115.245c-.273.273-1.941-.97-4.306-.985s-4.108,1.167-4.366.864.151-.637.91-1.183a6.066,6.066,0,0,1,3.5-1.046,5.776,5.776,0,0,1,3.426,1.137C-601.318,114.593-601.075,115.109-601.212,115.245Z" transform="translate(714.551 -73.937)" fill="#263238"/>
      <path id="Trazado_146299" data-name="Trazado 146299" d="M-618.709,118.458a2.182,2.182,0,0,1-2.138,2.2,2.091,2.091,0,0,1-2.239-1.933l0-.068a2.214,2.214,0,0,1,2.138-2.2,2.091,2.091,0,0,1,2.239,1.933Z" transform="translate(707.776 -72.102)" fill="#263238"/>
      <path id="Trazado_146300" data-name="Trazado 146300" d="M-616.529,115.41c-.273.288-1.925-.955-4.29-.97s-4.124,1.167-4.366.864.152-.637.91-1.183a5.971,5.971,0,0,1,3.5-1.046,5.73,5.73,0,0,1,3.411,1.122A2.179,2.179,0,0,1-616.529,115.41Z" transform="translate(706.658 -73.845)" fill="#263238"/>
      <path id="Trazado_146301" data-name="Trazado 146301" d="M-613.646,132.95a15.375,15.375,0,0,1,3.851-.667c.606,0,1.182-.167,1.273-.576a3.031,3.031,0,0,0-.379-1.8c-.561-1.516-1.137-3.032-1.759-4.548-2.426-6.58-4.184-11.977-3.911-12.128s2.441,5.155,4.882,11.734l1.668,4.654a3.449,3.449,0,0,1,.3,2.365,1.515,1.515,0,0,1-1,.879,3.883,3.883,0,0,1-1.031.136A15.374,15.374,0,0,1-613.646,132.95Z" transform="translate(712.158 -73.768)" fill="#263238"/>
      <path id="Trazado_146302" data-name="Trazado 146302" d="M-618.445,127.285c.394,0,.379,2.547,2.562,4.381s4.927,1.516,4.942,1.941-.622.5-1.774.515a6.4,6.4,0,0,1-4.124-1.516,5.609,5.609,0,0,1-1.986-3.684C-618.915,127.892-618.612,127.27-618.445,127.285Z" transform="translate(709.969 -66.511)" fill="#263238"/>
      <path id="Trazado_146303" data-name="Trazado 146303" d="M-615.588,110.156c-.242.637-2.608.318-5.382.622s-5.033,1.061-5.4.47c-.167-.273.227-.879,1.137-1.516a9.368,9.368,0,0,1,8.217-.849C-615.937,109.337-615.482,109.853-615.588,110.156Z" transform="translate(706.065 -76.307)" fill="#263238"/>
      <path id="Trazado_146304" data-name="Trazado 146304" d="M-601.664,110.6c-.424.531-2.047,0-4.018,0s-3.623.334-4-.243c-.167-.273.106-.8.834-1.3a5.609,5.609,0,0,1,3.275-.864,5.7,5.7,0,0,1,3.184,1.107C-601.709,109.779-601.482,110.355-601.664,110.6Z" transform="translate(714.67 -76.37)" fill="#263238"/>
      <path id="Trazado_146305" data-name="Trazado 146305" d="M-579.143,113.5c-3.032,4.336-14.857,2.577-20.785-1.88a33.9,33.9,0,0,0-12.856-6.731,13.2,13.2,0,0,0-10.006,1.971,25.425,25.425,0,0,0-7.262,7.489c3.623,8.065,2.062,17.4.44,26.091a4.455,4.455,0,0,1-1.137,2.638c-1.258,1.092-3.275.424-4.548-.713a13.744,13.744,0,0,1-3.441-7.065,45.483,45.483,0,0,1-.955-18.011,31.134,31.134,0,0,1,7.58-16.207,29.579,29.579,0,0,1,20.209-9.1,36.379,36.379,0,0,1,21.422,6.261,21.231,21.231,0,0,1,7.277,7.459" transform="translate(698.956 -84.732)" fill="#263238"/>
      <path id="Trazado_146306" data-name="Trazado 146306" d="M-629.722,456.465l.728,31.018s-31.291,11.143-31.716,16.889l60.187.773.879-48.377Z" transform="translate(688.362 103.363)" fill="#00bcd4"/>
      <g id="Grupo_74195" data-name="Grupo 74195" transform="translate(75.063 588.421)" opacity="0.6">
        <path id="Trazado_146307" data-name="Trazado 146307" d="M-626.5,475.385a2.456,2.456,0,0,1,1.652,2.82,2.351,2.351,0,0,1-2.774,1.683,2.622,2.622,0,0,1-1.759-3.032,2.456,2.456,0,0,1,3.032-1.41" transform="translate(629.437 -475.326)" fill="#fff"/>
      </g>
      <g id="Grupo_74196" data-name="Grupo 74196" transform="translate(27.63 603.687)" opacity="0.6">
        <path id="Trazado_146308" data-name="Trazado 146308" d="M-600.515,490.277l-.091-4.882-57.686,1.092s-2.7,1.122-2.411,3.032Z" transform="translate(660.724 -485.395)" fill="#fff"/>
      </g>
      <path id="Trazado_146309" data-name="Trazado 146309" d="M-640.428,476.825c0,.288,1.516.44,2.9,1.41s2.2,2.213,2.471,2.092-.152-1.819-1.91-3.032S-640.535,476.552-640.428,476.825Z" transform="translate(698.826 113.703)" fill="#263238"/>
      <path id="Trazado_146310" data-name="Trazado 146310" d="M-644.62,478.425c0,.288,1.2.8,2.183,2.047s1.243,2.577,1.516,2.577.5-1.668-.758-3.214S-644.6,478.137-644.62,478.425Z" transform="translate(696.665 114.634)" fill="#263238"/>
      <path id="Trazado_146311" data-name="Trazado 146311" d="M-646.286,485.076c.273,0,.7-1.395,0-3.032s-2.092-2.274-2.229-2.031.713,1.122,1.3,2.456S-646.574,485.045-646.286,485.076Z" transform="translate(694.648 115.488)" fill="#263238"/>
      <path id="Trazado_146312" data-name="Trazado 146312" d="M-640.016,472.385c.106.273,1.516-.106,3.123,0s3.032.682,3.108.424-1.076-1.3-3.032-1.44S-640.168,472.158-640.016,472.385Z" transform="translate(699.035 111.047)" fill="#263238"/>
      <path id="Trazado_146313" data-name="Trazado 146313" d="M-640.04,469.515a5.656,5.656,0,0,0,3.032,0,13.867,13.867,0,0,0,3.153-.925,16.019,16.019,0,0,0,1.744-.895,4,4,0,0,0,.925-.7,1.259,1.259,0,0,0,.152-1.516,1.589,1.589,0,0,0-1.273-.7,4.229,4.229,0,0,0-1.137.136,13,13,0,0,0-1.88.622,11.084,11.084,0,0,0-2.8,1.789c-1.41,1.273-1.91,2.365-1.8,2.426s.819-.8,2.259-1.865a12.094,12.094,0,0,1,2.714-1.516,10.117,10.117,0,0,1,1.728-.515c.637-.152,1.182-.152,1.349.136s0,.152-.076.333a2.866,2.866,0,0,1-.667.5,15.659,15.659,0,0,1-1.607.894,15.967,15.967,0,0,1-2.926,1.076A23.782,23.782,0,0,0-640.04,469.515Z" transform="translate(699.029 107.656)" fill="#263238"/>
      <path id="Trazado_146314" data-name="Trazado 146314" d="M-638.473,471.451a4.9,4.9,0,0,0,.819-2.911,9.444,9.444,0,0,0-.364-3.3,10.289,10.289,0,0,0-.743-1.834,2.456,2.456,0,0,0-1.91-1.516,1.38,1.38,0,0,0-1.258.819,3.921,3.921,0,0,0-.333,1.107,6.516,6.516,0,0,0,0,2.031,6.893,6.893,0,0,0,1.243,3.123c1.152,1.516,2.38,1.941,2.4,1.85a11.8,11.8,0,0,1-1.789-2.244,6.935,6.935,0,0,1-.925-2.85,6.735,6.735,0,0,1,0-1.728c.106-.652.349-1.152.591-1.092a2.135,2.135,0,0,1,1.046,1,9.852,9.852,0,0,1,.728,1.653,10.817,10.817,0,0,1,.546,3.032C-638.306,470.3-638.64,471.391-638.473,471.451Z" transform="translate(697.841 106.16)" fill="#263238"/>
      <path id="Trazado_146315" data-name="Trazado 146315" d="M-557.787,457.321l-1.167,31s31.124,11.6,31.473,17.344l-60.2-.091-.167-48.392Z" transform="translate(725.961 103.734)" fill="#00bcd4"/>
      <g id="Grupo_74197" data-name="Grupo 74197" transform="translate(146.65 589.275)" opacity="0.6">
        <path id="Trazado_146316" data-name="Trazado 146316" d="M-580.463,476.035a2.456,2.456,0,0,0-1.713,2.8,2.381,2.381,0,0,0,2.759,1.713,2.578,2.578,0,0,0,1.789-3.032A2.426,2.426,0,0,0-580.66,476" transform="translate(582.218 -475.888)" fill="#fff"/>
      </g>
      <g id="Grupo_74198" data-name="Grupo 74198" transform="translate(138.278 604.43)" opacity="0.6">
        <path id="Trazado_146317" data-name="Trazado 146317" d="M-587.74,490.767l.167-4.882,57.61,1.925s2.683,1.167,2.38,3.032Z" transform="translate(587.74 -485.885)" fill="#fff"/>
      </g>
      <path id="Trazado_146318" data-name="Trazado 146318" d="M-566.267,477.617c0,.288-1.516.424-2.941,1.364s-2.213,2.183-2.486,2.062.167-1.819,1.94-2.926S-566.206,477.344-566.267,477.617Z" transform="translate(734.26 114.139)" fill="#263238"/>
      <path id="Trazado_146319" data-name="Trazado 146319" d="M-562.647,479.3c0,.288-1.213.773-2.214,2.016s-1.289,2.562-1.516,2.547-.485-1.668.788-3.2S-562.662,479.009-562.647,479.3Z" transform="translate(736.946 115.081)" fill="#263238"/>
      <path id="Trazado_146320" data-name="Trazado 146320" d="M-561.5,485.976c-.273,0-.682-1.41.076-3.032s2.138-2.244,2.259-2-.728,1.107-1.334,2.426S-561.21,485.945-561.5,485.976Z" transform="translate(739.376 115.968)" fill="#263238"/>
      <path id="Trazado_146321" data-name="Trazado 146321" d="M-566.4,473.2c-.121.258-1.516-.136-3.123,0s-2.956.622-3.032.379,1.092-1.3,3.032-1.41S-566.237,472.971-566.4,473.2Z" transform="translate(733.851 111.462)" fill="#263238"/>
      <path id="Trazado_146322" data-name="Trazado 146322" d="M-565.3,470.346a5.626,5.626,0,0,1-3.032,0,13.626,13.626,0,0,1-3.138-.985,13.968,13.968,0,0,1-1.743-.925,3.452,3.452,0,0,1-.91-.7,1.3,1.3,0,0,1-.121-1.516,1.637,1.637,0,0,1,1.289-.667,3.48,3.48,0,0,1,1.122.167,9.777,9.777,0,0,1,1.88.637,10.863,10.863,0,0,1,2.774,1.834c1.395,1.289,1.865,2.4,1.774,2.456s-.819-.834-2.229-1.9a12.425,12.425,0,0,0-2.7-1.516,10.94,10.94,0,0,0-1.728-.531c-.637-.167-1.182-.167-1.334.106s0,.152,0,.349a3.24,3.24,0,0,0,.667.515,14.2,14.2,0,0,0,1.516.91,17.111,17.111,0,0,0,2.911,1.122A18.78,18.78,0,0,1-565.3,470.346Z" transform="translate(732.885 108.053)" fill="#263238"/>
      <path id="Trazado_146323" data-name="Trazado 146323" d="M-568.388,472.251a4.853,4.853,0,0,1-.788-2.926,9.859,9.859,0,0,1,.409-3.29,10.433,10.433,0,0,1,.773-1.834,2.5,2.5,0,0,1,1.925-1.516,1.4,1.4,0,0,1,1.258.849,4.163,4.163,0,0,1,.318,1.092,6.521,6.521,0,0,1,0,2.032,6.849,6.849,0,0,1-1.289,3.123c-1.182,1.516-2.411,1.91-2.426,1.8a12.614,12.614,0,0,0,1.834-2.213,7.118,7.118,0,0,0,.955-2.835,6.216,6.216,0,0,0,0-1.743c-.091-.637-.333-1.152-.561-1.092a2.245,2.245,0,0,0-1.061.985,9.827,9.827,0,0,0-.743,1.637,11.01,11.01,0,0,0-.591,3.032C-568.54,471.1-568.146,472.206-568.388,472.251Z" transform="translate(735.593 106.573)" fill="#263238"/>
      <path id="Trazado_146324" data-name="Trazado 146324" d="M-556.7,260.531l45.572,326.921-44.208-.864-48.893-273.9,10.749,275.209-48.408-2.987-17.01-326.36Z" transform="translate(689.296 1.226)" fill="#263238"/>
      <path id="Trazado_146325" data-name="Trazado 146325" d="M-636.327,166.239l-.591-18.284s3.639,16.677,22.665,16.51c18.193-.2,17.844-14.736,17.844-14.736l.652,7.368v29.76l-11.856,48.514-15.161,1.925-16.677-66.388Z" transform="translate(699.333 -55.844)" fill="#00bcd4"/>
      <path id="Trazado_146326" data-name="Trazado 146326" d="M-599.175,156.831a2.011,2.011,0,0,1-.212.394,10.588,10.588,0,0,1-.728,1.061,15.534,15.534,0,0,1-3.381,3.275,19.692,19.692,0,0,1-6.322,3.032,22.234,22.234,0,0,1-8.535.591,27.747,27.747,0,0,1-8.2-2.471,36.1,36.1,0,0,1-5.988-3.608,41.168,41.168,0,0,1-3.623-3.032c-.409-.379-.712-.682-.925-.894s-.3-.318-.288-.334l.349.273.97.834c.834.728,2.077,1.743,3.684,2.9a37.668,37.668,0,0,0,5.973,3.517,28.253,28.253,0,0,0,8.1,2.4,22.154,22.154,0,0,0,8.4-.546,19.723,19.723,0,0,0,6.261-2.85,17.134,17.134,0,0,0,3.426-3.153C-599.539,157.331-599.205,156.816-599.175,156.831Z" transform="translate(700.401 -52.289)" fill="#263238"/>
      <path id="Trazado_146327" data-name="Trazado 146327" d="M-597.4,411l.273-78.471-.333-102.455-25.773-62.992-.819-18.951-14.918,11.34s-21.74,74.832-22.074,72.225,5.246,66.479,5.246,66.479l-8.581,116.372Z" transform="translate(686.468 -55.751)" fill="#ebebeb"/>
      <path id="Trazado_146328" data-name="Trazado 146328" d="M-599.047,155.791c-4.381-7.656-6.656-6.868-6.656-6.868l.227,2.729V157.4L-607.552,182-621.5,228.136l2.168,102.152,5.185,80.775,64.493-5.276L-572.077,294.54l8.05-76.833-.576-42.343Z" transform="translate(708.596 -55.357)" fill="#ebebeb"/>
      <path id="Trazado_146329" data-name="Trazado 146329" d="M-617,264.766a8.109,8.109,0,0,1-.94,1.516,30.328,30.328,0,0,1-3.184,3.82,33.488,33.488,0,0,1-30.169,9.6,30.46,30.46,0,0,1-4.806-1.289,7.3,7.3,0,0,1-1.668-.743c0-.152,2.456.849,6.565,1.516a34.869,34.869,0,0,0,29.7-9.4C-618.519,266.873-617.125,264.675-617,264.766Z" transform="translate(689.879 4.435)" fill="#263238"/>
      <path id="Trazado_146330" data-name="Trazado 146330" d="M-630.922,278.11a18.807,18.807,0,0,0-.773-3.032l6.792-3.957a22.2,22.2,0,0,0-13.175-3.639,24.9,24.9,0,0,0-11.613,4.472,7.678,7.678,0,0,0-2.244,1.516,4.2,4.2,0,0,0-.606.409,6.416,6.416,0,0,0-.849.849h0a12.574,12.574,0,0,0-2.38,5.973,44.423,44.423,0,0,0-.258,13.811c.243,1.759.91,3.836,2.653,4.169a2.746,2.746,0,0,0,2.668-1.243,37.2,37.2,0,0,0,.576,5.928c.273,1.516,1,3.275,2.517,3.32s2.411-1.865,2.683-3.426a37.056,37.056,0,0,0,.409-10.036c.849,1.7.531,3.714.8,5.594s1.728,3.942,3.593,3.563,2.4-2.653,2.593-4.548c.485-4.867.985-9.748,1.516-14.615,1,1.637.955,3.7,1.7,5.458s3.123,3.184,4.548,1.865a3.959,3.959,0,0,0,.576-3.548C-629.8,284.068-630.345,281.1-630.922,278.11Z" transform="translate(690.562 5.827)" fill="#00bcd4"/>
      <path id="Trazado_146331" data-name="Trazado 146331" d="M-625.674,306.586A9.177,9.177,0,0,1-627.1,308.1a29.456,29.456,0,0,1-4.457,3.457,22.043,22.043,0,0,1-7.792,3.123,16.555,16.555,0,0,1-10.173-1.273,14.254,14.254,0,0,1-6.853-7.58,24.353,24.353,0,0,1-1.683-8.217,52.272,52.272,0,0,1,.091-5.64,10.8,10.8,0,0,1,.228-2.047c.167,0,0,2.956.242,7.58a24.751,24.751,0,0,0,1.789,7.959,13.644,13.644,0,0,0,6.534,7.171,16.252,16.252,0,0,0,9.7,1.273,22.617,22.617,0,0,0,7.58-2.9A72.03,72.03,0,0,0-625.674,306.586Z" transform="translate(689.711 17.42)" fill="#263238"/>
      <path id="Trazado_146332" data-name="Trazado 146332" d="M-578.815,265.359a7.33,7.33,0,0,1-.97.728A19.49,19.49,0,0,1-582.7,267.6a28.447,28.447,0,0,1-21.3.44,22.555,22.555,0,0,1-3.032-1.41c-.667-.409-1.016-.637-1-.7s1.516.7,4.169,1.516a31.151,31.151,0,0,0,20.891-.424C-580.362,266.132-578.891,265.237-578.815,265.359Z" transform="translate(715.547 4.736)" fill="#263238"/>
      <path id="Trazado_146333" data-name="Trazado 146333" d="M-619.457,310.424a5.35,5.35,0,0,1-.091-1.122v-3.214c0-2.88-.091-6.9-.167-11.84-.152-10.067-.364-23.817-.606-39.023s-.5-28.987-.667-39.053c0-4.927-.121-8.945-.152-11.825v-3.214a5.708,5.708,0,0,1,0-1.137,6.058,6.058,0,0,1,.106,1.122c0,.819.091,1.88.152,3.214.106,2.88.243,6.9.409,11.84.288,9.976.637,23.787.895,39.038s.394,29.048.379,39.038c0,5,0,9.1-.091,11.84,0,1.334,0,2.411-.076,3.214A9.251,9.251,0,0,1-619.457,310.424Z" transform="translate(708.767 -28.989)" fill="#263238"/>
      <path id="Trazado_146334" data-name="Trazado 146334" d="M-647.48,163.715l3.032,2.289-2.138,13.963,35.779,37.477L-643.3,174.782l2.774-11.067Z" transform="translate(695.189 -47.711)" fill="#e0e0e0"/>
      <path id="Trazado_146335" data-name="Trazado 146335" d="M-589.629,268.3l-54.9-16.1-1.819-41.691,15.024-54.9s-35.855,17.859-38.3,29.26-8.338,39.084-8.96,59.126c-.561,17.9-.637,29.866,3.441,35.582,6.868,9.612,36.294,15.828,65.66,14.4,20.664-1.016,41.282-6.458,54.017-14.433" transform="translate(679 -51.891)" fill="#ebebeb"/>
      <path id="Trazado_146336" data-name="Trazado 146336" d="M-610.047,226.373l-.182-.2-.5-.606-1.85-2.426-6.792-8.823-22.316-29.214-1.683-2.213v-.167c.955-3.82,1.88-7.58,2.774-11.052l.182.227H-647.6V159.318h0l10.794-8.2,3.032-2.213.788-.576.273-.182-.258.212-.743.606-2.911,2.289-10.719,8.308v12.2l-.106-.167h7.186v.227c-.894,3.532-1.819,7.247-2.774,11.067v-.167l1.683,2.2,22.225,29.29,6.7,8.9,1.8,2.426.47.652Z" transform="translate(695.127 -55.746)" fill="#263238"/>
      <path id="Trazado_146337" data-name="Trazado 146337" d="M-556.372,166.355s13.008,9.612,14.145,25.06c.91,12.553,3.032,47,3.4,54.411.591,11.658-8.49,38.947-32.11,31.215C-585.1,272.4-637.45,254.6-637.45,254.6l3.472-22.225,62.158,3.7,1.228-51.819Z" transform="translate(700.365 -46.349)" fill="#ebebeb"/>
      <path id="Trazado_146338" data-name="Trazado 146338" d="M-625.015,212.024s-17.586-1.9-21.664-.925-9.49,5.746-9.49,5.746l.091,6.944,28.289,7.944Z" transform="translate(690.705 -23.401)" fill="#b78876"/>
      <path id="Trazado_146339" data-name="Trazado 146339" d="M-621.07,227.442l.091-.227a2.894,2.894,0,0,1,.258-.7c.258-.622.606-1.516,1.046-2.623.94-2.3,2.289-5.579,3.942-9.642s3.669-8.9,5.882-14.266c.561-1.334,1.107-2.729,1.8-4.093s1.44-2.729,2.244-4.093a90.747,90.747,0,0,1,5.594-8.065c1.016-1.3,2.032-2.577,3.032-3.79v.2l-2.183-5.579v-.182h.2l9.1-3.123-.091.258-10.339-17.4a13.524,13.524,0,0,0-3.457-4.548,4.947,4.947,0,0,0-1.395-.576l-.515-.121h.531a4.313,4.313,0,0,1,1.425.515,6.4,6.4,0,0,1,1.774,1.713,29.729,29.729,0,0,1,1.819,2.744l10.43,17.389.106.2h-.2l-9.1,3.138.106-.243c.713,1.819,1.516,3.669,2.2,5.564v.106l-.076.091c-1.046,1.213-2.077,2.486-3.032,3.79a93.175,93.175,0,0,0-5.564,8.02c-.8,1.349-1.592,2.7-2.244,4.063s-1.243,2.714-1.8,4.063l-5.958,14.236c-1.713,4.033-3.032,7.307-4.048,9.6l-1.122,2.592-.3.682C-621.024,227.321-621.055,227.457-621.07,227.442Z" transform="translate(708.818 -55.375)" fill="#263238"/>
      <path id="Trazado_146340" data-name="Trazado 146340" d="M-539.653,245.339l-.212.227-.667.652a20.968,20.968,0,0,1-2.865,2.168,19.322,19.322,0,0,1-5.23,2.183,20.783,20.783,0,0,1-7.474.47,23.818,23.818,0,0,1-4.29-.894c-1.516-.47-2.926-1.046-4.472-1.516-3.032-1.107-6.352-2.259-9.824-3.487-6.928-2.426-14.569-5.018-22.635-7.671-16.1-5.291-30.791-9.748-41.449-12.932l-12.614-3.729-3.426-1.016-.895-.273-.3-.106h.318l.894.243,3.457.955c3.032.834,7.307,2.062,12.644,3.608,10.612,3.032,25.379,7.58,41.494,12.826,8.065,2.638,15.706,5.261,22.635,7.7,3.457,1.228,6.746,2.4,9.824,3.532,1.516.546,3.032,1.122,4.442,1.516a23.287,23.287,0,0,0,4.23.91,20.839,20.839,0,0,0,7.4-.409,19.364,19.364,0,0,0,5.2-2.107,22.145,22.145,0,0,0,2.88-2.092l.7-.622C-539.744,245.4-539.653,245.324-539.653,245.339Z" transform="translate(690.787 -18.967)" fill="#263238"/>
      <path id="Trazado_146341" data-name="Trazado 146341" d="M-651.391,219.528c0,.076-1-.136-2.562,0a11.484,11.484,0,0,0-2.729.44,12.635,12.635,0,0,0-3.032,1.395,14.309,14.309,0,0,0-4.26,4.366c-.834,1.349-1.2,2.274-1.258,2.244s0-.243.212-.667a10.323,10.323,0,0,1,.819-1.713,13.321,13.321,0,0,1,4.275-4.548,12.871,12.871,0,0,1,3.169-1.41,11.085,11.085,0,0,1,2.8-.379,9.466,9.466,0,0,1,1.9.182A2.161,2.161,0,0,1-651.391,219.528Z" transform="translate(686.017 -19.05)" fill="#263238"/>
      <path id="Trazado_146342" data-name="Trazado 146342" d="M-667.5,216.452v-.2a1.507,1.507,0,0,1,.333-.485,3.538,3.538,0,0,1,1.956-.97,9.948,9.948,0,0,1,3.229,0,18.394,18.394,0,0,1,3.82.94,16.76,16.76,0,0,1,6.064,3.7,13.072,13.072,0,0,1,1.41,1.652,4.566,4.566,0,0,1,.409.682,17.107,17.107,0,0,0-2.016-2.122,17.826,17.826,0,0,0-6.064-3.548,18.536,18.536,0,0,0-3.745-.94,9.994,9.994,0,0,0-3.123-.091,3.454,3.454,0,0,0-1.9.8A5.218,5.218,0,0,0-667.5,216.452Z" transform="translate(684.858 -21.417)" fill="#263238"/>
      <path id="Trazado_146343" data-name="Trazado 146343" d="M-646.424,189.811a6.193,6.193,0,0,1-.258-1.137c-.106-.349-.273-.773-.44-1.273a7.969,7.969,0,0,0-.819-1.592,22.386,22.386,0,0,0-2.79-3.729,30.294,30.294,0,0,0-4.29-3.76,25.61,25.61,0,0,0-9.369-4.306,19.333,19.333,0,0,0-3.123-.409,6.145,6.145,0,0,1-1.167-.091,6.524,6.524,0,0,1,1.167,0,16.22,16.22,0,0,1,3.169.288,24.523,24.523,0,0,1,9.551,4.26,28.535,28.535,0,0,1,4.321,3.836,21.1,21.1,0,0,1,2.774,3.836,17,17,0,0,1,.773,1.652c.167.515.3.955.394,1.319A6.612,6.612,0,0,1-646.424,189.811Z" transform="translate(684.249 -42.668)" fill="#263238"/>
      <path id="Trazado_146344" data-name="Trazado 146344" d="M-558.864,234.691v-1.061A27.813,27.813,0,0,0-559,230.6a42.77,42.77,0,0,0-2.213-10.749,15.4,15.4,0,0,0-1.516-3.275,6.552,6.552,0,0,0-2.911-2.471c-2.5-1.076-5.5-.94-8.566-1.107l-20.027-.834c-16.54-.728-31.246-1.349-40.494-1.85l.121-.091c-.561,3.4-1,6.064-1.3,7.959-.167.91-.288,1.607-.364,2.107a.864.864,0,0,1-.106.546v-.561c0-.5.182-1.2.3-2.107.288-1.88.7-4.548,1.2-7.99v-.091h.121l40.494,1.683,20.027.864c1.516.091,3.032.121,4.548.243a12.689,12.689,0,0,1,4.169.94,6.7,6.7,0,0,1,3.032,2.592,15.611,15.611,0,0,1,1.516,3.35,40.361,40.361,0,0,1,2.092,10.84c.091,1.289.091,2.3.076,3.032v.773A1.874,1.874,0,0,1-558.864,234.691Z" transform="translate(700.917 -23.782)" fill="#263238"/>
      <path id="Trazado_146345" data-name="Trazado 146345" d="M-593,194.225c.106,0,.2,6.064.2,13.447S-592.9,221.1-593,221.1s-.2-6.064-.2-13.432S-593.109,194.225-593,194.225Z" transform="translate(723.201 -31.967)" fill="#263238"/>
      <path id="Trazado_146346" data-name="Trazado 146346" d="M-669.172,174.025a1.388,1.388,0,0,1-.152.5,7.345,7.345,0,0,0-.44,1.516c-.364,1.289-.834,3.214-1.349,5.731-1.031,5.018-2.3,12.371-3.745,21.573-.713,4.548-1.516,9.672-2.214,15.161-.379,2.744-.622,5.594-.819,8.551s-.349,5.988-.47,9.1c-.227,6.261-.364,12.886-.182,19.8,0,1.713.121,3.457.273,5.215a22,22,0,0,0,.288,2.623,22.093,22.093,0,0,0,.637,2.577,14.632,14.632,0,0,0,2.471,4.715,10.711,10.711,0,0,0,4.245,3.275h0a63.181,63.181,0,0,0,11.052,4.23c3.866,1.152,7.838,2.092,11.886,2.911a163.879,163.879,0,0,0,26.7,3.26,122.116,122.116,0,0,0,12.75-.334q6.231-.432,12.128-1.3a128.338,128.338,0,0,0,21.8-5.109,111.535,111.535,0,0,0,17.586-7.58v.243l-24.12-8.535-6.458-2.32-1.683-.622-.561-.212.576.182,1.668.652,6.519,2.259,24.166,8.353.288.106-.273.136a109.888,109.888,0,0,1-17.617,7.58,125.458,125.458,0,0,1-21.786,5.109c-3.927.591-7.99,1.031-12.128,1.319a122.977,122.977,0,0,1-12.8.349,164.434,164.434,0,0,1-26.758-3.244c-4.063-.834-8.05-1.774-11.916-2.941a64.923,64.923,0,0,1-11.128-4.245h0a10.857,10.857,0,0,1-4.412-3.381,14.86,14.86,0,0,1-2.532-4.851,19.962,19.962,0,0,1-.652-2.623c-.106-.894-.258-1.774-.3-2.653-.136-1.774-.2-3.517-.243-5.246-.182-6.913,0-13.538.2-19.815q.182-4.7.485-9.1c.212-2.956.455-5.806.834-8.551.758-5.473,1.516-10.612,2.274-15.16,1.516-9.2,2.774-16.555,3.866-21.573.531-2.517,1.016-4.442,1.395-5.731.167-.652.379-1.122.485-1.516Z" transform="translate(678.949 -42.391)" fill="#263238"/>
      <path id="Trazado_146347" data-name="Trazado 146347" d="M-656.17,230.01c9.187-10.158,8.778-28.229,3.517-41.055-.485,13.887-2.122,26.213-3.381,39.705" transform="translate(690.705 -34.686)" fill="#e0e0e0"/>
      <path id="Trazado_146348" data-name="Trazado 146348" d="M-652.673,190.665a1.756,1.756,0,0,1,0,.455,6.767,6.767,0,0,1-.091,1.258c-.091,1.152-.212,2.744-.364,4.669-.318,3.972-.773,9.384-1.258,15.373s-.895,11.386-1.213,15.373c-.136,1.925-.258,3.5-.349,4.654a4.48,4.48,0,0,1-.106,1.273c-.106.334,0,.44,0,.44a1.26,1.26,0,0,1,0-.44v-1.273c0-1.107.121-2.7.227-4.669.227-3.942.606-9.384,1.092-15.388s.985-11.446,1.38-15.373c.212-1.925.364-3.5.485-4.639a7.926,7.926,0,0,1,.167-1.273A1.528,1.528,0,0,1-652.673,190.665Z" transform="translate(690.74 -33.804)" fill="#263238"/>
      <path id="Trazado_146349" data-name="Trazado 146349" d="M-638.843,178.555c.106,0,.2,3.532.2,7.883s-.091,7.883-.2,7.883-.2-3.532-.2-7.883S-638.949,178.555-638.843,178.555Z" transform="translate(699.545 -40.053)" fill="#263238"/>
      <path id="Trazado_146350" data-name="Trazado 146350" d="M-642.86,200.16a8.074,8.074,0,0,0,1.7,4.184,5.509,5.509,0,0,0,4.017,2.138,6.139,6.139,0,0,0,5.427-2.714,15.466,15.466,0,0,0,.758-11.795,6.763,6.763,0,0,0-5.564-4.548,6.154,6.154,0,0,0-6.064,4.685" transform="translate(697.573 -35.476)" fill="#e0e0e0"/>
      <path id="Trazado_146351" data-name="Trazado 146351" d="M-642.559,192.183a5.134,5.134,0,0,1,.606-1.607,6.781,6.781,0,0,1,1.243-1.607,5.517,5.517,0,0,1,2.32-1.364,5.663,5.663,0,0,1,1.516-.258,4.71,4.71,0,0,1,1.7.227,6.559,6.559,0,0,1,3.032,2.183,8.733,8.733,0,0,1,1.789,3.73,15.837,15.837,0,0,1,.333,4.427,12.209,12.209,0,0,1-1.9,6.428,5.606,5.606,0,0,1-2.486,1.865,6.5,6.5,0,0,1-2.79.47h0a4.254,4.254,0,0,1-2-.485,6.75,6.75,0,0,1-1.516-1.061,7.441,7.441,0,0,1-1.652-2.456,7.185,7.185,0,0,1-.516-1.8,3.932,3.932,0,0,1,0-.5V200.2a10.587,10.587,0,0,0,.728,2.4,8,8,0,0,0,1.653,2.35,6.919,6.919,0,0,0,1.516.97,3.735,3.735,0,0,0,1.865.44h0a5.974,5.974,0,0,0,4.958-2.259,11.94,11.94,0,0,0,1.819-6.231,11.339,11.339,0,0,0-2.016-7.9,6.574,6.574,0,0,0-2.865-2.107,4.552,4.552,0,0,0-1.607-.227,5.607,5.607,0,0,0-3.745,1.516,7.117,7.117,0,0,0-1.243,1.516A15.924,15.924,0,0,0-642.559,192.183Z" transform="translate(697.56 -35.519)" fill="#263238"/>
      <path id="Trazado_146352" data-name="Trazado 146352" d="M-644.01,200.26a8.076,8.076,0,0,0,1.7,4.184,5.476,5.476,0,0,0,4.018,2.138,6.062,6.062,0,0,0,5.427-2.729,15.428,15.428,0,0,0,.758-11.78,6.808,6.808,0,0,0-5.579-4.548,6.171,6.171,0,0,0-6.064,4.7" transform="translate(696.98 -35.424)" fill="#e0e0e0"/>
      <path id="Trazado_146353" data-name="Trazado 146353" d="M-643.7,192.264a5.135,5.135,0,0,1,.606-1.607,7.005,7.005,0,0,1,1.228-1.622,6.054,6.054,0,0,1,2.335-1.364,5.586,5.586,0,0,1,1.516-.243,4.469,4.469,0,0,1,1.713.227,6.636,6.636,0,0,1,3.032,2.183,8.732,8.732,0,0,1,1.789,3.729,15.744,15.744,0,0,1,.334,4.412,12.266,12.266,0,0,1-1.9,6.443,5.9,5.9,0,0,1-2.486,1.865,6.524,6.524,0,0,1-2.8.47h0a4.18,4.18,0,0,1-2.016-.5,6.435,6.435,0,0,1-1.516-1.046,7.582,7.582,0,0,1-1.653-2.456,7.323,7.323,0,0,1-.515-1.8,3.932,3.932,0,0,1,0-.5.44.44,0,0,1,0-.167,10.587,10.587,0,0,0,.728,2.4,7.468,7.468,0,0,0,1.653,2.335,6.059,6.059,0,0,0,1.516.985,3.889,3.889,0,0,0,1.865.44h0a5.961,5.961,0,0,0,4.958-2.244,11.972,11.972,0,0,0,1.819-6.231,11.4,11.4,0,0,0-2.016-7.9,6.408,6.408,0,0,0-2.88-2.107,4.123,4.123,0,0,0-1.516-.227,5.19,5.19,0,0,0-1.516.212,5.429,5.429,0,0,0-2.274,1.289,6.262,6.262,0,0,0-1.243,1.516A16.017,16.017,0,0,0-643.7,192.264Z" transform="translate(696.962 -35.479)" fill="#263238"/>
      <path id="Trazado_146354" data-name="Trazado 146354" d="M-640.4,190.1a3.806,3.806,0,0,0-4,2.3,6.583,6.583,0,0,0,0,4.867,6.057,6.057,0,0,0,1.243,2.183,3.3,3.3,0,0,0,2.229,1.092,3.9,3.9,0,0,0,3.032-1.819,7,7,0,0,0,1.061-5.731c-.349-1.289-1.3-2.608-2.638-2.653" transform="translate(696.537 -34.114)" fill="#e0e0e0"/>
      <path id="Trazado_146355" data-name="Trazado 146355" d="M-639.363,190.384h.3a1.994,1.994,0,0,1,.8.273,3.973,3.973,0,0,1,1.713,2.562,7.108,7.108,0,0,1-.47,4.548,5.779,5.779,0,0,1-1.668,2.2,3.242,3.242,0,0,1-2.88.7,4.093,4.093,0,0,1-2.3-1.88,8.908,8.908,0,0,1-.955-2.577,5.836,5.836,0,0,1,.743-4.548,4.076,4.076,0,0,1,2.608-1.652,3.062,3.062,0,0,1,.849,0c.2,0,.288.076.288.091a3.867,3.867,0,0,0-1.107,0,4.031,4.031,0,0,0-2.411,1.668,5.575,5.575,0,0,0-.622,4.275,8.265,8.265,0,0,0,.94,2.456,3.689,3.689,0,0,0,2.077,1.7,2.882,2.882,0,0,0,2.547-.622,5.742,5.742,0,0,0,1.516-2.047,6.906,6.906,0,0,0,.515-4.351,3.951,3.951,0,0,0-1.516-2.5A3.508,3.508,0,0,0-639.363,190.384Z" transform="translate(696.472 -34.16)" fill="#263238"/>
      <path id="Trazado_146356" data-name="Trazado 146356" d="M-638.124,198.808a4.462,4.462,0,0,0-.394-.531,2.805,2.805,0,0,0-1.273-.819,6.676,6.676,0,0,0-1.516-.243c-.425,0-.682,0-.682-.121s.258-.106.682-.152a4.324,4.324,0,0,1,1.683.152,2.5,2.5,0,0,1,1.38,1.016C-638.063,198.5-638.078,198.808-638.124,198.808Z" transform="translate(698.022 -30.576)" fill="#263238"/>
      <path id="Trazado_146357" data-name="Trazado 146357" d="M-637.578,189.415a1.671,1.671,0,0,1-.47.531,3.726,3.726,0,0,1-1.516.7,3.807,3.807,0,0,1-1.713-.106c-.425-.136-.652-.3-.622-.334a5.747,5.747,0,0,0,4.366-.788Z" transform="translate(698.068 -34.449)" fill="#263238"/>
      <path id="Trazado_146358" data-name="Trazado 146358" d="M-605.25,154.175a.533.533,0,0,1,.243.091,4.487,4.487,0,0,1,.667.334,12.9,12.9,0,0,1,2.229,1.607,15.962,15.962,0,0,1,4.806,7.58,48.443,48.443,0,0,1,1.834,8.839c.121,1.152.2,2.077.243,2.729a5,5,0,0,1,0,1,4.265,4.265,0,0,1-.167-.985c-.106-.713-.227-1.622-.364-2.714a57.728,57.728,0,0,0-1.941-8.763,16.491,16.491,0,0,0-4.548-7.5A24.62,24.62,0,0,0-605.25,154.175Z" transform="translate(716.982 -52.634)" fill="#263238"/>
      <path id="Trazado_146359" data-name="Trazado 146359" d="M-611.292,209.049c2.168-.091,3.9-2.244,6.064-2.122a3.032,3.032,0,0,1,3.184,2.873,3.033,3.033,0,0,1-2.873,3.184,3.042,3.042,0,0,1-.811-.068c-2.274-.273-3.593-2.926-5.822-3.441" transform="translate(713.731 -25.414)" fill="#263238"/>
      <path id="Trazado_146360" data-name="Trazado 146360" d="M-591.093,230.693a11.814,11.814,0,0,1-2.016-.167l.121-.728a8.609,8.609,0,0,0,6.671-1.3c2.2-1.622,3.623-4.548,4.23-8.626v-.152c.242-1.637.576-33.535.576-39.584a10.34,10.34,0,0,0-8.657-10.809c-.333,0-7.883-1.319-11.886,9.021-4.184,10.809-10.885,31.67-11.34,34.111a6.4,6.4,0,0,1-.227,1.092c-.7,3.138-2.153,9.642,2.2,13.4,4.836,4.169,8.657,2.562,8.808,2.486l.318.682c-.182.076-4.4,1.9-9.612-2.608-4.685-4.048-3.169-10.855-2.441-14.114l.228-1.076c.44-2.456,7.171-23.408,11.37-34.248s12.629-9.49,12.7-9.475a11.2,11.2,0,0,1,9.293,11.537c0,4.988-.334,37.9-.591,39.69v.152c-.622,4.306-2.153,7.368-4.548,9.1A8.527,8.527,0,0,1-591.093,230.693Z" transform="translate(711.861 -45.224)" fill="#263238"/>
      <path id="Trazado_146361" data-name="Trazado 146361" d="M-585.2,183.584a13.352,13.352,0,0,0-1.516-3.714,12.964,12.964,0,0,0-3.032-3.2,12.754,12.754,0,0,0-4.791-2.259,14.067,14.067,0,0,0-9.43,1.228,17.287,17.287,0,0,0-3.29,2.35s0-.076.167-.227.288-.349.561-.591a11.383,11.383,0,0,1,2.426-1.774,13.391,13.391,0,0,1,4.2-1.516,13.644,13.644,0,0,1,5.458.106,12.646,12.646,0,0,1,4.927,2.365,12.493,12.493,0,0,1,2.956,3.32,9.794,9.794,0,0,1,1.152,2.79,4.5,4.5,0,0,1,.152.788C-585.186,183.493-585.186,183.584-585.2,183.584Z" transform="translate(715.945 -42.581)" fill="#263238"/>
      <path id="Trazado_146362" data-name="Trazado 146362" d="M-574.338,223.434a24.991,24.991,0,0,0-1.031-3.184,13.911,13.911,0,0,0-5.048-6.064,11.044,11.044,0,0,0-4.109-1.516c-1.349-.227-2.577-.3-3.608-.379l-2.456-.167a3.478,3.478,0,0,1-.91-.121,4.345,4.345,0,0,1,.91,0h2.456a32.65,32.65,0,0,1,3.669.3,10.851,10.851,0,0,1,4.245,1.516,13.639,13.639,0,0,1,5.109,6.292,12.272,12.272,0,0,1,.682,2.38A4.553,4.553,0,0,1-574.338,223.434Z" transform="translate(724.078 -22.804)" fill="#263238"/>
      <path id="Trazado_146363" data-name="Trazado 146363" d="M-605,218.221s7.338-11.113,9.218-12.568,17.874-8.672,19.709-7.58.713,3.684.713,3.684,6.777-2.365,7.5-1.44a3.35,3.35,0,0,1,0,3.82s3.745-.576,3.745.576a4.744,4.744,0,0,1-2.153,3.9c-1.728,1.3-12.993,8.793-13.887,10.855l-3.654-.212Z" transform="translate(717.111 -30.038)" fill="#b78876"/>
      <path id="Trazado_146364" data-name="Trazado 146364" d="M-591.07,212.941a2.145,2.145,0,0,1,.334-.7,13.7,13.7,0,0,1,1.2-1.728,20.063,20.063,0,0,1,5.321-4.548,40.852,40.852,0,0,1,6.292-3.032l1.971-.713a2.741,2.741,0,0,1,.758-.2,5.758,5.758,0,0,1-.7.349l-1.925.819a50.113,50.113,0,0,0-6.2,3.032,22.866,22.866,0,0,0-5.306,4.321C-590.494,212.016-591.009,212.986-591.07,212.941Z" transform="translate(724.3 -27.941)" fill="#aa6550"/>
      <path id="Trazado_146365" data-name="Trazado 146365" d="M-597.21,213.615a3.711,3.711,0,0,1,.349-.819c.258-.515.637-1.258,1.137-2.153a18.856,18.856,0,0,1,2.016-3.032,9.823,9.823,0,0,1,1.516-1.516c.622-.409,1.274-.8,1.956-1.2a53.691,53.691,0,0,1,7.156-3.578,21.307,21.307,0,0,1,2.3-.773,3.685,3.685,0,0,1,.879-.152,24.052,24.052,0,0,0-3.032,1.183,65.876,65.876,0,0,0-7.141,3.7c-.667.394-1.334.788-1.925,1.183a8.922,8.922,0,0,0-1.516,1.44,24.394,24.394,0,0,0-2.062,2.9l-1.228,2.077A5.365,5.365,0,0,1-597.21,213.615Z" transform="translate(721.131 -28.783)" fill="#aa6550"/>
    </g>
    <g id="freepik--speech-bubble--inject-7" transform="translate(-539.353 47.115)">
      <path id="Trazado_146366" data-name="Trazado 146366" d="M-543.662,47.115H-548.2l-1.91.273-2.244.485-2.517.622a40.784,40.784,0,0,0-12.128,5.291A42.923,42.923,0,0,0-586.7,86.017a44.56,44.56,0,0,0-.121,5.882,15.915,15.915,0,0,0,.2,3.032l.455,3.032a43.284,43.284,0,0,0,4.078,11.962,46.1,46.1,0,0,0,7.808,10.718,45.473,45.473,0,0,0,11.249,8.081,40.826,40.826,0,0,0,13.72,4.215,29.174,29.174,0,0,0,3.654.3c1.228,0,2.456.121,3.7,0a45.7,45.7,0,0,0,7.414-.94,43.432,43.432,0,0,0,14.736-6.2h-.44l15.009,6.064.894.364-.258-.925-4.381-16.04v.394a43.224,43.224,0,0,0,8.02-18.344,39.534,39.534,0,0,0,.576-9.4,29.7,29.7,0,0,0-.424-4.548c-.121-.743-.227-1.516-.334-2.2s-.364-1.425-.531-2.122a42.921,42.921,0,0,0-16.858-24.393,40.351,40.351,0,0,0-9.976-5.261l-2.244-.819-2.138-.531-1.956-.47c-.622-.121-1.228-.182-1.789-.273-1.137-.152-2.138-.334-3.032-.379l-2.214-.076h-1.349l1.349.106,2.183.152a25.984,25.984,0,0,1,3.032.455,42.689,42.689,0,0,1,34.126,31.7c.167.7.379,1.38.516,2.092l.318,2.153a30.923,30.923,0,0,1,.394,4.442,38.039,38.039,0,0,1-.606,9.218,42.347,42.347,0,0,1-7.9,17.95l-.136.167v.227c1.41,5.185,2.88,10.612,4.381,16.055l.637-.561-15.024-6.064-.227-.091-.212.136a42.459,42.459,0,0,1-14.418,6.064,41.932,41.932,0,0,1-7.232.91,32.1,32.1,0,0,1-3.623,0,25.945,25.945,0,0,1-3.578-.3,39.939,39.939,0,0,1-13.4-4.093,43.828,43.828,0,0,1-11.022-7.9,45.006,45.006,0,0,1-7.671-10.491,42.158,42.158,0,0,1-4.048-11.7c-.152-.985-.3-1.986-.455-2.956s-.121-1.986-.2-3.032a43,43,0,0,1,.091-5.761A42.449,42.449,0,0,1-566.782,54.18a40.647,40.647,0,0,1,11.962-5.4l2.471-.652,2.274-.258,1.91-.318a15.534,15.534,0,0,0,1.592-.121l2.168-.152Z" transform="translate(586.87 -47.115)" fill="#263238"/>
      <path id="Trazado_146367" data-name="Trazado 146367" d="M-536.592,73.49c-.894-3.972-4.685-7.4-8.733-6.989a8.868,8.868,0,0,0-6.064,3.623,16.208,16.208,0,0,0-1.425,2.062,15.925,15.925,0,0,0-1.41-2.062,8.946,8.946,0,0,0-6.064-3.639c-4.048-.394-7.838,3.032-8.732,6.989a14.28,14.28,0,0,0,3.032,11.461,22.924,22.924,0,0,0,13.447,9.1c4.548-1.046,10.324-5.746,12.78-9.005A14.343,14.343,0,0,0-536.592,73.49Z" transform="translate(595.976 -37.135)" fill="#00bcd4"/>
      <path id="Trazado_146368" data-name="Trazado 146368" d="M-537.828,78.158H-545.3c-.485,1.8-1.061,3.911-1.7,6.216l-.106.379-.121-.364c-1-2.85-2.107-6.064-3.275-9.384-.349-1.031-.713-2.062-1.046-3.032h.227l-3.638,6.216h-.106c1.122-1.91,2.335-4.018,3.623-6.231l.152-.243.091.273,1.061,3.032c1.152,3.366,2.259,6.549,3.244,9.384h-.243c.652-2.3,1.258-4.412,1.759-6.216h7.626Z" transform="translate(596.469 -34.42)" fill="#fafafa"/>
    </g>
  </g>
</svg>
