<svg xmlns="http://www.w3.org/2000/svg" xmlns:xlink="http://www.w3.org/1999/xlink" width="307.143" height="307.069" viewBox="0 0 307.143 307.069">
  <defs>
    <linearGradient id="linear-gradient" y1="0.5" x2="1" y2="0.5" gradientUnits="objectBoundingBox">
      <stop offset="0" stop-color="#dae3fe"/>
      <stop offset="1" stop-color="#e9effd"/>
    </linearGradient>
    <linearGradient id="linear-gradient-2" x1="-0.575" y1="0.5" x2="0.425" y2="0.5" gradientUnits="objectBoundingBox">
      <stop offset="0" stop-color="#4f52ff"/>
      <stop offset="1" stop-color="#4042e2"/>
    </linearGradient>
    <linearGradient id="linear-gradient-3" x1="-114.274" y1="0.5" x2="-113.274" y2="0.5" xlink:href="#linear-gradient-2"/>
    <linearGradient id="linear-gradient-4" x1="-59.202" y1="0.5" x2="-58.202" y2="0.5" xlink:href="#linear-gradient-2"/>
    <linearGradient id="linear-gradient-5" x1="-9.303" y1="0.5" x2="-8.303" y2="0.5" xlink:href="#linear-gradient-2"/>
    <linearGradient id="linear-gradient-6" x1="22.582" y1="0.5" x2="23.582" y2="0.5" xlink:href="#linear-gradient-2"/>
    <linearGradient id="linear-gradient-7" x1="1.02" y1="0.5" x2="0" y2="0.5" xlink:href="#linear-gradient-2"/>
    <linearGradient id="linear-gradient-8" x1="0.701" y1="0.5" x2="-0.683" y2="0.5" xlink:href="#linear-gradient-2"/>
    <linearGradient id="linear-gradient-9" x1="1" y1="0.5" x2="-0.015" y2="0.5" xlink:href="#linear-gradient-2"/>
    <linearGradient id="linear-gradient-10" x1="25.108" y1="0.5" x2="-0.16" y2="0.5" xlink:href="#linear-gradient-2"/>
    <linearGradient id="linear-gradient-11" x1="6.549" y1="-0.484" x2="3.714" y2="6.012" gradientUnits="objectBoundingBox">
      <stop offset="0" stop-color="#09005d"/>
      <stop offset="1" stop-color="#1a0f91"/>
    </linearGradient>
    <linearGradient id="linear-gradient-12" x1="19.46" y1="0.5" x2="20.46" y2="0.5" gradientUnits="objectBoundingBox">
      <stop offset="0" stop-color="#febbba"/>
      <stop offset="1" stop-color="#ff928e"/>
    </linearGradient>
    <linearGradient id="linear-gradient-13" x1="7.239" y1="0.031" x2="4.342" y2="0.887" xlink:href="#linear-gradient-11"/>
    <linearGradient id="linear-gradient-14" x1="10.834" y1="-2.223" x2="3.817" y2="5.384" xlink:href="#linear-gradient-11"/>
    <linearGradient id="linear-gradient-15" x1="14.032" y1="0.5" x2="15.032" y2="0.5" xlink:href="#linear-gradient-12"/>
    <linearGradient id="linear-gradient-16" x1="4.57" y1="-0.035" x2="2.529" y2="0.806" xlink:href="#linear-gradient-11"/>
    <linearGradient id="linear-gradient-17" x1="20.106" y1="-11.738" x2="19.551" y2="-11.357" gradientUnits="objectBoundingBox">
      <stop offset="0" stop-color="#ff928e"/>
      <stop offset="1" stop-color="#fe7062"/>
    </linearGradient>
    <linearGradient id="linear-gradient-18" x1="0.154" y1="-0.492" x2="0.5" y2="0.348" xlink:href="#linear-gradient-12"/>
    <linearGradient id="linear-gradient-19" x1="0.237" y1="0.04" x2="1.266" y2="1.767" xlink:href="#linear-gradient-12"/>
    <linearGradient id="linear-gradient-20" x1="1.523" y1="1.716" x2="-0.353" y2="-0.451" xlink:href="#linear-gradient-12"/>
    <linearGradient id="linear-gradient-21" x1="47.771" y1="-30.921" x2="46.376" y2="-29.946" xlink:href="#linear-gradient-17"/>
    <linearGradient id="linear-gradient-22" x1="1.67" y1="0.5" x2="2.67" y2="0.5" xlink:href="#linear-gradient-12"/>
    <linearGradient id="linear-gradient-23" x1="9.094" y1="0.5" x2="10.094" y2="0.5" xlink:href="#linear-gradient-12"/>
    <linearGradient id="linear-gradient-24" x1="6.579" y1="0.5" x2="7.579" y2="0.5" xlink:href="#linear-gradient-12"/>
    <linearGradient id="linear-gradient-25" x1="-21.879" y1="-4.093" x2="-22.201" y2="-5.159" xlink:href="#linear-gradient-12"/>
    <linearGradient id="linear-gradient-26" x1="-16.983" y1="-4.224" x2="-16.778" y2="-3.045" xlink:href="#linear-gradient-11"/>
    <linearGradient id="linear-gradient-27" x1="-74.477" y1="-22.299" x2="-75.42" y2="-26.946" xlink:href="#linear-gradient-12"/>
    <linearGradient id="linear-gradient-28" x1="0" y1="0.5" x2="1" y2="0.5" xlink:href="#linear-gradient-12"/>
    <linearGradient id="linear-gradient-29" x1="-29.164" y1="-0.811" x2="-28.142" y2="-0.811" xlink:href="#linear-gradient-12"/>
    <linearGradient id="linear-gradient-30" x1="-21.963" y1="0.5" x2="-20.963" y2="0.5" xlink:href="#linear-gradient-11"/>
    <linearGradient id="linear-gradient-31" x1="-21.169" y1="-6.693" x2="-21.442" y2="0.843" xlink:href="#linear-gradient-11"/>
    <linearGradient id="linear-gradient-32" x1="-81.174" y1="0.5" x2="-80.174" y2="0.5" xlink:href="#linear-gradient-12"/>
    <linearGradient id="linear-gradient-33" x1="-27.203" y1="0.5" x2="-26.203" y2="0.5" xlink:href="#linear-gradient-11"/>
    <linearGradient id="linear-gradient-34" x1="-24.19" y1="-1.867" x2="-24.5" y2="1.1" xlink:href="#linear-gradient-11"/>
    <linearGradient id="linear-gradient-35" x1="-10.254" y1="0.5" x2="-9.254" y2="0.5" xlink:href="#linear-gradient-11"/>
    <linearGradient id="linear-gradient-36" x1="-67.992" y1="0.5" x2="-66.992" y2="0.5" xlink:href="#linear-gradient-12"/>
    <linearGradient id="linear-gradient-37" x1="1.249" y1="-0.451" x2="1.172" y2="-0.351" xlink:href="#linear-gradient-11"/>
    <linearGradient id="linear-gradient-38" x1="-35.578" y1="1.014" x2="-35.326" y2="0.435" xlink:href="#linear-gradient-12"/>
    <linearGradient id="linear-gradient-39" x1="-18.275" y1="-1.273" x2="-19.372" y2="-0.519" xlink:href="#linear-gradient-12"/>
    <linearGradient id="linear-gradient-40" x1="-13.852" y1="-1.171" x2="-13.116" y2="-0.232" xlink:href="#linear-gradient-11"/>
    <linearGradient id="linear-gradient-41" x1="-75.463" y1="-6.097" x2="-79.955" y2="-3.605" xlink:href="#linear-gradient-12"/>
    <linearGradient id="linear-gradient-42" x1="-8.287" y1="-2.641" x2="-6.571" y2="-5.809" xlink:href="#linear-gradient-12"/>
    <linearGradient id="linear-gradient-43" x1="2.04" y1="-0.336" x2="0.144" y2="0.649" xlink:href="#linear-gradient-12"/>
    <linearGradient id="linear-gradient-44" x1="0.532" y1="0.006" x2="0.327" y2="3.202" xlink:href="#linear-gradient-11"/>
    <linearGradient id="linear-gradient-45" x1="0.56" y1="0.666" x2="1.219" y2="1.586" xlink:href="#linear-gradient-12"/>
    <linearGradient id="linear-gradient-46" x1="0.306" y1="2.22" x2="0.47" y2="0.825" xlink:href="#linear-gradient-11"/>
    <linearGradient id="linear-gradient-47" x1="0.554" y1="-2.158" x2="0.395" y2="6.275" xlink:href="#linear-gradient-11"/>
    <linearGradient id="linear-gradient-48" x1="0.755" y1="1.904" x2="0.432" y2="0.324" xlink:href="#linear-gradient-12"/>
    <linearGradient id="linear-gradient-49" x1="-1.7" y1="-0.644" x2="-1.386" y2="-1.395" xlink:href="#linear-gradient-12"/>
    <linearGradient id="linear-gradient-50" x1="1.228" y1="-1.326" x2="-0.444" y2="0.213" xlink:href="#linear-gradient-11"/>
    <linearGradient id="linear-gradient-51" x1="1.299" y1="-0.141" x2="-0.065" y2="0.989" xlink:href="#linear-gradient-11"/>
    <linearGradient id="linear-gradient-52" x1="0.623" y1="0.5" x2="1.623" y2="0.5" xlink:href="#linear-gradient-12"/>
    <linearGradient id="linear-gradient-53" x1="0.942" y1="3.801" x2="0.202" y2="6.238" xlink:href="#linear-gradient-11"/>
    <linearGradient id="linear-gradient-54" x1="1.284" y1="-0.304" x2="-0.556" y2="1.583" xlink:href="#linear-gradient-2"/>
    <linearGradient id="linear-gradient-55" x1="-23.608" y1="-0.304" x2="-25.447" y2="1.583" xlink:href="#linear-gradient-2"/>
  </defs>
  <g id="Grupo_75544" data-name="Grupo 75544" transform="translate(-471.378 -467.271)">
    <g id="Grupo_75509" data-name="Grupo 75509" transform="translate(471.378 467.706)">
      <path id="Trazado_147388" data-name="Trazado 147388" d="M479.645,560.2H584.859a8.267,8.267,0,0,0,8.231-7.491l6.631-70.351a8.267,8.267,0,0,0-8.073-9.042L479.8,471.186a8.267,8.267,0,0,0-8.425,8.266v72.481A8.267,8.267,0,0,0,479.645,560.2Z" transform="translate(-471.378 -471.184)" fill="#7e5ee3"/>
      <path id="Trazado_147389" data-name="Trazado 147389" d="M638.732,555.232l-4.7,60.834a5.113,5.113,0,0,1-5.044,4.719L528,621.842a5.113,5.113,0,0,1-5.167-5.113V551.236a5.113,5.113,0,0,1,5.287-5.11l105.685,3.6A5.113,5.113,0,0,1,638.732,555.232Z" transform="translate(-517.114 -537.789)" fill="url(#linear-gradient)"/>
      <path id="Trazado_147390" data-name="Trazado 147390" d="M616.578,609.417l-56.945-1.7a1.035,1.035,0,0,0-1.066,1.035v.917a1.035,1.035,0,0,0,1.021,1.035l56.945.786a1.035,1.035,0,0,0,1.05-1.035h0A1.035,1.035,0,0,0,616.578,609.417Z" transform="translate(-548.87 -592.53)" fill="#91b3fa"/>
      <rect id="Rectángulo_33014" data-name="Rectángulo 33014" width="59.016" height="2.462" rx="1.231" transform="translate(9.696 21.66)" fill="#91b3fa"/>
      <path id="Trazado_147391" data-name="Trazado 147391" d="M600.3,707.832V708a1.035,1.035,0,0,1-1.035,1.035H559.6A1.035,1.035,0,0,1,558.566,708V707.2a1.035,1.035,0,0,1,1.052-1.035l39.661.635A1.035,1.035,0,0,1,600.3,707.832Z" transform="translate(-548.87 -680.031)" fill="#91b3fa"/>
      <path id="Trazado_147392" data-name="Trazado 147392" d="M613.917,753.774a.637.637,0,0,1-.419-.157l-9.424-8.236a.637.637,0,0,1,.838-.959l9.019,7.883,16.946-13.767a.637.637,0,0,1,.778-.02L648.3,750.712,671.654,722.7a.637.637,0,0,1,.909-.071s20.086,17.612,22.578,19.792a.637.637,0,0,1-.838.958c-2.26-1.977-18.995-16.65-22.088-19.363L648.9,751.987a.637.637,0,0,1-.865.106L631.3,739.837l-16.981,13.795A.634.634,0,0,1,613.917,753.774Z" transform="translate(-589.125 -694.525)" fill="url(#linear-gradient-2)"/>
      <path id="Trazado_147393" data-name="Trazado 147393" d="M1211.36,815.112a.424.424,0,0,1-.425-.424v-1.274a.424.424,0,0,1,.849,0v1.274A.424.424,0,0,1,1211.36,815.112Zm0-4.245a.424.424,0,0,1-.425-.424v-1.273a.424.424,0,1,1,.849,0v1.273A.424.424,0,0,1,1211.36,810.867Zm0-4.245a.425.425,0,0,1-.425-.425v-1.273a.424.424,0,1,1,.849,0V806.2A.424.424,0,0,1,1211.36,806.622Zm0-4.245a.424.424,0,0,1-.425-.424v-1.273a.424.424,0,1,1,.849,0v1.273A.424.424,0,0,1,1211.36,802.377Zm0-4.245a.424.424,0,0,1-.425-.424v-1.274a.424.424,0,0,1,.849,0v1.274A.424.424,0,0,1,1211.36,798.132Zm0-4.245a.425.425,0,0,1-.425-.425v-1.273a.424.424,0,1,1,.849,0v1.273A.424.424,0,0,1,1211.36,793.887Zm0-4.245a.424.424,0,0,1-.425-.424v-1.273a.424.424,0,1,1,.849,0v1.273A.424.424,0,0,1,1211.36,789.642Zm0-4.245a.424.424,0,0,1-.425-.424V783.7a.424.424,0,1,1,.849,0v1.273A.424.424,0,0,1,1211.36,785.4Zm0-4.245a.425.425,0,0,1-.425-.425v-1.273a.424.424,0,1,1,.849,0v1.273A.424.424,0,0,1,1211.36,781.152Zm0-4.245a.424.424,0,0,1-.425-.424v-1.273a.424.424,0,0,1,.849,0v1.273A.424.424,0,0,1,1211.36,776.907Z" transform="translate(-1128.693 -741.023)" fill="url(#linear-gradient-3)"/>
      <path id="Trazado_147394" data-name="Trazado 147394" d="M1001.1,1009.293a.424.424,0,0,1-.424-.424V1007.6a.424.424,0,1,1,.849,0v1.273A.424.424,0,0,1,1001.1,1009.293Zm0-4.245a.424.424,0,0,1-.424-.424v-1.274a.424.424,0,0,1,.849,0v1.274A.424.424,0,0,1,1001.1,1005.048Zm0-4.245a.424.424,0,0,1-.424-.424v-1.273a.424.424,0,1,1,.849,0v1.273A.424.424,0,0,1,1001.1,1000.8Zm0-4.245a.424.424,0,0,1-.424-.425V994.86a.424.424,0,0,1,.849,0v1.274A.424.424,0,0,1,1001.1,996.559Z" transform="translate(-941.815 -936.248)" fill="url(#linear-gradient-4)"/>
      <path id="Trazado_147395" data-name="Trazado 147395" d="M841.6,919.93h-.013a.425.425,0,0,1-.411-.438l.04-1.273a.417.417,0,0,1,.438-.411.425.425,0,0,1,.411.438l-.04,1.273A.424.424,0,0,1,841.6,919.93Zm.132-4.243h-.013a.425.425,0,0,1-.411-.438l.04-1.273a.424.424,0,1,1,.849.026l-.04,1.273A.424.424,0,0,1,841.734,915.687Zm.132-4.243h-.013a.425.425,0,0,1-.411-.438l.04-1.273a.416.416,0,0,1,.438-.411.425.425,0,0,1,.411.438l-.04,1.273A.425.425,0,0,1,841.866,911.445ZM842,907.2h-.013a.425.425,0,0,1-.411-.438l.039-1.273a.425.425,0,1,1,.849.027l-.039,1.273A.424.424,0,0,1,842,907.2Zm.132-4.243h-.014a.425.425,0,0,1-.411-.438l.04-1.273a.414.414,0,0,1,.438-.411.425.425,0,0,1,.411.438l-.04,1.273A.424.424,0,0,1,842.13,902.959Zm.132-4.243h-.013a.425.425,0,0,1-.411-.438l.04-1.273a.421.421,0,0,1,.437-.411.425.425,0,0,1,.411.438l-.04,1.273A.424.424,0,0,1,842.261,898.716Zm.132-4.243h-.013a.425.425,0,0,1-.411-.438l.04-1.273a.421.421,0,0,1,.438-.411.425.425,0,0,1,.411.438l-.04,1.273A.424.424,0,0,1,842.393,894.473Z" transform="translate(-800.055 -845.515)" fill="url(#linear-gradient-5)"/>
      <path id="Trazado_147396" data-name="Trazado 147396" d="M688.93,1019.25a.424.424,0,0,1-.424-.424v-1.273a.424.424,0,0,1,.849,0v1.273A.424.424,0,0,1,688.93,1019.25Zm0-4.245a.424.424,0,0,1-.424-.424v-1.273a.424.424,0,1,1,.849,0v1.273A.424.424,0,0,1,688.93,1015.005Zm0-4.245a.424.424,0,0,1-.424-.425v-1.273a.424.424,0,1,1,.849,0v1.273A.424.424,0,0,1,688.93,1010.76Zm0-4.245a.424.424,0,0,1-.424-.424v-1.273a.424.424,0,1,1,.849,0v1.273A.424.424,0,0,1,688.93,1006.516Z" transform="translate(-664.36 -945.098)" fill="url(#linear-gradient-6)"/>
      <g id="Grupo_75506" data-name="Grupo 75506" transform="translate(106.961 20.772)">
        <path id="Trazado_147397" data-name="Trazado 147397" d="M1433.85,722.948l-.054,0a.637.637,0,0,1-.581-.689l4.774-56.384a.637.637,0,1,1,1.269.108l-4.774,56.384A.637.637,0,0,1,1433.85,722.948Z" transform="translate(-1433.213 -664.477)" fill="url(#linear-gradient-7)"/>
        <g id="Grupo_75505" data-name="Grupo 75505" transform="translate(3.046)">
          <path id="Trazado_147398" data-name="Trazado 147398" d="M1460.6,661.767l2.334-1.971,1.969,2.335.155-1.827-1.969-2.333-2.333,1.969Z" transform="translate(-1460.6 -657.972)" fill="url(#linear-gradient-8)"/>
        </g>
      </g>
      <g id="Grupo_75508" data-name="Grupo 75508" transform="translate(11.614 73.796)">
        <path id="Trazado_147399" data-name="Trazado 147399" d="M681.961,1149.749H583.82a.637.637,0,0,1,0-1.274h98.141a.637.637,0,0,1,0,1.274Z" transform="translate(-582.364 -1146.953)" fill="url(#linear-gradient-9)"/>
        <g id="Grupo_75507" data-name="Grupo 75507">
          <path id="Trazado_147400" data-name="Trazado 147400" d="M579.812,1134.785l-2.16,2.159,2.16,2.159h-1.833l-2.159-2.159,2.159-2.159Z" transform="translate(-575.82 -1134.785)" fill="url(#linear-gradient-10)"/>
        </g>
      </g>
    </g>
    <g id="Grupo_75514" data-name="Grupo 75514" transform="translate(545.23 509.53)">
      <path id="Trazado_147401" data-name="Trazado 147401" d="M1610.676,3031.824s.9,5.069,1.334,10.086a3.458,3.458,0,0,1-3.307,3.746c-6.682.278-20.975.819-26.1.59a1.125,1.125,0,0,1-.99-1.541,2.518,2.518,0,0,1,1.288-1.357l23.61-10.851Z" transform="translate(-1531.926 -2788.893)" fill="url(#linear-gradient-11)"/>
      <path id="Trazado_147402" data-name="Trazado 147402" d="M1788.851,2997.557l-.719,6.063s-4.136,1.925-6.96-.243l1.713-6.757Z" transform="translate(-1709.367 -2757.604)" fill="url(#linear-gradient-12)"/>
      <path id="Trazado_147403" data-name="Trazado 147403" d="M1792.283,1980c.311,1.583,1.668,79.012-6.609,113.71a1.178,1.178,0,0,0,.691,1.37,20.507,20.507,0,0,0,6.741,1.37,2.028,2.028,0,0,0,2.012-1.456c2.366-8.051,13.7-48.386,15.181-86.917,1.652-43.055,0-1.466,0-1.466l-.969-26.614Z" transform="translate(-1713.341 -1854.029)" fill="url(#linear-gradient-13)"/>
      <path id="Trazado_147404" data-name="Trazado 147404" d="M2012.152,3055.6s1.425,2.559,2.805,9.359a2.109,2.109,0,0,1-1.856,2.526c-2.207.217-5.6.5-8.324.477a2.1,2.1,0,0,1-2.082-2.346,17.737,17.737,0,0,1,4.141-9.728Z" transform="translate(-1906.244 -2810.027)" fill="url(#linear-gradient-14)"/>
      <path id="Trazado_147405" data-name="Trazado 147405" d="M2046.12,2982.629l-1.681,9.169s-1.662,1.236-4.95.34l.8-9.865Z" transform="translate(-1938.959 -2744.852)" fill="url(#linear-gradient-15)"/>
      <path id="Trazado_147406" data-name="Trazado 147406" d="M1872.654,1967.137c6.769,40.852-1.468,100.969-4.246,112.735a1.835,1.835,0,0,1-1.482,1.393,12.323,12.323,0,0,1-5.295-.211,1.682,1.682,0,0,1-1.209-1.549c-.373-9.513.3-67.911-6.009-90.991a5.243,5.243,0,0,0-2.022-2.892l-12.242-8.7-.938-14.068Z" transform="translate(-1760.953 -1838.796)" fill="url(#linear-gradient-16)"/>
      <g id="Grupo_75510" data-name="Grupo 75510" transform="translate(8.648 19.518)">
        <path id="Trazado_147407" data-name="Trazado 147407" d="M1518.033,1278.812c20.286-.335,42.669,5.326,42.669,5.326,6.047,35.282,1.057,75.979,1.057,75.979-15.7,4.118-33.42-2.518-33.42-2.518-2.61-14.747-14.789-56.251-14.789-56.251a66.822,66.822,0,0,1-24.8-7.87c5.129-5.945,7.547-13.51,8.6-17.982A68.062,68.062,0,0,0,1518.033,1278.812Z" transform="translate(-1458.112 -1247.395)" fill="url(#linear-gradient-17)"/>
        <path id="Trazado_147408" data-name="Trazado 147408" d="M1213.251,1024.338a3.881,3.881,0,0,1,4.515-1.268c2.985,12.61,18.638,22.834,34.719,27.832-1.05,4.472-3.468,12.036-8.6,17.982C1217.2,1053.878,1213.251,1024.338,1213.251,1024.338Z" transform="translate(-1213.251 -1022.8)" fill="url(#linear-gradient-18)"/>
      </g>
      <g id="Grupo_75511" data-name="Grupo 75511" transform="translate(0 0)">
        <path id="Trazado_147409" data-name="Trazado 147409" d="M1144.614,868.951c-.208.663,2.206,1.672,3.628-1.039.05-1.3.84-6.866.063-7.924-4.135-5.638-12.152-12.7-12.152-12.7a1.908,1.908,0,0,0-.239,2.65l3.889,4.052a18.823,18.823,0,0,0-2.271,4.489,5.449,5.449,0,0,0,.543,4.011c.683,1.23,1.614,2.829,2.495,4.08A5.382,5.382,0,0,0,1144.614,868.951Z" transform="translate(-1135.483 -847.283)" fill="url(#linear-gradient-19)"/>
        <path id="Trazado_147410" data-name="Trazado 147410" d="M1183.375,931.188l3.544,3,1.113,2.991-3.16,3.505s-1.062-5.935-1.852-7.22S1182.64,931.564,1183.375,931.188Z" transform="translate(-1177.353 -921.857)" fill="url(#linear-gradient-20)"/>
      </g>
      <path id="Trazado_147411" data-name="Trazado 147411" d="M2065.8,1372.856l7.781-19.643s18.948,12.874,22.064,29.2a44.844,44.844,0,0,0-16.472,4.415C2077.777,1379.118,2065.8,1372.856,2065.8,1372.856Z" transform="translate(-1962.349 -1296.951)" fill="url(#linear-gradient-21)"/>
      <path id="Trazado_147412" data-name="Trazado 147412" d="M1894.4,1624.7s21.274,12.023,28.452,1.757a8.069,8.069,0,0,0,1.479-6.27,44.844,44.844,0,0,1,16.472-4.415,22.528,22.528,0,0,1-2.449,15.444c-12.574,23-46.77-1.271-46.77-1.271Z" transform="translate(-1807.505 -1530.31)" fill="url(#linear-gradient-22)"/>
      <g id="Grupo_75512" data-name="Grupo 75512" transform="translate(36.308 61.744)">
        <path id="Trazado_147413" data-name="Trazado 147413" d="M1515.127,1481.842l-11.611-40.546a1.182,1.182,0,0,0-1-.851c-2.1-.245-8.2-.934-15.237-1.53-8.477-.717-18.322-1.3-24.2-.8a1.186,1.186,0,0,0-.97,1.707c3.345,6.768,17.106,34.3,24,43.318a1.191,1.191,0,0,0,.958.47l26.938-.251A1.187,1.187,0,0,0,1515.127,1481.842Z" transform="translate(-1461.981 -1433.988)" fill="#727997"/>
        <path id="Trazado_147414" data-name="Trazado 147414" d="M1605.74,1403.921l-8.418-1.4a.6.6,0,0,0-.673.785l.833,2.525a.6.6,0,0,0,.494.409l8.1,1.082a.6.6,0,0,0,.668-.736l-.516-2.2A.6.6,0,0,0,1605.74,1403.921Z" transform="translate(-1581.646 -1402.509)" fill="#7d97f4"/>
        <path id="Trazado_147415" data-name="Trazado 147415" d="M1580.666,1431.206l-.693-3.612a.835.835,0,0,0-.736-.673l-17-1.725a.835.835,0,0,0-.9,1.026l1.081,4.5a.835.835,0,0,0,.77.639l16.614.837A.835.835,0,0,0,1580.666,1431.206Z" transform="translate(-1550.268 -1422.669)" fill="#91b3fa"/>
        <path id="Trazado_147416" data-name="Trazado 147416" d="M1799.99,1634.25s1.617-6.651.965-9.01-1.916-5.393-6.13-4.719a61.646,61.646,0,0,0-9.183,2.449,2.412,2.412,0,0,0,3.453,2.082l-1.986,1.536s.284,2.461,2.989,1.146l-1.847,2.038a2.152,2.152,0,0,0,3.151.725C1793.393,1629.2,1794.347,1635.051,1799.99,1634.25Z" transform="translate(-1749.649 -1596.193)" fill="url(#linear-gradient-23)"/>
      </g>
      <path id="Trazado_147417" data-name="Trazado 147417" d="M1831.849,1157.221l6.455,18.666a.673.673,0,0,1-.307.81c-1.76.973-8.1,3.785-15.737-1.059a3.167,3.167,0,0,1-1.458-2.262l-2.09-16.156Z" transform="translate(-1742.733 -1122.754)" fill="url(#linear-gradient-24)"/>
      <g id="Grupo_75513" data-name="Grupo 75513" transform="translate(68.812 7.48)">
        <path id="Trazado_147418" data-name="Trazado 147418" d="M1760.531,1001.783s-7.088,13.342-6.179,18.732,9.693,5,17.363.625l5.36-14.406Z" transform="translate(-1754.271 -992.082)" fill="url(#linear-gradient-25)"/>
        <path id="Trazado_147419" data-name="Trazado 147419" d="M1792.4,936.531a.55.55,0,0,1-.24-.8,14.359,14.359,0,0,0,1.972-4.187s1.274-.816-3.243-1.9-11.253-2.76-12.669-6.6c-1.38-3.749,2.247-13.176,8.034-5.665a.55.55,0,0,0,.871.006c.948-1.235,3.443-3.8,6.905-2.244,3.24,1.454,3.605,3.828,3.561,5.025a.547.547,0,0,0,.648.56c1.638-.312,5.57-.581,7.4,3.452,1.511,3.322.529,5.2-.365,6.122a.548.548,0,0,0,.235.91c1.077.33,2.467,1.243,2.328,3.765-.193,3.487-4.091,3.18-5.2,3.021a.55.55,0,0,0-.488.173c-.952,1.053-5.24,5.526-9.882,6.065a.555.555,0,0,1-.582-.733l2.009-5.839a.553.553,0,0,0-.3-.685Z" transform="translate(-1775.298 -914.549)" fill="url(#linear-gradient-26)"/>
        <path id="Trazado_147420" data-name="Trazado 147420" d="M1888.334,1105.977s5.047-3.463,5.415-.547-4.545,4.224-6.978,3.136Z" transform="translate(-1872.036 -1083.166)" fill="url(#linear-gradient-27)"/>
      </g>
    </g>
    <g id="Grupo_75518" data-name="Grupo 75518" transform="translate(471.529 576.578)">
      <path id="Trazado_147421" data-name="Trazado 147421" d="M827.266,2058.8c-7.219.435-7.458-7.952-7.015-12.641a1.68,1.68,0,0,0-2.4-1.672l-10.723,5.135s-.5,12.366,11.854,16.755a15.358,15.358,0,0,0,8.51.616A13.52,13.52,0,0,1,827.266,2058.8Z" transform="translate(-769.939 -1978.247)" fill="#ff9d00"/>
      <path id="Trazado_147422" data-name="Trazado 147422" d="M1002.955,2123.17c-3.649-2.538-7.784,0-7.784,0-4.879,3.191-8.489,4.548-11.152,4.709a13.521,13.521,0,0,0,.227,8.193c5.466-1.175,9.377-5.131,11.076-7.161a1.765,1.765,0,0,1,2.443-.267c.76.6,1.5,1.422,1.364,2.286-.264,1.705,1.715,2.248,1.864,1.629a25.5,25.5,0,0,0-.677-4.285s3.958,3.98,5.5,5.509,3.488,0,3.488,0S1006.6,2125.709,1002.955,2123.17Z" transform="translate(-926.693 -2047.33)" fill="url(#linear-gradient-28)"/>
      <path id="Trazado_147423" data-name="Trazado 147423" d="M1039.192,2253.7l2.944-.4,8.9-.9a4.042,4.042,0,0,1,2.974.9l6.838,5.623-20.524-2.646Z" transform="translate(-976.199 -2163.171)" fill="url(#linear-gradient-29)"/>
      <g id="Grupo_75515" data-name="Grupo 75515" transform="translate(62.053 183.034)">
        <path id="Trazado_147424" data-name="Trazado 147424" d="M1043.335,3153.433c-7.275,0-10.494-.624-11.933-1.193a2.76,2.76,0,0,0,2.688,2.138h25.737a1.252,1.252,0,0,0,1.207-1.581C1058.1,3153.033,1051.869,3153.433,1043.335,3153.433Z" transform="translate(-1031.328 -3146)" fill="url(#linear-gradient-30)"/>
        <path id="Trazado_147425" data-name="Trazado 147425" d="M1060.445,3102.922a1.217,1.217,0,0,0-.211-.438c-1.96-2.5-5.9-6.434-11.256-6.358-7.848.111-10.584.962-16.683.048l-1.439,4.769a2.734,2.734,0,0,0-.044,1.422c1.439.569,4.658,1.193,11.933,1.193C1051.281,3103.558,1057.512,3103.158,1060.445,3102.922Z" transform="translate(-1030.74 -3096.125)" fill="url(#linear-gradient-31)"/>
      </g>
      <path id="Trazado_147426" data-name="Trazado 147426" d="M1046.5,3050.352l-1.766,6.006s3.912,1.781,7.354.351l.676-5.2Z" transform="translate(-981.123 -2872.408)" fill="url(#linear-gradient-32)"/>
      <g id="Grupo_75516" data-name="Grupo 75516" transform="translate(105.966 174.352)">
        <path id="Trazado_147427" data-name="Trazado 147427" d="M1459.993,3036.411c-5.671,4.556-8.569,6.089-10.046,6.548a2.757,2.757,0,0,0,3.428-.025l20.063-16.12a1.247,1.247,0,0,0-.045-1.982C1471.254,3026.853,1466.646,3031.066,1459.993,3036.411Z" transform="translate(-1447.243 -3024.078)" fill="url(#linear-gradient-33)"/>
        <path id="Trazado_147428" data-name="Trazado 147428" d="M1451.781,3018.8a1.208,1.208,0,0,0-.437-.208c-3.089-.714-8.609-1.3-12.738,2.117-6.049,5-7.651,7.376-12.975,10.486l1.851,4.6a2.712,2.712,0,0,0,.853,1.131c1.477-.46,4.375-1.992,10.046-6.548C1445.034,3025.038,1449.642,3020.824,1451.781,3018.8Z" transform="translate(-1425.631 -3018.049)" fill="url(#linear-gradient-34)"/>
      </g>
      <path id="Trazado_147429" data-name="Trazado 147429" d="M653.873,2434.985s43.555,3.556,52.49,7.762-7.291,63.158-7.291,63.158-2.432,1.17-7.845-.512c0,0,5.55-43.5,1.42-52.937l-47.159-7.714Z" transform="translate(-626.277 -2325.472)" fill="url(#linear-gradient-35)"/>
      <path id="Trazado_147430" data-name="Trazado 147430" d="M1386.716,3041.3c.4.369,4.328,8.281,4.328,8.281s4.368-.945,5.258-3.709l-3.93-7.141Z" transform="translate(-1285.077 -2862.075)" fill="url(#linear-gradient-36)"/>
      <path id="Trazado_147431" data-name="Trazado 147431" d="M474.1,2386.254a22.058,22.058,0,0,0-1.361,7.954,11.941,11.941,0,0,0,11.4,11.683l51.489,2.348a2.47,2.47,0,0,1,2.28,1.856c1.21,4.68,7.124,19.052,36.034,47.73a2.331,2.331,0,0,0,2.883.314l4.115-2.6a.948.948,0,0,0,.312-1.28l-29.98-51.195a11.6,11.6,0,0,0-7.05-5.229l-44.907-17.269Z" transform="translate(-472.735 -2277.106)" fill="url(#linear-gradient-37)"/>
      <path id="Trazado_147432" data-name="Trazado 147432" d="M746.426,1660.629s-3.788,10.545-8.532,16.152l12.553,4.427s.836-10.618,6.223-14.61Z" transform="translate(-708.407 -1637.228)" fill="url(#linear-gradient-38)"/>
      <path id="Trazado_147433" data-name="Trazado 147433" d="M478.657,1862.023s14.273.989,26.777-4.593c0,0,3.05-20.269,8.758-28.069,0,0-2.222,30.177,33.473,15.125-.982-.5-.985-.8-1.259-1.749-.117-.4.083-2.356-.336-2.327-4.629.311-24.312,3.814-17.807-22.527,2.567-10.395-4.323-23.019-10.561-25.756-3.89-1.706-6.251-2.922-7.477-3.6a1.814,1.814,0,0,0-2.07.224C502.829,1793.4,478.132,1817.366,478.657,1862.023Z" transform="translate(-477.991 -1750.708)" fill="#ff9d00"/>
      <g id="Grupo_75517" data-name="Grupo 75517" transform="translate(23.573 0)">
        <path id="Trazado_147434" data-name="Trazado 147434" d="M768.317,1544.181s4.389,9.427,4.794,14.423,1.564,8.215-4.2,9.368-10.7-1.606-13.47-6.523c0,0-4.33-7.575-3.481-10.743S768.317,1544.181,768.317,1544.181Z" transform="translate(-744.388 -1533.73)" fill="url(#linear-gradient-39)"/>
        <path id="Trazado_147435" data-name="Trazado 147435" d="M697.661,1474.287l.731-.018s-3.169-6.1-.548-7.257,13.053-3.555,15.222-7.333a6.922,6.922,0,0,0-2.914-9.45.389.389,0,0,0-.491.2l-.23.462a.393.393,0,0,1-.727-.056.391.391,0,0,0-.707-.09c-.665,1.13-2.494,2.987-7.5,4.042-7.1,1.5-11.75,4.5-11.742,9.44a.393.393,0,0,1-.6.338c-.535-.308-1.382-.437-2.485.539-1.918,1.7-1.009,5.952,3.376,9.36a.391.391,0,0,1,0,.63c-.766.527-1.9,1.762,1.152,3.295,3.119,1.568,4.935,1.342,5.618,1.149a.393.393,0,0,0,.287-.414l-.38-4.364a.393.393,0,0,1,.382-.427Z" transform="translate(-684.717 -1450.201)" fill="url(#linear-gradient-40)"/>
        <path id="Trazado_147436" data-name="Trazado 147436" d="M760.716,1638.219s-1.736-6.049-4.423-4.273,1.588,6.786,3.789,6.959Z" transform="translate(-747.57 -1613.222)" fill="url(#linear-gradient-41)"/>
      </g>
    </g>
    <g id="Grupo_75534" data-name="Grupo 75534" transform="translate(661.598 467.271)">
      <g id="Grupo_75523" data-name="Grupo 75523" transform="translate(31.572 0)">
        <g id="Grupo_75519" data-name="Grupo 75519" opacity="0.3">
          <path id="Trazado_147437" data-name="Trazado 147437" d="M2466.923,508.382a.912.912,0,0,1-.906-.818c-.108-1.026-.172-2.071-.192-3.107a.913.913,0,0,1,.9-.93h.018a.913.913,0,0,1,.912.9c.019.984.08,1.978.182,2.952a.913.913,0,0,1-.813,1A.871.871,0,0,1,2466.923,508.382Zm.059-7.952a.914.914,0,0,1-.907-1.02c.122-1.028.289-2.062.5-3.071a.913.913,0,1,1,1.788.367c-.2.959-.355,1.941-.471,2.918A.913.913,0,0,1,2466.982,500.43Zm1.808-7.741a.913.913,0,0,1-.86-1.219c.347-.974.74-1.944,1.169-2.885a.913.913,0,1,1,1.661.758c-.407.893-.781,1.815-1.11,2.739A.913.913,0,0,1,2468.79,492.688Zm3.495-7.144a.913.913,0,0,1-.769-1.4c.556-.872,1.157-1.73,1.785-2.551a.913.913,0,0,1,1.45,1.11c-.6.779-1.167,1.595-1.7,2.423A.912.912,0,0,1,2472.285,485.544Zm5-6.185a.913.913,0,0,1-.642-1.562c.734-.725,1.509-1.429,2.3-2.091a.913.913,0,1,1,1.169,1.4c-.756.63-1.493,1.3-2.19,1.987A.91.91,0,0,1,2477.285,479.359Zm6.243-4.925a.913.913,0,0,1-.483-1.688c.877-.546,1.789-1.06,2.71-1.53a.913.913,0,0,1,.829,1.627c-.875.446-1.741.935-2.575,1.453A.906.906,0,0,1,2483.528,474.434Zm33.448-2.173a.91.91,0,0,1-.377-.082c-.893-.406-1.815-.778-2.742-1.106a.913.913,0,0,1,.609-1.721c.976.345,1.948.737,2.888,1.165a.913.913,0,0,1-.378,1.744Zm-26.274-1.243a.913.913,0,0,1-.3-1.776c.977-.337,1.98-.635,2.982-.887a.913.913,0,1,1,.445,1.771c-.952.239-1.9.522-2.832.842A.916.916,0,0,1,2490.7,471.018Zm18.709-1.209a.908.908,0,0,1-.183-.018c-.962-.2-1.944-.352-2.921-.466a.913.913,0,0,1,.211-1.813c1.028.12,2.062.284,3.074.49a.913.913,0,0,1-.181,1.807Zm-10.952-.519a.913.913,0,0,1-.1-1.821c1.026-.109,2.071-.176,3.105-.2h.02a.913.913,0,0,1,.019,1.825c-.983.021-1.975.084-2.95.188C2498.526,469.288,2498.493,469.29,2498.46,469.29Z" transform="translate(-2465.824 -467.271)" fill="#91b3fa"/>
          <path id="Trazado_147438" data-name="Trazado 147438" d="M2958.906,519.581a.909.909,0,0,1-.52-.163c-.386-.269-.785-.534-1.184-.788a.913.913,0,1,1,.98-1.54c.42.267.839.546,1.246.829a.913.913,0,0,1-.522,1.662Z" transform="translate(-2902.182 -511.422)" fill="#91b3fa"/>
        </g>
        <g id="Grupo_75520" data-name="Grupo 75520" transform="translate(13.938 28.446)" opacity="0.3">
          <path id="Trazado_147439" data-name="Trazado 147439" d="M3099.882,726.329a.913.913,0,0,1-.9-.768c-.074-.465-.16-.936-.254-1.4a.913.913,0,0,1,1.789-.363c.1.489.189.984.267,1.474a.913.913,0,0,1-.757,1.046A.933.933,0,0,1,3099.882,726.329Z" transform="translate(-3042.268 -723.067)" fill="#91b3fa"/>
          <path id="Trazado_147440" data-name="Trazado 147440" d="M2656.438,817.624q-.63,0-1.265-.021a.913.913,0,0,1,.061-1.825c.976.033,1.952.026,2.91-.021a.913.913,0,1,1,.09,1.824C2657.642,817.61,2657.038,817.624,2656.438,817.624Zm-6.059-.512a.915.915,0,0,1-.155-.013c-1-.172-2.012-.388-3-.642a.913.913,0,1,1,.458-1.767c.934.242,1.891.447,2.845.61a.913.913,0,0,1-.153,1.812Zm12.625-.1a.913.913,0,0,1-.168-1.81c.948-.178,1.9-.4,2.833-.659a.913.913,0,0,1,.488,1.759c-.981.272-1.985.506-2.983.693A.924.924,0,0,1,2663.005,817.013Zm-20.149-2.061a.913.913,0,0,1-.347-.069c-.941-.388-1.876-.82-2.781-1.285a.913.913,0,0,1,.835-1.623c.859.442,1.747.852,2.64,1.22a.913.913,0,0,1-.348,1.757Zm27.627-.228a.913.913,0,0,1-.363-1.751c.885-.382,1.766-.808,2.618-1.265a.913.913,0,1,1,.863,1.609c-.9.481-1.825.93-2.757,1.332A.911.911,0,0,1,2670.483,814.724Zm6.795-3.875a.913.913,0,0,1-.537-1.651c.782-.568,1.55-1.176,2.281-1.807a.913.913,0,1,1,1.192,1.382c-.77.664-1.577,1.3-2.4,1.9A.91.91,0,0,1,2677.278,810.849Zm5.789-5.264a.913.913,0,0,1-.684-1.517c.64-.726,1.257-1.486,1.833-2.26a.913.913,0,1,1,1.465,1.09c-.606.815-1.255,1.615-1.929,2.379A.911.911,0,0,1,2683.067,805.585Zm4.5-6.4a.913.913,0,0,1-.8-1.352c.466-.848.9-1.724,1.292-2.606a.913.913,0,1,1,1.668.741c-.413.929-.871,1.853-1.361,2.745A.913.913,0,0,1,2687.569,799.185Zm2.989-7.236a.914.914,0,0,1-.877-1.166c.267-.927.5-1.878.686-2.826a.913.913,0,1,1,1.791.356c-.2,1-.441,2-.722,2.975A.913.913,0,0,1,2690.558,791.949Zm1.325-7.71-.056,0a.912.912,0,0,1-.855-.967c.043-.71.065-1.43.065-2.141q0-.386-.009-.769a.913.913,0,0,1,.893-.932.9.9,0,0,1,.932.892q.009.4.009.809c0,.747-.023,1.5-.069,2.252A.913.913,0,0,1,2691.883,784.239Z" transform="translate(-2633.888 -773.16)" fill="#91b3fa"/>
          <path id="Trazado_147441" data-name="Trazado 147441" d="M2593.251,1043.419a.91.91,0,0,1-.524-.166c-.4-.284-.81-.582-1.207-.886a.913.913,0,0,1,1.11-1.449c.376.289.762.572,1.146.842a.913.913,0,0,1-.526,1.659Z" transform="translate(-2591.163 -1005.404)" fill="#91b3fa"/>
        </g>
        <g id="Grupo_75522" data-name="Grupo 75522" transform="translate(8.953 8.647)">
          <path id="Trazado_147442" data-name="Trazado 147442" d="M2554.642,592.257a.427.427,0,0,0,.478.131l4.873-1.792a22.624,22.624,0,0,0,6.452,3.475l1.188,5.051a.427.427,0,0,0,.372.327l6.2.628a.427.427,0,0,0,.43-.245l2.177-4.71a22.619,22.619,0,0,0,7.018-2.11l4.415,2.733a.426.426,0,0,0,.494-.032l4.826-3.938a.427.427,0,0,0,.131-.478l-1.792-4.873a22.614,22.614,0,0,0,3.475-6.452l5.051-1.189a.426.426,0,0,0,.327-.372l.628-6.2a.426.426,0,0,0-.245-.43l-4.71-2.177a22.611,22.611,0,0,0-2.11-7.018l2.733-4.415a.426.426,0,0,0-.032-.494l-3.938-4.826a.426.426,0,0,0-.478-.131l-4.873,1.792a22.615,22.615,0,0,0-6.452-3.475l-1.188-5.051a.427.427,0,0,0-.372-.327l-6.2-.628a.427.427,0,0,0-.43.245l-2.177,4.71a22.618,22.618,0,0,0-7.018,2.11l-4.415-2.733a.427.427,0,0,0-.494.032l-4.825,3.938a.427.427,0,0,0-.131.478l1.792,4.873a22.612,22.612,0,0,0-3.475,6.452l-5.051,1.189a.426.426,0,0,0-.327.372l-.628,6.2a.427.427,0,0,0,.245.43l4.71,2.177a22.618,22.618,0,0,0,2.11,7.018l-2.733,4.415a.427.427,0,0,0,.032.494Z" transform="translate(-2546.337 -545.031)" fill="#91b3fa"/>
          <g id="Grupo_75521" data-name="Grupo 75521" transform="translate(21.262 21.261)">
            <path id="Trazado_147443" data-name="Trazado 147443" d="M2743.794,748.746a6.264,6.264,0,1,1,.917-.067A6.271,6.271,0,0,1,2743.794,748.746Zm.014-11.062a4.878,4.878,0,0,0-.71.052,4.784,4.784,0,1,0,.71-.052Z" transform="translate(-2737.537 -736.223)" fill="#bdd0fb"/>
          </g>
          <path id="Trazado_147444" data-name="Trazado 147444" d="M2671.689,684.062a15.677,15.677,0,0,1-1.58-.08h0q-.25-.025-.5-.058a15.511,15.511,0,0,1-2.41-.52l-.032-.01-.091-.028-.176-.056a.365.365,0,1,1,.225-.695,14.68,14.68,0,0,0,16.053-4.881,14.574,14.574,0,0,0,3.07-7.59,14.9,14.9,0,0,0,.076-1.507,14.664,14.664,0,0,0-29.254-1.448,14.671,14.671,0,0,0,1.309,7.7.359.359,0,0,1,.035.155.365.365,0,0,1-.7.155,15.4,15.4,0,1,1,29.337-6.564,15.664,15.664,0,0,1-.08,1.582,15.4,15.4,0,0,1-15.287,13.844Z" transform="translate(-2644.042 -641.235)" fill="#bdd0fb"/>
        </g>
      </g>
      <g id="Grupo_75528" data-name="Grupo 75528" transform="translate(0 33.586)">
        <g id="Grupo_75524" data-name="Grupo 75524" opacity="0.3">
          <path id="Trazado_147445" data-name="Trazado 147445" d="M2188.241,1033.357a.563.563,0,0,1-.541-.405c-.135-.459-.258-.929-.365-1.4a.564.564,0,0,1,1.1-.252c.1.445.219.892.348,1.331a.563.563,0,0,1-.541.722Z" transform="translate(-2186.72 -1001.777)" fill="#91b3fa"/>
          <path id="Trazado_147446" data-name="Trazado 147446" d="M2182.6,796.612a.564.564,0,0,1-.56-.507,24.476,24.476,0,0,1-.126-2.477q0-.26.006-.522a.584.584,0,0,1,.575-.552.564.564,0,0,1,.552.575q-.005.25-.005.5a23.422,23.422,0,0,0,.12,2.362.564.564,0,0,1-.5.618Zm.124-5.853a.562.562,0,0,1-.559-.644,24.412,24.412,0,0,1,.609-2.938.564.564,0,1,1,1.088.3,23.37,23.37,0,0,0-.58,2.8A.564.564,0,0,1,2182.728,790.76Zm1.54-5.648a.564.564,0,0,1-.521-.778,24.308,24.308,0,0,1,1.313-2.7.564.564,0,0,1,.982.555,23.129,23.129,0,0,0-1.252,2.575A.564.564,0,0,1,2184.268,785.112Zm2.881-5.1a.563.563,0,0,1-.452-.9,24.4,24.4,0,0,1,1.933-2.3.564.564,0,0,1,.816.778,23.246,23.246,0,0,0-1.844,2.19A.563.563,0,0,1,2187.148,780.015Zm4.038-4.238a.564.564,0,0,1-.358-1,24.677,24.677,0,0,1,2.432-1.757.564.564,0,0,1,.6.952,23.463,23.463,0,0,0-2.32,1.677A.564.564,0,0,1,2191.187,775.777Zm4.944-3.129a.564.564,0,0,1-.241-1.074,24.3,24.3,0,0,1,2.786-1.11.564.564,0,0,1,.352,1.071,23.127,23.127,0,0,0-2.656,1.059A.56.56,0,0,1,2196.13,772.648Zm5.557-1.825a.564.564,0,0,1-.108-1.117,24.453,24.453,0,0,1,2.975-.393.564.564,0,0,1,.079,1.125,23.2,23.2,0,0,0-2.838.374A.558.558,0,0,1,2201.688,770.823Zm8.753-.072a.563.563,0,0,1-.1-.009,23.334,23.334,0,0,0-2.471-.3c-.126-.009-.249-.017-.373-.023a.564.564,0,0,1,.059-1.126c.131.007.263.015.395.025a24.5,24.5,0,0,1,2.588.318.564.564,0,0,1-.1,1.119Z" transform="translate(-2181.918 -769.288)" fill="#91b3fa"/>
        </g>
        <g id="Grupo_75525" data-name="Grupo 75525" transform="translate(9.332 34.425)" opacity="0.3">
          <path id="Trazado_147447" data-name="Trazado 147447" d="M2310.348,1093.09a.564.564,0,0,1-.007-1.128,23.324,23.324,0,0,0,2.807-.206.564.564,0,0,1,.151,1.118,24.549,24.549,0,0,1-2.943.216Zm-2.881-.136a.542.542,0,0,1-.061,0,24.658,24.658,0,0,1-2.911-.49.564.564,0,0,1,.254-1.1,23.588,23.588,0,0,0,2.778.469.564.564,0,0,1-.06,1.124Zm8.586-.635a.564.564,0,0,1-.143-1.109,23.391,23.391,0,0,0,2.675-.88.564.564,0,0,1,.416,1.048,24.449,24.449,0,0,1-2.8.922A.563.563,0,0,1,2316.053,1092.319Zm-14.2-.666a.566.566,0,0,1-.193-.034,24.208,24.208,0,0,1-2.708-1.18.564.564,0,1,1,.512-1,23.126,23.126,0,0,0,2.582,1.125.564.564,0,0,1-.193,1.094Zm19.546-1.461a.564.564,0,0,1-.271-1.059,23.191,23.191,0,0,0,2.385-1.5.564.564,0,0,1,.656.917,24.476,24.476,0,0,1-2.5,1.569A.562.562,0,0,1,2321.4,1090.192Zm4.683-3.348a.564.564,0,0,1-.381-.979,23.549,23.549,0,0,0,1.958-2.024.564.564,0,0,1,.856.733,24.631,24.631,0,0,1-2.053,2.122A.562.562,0,0,1,2326.084,1086.844Zm3.746-4.374a.558.558,0,0,1-.312-.095.564.564,0,0,1-.157-.782,23.084,23.084,0,0,0,1.416-2.435.564.564,0,0,1,1.008.506,24.358,24.358,0,0,1-1.484,2.554A.564.564,0,0,1,2329.83,1082.471Z" transform="translate(-2294.998 -1078.849)" fill="#91b3fa"/>
          <path id="Trazado_147448" data-name="Trazado 147448" d="M2267.537,1154.735a.561.561,0,0,1-.315-.1c-.4-.27-.793-.554-1.17-.842a.564.564,0,1,1,.686-.9c.359.275.735.546,1.116.8a.564.564,0,0,1-.316,1.031Z" transform="translate(-2265.831 -1144.563)" fill="#91b3fa"/>
        </g>
        <g id="Grupo_75527" data-name="Grupo 75527" transform="translate(5.949 5.712)">
          <path id="Trazado_147449" data-name="Trazado 147449" d="M2240.969,852.257a.285.285,0,0,0,.32.088l3.261-1.2a15.14,15.14,0,0,0,4.318,2.325l.8,3.38a.285.285,0,0,0,.249.219l4.146.42a.285.285,0,0,0,.288-.164l1.457-3.152a15.135,15.135,0,0,0,4.7-1.412l2.954,1.829a.286.286,0,0,0,.331-.022l3.229-2.635a.285.285,0,0,0,.087-.32l-1.2-3.261a15.13,15.13,0,0,0,2.325-4.317l3.38-.8a.286.286,0,0,0,.219-.249l.42-4.146a.286.286,0,0,0-.164-.288l-3.152-1.457a15.136,15.136,0,0,0-1.412-4.7l1.829-2.954a.286.286,0,0,0-.021-.331l-2.635-3.229a.285.285,0,0,0-.319-.087l-3.261,1.2a15.133,15.133,0,0,0-4.317-2.325l-.8-3.38a.286.286,0,0,0-.249-.219l-4.147-.42a.285.285,0,0,0-.288.164l-1.457,3.152a15.132,15.132,0,0,0-4.7,1.412l-2.954-1.829a.285.285,0,0,0-.331.021l-3.229,2.635a.285.285,0,0,0-.088.32l1.2,3.261a15.13,15.13,0,0,0-2.325,4.318l-3.38.8a.285.285,0,0,0-.219.249l-.42,4.146a.286.286,0,0,0,.164.288l3.152,1.457a15.137,15.137,0,0,0,1.412,4.7l-1.829,2.954a.286.286,0,0,0,.021.331Z" transform="translate(-2235.412 -820.656)" fill="#91b3fa"/>
          <g id="Grupo_75526" data-name="Grupo 75526" transform="translate(14.153 14.153)">
            <path id="Trazado_147450" data-name="Trazado 147450" d="M2366.934,956.458a4.275,4.275,0,1,1,.631-.046A4.342,4.342,0,0,1,2366.934,956.458Zm.011-7.4a3.184,3.184,0,0,0-.459.034,3.137,3.137,0,0,0,.915,6.207h0a3.137,3.137,0,0,0-.456-6.241Z" transform="translate(-2362.678 -947.928)" fill="#bdd0fb"/>
          </g>
          <path id="Trazado_147451" data-name="Trazado 147451" d="M2316.726,911.445q-.535,0-1.079-.054a10.688,10.688,0,0,1-2.12-.434l-.093-.03a.564.564,0,1,1,.347-1.073,9.527,9.527,0,0,0,1.978.415h0l.111.01a9.4,9.4,0,0,0,4.592-.727,9.544,9.544,0,0,0,2.19-1.319l.017-.013.05-.041a9.431,9.431,0,0,0,3.443-6.4,9.568,9.568,0,0,0,.05-.976,9.493,9.493,0,1,0-18.091,4.047.564.564,0,0,1-.271.75.564.564,0,0,1-.75-.271,10.621,10.621,0,1,1,20.24-4.528,10.862,10.862,0,0,1-.055,1.091A10.636,10.636,0,0,1,2316.726,911.445Z" transform="translate(-2298.236 -882.469)" fill="#bdd0fb"/>
        </g>
      </g>
      <g id="Grupo_75533" data-name="Grupo 75533" transform="translate(67.642 63.261)">
        <g id="Grupo_75529" data-name="Grupo 75529" transform="translate(0 18.205)" opacity="0.3">
          <path id="Trazado_147452" data-name="Trazado 147452" d="M3061.332,1434.153a.564.564,0,0,1-.387.554c-.455.15-.92.288-1.383.411a.564.564,0,1,1-.288-1.09c.441-.117.885-.248,1.319-.391a.564.564,0,0,1,.712.359A.58.58,0,0,1,3061.332,1434.153Z" transform="translate(-3028.976 -1407.613)" fill="#91b3fa"/>
          <path id="Trazado_147453" data-name="Trazado 147453" d="M2818.315,1227.366a.564.564,0,0,1-.488.577,24.425,24.425,0,0,1-2.471.208q-.26.009-.522.012a.583.583,0,0,1-.571-.557.564.564,0,0,1,.557-.571q.25,0,.5-.011a23.411,23.411,0,0,0,2.357-.2.564.564,0,0,1,.635.483C2818.313,1227.328,2818.314,1227.347,2818.315,1227.366Zm-5.853.069a.6.6,0,0,1,0,.081.564.564,0,0,1-.623.5,24.457,24.457,0,0,1-2.957-.512.564.564,0,1,1,.26-1.1,23.33,23.33,0,0,0,2.821.488A.564.564,0,0,1,2812.462,1227.435Zm-5.7-1.353a.564.564,0,0,1-.761.547,24.3,24.3,0,0,1-2.742-1.224.564.564,0,0,1,.522-1,23.162,23.162,0,0,0,2.615,1.167A.564.564,0,0,1,2806.766,1226.082Zm-5.189-2.711a.564.564,0,0,1-.884.482,24.459,24.459,0,0,1-2.359-1.857.564.564,0,1,1,.751-.841,23.306,23.306,0,0,0,2.249,1.77A.563.563,0,0,1,2801.578,1223.371Zm-4.369-3.9a.564.564,0,0,1-.988.391,24.68,24.68,0,0,1-1.836-2.373.564.564,0,0,1,.932-.634,23.475,23.475,0,0,0,1.752,2.264A.562.562,0,0,1,2797.209,1219.475Zm-3.291-4.838a.564.564,0,0,1-1.065.276,24.279,24.279,0,0,1-1.2-2.748.564.564,0,0,1,1.059-.387,23.072,23.072,0,0,0,1.146,2.62A.564.564,0,0,1,2793.918,1214.636Zm-2.007-5.494a.564.564,0,0,1-1.113.144,24.437,24.437,0,0,1-.491-2.961.564.564,0,0,1,1.122-.116,23.157,23.157,0,0,0,.468,2.824A.571.571,0,0,1,2791.911,1209.142Zm-.36-8.746a.547.547,0,0,1-.005.1,23.315,23.315,0,0,0-.221,2.48c-.005.126-.009.25-.011.373a.564.564,0,0,1-1.128-.021c0-.132.006-.263.012-.4a24.55,24.55,0,0,1,.232-2.6.564.564,0,0,1,1.121.061Z" transform="translate(-2790.185 -1199.852)" fill="#91b3fa"/>
        </g>
        <g id="Grupo_75530" data-name="Grupo 75530" transform="translate(33.747)" opacity="0.3">
          <path id="Trazado_147454" data-name="Trazado 147454" d="M3108.573,1057.176a.564.564,0,0,1-1.127.044,23.279,23.279,0,0,0-.3-2.8.564.564,0,1,1,1.112-.188,24.585,24.585,0,0,1,.313,2.935Zm-.041,2.884c0,.02,0,.04,0,.061a24.634,24.634,0,0,1-.394,2.926.564.564,0,0,1-1.107-.218,23.606,23.606,0,0,0,.377-2.792.564.564,0,0,1,1.126.022Zm-.917-8.56a.564.564,0,0,1-1.1.18,23.378,23.378,0,0,0-.968-2.645.564.564,0,0,1,1.034-.451,24.463,24.463,0,0,1,1.013,2.773A.565.565,0,0,1,3107.615,1051.5Zm-.2,14.211a.571.571,0,0,1-.028.194,24.2,24.2,0,0,1-1.09,2.745.564.564,0,1,1-1.021-.479,23.153,23.153,0,0,0,1.039-2.618.564.564,0,0,1,1.1.157Zm-2.1-19.487a.564.564,0,0,1-1.049.306,23.177,23.177,0,0,0-1.574-2.334.564.564,0,0,1,.9-.686,24.533,24.533,0,0,1,1.651,2.447A.565.565,0,0,1,3105.313,1046.224Zm-3.5-4.57a.564.564,0,0,1-.966.413,23.553,23.553,0,0,0-2.087-1.891.564.564,0,1,1,.7-.88,24.659,24.659,0,0,1,2.188,1.982A.562.562,0,0,1,3101.812,1041.654Zm-4.495-3.6a.558.558,0,0,1-.084.315.564.564,0,0,1-.776.182,23.066,23.066,0,0,0-2.48-1.334.564.564,0,0,1,.473-1.024,24.335,24.335,0,0,1,2.6,1.4A.564.564,0,0,1,3097.318,1038.054Z" transform="translate(-3093.65 -1036.141)" fill="#91b3fa"/>
          <path id="Trazado_147455" data-name="Trazado 147455" d="M3180.034,1344.765a.563.563,0,0,1-.087.318c-.257.408-.527.811-.8,1.2a.564.564,0,1,1-.917-.656c.263-.368.521-.752.767-1.142a.564.564,0,0,1,1.041.282Z" transform="translate(-3168.729 -1309.96)" fill="#91b3fa"/>
        </g>
        <g id="Grupo_75532" data-name="Grupo 75532" transform="translate(5.758 3.759)">
          <path id="Trazado_147456" data-name="Trazado 147456" d="M2873.966,1100.761a.286.286,0,0,0,.077-.323l-1.306-3.22a15.13,15.13,0,0,0,2.182-4.392l3.352-.906a.285.285,0,0,0,.21-.256l.283-4.158a.286.286,0,0,0-.174-.282l-3.2-1.352a15.13,15.13,0,0,0-1.566-4.647l1.73-3.013a.286.286,0,0,0-.032-.33l-2.74-3.141a.285.285,0,0,0-.322-.077l-3.22,1.306a15.141,15.141,0,0,0-4.392-2.182l-.906-3.352a.286.286,0,0,0-.256-.21l-4.158-.283a.286.286,0,0,0-.282.174l-1.352,3.2a15.129,15.129,0,0,0-4.647,1.566l-3.013-1.731a.286.286,0,0,0-.33.032l-3.14,2.74a.285.285,0,0,0-.077.322l1.306,3.22a15.136,15.136,0,0,0-2.182,4.392l-3.352.906a.285.285,0,0,0-.21.256l-.283,4.158a.285.285,0,0,0,.174.282l3.2,1.353a15.132,15.132,0,0,0,1.566,4.647l-1.731,3.013a.286.286,0,0,0,.032.33l2.74,3.14a.285.285,0,0,0,.322.077l3.22-1.306a15.136,15.136,0,0,0,4.392,2.182l.906,3.352a.286.286,0,0,0,.256.21l4.158.283a.286.286,0,0,0,.282-.174l1.353-3.2a15.137,15.137,0,0,0,4.647-1.566l3.013,1.73a.286.286,0,0,0,.33-.032Z" transform="translate(-2841.967 -1069.943)" fill="#91b3fa"/>
          <g id="Grupo_75531" data-name="Grupo 75531" transform="translate(14.135 14.133)">
            <path id="Trazado_147457" data-name="Trazado 147457" d="M2977.6,1201.171a4.277,4.277,0,1,1-.067-.629A4.333,4.333,0,0,1,2977.6,1201.171Zm-7.4.233a3.136,3.136,0,0,0,3.695,2.985,3.137,3.137,0,0,0,2.527-3.646h0a3.137,3.137,0,0,0-6.222.661Z" transform="translate(-2969.074 -1197.036)" fill="#bdd0fb"/>
          </g>
          <path id="Trazado_147458" data-name="Trazado 147458" d="M2932.573,1149.6a10.718,10.718,0,0,1-.383,3.213l-.027.094a.564.564,0,1,1-1.083-.312,9.534,9.534,0,0,0,.349-1.991h0c0-.037,0-.074.007-.111a9.4,9.4,0,0,0-.878-4.565,9.545,9.545,0,0,0-1.39-2.145l-.014-.016-.042-.049a9.431,9.431,0,0,0-6.508-3.23,9.57,9.57,0,0,0-.977-.017,9.493,9.493,0,1,0,4.641,17.948.564.564,0,1,1,.512,1,10.6,10.6,0,0,1-4.464,1.15,10.719,10.719,0,0,1-1.079-.019,10.621,10.621,0,0,1,.351-21.211,10.823,10.823,0,0,1,1.092.019A10.636,10.636,0,0,1,2932.573,1149.6Z" transform="translate(-2903.623 -1131.617)" fill="#bdd0fb"/>
        </g>
      </g>
    </g>
    <g id="Grupo_75535" data-name="Grupo 75535" transform="translate(719.942 706.303)">
      <rect id="Rectángulo_33015" data-name="Rectángulo 33015" width="4.642" height="50.195" transform="translate(22.433 13.082)" fill="#91b3fa"/>
      <path id="Rectángulo_33016" data-name="Rectángulo 33016" d="M2.444,0H38.209a2.444,2.444,0,0,1,2.444,2.444V4.857a0,0,0,0,1,0,0H0a0,0,0,0,1,0,0V2.444A2.444,2.444,0,0,1,2.444,0Z" transform="translate(4.427 59.389)" fill="#91b3fa"/>
      <rect id="Rectángulo_33017" data-name="Rectángulo 33017" width="51.113" height="14.496" rx="7.248" fill="#91b3fa"/>
    </g>
    <g id="Grupo_75536" data-name="Grupo 75536" transform="translate(471.411 704.708)">
      <rect id="Rectángulo_33018" data-name="Rectángulo 33018" width="4.642" height="50.195" transform="translate(22.433 13.082)" fill="#91b3fa"/>
      <path id="Rectángulo_33019" data-name="Rectángulo 33019" d="M2.444,0H38.209a2.444,2.444,0,0,1,2.444,2.444V4.857a0,0,0,0,1,0,0H0a0,0,0,0,1,0,0V2.444A2.444,2.444,0,0,1,2.444,0Z" transform="translate(4.427 59.389)" fill="#91b3fa"/>
      <rect id="Rectángulo_33020" data-name="Rectángulo 33020" width="51.113" height="14.496" rx="7.248" transform="translate(0)" fill="#91b3fa"/>
    </g>
    <path id="Trazado_147459" data-name="Trazado 147459" d="M2732.216,1534.5s3.433-6.794,6.426-3.528-3.575,6.224-6.114,7.129Z" transform="translate(-2009.422 -944.625)" fill="url(#linear-gradient-42)"/>
    <g id="Grupo_75538" data-name="Grupo 75538" transform="translate(650.485 573.309)">
      <g id="Grupo_75537" data-name="Grupo 75537" transform="translate(0 101.346)">
        <path id="Trazado_147460" data-name="Trazado 147460" d="M2490.057,2416.924a40.4,40.4,0,0,0-14.652,6.253,3.866,3.866,0,0,0-1.706,3.695c.928,7.355,4.746,31.161,17.336,54.413a5.855,5.855,0,0,1,.562,4.016l-2.187,10.179-4.056,3.8H2495.8l6.956-18.825-2.974-.94a5.628,5.628,0,0,1-3.93-5.269l-.349-20.194a22.975,22.975,0,0,0-5.517-15.2l16.685-.812Z" transform="translate(-2430.112 -2407.497)" fill="url(#linear-gradient-43)"/>
        <path id="Trazado_147461" data-name="Trazado 147461" d="M2541.6,3001.008c-.951,1.245,10.241,2.888,15.9.165,0,0,7.838-13.638,7.838-20.66,0,0-.622-1.432-5.225-1.107,0,0-2.632,16.148-5.411,17.957s-7.775.183-7.775.183S2543,2999.171,2541.6,3001.008Z" transform="translate(-2490.435 -2907.386)" fill="url(#linear-gradient-44)"/>
        <path id="Trazado_147462" data-name="Trazado 147462" d="M2194.847,2459.865c-.089-.154-17.964-2.149-17.964-2.149a41.316,41.316,0,0,1-1.243,12.917c-1.828,7.482-28.073,39.9-28.073,39.9l2.752,8.723a44.264,44.264,0,0,1-25.114,1.511l17.054-10.234s15.961-54.392,25.738-64.1l17.918-6.2Z" transform="translate(-2120.398 -2428.216)" fill="url(#linear-gradient-45)"/>
        <path id="Trazado_147463" data-name="Trazado 147463" d="M2592.695,2332.153s10.3,15.318,11.144,22.306-2.821,9.827-13.627,10.295-39.654.461-39.654.461l-22.176-18.952a1.863,1.863,0,0,1,.58-3.172c5.32-1.906,16.117-5.786,19.583-7.131C2553.209,2334.149,2592.695,2332.153,2592.695,2332.153Z" transform="translate(-2478.157 -2332.153)" fill="url(#linear-gradient-46)"/>
        <path id="Trazado_147464" data-name="Trazado 147464" d="M2110.862,3124.379s2.963,2.87.962,6.063c0,0-23.47,4.16-29.842,2.272,0,0,1.323-3.02,8.5-6.458l-.529.406a.857.857,0,0,0,.566,1.538C2095.245,3127.931,2105.03,3127.065,2110.862,3124.379Z" transform="translate(-2081.982 -3036.28)" fill="url(#linear-gradient-47)"/>
      </g>
      <path id="Trazado_147465" data-name="Trazado 147465" d="M2721.741,1817.576c6.592,7.117,13.264,18.31,13.264,18.31l11.276-3.51c-10.04-28.093-35.594-44.678-35.594-44.678s-12.986-.09-13.633,2.077c-.422,1.414-5.047,10.5-7.65,19.264a15.5,15.5,0,0,0,2.624,13.948c4.913,6.3,14.188,15.349,16.659,17.733l2.249,6.552a10.563,10.563,0,0,0,11.4,7.039l15.992-2.153c-1.715-4.692-3.5-9.11-5.337-13.286Z" transform="translate(-2621.284 -1746.898)" fill="#81d4fa"/>
      <path id="Trazado_147466" data-name="Trazado 147466" d="M2733.634,1622.16c.136.45,5.259,12.518,5.524,12.752s7.433.619,10.807-1.687l-7.23-19.553Z" transform="translate(-2661.167 -1592.224)" fill="url(#linear-gradient-48)"/>
      <path id="Trazado_147467" data-name="Trazado 147467" d="M2609.825,1486.485s-6.667,1.9-12.157,10.63-2.833,13.429,1.121,14.536,9.991,1.792,17.136-3.384S2618.451,1484.326,2609.825,1486.485Z" transform="translate(-2537.552 -1479.028)" fill="url(#linear-gradient-49)"/>
      <path id="Trazado_147468" data-name="Trazado 147468" d="M2680.711,1444.126s5.786-12.457-5.621-13.663l-2.81,1.723s-1.382-8.035,5.81-10.81,19.189,4.995,21.26,14.531-8.59,17.046-10.473,15.75c-.739-.508-3.3-5.687-3.3-5.687s.3.78-.575-1.538-3.612.13-3.612.13Z" transform="translate(-2606.542 -1420.807)" fill="url(#linear-gradient-50)"/>
      <path id="Trazado_147469" data-name="Trazado 147469" d="M2905.51,1605.414a2.624,2.624,0,0,1,1.56-4.378c6.722-1.059,16.975,0,21.3,14.381,4.875,16.205,8.045,24.306,11.287,25.724a2.636,2.636,0,0,1,.152,4.84c-1.566.706-3.81.959-7.023.257C2908,1640.826,2914.173,1614.237,2905.51,1605.414Z" transform="translate(-2813.294 -1580.725)" fill="url(#linear-gradient-51)"/>
    </g>
    <path id="Trazado_147470" data-name="Trazado 147470" d="M2681.755,2182.983l8.1-7.809,11.208,4.735s11.156,1.728,17.542,0l6.385-1.729,14.429-4.492,2.266,6.4a3.856,3.856,0,0,1-1.409,4.43,25.462,25.462,0,0,1-3.644,2.27c-1.9.831-46.842-.575-46.842-.575Z" transform="translate(-1964.573 -1516.655)" fill="url(#linear-gradient-52)"/>
    <g id="Grupo_75539" data-name="Grupo 75539" transform="translate(661.686 633.948)">
      <path id="Trazado_147471" data-name="Trazado 147471" d="M2588.827,2290.075l-.1,0-43.541-.047a1.949,1.949,0,1,1,0-3.9l43.541.048a1.949,1.949,0,0,1,.1,3.9Z" transform="translate(-2503.146 -2250.543)" fill="url(#linear-gradient-53)"/>
      <path id="Trazado_147472" data-name="Trazado 147472" d="M2185.6,1966.1h36.261a6.911,6.911,0,0,1,6.251,3.963l16.763,35.546h-45.063a4.2,4.2,0,0,1-3.906-2.656l-13-32.893A2.9,2.9,0,0,1,2185.6,1966.1Z" transform="translate(-2182.705 -1966.097)" fill="#727997"/>
      <path id="Trazado_147473" data-name="Trazado 147473" d="M2392.225,2100.962c.786,2.441.205,4.812-1.3,5.3s-3.356-1.1-4.142-3.545-.205-4.812,1.3-5.3S2391.439,2098.521,2392.225,2100.962Z" transform="translate(-2363.78 -2082.737)" fill="url(#linear-gradient-54)"/>
    </g>
    <g id="Grupo_75542" data-name="Grupo 75542" transform="translate(490.63 672.277)">
      <g id="Grupo_75541" data-name="Grupo 75541">
        <path id="Trazado_147474" data-name="Trazado 147474" d="M907.116,2313.389a1.984,1.984,0,0,0-.535-1.816,2.718,2.718,0,0,0-1.962-.8H647.425a3.063,3.063,0,0,0-2.466,1.167,2.236,2.236,0,0,0-.191,2.424l2.787,5.213a3.982,3.982,0,0,0,3.543,1.958H902.854a2.877,2.877,0,0,0,2.9-2.068Z" transform="translate(-644.498 -2310.774)" fill="#7d97f4"/>
        <g id="Grupo_75540" data-name="Grupo 75540" transform="translate(11.901 4.429)">
          <path id="Trazado_147475" data-name="Trazado 147475" d="M754.268,2447.192a3.812,3.812,0,0,1-1.085-.156c-1.394-.415-2.038-1.535-1.438-2.5l57.633-92.785a3.306,3.306,0,0,1,3.61-1c1.394.416,2.038,1.535,1.438,2.5l-57.633,92.784A2.976,2.976,0,0,1,754.268,2447.192Z" transform="translate(-751.52 -2350.601)" fill="#7d97f4"/>
          <path id="Trazado_147476" data-name="Trazado 147476" d="M877.461,2447.189a2.975,2.975,0,0,1-2.526-1.152L817.3,2353.253c-.6-.966.044-2.085,1.438-2.5a3.305,3.305,0,0,1,3.61,1l57.633,92.784c.6.966-.044,2.085-1.438,2.5A3.808,3.808,0,0,1,877.461,2447.189Z" transform="translate(-809.788 -2350.598)" fill="#7d97f4"/>
          <path id="Trazado_147477" data-name="Trazado 147477" d="M2233.475,2456.565a4.261,4.261,0,0,1-1.148-.155c-1.475-.416-2.157-1.535-1.522-2.5l60.985-92.785a3.625,3.625,0,0,1,3.82-1c1.475.416,2.157,1.535,1.522,2.5l-60.985,92.785A3.223,3.223,0,0,1,2233.475,2456.565Z" transform="translate(-2066.091 -2358.931)" fill="#7d97f4"/>
          <path id="Trazado_147478" data-name="Trazado 147478" d="M2363.83,2456.562a3.222,3.222,0,0,1-2.673-1.152l-60.985-92.785c-.635-.965.047-2.085,1.522-2.5a3.625,3.625,0,0,1,3.821,1l60.985,92.785c.635.965-.047,2.085-1.522,2.5A4.259,4.259,0,0,1,2363.83,2456.562Z" transform="translate(-2127.744 -2358.928)" fill="#7d97f4"/>
        </g>
      </g>
    </g>
    <g id="Grupo_75543" data-name="Grupo 75543" transform="translate(525.389 633.416)">
      <path id="Trazado_147479" data-name="Trazado 147479" d="M958.921,2285.293l.1,0,43.541-.047a1.949,1.949,0,1,0,0-3.9l-43.541.047a1.949,1.949,0,0,0-.1,3.9Z" transform="translate(-957.07 -2245.761)" fill="#727997"/>
      <path id="Trazado_147480" data-name="Trazado 147480" d="M1244.376,1961.315h-36.261a6.911,6.911,0,0,0-6.251,3.963l-16.764,35.546h45.063a4.2,4.2,0,0,0,3.906-2.656l13-32.893A2.9,2.9,0,0,0,1244.376,1961.315Z" transform="translate(-1159.742 -1961.315)" fill="#727997"/>
      <path id="Trazado_147481" data-name="Trazado 147481" d="M1485.607,2096.18c-.786,2.441-.205,4.812,1.3,5.3s3.356-1.1,4.142-3.545.205-4.812-1.3-5.3S1486.392,2093.739,1485.607,2096.18Z" transform="translate(-1426.519 -2077.955)" fill="url(#linear-gradient-55)"/>
    </g>
  </g>
</svg>
